%TF.GenerationSoftware,KiCad,Pcbnew,6.0.4-6f826c9f35~116~ubuntu20.04.1*%
%TF.CreationDate,2022-07-25T08:17:11+00:00*%
%TF.ProjectId,4XLTO1865V02A,34584c54-4f31-4383-9635-563032412e6b,rev?*%
%TF.SameCoordinates,Original*%
%TF.FileFunction,Legend,Top*%
%TF.FilePolarity,Positive*%
%FSLAX46Y46*%
G04 Gerber Fmt 4.6, Leading zero omitted, Abs format (unit mm)*
G04 Created by KiCad (PCBNEW 6.0.4-6f826c9f35~116~ubuntu20.04.1) date 2022-07-25 08:17:11*
%MOMM*%
%LPD*%
G01*
G04 APERTURE LIST*
%ADD10C,0.300000*%
%ADD11C,0.150000*%
%ADD12R,1.524000X1.524000*%
G04 APERTURE END LIST*
D10*
X4805071Y20824572D02*
X3305071Y20824572D01*
X4376500Y21324572D01*
X3305071Y21824572D01*
X4805071Y21824572D01*
X4805071Y23253143D02*
X4805071Y22538858D01*
X3305071Y22538858D01*
X4376500Y23681715D02*
X4376500Y24396000D01*
X4805071Y23538858D02*
X3305071Y24038858D01*
X4805071Y24538858D01*
X4019357Y25538858D02*
X4090785Y25753143D01*
X4162214Y25824572D01*
X4305071Y25896000D01*
X4519357Y25896000D01*
X4662214Y25824572D01*
X4733642Y25753143D01*
X4805071Y25610286D01*
X4805071Y25038858D01*
X3305071Y25038858D01*
X3305071Y25538858D01*
X3376500Y25681715D01*
X3447928Y25753143D01*
X3590785Y25824572D01*
X3733642Y25824572D01*
X3876500Y25753143D01*
X3947928Y25681715D01*
X4019357Y25538858D01*
X4019357Y25038858D01*
X4662214Y26538858D02*
X4733642Y26610286D01*
X4805071Y26538858D01*
X4733642Y26467429D01*
X4662214Y26538858D01*
X4805071Y26538858D01*
X4662214Y28110286D02*
X4733642Y28038858D01*
X4805071Y27824572D01*
X4805071Y27681715D01*
X4733642Y27467429D01*
X4590785Y27324572D01*
X4447928Y27253143D01*
X4162214Y27181715D01*
X3947928Y27181715D01*
X3662214Y27253143D01*
X3519357Y27324572D01*
X3376500Y27467429D01*
X3305071Y27681715D01*
X3305071Y27824572D01*
X3376500Y28038858D01*
X3447928Y28110286D01*
X3305071Y28610286D02*
X3305071Y29610286D01*
X4805071Y28610286D01*
X4805071Y29610286D01*
X5862928Y22574572D02*
X5791500Y22646000D01*
X5720071Y22788858D01*
X5720071Y23146000D01*
X5791500Y23288858D01*
X5862928Y23360286D01*
X6005785Y23431715D01*
X6148642Y23431715D01*
X6362928Y23360286D01*
X7220071Y22503143D01*
X7220071Y23431715D01*
X5720071Y24360286D02*
X5720071Y24503143D01*
X5791500Y24646000D01*
X5862928Y24717429D01*
X6005785Y24788858D01*
X6291500Y24860286D01*
X6648642Y24860286D01*
X6934357Y24788858D01*
X7077214Y24717429D01*
X7148642Y24646000D01*
X7220071Y24503143D01*
X7220071Y24360286D01*
X7148642Y24217429D01*
X7077214Y24146000D01*
X6934357Y24074572D01*
X6648642Y24003143D01*
X6291500Y24003143D01*
X6005785Y24074572D01*
X5862928Y24146000D01*
X5791500Y24217429D01*
X5720071Y24360286D01*
X5862928Y25431715D02*
X5791500Y25503143D01*
X5720071Y25646000D01*
X5720071Y26003143D01*
X5791500Y26146000D01*
X5862928Y26217429D01*
X6005785Y26288858D01*
X6148642Y26288858D01*
X6362928Y26217429D01*
X7220071Y25360286D01*
X7220071Y26288858D01*
X5862928Y26860286D02*
X5791500Y26931715D01*
X5720071Y27074572D01*
X5720071Y27431715D01*
X5791500Y27574572D01*
X5862928Y27646000D01*
X6005785Y27717429D01*
X6148642Y27717429D01*
X6362928Y27646000D01*
X7220071Y26788858D01*
X7220071Y27717429D01*
X53843071Y17435715D02*
X54843071Y17435715D01*
X53271642Y17078572D02*
X54343071Y16721429D01*
X54343071Y17650000D01*
X53343071Y18078572D02*
X54843071Y19078572D01*
X53343071Y19078572D02*
X54843071Y18078572D01*
X54843071Y20364286D02*
X54843071Y19650000D01*
X53343071Y19650000D01*
X53343071Y20650000D02*
X53343071Y21507143D01*
X54843071Y21078572D02*
X53343071Y21078572D01*
X53343071Y22292858D02*
X53343071Y22578572D01*
X53414500Y22721429D01*
X53557357Y22864286D01*
X53843071Y22935715D01*
X54343071Y22935715D01*
X54628785Y22864286D01*
X54771642Y22721429D01*
X54843071Y22578572D01*
X54843071Y22292858D01*
X54771642Y22150000D01*
X54628785Y22007143D01*
X54343071Y21935715D01*
X53843071Y21935715D01*
X53557357Y22007143D01*
X53414500Y22150000D01*
X53343071Y22292858D01*
X54843071Y24364286D02*
X54843071Y23507143D01*
X54843071Y23935715D02*
X53343071Y23935715D01*
X53557357Y23792858D01*
X53700214Y23650000D01*
X53771642Y23507143D01*
X53985928Y25221429D02*
X53914500Y25078572D01*
X53843071Y25007143D01*
X53700214Y24935715D01*
X53628785Y24935715D01*
X53485928Y25007143D01*
X53414500Y25078572D01*
X53343071Y25221429D01*
X53343071Y25507143D01*
X53414500Y25650000D01*
X53485928Y25721429D01*
X53628785Y25792858D01*
X53700214Y25792858D01*
X53843071Y25721429D01*
X53914500Y25650000D01*
X53985928Y25507143D01*
X53985928Y25221429D01*
X54057357Y25078572D01*
X54128785Y25007143D01*
X54271642Y24935715D01*
X54557357Y24935715D01*
X54700214Y25007143D01*
X54771642Y25078572D01*
X54843071Y25221429D01*
X54843071Y25507143D01*
X54771642Y25650000D01*
X54700214Y25721429D01*
X54557357Y25792858D01*
X54271642Y25792858D01*
X54128785Y25721429D01*
X54057357Y25650000D01*
X53985928Y25507143D01*
X53343071Y27078572D02*
X53343071Y26792858D01*
X53414500Y26650000D01*
X53485928Y26578572D01*
X53700214Y26435715D01*
X53985928Y26364286D01*
X54557357Y26364286D01*
X54700214Y26435715D01*
X54771642Y26507143D01*
X54843071Y26650000D01*
X54843071Y26935715D01*
X54771642Y27078572D01*
X54700214Y27150000D01*
X54557357Y27221429D01*
X54200214Y27221429D01*
X54057357Y27150000D01*
X53985928Y27078572D01*
X53914500Y26935715D01*
X53914500Y26650000D01*
X53985928Y26507143D01*
X54057357Y26435715D01*
X54200214Y26364286D01*
X53343071Y28578572D02*
X53343071Y27864286D01*
X54057357Y27792858D01*
X53985928Y27864286D01*
X53914500Y28007143D01*
X53914500Y28364286D01*
X53985928Y28507143D01*
X54057357Y28578572D01*
X54200214Y28650000D01*
X54557357Y28650000D01*
X54700214Y28578572D01*
X54771642Y28507143D01*
X54843071Y28364286D01*
X54843071Y28007143D01*
X54771642Y27864286D01*
X54700214Y27792858D01*
X53343071Y29078572D02*
X54843071Y29578572D01*
X53343071Y30078572D01*
X53343071Y30864286D02*
X53343071Y31007143D01*
X53414500Y31150000D01*
X53485928Y31221429D01*
X53628785Y31292858D01*
X53914500Y31364286D01*
X54271642Y31364286D01*
X54557357Y31292858D01*
X54700214Y31221429D01*
X54771642Y31150000D01*
X54843071Y31007143D01*
X54843071Y30864286D01*
X54771642Y30721429D01*
X54700214Y30650000D01*
X54557357Y30578572D01*
X54271642Y30507143D01*
X53914500Y30507143D01*
X53628785Y30578572D01*
X53485928Y30650000D01*
X53414500Y30721429D01*
X53343071Y30864286D01*
X53485928Y31935715D02*
X53414500Y32007143D01*
X53343071Y32150000D01*
X53343071Y32507143D01*
X53414500Y32650000D01*
X53485928Y32721429D01*
X53628785Y32792858D01*
X53771642Y32792858D01*
X53985928Y32721429D01*
X54843071Y31864286D01*
X54843071Y32792858D01*
X54414500Y33364286D02*
X54414500Y34078572D01*
X54843071Y33221429D02*
X53343071Y33721429D01*
X54843071Y34221429D01*
X55758071Y22650000D02*
X56829500Y22650000D01*
X57043785Y22578572D01*
X57186642Y22435715D01*
X57258071Y22221429D01*
X57258071Y22078572D01*
X56829500Y23292858D02*
X56829500Y24007143D01*
X57258071Y23150000D02*
X55758071Y23650000D01*
X57258071Y24150000D01*
X57115214Y25507143D02*
X57186642Y25435715D01*
X57258071Y25221429D01*
X57258071Y25078572D01*
X57186642Y24864286D01*
X57043785Y24721429D01*
X56900928Y24650000D01*
X56615214Y24578572D01*
X56400928Y24578572D01*
X56115214Y24650000D01*
X55972357Y24721429D01*
X55829500Y24864286D01*
X55758071Y25078572D01*
X55758071Y25221429D01*
X55829500Y25435715D01*
X55900928Y25507143D01*
X57258071Y26150000D02*
X55758071Y26150000D01*
X56472357Y26150000D02*
X56472357Y27007143D01*
X57258071Y27007143D02*
X55758071Y27007143D01*
X55758071Y28007143D02*
X55758071Y28292858D01*
X55829500Y28435715D01*
X55972357Y28578572D01*
X56258071Y28650000D01*
X56758071Y28650000D01*
X57043785Y28578572D01*
X57186642Y28435715D01*
X57258071Y28292858D01*
X57258071Y28007143D01*
X57186642Y27864286D01*
X57043785Y27721429D01*
X56758071Y27650000D01*
X56258071Y27650000D01*
X55972357Y27721429D01*
X55829500Y27864286D01*
X55758071Y28007143D01*
D11*
%TO.C,J2*%
X8540000Y436000D02*
X11080000Y436000D01*
X6000000Y436000D02*
X8540000Y436000D01*
X920000Y436000D02*
X3460000Y436000D01*
X11080000Y2976000D02*
X11080000Y436000D01*
X4476000Y-5660000D02*
X4476000Y436000D01*
X6000000Y2976000D02*
X6000000Y436000D01*
X920000Y2976000D02*
X920000Y436000D01*
X7524000Y2976000D02*
X7524000Y3484000D01*
X8540000Y436000D02*
X11080000Y2976000D01*
X9556000Y2976000D02*
X9556000Y3484000D01*
X4476000Y2976000D02*
X4476000Y3484000D01*
X7016000Y-5660000D02*
X7016000Y436000D01*
X9556000Y-5660000D02*
X9556000Y436000D01*
X8540000Y2976000D02*
X8540000Y436000D01*
X7016000Y2976000D02*
X7016000Y3484000D01*
X2444000Y-5660000D02*
X1936000Y-5660000D01*
X3460000Y2976000D02*
X3460000Y436000D01*
X1936000Y-5660000D02*
X1936000Y436000D01*
X9937000Y-5533000D02*
X9683000Y-5533000D01*
X8540000Y2976000D02*
X8540000Y436000D01*
X4984000Y2976000D02*
X4984000Y3484000D01*
X3460000Y2976000D02*
X920000Y2976000D01*
X1936000Y2976000D02*
X1936000Y3484000D01*
X9810000Y309000D02*
X9810000Y-5533000D01*
X3460000Y436000D02*
X6000000Y436000D01*
X10064000Y2976000D02*
X10064000Y3484000D01*
X2444000Y2976000D02*
X2444000Y3484000D01*
X9683000Y-5533000D02*
X9683000Y309000D01*
X10064000Y436000D02*
X10064000Y-5660000D01*
X4984000Y436000D02*
X4984000Y-5660000D01*
X8540000Y2976000D02*
X6000000Y2976000D01*
X4984000Y-5660000D02*
X4476000Y-5660000D01*
X6000000Y2976000D02*
X6000000Y436000D01*
X11080000Y436000D02*
X8540000Y2976000D01*
X2444000Y436000D02*
X2444000Y-5660000D01*
X10064000Y-5660000D02*
X9556000Y-5660000D01*
X3460000Y2976000D02*
X3460000Y436000D01*
X11080000Y2976000D02*
X8540000Y2976000D01*
X9937000Y309000D02*
X9937000Y-5533000D01*
X7524000Y436000D02*
X7524000Y-5660000D01*
X6000000Y2976000D02*
X3460000Y2976000D01*
X7524000Y-5660000D02*
X7016000Y-5660000D01*
%TO.C,J3*%
X52420000Y2976000D02*
X52420000Y436000D01*
X52420000Y436000D02*
X54960000Y436000D01*
X55976000Y2976000D02*
X55976000Y3484000D01*
X53436000Y2976000D02*
X53436000Y3484000D01*
X58897000Y-5533000D02*
X58643000Y-5533000D01*
X49880000Y2976000D02*
X49880000Y436000D01*
X58516000Y2976000D02*
X58516000Y3484000D01*
X60040000Y2976000D02*
X57500000Y2976000D01*
X60040000Y436000D02*
X57500000Y2976000D01*
X57500000Y436000D02*
X60040000Y2976000D01*
X52420000Y2976000D02*
X52420000Y436000D01*
X56484000Y2976000D02*
X56484000Y3484000D01*
X57500000Y436000D02*
X60040000Y436000D01*
X54960000Y436000D02*
X57500000Y436000D01*
X54960000Y2976000D02*
X54960000Y436000D01*
X58643000Y-5533000D02*
X58643000Y309000D01*
X55976000Y-5660000D02*
X55976000Y436000D01*
X58897000Y309000D02*
X58897000Y-5533000D01*
X52420000Y2976000D02*
X49880000Y2976000D01*
X56484000Y436000D02*
X56484000Y-5660000D01*
X53944000Y-5660000D02*
X53436000Y-5660000D01*
X57500000Y2976000D02*
X57500000Y436000D01*
X53944000Y436000D02*
X53944000Y-5660000D01*
X59024000Y2976000D02*
X59024000Y3484000D01*
X60040000Y2976000D02*
X60040000Y436000D01*
X51404000Y-5660000D02*
X50896000Y-5660000D01*
X49880000Y436000D02*
X52420000Y436000D01*
X57500000Y2976000D02*
X54960000Y2976000D01*
X54960000Y2976000D02*
X54960000Y436000D01*
X57500000Y2976000D02*
X57500000Y436000D01*
X53944000Y2976000D02*
X53944000Y3484000D01*
X53436000Y-5660000D02*
X53436000Y436000D01*
X50896000Y-5660000D02*
X50896000Y436000D01*
X58770000Y309000D02*
X58770000Y-5533000D01*
X51404000Y436000D02*
X51404000Y-5660000D01*
X59024000Y-5660000D02*
X58516000Y-5660000D01*
X56484000Y-5660000D02*
X55976000Y-5660000D01*
X51404000Y2976000D02*
X51404000Y3484000D01*
X58516000Y-5660000D02*
X58516000Y436000D01*
X50896000Y2976000D02*
X50896000Y3484000D01*
X54960000Y2976000D02*
X52420000Y2976000D01*
X59024000Y436000D02*
X59024000Y-5660000D01*
%TD*%
D12*
%TO.C,J2*%
X9810000Y4500000D03*
X7270000Y4500000D03*
X4730000Y4500000D03*
X2190000Y4500000D03*
%TD*%
%TO.C,J3*%
X58770000Y4500000D03*
X56230000Y4500000D03*
X53690000Y4500000D03*
X51150000Y4500000D03*
%TD*%
M02*
