M48
; DRILL file {KiCad 6.0.4-6f826c9f35~116~ubuntu20.04.1} date Wed Aug 10 08:32:22 2022
; FORMAT={-:-/ absolute / metric / decimal}
; #@! TF.CreationDate,2022-08-10T08:32:22+00:00
; #@! TF.GenerationSoftware,Kicad,Pcbnew,6.0.4-6f826c9f35~116~ubuntu20.04.1
; #@! TF.FileFunction,Plated,1,2,PTH
FMAT,2
METRIC
; #@! TA.AperFunction,Plated,PTH,ViaDrill
T1C0.500
; #@! TA.AperFunction,Plated,PTH,ComponentDrill
T2C0.889
; #@! TA.AperFunction,Plated,PTH,ComponentDrill
T3C3.000
%
G90
G05
T1
X1.524Y1.778
X2.794Y1.778
X4.064Y1.778
X5.334Y1.778
X6.604Y1.778
X7.874Y1.778
X9.144Y1.778
X10.414Y1.778
X50.546Y1.778
X51.816Y1.778
X53.086Y1.778
X54.356Y1.778
X55.626Y1.778
X56.896Y1.778
X58.166Y1.778
X59.436Y1.778
T2
X2.19Y4.5
X4.73Y4.5
X7.27Y4.5
X9.81Y4.5
X51.15Y4.5
X53.69Y4.5
X56.23Y4.5
X58.77Y4.5
T3
X5.08Y25.127
X55.88Y25.127
T0
M30
