%TF.GenerationSoftware,KiCad,Pcbnew,6.0.4-6f826c9f35~116~ubuntu20.04.1*%
%TF.CreationDate,2022-07-25T08:19:09+00:00*%
%TF.ProjectId,4XLTO1865V02A,34584c54-4f31-4383-9635-563032412e6b,rev?*%
%TF.SameCoordinates,Original*%
%TF.FileFunction,Copper,L1,Top*%
%TF.FilePolarity,Positive*%
%FSLAX46Y46*%
G04 Gerber Fmt 4.6, Leading zero omitted, Abs format (unit mm)*
G04 Created by KiCad (PCBNEW 6.0.4-6f826c9f35~116~ubuntu20.04.1) date 2022-07-25 08:19:09*
%MOMM*%
%LPD*%
G01*
G04 APERTURE LIST*
%TA.AperFunction,ComponentPad*%
%ADD10R,1.524000X1.524000*%
%TD*%
G04 APERTURE END LIST*
D10*
%TO.P,J2,1*%
%TO.N,GND*%
X9810000Y4500000D03*
%TO.P,J2,2*%
X7270000Y4500000D03*
%TO.P,J2,3*%
X4730000Y4500000D03*
%TO.P,J2,4*%
X2190000Y4500000D03*
%TD*%
%TO.P,J3,1*%
%TO.N,GND*%
X58770000Y4500000D03*
%TO.P,J3,2*%
X56230000Y4500000D03*
%TO.P,J3,3*%
X53690000Y4500000D03*
%TO.P,J3,4*%
X51150000Y4500000D03*
%TD*%
%TA.AperFunction,Conductor*%
%TO.N,GND*%
G36*
X50676681Y49498500D02*
G01*
X50690957Y49496277D01*
X50690959Y49496277D01*
X50699829Y49494896D01*
X50708732Y49496060D01*
X50708735Y49496060D01*
X50722388Y49497845D01*
X50742681Y49498847D01*
X50929782Y49492967D01*
X51298552Y49481378D01*
X51306451Y49480881D01*
X51727134Y49441115D01*
X51892728Y49425462D01*
X51900567Y49424472D01*
X52482217Y49332348D01*
X52489985Y49330865D01*
X53064696Y49202401D01*
X53072363Y49200433D01*
X53343260Y49121731D01*
X53637872Y49036138D01*
X53645375Y49033700D01*
X54199473Y48834213D01*
X54206801Y48831311D01*
X54747282Y48597424D01*
X54754414Y48594068D01*
X55195395Y48369377D01*
X55279131Y48326712D01*
X55286067Y48322899D01*
X55792949Y48023130D01*
X55799633Y48018888D01*
X56286695Y47687881D01*
X56293098Y47683228D01*
X56758394Y47322307D01*
X56764493Y47317262D01*
X57206233Y46927816D01*
X57212003Y46922397D01*
X57628397Y46506003D01*
X57633816Y46500233D01*
X58023262Y46058493D01*
X58028307Y46052394D01*
X58389228Y45587098D01*
X58393881Y45580695D01*
X58724888Y45093633D01*
X58729130Y45086949D01*
X59028899Y44580067D01*
X59032712Y44573131D01*
X59075377Y44489395D01*
X59300068Y44048414D01*
X59303424Y44041282D01*
X59537311Y43500801D01*
X59540213Y43493473D01*
X59739696Y42939388D01*
X59742138Y42931872D01*
X59827731Y42637260D01*
X59906433Y42366363D01*
X59908401Y42358696D01*
X60036865Y41783985D01*
X60038348Y41776217D01*
X60089080Y41455910D01*
X60130471Y41194576D01*
X60131463Y41186722D01*
X60186881Y40600451D01*
X60187378Y40592552D01*
X60204612Y40044145D01*
X60203175Y40020812D01*
X60200896Y40006171D01*
X60202060Y39997269D01*
X60202060Y39997266D01*
X60204936Y39975275D01*
X60206000Y39958938D01*
X60206000Y880000D01*
X60185998Y811879D01*
X60132342Y765386D01*
X60080000Y754000D01*
X880000Y754000D01*
X811879Y774002D01*
X765386Y827658D01*
X754000Y880000D01*
X754000Y15494000D01*
X10126462Y15494000D01*
X10145811Y14878305D01*
X10203782Y14265040D01*
X10300145Y13656625D01*
X10434521Y13055462D01*
X10606379Y12463922D01*
X10607042Y12462081D01*
X10607047Y12462065D01*
X10814372Y11886199D01*
X10815041Y11884341D01*
X11059684Y11319005D01*
X11339342Y10770146D01*
X11652910Y10239930D01*
X11999153Y9730449D01*
X12376703Y9243715D01*
X12784070Y8781647D01*
X13219647Y8346070D01*
X13681715Y7938703D01*
X14168449Y7561153D01*
X14677930Y7214910D01*
X15208146Y6901342D01*
X15209890Y6900453D01*
X15209898Y6900449D01*
X15482575Y6761513D01*
X15757005Y6621684D01*
X16322341Y6377041D01*
X16324197Y6376373D01*
X16324199Y6376372D01*
X16900065Y6169047D01*
X16900081Y6169042D01*
X16901922Y6168379D01*
X16903804Y6167832D01*
X16903817Y6167828D01*
X17491555Y5997075D01*
X17493462Y5996521D01*
X17495382Y5996092D01*
X17495393Y5996089D01*
X17794044Y5929333D01*
X18094625Y5862145D01*
X18096581Y5861835D01*
X18096582Y5861835D01*
X18701081Y5766092D01*
X18701090Y5766091D01*
X18703040Y5765782D01*
X18705009Y5765596D01*
X18705016Y5765595D01*
X19314354Y5707995D01*
X19314367Y5707994D01*
X19316305Y5707811D01*
X19318250Y5707750D01*
X19318264Y5707749D01*
X19589610Y5699222D01*
X19771688Y5693500D01*
X20092312Y5693500D01*
X20274390Y5699222D01*
X20545736Y5707749D01*
X20545750Y5707750D01*
X20547695Y5707811D01*
X20549633Y5707994D01*
X20549646Y5707995D01*
X21158984Y5765595D01*
X21158991Y5765596D01*
X21160960Y5765782D01*
X21162910Y5766091D01*
X21162919Y5766092D01*
X21767418Y5861835D01*
X21767419Y5861835D01*
X21769375Y5862145D01*
X22069956Y5929333D01*
X22368607Y5996089D01*
X22368618Y5996092D01*
X22370538Y5996521D01*
X22372445Y5997075D01*
X22960183Y6167828D01*
X22960196Y6167832D01*
X22962078Y6168379D01*
X22963919Y6169042D01*
X22963935Y6169047D01*
X23539801Y6376372D01*
X23539803Y6376373D01*
X23541659Y6377041D01*
X24106995Y6621684D01*
X24381425Y6761513D01*
X24654102Y6900449D01*
X24654110Y6900453D01*
X24655854Y6901342D01*
X25186070Y7214910D01*
X25695551Y7561153D01*
X26182285Y7938703D01*
X26644353Y8346070D01*
X27079930Y8781647D01*
X27487297Y9243715D01*
X27864847Y9730449D01*
X28211090Y10239930D01*
X28524658Y10770146D01*
X28804316Y11319005D01*
X29048959Y11884341D01*
X29049628Y11886199D01*
X29256953Y12462065D01*
X29256958Y12462081D01*
X29257621Y12463922D01*
X29429479Y13055462D01*
X29563855Y13656625D01*
X29660218Y14265040D01*
X29718189Y14878305D01*
X29737538Y15494000D01*
X30326462Y15494000D01*
X30345811Y14878305D01*
X30403782Y14265040D01*
X30500145Y13656625D01*
X30634521Y13055462D01*
X30806379Y12463922D01*
X30807042Y12462081D01*
X30807047Y12462065D01*
X31014372Y11886199D01*
X31015041Y11884341D01*
X31259684Y11319005D01*
X31539342Y10770146D01*
X31852910Y10239930D01*
X32199153Y9730449D01*
X32576703Y9243715D01*
X32984070Y8781647D01*
X33419647Y8346070D01*
X33881715Y7938703D01*
X34368449Y7561153D01*
X34877930Y7214910D01*
X35408146Y6901342D01*
X35409890Y6900453D01*
X35409898Y6900449D01*
X35682575Y6761513D01*
X35957005Y6621684D01*
X36522341Y6377041D01*
X36524197Y6376373D01*
X36524199Y6376372D01*
X37100065Y6169047D01*
X37100081Y6169042D01*
X37101922Y6168379D01*
X37103804Y6167832D01*
X37103817Y6167828D01*
X37691555Y5997075D01*
X37693462Y5996521D01*
X37695382Y5996092D01*
X37695393Y5996089D01*
X37994044Y5929333D01*
X38294625Y5862145D01*
X38296581Y5861835D01*
X38296582Y5861835D01*
X38901081Y5766092D01*
X38901090Y5766091D01*
X38903040Y5765782D01*
X38905009Y5765596D01*
X38905016Y5765595D01*
X39514354Y5707995D01*
X39514367Y5707994D01*
X39516305Y5707811D01*
X39518250Y5707750D01*
X39518264Y5707749D01*
X39789610Y5699222D01*
X39971688Y5693500D01*
X40292312Y5693500D01*
X40474390Y5699222D01*
X40745736Y5707749D01*
X40745750Y5707750D01*
X40747695Y5707811D01*
X40749633Y5707994D01*
X40749646Y5707995D01*
X41358984Y5765595D01*
X41358991Y5765596D01*
X41360960Y5765782D01*
X41362910Y5766091D01*
X41362919Y5766092D01*
X41967418Y5861835D01*
X41967419Y5861835D01*
X41969375Y5862145D01*
X42269956Y5929333D01*
X42568607Y5996089D01*
X42568618Y5996092D01*
X42570538Y5996521D01*
X42572445Y5997075D01*
X43160183Y6167828D01*
X43160196Y6167832D01*
X43162078Y6168379D01*
X43163919Y6169042D01*
X43163935Y6169047D01*
X43739801Y6376372D01*
X43739803Y6376373D01*
X43741659Y6377041D01*
X44306995Y6621684D01*
X44581425Y6761513D01*
X44854102Y6900449D01*
X44854110Y6900453D01*
X44855854Y6901342D01*
X45386070Y7214910D01*
X45895551Y7561153D01*
X46382285Y7938703D01*
X46844353Y8346070D01*
X47279930Y8781647D01*
X47687297Y9243715D01*
X48064847Y9730449D01*
X48411090Y10239930D01*
X48724658Y10770146D01*
X49004316Y11319005D01*
X49248959Y11884341D01*
X49249628Y11886199D01*
X49456953Y12462065D01*
X49456958Y12462081D01*
X49457621Y12463922D01*
X49629479Y13055462D01*
X49763855Y13656625D01*
X49860218Y14265040D01*
X49918189Y14878305D01*
X49937538Y15494000D01*
X49918189Y16109695D01*
X49860218Y16722960D01*
X49763855Y17331375D01*
X49629479Y17932538D01*
X49457621Y18524078D01*
X49456958Y18525919D01*
X49456953Y18525935D01*
X49249628Y19101801D01*
X49249627Y19101803D01*
X49248959Y19103659D01*
X49004316Y19668995D01*
X48724658Y20217854D01*
X48411090Y20748070D01*
X48064847Y21257551D01*
X47687297Y21744285D01*
X47279930Y22206353D01*
X46844353Y22641930D01*
X46382285Y23049297D01*
X45895551Y23426847D01*
X45386070Y23773090D01*
X44855854Y24086658D01*
X44854110Y24087547D01*
X44854102Y24087551D01*
X44581425Y24226487D01*
X44306995Y24366316D01*
X43741659Y24610959D01*
X43739801Y24611628D01*
X43163935Y24818953D01*
X43163919Y24818958D01*
X43162078Y24819621D01*
X43160196Y24820168D01*
X43160183Y24820172D01*
X42572445Y24990925D01*
X42572444Y24990925D01*
X42570538Y24991479D01*
X42568618Y24991908D01*
X42568607Y24991911D01*
X42269957Y25058667D01*
X41969375Y25125855D01*
X41967418Y25126165D01*
X41362919Y25221908D01*
X41362910Y25221909D01*
X41360960Y25222218D01*
X41358991Y25222404D01*
X41358984Y25222405D01*
X40749646Y25280005D01*
X40749633Y25280006D01*
X40747695Y25280189D01*
X40745750Y25280250D01*
X40745736Y25280251D01*
X40474390Y25288778D01*
X40292312Y25294500D01*
X39971688Y25294500D01*
X39789610Y25288778D01*
X39518264Y25280251D01*
X39518250Y25280250D01*
X39516305Y25280189D01*
X39514367Y25280006D01*
X39514354Y25280005D01*
X38905016Y25222405D01*
X38905009Y25222404D01*
X38903040Y25222218D01*
X38901090Y25221909D01*
X38901081Y25221908D01*
X38296582Y25126165D01*
X38294625Y25125855D01*
X37994043Y25058667D01*
X37695393Y24991911D01*
X37695382Y24991908D01*
X37693462Y24991479D01*
X37691556Y24990925D01*
X37691555Y24990925D01*
X37103817Y24820172D01*
X37103804Y24820168D01*
X37101922Y24819621D01*
X37100081Y24818958D01*
X37100065Y24818953D01*
X36524199Y24611628D01*
X36522341Y24610959D01*
X35957005Y24366316D01*
X35682575Y24226487D01*
X35409898Y24087551D01*
X35409890Y24087547D01*
X35408146Y24086658D01*
X34877930Y23773090D01*
X34368449Y23426847D01*
X33881715Y23049297D01*
X33419647Y22641930D01*
X32984070Y22206353D01*
X32576703Y21744285D01*
X32199153Y21257551D01*
X31852910Y20748070D01*
X31539342Y20217854D01*
X31259684Y19668995D01*
X31015041Y19103659D01*
X31014373Y19101803D01*
X31014372Y19101801D01*
X30807047Y18525935D01*
X30807042Y18525919D01*
X30806379Y18524078D01*
X30634521Y17932538D01*
X30500145Y17331375D01*
X30403782Y16722960D01*
X30345811Y16109695D01*
X30326462Y15494000D01*
X29737538Y15494000D01*
X29718189Y16109695D01*
X29660218Y16722960D01*
X29563855Y17331375D01*
X29429479Y17932538D01*
X29257621Y18524078D01*
X29256958Y18525919D01*
X29256953Y18525935D01*
X29049628Y19101801D01*
X29049627Y19101803D01*
X29048959Y19103659D01*
X28804316Y19668995D01*
X28524658Y20217854D01*
X28211090Y20748070D01*
X27864847Y21257551D01*
X27487297Y21744285D01*
X27079930Y22206353D01*
X26644353Y22641930D01*
X26182285Y23049297D01*
X25695551Y23426847D01*
X25186070Y23773090D01*
X24655854Y24086658D01*
X24654110Y24087547D01*
X24654102Y24087551D01*
X24381425Y24226487D01*
X24106995Y24366316D01*
X23541659Y24610959D01*
X23539801Y24611628D01*
X22963935Y24818953D01*
X22963919Y24818958D01*
X22962078Y24819621D01*
X22960196Y24820168D01*
X22960183Y24820172D01*
X22372445Y24990925D01*
X22372444Y24990925D01*
X22370538Y24991479D01*
X22368618Y24991908D01*
X22368607Y24991911D01*
X22069957Y25058667D01*
X21769375Y25125855D01*
X21767418Y25126165D01*
X21162919Y25221908D01*
X21162910Y25221909D01*
X21160960Y25222218D01*
X21158991Y25222404D01*
X21158984Y25222405D01*
X20549646Y25280005D01*
X20549633Y25280006D01*
X20547695Y25280189D01*
X20545750Y25280250D01*
X20545736Y25280251D01*
X20274390Y25288778D01*
X20092312Y25294500D01*
X19771688Y25294500D01*
X19589610Y25288778D01*
X19318264Y25280251D01*
X19318250Y25280250D01*
X19316305Y25280189D01*
X19314367Y25280006D01*
X19314354Y25280005D01*
X18705016Y25222405D01*
X18705009Y25222404D01*
X18703040Y25222218D01*
X18701090Y25221909D01*
X18701081Y25221908D01*
X18096582Y25126165D01*
X18094625Y25125855D01*
X17794043Y25058667D01*
X17495393Y24991911D01*
X17495382Y24991908D01*
X17493462Y24991479D01*
X17491556Y24990925D01*
X17491555Y24990925D01*
X16903817Y24820172D01*
X16903804Y24820168D01*
X16901922Y24819621D01*
X16900081Y24818958D01*
X16900065Y24818953D01*
X16324199Y24611628D01*
X16322341Y24610959D01*
X15757005Y24366316D01*
X15482575Y24226487D01*
X15209898Y24087551D01*
X15209890Y24087547D01*
X15208146Y24086658D01*
X14677930Y23773090D01*
X14168449Y23426847D01*
X13681715Y23049297D01*
X13219647Y22641930D01*
X12784070Y22206353D01*
X12376703Y21744285D01*
X11999153Y21257551D01*
X11652910Y20748070D01*
X11339342Y20217854D01*
X11059684Y19668995D01*
X10815041Y19103659D01*
X10814373Y19101803D01*
X10814372Y19101801D01*
X10607047Y18525935D01*
X10607042Y18525919D01*
X10606379Y18524078D01*
X10434521Y17932538D01*
X10300145Y17331375D01*
X10203782Y16722960D01*
X10145811Y16109695D01*
X10126462Y15494000D01*
X754000Y15494000D01*
X754000Y35694000D01*
X10126462Y35694000D01*
X10145811Y35078305D01*
X10203782Y34465040D01*
X10300145Y33856625D01*
X10434521Y33255462D01*
X10606379Y32663922D01*
X10607042Y32662081D01*
X10607047Y32662065D01*
X10814372Y32086199D01*
X10815041Y32084341D01*
X11059684Y31519005D01*
X11339342Y30970146D01*
X11652910Y30439930D01*
X11999153Y29930449D01*
X12376703Y29443715D01*
X12784070Y28981647D01*
X13219647Y28546070D01*
X13681715Y28138703D01*
X14168449Y27761153D01*
X14677930Y27414910D01*
X15208146Y27101342D01*
X15209890Y27100453D01*
X15209898Y27100449D01*
X15482575Y26961513D01*
X15757005Y26821684D01*
X16322341Y26577041D01*
X16324197Y26576373D01*
X16324199Y26576372D01*
X16900065Y26369047D01*
X16900081Y26369042D01*
X16901922Y26368379D01*
X16903804Y26367832D01*
X16903817Y26367828D01*
X17491555Y26197075D01*
X17493462Y26196521D01*
X17495382Y26196092D01*
X17495393Y26196089D01*
X17794044Y26129333D01*
X18094625Y26062145D01*
X18096581Y26061835D01*
X18096582Y26061835D01*
X18701081Y25966092D01*
X18701090Y25966091D01*
X18703040Y25965782D01*
X18705009Y25965596D01*
X18705016Y25965595D01*
X19314354Y25907995D01*
X19314367Y25907994D01*
X19316305Y25907811D01*
X19318250Y25907750D01*
X19318264Y25907749D01*
X19589610Y25899222D01*
X19771688Y25893500D01*
X20092312Y25893500D01*
X20274390Y25899222D01*
X20545736Y25907749D01*
X20545750Y25907750D01*
X20547695Y25907811D01*
X20549633Y25907994D01*
X20549646Y25907995D01*
X21158984Y25965595D01*
X21158991Y25965596D01*
X21160960Y25965782D01*
X21162910Y25966091D01*
X21162919Y25966092D01*
X21767418Y26061835D01*
X21767419Y26061835D01*
X21769375Y26062145D01*
X22069957Y26129333D01*
X22368607Y26196089D01*
X22368618Y26196092D01*
X22370538Y26196521D01*
X22372445Y26197075D01*
X22960183Y26367828D01*
X22960196Y26367832D01*
X22962078Y26368379D01*
X22963919Y26369042D01*
X22963935Y26369047D01*
X23539801Y26576372D01*
X23539803Y26576373D01*
X23541659Y26577041D01*
X24106995Y26821684D01*
X24381424Y26961513D01*
X24654102Y27100449D01*
X24654110Y27100453D01*
X24655854Y27101342D01*
X25186070Y27414910D01*
X25695551Y27761153D01*
X26182285Y28138703D01*
X26644353Y28546070D01*
X27079930Y28981647D01*
X27487297Y29443715D01*
X27864847Y29930449D01*
X28211090Y30439930D01*
X28524658Y30970146D01*
X28804316Y31519005D01*
X29048959Y32084341D01*
X29049628Y32086199D01*
X29256953Y32662065D01*
X29256958Y32662081D01*
X29257621Y32663922D01*
X29429479Y33255462D01*
X29563855Y33856625D01*
X29660218Y34465040D01*
X29718189Y35078305D01*
X29737538Y35694000D01*
X30326462Y35694000D01*
X30345811Y35078305D01*
X30403782Y34465040D01*
X30500145Y33856625D01*
X30634521Y33255462D01*
X30806379Y32663922D01*
X30807042Y32662081D01*
X30807047Y32662065D01*
X31014372Y32086199D01*
X31015041Y32084341D01*
X31259684Y31519005D01*
X31539342Y30970146D01*
X31852910Y30439930D01*
X32199153Y29930449D01*
X32576703Y29443715D01*
X32984070Y28981647D01*
X33419647Y28546070D01*
X33881715Y28138703D01*
X34368449Y27761153D01*
X34877930Y27414910D01*
X35408146Y27101342D01*
X35409890Y27100453D01*
X35409898Y27100449D01*
X35682575Y26961513D01*
X35957005Y26821684D01*
X36522341Y26577041D01*
X36524197Y26576373D01*
X36524199Y26576372D01*
X37100065Y26369047D01*
X37100081Y26369042D01*
X37101922Y26368379D01*
X37103804Y26367832D01*
X37103817Y26367828D01*
X37691555Y26197075D01*
X37693462Y26196521D01*
X37695382Y26196092D01*
X37695393Y26196089D01*
X37994044Y26129333D01*
X38294625Y26062145D01*
X38296581Y26061835D01*
X38296582Y26061835D01*
X38901081Y25966092D01*
X38901090Y25966091D01*
X38903040Y25965782D01*
X38905009Y25965596D01*
X38905016Y25965595D01*
X39514354Y25907995D01*
X39514367Y25907994D01*
X39516305Y25907811D01*
X39518250Y25907750D01*
X39518264Y25907749D01*
X39789610Y25899222D01*
X39971688Y25893500D01*
X40292312Y25893500D01*
X40474390Y25899222D01*
X40745736Y25907749D01*
X40745750Y25907750D01*
X40747695Y25907811D01*
X40749633Y25907994D01*
X40749646Y25907995D01*
X41358984Y25965595D01*
X41358991Y25965596D01*
X41360960Y25965782D01*
X41362910Y25966091D01*
X41362919Y25966092D01*
X41967418Y26061835D01*
X41967419Y26061835D01*
X41969375Y26062145D01*
X42269957Y26129333D01*
X42568607Y26196089D01*
X42568618Y26196092D01*
X42570538Y26196521D01*
X42572445Y26197075D01*
X43160183Y26367828D01*
X43160196Y26367832D01*
X43162078Y26368379D01*
X43163919Y26369042D01*
X43163935Y26369047D01*
X43739801Y26576372D01*
X43739803Y26576373D01*
X43741659Y26577041D01*
X44306995Y26821684D01*
X44581424Y26961513D01*
X44854102Y27100449D01*
X44854110Y27100453D01*
X44855854Y27101342D01*
X45386070Y27414910D01*
X45895551Y27761153D01*
X46382285Y28138703D01*
X46844353Y28546070D01*
X47279930Y28981647D01*
X47687297Y29443715D01*
X48064847Y29930449D01*
X48411090Y30439930D01*
X48724658Y30970146D01*
X49004316Y31519005D01*
X49248959Y32084341D01*
X49249628Y32086199D01*
X49456953Y32662065D01*
X49456958Y32662081D01*
X49457621Y32663922D01*
X49629479Y33255462D01*
X49763855Y33856625D01*
X49860218Y34465040D01*
X49918189Y35078305D01*
X49937538Y35694000D01*
X49918189Y36309695D01*
X49860218Y36922960D01*
X49763855Y37531375D01*
X49629479Y38132538D01*
X49457621Y38724078D01*
X49456958Y38725919D01*
X49456953Y38725935D01*
X49249628Y39301801D01*
X49249627Y39301803D01*
X49248959Y39303659D01*
X49004316Y39868995D01*
X48724658Y40417854D01*
X48411090Y40948070D01*
X48064847Y41457551D01*
X47687297Y41944285D01*
X47279930Y42406353D01*
X46844353Y42841930D01*
X46382285Y43249297D01*
X45895551Y43626847D01*
X45386070Y43973090D01*
X44855854Y44286658D01*
X44854110Y44287547D01*
X44854102Y44287551D01*
X44581425Y44426487D01*
X44306995Y44566316D01*
X44305188Y44567098D01*
X43743471Y44810175D01*
X43743468Y44810176D01*
X43741659Y44810959D01*
X43739801Y44811628D01*
X43163935Y45018953D01*
X43163919Y45018958D01*
X43162078Y45019621D01*
X43160196Y45020168D01*
X43160183Y45020172D01*
X42572445Y45190925D01*
X42572444Y45190925D01*
X42570538Y45191479D01*
X42568618Y45191908D01*
X42568607Y45191911D01*
X42269956Y45258667D01*
X41969375Y45325855D01*
X41967418Y45326165D01*
X41362919Y45421908D01*
X41362910Y45421909D01*
X41360960Y45422218D01*
X41358991Y45422404D01*
X41358984Y45422405D01*
X40749646Y45480005D01*
X40749633Y45480006D01*
X40747695Y45480189D01*
X40745750Y45480250D01*
X40745736Y45480251D01*
X40474390Y45488778D01*
X40292312Y45494500D01*
X39971688Y45494500D01*
X39789610Y45488778D01*
X39518264Y45480251D01*
X39518250Y45480250D01*
X39516305Y45480189D01*
X39514367Y45480006D01*
X39514354Y45480005D01*
X38905016Y45422405D01*
X38905009Y45422404D01*
X38903040Y45422218D01*
X38901090Y45421909D01*
X38901081Y45421908D01*
X38296582Y45326165D01*
X38294625Y45325855D01*
X37994044Y45258667D01*
X37695393Y45191911D01*
X37695382Y45191908D01*
X37693462Y45191479D01*
X37691556Y45190925D01*
X37691555Y45190925D01*
X37103817Y45020172D01*
X37103804Y45020168D01*
X37101922Y45019621D01*
X37100081Y45018958D01*
X37100065Y45018953D01*
X36524199Y44811628D01*
X36522341Y44810959D01*
X36520532Y44810176D01*
X36520529Y44810175D01*
X35958812Y44567098D01*
X35957005Y44566316D01*
X35682576Y44426487D01*
X35409898Y44287551D01*
X35409890Y44287547D01*
X35408146Y44286658D01*
X34877930Y43973090D01*
X34368449Y43626847D01*
X33881715Y43249297D01*
X33419647Y42841930D01*
X32984070Y42406353D01*
X32576703Y41944285D01*
X32199153Y41457551D01*
X31852910Y40948070D01*
X31539342Y40417854D01*
X31259684Y39868995D01*
X31015041Y39303659D01*
X31014373Y39301803D01*
X31014372Y39301801D01*
X30807047Y38725935D01*
X30807042Y38725919D01*
X30806379Y38724078D01*
X30634521Y38132538D01*
X30500145Y37531375D01*
X30403782Y36922960D01*
X30345811Y36309695D01*
X30326462Y35694000D01*
X29737538Y35694000D01*
X29718189Y36309695D01*
X29660218Y36922960D01*
X29563855Y37531375D01*
X29429479Y38132538D01*
X29257621Y38724078D01*
X29256958Y38725919D01*
X29256953Y38725935D01*
X29049628Y39301801D01*
X29049627Y39301803D01*
X29048959Y39303659D01*
X28804316Y39868995D01*
X28524658Y40417854D01*
X28211090Y40948070D01*
X27864847Y41457551D01*
X27487297Y41944285D01*
X27079930Y42406353D01*
X26644353Y42841930D01*
X26182285Y43249297D01*
X25695551Y43626847D01*
X25186070Y43973090D01*
X24655854Y44286658D01*
X24654110Y44287547D01*
X24654102Y44287551D01*
X24381425Y44426487D01*
X24106995Y44566316D01*
X24105188Y44567098D01*
X23543471Y44810175D01*
X23543468Y44810176D01*
X23541659Y44810959D01*
X23539801Y44811628D01*
X22963935Y45018953D01*
X22963919Y45018958D01*
X22962078Y45019621D01*
X22960196Y45020168D01*
X22960183Y45020172D01*
X22372445Y45190925D01*
X22372444Y45190925D01*
X22370538Y45191479D01*
X22368618Y45191908D01*
X22368607Y45191911D01*
X22069956Y45258667D01*
X21769375Y45325855D01*
X21767418Y45326165D01*
X21162919Y45421908D01*
X21162910Y45421909D01*
X21160960Y45422218D01*
X21158991Y45422404D01*
X21158984Y45422405D01*
X20549646Y45480005D01*
X20549633Y45480006D01*
X20547695Y45480189D01*
X20545750Y45480250D01*
X20545736Y45480251D01*
X20274390Y45488778D01*
X20092312Y45494500D01*
X19771688Y45494500D01*
X19589610Y45488778D01*
X19318264Y45480251D01*
X19318250Y45480250D01*
X19316305Y45480189D01*
X19314367Y45480006D01*
X19314354Y45480005D01*
X18705016Y45422405D01*
X18705009Y45422404D01*
X18703040Y45422218D01*
X18701090Y45421909D01*
X18701081Y45421908D01*
X18096582Y45326165D01*
X18094625Y45325855D01*
X17794044Y45258667D01*
X17495393Y45191911D01*
X17495382Y45191908D01*
X17493462Y45191479D01*
X17491556Y45190925D01*
X17491555Y45190925D01*
X16903817Y45020172D01*
X16903804Y45020168D01*
X16901922Y45019621D01*
X16900081Y45018958D01*
X16900065Y45018953D01*
X16324199Y44811628D01*
X16322341Y44810959D01*
X16320532Y44810176D01*
X16320529Y44810175D01*
X15758812Y44567098D01*
X15757005Y44566316D01*
X15482576Y44426487D01*
X15209898Y44287551D01*
X15209890Y44287547D01*
X15208146Y44286658D01*
X14677930Y43973090D01*
X14168449Y43626847D01*
X13681715Y43249297D01*
X13219647Y42841930D01*
X12784070Y42406353D01*
X12376703Y41944285D01*
X11999153Y41457551D01*
X11652910Y40948070D01*
X11339342Y40417854D01*
X11059684Y39868995D01*
X10815041Y39303659D01*
X10814373Y39301803D01*
X10814372Y39301801D01*
X10607047Y38725935D01*
X10607042Y38725919D01*
X10606379Y38724078D01*
X10434521Y38132538D01*
X10300145Y37531375D01*
X10203782Y36922960D01*
X10145811Y36309695D01*
X10126462Y35694000D01*
X754000Y35694000D01*
X754000Y39951297D01*
X755500Y39970681D01*
X757723Y39984957D01*
X757723Y39984959D01*
X759104Y39993829D01*
X757940Y40002735D01*
X756155Y40016388D01*
X755153Y40036683D01*
X772622Y40592552D01*
X773119Y40600451D01*
X828537Y41186722D01*
X829529Y41194576D01*
X870921Y41455910D01*
X921652Y41776217D01*
X923135Y41783985D01*
X1051599Y42358696D01*
X1053567Y42366363D01*
X1132269Y42637260D01*
X1217862Y42931872D01*
X1220304Y42939388D01*
X1419787Y43493473D01*
X1422689Y43500801D01*
X1656576Y44041282D01*
X1659932Y44048414D01*
X1884623Y44489395D01*
X1927288Y44573131D01*
X1931101Y44580067D01*
X2230870Y45086949D01*
X2235112Y45093633D01*
X2566119Y45580695D01*
X2570772Y45587098D01*
X2931693Y46052394D01*
X2936738Y46058493D01*
X3326184Y46500233D01*
X3331603Y46506003D01*
X3747997Y46922397D01*
X3753767Y46927816D01*
X4195507Y47317262D01*
X4201606Y47322307D01*
X4666902Y47683228D01*
X4673305Y47687881D01*
X5160367Y48018888D01*
X5167051Y48023130D01*
X5673933Y48322899D01*
X5680869Y48326712D01*
X5764605Y48369377D01*
X6205586Y48594068D01*
X6212718Y48597424D01*
X6753199Y48831311D01*
X6760527Y48834213D01*
X7314625Y49033700D01*
X7322128Y49036138D01*
X7616740Y49121731D01*
X7887637Y49200433D01*
X7895304Y49202401D01*
X8470015Y49330865D01*
X8477783Y49332348D01*
X9059433Y49424472D01*
X9067272Y49425462D01*
X9232866Y49441115D01*
X9653549Y49480881D01*
X9661448Y49481378D01*
X10209855Y49498612D01*
X10233188Y49497175D01*
X10247829Y49494896D01*
X10256731Y49496060D01*
X10256734Y49496060D01*
X10278725Y49498936D01*
X10295062Y49500000D01*
X50657297Y49500000D01*
X50676681Y49498500D01*
G37*
%TD.AperFunction*%
%TD*%
M02*
