  0
SECTION
  2
HEADER
  9
$ANGBASE
  50
0.0
  9
$ANGDIR
  70
1
  9
$MEASUREMENT
  70
0
  0
ENDSEC
  0
SECTION
  2
TABLES
  0
TABLE
  2
LTYPE
  70
4
  0
LTYPE
  5
40F
  2
CONTINUOUS
  70
0
  3
Solid line
  72
65
  73
0
  40
0.0
  0
LTYPE
  5
410
  2
DASHDOT
 70
0
  3
Dash Dot ____ _ ____ _
 72
65
 73
4
 40
2.0
 49
1.25
 49
-0.25
 49
0.25
 49
-0.25
  0
LTYPE
  5
411
  2
DASHED
 70
0
  3
Dashed __ __ __ __ __
 72
65
 73
2
 40
0.75
 49
0.5
 49
-0.25
  0
LTYPE
  5
43B
  2
DOTTED
 70
0
  3
Dotted .  .  .  .
 72
65
 73
2
 40
0.2
 49
0.0
 49
-0.2
  0
ENDTAB
  0
TABLE
  2
STYLE
  70
4
  0
STYLE
  2
KICAD
  70
0
  40
0
  41
1
  42
1
  50
0
  71
0
  3
isocp.shx
  0
STYLE
  2
KICADB
  70
0
  40
0
  41
1
  42
1
  50
0
  71
0
  3
isocp.shx
  0
STYLE
  2
KICADI
  70
0
  40
0
  41
1
  42
1
  50
15
  71
0
  3
isocp.shx
  0
STYLE
  2
KICADBI
  70
0
  40
0
  41
1
  42
1
  50
15
  71
0
  3
isocp.shx
  0
ENDTAB
  0
TABLE
  2
LAYER
  70
1
  0
LAYER
  2
BLACK
  70
0
  62
7
  6
CONTINUOUS
  0
ENDTAB
  0
ENDSEC
  0
SECTION
  2
ENTITIES
0
LINE
8
BLACK
6
CONTINUOUS
10
0.0297441
20
1.57365
11
0.0298316
21
1.57421
0
LINE
8
BLACK
6
CONTINUOUS
10
0.0298316
20
1.57421
11
0.0298316
21
1.57421
0
LINE
8
BLACK
6
CONTINUOUS
10
0.0298316
20
1.57421
11
0.029886
21
1.57456
0
LINE
8
BLACK
6
CONTINUOUS
10
0.029886
20
1.57456
11
0.0298402
21
1.57491
0
LINE
8
BLACK
6
CONTINUOUS
10
0.0298402
20
1.57491
11
0.0297699
21
1.57545
0
LINE
8
BLACK
6
CONTINUOUS
10
0.0297699
20
1.57545
11
0.0297304
21
1.57625
0
LINE
8
BLACK
6
CONTINUOUS
10
0.0297304
20
1.57625
11
0.0304182
21
1.59813
0
LINE
8
BLACK
6
CONTINUOUS
10
0.0304182
20
1.59813
11
0.0304378
21
1.59844
0
LINE
8
BLACK
6
CONTINUOUS
10
0.0304378
20
1.59844
11
0.0326196
21
1.62152
0
LINE
8
BLACK
6
CONTINUOUS
10
0.0326196
20
1.62152
11
0.0326586
21
1.62183
0
LINE
8
BLACK
6
CONTINUOUS
10
0.0326586
20
1.62183
11
0.0342882
21
1.63212
0
LINE
8
BLACK
6
CONTINUOUS
10
0.0342882
20
1.63212
11
0.0362855
21
1.64473
0
LINE
8
BLACK
6
CONTINUOUS
10
0.0362855
20
1.64473
11
0.0363439
21
1.64504
0
LINE
8
BLACK
6
CONTINUOUS
10
0.0363439
20
1.64504
11
0.0414015
21
1.66767
0
LINE
8
BLACK
6
CONTINUOUS
10
0.0414015
20
1.66767
11
0.041479
21
1.66797
0
LINE
8
BLACK
6
CONTINUOUS
10
0.041479
20
1.66797
11
0.0445775
21
1.67863
0
LINE
8
BLACK
6
CONTINUOUS
10
0.0445775
20
1.67863
11
0.0479473
21
1.69023
0
LINE
8
BLACK
6
CONTINUOUS
10
0.0479473
20
1.69023
11
0.0480435
21
1.69053
0
LINE
8
BLACK
6
CONTINUOUS
10
0.0480435
20
1.69053
11
0.0558971
21
1.71234
0
LINE
8
BLACK
6
CONTINUOUS
10
0.0558971
20
1.71234
11
0.0560114
21
1.71263
0
LINE
8
BLACK
6
CONTINUOUS
10
0.0560114
20
1.71263
11
0.0652195
21
1.73391
0
LINE
8
BLACK
6
CONTINUOUS
10
0.0652195
20
1.73391
11
0.0653517
21
1.73419
0
LINE
8
BLACK
6
CONTINUOUS
10
0.0653517
20
1.73419
11
0.0741978
21
1.75155
0
LINE
8
BLACK
6
CONTINUOUS
10
0.0741978
20
1.75155
11
0.0758775
21
1.75485
0
LINE
8
BLACK
6
CONTINUOUS
10
0.0758775
20
1.75485
11
0.0760276
21
1.75512
0
LINE
8
BLACK
6
CONTINUOUS
10
0.0760276
20
1.75512
11
0.0878295
21
1.77508
0
LINE
8
BLACK
6
CONTINUOUS
10
0.0878295
20
1.77508
11
0.0879965
21
1.77534
0
LINE
8
BLACK
6
CONTINUOUS
10
0.0879965
20
1.77534
11
0.101028
21
1.79452
0
LINE
8
BLACK
6
CONTINUOUS
10
0.101028
20
1.79452
11
0.101211
21
1.79477
0
LINE
8
BLACK
6
CONTINUOUS
10
0.101211
20
1.79477
11
0.115421
21
1.81309
0
LINE
8
BLACK
6
CONTINUOUS
10
0.115421
20
1.81309
11
0.11562
21
1.81333
0
LINE
8
BLACK
6
CONTINUOUS
10
0.11562
20
1.81333
11
0.130952
21
1.83072
0
LINE
8
BLACK
6
CONTINUOUS
10
0.130952
20
1.83072
11
0.131165
21
1.83095
0
LINE
8
BLACK
6
CONTINUOUS
10
0.131165
20
1.83095
11
0.147559
21
1.84734
0
LINE
8
BLACK
6
CONTINUOUS
10
0.147559
20
1.84734
11
0.147786
21
1.84755
0
LINE
8
BLACK
6
CONTINUOUS
10
0.147786
20
1.84755
11
0.165177
21
1.86288
0
LINE
8
BLACK
6
CONTINUOUS
10
0.165177
20
1.86288
11
0.165418
21
1.86308
0
LINE
8
BLACK
6
CONTINUOUS
10
0.165418
20
1.86308
11
0.183736
21
1.87729
0
LINE
8
BLACK
6
CONTINUOUS
10
0.183736
20
1.87729
11
0.183988
21
1.87748
0
LINE
8
BLACK
6
CONTINUOUS
10
0.183988
20
1.87748
11
0.203164
21
1.89051
0
LINE
8
BLACK
6
CONTINUOUS
10
0.203164
20
1.89051
11
0.203427
21
1.89067
0
LINE
8
BLACK
6
CONTINUOUS
10
0.203427
20
1.89067
11
0.223383
21
1.90248
0
LINE
8
BLACK
6
CONTINUOUS
10
0.223383
20
1.90248
11
0.223656
21
1.90263
0
LINE
8
BLACK
6
CONTINUOUS
10
0.223656
20
1.90263
11
0.226953
21
1.90431
0
LINE
8
BLACK
6
CONTINUOUS
10
0.226953
20
1.90431
11
0.244314
21
1.91315
0
LINE
8
BLACK
6
CONTINUOUS
10
0.244314
20
1.91315
11
0.244595
21
1.91328
0
LINE
8
BLACK
6
CONTINUOUS
10
0.244595
20
1.91328
11
0.265874
21
1.92249
0
LINE
8
BLACK
6
CONTINUOUS
10
0.265874
20
1.92249
11
0.266162
21
1.92261
0
LINE
8
BLACK
6
CONTINUOUS
10
0.266162
20
1.92261
11
0.287977
21
1.93046
0
LINE
8
BLACK
6
CONTINUOUS
10
0.287977
20
1.93046
11
0.288273
21
1.93056
0
LINE
8
BLACK
6
CONTINUOUS
10
0.288273
20
1.93056
11
0.299872
21
1.93393
0
LINE
8
BLACK
6
CONTINUOUS
10
0.299872
20
1.93393
11
0.310537
21
1.93702
0
LINE
8
BLACK
6
CONTINUOUS
10
0.310537
20
1.93702
11
0.310839
21
1.9371
0
LINE
8
BLACK
6
CONTINUOUS
10
0.310839
20
1.9371
11
0.333465
21
1.94216
0
LINE
8
BLACK
6
CONTINUOUS
10
0.333465
20
1.94216
11
0.333771
21
1.94222
0
LINE
8
BLACK
6
CONTINUOUS
10
0.333771
20
1.94222
11
0.356671
21
1.94585
0
LINE
8
BLACK
6
CONTINUOUS
10
0.356671
20
1.94585
11
0.356979
21
1.94588
0
LINE
8
BLACK
6
CONTINUOUS
10
0.356979
20
1.94588
11
0.363499
21
1.9465
0
LINE
8
BLACK
6
CONTINUOUS
10
0.363499
20
1.9465
11
0.380061
21
1.94807
0
LINE
8
BLACK
6
CONTINUOUS
10
0.380061
20
1.94807
11
0.380372
21
1.94809
0
LINE
8
BLACK
6
CONTINUOUS
10
0.380372
20
1.94809
11
0.401963
21
1.94876
0
LINE
8
BLACK
6
CONTINUOUS
10
0.401963
20
1.94876
11
0.402881
21
1.94871
0
LINE
8
BLACK
6
CONTINUOUS
10
0.402881
20
1.94871
11
0.403458
21
1.94862
0
LINE
8
BLACK
6
CONTINUOUS
10
0.403458
20
1.94862
11
0.403808
21
1.94866
0
LINE
8
BLACK
6
CONTINUOUS
10
0.403808
20
1.94866
11
0.403808
21
1.94866
0
LINE
8
BLACK
6
CONTINUOUS
10
0.403808
20
1.94866
11
0.404674
21
1.94878
0
LINE
8
BLACK
6
CONTINUOUS
10
0.404674
20
1.94878
11
0.405317
21
1.94882
0
LINE
8
BLACK
6
CONTINUOUS
10
0.405317
20
1.94882
11
1.99438
21
1.94882
0
LINE
8
BLACK
6
CONTINUOUS
10
1.99438
20
1.94882
11
1.99514
21
1.94876
0
LINE
8
BLACK
6
CONTINUOUS
10
1.99514
20
1.94876
11
1.99571
21
1.94867
0
LINE
8
BLACK
6
CONTINUOUS
10
1.99571
20
1.94867
11
1.99571
21
1.94867
0
LINE
8
BLACK
6
CONTINUOUS
10
1.99571
20
1.94867
11
1.99606
21
1.94862
0
LINE
8
BLACK
6
CONTINUOUS
10
1.99606
20
1.94862
11
1.99641
21
1.94866
0
LINE
8
BLACK
6
CONTINUOUS
10
1.99641
20
1.94866
11
1.99641
21
1.94866
0
LINE
8
BLACK
6
CONTINUOUS
10
1.99641
20
1.94866
11
1.99694
21
1.94873
0
LINE
8
BLACK
6
CONTINUOUS
10
1.99694
20
1.94873
11
1.99774
21
1.94877
0
LINE
8
BLACK
6
CONTINUOUS
10
1.99774
20
1.94877
11
2.00511
21
1.94854
0
LINE
8
BLACK
6
CONTINUOUS
10
2.00511
20
1.94854
11
2.01963
21
1.94809
0
LINE
8
BLACK
6
CONTINUOUS
10
2.01963
20
1.94809
11
2.01994
21
1.94807
0
LINE
8
BLACK
6
CONTINUOUS
10
2.01994
20
1.94807
11
2.0365
21
1.9465
0
LINE
8
BLACK
6
CONTINUOUS
10
2.0365
20
1.9465
11
2.04302
21
1.94588
0
LINE
8
BLACK
6
CONTINUOUS
10
2.04302
20
1.94588
11
2.04333
21
1.94585
0
LINE
8
BLACK
6
CONTINUOUS
10
2.04333
20
1.94585
11
2.06623
21
1.94222
0
LINE
8
BLACK
6
CONTINUOUS
10
2.06623
20
1.94222
11
2.06653
21
1.94216
0
LINE
8
BLACK
6
CONTINUOUS
10
2.06653
20
1.94216
11
2.08916
21
1.9371
0
LINE
8
BLACK
6
CONTINUOUS
10
2.08916
20
1.9371
11
2.08946
21
1.93702
0
LINE
8
BLACK
6
CONTINUOUS
10
2.08946
20
1.93702
11
2.10013
21
1.93393
0
LINE
8
BLACK
6
CONTINUOUS
10
2.10013
20
1.93393
11
2.11173
21
1.93056
0
LINE
8
BLACK
6
CONTINUOUS
10
2.11173
20
1.93056
11
2.11202
21
1.93046
0
LINE
8
BLACK
6
CONTINUOUS
10
2.11202
20
1.93046
11
2.13384
21
1.92261
0
LINE
8
BLACK
6
CONTINUOUS
10
2.13384
20
1.92261
11
2.13413
21
1.92249
0
LINE
8
BLACK
6
CONTINUOUS
10
2.13413
20
1.92249
11
2.1554
21
1.91328
0
LINE
8
BLACK
6
CONTINUOUS
10
2.1554
20
1.91328
11
2.15569
21
1.91315
0
LINE
8
BLACK
6
CONTINUOUS
10
2.15569
20
1.91315
11
2.17305
21
1.90431
0
LINE
8
BLACK
6
CONTINUOUS
10
2.17305
20
1.90431
11
2.17634
21
1.90263
0
LINE
8
BLACK
6
CONTINUOUS
10
2.17634
20
1.90263
11
2.17662
21
1.90248
0
LINE
8
BLACK
6
CONTINUOUS
10
2.17662
20
1.90248
11
2.19657
21
1.89067
0
LINE
8
BLACK
6
CONTINUOUS
10
2.19657
20
1.89067
11
2.19684
21
1.89051
0
LINE
8
BLACK
6
CONTINUOUS
10
2.19684
20
1.89051
11
2.21601
21
1.87748
0
LINE
8
BLACK
6
CONTINUOUS
10
2.21601
20
1.87748
11
2.21626
21
1.87729
0
LINE
8
BLACK
6
CONTINUOUS
10
2.21626
20
1.87729
11
2.23458
21
1.86308
0
LINE
8
BLACK
6
CONTINUOUS
10
2.23458
20
1.86308
11
2.23482
21
1.86288
0
LINE
8
BLACK
6
CONTINUOUS
10
2.23482
20
1.86288
11
2.25221
21
1.84755
0
LINE
8
BLACK
6
CONTINUOUS
10
2.25221
20
1.84755
11
2.25244
21
1.84734
0
LINE
8
BLACK
6
CONTINUOUS
10
2.25244
20
1.84734
11
2.26883
21
1.83095
0
LINE
8
BLACK
6
CONTINUOUS
10
2.26883
20
1.83095
11
2.26905
21
1.83072
0
LINE
8
BLACK
6
CONTINUOUS
10
2.26905
20
1.83072
11
2.28438
21
1.81333
0
LINE
8
BLACK
6
CONTINUOUS
10
2.28438
20
1.81333
11
2.28458
21
1.81309
0
LINE
8
BLACK
6
CONTINUOUS
10
2.28458
20
1.81309
11
2.29879
21
1.79477
0
LINE
8
BLACK
6
CONTINUOUS
10
2.29879
20
1.79477
11
2.29897
21
1.79452
0
LINE
8
BLACK
6
CONTINUOUS
10
2.29897
20
1.79452
11
2.312
21
1.77534
0
LINE
8
BLACK
6
CONTINUOUS
10
2.312
20
1.77534
11
2.31217
21
1.77508
0
LINE
8
BLACK
6
CONTINUOUS
10
2.31217
20
1.77508
11
2.32397
21
1.75512
0
LINE
8
BLACK
6
CONTINUOUS
10
2.32397
20
1.75512
11
2.32412
21
1.75485
0
LINE
8
BLACK
6
CONTINUOUS
10
2.32412
20
1.75485
11
2.3258
21
1.75155
0
LINE
8
BLACK
6
CONTINUOUS
10
2.3258
20
1.75155
11
2.33465
21
1.73419
0
LINE
8
BLACK
6
CONTINUOUS
10
2.33465
20
1.73419
11
2.33478
21
1.73391
0
LINE
8
BLACK
6
CONTINUOUS
10
2.33478
20
1.73391
11
2.34399
21
1.71263
0
LINE
8
BLACK
6
CONTINUOUS
10
2.34399
20
1.71263
11
2.3441
21
1.71234
0
LINE
8
BLACK
6
CONTINUOUS
10
2.3441
20
1.71234
11
2.35196
21
1.69053
0
LINE
8
BLACK
6
CONTINUOUS
10
2.35196
20
1.69053
11
2.35205
21
1.69023
0
LINE
8
BLACK
6
CONTINUOUS
10
2.35205
20
1.69023
11
2.35542
21
1.67863
0
LINE
8
BLACK
6
CONTINUOUS
10
2.35542
20
1.67863
11
2.35852
21
1.66797
0
LINE
8
BLACK
6
CONTINUOUS
10
2.35852
20
1.66797
11
2.3586
21
1.66767
0
LINE
8
BLACK
6
CONTINUOUS
10
2.3586
20
1.66767
11
2.36366
21
1.64504
0
LINE
8
BLACK
6
CONTINUOUS
10
2.36366
20
1.64504
11
2.36371
21
1.64473
0
LINE
8
BLACK
6
CONTINUOUS
10
2.36371
20
1.64473
11
2.36571
21
1.63212
0
LINE
8
BLACK
6
CONTINUOUS
10
2.36571
20
1.63212
11
2.36734
21
1.62183
0
LINE
8
BLACK
6
CONTINUOUS
10
2.36734
20
1.62183
11
2.36738
21
1.62152
0
LINE
8
BLACK
6
CONTINUOUS
10
2.36738
20
1.62152
11
2.36956
21
1.59844
0
LINE
8
BLACK
6
CONTINUOUS
10
2.36956
20
1.59844
11
2.36958
21
1.59813
0
LINE
8
BLACK
6
CONTINUOUS
10
2.36958
20
1.59813
11
2.37026
21
1.57654
0
LINE
8
BLACK
6
CONTINUOUS
10
2.37026
20
1.57654
11
2.3702
21
1.57562
0
LINE
8
BLACK
6
CONTINUOUS
10
2.3702
20
1.57562
11
2.37011
21
1.57505
0
LINE
8
BLACK
6
CONTINUOUS
10
2.37011
20
1.57505
11
2.37016
21
1.5747
0
LINE
8
BLACK
6
CONTINUOUS
10
2.37016
20
1.5747
11
2.37016
21
1.5747
0
LINE
8
BLACK
6
CONTINUOUS
10
2.37016
20
1.5747
11
2.37027
21
1.57383
0
LINE
8
BLACK
6
CONTINUOUS
10
2.37027
20
1.57383
11
2.37031
21
1.57319
0
LINE
8
BLACK
6
CONTINUOUS
10
2.37031
20
1.57319
11
2.37031
21
0.0346457
0
LINE
8
BLACK
6
CONTINUOUS
10
2.37031
20
0.0346457
11
2.36953
21
0.0319637
0
LINE
8
BLACK
6
CONTINUOUS
10
2.36953
20
0.0319637
11
2.36742
21
0.0301333
0
LINE
8
BLACK
6
CONTINUOUS
10
2.36742
20
0.0301333
11
2.36535
21
0.029685
0
LINE
8
BLACK
6
CONTINUOUS
10
2.36535
20
0.029685
11
0.0346457
21
0.029685
0
LINE
8
BLACK
6
CONTINUOUS
10
0.0346457
20
0.029685
11
0.0319637
21
0.0304725
0
LINE
8
BLACK
6
CONTINUOUS
10
0.0319637
20
0.0304725
11
0.0301333
21
0.032585
0
LINE
8
BLACK
6
CONTINUOUS
10
0.0301333
20
0.032585
11
0.029685
21
0.0346457
0
LINE
8
BLACK
6
CONTINUOUS
10
0.029685
20
0.0346457
11
0.029685
21
1.57289
0
LINE
8
BLACK
6
CONTINUOUS
10
0.029685
20
1.57289
11
0.0297441
21
1.57365
0
LINE
8
BLACK
6
CONTINUOUS
10
1.197
20
0.561616
11
1.20079
21
0.537662
0
LINE
8
BLACK
6
CONTINUOUS
10
1.20079
20
0.537662
11
1.20608
21
0.513995
0
LINE
8
BLACK
6
CONTINUOUS
10
1.20608
20
0.513995
11
1.21285
21
0.490706
0
LINE
8
BLACK
6
CONTINUOUS
10
1.21285
20
0.490706
11
1.21288
21
0.490633
0
LINE
8
BLACK
6
CONTINUOUS
10
1.21288
20
0.490633
11
1.21288
21
0.490632
0
LINE
8
BLACK
6
CONTINUOUS
10
1.21288
20
0.490632
11
1.22104
21
0.467961
0
LINE
8
BLACK
6
CONTINUOUS
10
1.22104
20
0.467961
11
1.22106
21
0.467887
0
LINE
8
BLACK
6
CONTINUOUS
10
1.22106
20
0.467887
11
1.2307
21
0.44563
0
LINE
8
BLACK
6
CONTINUOUS
10
1.2307
20
0.44563
11
1.24171
21
0.424021
0
LINE
8
BLACK
6
CONTINUOUS
10
1.24171
20
0.424021
11
1.25405
21
0.403147
0
LINE
8
BLACK
6
CONTINUOUS
10
1.25405
20
0.403147
11
1.26768
21
0.383089
0
LINE
8
BLACK
6
CONTINUOUS
10
1.26768
20
0.383089
11
1.28255
21
0.363926
0
LINE
8
BLACK
6
CONTINUOUS
10
1.28255
20
0.363926
11
1.29859
21
0.345734
0
LINE
8
BLACK
6
CONTINUOUS
10
1.29859
20
0.345734
11
1.31573
21
0.328585
0
LINE
8
BLACK
6
CONTINUOUS
10
1.31573
20
0.328585
11
1.33393
21
0.312547
0
LINE
8
BLACK
6
CONTINUOUS
10
1.33393
20
0.312547
11
1.35309
21
0.297683
0
LINE
8
BLACK
6
CONTINUOUS
10
1.35309
20
0.297683
11
1.37315
21
0.284052
0
LINE
8
BLACK
6
CONTINUOUS
10
1.37315
20
0.284052
11
1.39402
21
0.271706
0
LINE
8
BLACK
6
CONTINUOUS
10
1.39402
20
0.271706
11
1.39409
21
0.271671
0
LINE
8
BLACK
6
CONTINUOUS
10
1.39409
20
0.271671
11
1.39409
21
0.271671
0
LINE
8
BLACK
6
CONTINUOUS
10
1.39409
20
0.271671
11
1.40483
21
0.266201
0
LINE
8
BLACK
6
CONTINUOUS
10
1.40483
20
0.266201
11
1.41563
21
0.260696
0
LINE
8
BLACK
6
CONTINUOUS
10
1.41563
20
0.260696
11
1.43789
21
0.251065
0
LINE
8
BLACK
6
CONTINUOUS
10
1.43789
20
0.251065
11
1.43796
21
0.251038
0
LINE
8
BLACK
6
CONTINUOUS
10
1.43796
20
0.251038
11
1.43796
21
0.251038
0
LINE
8
BLACK
6
CONTINUOUS
10
1.43796
20
0.251038
11
1.46063
21
0.242876
0
LINE
8
BLACK
6
CONTINUOUS
10
1.46063
20
0.242876
11
1.46063
21
0.242876
0
LINE
8
BLACK
6
CONTINUOUS
10
1.46063
20
0.242876
11
1.46071
21
0.24285
0
LINE
8
BLACK
6
CONTINUOUS
10
1.46071
20
0.24285
11
1.46078
21
0.242828
0
LINE
8
BLACK
6
CONTINUOUS
10
1.46078
20
0.242828
11
1.46078
21
0.242828
0
LINE
8
BLACK
6
CONTINUOUS
10
1.46078
20
0.242828
11
1.48392
21
0.236105
0
LINE
8
BLACK
6
CONTINUOUS
10
1.48392
20
0.236105
11
1.48399
21
0.236084
0
LINE
8
BLACK
6
CONTINUOUS
10
1.48399
20
0.236084
11
1.48407
21
0.236067
0
LINE
8
BLACK
6
CONTINUOUS
10
1.48407
20
0.236067
11
1.48407
21
0.236066
0
LINE
8
BLACK
6
CONTINUOUS
10
1.48407
20
0.236066
11
1.49583
21
0.233438
0
LINE
8
BLACK
6
CONTINUOUS
10
1.49583
20
0.233438
11
1.50766
21
0.230793
0
LINE
8
BLACK
6
CONTINUOUS
10
1.50766
20
0.230793
11
1.50774
21
0.230781
0
LINE
8
BLACK
6
CONTINUOUS
10
1.50774
20
0.230781
11
1.50774
21
0.230781
0
LINE
8
BLACK
6
CONTINUOUS
10
1.50774
20
0.230781
11
1.53154
21
0.227011
0
LINE
8
BLACK
6
CONTINUOUS
10
1.53154
20
0.227011
11
1.53154
21
0.227011
0
LINE
8
BLACK
6
CONTINUOUS
10
1.53154
20
0.227011
11
1.53162
21
0.226999
0
LINE
8
BLACK
6
CONTINUOUS
10
1.53162
20
0.226999
11
1.53169
21
0.226992
0
LINE
8
BLACK
6
CONTINUOUS
10
1.53169
20
0.226992
11
1.53169
21
0.226992
0
LINE
8
BLACK
6
CONTINUOUS
10
1.53169
20
0.226992
11
1.55568
21
0.224724
0
LINE
8
BLACK
6
CONTINUOUS
10
1.55568
20
0.224724
11
1.55568
21
0.224724
0
LINE
8
BLACK
6
CONTINUOUS
10
1.55568
20
0.224724
11
1.55576
21
0.224717
0
LINE
8
BLACK
6
CONTINUOUS
10
1.55576
20
0.224717
11
1.55584
21
0.224715
0
LINE
8
BLACK
6
CONTINUOUS
10
1.55584
20
0.224715
11
1.55584
21
0.224715
0
LINE
8
BLACK
6
CONTINUOUS
10
1.55584
20
0.224715
11
1.56652
21
0.224379
0
LINE
8
BLACK
6
CONTINUOUS
10
1.56652
20
0.224379
11
1.57369
21
0.224154
0
LINE
8
BLACK
6
CONTINUOUS
10
1.57369
20
0.224154
11
1.58631
21
0.224154
0
LINE
8
BLACK
6
CONTINUOUS
10
1.58631
20
0.224154
11
1.59348
21
0.224379
0
LINE
8
BLACK
6
CONTINUOUS
10
1.59348
20
0.224379
11
1.60416
21
0.224715
0
LINE
8
BLACK
6
CONTINUOUS
10
1.60416
20
0.224715
11
1.60416
21
0.224715
0
LINE
8
BLACK
6
CONTINUOUS
10
1.60416
20
0.224715
11
1.60424
21
0.224717
0
LINE
8
BLACK
6
CONTINUOUS
10
1.60424
20
0.224717
11
1.60432
21
0.224724
0
LINE
8
BLACK
6
CONTINUOUS
10
1.60432
20
0.224724
11
1.60432
21
0.224724
0
LINE
8
BLACK
6
CONTINUOUS
10
1.60432
20
0.224724
11
1.62831
21
0.226992
0
LINE
8
BLACK
6
CONTINUOUS
10
1.62831
20
0.226992
11
1.62831
21
0.226992
0
LINE
8
BLACK
6
CONTINUOUS
10
1.62831
20
0.226992
11
1.62838
21
0.226999
0
LINE
8
BLACK
6
CONTINUOUS
10
1.62838
20
0.226999
11
1.62846
21
0.227011
0
LINE
8
BLACK
6
CONTINUOUS
10
1.62846
20
0.227011
11
1.62846
21
0.227011
0
LINE
8
BLACK
6
CONTINUOUS
10
1.62846
20
0.227011
11
1.65226
21
0.230781
0
LINE
8
BLACK
6
CONTINUOUS
10
1.65226
20
0.230781
11
1.65226
21
0.230781
0
LINE
8
BLACK
6
CONTINUOUS
10
1.65226
20
0.230781
11
1.65234
21
0.230793
0
LINE
8
BLACK
6
CONTINUOUS
10
1.65234
20
0.230793
11
1.66417
21
0.233438
0
LINE
8
BLACK
6
CONTINUOUS
10
1.66417
20
0.233438
11
1.67593
21
0.236066
0
LINE
8
BLACK
6
CONTINUOUS
10
1.67593
20
0.236066
11
1.67593
21
0.236067
0
LINE
8
BLACK
6
CONTINUOUS
10
1.67593
20
0.236067
11
1.67601
21
0.236084
0
LINE
8
BLACK
6
CONTINUOUS
10
1.67601
20
0.236084
11
1.67608
21
0.236105
0
LINE
8
BLACK
6
CONTINUOUS
10
1.67608
20
0.236105
11
1.69922
21
0.242828
0
LINE
8
BLACK
6
CONTINUOUS
10
1.69922
20
0.242828
11
1.69922
21
0.242828
0
LINE
8
BLACK
6
CONTINUOUS
10
1.69922
20
0.242828
11
1.69929
21
0.24285
0
LINE
8
BLACK
6
CONTINUOUS
10
1.69929
20
0.24285
11
1.69937
21
0.242876
0
LINE
8
BLACK
6
CONTINUOUS
10
1.69937
20
0.242876
11
1.69937
21
0.242876
0
LINE
8
BLACK
6
CONTINUOUS
10
1.69937
20
0.242876
11
1.72204
21
0.251038
0
LINE
8
BLACK
6
CONTINUOUS
10
1.72204
20
0.251038
11
1.72204
21
0.251038
0
LINE
8
BLACK
6
CONTINUOUS
10
1.72204
20
0.251038
11
1.72211
21
0.251065
0
LINE
8
BLACK
6
CONTINUOUS
10
1.72211
20
0.251065
11
1.74437
21
0.260696
0
LINE
8
BLACK
6
CONTINUOUS
10
1.74437
20
0.260696
11
1.75517
21
0.266201
0
LINE
8
BLACK
6
CONTINUOUS
10
1.75517
20
0.266201
11
1.76591
21
0.271671
0
LINE
8
BLACK
6
CONTINUOUS
10
1.76591
20
0.271671
11
1.76591
21
0.271671
0
LINE
8
BLACK
6
CONTINUOUS
10
1.76591
20
0.271671
11
1.76598
21
0.271706
0
LINE
8
BLACK
6
CONTINUOUS
10
1.76598
20
0.271706
11
1.78685
21
0.284052
0
LINE
8
BLACK
6
CONTINUOUS
10
1.78685
20
0.284052
11
1.80691
21
0.297683
0
LINE
8
BLACK
6
CONTINUOUS
10
1.80691
20
0.297683
11
1.82607
21
0.312547
0
LINE
8
BLACK
6
CONTINUOUS
10
1.82607
20
0.312547
11
1.84427
21
0.328585
0
LINE
8
BLACK
6
CONTINUOUS
10
1.84427
20
0.328585
11
1.86141
21
0.345734
0
LINE
8
BLACK
6
CONTINUOUS
10
1.86141
20
0.345734
11
1.87745
21
0.363926
0
LINE
8
BLACK
6
CONTINUOUS
10
1.87745
20
0.363926
11
1.89232
21
0.383089
0
LINE
8
BLACK
6
CONTINUOUS
10
1.89232
20
0.383089
11
1.90595
21
0.403147
0
LINE
8
BLACK
6
CONTINUOUS
10
1.90595
20
0.403147
11
1.91829
21
0.424021
0
LINE
8
BLACK
6
CONTINUOUS
10
1.91829
20
0.424021
11
1.9293
21
0.44563
0
LINE
8
BLACK
6
CONTINUOUS
10
1.9293
20
0.44563
11
1.93894
21
0.467887
0
LINE
8
BLACK
6
CONTINUOUS
10
1.93894
20
0.467887
11
1.93896
21
0.467961
0
LINE
8
BLACK
6
CONTINUOUS
10
1.93896
20
0.467961
11
1.94712
21
0.490632
0
LINE
8
BLACK
6
CONTINUOUS
10
1.94712
20
0.490632
11
1.94712
21
0.490633
0
LINE
8
BLACK
6
CONTINUOUS
10
1.94712
20
0.490633
11
1.94715
21
0.490706
0
LINE
8
BLACK
6
CONTINUOUS
10
1.94715
20
0.490706
11
1.95392
21
0.513995
0
LINE
8
BLACK
6
CONTINUOUS
10
1.95392
20
0.513995
11
1.95921
21
0.537662
0
LINE
8
BLACK
6
CONTINUOUS
10
1.95921
20
0.537662
11
1.963
21
0.561616
0
LINE
8
BLACK
6
CONTINUOUS
10
1.963
20
0.561616
11
1.96528
21
0.58576
0
LINE
8
BLACK
6
CONTINUOUS
10
1.96528
20
0.58576
11
1.96604
21
0.61
0
LINE
8
BLACK
6
CONTINUOUS
10
1.96604
20
0.61
11
1.96528
21
0.63424
0
LINE
8
BLACK
6
CONTINUOUS
10
1.96528
20
0.63424
11
1.963
21
0.658384
0
LINE
8
BLACK
6
CONTINUOUS
10
1.963
20
0.658384
11
1.95921
21
0.682338
0
LINE
8
BLACK
6
CONTINUOUS
10
1.95921
20
0.682338
11
1.95392
21
0.706005
0
LINE
8
BLACK
6
CONTINUOUS
10
1.95392
20
0.706005
11
1.94715
21
0.729294
0
LINE
8
BLACK
6
CONTINUOUS
10
1.94715
20
0.729294
11
1.94712
21
0.729367
0
LINE
8
BLACK
6
CONTINUOUS
10
1.94712
20
0.729367
11
1.94712
21
0.729368
0
LINE
8
BLACK
6
CONTINUOUS
10
1.94712
20
0.729368
11
1.93896
21
0.752039
0
LINE
8
BLACK
6
CONTINUOUS
10
1.93896
20
0.752039
11
1.93896
21
0.752039
0
LINE
8
BLACK
6
CONTINUOUS
10
1.93896
20
0.752039
11
1.93894
21
0.752113
0
LINE
8
BLACK
6
CONTINUOUS
10
1.93894
20
0.752113
11
1.9293
21
0.77437
0
LINE
8
BLACK
6
CONTINUOUS
10
1.9293
20
0.77437
11
1.91829
21
0.795979
0
LINE
8
BLACK
6
CONTINUOUS
10
1.91829
20
0.795979
11
1.90595
21
0.816853
0
LINE
8
BLACK
6
CONTINUOUS
10
1.90595
20
0.816853
11
1.89232
21
0.836911
0
LINE
8
BLACK
6
CONTINUOUS
10
1.89232
20
0.836911
11
1.87745
21
0.856074
0
LINE
8
BLACK
6
CONTINUOUS
10
1.87745
20
0.856074
11
1.86141
21
0.874266
0
LINE
8
BLACK
6
CONTINUOUS
10
1.86141
20
0.874266
11
1.84427
21
0.891415
0
LINE
8
BLACK
6
CONTINUOUS
10
1.84427
20
0.891415
11
1.82607
21
0.907453
0
LINE
8
BLACK
6
CONTINUOUS
10
1.82607
20
0.907453
11
1.80691
21
0.922317
0
LINE
8
BLACK
6
CONTINUOUS
10
1.80691
20
0.922317
11
1.78685
21
0.935948
0
LINE
8
BLACK
6
CONTINUOUS
10
1.78685
20
0.935948
11
1.76598
21
0.948294
0
LINE
8
BLACK
6
CONTINUOUS
10
1.76598
20
0.948294
11
1.76591
21
0.948329
0
LINE
8
BLACK
6
CONTINUOUS
10
1.76591
20
0.948329
11
1.76591
21
0.948329
0
LINE
8
BLACK
6
CONTINUOUS
10
1.76591
20
0.948329
11
1.75517
21
0.953799
0
LINE
8
BLACK
6
CONTINUOUS
10
1.75517
20
0.953799
11
1.74437
21
0.959304
0
LINE
8
BLACK
6
CONTINUOUS
10
1.74437
20
0.959304
11
1.72211
21
0.968935
0
LINE
8
BLACK
6
CONTINUOUS
10
1.72211
20
0.968935
11
1.72204
21
0.968962
0
LINE
8
BLACK
6
CONTINUOUS
10
1.72204
20
0.968962
11
1.69937
21
0.977124
0
LINE
8
BLACK
6
CONTINUOUS
10
1.69937
20
0.977124
11
1.69937
21
0.977124
0
LINE
8
BLACK
6
CONTINUOUS
10
1.69937
20
0.977124
11
1.69929
21
0.97715
0
LINE
8
BLACK
6
CONTINUOUS
10
1.69929
20
0.97715
11
1.69922
21
0.977172
0
LINE
8
BLACK
6
CONTINUOUS
10
1.69922
20
0.977172
11
1.69922
21
0.977172
0
LINE
8
BLACK
6
CONTINUOUS
10
1.69922
20
0.977172
11
1.67608
21
0.983895
0
LINE
8
BLACK
6
CONTINUOUS
10
1.67608
20
0.983895
11
1.67608
21
0.983895
0
LINE
8
BLACK
6
CONTINUOUS
10
1.67608
20
0.983895
11
1.67601
21
0.983916
0
LINE
8
BLACK
6
CONTINUOUS
10
1.67601
20
0.983916
11
1.67593
21
0.983933
0
LINE
8
BLACK
6
CONTINUOUS
10
1.67593
20
0.983933
11
1.67593
21
0.983934
0
LINE
8
BLACK
6
CONTINUOUS
10
1.67593
20
0.983934
11
1.66417
21
0.986562
0
LINE
8
BLACK
6
CONTINUOUS
10
1.66417
20
0.986562
11
1.65234
21
0.989207
0
LINE
8
BLACK
6
CONTINUOUS
10
1.65234
20
0.989207
11
1.65226
21
0.989219
0
LINE
8
BLACK
6
CONTINUOUS
10
1.65226
20
0.989219
11
1.62846
21
0.992989
0
LINE
8
BLACK
6
CONTINUOUS
10
1.62846
20
0.992989
11
1.62846
21
0.992989
0
LINE
8
BLACK
6
CONTINUOUS
10
1.62846
20
0.992989
11
1.62838
21
0.993001
0
LINE
8
BLACK
6
CONTINUOUS
10
1.62838
20
0.993001
11
1.62831
21
0.993008
0
LINE
8
BLACK
6
CONTINUOUS
10
1.62831
20
0.993008
11
1.62831
21
0.993008
0
LINE
8
BLACK
6
CONTINUOUS
10
1.62831
20
0.993008
11
1.60432
21
0.995276
0
LINE
8
BLACK
6
CONTINUOUS
10
1.60432
20
0.995276
11
1.60432
21
0.995276
0
LINE
8
BLACK
6
CONTINUOUS
10
1.60432
20
0.995276
11
1.60424
21
0.995283
0
LINE
8
BLACK
6
CONTINUOUS
10
1.60424
20
0.995283
11
1.60416
21
0.995285
0
LINE
8
BLACK
6
CONTINUOUS
10
1.60416
20
0.995285
11
1.60416
21
0.995285
0
LINE
8
BLACK
6
CONTINUOUS
10
1.60416
20
0.995285
11
1.59348
21
0.995621
0
LINE
8
BLACK
6
CONTINUOUS
10
1.59348
20
0.995621
11
1.58631
21
0.995846
0
LINE
8
BLACK
6
CONTINUOUS
10
1.58631
20
0.995846
11
1.57369
21
0.995846
0
LINE
8
BLACK
6
CONTINUOUS
10
1.57369
20
0.995846
11
1.56652
21
0.995621
0
LINE
8
BLACK
6
CONTINUOUS
10
1.56652
20
0.995621
11
1.55584
21
0.995285
0
LINE
8
BLACK
6
CONTINUOUS
10
1.55584
20
0.995285
11
1.55584
21
0.995285
0
LINE
8
BLACK
6
CONTINUOUS
10
1.55584
20
0.995285
11
1.55576
21
0.995283
0
LINE
8
BLACK
6
CONTINUOUS
10
1.55576
20
0.995283
11
1.55568
21
0.995276
0
LINE
8
BLACK
6
CONTINUOUS
10
1.55568
20
0.995276
11
1.55568
21
0.995276
0
LINE
8
BLACK
6
CONTINUOUS
10
1.55568
20
0.995276
11
1.53169
21
0.993008
0
LINE
8
BLACK
6
CONTINUOUS
10
1.53169
20
0.993008
11
1.53169
21
0.993008
0
LINE
8
BLACK
6
CONTINUOUS
10
1.53169
20
0.993008
11
1.53162
21
0.993001
0
LINE
8
BLACK
6
CONTINUOUS
10
1.53162
20
0.993001
11
1.53154
21
0.992989
0
LINE
8
BLACK
6
CONTINUOUS
10
1.53154
20
0.992989
11
1.53154
21
0.992989
0
LINE
8
BLACK
6
CONTINUOUS
10
1.53154
20
0.992989
11
1.50774
21
0.989219
0
LINE
8
BLACK
6
CONTINUOUS
10
1.50774
20
0.989219
11
1.50766
21
0.989207
0
LINE
8
BLACK
6
CONTINUOUS
10
1.50766
20
0.989207
11
1.49583
21
0.986562
0
LINE
8
BLACK
6
CONTINUOUS
10
1.49583
20
0.986562
11
1.48407
21
0.983934
0
LINE
8
BLACK
6
CONTINUOUS
10
1.48407
20
0.983934
11
1.48407
21
0.983933
0
LINE
8
BLACK
6
CONTINUOUS
10
1.48407
20
0.983933
11
1.48399
21
0.983916
0
LINE
8
BLACK
6
CONTINUOUS
10
1.48399
20
0.983916
11
1.48392
21
0.983895
0
LINE
8
BLACK
6
CONTINUOUS
10
1.48392
20
0.983895
11
1.48392
21
0.983895
0
LINE
8
BLACK
6
CONTINUOUS
10
1.48392
20
0.983895
11
1.46078
21
0.977172
0
LINE
8
BLACK
6
CONTINUOUS
10
1.46078
20
0.977172
11
1.46078
21
0.977172
0
LINE
8
BLACK
6
CONTINUOUS
10
1.46078
20
0.977172
11
1.46071
21
0.97715
0
LINE
8
BLACK
6
CONTINUOUS
10
1.46071
20
0.97715
11
1.46063
21
0.977124
0
LINE
8
BLACK
6
CONTINUOUS
10
1.46063
20
0.977124
11
1.46063
21
0.977124
0
LINE
8
BLACK
6
CONTINUOUS
10
1.46063
20
0.977124
11
1.43796
21
0.968962
0
LINE
8
BLACK
6
CONTINUOUS
10
1.43796
20
0.968962
11
1.43789
21
0.968935
0
LINE
8
BLACK
6
CONTINUOUS
10
1.43789
20
0.968935
11
1.41563
21
0.959304
0
LINE
8
BLACK
6
CONTINUOUS
10
1.41563
20
0.959304
11
1.40483
21
0.953799
0
LINE
8
BLACK
6
CONTINUOUS
10
1.40483
20
0.953799
11
1.39409
21
0.948329
0
LINE
8
BLACK
6
CONTINUOUS
10
1.39409
20
0.948329
11
1.39409
21
0.948329
0
LINE
8
BLACK
6
CONTINUOUS
10
1.39409
20
0.948329
11
1.39402
21
0.948294
0
LINE
8
BLACK
6
CONTINUOUS
10
1.39402
20
0.948294
11
1.37315
21
0.935948
0
LINE
8
BLACK
6
CONTINUOUS
10
1.37315
20
0.935948
11
1.35309
21
0.922317
0
LINE
8
BLACK
6
CONTINUOUS
10
1.35309
20
0.922317
11
1.33393
21
0.907453
0
LINE
8
BLACK
6
CONTINUOUS
10
1.33393
20
0.907453
11
1.31573
21
0.891415
0
LINE
8
BLACK
6
CONTINUOUS
10
1.31573
20
0.891415
11
1.29859
21
0.874266
0
LINE
8
BLACK
6
CONTINUOUS
10
1.29859
20
0.874266
11
1.28255
21
0.856074
0
LINE
8
BLACK
6
CONTINUOUS
10
1.28255
20
0.856074
11
1.26768
21
0.836911
0
LINE
8
BLACK
6
CONTINUOUS
10
1.26768
20
0.836911
11
1.25405
21
0.816853
0
LINE
8
BLACK
6
CONTINUOUS
10
1.25405
20
0.816853
11
1.24171
21
0.795979
0
LINE
8
BLACK
6
CONTINUOUS
10
1.24171
20
0.795979
11
1.2307
21
0.77437
0
LINE
8
BLACK
6
CONTINUOUS
10
1.2307
20
0.77437
11
1.22106
21
0.752113
0
LINE
8
BLACK
6
CONTINUOUS
10
1.22106
20
0.752113
11
1.22104
21
0.752039
0
LINE
8
BLACK
6
CONTINUOUS
10
1.22104
20
0.752039
11
1.22104
21
0.752039
0
LINE
8
BLACK
6
CONTINUOUS
10
1.22104
20
0.752039
11
1.21288
21
0.729368
0
LINE
8
BLACK
6
CONTINUOUS
10
1.21288
20
0.729368
11
1.21288
21
0.729367
0
LINE
8
BLACK
6
CONTINUOUS
10
1.21288
20
0.729367
11
1.21285
21
0.729294
0
LINE
8
BLACK
6
CONTINUOUS
10
1.21285
20
0.729294
11
1.20608
21
0.706005
0
LINE
8
BLACK
6
CONTINUOUS
10
1.20608
20
0.706005
11
1.20079
21
0.682338
0
LINE
8
BLACK
6
CONTINUOUS
10
1.20079
20
0.682338
11
1.197
21
0.658384
0
LINE
8
BLACK
6
CONTINUOUS
10
1.197
20
0.658384
11
1.19472
21
0.63424
0
LINE
8
BLACK
6
CONTINUOUS
10
1.19472
20
0.63424
11
1.19396
21
0.61
0
LINE
8
BLACK
6
CONTINUOUS
10
1.19396
20
0.61
11
1.19472
21
0.58576
0
LINE
8
BLACK
6
CONTINUOUS
10
1.19472
20
0.58576
11
1.197
21
0.561616
0
LINE
8
BLACK
6
CONTINUOUS
10
1.16773
20
0.658384
11
1.16393
21
0.682338
0
LINE
8
BLACK
6
CONTINUOUS
10
1.16393
20
0.682338
11
1.15864
21
0.706005
0
LINE
8
BLACK
6
CONTINUOUS
10
1.15864
20
0.706005
11
1.15187
21
0.729294
0
LINE
8
BLACK
6
CONTINUOUS
10
1.15187
20
0.729294
11
1.15185
21
0.729367
0
LINE
8
BLACK
6
CONTINUOUS
10
1.15185
20
0.729367
11
1.15185
21
0.729368
0
LINE
8
BLACK
6
CONTINUOUS
10
1.15185
20
0.729368
11
1.14369
21
0.752039
0
LINE
8
BLACK
6
CONTINUOUS
10
1.14369
20
0.752039
11
1.14369
21
0.752039
0
LINE
8
BLACK
6
CONTINUOUS
10
1.14369
20
0.752039
11
1.14366
21
0.752113
0
LINE
8
BLACK
6
CONTINUOUS
10
1.14366
20
0.752113
11
1.13403
21
0.77437
0
LINE
8
BLACK
6
CONTINUOUS
10
1.13403
20
0.77437
11
1.12302
21
0.795979
0
LINE
8
BLACK
6
CONTINUOUS
10
1.12302
20
0.795979
11
1.11067
21
0.816853
0
LINE
8
BLACK
6
CONTINUOUS
10
1.11067
20
0.816853
11
1.09704
21
0.836911
0
LINE
8
BLACK
6
CONTINUOUS
10
1.09704
20
0.836911
11
1.08218
21
0.856074
0
LINE
8
BLACK
6
CONTINUOUS
10
1.08218
20
0.856074
11
1.06614
21
0.874266
0
LINE
8
BLACK
6
CONTINUOUS
10
1.06614
20
0.874266
11
1.04899
21
0.891415
0
LINE
8
BLACK
6
CONTINUOUS
10
1.04899
20
0.891415
11
1.0308
21
0.907453
0
LINE
8
BLACK
6
CONTINUOUS
10
1.0308
20
0.907453
11
1.01164
21
0.922317
0
LINE
8
BLACK
6
CONTINUOUS
10
1.01164
20
0.922317
11
0.991578
21
0.935948
0
LINE
8
BLACK
6
CONTINUOUS
10
0.991578
20
0.935948
11
0.970703
21
0.948294
0
LINE
8
BLACK
6
CONTINUOUS
10
0.970703
20
0.948294
11
0.970634
21
0.948329
0
LINE
8
BLACK
6
CONTINUOUS
10
0.970634
20
0.948329
11
0.970634
21
0.948329
0
LINE
8
BLACK
6
CONTINUOUS
10
0.970634
20
0.948329
11
0.959899
21
0.953799
0
LINE
8
BLACK
6
CONTINUOUS
10
0.959899
20
0.953799
11
0.949094
21
0.959304
0
LINE
8
BLACK
6
CONTINUOUS
10
0.949094
20
0.959304
11
0.926837
21
0.968935
0
LINE
8
BLACK
6
CONTINUOUS
10
0.926837
20
0.968935
11
0.926764
21
0.968962
0
LINE
8
BLACK
6
CONTINUOUS
10
0.926764
20
0.968962
11
0.904092
21
0.977124
0
LINE
8
BLACK
6
CONTINUOUS
10
0.904092
20
0.977124
11
0.904091
21
0.977124
0
LINE
8
BLACK
6
CONTINUOUS
10
0.904091
20
0.977124
11
0.904019
21
0.97715
0
LINE
8
BLACK
6
CONTINUOUS
10
0.904019
20
0.97715
11
0.903945
21
0.977172
0
LINE
8
BLACK
6
CONTINUOUS
10
0.903945
20
0.977172
11
0.903944
21
0.977172
0
LINE
8
BLACK
6
CONTINUOUS
10
0.903944
20
0.977172
11
0.880805
21
0.983895
0
LINE
8
BLACK
6
CONTINUOUS
10
0.880805
20
0.983895
11
0.880805
21
0.983895
0
LINE
8
BLACK
6
CONTINUOUS
10
0.880805
20
0.983895
11
0.88073
21
0.983916
0
LINE
8
BLACK
6
CONTINUOUS
10
0.88073
20
0.983916
11
0.880654
21
0.983933
0
LINE
8
BLACK
6
CONTINUOUS
10
0.880654
20
0.983933
11
0.880654
21
0.983934
0
LINE
8
BLACK
6
CONTINUOUS
10
0.880654
20
0.983934
11
0.868896
21
0.986562
0
LINE
8
BLACK
6
CONTINUOUS
10
0.868896
20
0.986562
11
0.857062
21
0.989207
0
LINE
8
BLACK
6
CONTINUOUS
10
0.857062
20
0.989207
11
0.856985
21
0.989219
0
LINE
8
BLACK
6
CONTINUOUS
10
0.856985
20
0.989219
11
0.833186
21
0.992989
0
LINE
8
BLACK
6
CONTINUOUS
10
0.833186
20
0.992989
11
0.833185
21
0.992989
0
LINE
8
BLACK
6
CONTINUOUS
10
0.833185
20
0.992989
11
0.833109
21
0.993001
0
LINE
8
BLACK
6
CONTINUOUS
10
0.833109
20
0.993001
11
0.833031
21
0.993008
0
LINE
8
BLACK
6
CONTINUOUS
10
0.833031
20
0.993008
11
0.833031
21
0.993008
0
LINE
8
BLACK
6
CONTINUOUS
10
0.833031
20
0.993008
11
0.809041
21
0.995276
0
LINE
8
BLACK
6
CONTINUOUS
10
0.809041
20
0.995276
11
0.809041
21
0.995276
0
LINE
8
BLACK
6
CONTINUOUS
10
0.809041
20
0.995276
11
0.808964
21
0.995283
0
LINE
8
BLACK
6
CONTINUOUS
10
0.808964
20
0.995283
11
0.808888
21
0.995285
0
LINE
8
BLACK
6
CONTINUOUS
10
0.808888
20
0.995285
11
0.808887
21
0.995285
0
LINE
8
BLACK
6
CONTINUOUS
10
0.808887
20
0.995285
11
0.798204
21
0.995621
0
LINE
8
BLACK
6
CONTINUOUS
10
0.798204
20
0.995621
11
0.791036
21
0.995846
0
LINE
8
BLACK
6
CONTINUOUS
10
0.791036
20
0.995846
11
0.778413
21
0.995846
0
LINE
8
BLACK
6
CONTINUOUS
10
0.778413
20
0.995846
11
0.771244
21
0.995621
0
LINE
8
BLACK
6
CONTINUOUS
10
0.771244
20
0.995621
11
0.760562
21
0.995285
0
LINE
8
BLACK
6
CONTINUOUS
10
0.760562
20
0.995285
11
0.760561
21
0.995285
0
LINE
8
BLACK
6
CONTINUOUS
10
0.760561
20
0.995285
11
0.760484
21
0.995283
0
LINE
8
BLACK
6
CONTINUOUS
10
0.760484
20
0.995283
11
0.760408
21
0.995276
0
LINE
8
BLACK
6
CONTINUOUS
10
0.760408
20
0.995276
11
0.760408
21
0.995276
0
LINE
8
BLACK
6
CONTINUOUS
10
0.760408
20
0.995276
11
0.736418
21
0.993008
0
LINE
8
BLACK
6
CONTINUOUS
10
0.736418
20
0.993008
11
0.736418
21
0.993008
0
LINE
8
BLACK
6
CONTINUOUS
10
0.736418
20
0.993008
11
0.73634
21
0.993001
0
LINE
8
BLACK
6
CONTINUOUS
10
0.73634
20
0.993001
11
0.736263
21
0.992989
0
LINE
8
BLACK
6
CONTINUOUS
10
0.736263
20
0.992989
11
0.736263
21
0.992989
0
LINE
8
BLACK
6
CONTINUOUS
10
0.736263
20
0.992989
11
0.712464
21
0.989219
0
LINE
8
BLACK
6
CONTINUOUS
10
0.712464
20
0.989219
11
0.712387
21
0.989207
0
LINE
8
BLACK
6
CONTINUOUS
10
0.712387
20
0.989207
11
0.700553
21
0.986562
0
LINE
8
BLACK
6
CONTINUOUS
10
0.700553
20
0.986562
11
0.688795
21
0.983934
0
LINE
8
BLACK
6
CONTINUOUS
10
0.688795
20
0.983934
11
0.688795
21
0.983933
0
LINE
8
BLACK
6
CONTINUOUS
10
0.688795
20
0.983933
11
0.688719
21
0.983916
0
LINE
8
BLACK
6
CONTINUOUS
10
0.688719
20
0.983916
11
0.688644
21
0.983895
0
LINE
8
BLACK
6
CONTINUOUS
10
0.688644
20
0.983895
11
0.688644
21
0.983895
0
LINE
8
BLACK
6
CONTINUOUS
10
0.688644
20
0.983895
11
0.665505
21
0.977172
0
LINE
8
BLACK
6
CONTINUOUS
10
0.665505
20
0.977172
11
0.665504
21
0.977172
0
LINE
8
BLACK
6
CONTINUOUS
10
0.665504
20
0.977172
11
0.66543
21
0.97715
0
LINE
8
BLACK
6
CONTINUOUS
10
0.66543
20
0.97715
11
0.665358
21
0.977124
0
LINE
8
BLACK
6
CONTINUOUS
10
0.665358
20
0.977124
11
0.665357
21
0.977124
0
LINE
8
BLACK
6
CONTINUOUS
10
0.665357
20
0.977124
11
0.642685
21
0.968962
0
LINE
8
BLACK
6
CONTINUOUS
10
0.642685
20
0.968962
11
0.642612
21
0.968935
0
LINE
8
BLACK
6
CONTINUOUS
10
0.642612
20
0.968935
11
0.620355
21
0.959304
0
LINE
8
BLACK
6
CONTINUOUS
10
0.620355
20
0.959304
11
0.60955
21
0.953799
0
LINE
8
BLACK
6
CONTINUOUS
10
0.60955
20
0.953799
11
0.598815
21
0.948329
0
LINE
8
BLACK
6
CONTINUOUS
10
0.598815
20
0.948329
11
0.598815
21
0.948329
0
LINE
8
BLACK
6
CONTINUOUS
10
0.598815
20
0.948329
11
0.598746
21
0.948294
0
LINE
8
BLACK
6
CONTINUOUS
10
0.598746
20
0.948294
11
0.577871
21
0.935948
0
LINE
8
BLACK
6
CONTINUOUS
10
0.577871
20
0.935948
11
0.557813
21
0.922317
0
LINE
8
BLACK
6
CONTINUOUS
10
0.557813
20
0.922317
11
0.53865
21
0.907453
0
LINE
8
BLACK
6
CONTINUOUS
10
0.53865
20
0.907453
11
0.520459
21
0.891415
0
LINE
8
BLACK
6
CONTINUOUS
10
0.520459
20
0.891415
11
0.50331
21
0.874266
0
LINE
8
BLACK
6
CONTINUOUS
10
0.50331
20
0.874266
11
0.487272
21
0.856074
0
LINE
8
BLACK
6
CONTINUOUS
10
0.487272
20
0.856074
11
0.472408
21
0.836911
0
LINE
8
BLACK
6
CONTINUOUS
10
0.472408
20
0.836911
11
0.458776
21
0.816853
0
LINE
8
BLACK
6
CONTINUOUS
10
0.458776
20
0.816853
11
0.446431
21
0.795979
0
LINE
8
BLACK
6
CONTINUOUS
10
0.446431
20
0.795979
11
0.435421
21
0.77437
0
LINE
8
BLACK
6
CONTINUOUS
10
0.435421
20
0.77437
11
0.425789
21
0.752113
0
LINE
8
BLACK
6
CONTINUOUS
10
0.425789
20
0.752113
11
0.425763
21
0.752039
0
LINE
8
BLACK
6
CONTINUOUS
10
0.425763
20
0.752039
11
0.425763
21
0.752039
0
LINE
8
BLACK
6
CONTINUOUS
10
0.425763
20
0.752039
11
0.4176
21
0.729368
0
LINE
8
BLACK
6
CONTINUOUS
10
0.4176
20
0.729368
11
0.4176
21
0.729367
0
LINE
8
BLACK
6
CONTINUOUS
10
0.4176
20
0.729367
11
0.417574
21
0.729294
0
LINE
8
BLACK
6
CONTINUOUS
10
0.417574
20
0.729294
11
0.410808
21
0.706005
0
LINE
8
BLACK
6
CONTINUOUS
10
0.410808
20
0.706005
11
0.405518
21
0.682338
0
LINE
8
BLACK
6
CONTINUOUS
10
0.405518
20
0.682338
11
0.401724
21
0.658384
0
LINE
8
BLACK
6
CONTINUOUS
10
0.401724
20
0.658384
11
0.399441
21
0.63424
0
LINE
8
BLACK
6
CONTINUOUS
10
0.399441
20
0.63424
11
0.39868
21
0.61
0
LINE
8
BLACK
6
CONTINUOUS
10
0.39868
20
0.61
11
0.399441
21
0.58576
0
LINE
8
BLACK
6
CONTINUOUS
10
0.399441
20
0.58576
11
0.401724
21
0.561616
0
LINE
8
BLACK
6
CONTINUOUS
10
0.401724
20
0.561616
11
0.405518
21
0.537662
0
LINE
8
BLACK
6
CONTINUOUS
10
0.405518
20
0.537662
11
0.410808
21
0.513995
0
LINE
8
BLACK
6
CONTINUOUS
10
0.410808
20
0.513995
11
0.417574
21
0.490706
0
LINE
8
BLACK
6
CONTINUOUS
10
0.417574
20
0.490706
11
0.4176
21
0.490633
0
LINE
8
BLACK
6
CONTINUOUS
10
0.4176
20
0.490633
11
0.4176
21
0.490632
0
LINE
8
BLACK
6
CONTINUOUS
10
0.4176
20
0.490632
11
0.425763
21
0.467961
0
LINE
8
BLACK
6
CONTINUOUS
10
0.425763
20
0.467961
11
0.425789
21
0.467887
0
LINE
8
BLACK
6
CONTINUOUS
10
0.425789
20
0.467887
11
0.435421
21
0.44563
0
LINE
8
BLACK
6
CONTINUOUS
10
0.435421
20
0.44563
11
0.446431
21
0.424021
0
LINE
8
BLACK
6
CONTINUOUS
10
0.446431
20
0.424021
11
0.458776
21
0.403147
0
LINE
8
BLACK
6
CONTINUOUS
10
0.458776
20
0.403147
11
0.472408
21
0.383089
0
LINE
8
BLACK
6
CONTINUOUS
10
0.472408
20
0.383089
11
0.487272
21
0.363926
0
LINE
8
BLACK
6
CONTINUOUS
10
0.487272
20
0.363926
11
0.50331
21
0.345734
0
LINE
8
BLACK
6
CONTINUOUS
10
0.50331
20
0.345734
11
0.520459
21
0.328585
0
LINE
8
BLACK
6
CONTINUOUS
10
0.520459
20
0.328585
11
0.53865
21
0.312547
0
LINE
8
BLACK
6
CONTINUOUS
10
0.53865
20
0.312547
11
0.557813
21
0.297683
0
LINE
8
BLACK
6
CONTINUOUS
10
0.557813
20
0.297683
11
0.577871
21
0.284052
0
LINE
8
BLACK
6
CONTINUOUS
10
0.577871
20
0.284052
11
0.598746
21
0.271706
0
LINE
8
BLACK
6
CONTINUOUS
10
0.598746
20
0.271706
11
0.598815
21
0.271671
0
LINE
8
BLACK
6
CONTINUOUS
10
0.598815
20
0.271671
11
0.598815
21
0.271671
0
LINE
8
BLACK
6
CONTINUOUS
10
0.598815
20
0.271671
11
0.60955
21
0.266201
0
LINE
8
BLACK
6
CONTINUOUS
10
0.60955
20
0.266201
11
0.620355
21
0.260696
0
LINE
8
BLACK
6
CONTINUOUS
10
0.620355
20
0.260696
11
0.642612
21
0.251065
0
LINE
8
BLACK
6
CONTINUOUS
10
0.642612
20
0.251065
11
0.642685
21
0.251038
0
LINE
8
BLACK
6
CONTINUOUS
10
0.642685
20
0.251038
11
0.642685
21
0.251038
0
LINE
8
BLACK
6
CONTINUOUS
10
0.642685
20
0.251038
11
0.665357
21
0.242876
0
LINE
8
BLACK
6
CONTINUOUS
10
0.665357
20
0.242876
11
0.665358
21
0.242876
0
LINE
8
BLACK
6
CONTINUOUS
10
0.665358
20
0.242876
11
0.66543
21
0.24285
0
LINE
8
BLACK
6
CONTINUOUS
10
0.66543
20
0.24285
11
0.665504
21
0.242828
0
LINE
8
BLACK
6
CONTINUOUS
10
0.665504
20
0.242828
11
0.665505
21
0.242828
0
LINE
8
BLACK
6
CONTINUOUS
10
0.665505
20
0.242828
11
0.688644
21
0.236105
0
LINE
8
BLACK
6
CONTINUOUS
10
0.688644
20
0.236105
11
0.688719
21
0.236084
0
LINE
8
BLACK
6
CONTINUOUS
10
0.688719
20
0.236084
11
0.688795
21
0.236067
0
LINE
8
BLACK
6
CONTINUOUS
10
0.688795
20
0.236067
11
0.688795
21
0.236066
0
LINE
8
BLACK
6
CONTINUOUS
10
0.688795
20
0.236066
11
0.700553
21
0.233438
0
LINE
8
BLACK
6
CONTINUOUS
10
0.700553
20
0.233438
11
0.712387
21
0.230793
0
LINE
8
BLACK
6
CONTINUOUS
10
0.712387
20
0.230793
11
0.712464
21
0.230781
0
LINE
8
BLACK
6
CONTINUOUS
10
0.712464
20
0.230781
11
0.712464
21
0.230781
0
LINE
8
BLACK
6
CONTINUOUS
10
0.712464
20
0.230781
11
0.736263
21
0.227011
0
LINE
8
BLACK
6
CONTINUOUS
10
0.736263
20
0.227011
11
0.736263
21
0.227011
0
LINE
8
BLACK
6
CONTINUOUS
10
0.736263
20
0.227011
11
0.73634
21
0.226999
0
LINE
8
BLACK
6
CONTINUOUS
10
0.73634
20
0.226999
11
0.736418
21
0.226992
0
LINE
8
BLACK
6
CONTINUOUS
10
0.736418
20
0.226992
11
0.736418
21
0.226992
0
LINE
8
BLACK
6
CONTINUOUS
10
0.736418
20
0.226992
11
0.760408
21
0.224724
0
LINE
8
BLACK
6
CONTINUOUS
10
0.760408
20
0.224724
11
0.760408
21
0.224724
0
LINE
8
BLACK
6
CONTINUOUS
10
0.760408
20
0.224724
11
0.760484
21
0.224717
0
LINE
8
BLACK
6
CONTINUOUS
10
0.760484
20
0.224717
11
0.760561
21
0.224715
0
LINE
8
BLACK
6
CONTINUOUS
10
0.760561
20
0.224715
11
0.760562
21
0.224715
0
LINE
8
BLACK
6
CONTINUOUS
10
0.760562
20
0.224715
11
0.771244
21
0.224379
0
LINE
8
BLACK
6
CONTINUOUS
10
0.771244
20
0.224379
11
0.778413
21
0.224154
0
LINE
8
BLACK
6
CONTINUOUS
10
0.778413
20
0.224154
11
0.791036
21
0.224154
0
LINE
8
BLACK
6
CONTINUOUS
10
0.791036
20
0.224154
11
0.798204
21
0.224379
0
LINE
8
BLACK
6
CONTINUOUS
10
0.798204
20
0.224379
11
0.808887
21
0.224715
0
LINE
8
BLACK
6
CONTINUOUS
10
0.808887
20
0.224715
11
0.808888
21
0.224715
0
LINE
8
BLACK
6
CONTINUOUS
10
0.808888
20
0.224715
11
0.808964
21
0.224717
0
LINE
8
BLACK
6
CONTINUOUS
10
0.808964
20
0.224717
11
0.809041
21
0.224724
0
LINE
8
BLACK
6
CONTINUOUS
10
0.809041
20
0.224724
11
0.809041
21
0.224724
0
LINE
8
BLACK
6
CONTINUOUS
10
0.809041
20
0.224724
11
0.833031
21
0.226992
0
LINE
8
BLACK
6
CONTINUOUS
10
0.833031
20
0.226992
11
0.833031
21
0.226992
0
LINE
8
BLACK
6
CONTINUOUS
10
0.833031
20
0.226992
11
0.833109
21
0.226999
0
LINE
8
BLACK
6
CONTINUOUS
10
0.833109
20
0.226999
11
0.833185
21
0.227011
0
LINE
8
BLACK
6
CONTINUOUS
10
0.833185
20
0.227011
11
0.833186
21
0.227011
0
LINE
8
BLACK
6
CONTINUOUS
10
0.833186
20
0.227011
11
0.856985
21
0.230781
0
LINE
8
BLACK
6
CONTINUOUS
10
0.856985
20
0.230781
11
0.856985
21
0.230781
0
LINE
8
BLACK
6
CONTINUOUS
10
0.856985
20
0.230781
11
0.857062
21
0.230793
0
LINE
8
BLACK
6
CONTINUOUS
10
0.857062
20
0.230793
11
0.868896
21
0.233438
0
LINE
8
BLACK
6
CONTINUOUS
10
0.868896
20
0.233438
11
0.880654
21
0.236066
0
LINE
8
BLACK
6
CONTINUOUS
10
0.880654
20
0.236066
11
0.880654
21
0.236067
0
LINE
8
BLACK
6
CONTINUOUS
10
0.880654
20
0.236067
11
0.88073
21
0.236084
0
LINE
8
BLACK
6
CONTINUOUS
10
0.88073
20
0.236084
11
0.880805
21
0.236105
0
LINE
8
BLACK
6
CONTINUOUS
10
0.880805
20
0.236105
11
0.903944
21
0.242828
0
LINE
8
BLACK
6
CONTINUOUS
10
0.903944
20
0.242828
11
0.903945
21
0.242828
0
LINE
8
BLACK
6
CONTINUOUS
10
0.903945
20
0.242828
11
0.904019
21
0.24285
0
LINE
8
BLACK
6
CONTINUOUS
10
0.904019
20
0.24285
11
0.904091
21
0.242876
0
LINE
8
BLACK
6
CONTINUOUS
10
0.904091
20
0.242876
11
0.904092
21
0.242876
0
LINE
8
BLACK
6
CONTINUOUS
10
0.904092
20
0.242876
11
0.926764
21
0.251038
0
LINE
8
BLACK
6
CONTINUOUS
10
0.926764
20
0.251038
11
0.926764
21
0.251038
0
LINE
8
BLACK
6
CONTINUOUS
10
0.926764
20
0.251038
11
0.926837
21
0.251065
0
LINE
8
BLACK
6
CONTINUOUS
10
0.926837
20
0.251065
11
0.949094
21
0.260696
0
LINE
8
BLACK
6
CONTINUOUS
10
0.949094
20
0.260696
11
0.959899
21
0.266201
0
LINE
8
BLACK
6
CONTINUOUS
10
0.959899
20
0.266201
11
0.970634
21
0.271671
0
LINE
8
BLACK
6
CONTINUOUS
10
0.970634
20
0.271671
11
0.970634
21
0.271671
0
LINE
8
BLACK
6
CONTINUOUS
10
0.970634
20
0.271671
11
0.970703
21
0.271706
0
LINE
8
BLACK
6
CONTINUOUS
10
0.970703
20
0.271706
11
0.991578
21
0.284052
0
LINE
8
BLACK
6
CONTINUOUS
10
0.991578
20
0.284052
11
1.01164
21
0.297683
0
LINE
8
BLACK
6
CONTINUOUS
10
1.01164
20
0.297683
11
1.0308
21
0.312547
0
LINE
8
BLACK
6
CONTINUOUS
10
1.0308
20
0.312547
11
1.04899
21
0.328585
0
LINE
8
BLACK
6
CONTINUOUS
10
1.04899
20
0.328585
11
1.06614
21
0.345734
0
LINE
8
BLACK
6
CONTINUOUS
10
1.06614
20
0.345734
11
1.08218
21
0.363926
0
LINE
8
BLACK
6
CONTINUOUS
10
1.08218
20
0.363926
11
1.09704
21
0.383089
0
LINE
8
BLACK
6
CONTINUOUS
10
1.09704
20
0.383089
11
1.11067
21
0.403147
0
LINE
8
BLACK
6
CONTINUOUS
10
1.11067
20
0.403147
11
1.12302
21
0.424021
0
LINE
8
BLACK
6
CONTINUOUS
10
1.12302
20
0.424021
11
1.13403
21
0.44563
0
LINE
8
BLACK
6
CONTINUOUS
10
1.13403
20
0.44563
11
1.14366
21
0.467887
0
LINE
8
BLACK
6
CONTINUOUS
10
1.14366
20
0.467887
11
1.14369
21
0.467961
0
LINE
8
BLACK
6
CONTINUOUS
10
1.14369
20
0.467961
11
1.15185
21
0.490632
0
LINE
8
BLACK
6
CONTINUOUS
10
1.15185
20
0.490632
11
1.15185
21
0.490633
0
LINE
8
BLACK
6
CONTINUOUS
10
1.15185
20
0.490633
11
1.15187
21
0.490706
0
LINE
8
BLACK
6
CONTINUOUS
10
1.15187
20
0.490706
11
1.15864
21
0.513995
0
LINE
8
BLACK
6
CONTINUOUS
10
1.15864
20
0.513995
11
1.16393
21
0.537662
0
LINE
8
BLACK
6
CONTINUOUS
10
1.16393
20
0.537662
11
1.16773
21
0.561616
0
LINE
8
BLACK
6
CONTINUOUS
10
1.16773
20
0.561616
11
1.17001
21
0.58576
0
LINE
8
BLACK
6
CONTINUOUS
10
1.17001
20
0.58576
11
1.17077
21
0.61
0
LINE
8
BLACK
6
CONTINUOUS
10
1.17077
20
0.61
11
1.17001
21
0.63424
0
LINE
8
BLACK
6
CONTINUOUS
10
1.17001
20
0.63424
11
1.16773
21
0.658384
0
LINE
8
BLACK
6
CONTINUOUS
10
1.197
20
1.35689
11
1.20079
21
1.33294
0
LINE
8
BLACK
6
CONTINUOUS
10
1.20079
20
1.33294
11
1.20608
21
1.30927
0
LINE
8
BLACK
6
CONTINUOUS
10
1.20608
20
1.30927
11
1.21285
21
1.28598
0
LINE
8
BLACK
6
CONTINUOUS
10
1.21285
20
1.28598
11
1.21288
21
1.28591
0
LINE
8
BLACK
6
CONTINUOUS
10
1.21288
20
1.28591
11
1.21288
21
1.28591
0
LINE
8
BLACK
6
CONTINUOUS
10
1.21288
20
1.28591
11
1.22104
21
1.26324
0
LINE
8
BLACK
6
CONTINUOUS
10
1.22104
20
1.26324
11
1.22106
21
1.26316
0
LINE
8
BLACK
6
CONTINUOUS
10
1.22106
20
1.26316
11
1.2307
21
1.24091
0
LINE
8
BLACK
6
CONTINUOUS
10
1.2307
20
1.24091
11
1.24171
21
1.2193
0
LINE
8
BLACK
6
CONTINUOUS
10
1.24171
20
1.2193
11
1.25405
21
1.19842
0
LINE
8
BLACK
6
CONTINUOUS
10
1.25405
20
1.19842
11
1.26768
21
1.17836
0
LINE
8
BLACK
6
CONTINUOUS
10
1.26768
20
1.17836
11
1.28255
21
1.1592
0
LINE
8
BLACK
6
CONTINUOUS
10
1.28255
20
1.1592
11
1.29859
21
1.14101
0
LINE
8
BLACK
6
CONTINUOUS
10
1.29859
20
1.14101
11
1.31573
21
1.12386
0
LINE
8
BLACK
6
CONTINUOUS
10
1.31573
20
1.12386
11
1.33393
21
1.10782
0
LINE
8
BLACK
6
CONTINUOUS
10
1.33393
20
1.10782
11
1.35309
21
1.09296
0
LINE
8
BLACK
6
CONTINUOUS
10
1.35309
20
1.09296
11
1.37315
21
1.07933
0
LINE
8
BLACK
6
CONTINUOUS
10
1.37315
20
1.07933
11
1.39402
21
1.06698
0
LINE
8
BLACK
6
CONTINUOUS
10
1.39402
20
1.06698
11
1.39409
21
1.06695
0
LINE
8
BLACK
6
CONTINUOUS
10
1.39409
20
1.06695
11
1.39409
21
1.06695
0
LINE
8
BLACK
6
CONTINUOUS
10
1.39409
20
1.06695
11
1.40483
21
1.06148
0
LINE
8
BLACK
6
CONTINUOUS
10
1.40483
20
1.06148
11
1.41563
21
1.05597
0
LINE
8
BLACK
6
CONTINUOUS
10
1.41563
20
1.05597
11
1.43789
21
1.04634
0
LINE
8
BLACK
6
CONTINUOUS
10
1.43789
20
1.04634
11
1.43796
21
1.04631
0
LINE
8
BLACK
6
CONTINUOUS
10
1.43796
20
1.04631
11
1.43796
21
1.04631
0
LINE
8
BLACK
6
CONTINUOUS
10
1.43796
20
1.04631
11
1.46063
21
1.03815
0
LINE
8
BLACK
6
CONTINUOUS
10
1.46063
20
1.03815
11
1.46063
21
1.03815
0
LINE
8
BLACK
6
CONTINUOUS
10
1.46063
20
1.03815
11
1.46071
21
1.03813
0
LINE
8
BLACK
6
CONTINUOUS
10
1.46071
20
1.03813
11
1.46078
21
1.0381
0
LINE
8
BLACK
6
CONTINUOUS
10
1.46078
20
1.0381
11
1.46078
21
1.0381
0
LINE
8
BLACK
6
CONTINUOUS
10
1.46078
20
1.0381
11
1.48392
21
1.03138
0
LINE
8
BLACK
6
CONTINUOUS
10
1.48392
20
1.03138
11
1.48399
21
1.03136
0
LINE
8
BLACK
6
CONTINUOUS
10
1.48399
20
1.03136
11
1.48407
21
1.03134
0
LINE
8
BLACK
6
CONTINUOUS
10
1.48407
20
1.03134
11
1.48407
21
1.03134
0
LINE
8
BLACK
6
CONTINUOUS
10
1.48407
20
1.03134
11
1.49583
21
1.02871
0
LINE
8
BLACK
6
CONTINUOUS
10
1.49583
20
1.02871
11
1.50766
21
1.02607
0
LINE
8
BLACK
6
CONTINUOUS
10
1.50766
20
1.02607
11
1.50774
21
1.02606
0
LINE
8
BLACK
6
CONTINUOUS
10
1.50774
20
1.02606
11
1.50774
21
1.02606
0
LINE
8
BLACK
6
CONTINUOUS
10
1.50774
20
1.02606
11
1.53154
21
1.02229
0
LINE
8
BLACK
6
CONTINUOUS
10
1.53154
20
1.02229
11
1.53154
21
1.02229
0
LINE
8
BLACK
6
CONTINUOUS
10
1.53154
20
1.02229
11
1.53162
21
1.02227
0
LINE
8
BLACK
6
CONTINUOUS
10
1.53162
20
1.02227
11
1.53169
21
1.02227
0
LINE
8
BLACK
6
CONTINUOUS
10
1.53169
20
1.02227
11
1.53169
21
1.02227
0
LINE
8
BLACK
6
CONTINUOUS
10
1.53169
20
1.02227
11
1.55568
21
1.02
0
LINE
8
BLACK
6
CONTINUOUS
10
1.55568
20
1.02
11
1.55568
21
1.02
0
LINE
8
BLACK
6
CONTINUOUS
10
1.55568
20
1.02
11
1.55576
21
1.01999
0
LINE
8
BLACK
6
CONTINUOUS
10
1.55576
20
1.01999
11
1.55584
21
1.01999
0
LINE
8
BLACK
6
CONTINUOUS
10
1.55584
20
1.01999
11
1.55584
21
1.01999
0
LINE
8
BLACK
6
CONTINUOUS
10
1.55584
20
1.01999
11
1.56652
21
1.01965
0
LINE
8
BLACK
6
CONTINUOUS
10
1.56652
20
1.01965
11
1.57369
21
1.01943
0
LINE
8
BLACK
6
CONTINUOUS
10
1.57369
20
1.01943
11
1.58631
21
1.01943
0
LINE
8
BLACK
6
CONTINUOUS
10
1.58631
20
1.01943
11
1.59348
21
1.01965
0
LINE
8
BLACK
6
CONTINUOUS
10
1.59348
20
1.01965
11
1.60416
21
1.01999
0
LINE
8
BLACK
6
CONTINUOUS
10
1.60416
20
1.01999
11
1.60416
21
1.01999
0
LINE
8
BLACK
6
CONTINUOUS
10
1.60416
20
1.01999
11
1.60424
21
1.01999
0
LINE
8
BLACK
6
CONTINUOUS
10
1.60424
20
1.01999
11
1.60432
21
1.02
0
LINE
8
BLACK
6
CONTINUOUS
10
1.60432
20
1.02
11
1.60432
21
1.02
0
LINE
8
BLACK
6
CONTINUOUS
10
1.60432
20
1.02
11
1.62831
21
1.02227
0
LINE
8
BLACK
6
CONTINUOUS
10
1.62831
20
1.02227
11
1.62831
21
1.02227
0
LINE
8
BLACK
6
CONTINUOUS
10
1.62831
20
1.02227
11
1.62838
21
1.02227
0
LINE
8
BLACK
6
CONTINUOUS
10
1.62838
20
1.02227
11
1.62846
21
1.02229
0
LINE
8
BLACK
6
CONTINUOUS
10
1.62846
20
1.02229
11
1.62846
21
1.02229
0
LINE
8
BLACK
6
CONTINUOUS
10
1.62846
20
1.02229
11
1.65226
21
1.02606
0
LINE
8
BLACK
6
CONTINUOUS
10
1.65226
20
1.02606
11
1.65226
21
1.02606
0
LINE
8
BLACK
6
CONTINUOUS
10
1.65226
20
1.02606
11
1.65234
21
1.02607
0
LINE
8
BLACK
6
CONTINUOUS
10
1.65234
20
1.02607
11
1.66417
21
1.02871
0
LINE
8
BLACK
6
CONTINUOUS
10
1.66417
20
1.02871
11
1.67593
21
1.03134
0
LINE
8
BLACK
6
CONTINUOUS
10
1.67593
20
1.03134
11
1.67593
21
1.03134
0
LINE
8
BLACK
6
CONTINUOUS
10
1.67593
20
1.03134
11
1.67601
21
1.03136
0
LINE
8
BLACK
6
CONTINUOUS
10
1.67601
20
1.03136
11
1.67608
21
1.03138
0
LINE
8
BLACK
6
CONTINUOUS
10
1.67608
20
1.03138
11
1.69922
21
1.0381
0
LINE
8
BLACK
6
CONTINUOUS
10
1.69922
20
1.0381
11
1.69922
21
1.0381
0
LINE
8
BLACK
6
CONTINUOUS
10
1.69922
20
1.0381
11
1.69929
21
1.03813
0
LINE
8
BLACK
6
CONTINUOUS
10
1.69929
20
1.03813
11
1.69937
21
1.03815
0
LINE
8
BLACK
6
CONTINUOUS
10
1.69937
20
1.03815
11
1.69937
21
1.03815
0
LINE
8
BLACK
6
CONTINUOUS
10
1.69937
20
1.03815
11
1.72204
21
1.04631
0
LINE
8
BLACK
6
CONTINUOUS
10
1.72204
20
1.04631
11
1.72204
21
1.04631
0
LINE
8
BLACK
6
CONTINUOUS
10
1.72204
20
1.04631
11
1.72211
21
1.04634
0
LINE
8
BLACK
6
CONTINUOUS
10
1.72211
20
1.04634
11
1.74437
21
1.05597
0
LINE
8
BLACK
6
CONTINUOUS
10
1.74437
20
1.05597
11
1.75517
21
1.06148
0
LINE
8
BLACK
6
CONTINUOUS
10
1.75517
20
1.06148
11
1.76591
21
1.06695
0
LINE
8
BLACK
6
CONTINUOUS
10
1.76591
20
1.06695
11
1.76591
21
1.06695
0
LINE
8
BLACK
6
CONTINUOUS
10
1.76591
20
1.06695
11
1.76598
21
1.06698
0
LINE
8
BLACK
6
CONTINUOUS
10
1.76598
20
1.06698
11
1.78685
21
1.07933
0
LINE
8
BLACK
6
CONTINUOUS
10
1.78685
20
1.07933
11
1.80691
21
1.09296
0
LINE
8
BLACK
6
CONTINUOUS
10
1.80691
20
1.09296
11
1.82607
21
1.10782
0
LINE
8
BLACK
6
CONTINUOUS
10
1.82607
20
1.10782
11
1.84427
21
1.12386
0
LINE
8
BLACK
6
CONTINUOUS
10
1.84427
20
1.12386
11
1.86141
21
1.14101
0
LINE
8
BLACK
6
CONTINUOUS
10
1.86141
20
1.14101
11
1.87745
21
1.1592
0
LINE
8
BLACK
6
CONTINUOUS
10
1.87745
20
1.1592
11
1.89232
21
1.17836
0
LINE
8
BLACK
6
CONTINUOUS
10
1.89232
20
1.17836
11
1.90595
21
1.19842
0
LINE
8
BLACK
6
CONTINUOUS
10
1.90595
20
1.19842
11
1.91829
21
1.2193
0
LINE
8
BLACK
6
CONTINUOUS
10
1.91829
20
1.2193
11
1.9293
21
1.24091
0
LINE
8
BLACK
6
CONTINUOUS
10
1.9293
20
1.24091
11
1.93894
21
1.26316
0
LINE
8
BLACK
6
CONTINUOUS
10
1.93894
20
1.26316
11
1.93896
21
1.26324
0
LINE
8
BLACK
6
CONTINUOUS
10
1.93896
20
1.26324
11
1.94712
21
1.28591
0
LINE
8
BLACK
6
CONTINUOUS
10
1.94712
20
1.28591
11
1.94712
21
1.28591
0
LINE
8
BLACK
6
CONTINUOUS
10
1.94712
20
1.28591
11
1.94715
21
1.28598
0
LINE
8
BLACK
6
CONTINUOUS
10
1.94715
20
1.28598
11
1.95392
21
1.30927
0
LINE
8
BLACK
6
CONTINUOUS
10
1.95392
20
1.30927
11
1.95921
21
1.33294
0
LINE
8
BLACK
6
CONTINUOUS
10
1.95921
20
1.33294
11
1.963
21
1.35689
0
LINE
8
BLACK
6
CONTINUOUS
10
1.963
20
1.35689
11
1.96528
21
1.38104
0
LINE
8
BLACK
6
CONTINUOUS
10
1.96528
20
1.38104
11
1.96604
21
1.40528
0
LINE
8
BLACK
6
CONTINUOUS
10
1.96604
20
1.40528
11
1.96528
21
1.42952
0
LINE
8
BLACK
6
CONTINUOUS
10
1.96528
20
1.42952
11
1.963
21
1.45366
0
LINE
8
BLACK
6
CONTINUOUS
10
1.963
20
1.45366
11
1.95921
21
1.47761
0
LINE
8
BLACK
6
CONTINUOUS
10
1.95921
20
1.47761
11
1.95392
21
1.50128
0
LINE
8
BLACK
6
CONTINUOUS
10
1.95392
20
1.50128
11
1.94715
21
1.52457
0
LINE
8
BLACK
6
CONTINUOUS
10
1.94715
20
1.52457
11
1.94712
21
1.52464
0
LINE
8
BLACK
6
CONTINUOUS
10
1.94712
20
1.52464
11
1.94712
21
1.52464
0
LINE
8
BLACK
6
CONTINUOUS
10
1.94712
20
1.52464
11
1.93896
21
1.54731
0
LINE
8
BLACK
6
CONTINUOUS
10
1.93896
20
1.54731
11
1.93896
21
1.54732
0
LINE
8
BLACK
6
CONTINUOUS
10
1.93896
20
1.54732
11
1.93894
21
1.54739
0
LINE
8
BLACK
6
CONTINUOUS
10
1.93894
20
1.54739
11
1.9293
21
1.56965
0
LINE
8
BLACK
6
CONTINUOUS
10
1.9293
20
1.56965
11
1.91829
21
1.59125
0
LINE
8
BLACK
6
CONTINUOUS
10
1.91829
20
1.59125
11
1.90595
21
1.61213
0
LINE
8
BLACK
6
CONTINUOUS
10
1.90595
20
1.61213
11
1.89232
21
1.63219
0
LINE
8
BLACK
6
CONTINUOUS
10
1.89232
20
1.63219
11
1.87745
21
1.65135
0
LINE
8
BLACK
6
CONTINUOUS
10
1.87745
20
1.65135
11
1.86141
21
1.66954
0
LINE
8
BLACK
6
CONTINUOUS
10
1.86141
20
1.66954
11
1.84427
21
1.68669
0
LINE
8
BLACK
6
CONTINUOUS
10
1.84427
20
1.68669
11
1.82607
21
1.70273
0
LINE
8
BLACK
6
CONTINUOUS
10
1.82607
20
1.70273
11
1.80691
21
1.71759
0
LINE
8
BLACK
6
CONTINUOUS
10
1.80691
20
1.71759
11
1.78685
21
1.73122
0
LINE
8
BLACK
6
CONTINUOUS
10
1.78685
20
1.73122
11
1.76598
21
1.74357
0
LINE
8
BLACK
6
CONTINUOUS
10
1.76598
20
1.74357
11
1.76591
21
1.7436
0
LINE
8
BLACK
6
CONTINUOUS
10
1.76591
20
1.7436
11
1.76591
21
1.7436
0
LINE
8
BLACK
6
CONTINUOUS
10
1.76591
20
1.7436
11
1.75517
21
1.74907
0
LINE
8
BLACK
6
CONTINUOUS
10
1.75517
20
1.74907
11
1.74437
21
1.75458
0
LINE
8
BLACK
6
CONTINUOUS
10
1.74437
20
1.75458
11
1.7443
21
1.75461
0
LINE
8
BLACK
6
CONTINUOUS
10
1.7443
20
1.75461
11
1.72218
21
1.76418
0
LINE
8
BLACK
6
CONTINUOUS
10
1.72218
20
1.76418
11
1.72218
21
1.76418
0
LINE
8
BLACK
6
CONTINUOUS
10
1.72218
20
1.76418
11
1.72211
21
1.76421
0
LINE
8
BLACK
6
CONTINUOUS
10
1.72211
20
1.76421
11
1.72204
21
1.76424
0
LINE
8
BLACK
6
CONTINUOUS
10
1.72204
20
1.76424
11
1.69937
21
1.7724
0
LINE
8
BLACK
6
CONTINUOUS
10
1.69937
20
1.7724
11
1.69937
21
1.7724
0
LINE
8
BLACK
6
CONTINUOUS
10
1.69937
20
1.7724
11
1.69929
21
1.77243
0
LINE
8
BLACK
6
CONTINUOUS
10
1.69929
20
1.77243
11
1.69922
21
1.77245
0
LINE
8
BLACK
6
CONTINUOUS
10
1.69922
20
1.77245
11
1.69922
21
1.77245
0
LINE
8
BLACK
6
CONTINUOUS
10
1.69922
20
1.77245
11
1.67608
21
1.77917
0
LINE
8
BLACK
6
CONTINUOUS
10
1.67608
20
1.77917
11
1.67608
21
1.77917
0
LINE
8
BLACK
6
CONTINUOUS
10
1.67608
20
1.77917
11
1.67601
21
1.77919
0
LINE
8
BLACK
6
CONTINUOUS
10
1.67601
20
1.77919
11
1.67593
21
1.77921
0
LINE
8
BLACK
6
CONTINUOUS
10
1.67593
20
1.77921
11
1.67593
21
1.77921
0
LINE
8
BLACK
6
CONTINUOUS
10
1.67593
20
1.77921
11
1.66417
21
1.78184
0
LINE
8
BLACK
6
CONTINUOUS
10
1.66417
20
1.78184
11
1.65234
21
1.78448
0
LINE
8
BLACK
6
CONTINUOUS
10
1.65234
20
1.78448
11
1.65226
21
1.78449
0
LINE
8
BLACK
6
CONTINUOUS
10
1.65226
20
1.78449
11
1.62846
21
1.78826
0
LINE
8
BLACK
6
CONTINUOUS
10
1.62846
20
1.78826
11
1.62846
21
1.78826
0
LINE
8
BLACK
6
CONTINUOUS
10
1.62846
20
1.78826
11
1.62838
21
1.78828
0
LINE
8
BLACK
6
CONTINUOUS
10
1.62838
20
1.78828
11
1.62831
21
1.78828
0
LINE
8
BLACK
6
CONTINUOUS
10
1.62831
20
1.78828
11
1.62831
21
1.78828
0
LINE
8
BLACK
6
CONTINUOUS
10
1.62831
20
1.78828
11
1.60432
21
1.79055
0
LINE
8
BLACK
6
CONTINUOUS
10
1.60432
20
1.79055
11
1.60432
21
1.79055
0
LINE
8
BLACK
6
CONTINUOUS
10
1.60432
20
1.79055
11
1.60424
21
1.79056
0
LINE
8
BLACK
6
CONTINUOUS
10
1.60424
20
1.79056
11
1.60416
21
1.79056
0
LINE
8
BLACK
6
CONTINUOUS
10
1.60416
20
1.79056
11
1.60416
21
1.79056
0
LINE
8
BLACK
6
CONTINUOUS
10
1.60416
20
1.79056
11
1.59348
21
1.7909
0
LINE
8
BLACK
6
CONTINUOUS
10
1.59348
20
1.7909
11
1.58631
21
1.79112
0
LINE
8
BLACK
6
CONTINUOUS
10
1.58631
20
1.79112
11
1.57369
21
1.79112
0
LINE
8
BLACK
6
CONTINUOUS
10
1.57369
20
1.79112
11
1.56652
21
1.7909
0
LINE
8
BLACK
6
CONTINUOUS
10
1.56652
20
1.7909
11
1.55584
21
1.79056
0
LINE
8
BLACK
6
CONTINUOUS
10
1.55584
20
1.79056
11
1.55584
21
1.79056
0
LINE
8
BLACK
6
CONTINUOUS
10
1.55584
20
1.79056
11
1.55576
21
1.79056
0
LINE
8
BLACK
6
CONTINUOUS
10
1.55576
20
1.79056
11
1.55568
21
1.79055
0
LINE
8
BLACK
6
CONTINUOUS
10
1.55568
20
1.79055
11
1.55568
21
1.79055
0
LINE
8
BLACK
6
CONTINUOUS
10
1.55568
20
1.79055
11
1.53169
21
1.78828
0
LINE
8
BLACK
6
CONTINUOUS
10
1.53169
20
1.78828
11
1.53169
21
1.78828
0
LINE
8
BLACK
6
CONTINUOUS
10
1.53169
20
1.78828
11
1.53162
21
1.78828
0
LINE
8
BLACK
6
CONTINUOUS
10
1.53162
20
1.78828
11
1.53154
21
1.78826
0
LINE
8
BLACK
6
CONTINUOUS
10
1.53154
20
1.78826
11
1.53154
21
1.78826
0
LINE
8
BLACK
6
CONTINUOUS
10
1.53154
20
1.78826
11
1.50774
21
1.78449
0
LINE
8
BLACK
6
CONTINUOUS
10
1.50774
20
1.78449
11
1.50766
21
1.78448
0
LINE
8
BLACK
6
CONTINUOUS
10
1.50766
20
1.78448
11
1.49583
21
1.78184
0
LINE
8
BLACK
6
CONTINUOUS
10
1.49583
20
1.78184
11
1.48407
21
1.77921
0
LINE
8
BLACK
6
CONTINUOUS
10
1.48407
20
1.77921
11
1.48407
21
1.77921
0
LINE
8
BLACK
6
CONTINUOUS
10
1.48407
20
1.77921
11
1.48399
21
1.77919
0
LINE
8
BLACK
6
CONTINUOUS
10
1.48399
20
1.77919
11
1.48392
21
1.77917
0
LINE
8
BLACK
6
CONTINUOUS
10
1.48392
20
1.77917
11
1.48392
21
1.77917
0
LINE
8
BLACK
6
CONTINUOUS
10
1.48392
20
1.77917
11
1.46078
21
1.77245
0
LINE
8
BLACK
6
CONTINUOUS
10
1.46078
20
1.77245
11
1.46078
21
1.77245
0
LINE
8
BLACK
6
CONTINUOUS
10
1.46078
20
1.77245
11
1.46071
21
1.77243
0
LINE
8
BLACK
6
CONTINUOUS
10
1.46071
20
1.77243
11
1.46063
21
1.7724
0
LINE
8
BLACK
6
CONTINUOUS
10
1.46063
20
1.7724
11
1.46063
21
1.7724
0
LINE
8
BLACK
6
CONTINUOUS
10
1.46063
20
1.7724
11
1.43796
21
1.76424
0
LINE
8
BLACK
6
CONTINUOUS
10
1.43796
20
1.76424
11
1.43789
21
1.76421
0
LINE
8
BLACK
6
CONTINUOUS
10
1.43789
20
1.76421
11
1.43782
21
1.76418
0
LINE
8
BLACK
6
CONTINUOUS
10
1.43782
20
1.76418
11
1.43782
21
1.76418
0
LINE
8
BLACK
6
CONTINUOUS
10
1.43782
20
1.76418
11
1.4157
21
1.75461
0
LINE
8
BLACK
6
CONTINUOUS
10
1.4157
20
1.75461
11
1.41563
21
1.75458
0
LINE
8
BLACK
6
CONTINUOUS
10
1.41563
20
1.75458
11
1.40483
21
1.74907
0
LINE
8
BLACK
6
CONTINUOUS
10
1.40483
20
1.74907
11
1.39409
21
1.7436
0
LINE
8
BLACK
6
CONTINUOUS
10
1.39409
20
1.7436
11
1.39409
21
1.7436
0
LINE
8
BLACK
6
CONTINUOUS
10
1.39409
20
1.7436
11
1.39402
21
1.74357
0
LINE
8
BLACK
6
CONTINUOUS
10
1.39402
20
1.74357
11
1.37315
21
1.73122
0
LINE
8
BLACK
6
CONTINUOUS
10
1.37315
20
1.73122
11
1.35309
21
1.71759
0
LINE
8
BLACK
6
CONTINUOUS
10
1.35309
20
1.71759
11
1.33393
21
1.70273
0
LINE
8
BLACK
6
CONTINUOUS
10
1.33393
20
1.70273
11
1.31573
21
1.68669
0
LINE
8
BLACK
6
CONTINUOUS
10
1.31573
20
1.68669
11
1.29859
21
1.66954
0
LINE
8
BLACK
6
CONTINUOUS
10
1.29859
20
1.66954
11
1.28255
21
1.65135
0
LINE
8
BLACK
6
CONTINUOUS
10
1.28255
20
1.65135
11
1.26768
21
1.63219
0
LINE
8
BLACK
6
CONTINUOUS
10
1.26768
20
1.63219
11
1.25405
21
1.61213
0
LINE
8
BLACK
6
CONTINUOUS
10
1.25405
20
1.61213
11
1.24171
21
1.59125
0
LINE
8
BLACK
6
CONTINUOUS
10
1.24171
20
1.59125
11
1.2307
21
1.56965
0
LINE
8
BLACK
6
CONTINUOUS
10
1.2307
20
1.56965
11
1.22106
21
1.54739
0
LINE
8
BLACK
6
CONTINUOUS
10
1.22106
20
1.54739
11
1.22104
21
1.54732
0
LINE
8
BLACK
6
CONTINUOUS
10
1.22104
20
1.54732
11
1.22104
21
1.54731
0
LINE
8
BLACK
6
CONTINUOUS
10
1.22104
20
1.54731
11
1.21288
21
1.52464
0
LINE
8
BLACK
6
CONTINUOUS
10
1.21288
20
1.52464
11
1.21288
21
1.52464
0
LINE
8
BLACK
6
CONTINUOUS
10
1.21288
20
1.52464
11
1.21285
21
1.52457
0
LINE
8
BLACK
6
CONTINUOUS
10
1.21285
20
1.52457
11
1.20608
21
1.50128
0
LINE
8
BLACK
6
CONTINUOUS
10
1.20608
20
1.50128
11
1.20079
21
1.47761
0
LINE
8
BLACK
6
CONTINUOUS
10
1.20079
20
1.47761
11
1.197
21
1.45366
0
LINE
8
BLACK
6
CONTINUOUS
10
1.197
20
1.45366
11
1.19472
21
1.42952
0
LINE
8
BLACK
6
CONTINUOUS
10
1.19472
20
1.42952
11
1.19396
21
1.40528
0
LINE
8
BLACK
6
CONTINUOUS
10
1.19396
20
1.40528
11
1.19472
21
1.38104
0
LINE
8
BLACK
6
CONTINUOUS
10
1.19472
20
1.38104
11
1.197
21
1.35689
0
LINE
8
BLACK
6
CONTINUOUS
10
1.16773
20
1.45366
11
1.16393
21
1.47761
0
LINE
8
BLACK
6
CONTINUOUS
10
1.16393
20
1.47761
11
1.15864
21
1.50128
0
LINE
8
BLACK
6
CONTINUOUS
10
1.15864
20
1.50128
11
1.15187
21
1.52457
0
LINE
8
BLACK
6
CONTINUOUS
10
1.15187
20
1.52457
11
1.15185
21
1.52464
0
LINE
8
BLACK
6
CONTINUOUS
10
1.15185
20
1.52464
11
1.15185
21
1.52464
0
LINE
8
BLACK
6
CONTINUOUS
10
1.15185
20
1.52464
11
1.14369
21
1.54731
0
LINE
8
BLACK
6
CONTINUOUS
10
1.14369
20
1.54731
11
1.14369
21
1.54732
0
LINE
8
BLACK
6
CONTINUOUS
10
1.14369
20
1.54732
11
1.14366
21
1.54739
0
LINE
8
BLACK
6
CONTINUOUS
10
1.14366
20
1.54739
11
1.13403
21
1.56965
0
LINE
8
BLACK
6
CONTINUOUS
10
1.13403
20
1.56965
11
1.12302
21
1.59125
0
LINE
8
BLACK
6
CONTINUOUS
10
1.12302
20
1.59125
11
1.11067
21
1.61213
0
LINE
8
BLACK
6
CONTINUOUS
10
1.11067
20
1.61213
11
1.09704
21
1.63219
0
LINE
8
BLACK
6
CONTINUOUS
10
1.09704
20
1.63219
11
1.08218
21
1.65135
0
LINE
8
BLACK
6
CONTINUOUS
10
1.08218
20
1.65135
11
1.06614
21
1.66954
0
LINE
8
BLACK
6
CONTINUOUS
10
1.06614
20
1.66954
11
1.04899
21
1.68669
0
LINE
8
BLACK
6
CONTINUOUS
10
1.04899
20
1.68669
11
1.0308
21
1.70273
0
LINE
8
BLACK
6
CONTINUOUS
10
1.0308
20
1.70273
11
1.01164
21
1.71759
0
LINE
8
BLACK
6
CONTINUOUS
10
1.01164
20
1.71759
11
0.991578
21
1.73122
0
LINE
8
BLACK
6
CONTINUOUS
10
0.991578
20
1.73122
11
0.970703
21
1.74357
0
LINE
8
BLACK
6
CONTINUOUS
10
0.970703
20
1.74357
11
0.970634
21
1.7436
0
LINE
8
BLACK
6
CONTINUOUS
10
0.970634
20
1.7436
11
0.970634
21
1.7436
0
LINE
8
BLACK
6
CONTINUOUS
10
0.970634
20
1.7436
11
0.959899
21
1.74907
0
LINE
8
BLACK
6
CONTINUOUS
10
0.959899
20
1.74907
11
0.949094
21
1.75458
0
LINE
8
BLACK
6
CONTINUOUS
10
0.949094
20
1.75458
11
0.949023
21
1.75461
0
LINE
8
BLACK
6
CONTINUOUS
10
0.949023
20
1.75461
11
0.926908
21
1.76418
0
LINE
8
BLACK
6
CONTINUOUS
10
0.926908
20
1.76418
11
0.926908
21
1.76418
0
LINE
8
BLACK
6
CONTINUOUS
10
0.926908
20
1.76418
11
0.926837
21
1.76421
0
LINE
8
BLACK
6
CONTINUOUS
10
0.926837
20
1.76421
11
0.926764
21
1.76424
0
LINE
8
BLACK
6
CONTINUOUS
10
0.926764
20
1.76424
11
0.904092
21
1.7724
0
LINE
8
BLACK
6
CONTINUOUS
10
0.904092
20
1.7724
11
0.904091
21
1.7724
0
LINE
8
BLACK
6
CONTINUOUS
10
0.904091
20
1.7724
11
0.904019
21
1.77243
0
LINE
8
BLACK
6
CONTINUOUS
10
0.904019
20
1.77243
11
0.903945
21
1.77245
0
LINE
8
BLACK
6
CONTINUOUS
10
0.903945
20
1.77245
11
0.903944
21
1.77245
0
LINE
8
BLACK
6
CONTINUOUS
10
0.903944
20
1.77245
11
0.880805
21
1.77917
0
LINE
8
BLACK
6
CONTINUOUS
10
0.880805
20
1.77917
11
0.880805
21
1.77917
0
LINE
8
BLACK
6
CONTINUOUS
10
0.880805
20
1.77917
11
0.88073
21
1.77919
0
LINE
8
BLACK
6
CONTINUOUS
10
0.88073
20
1.77919
11
0.880654
21
1.77921
0
LINE
8
BLACK
6
CONTINUOUS
10
0.880654
20
1.77921
11
0.880654
21
1.77921
0
LINE
8
BLACK
6
CONTINUOUS
10
0.880654
20
1.77921
11
0.868896
21
1.78184
0
LINE
8
BLACK
6
CONTINUOUS
10
0.868896
20
1.78184
11
0.857062
21
1.78448
0
LINE
8
BLACK
6
CONTINUOUS
10
0.857062
20
1.78448
11
0.856985
21
1.78449
0
LINE
8
BLACK
6
CONTINUOUS
10
0.856985
20
1.78449
11
0.833186
21
1.78826
0
LINE
8
BLACK
6
CONTINUOUS
10
0.833186
20
1.78826
11
0.833185
21
1.78826
0
LINE
8
BLACK
6
CONTINUOUS
10
0.833185
20
1.78826
11
0.833109
21
1.78828
0
LINE
8
BLACK
6
CONTINUOUS
10
0.833109
20
1.78828
11
0.833031
21
1.78828
0
LINE
8
BLACK
6
CONTINUOUS
10
0.833031
20
1.78828
11
0.833031
21
1.78828
0
LINE
8
BLACK
6
CONTINUOUS
10
0.833031
20
1.78828
11
0.809041
21
1.79055
0
LINE
8
BLACK
6
CONTINUOUS
10
0.809041
20
1.79055
11
0.809041
21
1.79055
0
LINE
8
BLACK
6
CONTINUOUS
10
0.809041
20
1.79055
11
0.808964
21
1.79056
0
LINE
8
BLACK
6
CONTINUOUS
10
0.808964
20
1.79056
11
0.808888
21
1.79056
0
LINE
8
BLACK
6
CONTINUOUS
10
0.808888
20
1.79056
11
0.808887
21
1.79056
0
LINE
8
BLACK
6
CONTINUOUS
10
0.808887
20
1.79056
11
0.798204
21
1.7909
0
LINE
8
BLACK
6
CONTINUOUS
10
0.798204
20
1.7909
11
0.791036
21
1.79112
0
LINE
8
BLACK
6
CONTINUOUS
10
0.791036
20
1.79112
11
0.778413
21
1.79112
0
LINE
8
BLACK
6
CONTINUOUS
10
0.778413
20
1.79112
11
0.771244
21
1.7909
0
LINE
8
BLACK
6
CONTINUOUS
10
0.771244
20
1.7909
11
0.760562
21
1.79056
0
LINE
8
BLACK
6
CONTINUOUS
10
0.760562
20
1.79056
11
0.760561
21
1.79056
0
LINE
8
BLACK
6
CONTINUOUS
10
0.760561
20
1.79056
11
0.760484
21
1.79056
0
LINE
8
BLACK
6
CONTINUOUS
10
0.760484
20
1.79056
11
0.760408
21
1.79055
0
LINE
8
BLACK
6
CONTINUOUS
10
0.760408
20
1.79055
11
0.760408
21
1.79055
0
LINE
8
BLACK
6
CONTINUOUS
10
0.760408
20
1.79055
11
0.736418
21
1.78828
0
LINE
8
BLACK
6
CONTINUOUS
10
0.736418
20
1.78828
11
0.736418
21
1.78828
0
LINE
8
BLACK
6
CONTINUOUS
10
0.736418
20
1.78828
11
0.73634
21
1.78828
0
LINE
8
BLACK
6
CONTINUOUS
10
0.73634
20
1.78828
11
0.736263
21
1.78826
0
LINE
8
BLACK
6
CONTINUOUS
10
0.736263
20
1.78826
11
0.736263
21
1.78826
0
LINE
8
BLACK
6
CONTINUOUS
10
0.736263
20
1.78826
11
0.712464
21
1.78449
0
LINE
8
BLACK
6
CONTINUOUS
10
0.712464
20
1.78449
11
0.712387
21
1.78448
0
LINE
8
BLACK
6
CONTINUOUS
10
0.712387
20
1.78448
11
0.700553
21
1.78184
0
LINE
8
BLACK
6
CONTINUOUS
10
0.700553
20
1.78184
11
0.688795
21
1.77921
0
LINE
8
BLACK
6
CONTINUOUS
10
0.688795
20
1.77921
11
0.688795
21
1.77921
0
LINE
8
BLACK
6
CONTINUOUS
10
0.688795
20
1.77921
11
0.688719
21
1.77919
0
LINE
8
BLACK
6
CONTINUOUS
10
0.688719
20
1.77919
11
0.688644
21
1.77917
0
LINE
8
BLACK
6
CONTINUOUS
10
0.688644
20
1.77917
11
0.688644
21
1.77917
0
LINE
8
BLACK
6
CONTINUOUS
10
0.688644
20
1.77917
11
0.665505
21
1.77245
0
LINE
8
BLACK
6
CONTINUOUS
10
0.665505
20
1.77245
11
0.665504
21
1.77245
0
LINE
8
BLACK
6
CONTINUOUS
10
0.665504
20
1.77245
11
0.66543
21
1.77243
0
LINE
8
BLACK
6
CONTINUOUS
10
0.66543
20
1.77243
11
0.665358
21
1.7724
0
LINE
8
BLACK
6
CONTINUOUS
10
0.665358
20
1.7724
11
0.665357
21
1.7724
0
LINE
8
BLACK
6
CONTINUOUS
10
0.665357
20
1.7724
11
0.642685
21
1.76424
0
LINE
8
BLACK
6
CONTINUOUS
10
0.642685
20
1.76424
11
0.642612
21
1.76421
0
LINE
8
BLACK
6
CONTINUOUS
10
0.642612
20
1.76421
11
0.642541
21
1.76418
0
LINE
8
BLACK
6
CONTINUOUS
10
0.642541
20
1.76418
11
0.642541
21
1.76418
0
LINE
8
BLACK
6
CONTINUOUS
10
0.642541
20
1.76418
11
0.620426
21
1.75461
0
LINE
8
BLACK
6
CONTINUOUS
10
0.620426
20
1.75461
11
0.620355
21
1.75458
0
LINE
8
BLACK
6
CONTINUOUS
10
0.620355
20
1.75458
11
0.60955
21
1.74907
0
LINE
8
BLACK
6
CONTINUOUS
10
0.60955
20
1.74907
11
0.598815
21
1.7436
0
LINE
8
BLACK
6
CONTINUOUS
10
0.598815
20
1.7436
11
0.598815
21
1.7436
0
LINE
8
BLACK
6
CONTINUOUS
10
0.598815
20
1.7436
11
0.598746
21
1.74357
0
LINE
8
BLACK
6
CONTINUOUS
10
0.598746
20
1.74357
11
0.577871
21
1.73122
0
LINE
8
BLACK
6
CONTINUOUS
10
0.577871
20
1.73122
11
0.557813
21
1.71759
0
LINE
8
BLACK
6
CONTINUOUS
10
0.557813
20
1.71759
11
0.53865
21
1.70273
0
LINE
8
BLACK
6
CONTINUOUS
10
0.53865
20
1.70273
11
0.520459
21
1.68669
0
LINE
8
BLACK
6
CONTINUOUS
10
0.520459
20
1.68669
11
0.50331
21
1.66954
0
LINE
8
BLACK
6
CONTINUOUS
10
0.50331
20
1.66954
11
0.487272
21
1.65135
0
LINE
8
BLACK
6
CONTINUOUS
10
0.487272
20
1.65135
11
0.472408
21
1.63219
0
LINE
8
BLACK
6
CONTINUOUS
10
0.472408
20
1.63219
11
0.458776
21
1.61213
0
LINE
8
BLACK
6
CONTINUOUS
10
0.458776
20
1.61213
11
0.446431
21
1.59125
0
LINE
8
BLACK
6
CONTINUOUS
10
0.446431
20
1.59125
11
0.435421
21
1.56965
0
LINE
8
BLACK
6
CONTINUOUS
10
0.435421
20
1.56965
11
0.425789
21
1.54739
0
LINE
8
BLACK
6
CONTINUOUS
10
0.425789
20
1.54739
11
0.425763
21
1.54732
0
LINE
8
BLACK
6
CONTINUOUS
10
0.425763
20
1.54732
11
0.425763
21
1.54731
0
LINE
8
BLACK
6
CONTINUOUS
10
0.425763
20
1.54731
11
0.4176
21
1.52464
0
LINE
8
BLACK
6
CONTINUOUS
10
0.4176
20
1.52464
11
0.4176
21
1.52464
0
LINE
8
BLACK
6
CONTINUOUS
10
0.4176
20
1.52464
11
0.417574
21
1.52457
0
LINE
8
BLACK
6
CONTINUOUS
10
0.417574
20
1.52457
11
0.410808
21
1.50128
0
LINE
8
BLACK
6
CONTINUOUS
10
0.410808
20
1.50128
11
0.405518
21
1.47761
0
LINE
8
BLACK
6
CONTINUOUS
10
0.405518
20
1.47761
11
0.401724
21
1.45366
0
LINE
8
BLACK
6
CONTINUOUS
10
0.401724
20
1.45366
11
0.399441
21
1.42952
0
LINE
8
BLACK
6
CONTINUOUS
10
0.399441
20
1.42952
11
0.39868
21
1.40528
0
LINE
8
BLACK
6
CONTINUOUS
10
0.39868
20
1.40528
11
0.399441
21
1.38104
0
LINE
8
BLACK
6
CONTINUOUS
10
0.399441
20
1.38104
11
0.401724
21
1.35689
0
LINE
8
BLACK
6
CONTINUOUS
10
0.401724
20
1.35689
11
0.405518
21
1.33294
0
LINE
8
BLACK
6
CONTINUOUS
10
0.405518
20
1.33294
11
0.410808
21
1.30927
0
LINE
8
BLACK
6
CONTINUOUS
10
0.410808
20
1.30927
11
0.417574
21
1.28598
0
LINE
8
BLACK
6
CONTINUOUS
10
0.417574
20
1.28598
11
0.4176
21
1.28591
0
LINE
8
BLACK
6
CONTINUOUS
10
0.4176
20
1.28591
11
0.4176
21
1.28591
0
LINE
8
BLACK
6
CONTINUOUS
10
0.4176
20
1.28591
11
0.425763
21
1.26324
0
LINE
8
BLACK
6
CONTINUOUS
10
0.425763
20
1.26324
11
0.425789
21
1.26316
0
LINE
8
BLACK
6
CONTINUOUS
10
0.425789
20
1.26316
11
0.435421
21
1.24091
0
LINE
8
BLACK
6
CONTINUOUS
10
0.435421
20
1.24091
11
0.446431
21
1.2193
0
LINE
8
BLACK
6
CONTINUOUS
10
0.446431
20
1.2193
11
0.458776
21
1.19842
0
LINE
8
BLACK
6
CONTINUOUS
10
0.458776
20
1.19842
11
0.472408
21
1.17836
0
LINE
8
BLACK
6
CONTINUOUS
10
0.472408
20
1.17836
11
0.487272
21
1.1592
0
LINE
8
BLACK
6
CONTINUOUS
10
0.487272
20
1.1592
11
0.50331
21
1.14101
0
LINE
8
BLACK
6
CONTINUOUS
10
0.50331
20
1.14101
11
0.520459
21
1.12386
0
LINE
8
BLACK
6
CONTINUOUS
10
0.520459
20
1.12386
11
0.53865
21
1.10782
0
LINE
8
BLACK
6
CONTINUOUS
10
0.53865
20
1.10782
11
0.557813
21
1.09296
0
LINE
8
BLACK
6
CONTINUOUS
10
0.557813
20
1.09296
11
0.577871
21
1.07933
0
LINE
8
BLACK
6
CONTINUOUS
10
0.577871
20
1.07933
11
0.598746
21
1.06698
0
LINE
8
BLACK
6
CONTINUOUS
10
0.598746
20
1.06698
11
0.598815
21
1.06695
0
LINE
8
BLACK
6
CONTINUOUS
10
0.598815
20
1.06695
11
0.598815
21
1.06695
0
LINE
8
BLACK
6
CONTINUOUS
10
0.598815
20
1.06695
11
0.60955
21
1.06148
0
LINE
8
BLACK
6
CONTINUOUS
10
0.60955
20
1.06148
11
0.620355
21
1.05597
0
LINE
8
BLACK
6
CONTINUOUS
10
0.620355
20
1.05597
11
0.642612
21
1.04634
0
LINE
8
BLACK
6
CONTINUOUS
10
0.642612
20
1.04634
11
0.642685
21
1.04631
0
LINE
8
BLACK
6
CONTINUOUS
10
0.642685
20
1.04631
11
0.642685
21
1.04631
0
LINE
8
BLACK
6
CONTINUOUS
10
0.642685
20
1.04631
11
0.665357
21
1.03815
0
LINE
8
BLACK
6
CONTINUOUS
10
0.665357
20
1.03815
11
0.665358
21
1.03815
0
LINE
8
BLACK
6
CONTINUOUS
10
0.665358
20
1.03815
11
0.66543
21
1.03813
0
LINE
8
BLACK
6
CONTINUOUS
10
0.66543
20
1.03813
11
0.665504
21
1.0381
0
LINE
8
BLACK
6
CONTINUOUS
10
0.665504
20
1.0381
11
0.665505
21
1.0381
0
LINE
8
BLACK
6
CONTINUOUS
10
0.665505
20
1.0381
11
0.688644
21
1.03138
0
LINE
8
BLACK
6
CONTINUOUS
10
0.688644
20
1.03138
11
0.688719
21
1.03136
0
LINE
8
BLACK
6
CONTINUOUS
10
0.688719
20
1.03136
11
0.688795
21
1.03134
0
LINE
8
BLACK
6
CONTINUOUS
10
0.688795
20
1.03134
11
0.688795
21
1.03134
0
LINE
8
BLACK
6
CONTINUOUS
10
0.688795
20
1.03134
11
0.700553
21
1.02871
0
LINE
8
BLACK
6
CONTINUOUS
10
0.700553
20
1.02871
11
0.712387
21
1.02607
0
LINE
8
BLACK
6
CONTINUOUS
10
0.712387
20
1.02607
11
0.712464
21
1.02606
0
LINE
8
BLACK
6
CONTINUOUS
10
0.712464
20
1.02606
11
0.712464
21
1.02606
0
LINE
8
BLACK
6
CONTINUOUS
10
0.712464
20
1.02606
11
0.736263
21
1.02229
0
LINE
8
BLACK
6
CONTINUOUS
10
0.736263
20
1.02229
11
0.736263
21
1.02229
0
LINE
8
BLACK
6
CONTINUOUS
10
0.736263
20
1.02229
11
0.73634
21
1.02227
0
LINE
8
BLACK
6
CONTINUOUS
10
0.73634
20
1.02227
11
0.736418
21
1.02227
0
LINE
8
BLACK
6
CONTINUOUS
10
0.736418
20
1.02227
11
0.736418
21
1.02227
0
LINE
8
BLACK
6
CONTINUOUS
10
0.736418
20
1.02227
11
0.760408
21
1.02
0
LINE
8
BLACK
6
CONTINUOUS
10
0.760408
20
1.02
11
0.760408
21
1.02
0
LINE
8
BLACK
6
CONTINUOUS
10
0.760408
20
1.02
11
0.760484
21
1.01999
0
LINE
8
BLACK
6
CONTINUOUS
10
0.760484
20
1.01999
11
0.760561
21
1.01999
0
LINE
8
BLACK
6
CONTINUOUS
10
0.760561
20
1.01999
11
0.760562
21
1.01999
0
LINE
8
BLACK
6
CONTINUOUS
10
0.760562
20
1.01999
11
0.771244
21
1.01965
0
LINE
8
BLACK
6
CONTINUOUS
10
0.771244
20
1.01965
11
0.778413
21
1.01943
0
LINE
8
BLACK
6
CONTINUOUS
10
0.778413
20
1.01943
11
0.791036
21
1.01943
0
LINE
8
BLACK
6
CONTINUOUS
10
0.791036
20
1.01943
11
0.798204
21
1.01965
0
LINE
8
BLACK
6
CONTINUOUS
10
0.798204
20
1.01965
11
0.808887
21
1.01999
0
LINE
8
BLACK
6
CONTINUOUS
10
0.808887
20
1.01999
11
0.808888
21
1.01999
0
LINE
8
BLACK
6
CONTINUOUS
10
0.808888
20
1.01999
11
0.808964
21
1.01999
0
LINE
8
BLACK
6
CONTINUOUS
10
0.808964
20
1.01999
11
0.809041
21
1.02
0
LINE
8
BLACK
6
CONTINUOUS
10
0.809041
20
1.02
11
0.809041
21
1.02
0
LINE
8
BLACK
6
CONTINUOUS
10
0.809041
20
1.02
11
0.833031
21
1.02227
0
LINE
8
BLACK
6
CONTINUOUS
10
0.833031
20
1.02227
11
0.833031
21
1.02227
0
LINE
8
BLACK
6
CONTINUOUS
10
0.833031
20
1.02227
11
0.833109
21
1.02227
0
LINE
8
BLACK
6
CONTINUOUS
10
0.833109
20
1.02227
11
0.833185
21
1.02229
0
LINE
8
BLACK
6
CONTINUOUS
10
0.833185
20
1.02229
11
0.833186
21
1.02229
0
LINE
8
BLACK
6
CONTINUOUS
10
0.833186
20
1.02229
11
0.856985
21
1.02606
0
LINE
8
BLACK
6
CONTINUOUS
10
0.856985
20
1.02606
11
0.856985
21
1.02606
0
LINE
8
BLACK
6
CONTINUOUS
10
0.856985
20
1.02606
11
0.857062
21
1.02607
0
LINE
8
BLACK
6
CONTINUOUS
10
0.857062
20
1.02607
11
0.868896
21
1.02871
0
LINE
8
BLACK
6
CONTINUOUS
10
0.868896
20
1.02871
11
0.880654
21
1.03134
0
LINE
8
BLACK
6
CONTINUOUS
10
0.880654
20
1.03134
11
0.880654
21
1.03134
0
LINE
8
BLACK
6
CONTINUOUS
10
0.880654
20
1.03134
11
0.88073
21
1.03136
0
LINE
8
BLACK
6
CONTINUOUS
10
0.88073
20
1.03136
11
0.880805
21
1.03138
0
LINE
8
BLACK
6
CONTINUOUS
10
0.880805
20
1.03138
11
0.903944
21
1.0381
0
LINE
8
BLACK
6
CONTINUOUS
10
0.903944
20
1.0381
11
0.903945
21
1.0381
0
LINE
8
BLACK
6
CONTINUOUS
10
0.903945
20
1.0381
11
0.904019
21
1.03813
0
LINE
8
BLACK
6
CONTINUOUS
10
0.904019
20
1.03813
11
0.904091
21
1.03815
0
LINE
8
BLACK
6
CONTINUOUS
10
0.904091
20
1.03815
11
0.904092
21
1.03815
0
LINE
8
BLACK
6
CONTINUOUS
10
0.904092
20
1.03815
11
0.926764
21
1.04631
0
LINE
8
BLACK
6
CONTINUOUS
10
0.926764
20
1.04631
11
0.926764
21
1.04631
0
LINE
8
BLACK
6
CONTINUOUS
10
0.926764
20
1.04631
11
0.926837
21
1.04634
0
LINE
8
BLACK
6
CONTINUOUS
10
0.926837
20
1.04634
11
0.949094
21
1.05597
0
LINE
8
BLACK
6
CONTINUOUS
10
0.949094
20
1.05597
11
0.959899
21
1.06148
0
LINE
8
BLACK
6
CONTINUOUS
10
0.959899
20
1.06148
11
0.970634
21
1.06695
0
LINE
8
BLACK
6
CONTINUOUS
10
0.970634
20
1.06695
11
0.970634
21
1.06695
0
LINE
8
BLACK
6
CONTINUOUS
10
0.970634
20
1.06695
11
0.970703
21
1.06698
0
LINE
8
BLACK
6
CONTINUOUS
10
0.970703
20
1.06698
11
0.991578
21
1.07933
0
LINE
8
BLACK
6
CONTINUOUS
10
0.991578
20
1.07933
11
1.01164
21
1.09296
0
LINE
8
BLACK
6
CONTINUOUS
10
1.01164
20
1.09296
11
1.0308
21
1.10782
0
LINE
8
BLACK
6
CONTINUOUS
10
1.0308
20
1.10782
11
1.04899
21
1.12386
0
LINE
8
BLACK
6
CONTINUOUS
10
1.04899
20
1.12386
11
1.06614
21
1.14101
0
LINE
8
BLACK
6
CONTINUOUS
10
1.06614
20
1.14101
11
1.08218
21
1.1592
0
LINE
8
BLACK
6
CONTINUOUS
10
1.08218
20
1.1592
11
1.09704
21
1.17836
0
LINE
8
BLACK
6
CONTINUOUS
10
1.09704
20
1.17836
11
1.11067
21
1.19842
0
LINE
8
BLACK
6
CONTINUOUS
10
1.11067
20
1.19842
11
1.12302
21
1.2193
0
LINE
8
BLACK
6
CONTINUOUS
10
1.12302
20
1.2193
11
1.13403
21
1.24091
0
LINE
8
BLACK
6
CONTINUOUS
10
1.13403
20
1.24091
11
1.14366
21
1.26316
0
LINE
8
BLACK
6
CONTINUOUS
10
1.14366
20
1.26316
11
1.14369
21
1.26324
0
LINE
8
BLACK
6
CONTINUOUS
10
1.14369
20
1.26324
11
1.15185
21
1.28591
0
LINE
8
BLACK
6
CONTINUOUS
10
1.15185
20
1.28591
11
1.15185
21
1.28591
0
LINE
8
BLACK
6
CONTINUOUS
10
1.15185
20
1.28591
11
1.15187
21
1.28598
0
LINE
8
BLACK
6
CONTINUOUS
10
1.15187
20
1.28598
11
1.15864
21
1.30927
0
LINE
8
BLACK
6
CONTINUOUS
10
1.15864
20
1.30927
11
1.16393
21
1.33294
0
LINE
8
BLACK
6
CONTINUOUS
10
1.16393
20
1.33294
11
1.16773
21
1.35689
0
LINE
8
BLACK
6
CONTINUOUS
10
1.16773
20
1.35689
11
1.17001
21
1.38104
0
LINE
8
BLACK
6
CONTINUOUS
10
1.17001
20
1.38104
11
1.17077
21
1.40528
0
LINE
8
BLACK
6
CONTINUOUS
10
1.17077
20
1.40528
11
1.17001
21
1.42952
0
LINE
8
BLACK
6
CONTINUOUS
10
1.17001
20
1.42952
11
1.16773
21
1.45366
  0
ENDSEC
  0
EOF
