  0
SECTION
  2
HEADER
  9
$ANGBASE
  50
0.0
  9
$ANGDIR
  70
1
  9
$MEASUREMENT
  70
0
  0
ENDSEC
  0
SECTION
  2
TABLES
  0
TABLE
  2
LTYPE
  70
4
  0
LTYPE
  5
40F
  2
CONTINUOUS
  70
0
  3
Solid line
  72
65
  73
0
  40
0.0
  0
LTYPE
  5
410
  2
DASHDOT
 70
0
  3
Dash Dot ____ _ ____ _
 72
65
 73
4
 40
2.0
 49
1.25
 49
-0.25
 49
0.25
 49
-0.25
  0
LTYPE
  5
411
  2
DASHED
 70
0
  3
Dashed __ __ __ __ __
 72
65
 73
2
 40
0.75
 49
0.5
 49
-0.25
  0
LTYPE
  5
43B
  2
DOTTED
 70
0
  3
Dotted .  .  .  .
 72
65
 73
2
 40
0.2
 49
0.0
 49
-0.2
  0
ENDTAB
  0
TABLE
  2
STYLE
  70
4
  0
STYLE
  2
KICAD
  70
0
  40
0
  41
1
  42
1
  50
0
  71
0
  3
isocp.shx
  0
STYLE
  2
KICADB
  70
0
  40
0
  41
1
  42
1
  50
0
  71
0
  3
isocp.shx
  0
STYLE
  2
KICADI
  70
0
  40
0
  41
1
  42
1
  50
15
  71
0
  3
isocp.shx
  0
STYLE
  2
KICADBI
  70
0
  40
0
  41
1
  42
1
  50
15
  71
0
  3
isocp.shx
  0
ENDTAB
  0
TABLE
  2
LAYER
  70
1
  0
LAYER
  2
BLACK
  70
0
  62
7
  6
CONTINUOUS
  0
ENDTAB
  0
ENDSEC
  0
SECTION
  2
ENTITIES
0
LINE
8
BLACK
6
CONTINUOUS
10
0.0300591
20
1.57362
11
0.0301498
21
1.57421
0
LINE
8
BLACK
6
CONTINUOUS
10
0.0301498
20
1.57421
11
0.0301498
21
1.57421
0
LINE
8
BLACK
6
CONTINUOUS
10
0.0301498
20
1.57421
11
0.0302042
21
1.57456
0
LINE
8
BLACK
6
CONTINUOUS
10
0.0302042
20
1.57456
11
0.0300854
21
1.57546
0
LINE
8
BLACK
6
CONTINUOUS
10
0.0300854
20
1.57546
11
0.0300459
21
1.57626
0
LINE
8
BLACK
6
CONTINUOUS
10
0.0300459
20
1.57626
11
0.0307325
21
1.59811
0
LINE
8
BLACK
6
CONTINUOUS
10
0.0307325
20
1.59811
11
0.0307521
21
1.59842
0
LINE
8
BLACK
6
CONTINUOUS
10
0.0307521
20
1.59842
11
0.0326554
21
1.61856
0
LINE
8
BLACK
6
CONTINUOUS
10
0.0326554
20
1.61856
11
0.0329321
21
1.62149
0
LINE
8
BLACK
6
CONTINUOUS
10
0.0329321
20
1.62149
11
0.0329711
21
1.62179
0
LINE
8
BLACK
6
CONTINUOUS
10
0.0329711
20
1.62179
11
0.0357556
21
1.63937
0
LINE
8
BLACK
6
CONTINUOUS
10
0.0357556
20
1.63937
11
0.0365949
21
1.64467
0
LINE
8
BLACK
6
CONTINUOUS
10
0.0365949
20
1.64467
11
0.0366533
21
1.64498
0
LINE
8
BLACK
6
CONTINUOUS
10
0.0366533
20
1.64498
11
0.0417066
21
1.66759
0
LINE
8
BLACK
6
CONTINUOUS
10
0.0417066
20
1.66759
11
0.0417841
21
1.66789
0
LINE
8
BLACK
6
CONTINUOUS
10
0.0417841
20
1.66789
11
0.0482467
21
1.69013
0
LINE
8
BLACK
6
CONTINUOUS
10
0.0482467
20
1.69013
11
0.048343
21
1.69043
0
LINE
8
BLACK
6
CONTINUOUS
10
0.048343
20
1.69043
11
0.0510456
21
1.69794
0
LINE
8
BLACK
6
CONTINUOUS
10
0.0510456
20
1.69794
11
0.05619
21
1.71223
0
LINE
8
BLACK
6
CONTINUOUS
10
0.05619
20
1.71223
11
0.0563042
21
1.71251
0
LINE
8
BLACK
6
CONTINUOUS
10
0.0563042
20
1.71251
11
0.0655045
21
1.73377
0
LINE
8
BLACK
6
CONTINUOUS
10
0.0655045
20
1.73377
11
0.0656366
21
1.73406
0
LINE
8
BLACK
6
CONTINUOUS
10
0.0656366
20
1.73406
11
0.0758976
21
1.75419
0
LINE
8
BLACK
6
CONTINUOUS
10
0.0758976
20
1.75419
11
0.0761535
21
1.7547
0
LINE
8
BLACK
6
CONTINUOUS
10
0.0761535
20
1.7547
11
0.0763036
21
1.75497
0
LINE
8
BLACK
6
CONTINUOUS
10
0.0763036
20
1.75497
11
0.0880956
21
1.77491
0
LINE
8
BLACK
6
CONTINUOUS
10
0.0880956
20
1.77491
11
0.0882626
21
1.77517
0
LINE
8
BLACK
6
CONTINUOUS
10
0.0882626
20
1.77517
11
0.101283
21
1.79433
0
LINE
8
BLACK
6
CONTINUOUS
10
0.101283
20
1.79433
11
0.101466
21
1.79458
0
LINE
8
BLACK
6
CONTINUOUS
10
0.101466
20
1.79458
11
0.115664
21
1.81289
0
LINE
8
BLACK
6
CONTINUOUS
10
0.115664
20
1.81289
11
0.115862
21
1.81313
0
LINE
8
BLACK
6
CONTINUOUS
10
0.115862
20
1.81313
11
0.131182
21
1.8305
0
LINE
8
BLACK
6
CONTINUOUS
10
0.131182
20
1.8305
11
0.131395
21
1.83073
0
LINE
8
BLACK
6
CONTINUOUS
10
0.131395
20
1.83073
11
0.147775
21
1.84711
0
LINE
8
BLACK
6
CONTINUOUS
10
0.147775
20
1.84711
11
0.148002
21
1.84732
0
LINE
8
BLACK
6
CONTINUOUS
10
0.148002
20
1.84732
11
0.165378
21
1.86264
0
LINE
8
BLACK
6
CONTINUOUS
10
0.165378
20
1.86264
11
0.165618
21
1.86284
0
LINE
8
BLACK
6
CONTINUOUS
10
0.165618
20
1.86284
11
0.183922
21
1.87704
0
LINE
8
BLACK
6
CONTINUOUS
10
0.183922
20
1.87704
11
0.184174
21
1.87722
0
LINE
8
BLACK
6
CONTINUOUS
10
0.184174
20
1.87722
11
0.203333
21
1.89024
0
LINE
8
BLACK
6
CONTINUOUS
10
0.203333
20
1.89024
11
0.203596
21
1.89041
0
LINE
8
BLACK
6
CONTINUOUS
10
0.203596
20
1.89041
11
0.223535
21
1.9022
0
LINE
8
BLACK
6
CONTINUOUS
10
0.223535
20
1.9022
11
0.223808
21
1.90235
0
LINE
8
BLACK
6
CONTINUOUS
10
0.223808
20
1.90235
11
0.227269
21
1.90411
0
LINE
8
BLACK
6
CONTINUOUS
10
0.227269
20
1.90411
11
0.244449
21
1.91287
0
LINE
8
BLACK
6
CONTINUOUS
10
0.244449
20
1.91287
11
0.244729
21
1.913
0
LINE
8
BLACK
6
CONTINUOUS
10
0.244729
20
1.913
11
0.26599
21
1.9222
0
LINE
8
BLACK
6
CONTINUOUS
10
0.26599
20
1.9222
11
0.266278
21
1.92231
0
LINE
8
BLACK
6
CONTINUOUS
10
0.266278
20
1.92231
11
0.288075
21
1.93016
0
LINE
8
BLACK
6
CONTINUOUS
10
0.288075
20
1.93016
11
0.28837
21
1.93026
0
LINE
8
BLACK
6
CONTINUOUS
10
0.28837
20
1.93026
11
0.299964
21
1.93363
0
LINE
8
BLACK
6
CONTINUOUS
10
0.299964
20
1.93363
11
0.310615
21
1.93672
0
LINE
8
BLACK
6
CONTINUOUS
10
0.310615
20
1.93672
11
0.310917
21
1.9368
0
LINE
8
BLACK
6
CONTINUOUS
10
0.310917
20
1.9368
11
0.333524
21
1.94185
0
LINE
8
BLACK
6
CONTINUOUS
10
0.333524
20
1.94185
11
0.33383
21
1.94191
0
LINE
8
BLACK
6
CONTINUOUS
10
0.33383
20
1.94191
11
0.35671
21
1.94553
0
LINE
8
BLACK
6
CONTINUOUS
10
0.35671
20
1.94553
11
0.357019
21
1.94557
0
LINE
8
BLACK
6
CONTINUOUS
10
0.357019
20
1.94557
11
0.366865
21
1.9465
0
LINE
8
BLACK
6
CONTINUOUS
10
0.366865
20
1.9465
11
0.380081
21
1.94775
0
LINE
8
BLACK
6
CONTINUOUS
10
0.380081
20
1.94775
11
0.380392
21
1.94777
0
LINE
8
BLACK
6
CONTINUOUS
10
0.380392
20
1.94777
11
0.401942
21
1.94845
0
LINE
8
BLACK
6
CONTINUOUS
10
0.401942
20
1.94845
11
0.402861
21
1.94839
0
LINE
8
BLACK
6
CONTINUOUS
10
0.402861
20
1.94839
11
0.403008
21
1.94837
0
LINE
8
BLACK
6
CONTINUOUS
10
0.403008
20
1.94837
11
0.403454
21
1.9483
0
LINE
8
BLACK
6
CONTINUOUS
10
0.403454
20
1.9483
11
0.403804
21
1.94835
0
LINE
8
BLACK
6
CONTINUOUS
10
0.403804
20
1.94835
11
0.403805
21
1.94835
0
LINE
8
BLACK
6
CONTINUOUS
10
0.403805
20
1.94835
11
0.404695
21
1.94846
0
LINE
8
BLACK
6
CONTINUOUS
10
0.404695
20
1.94846
11
0.405338
21
1.9485
0
LINE
8
BLACK
6
CONTINUOUS
10
0.405338
20
1.9485
11
1.99436
21
1.9485
0
LINE
8
BLACK
6
CONTINUOUS
10
1.99436
20
1.9485
11
1.99512
21
1.94844
0
LINE
8
BLACK
6
CONTINUOUS
10
1.99512
20
1.94844
11
1.9957
21
1.94835
0
LINE
8
BLACK
6
CONTINUOUS
10
1.9957
20
1.94835
11
1.9957
21
1.94835
0
LINE
8
BLACK
6
CONTINUOUS
10
1.9957
20
1.94835
11
1.99605
21
1.9483
0
LINE
8
BLACK
6
CONTINUOUS
10
1.99605
20
1.9483
11
1.9964
21
1.94835
0
LINE
8
BLACK
6
CONTINUOUS
10
1.9964
20
1.94835
11
1.9964
21
1.94835
0
LINE
8
BLACK
6
CONTINUOUS
10
1.9964
20
1.94835
11
1.99677
21
1.94839
0
LINE
8
BLACK
6
CONTINUOUS
10
1.99677
20
1.94839
11
1.99696
21
1.94842
0
LINE
8
BLACK
6
CONTINUOUS
10
1.99696
20
1.94842
11
1.99776
21
1.94846
0
LINE
8
BLACK
6
CONTINUOUS
10
1.99776
20
1.94846
11
2.00106
21
1.94835
0
LINE
8
BLACK
6
CONTINUOUS
10
2.00106
20
1.94835
11
2.01961
21
1.94777
0
LINE
8
BLACK
6
CONTINUOUS
10
2.01961
20
1.94777
11
2.01992
21
1.94775
0
LINE
8
BLACK
6
CONTINUOUS
10
2.01992
20
1.94775
11
2.03313
21
1.9465
0
LINE
8
BLACK
6
CONTINUOUS
10
2.03313
20
1.9465
11
2.04298
21
1.94557
0
LINE
8
BLACK
6
CONTINUOUS
10
2.04298
20
1.94557
11
2.04329
21
1.94553
0
LINE
8
BLACK
6
CONTINUOUS
10
2.04329
20
1.94553
11
2.06617
21
1.94191
0
LINE
8
BLACK
6
CONTINUOUS
10
2.06617
20
1.94191
11
2.06648
21
1.94185
0
LINE
8
BLACK
6
CONTINUOUS
10
2.06648
20
1.94185
11
2.08908
21
1.9368
0
LINE
8
BLACK
6
CONTINUOUS
10
2.08908
20
1.9368
11
2.08938
21
1.93672
0
LINE
8
BLACK
6
CONTINUOUS
10
2.08938
20
1.93672
11
2.10004
21
1.93363
0
LINE
8
BLACK
6
CONTINUOUS
10
2.10004
20
1.93363
11
2.11163
21
1.93026
0
LINE
8
BLACK
6
CONTINUOUS
10
2.11163
20
1.93026
11
2.11193
21
1.93016
0
LINE
8
BLACK
6
CONTINUOUS
10
2.11193
20
1.93016
11
2.13372
21
1.92231
0
LINE
8
BLACK
6
CONTINUOUS
10
2.13372
20
1.92231
11
2.13401
21
1.9222
0
LINE
8
BLACK
6
CONTINUOUS
10
2.13401
20
1.9222
11
2.15527
21
1.913
0
LINE
8
BLACK
6
CONTINUOUS
10
2.15527
20
1.913
11
2.15555
21
1.91287
0
LINE
8
BLACK
6
CONTINUOUS
10
2.15555
20
1.91287
11
2.17273
21
1.90411
0
LINE
8
BLACK
6
CONTINUOUS
10
2.17273
20
1.90411
11
2.17619
21
1.90235
0
LINE
8
BLACK
6
CONTINUOUS
10
2.17619
20
1.90235
11
2.17647
21
1.9022
0
LINE
8
BLACK
6
CONTINUOUS
10
2.17647
20
1.9022
11
2.1964
21
1.89041
0
LINE
8
BLACK
6
CONTINUOUS
10
2.1964
20
1.89041
11
2.19667
21
1.89024
0
LINE
8
BLACK
6
CONTINUOUS
10
2.19667
20
1.89024
11
2.21583
21
1.87722
0
LINE
8
BLACK
6
CONTINUOUS
10
2.21583
20
1.87722
11
2.21608
21
1.87704
0
LINE
8
BLACK
6
CONTINUOUS
10
2.21608
20
1.87704
11
2.23438
21
1.86284
0
LINE
8
BLACK
6
CONTINUOUS
10
2.23438
20
1.86284
11
2.23462
21
1.86264
0
LINE
8
BLACK
6
CONTINUOUS
10
2.23462
20
1.86264
11
2.252
21
1.84732
0
LINE
8
BLACK
6
CONTINUOUS
10
2.252
20
1.84732
11
2.25223
21
1.84711
0
LINE
8
BLACK
6
CONTINUOUS
10
2.25223
20
1.84711
11
2.2686
21
1.83073
0
LINE
8
BLACK
6
CONTINUOUS
10
2.2686
20
1.83073
11
2.26882
21
1.8305
0
LINE
8
BLACK
6
CONTINUOUS
10
2.26882
20
1.8305
11
2.28414
21
1.81313
0
LINE
8
BLACK
6
CONTINUOUS
10
2.28414
20
1.81313
11
2.28434
21
1.81289
0
LINE
8
BLACK
6
CONTINUOUS
10
2.28434
20
1.81289
11
2.29853
21
1.79458
0
LINE
8
BLACK
6
CONTINUOUS
10
2.29853
20
1.79458
11
2.29872
21
1.79433
0
LINE
8
BLACK
6
CONTINUOUS
10
2.29872
20
1.79433
11
2.31174
21
1.77517
0
LINE
8
BLACK
6
CONTINUOUS
10
2.31174
20
1.77517
11
2.3119
21
1.77491
0
LINE
8
BLACK
6
CONTINUOUS
10
2.3119
20
1.77491
11
2.3237
21
1.75497
0
LINE
8
BLACK
6
CONTINUOUS
10
2.3237
20
1.75497
11
2.32385
21
1.7547
0
LINE
8
BLACK
6
CONTINUOUS
10
2.32385
20
1.7547
11
2.3241
21
1.75419
0
LINE
8
BLACK
6
CONTINUOUS
10
2.3241
20
1.75419
11
2.33436
21
1.73406
0
LINE
8
BLACK
6
CONTINUOUS
10
2.33436
20
1.73406
11
2.3345
21
1.73377
0
LINE
8
BLACK
6
CONTINUOUS
10
2.3345
20
1.73377
11
2.3437
21
1.71251
0
LINE
8
BLACK
6
CONTINUOUS
10
2.3437
20
1.71251
11
2.34381
21
1.71223
0
LINE
8
BLACK
6
CONTINUOUS
10
2.34381
20
1.71223
11
2.34895
21
1.69794
0
LINE
8
BLACK
6
CONTINUOUS
10
2.34895
20
1.69794
11
2.35166
21
1.69043
0
LINE
8
BLACK
6
CONTINUOUS
10
2.35166
20
1.69043
11
2.35175
21
1.69013
0
LINE
8
BLACK
6
CONTINUOUS
10
2.35175
20
1.69013
11
2.35822
21
1.66789
0
LINE
8
BLACK
6
CONTINUOUS
10
2.35822
20
1.66789
11
2.35829
21
1.66759
0
LINE
8
BLACK
6
CONTINUOUS
10
2.35829
20
1.66759
11
2.36335
21
1.64498
0
LINE
8
BLACK
6
CONTINUOUS
10
2.36335
20
1.64498
11
2.36341
21
1.64467
0
LINE
8
BLACK
6
CONTINUOUS
10
2.36341
20
1.64467
11
2.36424
21
1.63937
0
LINE
8
BLACK
6
CONTINUOUS
10
2.36424
20
1.63937
11
2.36703
21
1.62179
0
LINE
8
BLACK
6
CONTINUOUS
10
2.36703
20
1.62179
11
2.36707
21
1.62149
0
LINE
8
BLACK
6
CONTINUOUS
10
2.36707
20
1.62149
11
2.36734
21
1.61856
0
LINE
8
BLACK
6
CONTINUOUS
10
2.36734
20
1.61856
11
2.36925
21
1.59842
0
LINE
8
BLACK
6
CONTINUOUS
10
2.36925
20
1.59842
11
2.36927
21
1.59811
0
LINE
8
BLACK
6
CONTINUOUS
10
2.36927
20
1.59811
11
2.36994
21
1.57656
0
LINE
8
BLACK
6
CONTINUOUS
10
2.36994
20
1.57656
11
2.36989
21
1.57564
0
LINE
8
BLACK
6
CONTINUOUS
10
2.36989
20
1.57564
11
2.3698
21
1.57505
0
LINE
8
BLACK
6
CONTINUOUS
10
2.3698
20
1.57505
11
2.36984
21
1.5747
0
LINE
8
BLACK
6
CONTINUOUS
10
2.36984
20
1.5747
11
2.36984
21
1.5747
0
LINE
8
BLACK
6
CONTINUOUS
10
2.36984
20
1.5747
11
2.36996
21
1.57381
0
LINE
8
BLACK
6
CONTINUOUS
10
2.36996
20
1.57381
11
2.37
21
1.57317
0
LINE
8
BLACK
6
CONTINUOUS
10
2.37
20
1.57317
11
2.37
21
0.0349606
0
LINE
8
BLACK
6
CONTINUOUS
10
2.37
20
0.0349606
11
2.36921
21
0.0322787
0
LINE
8
BLACK
6
CONTINUOUS
10
2.36921
20
0.0322787
11
2.3671
21
0.0304483
0
LINE
8
BLACK
6
CONTINUOUS
10
2.3671
20
0.0304483
11
2.36504
21
0.03
0
LINE
8
BLACK
6
CONTINUOUS
10
2.36504
20
0.03
11
0.0349606
21
0.03
0
LINE
8
BLACK
6
CONTINUOUS
10
0.0349606
20
0.03
11
0.0322787
21
0.0307875
0
LINE
8
BLACK
6
CONTINUOUS
10
0.0322787
20
0.0307875
11
0.0304483
21
0.0328999
0
LINE
8
BLACK
6
CONTINUOUS
10
0.0304483
20
0.0328999
11
0.03
21
0.0349606
0
LINE
8
BLACK
6
CONTINUOUS
10
0.03
20
0.0349606
11
0.03
21
1.57286
0
LINE
8
BLACK
6
CONTINUOUS
10
0.03
20
1.57286
11
0.0300591
21
1.57362
0
LINE
8
BLACK
6
CONTINUOUS
10
0.389695
20
0.560096
11
0.393608
21
0.535391
0
LINE
8
BLACK
6
CONTINUOUS
10
0.393608
20
0.535391
11
0.399065
21
0.510979
0
LINE
8
BLACK
6
CONTINUOUS
10
0.399065
20
0.510979
11
0.406043
21
0.486959
0
LINE
8
BLACK
6
CONTINUOUS
10
0.406043
20
0.486959
11
0.406069
21
0.486887
0
LINE
8
BLACK
6
CONTINUOUS
10
0.406069
20
0.486887
11
0.40607
21
0.486886
0
LINE
8
BLACK
6
CONTINUOUS
10
0.40607
20
0.486886
11
0.41449
21
0.463497
0
LINE
8
BLACK
6
CONTINUOUS
10
0.41449
20
0.463497
11
0.414516
21
0.463424
0
LINE
8
BLACK
6
CONTINUOUS
10
0.414516
20
0.463424
11
0.42445
21
0.440468
0
LINE
8
BLACK
6
CONTINUOUS
10
0.42445
20
0.440468
11
0.435806
21
0.418181
0
LINE
8
BLACK
6
CONTINUOUS
10
0.435806
20
0.418181
11
0.448539
21
0.39665
0
LINE
8
BLACK
6
CONTINUOUS
10
0.448539
20
0.39665
11
0.462599
21
0.375962
0
LINE
8
BLACK
6
CONTINUOUS
10
0.462599
20
0.375962
11
0.47793
21
0.356198
0
LINE
8
BLACK
6
CONTINUOUS
10
0.47793
20
0.356198
11
0.494472
21
0.337435
0
LINE
8
BLACK
6
CONTINUOUS
10
0.494472
20
0.337435
11
0.512159
21
0.319747
0
LINE
8
BLACK
6
CONTINUOUS
10
0.512159
20
0.319747
11
0.530922
21
0.303206
0
LINE
8
BLACK
6
CONTINUOUS
10
0.530922
20
0.303206
11
0.550687
21
0.287875
0
LINE
8
BLACK
6
CONTINUOUS
10
0.550687
20
0.287875
11
0.571375
21
0.273815
0
LINE
8
BLACK
6
CONTINUOUS
10
0.571375
20
0.273815
11
0.592905
21
0.261082
0
LINE
8
BLACK
6
CONTINUOUS
10
0.592905
20
0.261082
11
0.615192
21
0.249726
0
LINE
8
BLACK
6
CONTINUOUS
10
0.615192
20
0.249726
11
0.638149
21
0.239792
0
LINE
8
BLACK
6
CONTINUOUS
10
0.638149
20
0.239792
11
0.638222
21
0.239766
0
LINE
8
BLACK
6
CONTINUOUS
10
0.638222
20
0.239766
11
0.638222
21
0.239766
0
LINE
8
BLACK
6
CONTINUOUS
10
0.638222
20
0.239766
11
0.66161
21
0.231345
0
LINE
8
BLACK
6
CONTINUOUS
10
0.66161
20
0.231345
11
0.661611
21
0.231345
0
LINE
8
BLACK
6
CONTINUOUS
10
0.661611
20
0.231345
11
0.661683
21
0.231319
0
LINE
8
BLACK
6
CONTINUOUS
10
0.661683
20
0.231319
11
0.661758
21
0.231297
0
LINE
8
BLACK
6
CONTINUOUS
10
0.661758
20
0.231297
11
0.661758
21
0.231297
0
LINE
8
BLACK
6
CONTINUOUS
10
0.661758
20
0.231297
11
0.685629
21
0.224362
0
LINE
8
BLACK
6
CONTINUOUS
10
0.685629
20
0.224362
11
0.685704
21
0.22434
0
LINE
8
BLACK
6
CONTINUOUS
10
0.685704
20
0.22434
11
0.685779
21
0.224323
0
LINE
8
BLACK
6
CONTINUOUS
10
0.685779
20
0.224323
11
0.68578
21
0.224323
0
LINE
8
BLACK
6
CONTINUOUS
10
0.68578
20
0.224323
11
0.697909
21
0.221612
0
LINE
8
BLACK
6
CONTINUOUS
10
0.697909
20
0.221612
11
0.710115
21
0.218884
0
LINE
8
BLACK
6
CONTINUOUS
10
0.710115
20
0.218884
11
0.710192
21
0.218872
0
LINE
8
BLACK
6
CONTINUOUS
10
0.710192
20
0.218872
11
0.710192
21
0.218872
0
LINE
8
BLACK
6
CONTINUOUS
10
0.710192
20
0.218872
11
0.734744
21
0.214983
0
LINE
8
BLACK
6
CONTINUOUS
10
0.734744
20
0.214983
11
0.734744
21
0.214983
0
LINE
8
BLACK
6
CONTINUOUS
10
0.734744
20
0.214983
11
0.734821
21
0.214971
0
LINE
8
BLACK
6
CONTINUOUS
10
0.734821
20
0.214971
11
0.734898
21
0.214963
0
LINE
8
BLACK
6
CONTINUOUS
10
0.734898
20
0.214963
11
0.734898
21
0.214963
0
LINE
8
BLACK
6
CONTINUOUS
10
0.734898
20
0.214963
11
0.759646
21
0.212624
0
LINE
8
BLACK
6
CONTINUOUS
10
0.759646
20
0.212624
11
0.759647
21
0.212624
0
LINE
8
BLACK
6
CONTINUOUS
10
0.759647
20
0.212624
11
0.759723
21
0.212617
0
LINE
8
BLACK
6
CONTINUOUS
10
0.759723
20
0.212617
11
0.7598
21
0.212614
0
LINE
8
BLACK
6
CONTINUOUS
10
0.7598
20
0.212614
11
0.7598
21
0.212614
0
LINE
8
BLACK
6
CONTINUOUS
10
0.7598
20
0.212614
11
0.770973
21
0.212263
0
LINE
8
BLACK
6
CONTINUOUS
10
0.770973
20
0.212263
11
0.778473
21
0.212028
0
LINE
8
BLACK
6
CONTINUOUS
10
0.778473
20
0.212028
11
0.790976
21
0.212028
0
LINE
8
BLACK
6
CONTINUOUS
10
0.790976
20
0.212028
11
0.798475
21
0.212263
0
LINE
8
BLACK
6
CONTINUOUS
10
0.798475
20
0.212263
11
0.809649
21
0.212614
0
LINE
8
BLACK
6
CONTINUOUS
10
0.809649
20
0.212614
11
0.809649
21
0.212614
0
LINE
8
BLACK
6
CONTINUOUS
10
0.809649
20
0.212614
11
0.809726
21
0.212617
0
LINE
8
BLACK
6
CONTINUOUS
10
0.809726
20
0.212617
11
0.809802
21
0.212624
0
LINE
8
BLACK
6
CONTINUOUS
10
0.809802
20
0.212624
11
0.809802
21
0.212624
0
LINE
8
BLACK
6
CONTINUOUS
10
0.809802
20
0.212624
11
0.83455
21
0.214963
0
LINE
8
BLACK
6
CONTINUOUS
10
0.83455
20
0.214963
11
0.834551
21
0.214963
0
LINE
8
BLACK
6
CONTINUOUS
10
0.834551
20
0.214963
11
0.834628
21
0.214971
0
LINE
8
BLACK
6
CONTINUOUS
10
0.834628
20
0.214971
11
0.834705
21
0.214983
0
LINE
8
BLACK
6
CONTINUOUS
10
0.834705
20
0.214983
11
0.834705
21
0.214983
0
LINE
8
BLACK
6
CONTINUOUS
10
0.834705
20
0.214983
11
0.859257
21
0.218872
0
LINE
8
BLACK
6
CONTINUOUS
10
0.859257
20
0.218872
11
0.859257
21
0.218872
0
LINE
8
BLACK
6
CONTINUOUS
10
0.859257
20
0.218872
11
0.859334
21
0.218884
0
LINE
8
BLACK
6
CONTINUOUS
10
0.859334
20
0.218884
11
0.871539
21
0.221612
0
LINE
8
BLACK
6
CONTINUOUS
10
0.871539
20
0.221612
11
0.883669
21
0.224323
0
LINE
8
BLACK
6
CONTINUOUS
10
0.883669
20
0.224323
11
0.883669
21
0.224323
0
LINE
8
BLACK
6
CONTINUOUS
10
0.883669
20
0.224323
11
0.883745
21
0.22434
0
LINE
8
BLACK
6
CONTINUOUS
10
0.883745
20
0.22434
11
0.88382
21
0.224362
0
LINE
8
BLACK
6
CONTINUOUS
10
0.88382
20
0.224362
11
0.907691
21
0.231297
0
LINE
8
BLACK
6
CONTINUOUS
10
0.907691
20
0.231297
11
0.907691
21
0.231297
0
LINE
8
BLACK
6
CONTINUOUS
10
0.907691
20
0.231297
11
0.907765
21
0.231319
0
LINE
8
BLACK
6
CONTINUOUS
10
0.907765
20
0.231319
11
0.907838
21
0.231345
0
LINE
8
BLACK
6
CONTINUOUS
10
0.907838
20
0.231345
11
0.907838
21
0.231345
0
LINE
8
BLACK
6
CONTINUOUS
10
0.907838
20
0.231345
11
0.931227
21
0.239766
0
LINE
8
BLACK
6
CONTINUOUS
10
0.931227
20
0.239766
11
0.931227
21
0.239766
0
LINE
8
BLACK
6
CONTINUOUS
10
0.931227
20
0.239766
11
0.9313
21
0.239792
0
LINE
8
BLACK
6
CONTINUOUS
10
0.9313
20
0.239792
11
0.954256
21
0.249726
0
LINE
8
BLACK
6
CONTINUOUS
10
0.954256
20
0.249726
11
0.976544
21
0.261082
0
LINE
8
BLACK
6
CONTINUOUS
10
0.976544
20
0.261082
11
0.998074
21
0.273815
0
LINE
8
BLACK
6
CONTINUOUS
10
0.998074
20
0.273815
11
1.01876
21
0.287875
0
LINE
8
BLACK
6
CONTINUOUS
10
1.01876
20
0.287875
11
1.03853
21
0.303206
0
LINE
8
BLACK
6
CONTINUOUS
10
1.03853
20
0.303206
11
1.05729
21
0.319747
0
LINE
8
BLACK
6
CONTINUOUS
10
1.05729
20
0.319747
11
1.07498
21
0.337435
0
LINE
8
BLACK
6
CONTINUOUS
10
1.07498
20
0.337435
11
1.09152
21
0.356198
0
LINE
8
BLACK
6
CONTINUOUS
10
1.09152
20
0.356198
11
1.10685
21
0.375962
0
LINE
8
BLACK
6
CONTINUOUS
10
1.10685
20
0.375962
11
1.12091
21
0.39665
0
LINE
8
BLACK
6
CONTINUOUS
10
1.12091
20
0.39665
11
1.13364
21
0.418181
0
LINE
8
BLACK
6
CONTINUOUS
10
1.13364
20
0.418181
11
1.145
21
0.440468
0
LINE
8
BLACK
6
CONTINUOUS
10
1.145
20
0.440468
11
1.15493
21
0.463424
0
LINE
8
BLACK
6
CONTINUOUS
10
1.15493
20
0.463424
11
1.15496
21
0.463497
0
LINE
8
BLACK
6
CONTINUOUS
10
1.15496
20
0.463497
11
1.16338
21
0.486886
0
LINE
8
BLACK
6
CONTINUOUS
10
1.16338
20
0.486886
11
1.16338
21
0.486887
0
LINE
8
BLACK
6
CONTINUOUS
10
1.16338
20
0.486887
11
1.16341
21
0.486959
0
LINE
8
BLACK
6
CONTINUOUS
10
1.16341
20
0.486959
11
1.17038
21
0.510979
0
LINE
8
BLACK
6
CONTINUOUS
10
1.17038
20
0.510979
11
1.17584
21
0.535391
0
LINE
8
BLACK
6
CONTINUOUS
10
1.17584
20
0.535391
11
1.17746
21
0.545632
0
LINE
8
BLACK
6
CONTINUOUS
10
1.17746
20
0.545632
11
1.17866
21
0.548157
0
LINE
8
BLACK
6
CONTINUOUS
10
1.17866
20
0.548157
11
1.18103
21
0.549635
0
LINE
8
BLACK
6
CONTINUOUS
10
1.18103
20
0.549635
11
1.18383
21
0.549595
0
LINE
8
BLACK
6
CONTINUOUS
10
1.18383
20
0.549595
11
1.18616
21
0.54805
0
LINE
8
BLACK
6
CONTINUOUS
10
1.18616
20
0.54805
11
1.18726
21
0.545632
0
LINE
8
BLACK
6
CONTINUOUS
10
1.18726
20
0.545632
11
1.18888
21
0.535391
0
LINE
8
BLACK
6
CONTINUOUS
10
1.18888
20
0.535391
11
1.19434
21
0.510979
0
LINE
8
BLACK
6
CONTINUOUS
10
1.19434
20
0.510979
11
1.20132
21
0.486959
0
LINE
8
BLACK
6
CONTINUOUS
10
1.20132
20
0.486959
11
1.20134
21
0.486887
0
LINE
8
BLACK
6
CONTINUOUS
10
1.20134
20
0.486887
11
1.20135
21
0.486886
0
LINE
8
BLACK
6
CONTINUOUS
10
1.20135
20
0.486886
11
1.20977
21
0.463497
0
LINE
8
BLACK
6
CONTINUOUS
10
1.20977
20
0.463497
11
1.20979
21
0.463424
0
LINE
8
BLACK
6
CONTINUOUS
10
1.20979
20
0.463424
11
1.21973
21
0.440468
0
LINE
8
BLACK
6
CONTINUOUS
10
1.21973
20
0.440468
11
1.23108
21
0.418181
0
LINE
8
BLACK
6
CONTINUOUS
10
1.23108
20
0.418181
11
1.24381
21
0.39665
0
LINE
8
BLACK
6
CONTINUOUS
10
1.24381
20
0.39665
11
1.25787
21
0.375962
0
LINE
8
BLACK
6
CONTINUOUS
10
1.25787
20
0.375962
11
1.27321
21
0.356198
0
LINE
8
BLACK
6
CONTINUOUS
10
1.27321
20
0.356198
11
1.28975
21
0.337435
0
LINE
8
BLACK
6
CONTINUOUS
10
1.28975
20
0.337435
11
1.30743
21
0.319747
0
LINE
8
BLACK
6
CONTINUOUS
10
1.30743
20
0.319747
11
1.3262
21
0.303206
0
LINE
8
BLACK
6
CONTINUOUS
10
1.3262
20
0.303206
11
1.34596
21
0.287875
0
LINE
8
BLACK
6
CONTINUOUS
10
1.34596
20
0.287875
11
1.36665
21
0.273815
0
LINE
8
BLACK
6
CONTINUOUS
10
1.36665
20
0.273815
11
1.38818
21
0.261082
0
LINE
8
BLACK
6
CONTINUOUS
10
1.38818
20
0.261082
11
1.41047
21
0.249726
0
LINE
8
BLACK
6
CONTINUOUS
10
1.41047
20
0.249726
11
1.43342
21
0.239792
0
LINE
8
BLACK
6
CONTINUOUS
10
1.43342
20
0.239792
11
1.4335
21
0.239766
0
LINE
8
BLACK
6
CONTINUOUS
10
1.4335
20
0.239766
11
1.4335
21
0.239766
0
LINE
8
BLACK
6
CONTINUOUS
10
1.4335
20
0.239766
11
1.45689
21
0.231345
0
LINE
8
BLACK
6
CONTINUOUS
10
1.45689
20
0.231345
11
1.45689
21
0.231345
0
LINE
8
BLACK
6
CONTINUOUS
10
1.45689
20
0.231345
11
1.45696
21
0.231319
0
LINE
8
BLACK
6
CONTINUOUS
10
1.45696
20
0.231319
11
1.45703
21
0.231297
0
LINE
8
BLACK
6
CONTINUOUS
10
1.45703
20
0.231297
11
1.45703
21
0.231297
0
LINE
8
BLACK
6
CONTINUOUS
10
1.45703
20
0.231297
11
1.4809
21
0.224362
0
LINE
8
BLACK
6
CONTINUOUS
10
1.4809
20
0.224362
11
1.48098
21
0.22434
0
LINE
8
BLACK
6
CONTINUOUS
10
1.48098
20
0.22434
11
1.48106
21
0.224323
0
LINE
8
BLACK
6
CONTINUOUS
10
1.48106
20
0.224323
11
1.48106
21
0.224323
0
LINE
8
BLACK
6
CONTINUOUS
10
1.48106
20
0.224323
11
1.49318
21
0.221612
0
LINE
8
BLACK
6
CONTINUOUS
10
1.49318
20
0.221612
11
1.50539
21
0.218884
0
LINE
8
BLACK
6
CONTINUOUS
10
1.50539
20
0.218884
11
1.50547
21
0.218872
0
LINE
8
BLACK
6
CONTINUOUS
10
1.50547
20
0.218872
11
1.50547
21
0.218872
0
LINE
8
BLACK
6
CONTINUOUS
10
1.50547
20
0.218872
11
1.53002
21
0.214983
0
LINE
8
BLACK
6
CONTINUOUS
10
1.53002
20
0.214983
11
1.53002
21
0.214983
0
LINE
8
BLACK
6
CONTINUOUS
10
1.53002
20
0.214983
11
1.5301
21
0.214971
0
LINE
8
BLACK
6
CONTINUOUS
10
1.5301
20
0.214971
11
1.53017
21
0.214963
0
LINE
8
BLACK
6
CONTINUOUS
10
1.53017
20
0.214963
11
1.53017
21
0.214963
0
LINE
8
BLACK
6
CONTINUOUS
10
1.53017
20
0.214963
11
1.55492
21
0.212624
0
LINE
8
BLACK
6
CONTINUOUS
10
1.55492
20
0.212624
11
1.55492
21
0.212624
0
LINE
8
BLACK
6
CONTINUOUS
10
1.55492
20
0.212624
11
1.555
21
0.212617
0
LINE
8
BLACK
6
CONTINUOUS
10
1.555
20
0.212617
11
1.55508
21
0.212614
0
LINE
8
BLACK
6
CONTINUOUS
10
1.55508
20
0.212614
11
1.55508
21
0.212614
0
LINE
8
BLACK
6
CONTINUOUS
10
1.55508
20
0.212614
11
1.56625
21
0.212263
0
LINE
8
BLACK
6
CONTINUOUS
10
1.56625
20
0.212263
11
1.57375
21
0.212028
0
LINE
8
BLACK
6
CONTINUOUS
10
1.57375
20
0.212028
11
1.58625
21
0.212028
0
LINE
8
BLACK
6
CONTINUOUS
10
1.58625
20
0.212028
11
1.59375
21
0.212263
0
LINE
8
BLACK
6
CONTINUOUS
10
1.59375
20
0.212263
11
1.60492
21
0.212614
0
LINE
8
BLACK
6
CONTINUOUS
10
1.60492
20
0.212614
11
1.60492
21
0.212614
0
LINE
8
BLACK
6
CONTINUOUS
10
1.60492
20
0.212614
11
1.605
21
0.212617
0
LINE
8
BLACK
6
CONTINUOUS
10
1.605
20
0.212617
11
1.60508
21
0.212624
0
LINE
8
BLACK
6
CONTINUOUS
10
1.60508
20
0.212624
11
1.60508
21
0.212624
0
LINE
8
BLACK
6
CONTINUOUS
10
1.60508
20
0.212624
11
1.62983
21
0.214963
0
LINE
8
BLACK
6
CONTINUOUS
10
1.62983
20
0.214963
11
1.62983
21
0.214963
0
LINE
8
BLACK
6
CONTINUOUS
10
1.62983
20
0.214963
11
1.6299
21
0.214971
0
LINE
8
BLACK
6
CONTINUOUS
10
1.6299
20
0.214971
11
1.62998
21
0.214983
0
LINE
8
BLACK
6
CONTINUOUS
10
1.62998
20
0.214983
11
1.62998
21
0.214983
0
LINE
8
BLACK
6
CONTINUOUS
10
1.62998
20
0.214983
11
1.65453
21
0.218872
0
LINE
8
BLACK
6
CONTINUOUS
10
1.65453
20
0.218872
11
1.65453
21
0.218872
0
LINE
8
BLACK
6
CONTINUOUS
10
1.65453
20
0.218872
11
1.65461
21
0.218884
0
LINE
8
BLACK
6
CONTINUOUS
10
1.65461
20
0.218884
11
1.66681
21
0.221612
0
LINE
8
BLACK
6
CONTINUOUS
10
1.66681
20
0.221612
11
1.67894
21
0.224323
0
LINE
8
BLACK
6
CONTINUOUS
10
1.67894
20
0.224323
11
1.67894
21
0.224323
0
LINE
8
BLACK
6
CONTINUOUS
10
1.67894
20
0.224323
11
1.67902
21
0.22434
0
LINE
8
BLACK
6
CONTINUOUS
10
1.67902
20
0.22434
11
1.6791
21
0.224362
0
LINE
8
BLACK
6
CONTINUOUS
10
1.6791
20
0.224362
11
1.70297
21
0.231297
0
LINE
8
BLACK
6
CONTINUOUS
10
1.70297
20
0.231297
11
1.70297
21
0.231297
0
LINE
8
BLACK
6
CONTINUOUS
10
1.70297
20
0.231297
11
1.70304
21
0.231319
0
LINE
8
BLACK
6
CONTINUOUS
10
1.70304
20
0.231319
11
1.70311
21
0.231345
0
LINE
8
BLACK
6
CONTINUOUS
10
1.70311
20
0.231345
11
1.70311
21
0.231345
0
LINE
8
BLACK
6
CONTINUOUS
10
1.70311
20
0.231345
11
1.7265
21
0.239766
0
LINE
8
BLACK
6
CONTINUOUS
10
1.7265
20
0.239766
11
1.7265
21
0.239766
0
LINE
8
BLACK
6
CONTINUOUS
10
1.7265
20
0.239766
11
1.72658
21
0.239792
0
LINE
8
BLACK
6
CONTINUOUS
10
1.72658
20
0.239792
11
1.74953
21
0.249726
0
LINE
8
BLACK
6
CONTINUOUS
10
1.74953
20
0.249726
11
1.77182
21
0.261082
0
LINE
8
BLACK
6
CONTINUOUS
10
1.77182
20
0.261082
11
1.79335
21
0.273815
0
LINE
8
BLACK
6
CONTINUOUS
10
1.79335
20
0.273815
11
1.81404
21
0.287875
0
LINE
8
BLACK
6
CONTINUOUS
10
1.81404
20
0.287875
11
1.8338
21
0.303206
0
LINE
8
BLACK
6
CONTINUOUS
10
1.8338
20
0.303206
11
1.85257
21
0.319747
0
LINE
8
BLACK
6
CONTINUOUS
10
1.85257
20
0.319747
11
1.87025
21
0.337435
0
LINE
8
BLACK
6
CONTINUOUS
10
1.87025
20
0.337435
11
1.88679
21
0.356198
0
LINE
8
BLACK
6
CONTINUOUS
10
1.88679
20
0.356198
11
1.90213
21
0.375962
0
LINE
8
BLACK
6
CONTINUOUS
10
1.90213
20
0.375962
11
1.91619
21
0.39665
0
LINE
8
BLACK
6
CONTINUOUS
10
1.91619
20
0.39665
11
1.92892
21
0.418181
0
LINE
8
BLACK
6
CONTINUOUS
10
1.92892
20
0.418181
11
1.94027
21
0.440468
0
LINE
8
BLACK
6
CONTINUOUS
10
1.94027
20
0.440468
11
1.95021
21
0.463424
0
LINE
8
BLACK
6
CONTINUOUS
10
1.95021
20
0.463424
11
1.95023
21
0.463497
0
LINE
8
BLACK
6
CONTINUOUS
10
1.95023
20
0.463497
11
1.95865
21
0.486886
0
LINE
8
BLACK
6
CONTINUOUS
10
1.95865
20
0.486886
11
1.95866
21
0.486887
0
LINE
8
BLACK
6
CONTINUOUS
10
1.95866
20
0.486887
11
1.95868
21
0.486959
0
LINE
8
BLACK
6
CONTINUOUS
10
1.95868
20
0.486959
11
1.96566
21
0.510979
0
LINE
8
BLACK
6
CONTINUOUS
10
1.96566
20
0.510979
11
1.97112
21
0.535391
0
LINE
8
BLACK
6
CONTINUOUS
10
1.97112
20
0.535391
11
1.97503
21
0.560096
0
LINE
8
BLACK
6
CONTINUOUS
10
1.97503
20
0.560096
11
1.97738
21
0.584999
0
LINE
8
BLACK
6
CONTINUOUS
10
1.97738
20
0.584999
11
1.97817
21
0.61
0
LINE
8
BLACK
6
CONTINUOUS
10
1.97817
20
0.61
11
1.97738
21
0.635001
0
LINE
8
BLACK
6
CONTINUOUS
10
1.97738
20
0.635001
11
1.97503
21
0.659904
0
LINE
8
BLACK
6
CONTINUOUS
10
1.97503
20
0.659904
11
1.97112
21
0.684609
0
LINE
8
BLACK
6
CONTINUOUS
10
1.97112
20
0.684609
11
1.96566
21
0.709021
0
LINE
8
BLACK
6
CONTINUOUS
10
1.96566
20
0.709021
11
1.95868
21
0.733041
0
LINE
8
BLACK
6
CONTINUOUS
10
1.95868
20
0.733041
11
1.95866
21
0.733113
0
LINE
8
BLACK
6
CONTINUOUS
10
1.95866
20
0.733113
11
1.95865
21
0.733114
0
LINE
8
BLACK
6
CONTINUOUS
10
1.95865
20
0.733114
11
1.95023
21
0.756503
0
LINE
8
BLACK
6
CONTINUOUS
10
1.95023
20
0.756503
11
1.95023
21
0.756503
0
LINE
8
BLACK
6
CONTINUOUS
10
1.95023
20
0.756503
11
1.95021
21
0.756576
0
LINE
8
BLACK
6
CONTINUOUS
10
1.95021
20
0.756576
11
1.94027
21
0.779532
0
LINE
8
BLACK
6
CONTINUOUS
10
1.94027
20
0.779532
11
1.92892
21
0.801819
0
LINE
8
BLACK
6
CONTINUOUS
10
1.92892
20
0.801819
11
1.91619
21
0.82335
0
LINE
8
BLACK
6
CONTINUOUS
10
1.91619
20
0.82335
11
1.90213
21
0.844038
0
LINE
8
BLACK
6
CONTINUOUS
10
1.90213
20
0.844038
11
1.88679
21
0.863802
0
LINE
8
BLACK
6
CONTINUOUS
10
1.88679
20
0.863802
11
1.87025
21
0.882565
0
LINE
8
BLACK
6
CONTINUOUS
10
1.87025
20
0.882565
11
1.85257
21
0.900253
0
LINE
8
BLACK
6
CONTINUOUS
10
1.85257
20
0.900253
11
1.8338
21
0.916794
0
LINE
8
BLACK
6
CONTINUOUS
10
1.8338
20
0.916794
11
1.81404
21
0.932125
0
LINE
8
BLACK
6
CONTINUOUS
10
1.81404
20
0.932125
11
1.79335
21
0.946185
0
LINE
8
BLACK
6
CONTINUOUS
10
1.79335
20
0.946185
11
1.77182
21
0.958918
0
LINE
8
BLACK
6
CONTINUOUS
10
1.77182
20
0.958918
11
1.74953
21
0.970274
0
LINE
8
BLACK
6
CONTINUOUS
10
1.74953
20
0.970274
11
1.72658
21
0.980208
0
LINE
8
BLACK
6
CONTINUOUS
10
1.72658
20
0.980208
11
1.7265
21
0.980234
0
LINE
8
BLACK
6
CONTINUOUS
10
1.7265
20
0.980234
11
1.70311
21
0.988655
0
LINE
8
BLACK
6
CONTINUOUS
10
1.70311
20
0.988655
11
1.70311
21
0.988655
0
LINE
8
BLACK
6
CONTINUOUS
10
1.70311
20
0.988655
11
1.70304
21
0.988681
0
LINE
8
BLACK
6
CONTINUOUS
10
1.70304
20
0.988681
11
1.70297
21
0.988703
0
LINE
8
BLACK
6
CONTINUOUS
10
1.70297
20
0.988703
11
1.70297
21
0.988703
0
LINE
8
BLACK
6
CONTINUOUS
10
1.70297
20
0.988703
11
1.6791
21
0.995638
0
LINE
8
BLACK
6
CONTINUOUS
10
1.6791
20
0.995638
11
1.6791
21
0.995638
0
LINE
8
BLACK
6
CONTINUOUS
10
1.6791
20
0.995638
11
1.67902
21
0.99566
0
LINE
8
BLACK
6
CONTINUOUS
10
1.67902
20
0.99566
11
1.67894
21
0.995677
0
LINE
8
BLACK
6
CONTINUOUS
10
1.67894
20
0.995677
11
1.67894
21
0.995677
0
LINE
8
BLACK
6
CONTINUOUS
10
1.67894
20
0.995677
11
1.66681
21
0.998388
0
LINE
8
BLACK
6
CONTINUOUS
10
1.66681
20
0.998388
11
1.65461
21
1.00112
0
LINE
8
BLACK
6
CONTINUOUS
10
1.65461
20
1.00112
11
1.64437
21
1.00274
0
LINE
8
BLACK
6
CONTINUOUS
10
1.64437
20
1.00274
11
1.64184
21
1.00394
0
LINE
8
BLACK
6
CONTINUOUS
10
1.64184
20
1.00394
11
1.64037
21
1.00631
0
LINE
8
BLACK
6
CONTINUOUS
10
1.64037
20
1.00631
11
1.64041
21
1.0091
0
LINE
8
BLACK
6
CONTINUOUS
10
1.64041
20
1.0091
11
1.64195
21
1.01143
0
LINE
8
BLACK
6
CONTINUOUS
10
1.64195
20
1.01143
11
1.64437
21
1.01254
0
LINE
8
BLACK
6
CONTINUOUS
10
1.64437
20
1.01254
11
1.65453
21
1.01415
0
LINE
8
BLACK
6
CONTINUOUS
10
1.65453
20
1.01415
11
1.65453
21
1.01415
0
LINE
8
BLACK
6
CONTINUOUS
10
1.65453
20
1.01415
11
1.65461
21
1.01416
0
LINE
8
BLACK
6
CONTINUOUS
10
1.65461
20
1.01416
11
1.66681
21
1.01689
0
LINE
8
BLACK
6
CONTINUOUS
10
1.66681
20
1.01689
11
1.67894
21
1.0196
0
LINE
8
BLACK
6
CONTINUOUS
10
1.67894
20
1.0196
11
1.67894
21
1.0196
0
LINE
8
BLACK
6
CONTINUOUS
10
1.67894
20
1.0196
11
1.67902
21
1.01962
0
LINE
8
BLACK
6
CONTINUOUS
10
1.67902
20
1.01962
11
1.6791
21
1.01964
0
LINE
8
BLACK
6
CONTINUOUS
10
1.6791
20
1.01964
11
1.70297
21
1.02657
0
LINE
8
BLACK
6
CONTINUOUS
10
1.70297
20
1.02657
11
1.70297
21
1.02657
0
LINE
8
BLACK
6
CONTINUOUS
10
1.70297
20
1.02657
11
1.70304
21
1.02659
0
LINE
8
BLACK
6
CONTINUOUS
10
1.70304
20
1.02659
11
1.70311
21
1.02662
0
LINE
8
BLACK
6
CONTINUOUS
10
1.70311
20
1.02662
11
1.70311
21
1.02662
0
LINE
8
BLACK
6
CONTINUOUS
10
1.70311
20
1.02662
11
1.7265
21
1.03504
0
LINE
8
BLACK
6
CONTINUOUS
10
1.7265
20
1.03504
11
1.7265
21
1.03504
0
LINE
8
BLACK
6
CONTINUOUS
10
1.7265
20
1.03504
11
1.72658
21
1.03507
0
LINE
8
BLACK
6
CONTINUOUS
10
1.72658
20
1.03507
11
1.74953
21
1.045
0
LINE
8
BLACK
6
CONTINUOUS
10
1.74953
20
1.045
11
1.77182
21
1.05636
0
LINE
8
BLACK
6
CONTINUOUS
10
1.77182
20
1.05636
11
1.79335
21
1.06909
0
LINE
8
BLACK
6
CONTINUOUS
10
1.79335
20
1.06909
11
1.81404
21
1.08315
0
LINE
8
BLACK
6
CONTINUOUS
10
1.81404
20
1.08315
11
1.8338
21
1.09848
0
LINE
8
BLACK
6
CONTINUOUS
10
1.8338
20
1.09848
11
1.85257
21
1.11502
0
LINE
8
BLACK
6
CONTINUOUS
10
1.85257
20
1.11502
11
1.87025
21
1.13271
0
LINE
8
BLACK
6
CONTINUOUS
10
1.87025
20
1.13271
11
1.88679
21
1.15147
0
LINE
8
BLACK
6
CONTINUOUS
10
1.88679
20
1.15147
11
1.90213
21
1.17124
0
LINE
8
BLACK
6
CONTINUOUS
10
1.90213
20
1.17124
11
1.91619
21
1.19193
0
LINE
8
BLACK
6
CONTINUOUS
10
1.91619
20
1.19193
11
1.92892
21
1.21346
0
LINE
8
BLACK
6
CONTINUOUS
10
1.92892
20
1.21346
11
1.94027
21
1.23574
0
LINE
8
BLACK
6
CONTINUOUS
10
1.94027
20
1.23574
11
1.95021
21
1.2587
0
LINE
8
BLACK
6
CONTINUOUS
10
1.95021
20
1.2587
11
1.95023
21
1.25877
0
LINE
8
BLACK
6
CONTINUOUS
10
1.95023
20
1.25877
11
1.95865
21
1.28216
0
LINE
8
BLACK
6
CONTINUOUS
10
1.95865
20
1.28216
11
1.95866
21
1.28216
0
LINE
8
BLACK
6
CONTINUOUS
10
1.95866
20
1.28216
11
1.95868
21
1.28223
0
LINE
8
BLACK
6
CONTINUOUS
10
1.95868
20
1.28223
11
1.96566
21
1.30625
0
LINE
8
BLACK
6
CONTINUOUS
10
1.96566
20
1.30625
11
1.97112
21
1.33067
0
LINE
8
BLACK
6
CONTINUOUS
10
1.97112
20
1.33067
11
1.97503
21
1.35537
0
LINE
8
BLACK
6
CONTINUOUS
10
1.97503
20
1.35537
11
1.97738
21
1.38027
0
LINE
8
BLACK
6
CONTINUOUS
10
1.97738
20
1.38027
11
1.97817
21
1.40528
0
LINE
8
BLACK
6
CONTINUOUS
10
1.97817
20
1.40528
11
1.97738
21
1.43028
0
LINE
8
BLACK
6
CONTINUOUS
10
1.97738
20
1.43028
11
1.97503
21
1.45518
0
LINE
8
BLACK
6
CONTINUOUS
10
1.97503
20
1.45518
11
1.97112
21
1.47988
0
LINE
8
BLACK
6
CONTINUOUS
10
1.97112
20
1.47988
11
1.96566
21
1.5043
0
LINE
8
BLACK
6
CONTINUOUS
10
1.96566
20
1.5043
11
1.95868
21
1.52832
0
LINE
8
BLACK
6
CONTINUOUS
10
1.95868
20
1.52832
11
1.95866
21
1.52839
0
LINE
8
BLACK
6
CONTINUOUS
10
1.95866
20
1.52839
11
1.95865
21
1.52839
0
LINE
8
BLACK
6
CONTINUOUS
10
1.95865
20
1.52839
11
1.95023
21
1.55178
0
LINE
8
BLACK
6
CONTINUOUS
10
1.95023
20
1.55178
11
1.95023
21
1.55178
0
LINE
8
BLACK
6
CONTINUOUS
10
1.95023
20
1.55178
11
1.95021
21
1.55185
0
LINE
8
BLACK
6
CONTINUOUS
10
1.95021
20
1.55185
11
1.941
21
1.57312
0
LINE
8
BLACK
6
CONTINUOUS
10
1.941
20
1.57312
11
1.9403
21
1.57474
0
LINE
8
BLACK
6
CONTINUOUS
10
1.9403
20
1.57474
11
1.9403
21
1.57474
0
LINE
8
BLACK
6
CONTINUOUS
10
1.9403
20
1.57474
11
1.94027
21
1.57481
0
LINE
8
BLACK
6
CONTINUOUS
10
1.94027
20
1.57481
11
1.92892
21
1.59709
0
LINE
8
BLACK
6
CONTINUOUS
10
1.92892
20
1.59709
11
1.91619
21
1.61863
0
LINE
8
BLACK
6
CONTINUOUS
10
1.91619
20
1.61863
11
1.91424
21
1.62149
0
LINE
8
BLACK
6
CONTINUOUS
10
1.91424
20
1.62149
11
1.90217
21
1.63925
0
LINE
8
BLACK
6
CONTINUOUS
10
1.90217
20
1.63925
11
1.90217
21
1.63925
0
LINE
8
BLACK
6
CONTINUOUS
10
1.90217
20
1.63925
11
1.90213
21
1.63931
0
LINE
8
BLACK
6
CONTINUOUS
10
1.90213
20
1.63931
11
1.89785
21
1.64483
0
LINE
8
BLACK
6
CONTINUOUS
10
1.89785
20
1.64483
11
1.88684
21
1.65902
0
LINE
8
BLACK
6
CONTINUOUS
10
1.88684
20
1.65902
11
1.88679
21
1.65908
0
LINE
8
BLACK
6
CONTINUOUS
10
1.88679
20
1.65908
11
1.87025
21
1.67784
0
LINE
8
BLACK
6
CONTINUOUS
10
1.87025
20
1.67784
11
1.85257
21
1.69553
0
LINE
8
BLACK
6
CONTINUOUS
10
1.85257
20
1.69553
11
1.8338
21
1.71207
0
LINE
8
BLACK
6
CONTINUOUS
10
1.8338
20
1.71207
11
1.82795
21
1.71661
0
LINE
8
BLACK
6
CONTINUOUS
10
1.82795
20
1.71661
11
1.8141
21
1.72735
0
LINE
8
BLACK
6
CONTINUOUS
10
1.8141
20
1.72735
11
1.8141
21
1.72735
0
LINE
8
BLACK
6
CONTINUOUS
10
1.8141
20
1.72735
11
1.81404
21
1.7274
0
LINE
8
BLACK
6
CONTINUOUS
10
1.81404
20
1.7274
11
1.80425
21
1.73406
0
LINE
8
BLACK
6
CONTINUOUS
10
1.80425
20
1.73406
11
1.79341
21
1.74142
0
LINE
8
BLACK
6
CONTINUOUS
10
1.79341
20
1.74142
11
1.79341
21
1.74142
0
LINE
8
BLACK
6
CONTINUOUS
10
1.79341
20
1.74142
11
1.79335
21
1.74146
0
LINE
8
BLACK
6
CONTINUOUS
10
1.79335
20
1.74146
11
1.77182
21
1.75419
0
LINE
8
BLACK
6
CONTINUOUS
10
1.77182
20
1.75419
11
1.74953
21
1.76555
0
LINE
8
BLACK
6
CONTINUOUS
10
1.74953
20
1.76555
11
1.72658
21
1.77548
0
LINE
8
BLACK
6
CONTINUOUS
10
1.72658
20
1.77548
11
1.7265
21
1.77551
0
LINE
8
BLACK
6
CONTINUOUS
10
1.7265
20
1.77551
11
1.70311
21
1.78393
0
LINE
8
BLACK
6
CONTINUOUS
10
1.70311
20
1.78393
11
1.70311
21
1.78393
0
LINE
8
BLACK
6
CONTINUOUS
10
1.70311
20
1.78393
11
1.70304
21
1.78396
0
LINE
8
BLACK
6
CONTINUOUS
10
1.70304
20
1.78396
11
1.70297
21
1.78398
0
LINE
8
BLACK
6
CONTINUOUS
10
1.70297
20
1.78398
11
1.70297
21
1.78398
0
LINE
8
BLACK
6
CONTINUOUS
10
1.70297
20
1.78398
11
1.6791
21
1.79091
0
LINE
8
BLACK
6
CONTINUOUS
10
1.6791
20
1.79091
11
1.6791
21
1.79091
0
LINE
8
BLACK
6
CONTINUOUS
10
1.6791
20
1.79091
11
1.67902
21
1.79094
0
LINE
8
BLACK
6
CONTINUOUS
10
1.67902
20
1.79094
11
1.67894
21
1.79095
0
LINE
8
BLACK
6
CONTINUOUS
10
1.67894
20
1.79095
11
1.67894
21
1.79095
0
LINE
8
BLACK
6
CONTINUOUS
10
1.67894
20
1.79095
11
1.66326
21
1.79446
0
LINE
8
BLACK
6
CONTINUOUS
10
1.66326
20
1.79446
11
1.65461
21
1.79639
0
LINE
8
BLACK
6
CONTINUOUS
10
1.65461
20
1.79639
11
1.65453
21
1.7964
0
LINE
8
BLACK
6
CONTINUOUS
10
1.65453
20
1.7964
11
1.62998
21
1.80029
0
LINE
8
BLACK
6
CONTINUOUS
10
1.62998
20
1.80029
11
1.62998
21
1.80029
0
LINE
8
BLACK
6
CONTINUOUS
10
1.62998
20
1.80029
11
1.6299
21
1.8003
0
LINE
8
BLACK
6
CONTINUOUS
10
1.6299
20
1.8003
11
1.62983
21
1.80031
0
LINE
8
BLACK
6
CONTINUOUS
10
1.62983
20
1.80031
11
1.62983
21
1.80031
0
LINE
8
BLACK
6
CONTINUOUS
10
1.62983
20
1.80031
11
1.60508
21
1.80265
0
LINE
8
BLACK
6
CONTINUOUS
10
1.60508
20
1.80265
11
1.60508
21
1.80265
0
LINE
8
BLACK
6
CONTINUOUS
10
1.60508
20
1.80265
11
1.605
21
1.80266
0
LINE
8
BLACK
6
CONTINUOUS
10
1.605
20
1.80266
11
1.60492
21
1.80266
0
LINE
8
BLACK
6
CONTINUOUS
10
1.60492
20
1.80266
11
1.60492
21
1.80266
0
LINE
8
BLACK
6
CONTINUOUS
10
1.60492
20
1.80266
11
1.59375
21
1.80301
0
LINE
8
BLACK
6
CONTINUOUS
10
1.59375
20
1.80301
11
1.58625
21
1.80325
0
LINE
8
BLACK
6
CONTINUOUS
10
1.58625
20
1.80325
11
1.57375
21
1.80325
0
LINE
8
BLACK
6
CONTINUOUS
10
1.57375
20
1.80325
11
1.56625
21
1.80301
0
LINE
8
BLACK
6
CONTINUOUS
10
1.56625
20
1.80301
11
1.55508
21
1.80266
0
LINE
8
BLACK
6
CONTINUOUS
10
1.55508
20
1.80266
11
1.55508
21
1.80266
0
LINE
8
BLACK
6
CONTINUOUS
10
1.55508
20
1.80266
11
1.555
21
1.80266
0
LINE
8
BLACK
6
CONTINUOUS
10
1.555
20
1.80266
11
1.55492
21
1.80265
0
LINE
8
BLACK
6
CONTINUOUS
10
1.55492
20
1.80265
11
1.55492
21
1.80265
0
LINE
8
BLACK
6
CONTINUOUS
10
1.55492
20
1.80265
11
1.53017
21
1.80031
0
LINE
8
BLACK
6
CONTINUOUS
10
1.53017
20
1.80031
11
1.53017
21
1.80031
0
LINE
8
BLACK
6
CONTINUOUS
10
1.53017
20
1.80031
11
1.5301
21
1.8003
0
LINE
8
BLACK
6
CONTINUOUS
10
1.5301
20
1.8003
11
1.53002
21
1.80029
0
LINE
8
BLACK
6
CONTINUOUS
10
1.53002
20
1.80029
11
1.53002
21
1.80029
0
LINE
8
BLACK
6
CONTINUOUS
10
1.53002
20
1.80029
11
1.50547
21
1.7964
0
LINE
8
BLACK
6
CONTINUOUS
10
1.50547
20
1.7964
11
1.50539
21
1.79639
0
LINE
8
BLACK
6
CONTINUOUS
10
1.50539
20
1.79639
11
1.49674
21
1.79446
0
LINE
8
BLACK
6
CONTINUOUS
10
1.49674
20
1.79446
11
1.48106
21
1.79095
0
LINE
8
BLACK
6
CONTINUOUS
10
1.48106
20
1.79095
11
1.48106
21
1.79095
0
LINE
8
BLACK
6
CONTINUOUS
10
1.48106
20
1.79095
11
1.48098
21
1.79094
0
LINE
8
BLACK
6
CONTINUOUS
10
1.48098
20
1.79094
11
1.4809
21
1.79091
0
LINE
8
BLACK
6
CONTINUOUS
10
1.4809
20
1.79091
11
1.4809
21
1.79091
0
LINE
8
BLACK
6
CONTINUOUS
10
1.4809
20
1.79091
11
1.45703
21
1.78398
0
LINE
8
BLACK
6
CONTINUOUS
10
1.45703
20
1.78398
11
1.45703
21
1.78398
0
LINE
8
BLACK
6
CONTINUOUS
10
1.45703
20
1.78398
11
1.45696
21
1.78396
0
LINE
8
BLACK
6
CONTINUOUS
10
1.45696
20
1.78396
11
1.45689
21
1.78393
0
LINE
8
BLACK
6
CONTINUOUS
10
1.45689
20
1.78393
11
1.45689
21
1.78393
0
LINE
8
BLACK
6
CONTINUOUS
10
1.45689
20
1.78393
11
1.4335
21
1.77551
0
LINE
8
BLACK
6
CONTINUOUS
10
1.4335
20
1.77551
11
1.43342
21
1.77548
0
LINE
8
BLACK
6
CONTINUOUS
10
1.43342
20
1.77548
11
1.41047
21
1.76555
0
LINE
8
BLACK
6
CONTINUOUS
10
1.41047
20
1.76555
11
1.38818
21
1.75419
0
LINE
8
BLACK
6
CONTINUOUS
10
1.38818
20
1.75419
11
1.36665
21
1.74146
0
LINE
8
BLACK
6
CONTINUOUS
10
1.36665
20
1.74146
11
1.36659
21
1.74142
0
LINE
8
BLACK
6
CONTINUOUS
10
1.36659
20
1.74142
11
1.36659
21
1.74142
0
LINE
8
BLACK
6
CONTINUOUS
10
1.36659
20
1.74142
11
1.35575
21
1.73406
0
LINE
8
BLACK
6
CONTINUOUS
10
1.35575
20
1.73406
11
1.34596
21
1.7274
0
LINE
8
BLACK
6
CONTINUOUS
10
1.34596
20
1.7274
11
1.3459
21
1.72735
0
LINE
8
BLACK
6
CONTINUOUS
10
1.3459
20
1.72735
11
1.3459
21
1.72735
0
LINE
8
BLACK
6
CONTINUOUS
10
1.3459
20
1.72735
11
1.33205
21
1.71661
0
LINE
8
BLACK
6
CONTINUOUS
10
1.33205
20
1.71661
11
1.3262
21
1.71207
0
LINE
8
BLACK
6
CONTINUOUS
10
1.3262
20
1.71207
11
1.30743
21
1.69553
0
LINE
8
BLACK
6
CONTINUOUS
10
1.30743
20
1.69553
11
1.28975
21
1.67784
0
LINE
8
BLACK
6
CONTINUOUS
10
1.28975
20
1.67784
11
1.27321
21
1.65908
0
LINE
8
BLACK
6
CONTINUOUS
10
1.27321
20
1.65908
11
1.27316
21
1.65902
0
LINE
8
BLACK
6
CONTINUOUS
10
1.27316
20
1.65902
11
1.26215
21
1.64483
0
LINE
8
BLACK
6
CONTINUOUS
10
1.26215
20
1.64483
11
1.25787
21
1.63931
0
LINE
8
BLACK
6
CONTINUOUS
10
1.25787
20
1.63931
11
1.25783
21
1.63925
0
LINE
8
BLACK
6
CONTINUOUS
10
1.25783
20
1.63925
11
1.25783
21
1.63925
0
LINE
8
BLACK
6
CONTINUOUS
10
1.25783
20
1.63925
11
1.24576
21
1.62149
0
LINE
8
BLACK
6
CONTINUOUS
10
1.24576
20
1.62149
11
1.24381
21
1.61863
0
LINE
8
BLACK
6
CONTINUOUS
10
1.24381
20
1.61863
11
1.23108
21
1.59709
0
LINE
8
BLACK
6
CONTINUOUS
10
1.23108
20
1.59709
11
1.21973
21
1.57481
0
LINE
8
BLACK
6
CONTINUOUS
10
1.21973
20
1.57481
11
1.2197
21
1.57474
0
LINE
8
BLACK
6
CONTINUOUS
10
1.2197
20
1.57474
11
1.2197
21
1.57474
0
LINE
8
BLACK
6
CONTINUOUS
10
1.2197
20
1.57474
11
1.219
21
1.57312
0
LINE
8
BLACK
6
CONTINUOUS
10
1.219
20
1.57312
11
1.20979
21
1.55185
0
LINE
8
BLACK
6
CONTINUOUS
10
1.20979
20
1.55185
11
1.20977
21
1.55178
0
LINE
8
BLACK
6
CONTINUOUS
10
1.20977
20
1.55178
11
1.20977
21
1.55178
0
LINE
8
BLACK
6
CONTINUOUS
10
1.20977
20
1.55178
11
1.20135
21
1.52839
0
LINE
8
BLACK
6
CONTINUOUS
10
1.20135
20
1.52839
11
1.20134
21
1.52839
0
LINE
8
BLACK
6
CONTINUOUS
10
1.20134
20
1.52839
11
1.20132
21
1.52832
0
LINE
8
BLACK
6
CONTINUOUS
10
1.20132
20
1.52832
11
1.19434
21
1.5043
0
LINE
8
BLACK
6
CONTINUOUS
10
1.19434
20
1.5043
11
1.18888
21
1.47988
0
LINE
8
BLACK
6
CONTINUOUS
10
1.18888
20
1.47988
11
1.18887
21
1.47981
0
LINE
8
BLACK
6
CONTINUOUS
10
1.18887
20
1.47981
11
1.18887
21
1.47981
0
LINE
8
BLACK
6
CONTINUOUS
10
1.18887
20
1.47981
11
1.18726
21
1.46964
0
LINE
8
BLACK
6
CONTINUOUS
10
1.18726
20
1.46964
11
1.18606
21
1.46712
0
LINE
8
BLACK
6
CONTINUOUS
10
1.18606
20
1.46712
11
1.18369
21
1.46564
0
LINE
8
BLACK
6
CONTINUOUS
10
1.18369
20
1.46564
11
1.1809
21
1.46568
0
LINE
8
BLACK
6
CONTINUOUS
10
1.1809
20
1.46568
11
1.17857
21
1.46723
0
LINE
8
BLACK
6
CONTINUOUS
10
1.17857
20
1.46723
11
1.17746
21
1.46964
0
LINE
8
BLACK
6
CONTINUOUS
10
1.17746
20
1.46964
11
1.17585
21
1.47981
0
LINE
8
BLACK
6
CONTINUOUS
10
1.17585
20
1.47981
11
1.17585
21
1.47981
0
LINE
8
BLACK
6
CONTINUOUS
10
1.17585
20
1.47981
11
1.17584
21
1.47988
0
LINE
8
BLACK
6
CONTINUOUS
10
1.17584
20
1.47988
11
1.17038
21
1.5043
0
LINE
8
BLACK
6
CONTINUOUS
10
1.17038
20
1.5043
11
1.16341
21
1.52832
0
LINE
8
BLACK
6
CONTINUOUS
10
1.16341
20
1.52832
11
1.16338
21
1.52839
0
LINE
8
BLACK
6
CONTINUOUS
10
1.16338
20
1.52839
11
1.16338
21
1.52839
0
LINE
8
BLACK
6
CONTINUOUS
10
1.16338
20
1.52839
11
1.15496
21
1.55178
0
LINE
8
BLACK
6
CONTINUOUS
10
1.15496
20
1.55178
11
1.15496
21
1.55178
0
LINE
8
BLACK
6
CONTINUOUS
10
1.15496
20
1.55178
11
1.15493
21
1.55185
0
LINE
8
BLACK
6
CONTINUOUS
10
1.15493
20
1.55185
11
1.14573
21
1.57312
0
LINE
8
BLACK
6
CONTINUOUS
10
1.14573
20
1.57312
11
1.14503
21
1.57474
0
LINE
8
BLACK
6
CONTINUOUS
10
1.14503
20
1.57474
11
1.14503
21
1.57474
0
LINE
8
BLACK
6
CONTINUOUS
10
1.14503
20
1.57474
11
1.145
21
1.57481
0
LINE
8
BLACK
6
CONTINUOUS
10
1.145
20
1.57481
11
1.13364
21
1.59709
0
LINE
8
BLACK
6
CONTINUOUS
10
1.13364
20
1.59709
11
1.12091
21
1.61863
0
LINE
8
BLACK
6
CONTINUOUS
10
1.12091
20
1.61863
11
1.11897
21
1.62149
0
LINE
8
BLACK
6
CONTINUOUS
10
1.11897
20
1.62149
11
1.10689
21
1.63925
0
LINE
8
BLACK
6
CONTINUOUS
10
1.10689
20
1.63925
11
1.10689
21
1.63925
0
LINE
8
BLACK
6
CONTINUOUS
10
1.10689
20
1.63925
11
1.10685
21
1.63931
0
LINE
8
BLACK
6
CONTINUOUS
10
1.10685
20
1.63931
11
1.10257
21
1.64483
0
LINE
8
BLACK
6
CONTINUOUS
10
1.10257
20
1.64483
11
1.09157
21
1.65902
0
LINE
8
BLACK
6
CONTINUOUS
10
1.09157
20
1.65902
11
1.09152
21
1.65908
0
LINE
8
BLACK
6
CONTINUOUS
10
1.09152
20
1.65908
11
1.07498
21
1.67784
0
LINE
8
BLACK
6
CONTINUOUS
10
1.07498
20
1.67784
11
1.05729
21
1.69553
0
LINE
8
BLACK
6
CONTINUOUS
10
1.05729
20
1.69553
11
1.03853
21
1.71207
0
LINE
8
BLACK
6
CONTINUOUS
10
1.03853
20
1.71207
11
1.03267
21
1.71661
0
LINE
8
BLACK
6
CONTINUOUS
10
1.03267
20
1.71661
11
1.01882
21
1.72735
0
LINE
8
BLACK
6
CONTINUOUS
10
1.01882
20
1.72735
11
1.01882
21
1.72735
0
LINE
8
BLACK
6
CONTINUOUS
10
1.01882
20
1.72735
11
1.01876
21
1.7274
0
LINE
8
BLACK
6
CONTINUOUS
10
1.01876
20
1.7274
11
1.00897
21
1.73406
0
LINE
8
BLACK
6
CONTINUOUS
10
1.00897
20
1.73406
11
0.998138
21
1.74142
0
LINE
8
BLACK
6
CONTINUOUS
10
0.998138
20
1.74142
11
0.998138
21
1.74142
0
LINE
8
BLACK
6
CONTINUOUS
10
0.998138
20
1.74142
11
0.998074
21
1.74146
0
LINE
8
BLACK
6
CONTINUOUS
10
0.998074
20
1.74146
11
0.976544
21
1.75419
0
LINE
8
BLACK
6
CONTINUOUS
10
0.976544
20
1.75419
11
0.954256
21
1.76555
0
LINE
8
BLACK
6
CONTINUOUS
10
0.954256
20
1.76555
11
0.9313
21
1.77548
0
LINE
8
BLACK
6
CONTINUOUS
10
0.9313
20
1.77548
11
0.931227
21
1.77551
0
LINE
8
BLACK
6
CONTINUOUS
10
0.931227
20
1.77551
11
0.907838
21
1.78393
0
LINE
8
BLACK
6
CONTINUOUS
10
0.907838
20
1.78393
11
0.907838
21
1.78393
0
LINE
8
BLACK
6
CONTINUOUS
10
0.907838
20
1.78393
11
0.907765
21
1.78396
0
LINE
8
BLACK
6
CONTINUOUS
10
0.907765
20
1.78396
11
0.907691
21
1.78398
0
LINE
8
BLACK
6
CONTINUOUS
10
0.907691
20
1.78398
11
0.907691
21
1.78398
0
LINE
8
BLACK
6
CONTINUOUS
10
0.907691
20
1.78398
11
0.88382
21
1.79091
0
LINE
8
BLACK
6
CONTINUOUS
10
0.88382
20
1.79091
11
0.88382
21
1.79091
0
LINE
8
BLACK
6
CONTINUOUS
10
0.88382
20
1.79091
11
0.883745
21
1.79094
0
LINE
8
BLACK
6
CONTINUOUS
10
0.883745
20
1.79094
11
0.883669
21
1.79095
0
LINE
8
BLACK
6
CONTINUOUS
10
0.883669
20
1.79095
11
0.883669
21
1.79095
0
LINE
8
BLACK
6
CONTINUOUS
10
0.883669
20
1.79095
11
0.867981
21
1.79446
0
LINE
8
BLACK
6
CONTINUOUS
10
0.867981
20
1.79446
11
0.859334
21
1.79639
0
LINE
8
BLACK
6
CONTINUOUS
10
0.859334
20
1.79639
11
0.859257
21
1.7964
0
LINE
8
BLACK
6
CONTINUOUS
10
0.859257
20
1.7964
11
0.834705
21
1.80029
0
LINE
8
BLACK
6
CONTINUOUS
10
0.834705
20
1.80029
11
0.834705
21
1.80029
0
LINE
8
BLACK
6
CONTINUOUS
10
0.834705
20
1.80029
11
0.834628
21
1.8003
0
LINE
8
BLACK
6
CONTINUOUS
10
0.834628
20
1.8003
11
0.834551
21
1.80031
0
LINE
8
BLACK
6
CONTINUOUS
10
0.834551
20
1.80031
11
0.83455
21
1.80031
0
LINE
8
BLACK
6
CONTINUOUS
10
0.83455
20
1.80031
11
0.809802
21
1.80265
0
LINE
8
BLACK
6
CONTINUOUS
10
0.809802
20
1.80265
11
0.809802
21
1.80265
0
LINE
8
BLACK
6
CONTINUOUS
10
0.809802
20
1.80265
11
0.809726
21
1.80266
0
LINE
8
BLACK
6
CONTINUOUS
10
0.809726
20
1.80266
11
0.809649
21
1.80266
0
LINE
8
BLACK
6
CONTINUOUS
10
0.809649
20
1.80266
11
0.809649
21
1.80266
0
LINE
8
BLACK
6
CONTINUOUS
10
0.809649
20
1.80266
11
0.798475
21
1.80301
0
LINE
8
BLACK
6
CONTINUOUS
10
0.798475
20
1.80301
11
0.790976
21
1.80325
0
LINE
8
BLACK
6
CONTINUOUS
10
0.790976
20
1.80325
11
0.778473
21
1.80325
0
LINE
8
BLACK
6
CONTINUOUS
10
0.778473
20
1.80325
11
0.770973
21
1.80301
0
LINE
8
BLACK
6
CONTINUOUS
10
0.770973
20
1.80301
11
0.7598
21
1.80266
0
LINE
8
BLACK
6
CONTINUOUS
10
0.7598
20
1.80266
11
0.7598
21
1.80266
0
LINE
8
BLACK
6
CONTINUOUS
10
0.7598
20
1.80266
11
0.759723
21
1.80266
0
LINE
8
BLACK
6
CONTINUOUS
10
0.759723
20
1.80266
11
0.759647
21
1.80265
0
LINE
8
BLACK
6
CONTINUOUS
10
0.759647
20
1.80265
11
0.759646
21
1.80265
0
LINE
8
BLACK
6
CONTINUOUS
10
0.759646
20
1.80265
11
0.734898
21
1.80031
0
LINE
8
BLACK
6
CONTINUOUS
10
0.734898
20
1.80031
11
0.734898
21
1.80031
0
LINE
8
BLACK
6
CONTINUOUS
10
0.734898
20
1.80031
11
0.734821
21
1.8003
0
LINE
8
BLACK
6
CONTINUOUS
10
0.734821
20
1.8003
11
0.734744
21
1.80029
0
LINE
8
BLACK
6
CONTINUOUS
10
0.734744
20
1.80029
11
0.734744
21
1.80029
0
LINE
8
BLACK
6
CONTINUOUS
10
0.734744
20
1.80029
11
0.710192
21
1.7964
0
LINE
8
BLACK
6
CONTINUOUS
10
0.710192
20
1.7964
11
0.710115
21
1.79639
0
LINE
8
BLACK
6
CONTINUOUS
10
0.710115
20
1.79639
11
0.701468
21
1.79446
0
LINE
8
BLACK
6
CONTINUOUS
10
0.701468
20
1.79446
11
0.68578
21
1.79095
0
LINE
8
BLACK
6
CONTINUOUS
10
0.68578
20
1.79095
11
0.685779
21
1.79095
0
LINE
8
BLACK
6
CONTINUOUS
10
0.685779
20
1.79095
11
0.685704
21
1.79094
0
LINE
8
BLACK
6
CONTINUOUS
10
0.685704
20
1.79094
11
0.685629
21
1.79091
0
LINE
8
BLACK
6
CONTINUOUS
10
0.685629
20
1.79091
11
0.685629
21
1.79091
0
LINE
8
BLACK
6
CONTINUOUS
10
0.685629
20
1.79091
11
0.661758
21
1.78398
0
LINE
8
BLACK
6
CONTINUOUS
10
0.661758
20
1.78398
11
0.661758
21
1.78398
0
LINE
8
BLACK
6
CONTINUOUS
10
0.661758
20
1.78398
11
0.661683
21
1.78396
0
LINE
8
BLACK
6
CONTINUOUS
10
0.661683
20
1.78396
11
0.661611
21
1.78393
0
LINE
8
BLACK
6
CONTINUOUS
10
0.661611
20
1.78393
11
0.66161
21
1.78393
0
LINE
8
BLACK
6
CONTINUOUS
10
0.66161
20
1.78393
11
0.638222
21
1.77551
0
LINE
8
BLACK
6
CONTINUOUS
10
0.638222
20
1.77551
11
0.638149
21
1.77548
0
LINE
8
BLACK
6
CONTINUOUS
10
0.638149
20
1.77548
11
0.615192
21
1.76555
0
LINE
8
BLACK
6
CONTINUOUS
10
0.615192
20
1.76555
11
0.592905
21
1.75419
0
LINE
8
BLACK
6
CONTINUOUS
10
0.592905
20
1.75419
11
0.571375
21
1.74146
0
LINE
8
BLACK
6
CONTINUOUS
10
0.571375
20
1.74146
11
0.571311
21
1.74142
0
LINE
8
BLACK
6
CONTINUOUS
10
0.571311
20
1.74142
11
0.57131
21
1.74142
0
LINE
8
BLACK
6
CONTINUOUS
10
0.57131
20
1.74142
11
0.560479
21
1.73406
0
LINE
8
BLACK
6
CONTINUOUS
10
0.560479
20
1.73406
11
0.550687
21
1.7274
0
LINE
8
BLACK
6
CONTINUOUS
10
0.550687
20
1.7274
11
0.550625
21
1.72735
0
LINE
8
BLACK
6
CONTINUOUS
10
0.550625
20
1.72735
11
0.550625
21
1.72735
0
LINE
8
BLACK
6
CONTINUOUS
10
0.550625
20
1.72735
11
0.536779
21
1.71661
0
LINE
8
BLACK
6
CONTINUOUS
10
0.536779
20
1.71661
11
0.530922
21
1.71207
0
LINE
8
BLACK
6
CONTINUOUS
10
0.530922
20
1.71207
11
0.512159
21
1.69553
0
LINE
8
BLACK
6
CONTINUOUS
10
0.512159
20
1.69553
11
0.494472
21
1.67784
0
LINE
8
BLACK
6
CONTINUOUS
10
0.494472
20
1.67784
11
0.47793
21
1.65908
0
LINE
8
BLACK
6
CONTINUOUS
10
0.47793
20
1.65908
11
0.477882
21
1.65902
0
LINE
8
BLACK
6
CONTINUOUS
10
0.477882
20
1.65902
11
0.466876
21
1.64483
0
LINE
8
BLACK
6
CONTINUOUS
10
0.466876
20
1.64483
11
0.462599
21
1.63931
0
LINE
8
BLACK
6
CONTINUOUS
10
0.462599
20
1.63931
11
0.462555
21
1.63925
0
LINE
8
BLACK
6
CONTINUOUS
10
0.462555
20
1.63925
11
0.462555
21
1.63925
0
LINE
8
BLACK
6
CONTINUOUS
10
0.462555
20
1.63925
11
0.450483
21
1.62149
0
LINE
8
BLACK
6
CONTINUOUS
10
0.450483
20
1.62149
11
0.448539
21
1.61863
0
LINE
8
BLACK
6
CONTINUOUS
10
0.448539
20
1.61863
11
0.435806
21
1.59709
0
LINE
8
BLACK
6
CONTINUOUS
10
0.435806
20
1.59709
11
0.42445
21
1.57481
0
LINE
8
BLACK
6
CONTINUOUS
10
0.42445
20
1.57481
11
0.42442
21
1.57474
0
LINE
8
BLACK
6
CONTINUOUS
10
0.42442
20
1.57474
11
0.42442
21
1.57474
0
LINE
8
BLACK
6
CONTINUOUS
10
0.42442
20
1.57474
11
0.423721
21
1.57312
0
LINE
8
BLACK
6
CONTINUOUS
10
0.423721
20
1.57312
11
0.414516
21
1.55185
0
LINE
8
BLACK
6
CONTINUOUS
10
0.414516
20
1.55185
11
0.41449
21
1.55178
0
LINE
8
BLACK
6
CONTINUOUS
10
0.41449
20
1.55178
11
0.41449
21
1.55178
0
LINE
8
BLACK
6
CONTINUOUS
10
0.41449
20
1.55178
11
0.40607
21
1.52839
0
LINE
8
BLACK
6
CONTINUOUS
10
0.40607
20
1.52839
11
0.406069
21
1.52839
0
LINE
8
BLACK
6
CONTINUOUS
10
0.406069
20
1.52839
11
0.406043
21
1.52832
0
LINE
8
BLACK
6
CONTINUOUS
10
0.406043
20
1.52832
11
0.399065
21
1.5043
0
LINE
8
BLACK
6
CONTINUOUS
10
0.399065
20
1.5043
11
0.393608
21
1.47988
0
LINE
8
BLACK
6
CONTINUOUS
10
0.393608
20
1.47988
11
0.389695
21
1.45518
0
LINE
8
BLACK
6
CONTINUOUS
10
0.389695
20
1.45518
11
0.387341
21
1.43028
0
LINE
8
BLACK
6
CONTINUOUS
10
0.387341
20
1.43028
11
0.386556
21
1.40528
0
LINE
8
BLACK
6
CONTINUOUS
10
0.386556
20
1.40528
11
0.387341
21
1.38027
0
LINE
8
BLACK
6
CONTINUOUS
10
0.387341
20
1.38027
11
0.389695
21
1.35537
0
LINE
8
BLACK
6
CONTINUOUS
10
0.389695
20
1.35537
11
0.393608
21
1.33067
0
LINE
8
BLACK
6
CONTINUOUS
10
0.393608
20
1.33067
11
0.399065
21
1.30625
0
LINE
8
BLACK
6
CONTINUOUS
10
0.399065
20
1.30625
11
0.406043
21
1.28223
0
LINE
8
BLACK
6
CONTINUOUS
10
0.406043
20
1.28223
11
0.406069
21
1.28216
0
LINE
8
BLACK
6
CONTINUOUS
10
0.406069
20
1.28216
11
0.40607
21
1.28216
0
LINE
8
BLACK
6
CONTINUOUS
10
0.40607
20
1.28216
11
0.41449
21
1.25877
0
LINE
8
BLACK
6
CONTINUOUS
10
0.41449
20
1.25877
11
0.414516
21
1.2587
0
LINE
8
BLACK
6
CONTINUOUS
10
0.414516
20
1.2587
11
0.42445
21
1.23574
0
LINE
8
BLACK
6
CONTINUOUS
10
0.42445
20
1.23574
11
0.435806
21
1.21346
0
LINE
8
BLACK
6
CONTINUOUS
10
0.435806
20
1.21346
11
0.448539
21
1.19193
0
LINE
8
BLACK
6
CONTINUOUS
10
0.448539
20
1.19193
11
0.462599
21
1.17124
0
LINE
8
BLACK
6
CONTINUOUS
10
0.462599
20
1.17124
11
0.47793
21
1.15147
0
LINE
8
BLACK
6
CONTINUOUS
10
0.47793
20
1.15147
11
0.494472
21
1.13271
0
LINE
8
BLACK
6
CONTINUOUS
10
0.494472
20
1.13271
11
0.512159
21
1.11502
0
LINE
8
BLACK
6
CONTINUOUS
10
0.512159
20
1.11502
11
0.530922
21
1.09848
0
LINE
8
BLACK
6
CONTINUOUS
10
0.530922
20
1.09848
11
0.550687
21
1.08315
0
LINE
8
BLACK
6
CONTINUOUS
10
0.550687
20
1.08315
11
0.571375
21
1.06909
0
LINE
8
BLACK
6
CONTINUOUS
10
0.571375
20
1.06909
11
0.592905
21
1.05636
0
LINE
8
BLACK
6
CONTINUOUS
10
0.592905
20
1.05636
11
0.615192
21
1.045
0
LINE
8
BLACK
6
CONTINUOUS
10
0.615192
20
1.045
11
0.638149
21
1.03507
0
LINE
8
BLACK
6
CONTINUOUS
10
0.638149
20
1.03507
11
0.638222
21
1.03504
0
LINE
8
BLACK
6
CONTINUOUS
10
0.638222
20
1.03504
11
0.638222
21
1.03504
0
LINE
8
BLACK
6
CONTINUOUS
10
0.638222
20
1.03504
11
0.66161
21
1.02662
0
LINE
8
BLACK
6
CONTINUOUS
10
0.66161
20
1.02662
11
0.661611
21
1.02662
0
LINE
8
BLACK
6
CONTINUOUS
10
0.661611
20
1.02662
11
0.661683
21
1.02659
0
LINE
8
BLACK
6
CONTINUOUS
10
0.661683
20
1.02659
11
0.661758
21
1.02657
0
LINE
8
BLACK
6
CONTINUOUS
10
0.661758
20
1.02657
11
0.661758
21
1.02657
0
LINE
8
BLACK
6
CONTINUOUS
10
0.661758
20
1.02657
11
0.685629
21
1.01964
0
LINE
8
BLACK
6
CONTINUOUS
10
0.685629
20
1.01964
11
0.685704
21
1.01962
0
LINE
8
BLACK
6
CONTINUOUS
10
0.685704
20
1.01962
11
0.685779
21
1.0196
0
LINE
8
BLACK
6
CONTINUOUS
10
0.685779
20
1.0196
11
0.68578
21
1.0196
0
LINE
8
BLACK
6
CONTINUOUS
10
0.68578
20
1.0196
11
0.697909
21
1.01689
0
LINE
8
BLACK
6
CONTINUOUS
10
0.697909
20
1.01689
11
0.710115
21
1.01416
0
LINE
8
BLACK
6
CONTINUOUS
10
0.710115
20
1.01416
11
0.710192
21
1.01415
0
LINE
8
BLACK
6
CONTINUOUS
10
0.710192
20
1.01415
11
0.710192
21
1.01415
0
LINE
8
BLACK
6
CONTINUOUS
10
0.710192
20
1.01415
11
0.720356
21
1.01254
0
LINE
8
BLACK
6
CONTINUOUS
10
0.720356
20
1.01254
11
0.722882
21
1.01134
0
LINE
8
BLACK
6
CONTINUOUS
10
0.722882
20
1.01134
11
0.724359
21
1.00897
0
LINE
8
BLACK
6
CONTINUOUS
10
0.724359
20
1.00897
11
0.724319
21
1.00617
0
LINE
8
BLACK
6
CONTINUOUS
10
0.724319
20
1.00617
11
0.722775
21
1.00384
0
LINE
8
BLACK
6
CONTINUOUS
10
0.722775
20
1.00384
11
0.720356
21
1.00274
0
LINE
8
BLACK
6
CONTINUOUS
10
0.720356
20
1.00274
11
0.710115
21
1.00112
0
LINE
8
BLACK
6
CONTINUOUS
10
0.710115
20
1.00112
11
0.697909
21
0.998388
0
LINE
8
BLACK
6
CONTINUOUS
10
0.697909
20
0.998388
11
0.68578
21
0.995677
0
LINE
8
BLACK
6
CONTINUOUS
10
0.68578
20
0.995677
11
0.685779
21
0.995677
0
LINE
8
BLACK
6
CONTINUOUS
10
0.685779
20
0.995677
11
0.685704
21
0.99566
0
LINE
8
BLACK
6
CONTINUOUS
10
0.685704
20
0.99566
11
0.685629
21
0.995638
0
LINE
8
BLACK
6
CONTINUOUS
10
0.685629
20
0.995638
11
0.685629
21
0.995638
0
LINE
8
BLACK
6
CONTINUOUS
10
0.685629
20
0.995638
11
0.661758
21
0.988703
0
LINE
8
BLACK
6
CONTINUOUS
10
0.661758
20
0.988703
11
0.661758
21
0.988703
0
LINE
8
BLACK
6
CONTINUOUS
10
0.661758
20
0.988703
11
0.661683
21
0.988681
0
LINE
8
BLACK
6
CONTINUOUS
10
0.661683
20
0.988681
11
0.661611
21
0.988655
0
LINE
8
BLACK
6
CONTINUOUS
10
0.661611
20
0.988655
11
0.66161
21
0.988655
0
LINE
8
BLACK
6
CONTINUOUS
10
0.66161
20
0.988655
11
0.638222
21
0.980234
0
LINE
8
BLACK
6
CONTINUOUS
10
0.638222
20
0.980234
11
0.638149
21
0.980208
0
LINE
8
BLACK
6
CONTINUOUS
10
0.638149
20
0.980208
11
0.615192
21
0.970274
0
LINE
8
BLACK
6
CONTINUOUS
10
0.615192
20
0.970274
11
0.592905
21
0.958918
0
LINE
8
BLACK
6
CONTINUOUS
10
0.592905
20
0.958918
11
0.571375
21
0.946185
0
LINE
8
BLACK
6
CONTINUOUS
10
0.571375
20
0.946185
11
0.550687
21
0.932125
0
LINE
8
BLACK
6
CONTINUOUS
10
0.550687
20
0.932125
11
0.530922
21
0.916794
0
LINE
8
BLACK
6
CONTINUOUS
10
0.530922
20
0.916794
11
0.512159
21
0.900253
0
LINE
8
BLACK
6
CONTINUOUS
10
0.512159
20
0.900253
11
0.494472
21
0.882565
0
LINE
8
BLACK
6
CONTINUOUS
10
0.494472
20
0.882565
11
0.47793
21
0.863802
0
LINE
8
BLACK
6
CONTINUOUS
10
0.47793
20
0.863802
11
0.462599
21
0.844038
0
LINE
8
BLACK
6
CONTINUOUS
10
0.462599
20
0.844038
11
0.448539
21
0.82335
0
LINE
8
BLACK
6
CONTINUOUS
10
0.448539
20
0.82335
11
0.435806
21
0.801819
0
LINE
8
BLACK
6
CONTINUOUS
10
0.435806
20
0.801819
11
0.42445
21
0.779532
0
LINE
8
BLACK
6
CONTINUOUS
10
0.42445
20
0.779532
11
0.414516
21
0.756576
0
LINE
8
BLACK
6
CONTINUOUS
10
0.414516
20
0.756576
11
0.41449
21
0.756503
0
LINE
8
BLACK
6
CONTINUOUS
10
0.41449
20
0.756503
11
0.41449
21
0.756503
0
LINE
8
BLACK
6
CONTINUOUS
10
0.41449
20
0.756503
11
0.40607
21
0.733114
0
LINE
8
BLACK
6
CONTINUOUS
10
0.40607
20
0.733114
11
0.406069
21
0.733113
0
LINE
8
BLACK
6
CONTINUOUS
10
0.406069
20
0.733113
11
0.406043
21
0.733041
0
LINE
8
BLACK
6
CONTINUOUS
10
0.406043
20
0.733041
11
0.399065
21
0.709021
0
LINE
8
BLACK
6
CONTINUOUS
10
0.399065
20
0.709021
11
0.393608
21
0.684609
0
LINE
8
BLACK
6
CONTINUOUS
10
0.393608
20
0.684609
11
0.389695
21
0.659904
0
LINE
8
BLACK
6
CONTINUOUS
10
0.389695
20
0.659904
11
0.387341
21
0.635001
0
LINE
8
BLACK
6
CONTINUOUS
10
0.387341
20
0.635001
11
0.386556
21
0.61
0
LINE
8
BLACK
6
CONTINUOUS
10
0.386556
20
0.61
11
0.387341
21
0.584999
0
LINE
8
BLACK
6
CONTINUOUS
10
0.387341
20
0.584999
11
0.389695
21
0.560096
  0
ENDSEC
  0
EOF
