  0
SECTION
  2
HEADER
  9
$ANGBASE
  50
0.0
  9
$ANGDIR
  70
1
  9
$MEASUREMENT
  70
0
  0
ENDSEC
  0
SECTION
  2
TABLES
  0
TABLE
  2
LTYPE
  70
4
  0
LTYPE
  5
40F
  2
CONTINUOUS
  70
0
  3
Solid line
  72
65
  73
0
  40
0.0
  0
LTYPE
  5
410
  2
DASHDOT
 70
0
  3
Dash Dot ____ _ ____ _
 72
65
 73
4
 40
2.0
 49
1.25
 49
-0.25
 49
0.25
 49
-0.25
  0
LTYPE
  5
411
  2
DASHED
 70
0
  3
Dashed __ __ __ __ __
 72
65
 73
2
 40
0.75
 49
0.5
 49
-0.25
  0
LTYPE
  5
43B
  2
DOTTED
 70
0
  3
Dotted .  .  .  .
 72
65
 73
2
 40
0.2
 49
0.0
 49
-0.2
  0
ENDTAB
  0
TABLE
  2
STYLE
  70
4
  0
STYLE
  2
KICAD
  70
0
  40
0
  41
1
  42
1
  50
0
  71
0
  3
isocp.shx
  0
STYLE
  2
KICADB
  70
0
  40
0
  41
1
  42
1
  50
0
  71
0
  3
isocp.shx
  0
STYLE
  2
KICADI
  70
0
  40
0
  41
1
  42
1
  50
15
  71
0
  3
isocp.shx
  0
STYLE
  2
KICADBI
  70
0
  40
0
  41
1
  42
1
  50
15
  71
0
  3
isocp.shx
  0
ENDTAB
  0
TABLE
  2
LAYER
  70
1
  0
LAYER
  2
BLACK
  70
0
  62
7
  6
CONTINUOUS
  0
ENDTAB
  0
ENDSEC
  0
SECTION
  2
ENTITIES
0
LINE
8
BLACK
6
CONTINUOUS
10
1.96
20
0.12
11
2.39
21
0.12
0
LINE
8
BLACK
6
CONTINUOUS
10
2.39
20
0.12
11
2.39
21
0
0
LINE
8
BLACK
6
CONTINUOUS
10
2.39
20
0
11
1.96
21
0
0
LINE
8
BLACK
6
CONTINUOUS
10
1.96
20
0
11
1.96
21
0.12
0
LINE
8
BLACK
6
CONTINUOUS
10
1.96
20
0.12
11
2.39
21
0.12
0
LINE
8
BLACK
6
CONTINUOUS
10
2.39
20
0.12
11
2.39
21
0
0
LINE
8
BLACK
6
CONTINUOUS
10
2.39
20
0
11
1.96
21
0
0
LINE
8
BLACK
6
CONTINUOUS
10
1.96
20
0
11
1.96
21
0.12
0
LINE
8
BLACK
6
CONTINUOUS
10
0.01
20
0.12
11
0.44
21
0.12
0
LINE
8
BLACK
6
CONTINUOUS
10
0.44
20
0.12
11
0.44
21
0
0
LINE
8
BLACK
6
CONTINUOUS
10
0.44
20
0
11
0.01
21
0
0
LINE
8
BLACK
6
CONTINUOUS
10
0.01
20
0
11
0.01
21
0.12
0
LINE
8
BLACK
6
CONTINUOUS
10
0.01
20
0.12
11
0.44
21
0.12
0
LINE
8
BLACK
6
CONTINUOUS
10
0.44
20
0.12
11
0.44
21
0
0
LINE
8
BLACK
6
CONTINUOUS
10
0.44
20
0
11
0.01
21
0
0
LINE
8
BLACK
6
CONTINUOUS
10
0.01
20
0
11
0.01
21
0.12
0
LINE
8
BLACK
6
CONTINUOUS
10
1.96
20
0.12
11
2.39
21
0.12
0
LINE
8
BLACK
6
CONTINUOUS
10
2.39
20
0.12
11
2.39
21
0
0
LINE
8
BLACK
6
CONTINUOUS
10
2.39
20
0
11
1.96
21
0
0
LINE
8
BLACK
6
CONTINUOUS
10
1.96
20
0
11
1.96
21
0.12
0
LINE
8
BLACK
6
CONTINUOUS
10
1.96
20
0.12
11
2.39
21
0.12
0
LINE
8
BLACK
6
CONTINUOUS
10
2.39
20
0.12
11
2.39
21
0
0
LINE
8
BLACK
6
CONTINUOUS
10
2.39
20
0
11
1.96
21
0
0
LINE
8
BLACK
6
CONTINUOUS
10
1.96
20
0
11
1.96
21
0.12
0
LINE
8
BLACK
6
CONTINUOUS
10
0.01
20
0.12
11
0.44
21
0.12
0
LINE
8
BLACK
6
CONTINUOUS
10
0.44
20
0.12
11
0.44
21
0
0
LINE
8
BLACK
6
CONTINUOUS
10
0.44
20
0
11
0.01
21
0
0
LINE
8
BLACK
6
CONTINUOUS
10
0.01
20
0
11
0.01
21
0.12
0
LINE
8
BLACK
6
CONTINUOUS
10
0.01
20
0.12
11
0.44
21
0.12
0
LINE
8
BLACK
6
CONTINUOUS
10
0.44
20
0.12
11
0.44
21
0
0
LINE
8
BLACK
6
CONTINUOUS
10
0.44
20
0
11
0.01
21
0
0
LINE
8
BLACK
6
CONTINUOUS
10
0.01
20
0
11
0.01
21
0.12
0
LINE
8
BLACK
6
CONTINUOUS
10
0.41622
20
0.215039
11
0.419234
21
0.21444
0
LINE
8
BLACK
6
CONTINUOUS
10
0.419234
20
0.21444
11
0.421788
21
0.212733
0
LINE
8
BLACK
6
CONTINUOUS
10
0.421788
20
0.212733
11
0.423495
21
0.210179
0
LINE
8
BLACK
6
CONTINUOUS
10
0.423495
20
0.210179
11
0.424094
21
0.207165
0
LINE
8
BLACK
6
CONTINUOUS
10
0.424094
20
0.207165
11
0.424094
21
0.147165
0
LINE
8
BLACK
6
CONTINUOUS
10
0.424094
20
0.147165
11
0.423495
21
0.144152
0
LINE
8
BLACK
6
CONTINUOUS
10
0.423495
20
0.144152
11
0.421788
21
0.141598
0
LINE
8
BLACK
6
CONTINUOUS
10
0.421788
20
0.141598
11
0.419234
21
0.139891
0
LINE
8
BLACK
6
CONTINUOUS
10
0.419234
20
0.139891
11
0.41622
21
0.139291
0
LINE
8
BLACK
6
CONTINUOUS
10
0.41622
20
0.139291
11
0.35622
21
0.139291
0
LINE
8
BLACK
6
CONTINUOUS
10
0.35622
20
0.139291
11
0.353207
21
0.139891
0
LINE
8
BLACK
6
CONTINUOUS
10
0.353207
20
0.139891
11
0.350653
21
0.141598
0
LINE
8
BLACK
6
CONTINUOUS
10
0.350653
20
0.141598
11
0.348946
21
0.144152
0
LINE
8
BLACK
6
CONTINUOUS
10
0.348946
20
0.144152
11
0.348346
21
0.147165
0
LINE
8
BLACK
6
CONTINUOUS
10
0.348346
20
0.147165
11
0.348346
21
0.207165
0
LINE
8
BLACK
6
CONTINUOUS
10
0.348346
20
0.207165
11
0.348946
21
0.210179
0
LINE
8
BLACK
6
CONTINUOUS
10
0.348946
20
0.210179
11
0.350653
21
0.212733
0
LINE
8
BLACK
6
CONTINUOUS
10
0.350653
20
0.212733
11
0.353207
21
0.21444
0
LINE
8
BLACK
6
CONTINUOUS
10
0.353207
20
0.21444
11
0.35622
21
0.215039
0
LINE
8
BLACK
6
CONTINUOUS
10
0.35622
20
0.215039
11
0.41622
21
0.215039
0
LINE
8
BLACK
6
CONTINUOUS
10
0.31622
20
0.215039
11
0.319234
21
0.21444
0
LINE
8
BLACK
6
CONTINUOUS
10
0.319234
20
0.21444
11
0.321788
21
0.212733
0
LINE
8
BLACK
6
CONTINUOUS
10
0.321788
20
0.212733
11
0.323495
21
0.210179
0
LINE
8
BLACK
6
CONTINUOUS
10
0.323495
20
0.210179
11
0.324094
21
0.207165
0
LINE
8
BLACK
6
CONTINUOUS
10
0.324094
20
0.207165
11
0.324094
21
0.147165
0
LINE
8
BLACK
6
CONTINUOUS
10
0.324094
20
0.147165
11
0.323495
21
0.144152
0
LINE
8
BLACK
6
CONTINUOUS
10
0.323495
20
0.144152
11
0.321788
21
0.141598
0
LINE
8
BLACK
6
CONTINUOUS
10
0.321788
20
0.141598
11
0.319234
21
0.139891
0
LINE
8
BLACK
6
CONTINUOUS
10
0.319234
20
0.139891
11
0.31622
21
0.139291
0
LINE
8
BLACK
6
CONTINUOUS
10
0.31622
20
0.139291
11
0.25622
21
0.139291
0
LINE
8
BLACK
6
CONTINUOUS
10
0.25622
20
0.139291
11
0.253207
21
0.139891
0
LINE
8
BLACK
6
CONTINUOUS
10
0.253207
20
0.139891
11
0.250653
21
0.141598
0
LINE
8
BLACK
6
CONTINUOUS
10
0.250653
20
0.141598
11
0.248946
21
0.144152
0
LINE
8
BLACK
6
CONTINUOUS
10
0.248946
20
0.144152
11
0.248346
21
0.147165
0
LINE
8
BLACK
6
CONTINUOUS
10
0.248346
20
0.147165
11
0.248346
21
0.207165
0
LINE
8
BLACK
6
CONTINUOUS
10
0.248346
20
0.207165
11
0.248946
21
0.210179
0
LINE
8
BLACK
6
CONTINUOUS
10
0.248946
20
0.210179
11
0.250653
21
0.212733
0
LINE
8
BLACK
6
CONTINUOUS
10
0.250653
20
0.212733
11
0.253207
21
0.21444
0
LINE
8
BLACK
6
CONTINUOUS
10
0.253207
20
0.21444
11
0.25622
21
0.215039
0
LINE
8
BLACK
6
CONTINUOUS
10
0.25622
20
0.215039
11
0.31622
21
0.215039
0
LINE
8
BLACK
6
CONTINUOUS
10
0.21622
20
0.215039
11
0.219234
21
0.21444
0
LINE
8
BLACK
6
CONTINUOUS
10
0.219234
20
0.21444
11
0.221788
21
0.212733
0
LINE
8
BLACK
6
CONTINUOUS
10
0.221788
20
0.212733
11
0.223495
21
0.210179
0
LINE
8
BLACK
6
CONTINUOUS
10
0.223495
20
0.210179
11
0.224094
21
0.207165
0
LINE
8
BLACK
6
CONTINUOUS
10
0.224094
20
0.207165
11
0.224094
21
0.147165
0
LINE
8
BLACK
6
CONTINUOUS
10
0.224094
20
0.147165
11
0.223495
21
0.144152
0
LINE
8
BLACK
6
CONTINUOUS
10
0.223495
20
0.144152
11
0.221788
21
0.141598
0
LINE
8
BLACK
6
CONTINUOUS
10
0.221788
20
0.141598
11
0.219234
21
0.139891
0
LINE
8
BLACK
6
CONTINUOUS
10
0.219234
20
0.139891
11
0.21622
21
0.139291
0
LINE
8
BLACK
6
CONTINUOUS
10
0.21622
20
0.139291
11
0.15622
21
0.139291
0
LINE
8
BLACK
6
CONTINUOUS
10
0.15622
20
0.139291
11
0.153207
21
0.139891
0
LINE
8
BLACK
6
CONTINUOUS
10
0.153207
20
0.139891
11
0.150653
21
0.141598
0
LINE
8
BLACK
6
CONTINUOUS
10
0.150653
20
0.141598
11
0.148946
21
0.144152
0
LINE
8
BLACK
6
CONTINUOUS
10
0.148946
20
0.144152
11
0.148346
21
0.147165
0
LINE
8
BLACK
6
CONTINUOUS
10
0.148346
20
0.147165
11
0.148346
21
0.207165
0
LINE
8
BLACK
6
CONTINUOUS
10
0.148346
20
0.207165
11
0.148946
21
0.210179
0
LINE
8
BLACK
6
CONTINUOUS
10
0.148946
20
0.210179
11
0.150653
21
0.212733
0
LINE
8
BLACK
6
CONTINUOUS
10
0.150653
20
0.212733
11
0.153207
21
0.21444
0
LINE
8
BLACK
6
CONTINUOUS
10
0.153207
20
0.21444
11
0.15622
21
0.215039
0
LINE
8
BLACK
6
CONTINUOUS
10
0.15622
20
0.215039
11
0.21622
21
0.215039
0
LINE
8
BLACK
6
CONTINUOUS
10
0.11622
20
0.215039
11
0.119234
21
0.21444
0
LINE
8
BLACK
6
CONTINUOUS
10
0.119234
20
0.21444
11
0.121788
21
0.212733
0
LINE
8
BLACK
6
CONTINUOUS
10
0.121788
20
0.212733
11
0.123495
21
0.210179
0
LINE
8
BLACK
6
CONTINUOUS
10
0.123495
20
0.210179
11
0.124094
21
0.207165
0
LINE
8
BLACK
6
CONTINUOUS
10
0.124094
20
0.207165
11
0.124094
21
0.147165
0
LINE
8
BLACK
6
CONTINUOUS
10
0.124094
20
0.147165
11
0.123495
21
0.144152
0
LINE
8
BLACK
6
CONTINUOUS
10
0.123495
20
0.144152
11
0.121788
21
0.141598
0
LINE
8
BLACK
6
CONTINUOUS
10
0.121788
20
0.141598
11
0.119234
21
0.139891
0
LINE
8
BLACK
6
CONTINUOUS
10
0.119234
20
0.139891
11
0.11622
21
0.139291
0
LINE
8
BLACK
6
CONTINUOUS
10
0.11622
20
0.139291
11
0.0562205
21
0.139291
0
LINE
8
BLACK
6
CONTINUOUS
10
0.0562205
20
0.139291
11
0.0532072
21
0.139891
0
LINE
8
BLACK
6
CONTINUOUS
10
0.0532072
20
0.139891
11
0.0506527
21
0.141598
0
LINE
8
BLACK
6
CONTINUOUS
10
0.0506527
20
0.141598
11
0.0489458
21
0.144152
0
LINE
8
BLACK
6
CONTINUOUS
10
0.0489458
20
0.144152
11
0.0483465
21
0.147165
0
LINE
8
BLACK
6
CONTINUOUS
10
0.0483465
20
0.147165
11
0.0483465
21
0.207165
0
LINE
8
BLACK
6
CONTINUOUS
10
0.0483465
20
0.207165
11
0.0489458
21
0.210179
0
LINE
8
BLACK
6
CONTINUOUS
10
0.0489458
20
0.210179
11
0.0506527
21
0.212733
0
LINE
8
BLACK
6
CONTINUOUS
10
0.0506527
20
0.212733
11
0.0532072
21
0.21444
0
LINE
8
BLACK
6
CONTINUOUS
10
0.0532072
20
0.21444
11
0.0562205
21
0.215039
0
LINE
8
BLACK
6
CONTINUOUS
10
0.0562205
20
0.215039
11
0.11622
21
0.215039
0
CIRCLE
8
BLACK
10
0.747244
20
0.531496
40
0.377953
0
CIRCLE
8
BLACK
10
1.65276
20
0.531496
40
0.377953
0
CIRCLE
8
BLACK
10
0.747244
20
1.43701
40
0.377953
0
CIRCLE
8
BLACK
10
1.65276
20
1.43701
40
0.377953
0
LINE
8
BLACK
6
CONTINUOUS
10
2.34378
20
0.215039
11
2.34679
21
0.21444
0
LINE
8
BLACK
6
CONTINUOUS
10
2.34679
20
0.21444
11
2.34935
21
0.212733
0
LINE
8
BLACK
6
CONTINUOUS
10
2.34935
20
0.212733
11
2.35105
21
0.210179
0
LINE
8
BLACK
6
CONTINUOUS
10
2.35105
20
0.210179
11
2.35165
21
0.207165
0
LINE
8
BLACK
6
CONTINUOUS
10
2.35165
20
0.207165
11
2.35165
21
0.147165
0
LINE
8
BLACK
6
CONTINUOUS
10
2.35165
20
0.147165
11
2.35105
21
0.144152
0
LINE
8
BLACK
6
CONTINUOUS
10
2.35105
20
0.144152
11
2.34935
21
0.141598
0
LINE
8
BLACK
6
CONTINUOUS
10
2.34935
20
0.141598
11
2.34679
21
0.139891
0
LINE
8
BLACK
6
CONTINUOUS
10
2.34679
20
0.139891
11
2.34378
21
0.139291
0
LINE
8
BLACK
6
CONTINUOUS
10
2.34378
20
0.139291
11
2.28378
21
0.139291
0
LINE
8
BLACK
6
CONTINUOUS
10
2.28378
20
0.139291
11
2.28077
21
0.139891
0
LINE
8
BLACK
6
CONTINUOUS
10
2.28077
20
0.139891
11
2.27821
21
0.141598
0
LINE
8
BLACK
6
CONTINUOUS
10
2.27821
20
0.141598
11
2.2765
21
0.144152
0
LINE
8
BLACK
6
CONTINUOUS
10
2.2765
20
0.144152
11
2.27591
21
0.147165
0
LINE
8
BLACK
6
CONTINUOUS
10
2.27591
20
0.147165
11
2.27591
21
0.207165
0
LINE
8
BLACK
6
CONTINUOUS
10
2.27591
20
0.207165
11
2.2765
21
0.210179
0
LINE
8
BLACK
6
CONTINUOUS
10
2.2765
20
0.210179
11
2.27821
21
0.212733
0
LINE
8
BLACK
6
CONTINUOUS
10
2.27821
20
0.212733
11
2.28077
21
0.21444
0
LINE
8
BLACK
6
CONTINUOUS
10
2.28077
20
0.21444
11
2.28378
21
0.215039
0
LINE
8
BLACK
6
CONTINUOUS
10
2.28378
20
0.215039
11
2.34378
21
0.215039
0
LINE
8
BLACK
6
CONTINUOUS
10
2.24378
20
0.215039
11
2.24679
21
0.21444
0
LINE
8
BLACK
6
CONTINUOUS
10
2.24679
20
0.21444
11
2.24935
21
0.212733
0
LINE
8
BLACK
6
CONTINUOUS
10
2.24935
20
0.212733
11
2.25105
21
0.210179
0
LINE
8
BLACK
6
CONTINUOUS
10
2.25105
20
0.210179
11
2.25165
21
0.207165
0
LINE
8
BLACK
6
CONTINUOUS
10
2.25165
20
0.207165
11
2.25165
21
0.147165
0
LINE
8
BLACK
6
CONTINUOUS
10
2.25165
20
0.147165
11
2.25105
21
0.144152
0
LINE
8
BLACK
6
CONTINUOUS
10
2.25105
20
0.144152
11
2.24935
21
0.141598
0
LINE
8
BLACK
6
CONTINUOUS
10
2.24935
20
0.141598
11
2.24679
21
0.139891
0
LINE
8
BLACK
6
CONTINUOUS
10
2.24679
20
0.139891
11
2.24378
21
0.139291
0
LINE
8
BLACK
6
CONTINUOUS
10
2.24378
20
0.139291
11
2.18378
21
0.139291
0
LINE
8
BLACK
6
CONTINUOUS
10
2.18378
20
0.139291
11
2.18077
21
0.139891
0
LINE
8
BLACK
6
CONTINUOUS
10
2.18077
20
0.139891
11
2.17821
21
0.141598
0
LINE
8
BLACK
6
CONTINUOUS
10
2.17821
20
0.141598
11
2.1765
21
0.144152
0
LINE
8
BLACK
6
CONTINUOUS
10
2.1765
20
0.144152
11
2.17591
21
0.147165
0
LINE
8
BLACK
6
CONTINUOUS
10
2.17591
20
0.147165
11
2.17591
21
0.207165
0
LINE
8
BLACK
6
CONTINUOUS
10
2.17591
20
0.207165
11
2.1765
21
0.210179
0
LINE
8
BLACK
6
CONTINUOUS
10
2.1765
20
0.210179
11
2.17821
21
0.212733
0
LINE
8
BLACK
6
CONTINUOUS
10
2.17821
20
0.212733
11
2.18077
21
0.21444
0
LINE
8
BLACK
6
CONTINUOUS
10
2.18077
20
0.21444
11
2.18378
21
0.215039
0
LINE
8
BLACK
6
CONTINUOUS
10
2.18378
20
0.215039
11
2.24378
21
0.215039
0
LINE
8
BLACK
6
CONTINUOUS
10
2.14378
20
0.215039
11
2.14679
21
0.21444
0
LINE
8
BLACK
6
CONTINUOUS
10
2.14679
20
0.21444
11
2.14935
21
0.212733
0
LINE
8
BLACK
6
CONTINUOUS
10
2.14935
20
0.212733
11
2.15105
21
0.210179
0
LINE
8
BLACK
6
CONTINUOUS
10
2.15105
20
0.210179
11
2.15165
21
0.207165
0
LINE
8
BLACK
6
CONTINUOUS
10
2.15165
20
0.207165
11
2.15165
21
0.147165
0
LINE
8
BLACK
6
CONTINUOUS
10
2.15165
20
0.147165
11
2.15105
21
0.144152
0
LINE
8
BLACK
6
CONTINUOUS
10
2.15105
20
0.144152
11
2.14935
21
0.141598
0
LINE
8
BLACK
6
CONTINUOUS
10
2.14935
20
0.141598
11
2.14679
21
0.139891
0
LINE
8
BLACK
6
CONTINUOUS
10
2.14679
20
0.139891
11
2.14378
21
0.139291
0
LINE
8
BLACK
6
CONTINUOUS
10
2.14378
20
0.139291
11
2.08378
21
0.139291
0
LINE
8
BLACK
6
CONTINUOUS
10
2.08378
20
0.139291
11
2.08077
21
0.139891
0
LINE
8
BLACK
6
CONTINUOUS
10
2.08077
20
0.139891
11
2.07821
21
0.141598
0
LINE
8
BLACK
6
CONTINUOUS
10
2.07821
20
0.141598
11
2.0765
21
0.144152
0
LINE
8
BLACK
6
CONTINUOUS
10
2.0765
20
0.144152
11
2.07591
21
0.147165
0
LINE
8
BLACK
6
CONTINUOUS
10
2.07591
20
0.147165
11
2.07591
21
0.207165
0
LINE
8
BLACK
6
CONTINUOUS
10
2.07591
20
0.207165
11
2.0765
21
0.210179
0
LINE
8
BLACK
6
CONTINUOUS
10
2.0765
20
0.210179
11
2.07821
21
0.212733
0
LINE
8
BLACK
6
CONTINUOUS
10
2.07821
20
0.212733
11
2.08077
21
0.21444
0
LINE
8
BLACK
6
CONTINUOUS
10
2.08077
20
0.21444
11
2.08378
21
0.215039
0
LINE
8
BLACK
6
CONTINUOUS
10
2.08378
20
0.215039
11
2.14378
21
0.215039
0
LINE
8
BLACK
6
CONTINUOUS
10
2.04378
20
0.215039
11
2.04679
21
0.21444
0
LINE
8
BLACK
6
CONTINUOUS
10
2.04679
20
0.21444
11
2.04935
21
0.212733
0
LINE
8
BLACK
6
CONTINUOUS
10
2.04935
20
0.212733
11
2.05105
21
0.210179
0
LINE
8
BLACK
6
CONTINUOUS
10
2.05105
20
0.210179
11
2.05165
21
0.207165
0
LINE
8
BLACK
6
CONTINUOUS
10
2.05165
20
0.207165
11
2.05165
21
0.147165
0
LINE
8
BLACK
6
CONTINUOUS
10
2.05165
20
0.147165
11
2.05105
21
0.144152
0
LINE
8
BLACK
6
CONTINUOUS
10
2.05105
20
0.144152
11
2.04935
21
0.141598
0
LINE
8
BLACK
6
CONTINUOUS
10
2.04935
20
0.141598
11
2.04679
21
0.139891
0
LINE
8
BLACK
6
CONTINUOUS
10
2.04679
20
0.139891
11
2.04378
21
0.139291
0
LINE
8
BLACK
6
CONTINUOUS
10
2.04378
20
0.139291
11
1.98378
21
0.139291
0
LINE
8
BLACK
6
CONTINUOUS
10
1.98378
20
0.139291
11
1.98077
21
0.139891
0
LINE
8
BLACK
6
CONTINUOUS
10
1.98077
20
0.139891
11
1.97821
21
0.141598
0
LINE
8
BLACK
6
CONTINUOUS
10
1.97821
20
0.141598
11
1.9765
21
0.144152
0
LINE
8
BLACK
6
CONTINUOUS
10
1.9765
20
0.144152
11
1.97591
21
0.147165
0
LINE
8
BLACK
6
CONTINUOUS
10
1.97591
20
0.147165
11
1.97591
21
0.207165
0
LINE
8
BLACK
6
CONTINUOUS
10
1.97591
20
0.207165
11
1.9765
21
0.210179
0
LINE
8
BLACK
6
CONTINUOUS
10
1.9765
20
0.210179
11
1.97821
21
0.212733
0
LINE
8
BLACK
6
CONTINUOUS
10
1.97821
20
0.212733
11
1.98077
21
0.21444
0
LINE
8
BLACK
6
CONTINUOUS
10
1.98077
20
0.21444
11
1.98378
21
0.215039
0
LINE
8
BLACK
6
CONTINUOUS
10
1.98378
20
0.215039
11
2.04378
21
0.215039
  0
ENDSEC
  0
EOF
