  0
SECTION
  2
HEADER
  9
$ANGBASE
  50
0.0
  9
$ANGDIR
  70
1
  9
$MEASUREMENT
  70
0
  0
ENDSEC
  0
SECTION
  2
TABLES
  0
TABLE
  2
LTYPE
  70
4
  0
LTYPE
  5
40F
  2
CONTINUOUS
  70
0
  3
Solid line
  72
65
  73
0
  40
0.0
  0
LTYPE
  5
410
  2
DASHDOT
 70
0
  3
Dash Dot ____ _ ____ _
 72
65
 73
4
 40
2.0
 49
1.25
 49
-0.25
 49
0.25
 49
-0.25
  0
LTYPE
  5
411
  2
DASHED
 70
0
  3
Dashed __ __ __ __ __
 72
65
 73
2
 40
0.75
 49
0.5
 49
-0.25
  0
LTYPE
  5
43B
  2
DOTTED
 70
0
  3
Dotted .  .  .  .
 72
65
 73
2
 40
0.2
 49
0.0
 49
-0.2
  0
ENDTAB
  0
TABLE
  2
STYLE
  70
4
  0
STYLE
  2
KICAD
  70
0
  40
0
  41
1
  42
1
  50
0
  71
0
  3
isocp.shx
  0
STYLE
  2
KICADB
  70
0
  40
0
  41
1
  42
1
  50
0
  71
0
  3
isocp.shx
  0
STYLE
  2
KICADI
  70
0
  40
0
  41
1
  42
1
  50
15
  71
0
  3
isocp.shx
  0
STYLE
  2
KICADBI
  70
0
  40
0
  41
1
  42
1
  50
15
  71
0
  3
isocp.shx
  0
ENDTAB
  0
TABLE
  2
LAYER
  70
1
  0
LAYER
  2
BLACK
  70
0
  62
7
  6
CONTINUOUS
  0
ENDTAB
  0
ENDSEC
  0
SECTION
  2
ENTITIES
0
LINE
8
BLACK
6
CONTINUOUS
10
2.07792
20
1.01879
11
2.08197
21
1.03221
0
LINE
8
BLACK
6
CONTINUOUS
10
2.08197
20
1.03221
11
2.0875
21
1.0451
0
LINE
8
BLACK
6
CONTINUOUS
10
2.0875
20
1.0451
11
2.09442
21
1.05729
0
LINE
8
BLACK
6
CONTINUOUS
10
2.09442
20
1.05729
11
2.10267
21
1.06863
0
LINE
8
BLACK
6
CONTINUOUS
10
2.10267
20
1.06863
11
2.11212
21
1.07899
0
LINE
8
BLACK
6
CONTINUOUS
10
2.11212
20
1.07899
11
2.12267
21
1.08823
0
LINE
8
BLACK
6
CONTINUOUS
10
2.12267
20
1.08823
11
2.13419
21
1.09623
0
LINE
8
BLACK
6
CONTINUOUS
10
2.13419
20
1.09623
11
2.14652
21
1.1029
0
LINE
8
BLACK
6
CONTINUOUS
10
2.14652
20
1.1029
11
2.15952
21
1.10815
0
LINE
8
BLACK
6
CONTINUOUS
10
2.15952
20
1.10815
11
2.17303
21
1.11192
0
LINE
8
BLACK
6
CONTINUOUS
10
2.17303
20
1.11192
11
2.18687
21
1.11416
0
LINE
8
BLACK
6
CONTINUOUS
10
2.18687
20
1.11416
11
2.20088
21
1.11485
0
LINE
8
BLACK
6
CONTINUOUS
10
2.20088
20
1.11485
11
2.21487
21
1.11397
0
LINE
8
BLACK
6
CONTINUOUS
10
2.21487
20
1.11397
11
2.22868
21
1.11153
0
LINE
8
BLACK
6
CONTINUOUS
10
2.22868
20
1.11153
11
2.24213
21
1.10757
0
LINE
8
BLACK
6
CONTINUOUS
10
2.24213
20
1.10757
11
2.25506
21
1.10214
0
LINE
8
BLACK
6
CONTINUOUS
10
2.25506
20
1.10214
11
2.2673
21
1.0953
0
LINE
8
BLACK
6
CONTINUOUS
10
2.2673
20
1.0953
11
2.2787
21
1.08714
0
LINE
8
BLACK
6
CONTINUOUS
10
2.2787
20
1.08714
11
2.28912
21
1.07775
0
LINE
8
BLACK
6
CONTINUOUS
10
2.28912
20
1.07775
11
2.29843
21
1.06727
0
LINE
8
BLACK
6
CONTINUOUS
10
2.29843
20
1.06727
11
2.30651
21
1.05581
0
LINE
8
BLACK
6
CONTINUOUS
10
2.30651
20
1.05581
11
2.31327
21
1.04352
0
LINE
8
BLACK
6
CONTINUOUS
10
2.31327
20
1.04352
11
2.31861
21
1.03056
0
LINE
8
BLACK
6
CONTINUOUS
10
2.31861
20
1.03056
11
2.32248
21
1.01708
0
LINE
8
BLACK
6
CONTINUOUS
10
2.32248
20
1.01708
11
2.32482
21
1.00325
0
LINE
8
BLACK
6
CONTINUOUS
10
2.32482
20
1.00325
11
2.3256
21
0.989252
0
LINE
8
BLACK
6
CONTINUOUS
10
2.3256
20
0.989252
11
2.32555
21
0.985745
0
LINE
8
BLACK
6
CONTINUOUS
10
2.32555
20
0.985745
11
2.32438
21
0.971772
0
LINE
8
BLACK
6
CONTINUOUS
10
2.32438
20
0.971772
11
2.32165
21
0.958017
0
LINE
8
BLACK
6
CONTINUOUS
10
2.32165
20
0.958017
11
2.31741
21
0.944651
0
LINE
8
BLACK
6
CONTINUOUS
10
2.31741
20
0.944651
11
2.31171
21
0.93184
0
LINE
8
BLACK
6
CONTINUOUS
10
2.31171
20
0.93184
11
2.30461
21
0.919746
0
LINE
8
BLACK
6
CONTINUOUS
10
2.30461
20
0.919746
11
2.29622
21
0.908518
0
LINE
8
BLACK
6
CONTINUOUS
10
2.29622
20
0.908518
11
2.28662
21
0.898296
0
LINE
8
BLACK
6
CONTINUOUS
10
2.28662
20
0.898296
11
2.27594
21
0.889208
0
LINE
8
BLACK
6
CONTINUOUS
10
2.27594
20
0.889208
11
2.26431
21
0.881367
0
LINE
8
BLACK
6
CONTINUOUS
10
2.26431
20
0.881367
11
2.25189
21
0.87487
0
LINE
8
BLACK
6
CONTINUOUS
10
2.25189
20
0.87487
11
2.23881
21
0.869799
0
LINE
8
BLACK
6
CONTINUOUS
10
2.23881
20
0.869799
11
2.22526
21
0.866217
0
LINE
8
BLACK
6
CONTINUOUS
10
2.22526
20
0.866217
11
2.21138
21
0.864169
0
LINE
8
BLACK
6
CONTINUOUS
10
2.21138
20
0.864169
11
2.19737
21
0.86368
0
LINE
8
BLACK
6
CONTINUOUS
10
2.19737
20
0.86368
11
2.18339
21
0.864755
0
LINE
8
BLACK
6
CONTINUOUS
10
2.18339
20
0.864755
11
2.16961
21
0.867383
0
LINE
8
BLACK
6
CONTINUOUS
10
2.16961
20
0.867383
11
2.15622
21
0.871529
0
LINE
8
BLACK
6
CONTINUOUS
10
2.15622
20
0.871529
11
2.14337
21
0.877143
0
LINE
8
BLACK
6
CONTINUOUS
10
2.14337
20
0.877143
11
2.13123
21
0.884154
0
LINE
8
BLACK
6
CONTINUOUS
10
2.13123
20
0.884154
11
2.11994
21
0.892476
0
LINE
8
BLACK
6
CONTINUOUS
10
2.11994
20
0.892476
11
2.10965
21
0.902003
0
LINE
8
BLACK
6
CONTINUOUS
10
2.10965
20
0.902003
11
2.10049
21
0.912618
0
LINE
8
BLACK
6
CONTINUOUS
10
2.10049
20
0.912618
11
2.09257
21
0.924188
0
LINE
8
BLACK
6
CONTINUOUS
10
2.09257
20
0.924188
11
2.08598
21
0.936569
0
LINE
8
BLACK
6
CONTINUOUS
10
2.08598
20
0.936569
11
2.08082
21
0.949606
0
LINE
8
BLACK
6
CONTINUOUS
10
2.08082
20
0.949606
11
2.07714
21
0.963138
0
LINE
8
BLACK
6
CONTINUOUS
10
2.07714
20
0.963138
11
2.075
21
0.976996
0
LINE
8
BLACK
6
CONTINUOUS
10
2.075
20
0.976996
11
2.07441
21
0.991006
0
LINE
8
BLACK
6
CONTINUOUS
10
2.07441
20
0.991006
11
2.07453
21
0.992732
0
LINE
8
BLACK
6
CONTINUOUS
10
2.07453
20
0.992732
11
2.07539
21
1.00499
0
LINE
8
BLACK
6
CONTINUOUS
10
2.07539
20
1.00499
11
2.07792
21
1.01879
0
LINE
8
BLACK
6
CONTINUOUS
10
2.0914
20
0.967354
11
2.09463
21
0.955017
0
LINE
8
BLACK
6
CONTINUOUS
10
2.09463
20
0.955017
11
2.09927
21
0.943133
0
LINE
8
BLACK
6
CONTINUOUS
10
2.09927
20
0.943133
11
2.10524
21
0.931861
0
LINE
8
BLACK
6
CONTINUOUS
10
2.10524
20
0.931861
11
2.11246
21
0.92135
0
LINE
8
BLACK
6
CONTINUOUS
10
2.11246
20
0.92135
11
2.12085
21
0.911738
0
LINE
8
BLACK
6
CONTINUOUS
10
2.12085
20
0.911738
11
2.13028
21
0.903154
0
LINE
8
BLACK
6
CONTINUOUS
10
2.13028
20
0.903154
11
2.14064
21
0.895711
0
LINE
8
BLACK
6
CONTINUOUS
10
2.14064
20
0.895711
11
2.15178
21
0.889508
0
LINE
8
BLACK
6
CONTINUOUS
10
2.15178
20
0.889508
11
2.16357
21
0.884627
0
LINE
8
BLACK
6
CONTINUOUS
10
2.16357
20
0.884627
11
2.17583
21
0.881133
0
LINE
8
BLACK
6
CONTINUOUS
10
2.17583
20
0.881133
11
2.18842
21
0.879071
0
LINE
8
BLACK
6
CONTINUOUS
10
2.18842
20
0.879071
11
2.20116
21
0.878471
0
LINE
8
BLACK
6
CONTINUOUS
10
2.20116
20
0.878471
11
2.21389
21
0.879338
0
LINE
8
BLACK
6
CONTINUOUS
10
2.21389
20
0.879338
11
2.22643
21
0.881662
0
LINE
8
BLACK
6
CONTINUOUS
10
2.22643
20
0.881662
11
2.23862
21
0.885413
0
LINE
8
BLACK
6
CONTINUOUS
10
2.23862
20
0.885413
11
2.2503
21
0.89054
0
LINE
8
BLACK
6
CONTINUOUS
10
2.2503
20
0.89054
11
2.26131
21
0.896975
0
LINE
8
BLACK
6
CONTINUOUS
10
2.26131
20
0.896975
11
2.27151
21
0.904633
0
LINE
8
BLACK
6
CONTINUOUS
10
2.27151
20
0.904633
11
2.28076
21
0.913413
0
LINE
8
BLACK
6
CONTINUOUS
10
2.28076
20
0.913413
11
2.28894
21
0.923198
0
LINE
8
BLACK
6
CONTINUOUS
10
2.28894
20
0.923198
11
2.29594
21
0.933858
0
LINE
8
BLACK
6
CONTINUOUS
10
2.29594
20
0.933858
11
2.30168
21
0.945253
0
LINE
8
BLACK
6
CONTINUOUS
10
2.30168
20
0.945253
11
2.30606
21
0.957231
0
LINE
8
BLACK
6
CONTINUOUS
10
2.30606
20
0.957231
11
2.30904
21
0.969633
0
LINE
8
BLACK
6
CONTINUOUS
10
2.30904
20
0.969633
11
2.31057
21
0.982296
0
LINE
8
BLACK
6
CONTINUOUS
10
2.31057
20
0.982296
11
2.31079
21
0.989252
0
LINE
8
BLACK
6
CONTINUOUS
10
2.31079
20
0.989252
11
2.31005
21
1.00199
0
LINE
8
BLACK
6
CONTINUOUS
10
2.31005
20
1.00199
11
2.30786
21
1.01455
0
LINE
8
BLACK
6
CONTINUOUS
10
2.30786
20
1.01455
11
2.30424
21
1.02678
0
LINE
8
BLACK
6
CONTINUOUS
10
2.30424
20
1.02678
11
2.29923
21
1.03851
0
LINE
8
BLACK
6
CONTINUOUS
10
2.29923
20
1.03851
11
2.29291
21
1.04959
0
LINE
8
BLACK
6
CONTINUOUS
10
2.29291
20
1.04959
11
2.28536
21
1.05987
0
LINE
8
BLACK
6
CONTINUOUS
10
2.28536
20
1.05987
11
2.27668
21
1.06921
0
LINE
8
BLACK
6
CONTINUOUS
10
2.27668
20
1.06921
11
2.26698
21
1.0775
0
LINE
8
BLACK
6
CONTINUOUS
10
2.26698
20
1.0775
11
2.2564
21
1.08461
0
LINE
8
BLACK
6
CONTINUOUS
10
2.2564
20
1.08461
11
2.24506
21
1.09046
0
LINE
8
BLACK
6
CONTINUOUS
10
2.24506
20
1.09046
11
2.23313
21
1.09497
0
LINE
8
BLACK
6
CONTINUOUS
10
2.23313
20
1.09497
11
2.22076
21
1.09808
0
LINE
8
BLACK
6
CONTINUOUS
10
2.22076
20
1.09808
11
2.20811
21
1.09974
0
LINE
8
BLACK
6
CONTINUOUS
10
2.20811
20
1.09974
11
2.19536
21
1.09994
0
LINE
8
BLACK
6
CONTINUOUS
10
2.19536
20
1.09994
11
2.18267
21
1.09868
0
LINE
8
BLACK
6
CONTINUOUS
10
2.18267
20
1.09868
11
2.17021
21
1.09596
0
LINE
8
BLACK
6
CONTINUOUS
10
2.17021
20
1.09596
11
2.15814
21
1.09183
0
LINE
8
BLACK
6
CONTINUOUS
10
2.15814
20
1.09183
11
2.14663
21
1.08634
0
LINE
8
BLACK
6
CONTINUOUS
10
2.14663
20
1.08634
11
2.13582
21
1.07956
0
LINE
8
BLACK
6
CONTINUOUS
10
2.13582
20
1.07956
11
2.12587
21
1.07158
0
LINE
8
BLACK
6
CONTINUOUS
10
2.12587
20
1.07158
11
2.1169
21
1.06252
0
LINE
8
BLACK
6
CONTINUOUS
10
2.1169
20
1.06252
11
2.10903
21
1.05248
0
LINE
8
BLACK
6
CONTINUOUS
10
2.10903
20
1.05248
11
2.10236
21
1.0416
0
LINE
8
BLACK
6
CONTINUOUS
10
2.10236
20
1.0416
11
2.09699
21
1.03004
0
LINE
8
BLACK
6
CONTINUOUS
10
2.09699
20
1.03004
11
2.09299
21
1.01793
0
LINE
8
BLACK
6
CONTINUOUS
10
2.09299
20
1.01793
11
2.0904
21
1.00544
0
LINE
8
BLACK
6
CONTINUOUS
10
2.0904
20
1.00544
11
2.08927
21
0.992732
0
LINE
8
BLACK
6
CONTINUOUS
10
2.08927
20
0.992732
11
2.0896
21
0.979981
0
LINE
8
BLACK
6
CONTINUOUS
10
2.0896
20
0.979981
11
2.0914
21
0.967354
0
LINE
8
BLACK
6
CONTINUOUS
10
0.0779217
20
1.01879
11
0.0819746
21
1.03221
0
LINE
8
BLACK
6
CONTINUOUS
10
0.0819746
20
1.03221
11
0.0874986
21
1.0451
0
LINE
8
BLACK
6
CONTINUOUS
10
0.0874986
20
1.0451
11
0.0944248
21
1.05729
0
LINE
8
BLACK
6
CONTINUOUS
10
0.0944248
20
1.05729
11
0.102667
21
1.06863
0
LINE
8
BLACK
6
CONTINUOUS
10
0.102667
20
1.06863
11
0.112122
21
1.07899
0
LINE
8
BLACK
6
CONTINUOUS
10
0.112122
20
1.07899
11
0.122673
21
1.08823
0
LINE
8
BLACK
6
CONTINUOUS
10
0.122673
20
1.08823
11
0.134187
21
1.09623
0
LINE
8
BLACK
6
CONTINUOUS
10
0.134187
20
1.09623
11
0.146522
21
1.1029
0
LINE
8
BLACK
6
CONTINUOUS
10
0.146522
20
1.1029
11
0.159523
21
1.10815
0
LINE
8
BLACK
6
CONTINUOUS
10
0.159523
20
1.10815
11
0.173029
21
1.11192
0
LINE
8
BLACK
6
CONTINUOUS
10
0.173029
20
1.11192
11
0.186871
21
1.11416
0
LINE
8
BLACK
6
CONTINUOUS
10
0.186871
20
1.11416
11
0.200877
21
1.11485
0
LINE
8
BLACK
6
CONTINUOUS
10
0.200877
20
1.11485
11
0.214872
21
1.11397
0
LINE
8
BLACK
6
CONTINUOUS
10
0.214872
20
1.11397
11
0.228681
21
1.11153
0
LINE
8
BLACK
6
CONTINUOUS
10
0.228681
20
1.11153
11
0.242133
21
1.10757
0
LINE
8
BLACK
6
CONTINUOUS
10
0.242133
20
1.10757
11
0.255059
21
1.10214
0
LINE
8
BLACK
6
CONTINUOUS
10
0.255059
20
1.10214
11
0.2673
21
1.0953
0
LINE
8
BLACK
6
CONTINUOUS
10
0.2673
20
1.0953
11
0.278701
21
1.08714
0
LINE
8
BLACK
6
CONTINUOUS
10
0.278701
20
1.08714
11
0.289122
21
1.07775
0
LINE
8
BLACK
6
CONTINUOUS
10
0.289122
20
1.07775
11
0.298432
21
1.06727
0
LINE
8
BLACK
6
CONTINUOUS
10
0.298432
20
1.06727
11
0.306515
21
1.05581
0
LINE
8
BLACK
6
CONTINUOUS
10
0.306515
20
1.05581
11
0.31327
21
1.04352
0
LINE
8
BLACK
6
CONTINUOUS
10
0.31327
20
1.04352
11
0.318614
21
1.03056
0
LINE
8
BLACK
6
CONTINUOUS
10
0.318614
20
1.03056
11
0.322479
21
1.01708
0
LINE
8
BLACK
6
CONTINUOUS
10
0.322479
20
1.01708
11
0.324817
21
1.00325
0
LINE
8
BLACK
6
CONTINUOUS
10
0.324817
20
1.00325
11
0.3256
21
0.989252
0
LINE
8
BLACK
6
CONTINUOUS
10
0.3256
20
0.989252
11
0.325551
21
0.985745
0
LINE
8
BLACK
6
CONTINUOUS
10
0.325551
20
0.985745
11
0.324378
21
0.971772
0
LINE
8
BLACK
6
CONTINUOUS
10
0.324378
20
0.971772
11
0.321654
21
0.958017
0
LINE
8
BLACK
6
CONTINUOUS
10
0.321654
20
0.958017
11
0.317414
21
0.944651
0
LINE
8
BLACK
6
CONTINUOUS
10
0.317414
20
0.944651
11
0.311711
21
0.93184
0
LINE
8
BLACK
6
CONTINUOUS
10
0.311711
20
0.93184
11
0.304615
21
0.919746
0
LINE
8
BLACK
6
CONTINUOUS
10
0.304615
20
0.919746
11
0.296215
21
0.908518
0
LINE
8
BLACK
6
CONTINUOUS
10
0.296215
20
0.908518
11
0.286616
21
0.898296
0
LINE
8
BLACK
6
CONTINUOUS
10
0.286616
20
0.898296
11
0.275938
21
0.889208
0
LINE
8
BLACK
6
CONTINUOUS
10
0.275938
20
0.889208
11
0.264313
21
0.881367
0
LINE
8
BLACK
6
CONTINUOUS
10
0.264313
20
0.881367
11
0.251886
21
0.87487
0
LINE
8
BLACK
6
CONTINUOUS
10
0.251886
20
0.87487
11
0.238813
21
0.869799
0
LINE
8
BLACK
6
CONTINUOUS
10
0.238813
20
0.869799
11
0.225255
21
0.866217
0
LINE
8
BLACK
6
CONTINUOUS
10
0.225255
20
0.866217
11
0.211383
21
0.864169
0
LINE
8
BLACK
6
CONTINUOUS
10
0.211383
20
0.864169
11
0.19737
21
0.86368
0
LINE
8
BLACK
6
CONTINUOUS
10
0.19737
20
0.86368
11
0.183389
21
0.864755
0
LINE
8
BLACK
6
CONTINUOUS
10
0.183389
20
0.864755
11
0.169615
21
0.867383
0
LINE
8
BLACK
6
CONTINUOUS
10
0.169615
20
0.867383
11
0.156219
21
0.871529
0
LINE
8
BLACK
6
CONTINUOUS
10
0.156219
20
0.871529
11
0.14337
21
0.877143
0
LINE
8
BLACK
6
CONTINUOUS
10
0.14337
20
0.877143
11
0.131226
21
0.884154
0
LINE
8
BLACK
6
CONTINUOUS
10
0.131226
20
0.884154
11
0.11994
21
0.892476
0
LINE
8
BLACK
6
CONTINUOUS
10
0.11994
20
0.892476
11
0.109651
21
0.902003
0
LINE
8
BLACK
6
CONTINUOUS
10
0.109651
20
0.902003
11
0.100488
21
0.912618
0
LINE
8
BLACK
6
CONTINUOUS
10
0.100488
20
0.912618
11
0.0925663
21
0.924188
0
LINE
8
BLACK
6
CONTINUOUS
10
0.0925663
20
0.924188
11
0.0859831
21
0.936569
0
LINE
8
BLACK
6
CONTINUOUS
10
0.0859831
20
0.936569
11
0.0808212
21
0.949606
0
LINE
8
BLACK
6
CONTINUOUS
10
0.0808212
20
0.949606
11
0.0771446
21
0.963138
0
LINE
8
BLACK
6
CONTINUOUS
10
0.0771446
20
0.963138
11
0.0749994
21
0.976996
0
LINE
8
BLACK
6
CONTINUOUS
10
0.0749994
20
0.976996
11
0.0744122
21
0.991006
0
LINE
8
BLACK
6
CONTINUOUS
10
0.0744122
20
0.991006
11
0.074533
21
0.992732
0
LINE
8
BLACK
6
CONTINUOUS
10
0.074533
20
0.992732
11
0.0753904
21
1.00499
0
LINE
8
BLACK
6
CONTINUOUS
10
0.0753904
20
1.00499
11
0.0779217
21
1.01879
0
LINE
8
BLACK
6
CONTINUOUS
10
0.0913983
20
0.967354
11
0.0946349
21
0.955017
0
LINE
8
BLACK
6
CONTINUOUS
10
0.0946349
20
0.955017
11
0.0992681
21
0.943133
0
LINE
8
BLACK
6
CONTINUOUS
10
0.0992681
20
0.943133
11
0.105236
21
0.931861
0
LINE
8
BLACK
6
CONTINUOUS
10
0.105236
20
0.931861
11
0.112461
21
0.92135
0
LINE
8
BLACK
6
CONTINUOUS
10
0.112461
20
0.92135
11
0.120845
21
0.911738
0
LINE
8
BLACK
6
CONTINUOUS
10
0.120845
20
0.911738
11
0.130279
21
0.903154
0
LINE
8
BLACK
6
CONTINUOUS
10
0.130279
20
0.903154
11
0.140637
21
0.895711
0
LINE
8
BLACK
6
CONTINUOUS
10
0.140637
20
0.895711
11
0.151782
21
0.889508
0
LINE
8
BLACK
6
CONTINUOUS
10
0.151782
20
0.889508
11
0.163566
21
0.884627
0
LINE
8
BLACK
6
CONTINUOUS
10
0.163566
20
0.884627
11
0.175832
21
0.881133
0
LINE
8
BLACK
6
CONTINUOUS
10
0.175832
20
0.881133
11
0.18842
21
0.879071
0
LINE
8
BLACK
6
CONTINUOUS
10
0.18842
20
0.879071
11
0.20116
21
0.878471
0
LINE
8
BLACK
6
CONTINUOUS
10
0.20116
20
0.878471
11
0.213885
21
0.879338
0
LINE
8
BLACK
6
CONTINUOUS
10
0.213885
20
0.879338
11
0.226426
21
0.881662
0
LINE
8
BLACK
6
CONTINUOUS
10
0.226426
20
0.881662
11
0.238617
21
0.885413
0
LINE
8
BLACK
6
CONTINUOUS
10
0.238617
20
0.885413
11
0.250296
21
0.89054
0
LINE
8
BLACK
6
CONTINUOUS
10
0.250296
20
0.89054
11
0.261309
21
0.896975
0
LINE
8
BLACK
6
CONTINUOUS
10
0.261309
20
0.896975
11
0.271509
21
0.904633
0
LINE
8
BLACK
6
CONTINUOUS
10
0.271509
20
0.904633
11
0.280761
21
0.913413
0
LINE
8
BLACK
6
CONTINUOUS
10
0.280761
20
0.913413
11
0.288942
21
0.923198
0
LINE
8
BLACK
6
CONTINUOUS
10
0.288942
20
0.923198
11
0.295945
21
0.933858
0
LINE
8
BLACK
6
CONTINUOUS
10
0.295945
20
0.933858
11
0.301676
21
0.945253
0
LINE
8
BLACK
6
CONTINUOUS
10
0.301676
20
0.945253
11
0.306059
21
0.957231
0
LINE
8
BLACK
6
CONTINUOUS
10
0.306059
20
0.957231
11
0.309036
21
0.969633
0
LINE
8
BLACK
6
CONTINUOUS
10
0.309036
20
0.969633
11
0.310569
21
0.982296
0
LINE
8
BLACK
6
CONTINUOUS
10
0.310569
20
0.982296
11
0.310787
21
0.989252
0
LINE
8
BLACK
6
CONTINUOUS
10
0.310787
20
0.989252
11
0.310053
21
1.00199
0
LINE
8
BLACK
6
CONTINUOUS
10
0.310053
20
1.00199
11
0.30786
21
1.01455
0
LINE
8
BLACK
6
CONTINUOUS
10
0.30786
20
1.01455
11
0.304238
21
1.02678
0
LINE
8
BLACK
6
CONTINUOUS
10
0.304238
20
1.02678
11
0.299234
21
1.03851
0
LINE
8
BLACK
6
CONTINUOUS
10
0.299234
20
1.03851
11
0.292914
21
1.04959
0
LINE
8
BLACK
6
CONTINUOUS
10
0.292914
20
1.04959
11
0.285363
21
1.05987
0
LINE
8
BLACK
6
CONTINUOUS
10
0.285363
20
1.05987
11
0.276681
21
1.06921
0
LINE
8
BLACK
6
CONTINUOUS
10
0.276681
20
1.06921
11
0.266982
21
1.0775
0
LINE
8
BLACK
6
CONTINUOUS
10
0.266982
20
1.0775
11
0.256395
21
1.08461
0
LINE
8
BLACK
6
CONTINUOUS
10
0.256395
20
1.08461
11
0.245061
21
1.09046
0
LINE
8
BLACK
6
CONTINUOUS
10
0.245061
20
1.09046
11
0.23313
21
1.09497
0
LINE
8
BLACK
6
CONTINUOUS
10
0.23313
20
1.09497
11
0.220759
21
1.09808
0
LINE
8
BLACK
6
CONTINUOUS
10
0.220759
20
1.09808
11
0.208114
21
1.09974
0
LINE
8
BLACK
6
CONTINUOUS
10
0.208114
20
1.09974
11
0.195361
21
1.09994
0
LINE
8
BLACK
6
CONTINUOUS
10
0.195361
20
1.09994
11
0.182669
21
1.09868
0
LINE
8
BLACK
6
CONTINUOUS
10
0.182669
20
1.09868
11
0.170207
21
1.09596
0
LINE
8
BLACK
6
CONTINUOUS
10
0.170207
20
1.09596
11
0.15814
21
1.09183
0
LINE
8
BLACK
6
CONTINUOUS
10
0.15814
20
1.09183
11
0.146628
21
1.08634
0
LINE
8
BLACK
6
CONTINUOUS
10
0.146628
20
1.08634
11
0.135823
21
1.07956
0
LINE
8
BLACK
6
CONTINUOUS
10
0.135823
20
1.07956
11
0.125869
21
1.07158
0
LINE
8
BLACK
6
CONTINUOUS
10
0.125869
20
1.07158
11
0.116897
21
1.06252
0
LINE
8
BLACK
6
CONTINUOUS
10
0.116897
20
1.06252
11
0.109027
21
1.05248
0
LINE
8
BLACK
6
CONTINUOUS
10
0.109027
20
1.05248
11
0.102363
21
1.0416
0
LINE
8
BLACK
6
CONTINUOUS
10
0.102363
20
1.0416
11
0.0969924
21
1.03004
0
LINE
8
BLACK
6
CONTINUOUS
10
0.0969924
20
1.03004
11
0.0929876
21
1.01793
0
LINE
8
BLACK
6
CONTINUOUS
10
0.0929876
20
1.01793
11
0.0904011
21
1.00544
0
LINE
8
BLACK
6
CONTINUOUS
10
0.0904011
20
1.00544
11
0.0892672
21
0.992732
0
LINE
8
BLACK
6
CONTINUOUS
10
0.0892672
20
0.992732
11
0.0896011
21
0.979981
0
LINE
8
BLACK
6
CONTINUOUS
10
0.0896011
20
0.979981
11
0.0913983
21
0.967354
  0
ENDSEC
  0
EOF
