  0
SECTION
  2
HEADER
  9
$ANGBASE
  50
0.0
  9
$ANGDIR
  70
1
  9
$MEASUREMENT
  70
0
  0
ENDSEC
  0
SECTION
  2
TABLES
  0
TABLE
  2
LTYPE
  70
4
  0
LTYPE
  5
40F
  2
CONTINUOUS
  70
0
  3
Solid line
  72
65
  73
0
  40
0.0
  0
LTYPE
  5
410
  2
DASHDOT
 70
0
  3
Dash Dot ____ _ ____ _
 72
65
 73
4
 40
2.0
 49
1.25
 49
-0.25
 49
0.25
 49
-0.25
  0
LTYPE
  5
411
  2
DASHED
 70
0
  3
Dashed __ __ __ __ __
 72
65
 73
2
 40
0.75
 49
0.5
 49
-0.25
  0
LTYPE
  5
43B
  2
DOTTED
 70
0
  3
Dotted .  .  .  .
 72
65
 73
2
 40
0.2
 49
0.0
 49
-0.2
  0
ENDTAB
  0
TABLE
  2
STYLE
  70
4
  0
STYLE
  2
KICAD
  70
0
  40
0
  41
1
  42
1
  50
0
  71
0
  3
isocp.shx
  0
STYLE
  2
KICADB
  70
0
  40
0
  41
1
  42
1
  50
0
  71
0
  3
isocp.shx
  0
STYLE
  2
KICADI
  70
0
  40
0
  41
1
  42
1
  50
15
  71
0
  3
isocp.shx
  0
STYLE
  2
KICADBI
  70
0
  40
0
  41
1
  42
1
  50
15
  71
0
  3
isocp.shx
  0
ENDTAB
  0
TABLE
  2
LAYER
  70
1
  0
LAYER
  2
BLACK
  70
0
  62
7
  6
CONTINUOUS
  0
ENDTAB
  0
ENDSEC
  0
SECTION
  2
ENTITIES
0
LINE
8
BLACK
6
CONTINUOUS
10
2.22673
20
-0.222835
11
2.22666
21
-0.223218
0
LINE
8
BLACK
6
CONTINUOUS
10
2.22666
20
-0.223218
11
2.22669
21
-0.223347
0
LINE
8
BLACK
6
CONTINUOUS
10
2.22669
20
-0.223347
11
2.22662
21
-0.223461
0
LINE
8
BLACK
6
CONTINUOUS
10
2.22662
20
-0.223461
11
2.22655
21
-0.223845
0
LINE
8
BLACK
6
CONTINUOUS
10
2.22655
20
-0.223845
11
2.22606
21
-0.224432
0
LINE
8
BLACK
6
CONTINUOUS
10
2.22606
20
-0.224432
11
2.22568
21
-0.225097
0
LINE
8
BLACK
6
CONTINUOUS
10
2.22568
20
-0.225097
11
2.22543
21
-0.225188
0
LINE
8
BLACK
6
CONTINUOUS
10
2.22543
20
-0.225188
11
2.22526
21
-0.225392
0
LINE
8
BLACK
6
CONTINUOUS
10
2.22526
20
-0.225392
11
2.2245
21
-0.225525
0
LINE
8
BLACK
6
CONTINUOUS
10
2.2245
20
-0.225525
11
2.22378
21
-0.225787
0
LINE
8
BLACK
6
CONTINUOUS
10
2.22378
20
-0.225787
11
2.20378
21
-0.225787
0
LINE
8
BLACK
6
CONTINUOUS
10
2.20378
20
-0.225787
11
2.2034
21
-0.22572
0
LINE
8
BLACK
6
CONTINUOUS
10
2.2034
20
-0.22572
11
2.20327
21
-0.225743
0
LINE
8
BLACK
6
CONTINUOUS
10
2.20327
20
-0.225743
11
2.20315
21
-0.225677
0
LINE
8
BLACK
6
CONTINUOUS
10
2.20315
20
-0.225677
11
2.20277
21
-0.225609
0
LINE
8
BLACK
6
CONTINUOUS
10
2.20277
20
-0.225609
11
2.20218
21
-0.225116
0
LINE
8
BLACK
6
CONTINUOUS
10
2.20218
20
-0.225116
11
2.20152
21
-0.224733
0
LINE
8
BLACK
6
CONTINUOUS
10
2.20152
20
-0.224733
11
2.20143
21
-0.224482
0
LINE
8
BLACK
6
CONTINUOUS
10
2.20143
20
-0.224482
11
2.20122
21
-0.224311
0
LINE
8
BLACK
6
CONTINUOUS
10
2.20122
20
-0.224311
11
2.20109
21
-0.223555
0
LINE
8
BLACK
6
CONTINUOUS
10
2.20109
20
-0.223555
11
2.20083
21
-0.222835
0
LINE
8
BLACK
6
CONTINUOUS
10
2.20083
20
-0.222835
11
2.20083
21
0.0142126
0
LINE
8
BLACK
6
CONTINUOUS
10
2.20083
20
0.0142126
11
2.12673
21
0.0142126
0
LINE
8
BLACK
6
CONTINUOUS
10
2.12673
20
0.0142126
11
2.12673
21
-0.222835
0
LINE
8
BLACK
6
CONTINUOUS
10
2.12673
20
-0.222835
11
2.12666
21
-0.223218
0
LINE
8
BLACK
6
CONTINUOUS
10
2.12666
20
-0.223218
11
2.12669
21
-0.223347
0
LINE
8
BLACK
6
CONTINUOUS
10
2.12669
20
-0.223347
11
2.12662
21
-0.223461
0
LINE
8
BLACK
6
CONTINUOUS
10
2.12662
20
-0.223461
11
2.12655
21
-0.223845
0
LINE
8
BLACK
6
CONTINUOUS
10
2.12655
20
-0.223845
11
2.12606
21
-0.224432
0
LINE
8
BLACK
6
CONTINUOUS
10
2.12606
20
-0.224432
11
2.12568
21
-0.225097
0
LINE
8
BLACK
6
CONTINUOUS
10
2.12568
20
-0.225097
11
2.12543
21
-0.225188
0
LINE
8
BLACK
6
CONTINUOUS
10
2.12543
20
-0.225188
11
2.12526
21
-0.225392
0
LINE
8
BLACK
6
CONTINUOUS
10
2.12526
20
-0.225392
11
2.1245
21
-0.225525
0
LINE
8
BLACK
6
CONTINUOUS
10
2.1245
20
-0.225525
11
2.12378
21
-0.225787
0
LINE
8
BLACK
6
CONTINUOUS
10
2.12378
20
-0.225787
11
2.10378
21
-0.225787
0
LINE
8
BLACK
6
CONTINUOUS
10
2.10378
20
-0.225787
11
2.1034
21
-0.22572
0
LINE
8
BLACK
6
CONTINUOUS
10
2.1034
20
-0.22572
11
2.10327
21
-0.225743
0
LINE
8
BLACK
6
CONTINUOUS
10
2.10327
20
-0.225743
11
2.10315
21
-0.225677
0
LINE
8
BLACK
6
CONTINUOUS
10
2.10315
20
-0.225677
11
2.10277
21
-0.225609
0
LINE
8
BLACK
6
CONTINUOUS
10
2.10277
20
-0.225609
11
2.10218
21
-0.225116
0
LINE
8
BLACK
6
CONTINUOUS
10
2.10218
20
-0.225116
11
2.10152
21
-0.224733
0
LINE
8
BLACK
6
CONTINUOUS
10
2.10152
20
-0.224733
11
2.10143
21
-0.224482
0
LINE
8
BLACK
6
CONTINUOUS
10
2.10143
20
-0.224482
11
2.10122
21
-0.224311
0
LINE
8
BLACK
6
CONTINUOUS
10
2.10122
20
-0.224311
11
2.10109
21
-0.223555
0
LINE
8
BLACK
6
CONTINUOUS
10
2.10109
20
-0.223555
11
2.10083
21
-0.222835
0
LINE
8
BLACK
6
CONTINUOUS
10
2.10083
20
-0.222835
11
2.10083
21
0.0142126
0
LINE
8
BLACK
6
CONTINUOUS
10
2.10083
20
0.0142126
11
2.02673
21
0.0142126
0
LINE
8
BLACK
6
CONTINUOUS
10
2.02673
20
0.0142126
11
2.02673
21
-0.222835
0
LINE
8
BLACK
6
CONTINUOUS
10
2.02673
20
-0.222835
11
2.02666
21
-0.223218
0
LINE
8
BLACK
6
CONTINUOUS
10
2.02666
20
-0.223218
11
2.02669
21
-0.223347
0
LINE
8
BLACK
6
CONTINUOUS
10
2.02669
20
-0.223347
11
2.02662
21
-0.223461
0
LINE
8
BLACK
6
CONTINUOUS
10
2.02662
20
-0.223461
11
2.02655
21
-0.223845
0
LINE
8
BLACK
6
CONTINUOUS
10
2.02655
20
-0.223845
11
2.02606
21
-0.224432
0
LINE
8
BLACK
6
CONTINUOUS
10
2.02606
20
-0.224432
11
2.02568
21
-0.225097
0
LINE
8
BLACK
6
CONTINUOUS
10
2.02568
20
-0.225097
11
2.02543
21
-0.225188
0
LINE
8
BLACK
6
CONTINUOUS
10
2.02543
20
-0.225188
11
2.02526
21
-0.225392
0
LINE
8
BLACK
6
CONTINUOUS
10
2.02526
20
-0.225392
11
2.0245
21
-0.225525
0
LINE
8
BLACK
6
CONTINUOUS
10
2.0245
20
-0.225525
11
2.02378
21
-0.225787
0
LINE
8
BLACK
6
CONTINUOUS
10
2.02378
20
-0.225787
11
2.00378
21
-0.225787
0
LINE
8
BLACK
6
CONTINUOUS
10
2.00378
20
-0.225787
11
2.0034
21
-0.22572
0
LINE
8
BLACK
6
CONTINUOUS
10
2.0034
20
-0.22572
11
2.00327
21
-0.225743
0
LINE
8
BLACK
6
CONTINUOUS
10
2.00327
20
-0.225743
11
2.00315
21
-0.225677
0
LINE
8
BLACK
6
CONTINUOUS
10
2.00315
20
-0.225677
11
2.00277
21
-0.225609
0
LINE
8
BLACK
6
CONTINUOUS
10
2.00277
20
-0.225609
11
2.00218
21
-0.225116
0
LINE
8
BLACK
6
CONTINUOUS
10
2.00218
20
-0.225116
11
2.00152
21
-0.224733
0
LINE
8
BLACK
6
CONTINUOUS
10
2.00152
20
-0.224733
11
2.00143
21
-0.224482
0
LINE
8
BLACK
6
CONTINUOUS
10
2.00143
20
-0.224482
11
2.00122
21
-0.224311
0
LINE
8
BLACK
6
CONTINUOUS
10
2.00122
20
-0.224311
11
2.00109
21
-0.223555
0
LINE
8
BLACK
6
CONTINUOUS
10
2.00109
20
-0.223555
11
2.00083
21
-0.222835
0
LINE
8
BLACK
6
CONTINUOUS
10
2.00083
20
-0.222835
11
2.00083
21
0.0142126
0
LINE
8
BLACK
6
CONTINUOUS
10
2.00083
20
0.0142126
11
1.96378
21
0.0142126
0
LINE
8
BLACK
6
CONTINUOUS
10
1.96378
20
0.0142126
11
1.9634
21
0.0142802
0
LINE
8
BLACK
6
CONTINUOUS
10
1.9634
20
0.0142802
11
1.96327
21
0.0142574
0
LINE
8
BLACK
6
CONTINUOUS
10
1.96327
20
0.0142574
11
1.96315
21
0.014323
0
LINE
8
BLACK
6
CONTINUOUS
10
1.96315
20
0.014323
11
1.96277
21
0.0143907
0
LINE
8
BLACK
6
CONTINUOUS
10
1.96277
20
0.0143907
11
1.96218
21
0.0148838
0
LINE
8
BLACK
6
CONTINUOUS
10
1.96218
20
0.0148838
11
1.96152
21
0.0152674
0
LINE
8
BLACK
6
CONTINUOUS
10
1.96152
20
0.0152674
11
1.96143
21
0.0155177
0
LINE
8
BLACK
6
CONTINUOUS
10
1.96143
20
0.0155177
11
1.96122
21
0.015689
0
LINE
8
BLACK
6
CONTINUOUS
10
1.96122
20
0.015689
11
1.96109
21
0.0164445
0
LINE
8
BLACK
6
CONTINUOUS
10
1.96109
20
0.0164445
11
1.96083
21
0.0171654
0
LINE
8
BLACK
6
CONTINUOUS
10
1.96083
20
0.0171654
11
1.96083
21
0.117165
0
LINE
8
BLACK
6
CONTINUOUS
10
1.96083
20
0.117165
11
1.96089
21
0.117549
0
LINE
8
BLACK
6
CONTINUOUS
10
1.96089
20
0.117549
11
1.96087
21
0.117678
0
LINE
8
BLACK
6
CONTINUOUS
10
1.96087
20
0.117678
11
1.96094
21
0.117792
0
LINE
8
BLACK
6
CONTINUOUS
10
1.96094
20
0.117792
11
1.961
21
0.118175
0
LINE
8
BLACK
6
CONTINUOUS
10
1.961
20
0.118175
11
1.9615
21
0.118763
0
LINE
8
BLACK
6
CONTINUOUS
10
1.9615
20
0.118763
11
1.96188
21
0.119427
0
LINE
8
BLACK
6
CONTINUOUS
10
1.96188
20
0.119427
11
1.96213
21
0.119518
0
LINE
8
BLACK
6
CONTINUOUS
10
1.96213
20
0.119518
11
1.9623
21
0.119723
0
LINE
8
BLACK
6
CONTINUOUS
10
1.9623
20
0.119723
11
1.96306
21
0.119856
0
LINE
8
BLACK
6
CONTINUOUS
10
1.96306
20
0.119856
11
1.96378
21
0.120118
0
LINE
8
BLACK
6
CONTINUOUS
10
1.96378
20
0.120118
11
2.00083
21
0.120118
0
LINE
8
BLACK
6
CONTINUOUS
10
2.00083
20
0.120118
11
2.00083
21
0.137165
0
LINE
8
BLACK
6
CONTINUOUS
10
2.00083
20
0.137165
11
2.001
21
0.138175
0
LINE
8
BLACK
6
CONTINUOUS
10
2.001
20
0.138175
11
2.0023
21
0.139723
0
LINE
8
BLACK
6
CONTINUOUS
10
2.0023
20
0.139723
11
2.00429
21
0.140073
0
LINE
8
BLACK
6
CONTINUOUS
10
2.00429
20
0.140073
11
2.00604
21
0.139063
0
LINE
8
BLACK
6
CONTINUOUS
10
2.00604
20
0.139063
11
2.00673
21
0.137165
0
LINE
8
BLACK
6
CONTINUOUS
10
2.00673
20
0.137165
11
2.00673
21
0.120118
0
LINE
8
BLACK
6
CONTINUOUS
10
2.00673
20
0.120118
11
2.02083
21
0.120118
0
LINE
8
BLACK
6
CONTINUOUS
10
2.02083
20
0.120118
11
2.02083
21
0.137165
0
LINE
8
BLACK
6
CONTINUOUS
10
2.02083
20
0.137165
11
2.021
21
0.138175
0
LINE
8
BLACK
6
CONTINUOUS
10
2.021
20
0.138175
11
2.0223
21
0.139723
0
LINE
8
BLACK
6
CONTINUOUS
10
2.0223
20
0.139723
11
2.02429
21
0.140073
0
LINE
8
BLACK
6
CONTINUOUS
10
2.02429
20
0.140073
11
2.02604
21
0.139063
0
LINE
8
BLACK
6
CONTINUOUS
10
2.02604
20
0.139063
11
2.02673
21
0.137165
0
LINE
8
BLACK
6
CONTINUOUS
10
2.02673
20
0.137165
11
2.02673
21
0.120118
0
LINE
8
BLACK
6
CONTINUOUS
10
2.02673
20
0.120118
11
2.10083
21
0.120118
0
LINE
8
BLACK
6
CONTINUOUS
10
2.10083
20
0.120118
11
2.10083
21
0.137165
0
LINE
8
BLACK
6
CONTINUOUS
10
2.10083
20
0.137165
11
2.101
21
0.138175
0
LINE
8
BLACK
6
CONTINUOUS
10
2.101
20
0.138175
11
2.1023
21
0.139723
0
LINE
8
BLACK
6
CONTINUOUS
10
2.1023
20
0.139723
11
2.10429
21
0.140073
0
LINE
8
BLACK
6
CONTINUOUS
10
2.10429
20
0.140073
11
2.10604
21
0.139063
0
LINE
8
BLACK
6
CONTINUOUS
10
2.10604
20
0.139063
11
2.10673
21
0.137165
0
LINE
8
BLACK
6
CONTINUOUS
10
2.10673
20
0.137165
11
2.10673
21
0.120118
0
LINE
8
BLACK
6
CONTINUOUS
10
2.10673
20
0.120118
11
2.12083
21
0.120118
0
LINE
8
BLACK
6
CONTINUOUS
10
2.12083
20
0.120118
11
2.12083
21
0.137165
0
LINE
8
BLACK
6
CONTINUOUS
10
2.12083
20
0.137165
11
2.121
21
0.138175
0
LINE
8
BLACK
6
CONTINUOUS
10
2.121
20
0.138175
11
2.1223
21
0.139723
0
LINE
8
BLACK
6
CONTINUOUS
10
2.1223
20
0.139723
11
2.12429
21
0.140073
0
LINE
8
BLACK
6
CONTINUOUS
10
2.12429
20
0.140073
11
2.12604
21
0.139063
0
LINE
8
BLACK
6
CONTINUOUS
10
2.12604
20
0.139063
11
2.12673
21
0.137165
0
LINE
8
BLACK
6
CONTINUOUS
10
2.12673
20
0.137165
11
2.12673
21
0.120118
0
LINE
8
BLACK
6
CONTINUOUS
10
2.12673
20
0.120118
11
2.20083
21
0.120118
0
LINE
8
BLACK
6
CONTINUOUS
10
2.20083
20
0.120118
11
2.20083
21
0.137165
0
LINE
8
BLACK
6
CONTINUOUS
10
2.20083
20
0.137165
11
2.201
21
0.138175
0
LINE
8
BLACK
6
CONTINUOUS
10
2.201
20
0.138175
11
2.2023
21
0.139723
0
LINE
8
BLACK
6
CONTINUOUS
10
2.2023
20
0.139723
11
2.20429
21
0.140073
0
LINE
8
BLACK
6
CONTINUOUS
10
2.20429
20
0.140073
11
2.20604
21
0.139063
0
LINE
8
BLACK
6
CONTINUOUS
10
2.20604
20
0.139063
11
2.20673
21
0.137165
0
LINE
8
BLACK
6
CONTINUOUS
10
2.20673
20
0.137165
11
2.20673
21
0.120118
0
LINE
8
BLACK
6
CONTINUOUS
10
2.20673
20
0.120118
11
2.22083
21
0.120118
0
LINE
8
BLACK
6
CONTINUOUS
10
2.22083
20
0.120118
11
2.22083
21
0.137165
0
LINE
8
BLACK
6
CONTINUOUS
10
2.22083
20
0.137165
11
2.221
21
0.138175
0
LINE
8
BLACK
6
CONTINUOUS
10
2.221
20
0.138175
11
2.2223
21
0.139723
0
LINE
8
BLACK
6
CONTINUOUS
10
2.2223
20
0.139723
11
2.22429
21
0.140073
0
LINE
8
BLACK
6
CONTINUOUS
10
2.22429
20
0.140073
11
2.22604
21
0.139063
0
LINE
8
BLACK
6
CONTINUOUS
10
2.22604
20
0.139063
11
2.22673
21
0.137165
0
LINE
8
BLACK
6
CONTINUOUS
10
2.22673
20
0.137165
11
2.22673
21
0.120118
0
LINE
8
BLACK
6
CONTINUOUS
10
2.22673
20
0.120118
11
2.30083
21
0.120118
0
LINE
8
BLACK
6
CONTINUOUS
10
2.30083
20
0.120118
11
2.30083
21
0.137165
0
LINE
8
BLACK
6
CONTINUOUS
10
2.30083
20
0.137165
11
2.301
21
0.138175
0
LINE
8
BLACK
6
CONTINUOUS
10
2.301
20
0.138175
11
2.3023
21
0.139723
0
LINE
8
BLACK
6
CONTINUOUS
10
2.3023
20
0.139723
11
2.30429
21
0.140073
0
LINE
8
BLACK
6
CONTINUOUS
10
2.30429
20
0.140073
11
2.30604
21
0.139063
0
LINE
8
BLACK
6
CONTINUOUS
10
2.30604
20
0.139063
11
2.30673
21
0.137165
0
LINE
8
BLACK
6
CONTINUOUS
10
2.30673
20
0.137165
11
2.30673
21
0.120118
0
LINE
8
BLACK
6
CONTINUOUS
10
2.30673
20
0.120118
11
2.32083
21
0.120118
0
LINE
8
BLACK
6
CONTINUOUS
10
2.32083
20
0.120118
11
2.32083
21
0.137165
0
LINE
8
BLACK
6
CONTINUOUS
10
2.32083
20
0.137165
11
2.321
21
0.138175
0
LINE
8
BLACK
6
CONTINUOUS
10
2.321
20
0.138175
11
2.3223
21
0.139723
0
LINE
8
BLACK
6
CONTINUOUS
10
2.3223
20
0.139723
11
2.32429
21
0.140073
0
LINE
8
BLACK
6
CONTINUOUS
10
2.32429
20
0.140073
11
2.32604
21
0.139063
0
LINE
8
BLACK
6
CONTINUOUS
10
2.32604
20
0.139063
11
2.32673
21
0.137165
0
LINE
8
BLACK
6
CONTINUOUS
10
2.32673
20
0.137165
11
2.32673
21
0.120118
0
LINE
8
BLACK
6
CONTINUOUS
10
2.32673
20
0.120118
11
2.36378
21
0.120118
0
LINE
8
BLACK
6
CONTINUOUS
10
2.36378
20
0.120118
11
2.36416
21
0.12005
0
LINE
8
BLACK
6
CONTINUOUS
10
2.36416
20
0.12005
11
2.36429
21
0.120073
0
LINE
8
BLACK
6
CONTINUOUS
10
2.36429
20
0.120073
11
2.36441
21
0.120008
0
LINE
8
BLACK
6
CONTINUOUS
10
2.36441
20
0.120008
11
2.36441
21
0.120006
0
LINE
8
BLACK
6
CONTINUOUS
10
2.36441
20
0.120006
11
2.36454
21
0.120017
0
LINE
8
BLACK
6
CONTINUOUS
10
2.36454
20
0.120017
11
2.36461
21
0.119972
0
LINE
8
BLACK
6
CONTINUOUS
10
2.36461
20
0.119972
11
2.36479
21
0.11994
0
LINE
8
BLACK
6
CONTINUOUS
10
2.36479
20
0.11994
11
2.36538
21
0.119447
0
LINE
8
BLACK
6
CONTINUOUS
10
2.36538
20
0.119447
11
2.36604
21
0.119063
0
LINE
8
BLACK
6
CONTINUOUS
10
2.36604
20
0.119063
11
2.36609
21
0.118936
0
LINE
8
BLACK
6
CONTINUOUS
10
2.36609
20
0.118936
11
2.3662
21
0.118859
0
LINE
8
BLACK
6
CONTINUOUS
10
2.3662
20
0.118859
11
2.36623
21
0.118729
0
LINE
8
BLACK
6
CONTINUOUS
10
2.36623
20
0.118729
11
2.36634
21
0.118642
0
LINE
8
BLACK
6
CONTINUOUS
10
2.36634
20
0.118642
11
2.36647
21
0.117886
0
LINE
8
BLACK
6
CONTINUOUS
10
2.36647
20
0.117886
11
2.36673
21
0.117165
0
LINE
8
BLACK
6
CONTINUOUS
10
2.36673
20
0.117165
11
2.36673
21
0.0171654
0
LINE
8
BLACK
6
CONTINUOUS
10
2.36673
20
0.0171654
11
2.36666
21
0.0167818
0
LINE
8
BLACK
6
CONTINUOUS
10
2.36666
20
0.0167818
11
2.36669
21
0.0166526
0
LINE
8
BLACK
6
CONTINUOUS
10
2.36669
20
0.0166526
11
2.36662
21
0.016539
0
LINE
8
BLACK
6
CONTINUOUS
10
2.36662
20
0.016539
11
2.36662
21
0.0165305
0
LINE
8
BLACK
6
CONTINUOUS
10
2.36662
20
0.0165305
11
2.36663
21
0.0164011
0
LINE
8
BLACK
6
CONTINUOUS
10
2.36663
20
0.0164011
11
2.36659
21
0.016336
0
LINE
8
BLACK
6
CONTINUOUS
10
2.36659
20
0.016336
11
2.36655
21
0.0161554
0
LINE
8
BLACK
6
CONTINUOUS
10
2.36655
20
0.0161554
11
2.36606
21
0.0155678
0
LINE
8
BLACK
6
CONTINUOUS
10
2.36606
20
0.0155678
11
2.36568
21
0.0149034
0
LINE
8
BLACK
6
CONTINUOUS
10
2.36568
20
0.0149034
11
2.36555
21
0.0148572
0
LINE
8
BLACK
6
CONTINUOUS
10
2.36555
20
0.0148572
11
2.36547
21
0.0147466
0
LINE
8
BLACK
6
CONTINUOUS
10
2.36547
20
0.0147466
11
2.36534
21
0.0147116
0
LINE
8
BLACK
6
CONTINUOUS
10
2.36534
20
0.0147116
11
2.36526
21
0.0146082
0
LINE
8
BLACK
6
CONTINUOUS
10
2.36526
20
0.0146082
11
2.3645
21
0.014475
0
LINE
8
BLACK
6
CONTINUOUS
10
2.3645
20
0.014475
11
2.36378
21
0.0142126
0
LINE
8
BLACK
6
CONTINUOUS
10
2.36378
20
0.0142126
11
2.32673
21
0.0142126
0
LINE
8
BLACK
6
CONTINUOUS
10
2.32673
20
0.0142126
11
2.32673
21
-0.222835
0
LINE
8
BLACK
6
CONTINUOUS
10
2.32673
20
-0.222835
11
2.32666
21
-0.223218
0
LINE
8
BLACK
6
CONTINUOUS
10
2.32666
20
-0.223218
11
2.32669
21
-0.223347
0
LINE
8
BLACK
6
CONTINUOUS
10
2.32669
20
-0.223347
11
2.32662
21
-0.223461
0
LINE
8
BLACK
6
CONTINUOUS
10
2.32662
20
-0.223461
11
2.32655
21
-0.223845
0
LINE
8
BLACK
6
CONTINUOUS
10
2.32655
20
-0.223845
11
2.32606
21
-0.224432
0
LINE
8
BLACK
6
CONTINUOUS
10
2.32606
20
-0.224432
11
2.32568
21
-0.225097
0
LINE
8
BLACK
6
CONTINUOUS
10
2.32568
20
-0.225097
11
2.32543
21
-0.225188
0
LINE
8
BLACK
6
CONTINUOUS
10
2.32543
20
-0.225188
11
2.32526
21
-0.225392
0
LINE
8
BLACK
6
CONTINUOUS
10
2.32526
20
-0.225392
11
2.3245
21
-0.225525
0
LINE
8
BLACK
6
CONTINUOUS
10
2.3245
20
-0.225525
11
2.32378
21
-0.225787
0
LINE
8
BLACK
6
CONTINUOUS
10
2.32378
20
-0.225787
11
2.30378
21
-0.225787
0
LINE
8
BLACK
6
CONTINUOUS
10
2.30378
20
-0.225787
11
2.3034
21
-0.22572
0
LINE
8
BLACK
6
CONTINUOUS
10
2.3034
20
-0.22572
11
2.30327
21
-0.225743
0
LINE
8
BLACK
6
CONTINUOUS
10
2.30327
20
-0.225743
11
2.30315
21
-0.225677
0
LINE
8
BLACK
6
CONTINUOUS
10
2.30315
20
-0.225677
11
2.30277
21
-0.225609
0
LINE
8
BLACK
6
CONTINUOUS
10
2.30277
20
-0.225609
11
2.30218
21
-0.225116
0
LINE
8
BLACK
6
CONTINUOUS
10
2.30218
20
-0.225116
11
2.30152
21
-0.224733
0
LINE
8
BLACK
6
CONTINUOUS
10
2.30152
20
-0.224733
11
2.30143
21
-0.224482
0
LINE
8
BLACK
6
CONTINUOUS
10
2.30143
20
-0.224482
11
2.30122
21
-0.224311
0
LINE
8
BLACK
6
CONTINUOUS
10
2.30122
20
-0.224311
11
2.30109
21
-0.223555
0
LINE
8
BLACK
6
CONTINUOUS
10
2.30109
20
-0.223555
11
2.30083
21
-0.222835
0
LINE
8
BLACK
6
CONTINUOUS
10
2.30083
20
-0.222835
11
2.30083
21
0.0142126
0
LINE
8
BLACK
6
CONTINUOUS
10
2.30083
20
0.0142126
11
2.22673
21
0.0142126
0
LINE
8
BLACK
6
CONTINUOUS
10
2.22673
20
0.0142126
11
2.22673
21
-0.222835
0
LINE
8
BLACK
6
CONTINUOUS
10
2.30673
20
-0.219882
11
2.30678
21
-0.219882
0
LINE
8
BLACK
6
CONTINUOUS
10
2.30678
20
-0.219882
11
2.30673
21
-0.219857
0
LINE
8
BLACK
6
CONTINUOUS
10
2.30673
20
-0.219857
11
2.30673
21
-0.219882
0
LINE
8
BLACK
6
CONTINUOUS
10
2.3208
20
-0.219882
11
2.32083
21
-0.219882
0
LINE
8
BLACK
6
CONTINUOUS
10
2.32083
20
-0.219882
11
2.32083
21
-0.219838
0
LINE
8
BLACK
6
CONTINUOUS
10
2.32083
20
-0.219838
11
2.3208
21
-0.219882
0
LINE
8
BLACK
6
CONTINUOUS
10
2.20673
20
0.0142126
11
2.20673
21
-0.219882
0
LINE
8
BLACK
6
CONTINUOUS
10
2.20673
20
-0.219882
11
2.22083
21
-0.219882
0
LINE
8
BLACK
6
CONTINUOUS
10
2.22083
20
-0.219882
11
2.22083
21
0.0142126
0
LINE
8
BLACK
6
CONTINUOUS
10
2.22083
20
0.0142126
11
2.20673
21
0.0142126
0
LINE
8
BLACK
6
CONTINUOUS
10
2.10673
20
0.0142126
11
2.10673
21
-0.219882
0
LINE
8
BLACK
6
CONTINUOUS
10
2.10673
20
-0.219882
11
2.12083
21
-0.219882
0
LINE
8
BLACK
6
CONTINUOUS
10
2.12083
20
-0.219882
11
2.12083
21
0.0142126
0
LINE
8
BLACK
6
CONTINUOUS
10
2.12083
20
0.0142126
11
2.10673
21
0.0142126
0
LINE
8
BLACK
6
CONTINUOUS
10
2.00673
20
0.0142126
11
2.00673
21
-0.219882
0
LINE
8
BLACK
6
CONTINUOUS
10
2.00673
20
-0.219882
11
2.02083
21
-0.219882
0
LINE
8
BLACK
6
CONTINUOUS
10
2.02083
20
-0.219882
11
2.02083
21
0.0142126
0
LINE
8
BLACK
6
CONTINUOUS
10
2.02083
20
0.0142126
11
2.00673
21
0.0142126
0
LINE
8
BLACK
6
CONTINUOUS
10
2.31078
20
0.0142126
11
2.31104
21
0.0140633
0
LINE
8
BLACK
6
CONTINUOUS
10
2.31104
20
0.0140633
11
2.31126
21
0.0134744
0
LINE
8
BLACK
6
CONTINUOUS
10
2.31126
20
0.0134744
11
2.31188
21
0.0142126
0
LINE
8
BLACK
6
CONTINUOUS
10
2.31188
20
0.0142126
11
2.31078
21
0.0142126
0
LINE
8
BLACK
6
CONTINUOUS
10
2.31578
20
0.0142126
11
2.31604
21
0.0140633
0
LINE
8
BLACK
6
CONTINUOUS
10
2.31604
20
0.0140633
11
2.31626
21
0.0134744
0
LINE
8
BLACK
6
CONTINUOUS
10
2.31626
20
0.0134744
11
2.31688
21
0.0142126
0
LINE
8
BLACK
6
CONTINUOUS
10
2.31688
20
0.0142126
11
2.31578
21
0.0142126
0
LINE
8
BLACK
6
CONTINUOUS
10
2.30673
20
0.0142126
11
2.30673
21
0.0140422
0
LINE
8
BLACK
6
CONTINUOUS
10
2.30673
20
0.0140422
11
2.30688
21
0.0142126
0
LINE
8
BLACK
6
CONTINUOUS
10
2.30688
20
0.0142126
11
2.30673
21
0.0142126
0
LINE
8
BLACK
6
CONTINUOUS
10
2.32078
20
0.0142126
11
2.32083
21
0.0141873
0
LINE
8
BLACK
6
CONTINUOUS
10
2.32083
20
0.0141873
11
2.32083
21
0.0142126
0
LINE
8
BLACK
6
CONTINUOUS
10
2.32083
20
0.0142126
11
2.32078
21
0.0142126
0
LINE
8
BLACK
6
CONTINUOUS
10
2.27091
20
0.0201181
11
2.35665
21
0.0201181
0
LINE
8
BLACK
6
CONTINUOUS
10
2.35665
20
0.0201181
11
2.31378
21
0.0629895
0
LINE
8
BLACK
6
CONTINUOUS
10
2.31378
20
0.0629895
11
2.27091
21
0.0201181
0
LINE
8
BLACK
6
CONTINUOUS
10
2.16673
20
0.114213
11
2.16673
21
0.0201181
0
LINE
8
BLACK
6
CONTINUOUS
10
2.16673
20
0.0201181
11
2.26083
21
0.0201181
0
LINE
8
BLACK
6
CONTINUOUS
10
2.26083
20
0.0201181
11
2.26083
21
0.114213
0
LINE
8
BLACK
6
CONTINUOUS
10
2.26083
20
0.114213
11
2.16673
21
0.114213
0
LINE
8
BLACK
6
CONTINUOUS
10
2.06673
20
0.114213
11
2.06673
21
0.0201181
0
LINE
8
BLACK
6
CONTINUOUS
10
2.06673
20
0.0201181
11
2.16083
21
0.0201181
0
LINE
8
BLACK
6
CONTINUOUS
10
2.16083
20
0.0201181
11
2.16083
21
0.114213
0
LINE
8
BLACK
6
CONTINUOUS
10
2.16083
20
0.114213
11
2.06673
21
0.114213
0
LINE
8
BLACK
6
CONTINUOUS
10
1.96673
20
0.114213
11
1.96673
21
0.0201181
0
LINE
8
BLACK
6
CONTINUOUS
10
1.96673
20
0.0201181
11
2.06083
21
0.0201181
0
LINE
8
BLACK
6
CONTINUOUS
10
2.06083
20
0.0201181
11
2.06083
21
0.114213
0
LINE
8
BLACK
6
CONTINUOUS
10
2.06083
20
0.114213
11
1.96673
21
0.114213
0
LINE
8
BLACK
6
CONTINUOUS
10
2.31796
20
0.0671654
11
2.36083
21
0.0242939
0
LINE
8
BLACK
6
CONTINUOUS
10
2.36083
20
0.0242939
11
2.36083
21
0.110037
0
LINE
8
BLACK
6
CONTINUOUS
10
2.36083
20
0.110037
11
2.31796
21
0.0671654
0
LINE
8
BLACK
6
CONTINUOUS
10
2.26673
20
0.0242939
11
2.3096
21
0.0671654
0
LINE
8
BLACK
6
CONTINUOUS
10
2.3096
20
0.0671654
11
2.26673
21
0.110037
0
LINE
8
BLACK
6
CONTINUOUS
10
2.26673
20
0.110037
11
2.26673
21
0.0242939
0
LINE
8
BLACK
6
CONTINUOUS
10
2.27091
20
0.114213
11
2.31378
21
0.0713412
0
LINE
8
BLACK
6
CONTINUOUS
10
2.31378
20
0.0713412
11
2.35665
21
0.114213
0
LINE
8
BLACK
6
CONTINUOUS
10
2.35665
20
0.114213
11
2.27091
21
0.114213
0
LINE
8
BLACK
6
CONTINUOUS
10
0.299173
20
-0.222835
11
0.299106
21
-0.223218
0
LINE
8
BLACK
6
CONTINUOUS
10
0.299106
20
-0.223218
11
0.299128
21
-0.223347
0
LINE
8
BLACK
6
CONTINUOUS
10
0.299128
20
-0.223347
11
0.299063
21
-0.223461
0
LINE
8
BLACK
6
CONTINUOUS
10
0.299063
20
-0.223461
11
0.298995
21
-0.223845
0
LINE
8
BLACK
6
CONTINUOUS
10
0.298995
20
-0.223845
11
0.298502
21
-0.224432
0
LINE
8
BLACK
6
CONTINUOUS
10
0.298502
20
-0.224432
11
0.298118
21
-0.225097
0
LINE
8
BLACK
6
CONTINUOUS
10
0.298118
20
-0.225097
11
0.297868
21
-0.225188
0
LINE
8
BLACK
6
CONTINUOUS
10
0.297868
20
-0.225188
11
0.297697
21
-0.225392
0
LINE
8
BLACK
6
CONTINUOUS
10
0.297697
20
-0.225392
11
0.296941
21
-0.225525
0
LINE
8
BLACK
6
CONTINUOUS
10
0.296941
20
-0.225525
11
0.29622
21
-0.225787
0
LINE
8
BLACK
6
CONTINUOUS
10
0.29622
20
-0.225787
11
0.27622
21
-0.225787
0
LINE
8
BLACK
6
CONTINUOUS
10
0.27622
20
-0.225787
11
0.275837
21
-0.22572
0
LINE
8
BLACK
6
CONTINUOUS
10
0.275837
20
-0.22572
11
0.275708
21
-0.225743
0
LINE
8
BLACK
6
CONTINUOUS
10
0.275708
20
-0.225743
11
0.275594
21
-0.225677
0
LINE
8
BLACK
6
CONTINUOUS
10
0.275594
20
-0.225677
11
0.275211
21
-0.225609
0
LINE
8
BLACK
6
CONTINUOUS
10
0.275211
20
-0.225609
11
0.274623
21
-0.225116
0
LINE
8
BLACK
6
CONTINUOUS
10
0.274623
20
-0.225116
11
0.273959
21
-0.224733
0
LINE
8
BLACK
6
CONTINUOUS
10
0.273959
20
-0.224733
11
0.273867
21
-0.224482
0
LINE
8
BLACK
6
CONTINUOUS
10
0.273867
20
-0.224482
11
0.273663
21
-0.224311
0
LINE
8
BLACK
6
CONTINUOUS
10
0.273663
20
-0.224311
11
0.27353
21
-0.223555
0
LINE
8
BLACK
6
CONTINUOUS
10
0.27353
20
-0.223555
11
0.273268
21
-0.222835
0
LINE
8
BLACK
6
CONTINUOUS
10
0.273268
20
-0.222835
11
0.273268
21
0.0142126
0
LINE
8
BLACK
6
CONTINUOUS
10
0.273268
20
0.0142126
11
0.199173
21
0.0142126
0
LINE
8
BLACK
6
CONTINUOUS
10
0.199173
20
0.0142126
11
0.199173
21
-0.222835
0
LINE
8
BLACK
6
CONTINUOUS
10
0.199173
20
-0.222835
11
0.199106
21
-0.223218
0
LINE
8
BLACK
6
CONTINUOUS
10
0.199106
20
-0.223218
11
0.199128
21
-0.223347
0
LINE
8
BLACK
6
CONTINUOUS
10
0.199128
20
-0.223347
11
0.199063
21
-0.223461
0
LINE
8
BLACK
6
CONTINUOUS
10
0.199063
20
-0.223461
11
0.198995
21
-0.223845
0
LINE
8
BLACK
6
CONTINUOUS
10
0.198995
20
-0.223845
11
0.198502
21
-0.224432
0
LINE
8
BLACK
6
CONTINUOUS
10
0.198502
20
-0.224432
11
0.198118
21
-0.225097
0
LINE
8
BLACK
6
CONTINUOUS
10
0.198118
20
-0.225097
11
0.197868
21
-0.225188
0
LINE
8
BLACK
6
CONTINUOUS
10
0.197868
20
-0.225188
11
0.197697
21
-0.225392
0
LINE
8
BLACK
6
CONTINUOUS
10
0.197697
20
-0.225392
11
0.196941
21
-0.225525
0
LINE
8
BLACK
6
CONTINUOUS
10
0.196941
20
-0.225525
11
0.19622
21
-0.225787
0
LINE
8
BLACK
6
CONTINUOUS
10
0.19622
20
-0.225787
11
0.17622
21
-0.225787
0
LINE
8
BLACK
6
CONTINUOUS
10
0.17622
20
-0.225787
11
0.175837
21
-0.22572
0
LINE
8
BLACK
6
CONTINUOUS
10
0.175837
20
-0.22572
11
0.175708
21
-0.225743
0
LINE
8
BLACK
6
CONTINUOUS
10
0.175708
20
-0.225743
11
0.175594
21
-0.225677
0
LINE
8
BLACK
6
CONTINUOUS
10
0.175594
20
-0.225677
11
0.175211
21
-0.225609
0
LINE
8
BLACK
6
CONTINUOUS
10
0.175211
20
-0.225609
11
0.174623
21
-0.225116
0
LINE
8
BLACK
6
CONTINUOUS
10
0.174623
20
-0.225116
11
0.173959
21
-0.224733
0
LINE
8
BLACK
6
CONTINUOUS
10
0.173959
20
-0.224733
11
0.173867
21
-0.224482
0
LINE
8
BLACK
6
CONTINUOUS
10
0.173867
20
-0.224482
11
0.173663
21
-0.224311
0
LINE
8
BLACK
6
CONTINUOUS
10
0.173663
20
-0.224311
11
0.17353
21
-0.223555
0
LINE
8
BLACK
6
CONTINUOUS
10
0.17353
20
-0.223555
11
0.173268
21
-0.222835
0
LINE
8
BLACK
6
CONTINUOUS
10
0.173268
20
-0.222835
11
0.173268
21
0.0142126
0
LINE
8
BLACK
6
CONTINUOUS
10
0.173268
20
0.0142126
11
0.0991732
21
0.0142126
0
LINE
8
BLACK
6
CONTINUOUS
10
0.0991732
20
0.0142126
11
0.0991732
21
-0.222835
0
LINE
8
BLACK
6
CONTINUOUS
10
0.0991732
20
-0.222835
11
0.0991056
21
-0.223218
0
LINE
8
BLACK
6
CONTINUOUS
10
0.0991056
20
-0.223218
11
0.0991284
21
-0.223347
0
LINE
8
BLACK
6
CONTINUOUS
10
0.0991284
20
-0.223347
11
0.0990628
21
-0.223461
0
LINE
8
BLACK
6
CONTINUOUS
10
0.0990628
20
-0.223461
11
0.0989952
21
-0.223845
0
LINE
8
BLACK
6
CONTINUOUS
10
0.0989952
20
-0.223845
11
0.098502
21
-0.224432
0
LINE
8
BLACK
6
CONTINUOUS
10
0.098502
20
-0.224432
11
0.0981185
21
-0.225097
0
LINE
8
BLACK
6
CONTINUOUS
10
0.0981185
20
-0.225097
11
0.0978681
21
-0.225188
0
LINE
8
BLACK
6
CONTINUOUS
10
0.0978681
20
-0.225188
11
0.0976969
21
-0.225392
0
LINE
8
BLACK
6
CONTINUOUS
10
0.0976969
20
-0.225392
11
0.0969413
21
-0.225525
0
LINE
8
BLACK
6
CONTINUOUS
10
0.0969413
20
-0.225525
11
0.0962205
21
-0.225787
0
LINE
8
BLACK
6
CONTINUOUS
10
0.0962205
20
-0.225787
11
0.0762205
21
-0.225787
0
LINE
8
BLACK
6
CONTINUOUS
10
0.0762205
20
-0.225787
11
0.0758369
21
-0.22572
0
LINE
8
BLACK
6
CONTINUOUS
10
0.0758369
20
-0.22572
11
0.0757077
21
-0.225743
0
LINE
8
BLACK
6
CONTINUOUS
10
0.0757077
20
-0.225743
11
0.0755941
21
-0.225677
0
LINE
8
BLACK
6
CONTINUOUS
10
0.0755941
20
-0.225677
11
0.0752106
21
-0.225609
0
LINE
8
BLACK
6
CONTINUOUS
10
0.0752106
20
-0.225609
11
0.0746229
21
-0.225116
0
LINE
8
BLACK
6
CONTINUOUS
10
0.0746229
20
-0.225116
11
0.0739585
21
-0.224733
0
LINE
8
BLACK
6
CONTINUOUS
10
0.0739585
20
-0.224733
11
0.0738674
21
-0.224482
0
LINE
8
BLACK
6
CONTINUOUS
10
0.0738674
20
-0.224482
11
0.0736633
21
-0.224311
0
LINE
8
BLACK
6
CONTINUOUS
10
0.0736633
20
-0.224311
11
0.0735301
21
-0.223555
0
LINE
8
BLACK
6
CONTINUOUS
10
0.0735301
20
-0.223555
11
0.0732677
21
-0.222835
0
LINE
8
BLACK
6
CONTINUOUS
10
0.0732677
20
-0.222835
11
0.0732677
21
0.0142126
0
LINE
8
BLACK
6
CONTINUOUS
10
0.0732677
20
0.0142126
11
0.0362205
21
0.0142126
0
LINE
8
BLACK
6
CONTINUOUS
10
0.0362205
20
0.0142126
11
0.0358369
21
0.0142802
0
LINE
8
BLACK
6
CONTINUOUS
10
0.0358369
20
0.0142802
11
0.0357077
21
0.0142574
0
LINE
8
BLACK
6
CONTINUOUS
10
0.0357077
20
0.0142574
11
0.0355941
21
0.014323
0
LINE
8
BLACK
6
CONTINUOUS
10
0.0355941
20
0.014323
11
0.0352106
21
0.0143907
0
LINE
8
BLACK
6
CONTINUOUS
10
0.0352106
20
0.0143907
11
0.0346229
21
0.0148838
0
LINE
8
BLACK
6
CONTINUOUS
10
0.0346229
20
0.0148838
11
0.0339585
21
0.0152674
0
LINE
8
BLACK
6
CONTINUOUS
10
0.0339585
20
0.0152674
11
0.0338674
21
0.0155177
0
LINE
8
BLACK
6
CONTINUOUS
10
0.0338674
20
0.0155177
11
0.0336633
21
0.015689
0
LINE
8
BLACK
6
CONTINUOUS
10
0.0336633
20
0.015689
11
0.0335301
21
0.0164445
0
LINE
8
BLACK
6
CONTINUOUS
10
0.0335301
20
0.0164445
11
0.0332677
21
0.0171654
0
LINE
8
BLACK
6
CONTINUOUS
10
0.0332677
20
0.0171654
11
0.0332677
21
0.117165
0
LINE
8
BLACK
6
CONTINUOUS
10
0.0332677
20
0.117165
11
0.0333354
21
0.117549
0
LINE
8
BLACK
6
CONTINUOUS
10
0.0333354
20
0.117549
11
0.0333126
21
0.117678
0
LINE
8
BLACK
6
CONTINUOUS
10
0.0333126
20
0.117678
11
0.0333781
21
0.117792
0
LINE
8
BLACK
6
CONTINUOUS
10
0.0333781
20
0.117792
11
0.0334458
21
0.118175
0
LINE
8
BLACK
6
CONTINUOUS
10
0.0334458
20
0.118175
11
0.0339389
21
0.118763
0
LINE
8
BLACK
6
CONTINUOUS
10
0.0339389
20
0.118763
11
0.0343225
21
0.119427
0
LINE
8
BLACK
6
CONTINUOUS
10
0.0343225
20
0.119427
11
0.0345728
21
0.119518
0
LINE
8
BLACK
6
CONTINUOUS
10
0.0345728
20
0.119518
11
0.0347441
21
0.119723
0
LINE
8
BLACK
6
CONTINUOUS
10
0.0347441
20
0.119723
11
0.0354996
21
0.119856
0
LINE
8
BLACK
6
CONTINUOUS
10
0.0354996
20
0.119856
11
0.0362205
21
0.120118
0
LINE
8
BLACK
6
CONTINUOUS
10
0.0362205
20
0.120118
11
0.0732677
21
0.120118
0
LINE
8
BLACK
6
CONTINUOUS
10
0.0732677
20
0.120118
11
0.0732677
21
0.137165
0
LINE
8
BLACK
6
CONTINUOUS
10
0.0732677
20
0.137165
11
0.0734458
21
0.138175
0
LINE
8
BLACK
6
CONTINUOUS
10
0.0734458
20
0.138175
11
0.0747441
21
0.139723
0
LINE
8
BLACK
6
CONTINUOUS
10
0.0747441
20
0.139723
11
0.0767332
21
0.140073
0
LINE
8
BLACK
6
CONTINUOUS
10
0.0767332
20
0.140073
11
0.0784824
21
0.139063
0
LINE
8
BLACK
6
CONTINUOUS
10
0.0784824
20
0.139063
11
0.0791732
21
0.137165
0
LINE
8
BLACK
6
CONTINUOUS
10
0.0791732
20
0.137165
11
0.0791732
21
0.120118
0
LINE
8
BLACK
6
CONTINUOUS
10
0.0791732
20
0.120118
11
0.0932677
21
0.120118
0
LINE
8
BLACK
6
CONTINUOUS
10
0.0932677
20
0.120118
11
0.0932677
21
0.137165
0
LINE
8
BLACK
6
CONTINUOUS
10
0.0932677
20
0.137165
11
0.0934458
21
0.138175
0
LINE
8
BLACK
6
CONTINUOUS
10
0.0934458
20
0.138175
11
0.0947441
21
0.139723
0
LINE
8
BLACK
6
CONTINUOUS
10
0.0947441
20
0.139723
11
0.0967332
21
0.140073
0
LINE
8
BLACK
6
CONTINUOUS
10
0.0967332
20
0.140073
11
0.0984824
21
0.139063
0
LINE
8
BLACK
6
CONTINUOUS
10
0.0984824
20
0.139063
11
0.0991732
21
0.137165
0
LINE
8
BLACK
6
CONTINUOUS
10
0.0991732
20
0.137165
11
0.0991732
21
0.120118
0
LINE
8
BLACK
6
CONTINUOUS
10
0.0991732
20
0.120118
11
0.173268
21
0.120118
0
LINE
8
BLACK
6
CONTINUOUS
10
0.173268
20
0.120118
11
0.173268
21
0.137165
0
LINE
8
BLACK
6
CONTINUOUS
10
0.173268
20
0.137165
11
0.173446
21
0.138175
0
LINE
8
BLACK
6
CONTINUOUS
10
0.173446
20
0.138175
11
0.174744
21
0.139723
0
LINE
8
BLACK
6
CONTINUOUS
10
0.174744
20
0.139723
11
0.176733
21
0.140073
0
LINE
8
BLACK
6
CONTINUOUS
10
0.176733
20
0.140073
11
0.178482
21
0.139063
0
LINE
8
BLACK
6
CONTINUOUS
10
0.178482
20
0.139063
11
0.179173
21
0.137165
0
LINE
8
BLACK
6
CONTINUOUS
10
0.179173
20
0.137165
11
0.179173
21
0.120118
0
LINE
8
BLACK
6
CONTINUOUS
10
0.179173
20
0.120118
11
0.193268
21
0.120118
0
LINE
8
BLACK
6
CONTINUOUS
10
0.193268
20
0.120118
11
0.193268
21
0.137165
0
LINE
8
BLACK
6
CONTINUOUS
10
0.193268
20
0.137165
11
0.193446
21
0.138175
0
LINE
8
BLACK
6
CONTINUOUS
10
0.193446
20
0.138175
11
0.194744
21
0.139723
0
LINE
8
BLACK
6
CONTINUOUS
10
0.194744
20
0.139723
11
0.196733
21
0.140073
0
LINE
8
BLACK
6
CONTINUOUS
10
0.196733
20
0.140073
11
0.198482
21
0.139063
0
LINE
8
BLACK
6
CONTINUOUS
10
0.198482
20
0.139063
11
0.199173
21
0.137165
0
LINE
8
BLACK
6
CONTINUOUS
10
0.199173
20
0.137165
11
0.199173
21
0.120118
0
LINE
8
BLACK
6
CONTINUOUS
10
0.199173
20
0.120118
11
0.273268
21
0.120118
0
LINE
8
BLACK
6
CONTINUOUS
10
0.273268
20
0.120118
11
0.273268
21
0.137165
0
LINE
8
BLACK
6
CONTINUOUS
10
0.273268
20
0.137165
11
0.273446
21
0.138175
0
LINE
8
BLACK
6
CONTINUOUS
10
0.273446
20
0.138175
11
0.274744
21
0.139723
0
LINE
8
BLACK
6
CONTINUOUS
10
0.274744
20
0.139723
11
0.276733
21
0.140073
0
LINE
8
BLACK
6
CONTINUOUS
10
0.276733
20
0.140073
11
0.278482
21
0.139063
0
LINE
8
BLACK
6
CONTINUOUS
10
0.278482
20
0.139063
11
0.279173
21
0.137165
0
LINE
8
BLACK
6
CONTINUOUS
10
0.279173
20
0.137165
11
0.279173
21
0.120118
0
LINE
8
BLACK
6
CONTINUOUS
10
0.279173
20
0.120118
11
0.293268
21
0.120118
0
LINE
8
BLACK
6
CONTINUOUS
10
0.293268
20
0.120118
11
0.293268
21
0.137165
0
LINE
8
BLACK
6
CONTINUOUS
10
0.293268
20
0.137165
11
0.293446
21
0.138175
0
LINE
8
BLACK
6
CONTINUOUS
10
0.293446
20
0.138175
11
0.294744
21
0.139723
0
LINE
8
BLACK
6
CONTINUOUS
10
0.294744
20
0.139723
11
0.296733
21
0.140073
0
LINE
8
BLACK
6
CONTINUOUS
10
0.296733
20
0.140073
11
0.298482
21
0.139063
0
LINE
8
BLACK
6
CONTINUOUS
10
0.298482
20
0.139063
11
0.299173
21
0.137165
0
LINE
8
BLACK
6
CONTINUOUS
10
0.299173
20
0.137165
11
0.299173
21
0.120118
0
LINE
8
BLACK
6
CONTINUOUS
10
0.299173
20
0.120118
11
0.373268
21
0.120118
0
LINE
8
BLACK
6
CONTINUOUS
10
0.373268
20
0.120118
11
0.373268
21
0.137165
0
LINE
8
BLACK
6
CONTINUOUS
10
0.373268
20
0.137165
11
0.373446
21
0.138175
0
LINE
8
BLACK
6
CONTINUOUS
10
0.373446
20
0.138175
11
0.374744
21
0.139723
0
LINE
8
BLACK
6
CONTINUOUS
10
0.374744
20
0.139723
11
0.376733
21
0.140073
0
LINE
8
BLACK
6
CONTINUOUS
10
0.376733
20
0.140073
11
0.378482
21
0.139063
0
LINE
8
BLACK
6
CONTINUOUS
10
0.378482
20
0.139063
11
0.379173
21
0.137165
0
LINE
8
BLACK
6
CONTINUOUS
10
0.379173
20
0.137165
11
0.379173
21
0.120118
0
LINE
8
BLACK
6
CONTINUOUS
10
0.379173
20
0.120118
11
0.393268
21
0.120118
0
LINE
8
BLACK
6
CONTINUOUS
10
0.393268
20
0.120118
11
0.393268
21
0.137165
0
LINE
8
BLACK
6
CONTINUOUS
10
0.393268
20
0.137165
11
0.393446
21
0.138175
0
LINE
8
BLACK
6
CONTINUOUS
10
0.393446
20
0.138175
11
0.394744
21
0.139723
0
LINE
8
BLACK
6
CONTINUOUS
10
0.394744
20
0.139723
11
0.396733
21
0.140073
0
LINE
8
BLACK
6
CONTINUOUS
10
0.396733
20
0.140073
11
0.398482
21
0.139063
0
LINE
8
BLACK
6
CONTINUOUS
10
0.398482
20
0.139063
11
0.399173
21
0.137165
0
LINE
8
BLACK
6
CONTINUOUS
10
0.399173
20
0.137165
11
0.399173
21
0.120118
0
LINE
8
BLACK
6
CONTINUOUS
10
0.399173
20
0.120118
11
0.43622
21
0.120118
0
LINE
8
BLACK
6
CONTINUOUS
10
0.43622
20
0.120118
11
0.436604
21
0.12005
0
LINE
8
BLACK
6
CONTINUOUS
10
0.436604
20
0.12005
11
0.436733
21
0.120073
0
LINE
8
BLACK
6
CONTINUOUS
10
0.436733
20
0.120073
11
0.436847
21
0.120008
0
LINE
8
BLACK
6
CONTINUOUS
10
0.436847
20
0.120008
11
0.436855
21
0.120006
0
LINE
8
BLACK
6
CONTINUOUS
10
0.436855
20
0.120006
11
0.436985
21
0.120017
0
LINE
8
BLACK
6
CONTINUOUS
10
0.436985
20
0.120017
11
0.43705
21
0.119972
0
LINE
8
BLACK
6
CONTINUOUS
10
0.43705
20
0.119972
11
0.43723
21
0.11994
0
LINE
8
BLACK
6
CONTINUOUS
10
0.43723
20
0.11994
11
0.437818
21
0.119447
0
LINE
8
BLACK
6
CONTINUOUS
10
0.437818
20
0.119447
11
0.438482
21
0.119063
0
LINE
8
BLACK
6
CONTINUOUS
10
0.438482
20
0.119063
11
0.438529
21
0.118936
0
LINE
8
BLACK
6
CONTINUOUS
10
0.438529
20
0.118936
11
0.438639
21
0.118859
0
LINE
8
BLACK
6
CONTINUOUS
10
0.438639
20
0.118859
11
0.438674
21
0.118729
0
LINE
8
BLACK
6
CONTINUOUS
10
0.438674
20
0.118729
11
0.438778
21
0.118642
0
LINE
8
BLACK
6
CONTINUOUS
10
0.438778
20
0.118642
11
0.438911
21
0.117886
0
LINE
8
BLACK
6
CONTINUOUS
10
0.438911
20
0.117886
11
0.439173
21
0.117165
0
LINE
8
BLACK
6
CONTINUOUS
10
0.439173
20
0.117165
11
0.439173
21
0.0171654
0
LINE
8
BLACK
6
CONTINUOUS
10
0.439173
20
0.0171654
11
0.439106
21
0.0167818
0
LINE
8
BLACK
6
CONTINUOUS
10
0.439106
20
0.0167818
11
0.439128
21
0.0166526
0
LINE
8
BLACK
6
CONTINUOUS
10
0.439128
20
0.0166526
11
0.439063
21
0.016539
0
LINE
8
BLACK
6
CONTINUOUS
10
0.439063
20
0.016539
11
0.439061
21
0.0165305
0
LINE
8
BLACK
6
CONTINUOUS
10
0.439061
20
0.0165305
11
0.439073
21
0.0164011
0
LINE
8
BLACK
6
CONTINUOUS
10
0.439073
20
0.0164011
11
0.439027
21
0.016336
0
LINE
8
BLACK
6
CONTINUOUS
10
0.439027
20
0.016336
11
0.438995
21
0.0161554
0
LINE
8
BLACK
6
CONTINUOUS
10
0.438995
20
0.0161554
11
0.438502
21
0.0155678
0
LINE
8
BLACK
6
CONTINUOUS
10
0.438502
20
0.0155678
11
0.438118
21
0.0149034
0
LINE
8
BLACK
6
CONTINUOUS
10
0.438118
20
0.0149034
11
0.437992
21
0.0148572
0
LINE
8
BLACK
6
CONTINUOUS
10
0.437992
20
0.0148572
11
0.437914
21
0.0147466
0
LINE
8
BLACK
6
CONTINUOUS
10
0.437914
20
0.0147466
11
0.437784
21
0.0147116
0
LINE
8
BLACK
6
CONTINUOUS
10
0.437784
20
0.0147116
11
0.437697
21
0.0146082
0
LINE
8
BLACK
6
CONTINUOUS
10
0.437697
20
0.0146082
11
0.436941
21
0.014475
0
LINE
8
BLACK
6
CONTINUOUS
10
0.436941
20
0.014475
11
0.43622
21
0.0142126
0
LINE
8
BLACK
6
CONTINUOUS
10
0.43622
20
0.0142126
11
0.399173
21
0.0142126
0
LINE
8
BLACK
6
CONTINUOUS
10
0.399173
20
0.0142126
11
0.399173
21
-0.222835
0
LINE
8
BLACK
6
CONTINUOUS
10
0.399173
20
-0.222835
11
0.399106
21
-0.223218
0
LINE
8
BLACK
6
CONTINUOUS
10
0.399106
20
-0.223218
11
0.399128
21
-0.223347
0
LINE
8
BLACK
6
CONTINUOUS
10
0.399128
20
-0.223347
11
0.399063
21
-0.223461
0
LINE
8
BLACK
6
CONTINUOUS
10
0.399063
20
-0.223461
11
0.398995
21
-0.223845
0
LINE
8
BLACK
6
CONTINUOUS
10
0.398995
20
-0.223845
11
0.398502
21
-0.224432
0
LINE
8
BLACK
6
CONTINUOUS
10
0.398502
20
-0.224432
11
0.398118
21
-0.225097
0
LINE
8
BLACK
6
CONTINUOUS
10
0.398118
20
-0.225097
11
0.397868
21
-0.225188
0
LINE
8
BLACK
6
CONTINUOUS
10
0.397868
20
-0.225188
11
0.397697
21
-0.225392
0
LINE
8
BLACK
6
CONTINUOUS
10
0.397697
20
-0.225392
11
0.396941
21
-0.225525
0
LINE
8
BLACK
6
CONTINUOUS
10
0.396941
20
-0.225525
11
0.39622
21
-0.225787
0
LINE
8
BLACK
6
CONTINUOUS
10
0.39622
20
-0.225787
11
0.37622
21
-0.225787
0
LINE
8
BLACK
6
CONTINUOUS
10
0.37622
20
-0.225787
11
0.375837
21
-0.22572
0
LINE
8
BLACK
6
CONTINUOUS
10
0.375837
20
-0.22572
11
0.375708
21
-0.225743
0
LINE
8
BLACK
6
CONTINUOUS
10
0.375708
20
-0.225743
11
0.375594
21
-0.225677
0
LINE
8
BLACK
6
CONTINUOUS
10
0.375594
20
-0.225677
11
0.375211
21
-0.225609
0
LINE
8
BLACK
6
CONTINUOUS
10
0.375211
20
-0.225609
11
0.374623
21
-0.225116
0
LINE
8
BLACK
6
CONTINUOUS
10
0.374623
20
-0.225116
11
0.373959
21
-0.224733
0
LINE
8
BLACK
6
CONTINUOUS
10
0.373959
20
-0.224733
11
0.373867
21
-0.224482
0
LINE
8
BLACK
6
CONTINUOUS
10
0.373867
20
-0.224482
11
0.373663
21
-0.224311
0
LINE
8
BLACK
6
CONTINUOUS
10
0.373663
20
-0.224311
11
0.37353
21
-0.223555
0
LINE
8
BLACK
6
CONTINUOUS
10
0.37353
20
-0.223555
11
0.373268
21
-0.222835
0
LINE
8
BLACK
6
CONTINUOUS
10
0.373268
20
-0.222835
11
0.373268
21
0.0142126
0
LINE
8
BLACK
6
CONTINUOUS
10
0.373268
20
0.0142126
11
0.299173
21
0.0142126
0
LINE
8
BLACK
6
CONTINUOUS
10
0.299173
20
0.0142126
11
0.299173
21
-0.222835
0
LINE
8
BLACK
6
CONTINUOUS
10
0.379173
20
-0.219882
11
0.379217
21
-0.219882
0
LINE
8
BLACK
6
CONTINUOUS
10
0.379217
20
-0.219882
11
0.379173
21
-0.219857
0
LINE
8
BLACK
6
CONTINUOUS
10
0.379173
20
-0.219857
11
0.379173
21
-0.219882
0
LINE
8
BLACK
6
CONTINUOUS
10
0.393242
20
-0.219882
11
0.393268
21
-0.219882
0
LINE
8
BLACK
6
CONTINUOUS
10
0.393268
20
-0.219882
11
0.393268
21
-0.219838
0
LINE
8
BLACK
6
CONTINUOUS
10
0.393268
20
-0.219838
11
0.393242
21
-0.219882
0
LINE
8
BLACK
6
CONTINUOUS
10
0.279173
20
0.0142126
11
0.279173
21
-0.219882
0
LINE
8
BLACK
6
CONTINUOUS
10
0.279173
20
-0.219882
11
0.293268
21
-0.219882
0
LINE
8
BLACK
6
CONTINUOUS
10
0.293268
20
-0.219882
11
0.293268
21
0.0142126
0
LINE
8
BLACK
6
CONTINUOUS
10
0.293268
20
0.0142126
11
0.279173
21
0.0142126
0
LINE
8
BLACK
6
CONTINUOUS
10
0.179173
20
0.0142126
11
0.179173
21
-0.219882
0
LINE
8
BLACK
6
CONTINUOUS
10
0.179173
20
-0.219882
11
0.193268
21
-0.219882
0
LINE
8
BLACK
6
CONTINUOUS
10
0.193268
20
-0.219882
11
0.193268
21
0.0142126
0
LINE
8
BLACK
6
CONTINUOUS
10
0.193268
20
0.0142126
11
0.179173
21
0.0142126
0
LINE
8
BLACK
6
CONTINUOUS
10
0.0791732
20
0.0142126
11
0.0791732
21
-0.219882
0
LINE
8
BLACK
6
CONTINUOUS
10
0.0791732
20
-0.219882
11
0.0932677
21
-0.219882
0
LINE
8
BLACK
6
CONTINUOUS
10
0.0932677
20
-0.219882
11
0.0932677
21
0.0142126
0
LINE
8
BLACK
6
CONTINUOUS
10
0.0932677
20
0.0142126
11
0.0791732
21
0.0142126
0
LINE
8
BLACK
6
CONTINUOUS
10
0.383224
20
0.0142126
11
0.383482
21
0.0140633
0
LINE
8
BLACK
6
CONTINUOUS
10
0.383482
20
0.0140633
11
0.383697
21
0.0134744
0
LINE
8
BLACK
6
CONTINUOUS
10
0.383697
20
0.0134744
11
0.384316
21
0.0142126
0
LINE
8
BLACK
6
CONTINUOUS
10
0.384316
20
0.0142126
11
0.383224
21
0.0142126
0
LINE
8
BLACK
6
CONTINUOUS
10
0.388224
20
0.0142126
11
0.388482
21
0.0140633
0
LINE
8
BLACK
6
CONTINUOUS
10
0.388482
20
0.0140633
11
0.388697
21
0.0134744
0
LINE
8
BLACK
6
CONTINUOUS
10
0.388697
20
0.0134744
11
0.389316
21
0.0142126
0
LINE
8
BLACK
6
CONTINUOUS
10
0.389316
20
0.0142126
11
0.388224
21
0.0142126
0
LINE
8
BLACK
6
CONTINUOUS
10
0.379173
20
0.0142126
11
0.379173
21
0.0140422
0
LINE
8
BLACK
6
CONTINUOUS
10
0.379173
20
0.0140422
11
0.379316
21
0.0142126
0
LINE
8
BLACK
6
CONTINUOUS
10
0.379316
20
0.0142126
11
0.379173
21
0.0142126
0
LINE
8
BLACK
6
CONTINUOUS
10
0.393224
20
0.0142126
11
0.393268
21
0.0141873
0
LINE
8
BLACK
6
CONTINUOUS
10
0.393268
20
0.0141873
11
0.393268
21
0.0142126
0
LINE
8
BLACK
6
CONTINUOUS
10
0.393268
20
0.0142126
11
0.393224
21
0.0142126
0
LINE
8
BLACK
6
CONTINUOUS
10
0.343349
20
0.0201181
11
0.429092
21
0.0201181
0
LINE
8
BLACK
6
CONTINUOUS
10
0.429092
20
0.0201181
11
0.38622
21
0.0629895
0
LINE
8
BLACK
6
CONTINUOUS
10
0.38622
20
0.0629895
11
0.343349
21
0.0201181
0
LINE
8
BLACK
6
CONTINUOUS
10
0.239173
20
0.114213
11
0.239173
21
0.0201181
0
LINE
8
BLACK
6
CONTINUOUS
10
0.239173
20
0.0201181
11
0.333268
21
0.0201181
0
LINE
8
BLACK
6
CONTINUOUS
10
0.333268
20
0.0201181
11
0.333268
21
0.114213
0
LINE
8
BLACK
6
CONTINUOUS
10
0.333268
20
0.114213
11
0.239173
21
0.114213
0
LINE
8
BLACK
6
CONTINUOUS
10
0.139173
20
0.114213
11
0.139173
21
0.0201181
0
LINE
8
BLACK
6
CONTINUOUS
10
0.139173
20
0.0201181
11
0.233268
21
0.0201181
0
LINE
8
BLACK
6
CONTINUOUS
10
0.233268
20
0.0201181
11
0.233268
21
0.114213
0
LINE
8
BLACK
6
CONTINUOUS
10
0.233268
20
0.114213
11
0.139173
21
0.114213
0
LINE
8
BLACK
6
CONTINUOUS
10
0.0391732
20
0.114213
11
0.0391732
21
0.0201181
0
LINE
8
BLACK
6
CONTINUOUS
10
0.0391732
20
0.0201181
11
0.133268
21
0.0201181
0
LINE
8
BLACK
6
CONTINUOUS
10
0.133268
20
0.0201181
11
0.133268
21
0.114213
0
LINE
8
BLACK
6
CONTINUOUS
10
0.133268
20
0.114213
11
0.0391732
21
0.114213
0
LINE
8
BLACK
6
CONTINUOUS
10
0.390396
20
0.0671654
11
0.433268
21
0.0242939
0
LINE
8
BLACK
6
CONTINUOUS
10
0.433268
20
0.0242939
11
0.433268
21
0.110037
0
LINE
8
BLACK
6
CONTINUOUS
10
0.433268
20
0.110037
11
0.390396
21
0.0671654
0
LINE
8
BLACK
6
CONTINUOUS
10
0.339173
20
0.0242939
11
0.382045
21
0.0671654
0
LINE
8
BLACK
6
CONTINUOUS
10
0.382045
20
0.0671654
11
0.339173
21
0.110037
0
LINE
8
BLACK
6
CONTINUOUS
10
0.339173
20
0.110037
11
0.339173
21
0.0242939
0
LINE
8
BLACK
6
CONTINUOUS
10
0.343349
20
0.114213
11
0.38622
21
0.0713412
0
LINE
8
BLACK
6
CONTINUOUS
10
0.38622
20
0.0713412
11
0.429092
21
0.114213
0
LINE
8
BLACK
6
CONTINUOUS
10
0.429092
20
0.114213
11
0.343349
21
0.114213
0
LINE
8
BLACK
6
CONTINUOUS
10
0.31622
20
0.147165
11
0.25622
21
0.147165
0
LINE
8
BLACK
6
CONTINUOUS
10
0.25622
20
0.147165
11
0.25622
21
0.207165
0
LINE
8
BLACK
6
CONTINUOUS
10
0.25622
20
0.207165
11
0.31622
21
0.207165
0
LINE
8
BLACK
6
CONTINUOUS
10
0.31622
20
0.207165
11
0.31622
21
0.147165
0
LINE
8
BLACK
6
CONTINUOUS
10
0.41622
20
0.147165
11
0.35622
21
0.147165
0
LINE
8
BLACK
6
CONTINUOUS
10
0.35622
20
0.147165
11
0.35622
21
0.207165
0
LINE
8
BLACK
6
CONTINUOUS
10
0.35622
20
0.207165
11
0.41622
21
0.207165
0
LINE
8
BLACK
6
CONTINUOUS
10
0.41622
20
0.207165
11
0.41622
21
0.147165
0
LINE
8
BLACK
6
CONTINUOUS
10
2.04378
20
0.147165
11
1.98378
21
0.147165
0
LINE
8
BLACK
6
CONTINUOUS
10
1.98378
20
0.147165
11
1.98378
21
0.207165
0
LINE
8
BLACK
6
CONTINUOUS
10
1.98378
20
0.207165
11
2.04378
21
0.207165
0
LINE
8
BLACK
6
CONTINUOUS
10
2.04378
20
0.207165
11
2.04378
21
0.147165
0
LINE
8
BLACK
6
CONTINUOUS
10
2.14378
20
0.147165
11
2.08378
21
0.147165
0
LINE
8
BLACK
6
CONTINUOUS
10
2.08378
20
0.147165
11
2.08378
21
0.207165
0
LINE
8
BLACK
6
CONTINUOUS
10
2.08378
20
0.207165
11
2.14378
21
0.207165
0
LINE
8
BLACK
6
CONTINUOUS
10
2.14378
20
0.207165
11
2.14378
21
0.147165
0
LINE
8
BLACK
6
CONTINUOUS
10
2.24378
20
0.147165
11
2.18378
21
0.147165
0
LINE
8
BLACK
6
CONTINUOUS
10
2.18378
20
0.147165
11
2.18378
21
0.207165
0
LINE
8
BLACK
6
CONTINUOUS
10
2.18378
20
0.207165
11
2.24378
21
0.207165
0
LINE
8
BLACK
6
CONTINUOUS
10
2.24378
20
0.207165
11
2.24378
21
0.147165
0
LINE
8
BLACK
6
CONTINUOUS
10
2.34378
20
0.147165
11
2.28378
21
0.147165
0
LINE
8
BLACK
6
CONTINUOUS
10
2.28378
20
0.147165
11
2.28378
21
0.207165
0
LINE
8
BLACK
6
CONTINUOUS
10
2.28378
20
0.207165
11
2.34378
21
0.207165
0
LINE
8
BLACK
6
CONTINUOUS
10
2.34378
20
0.207165
11
2.34378
21
0.147165
0
LINE
8
BLACK
6
CONTINUOUS
10
0.11622
20
0.147165
11
0.0562205
21
0.147165
0
LINE
8
BLACK
6
CONTINUOUS
10
0.0562205
20
0.147165
11
0.0562205
21
0.207165
0
LINE
8
BLACK
6
CONTINUOUS
10
0.0562205
20
0.207165
11
0.11622
21
0.207165
0
LINE
8
BLACK
6
CONTINUOUS
10
0.11622
20
0.207165
11
0.11622
21
0.147165
0
LINE
8
BLACK
6
CONTINUOUS
10
0.21622
20
0.147165
11
0.15622
21
0.147165
0
LINE
8
BLACK
6
CONTINUOUS
10
0.15622
20
0.147165
11
0.15622
21
0.207165
0
LINE
8
BLACK
6
CONTINUOUS
10
0.15622
20
0.207165
11
0.21622
21
0.207165
0
LINE
8
BLACK
6
CONTINUOUS
10
0.21622
20
0.207165
11
0.21622
21
0.147165
0
LINE
8
BLACK
6
CONTINUOUS
10
2.16244
20
1.22
11
2.16461
21
1.21783
0
LINE
8
BLACK
6
CONTINUOUS
10
2.16461
20
1.21783
11
2.1654
21
1.21488
0
LINE
8
BLACK
6
CONTINUOUS
10
2.1654
20
1.21488
11
2.1654
21
1.21235
0
LINE
8
BLACK
6
CONTINUOUS
10
2.1654
20
1.21235
11
2.17918
21
1.21235
0
LINE
8
BLACK
6
CONTINUOUS
10
2.17918
20
1.21235
11
2.18213
21
1.21156
0
LINE
8
BLACK
6
CONTINUOUS
10
2.18213
20
1.21156
11
2.18429
21
1.2094
0
LINE
8
BLACK
6
CONTINUOUS
10
2.18429
20
1.2094
11
2.18508
21
1.20645
0
LINE
8
BLACK
6
CONTINUOUS
10
2.18508
20
1.20645
11
2.18429
21
1.20349
0
LINE
8
BLACK
6
CONTINUOUS
10
2.18429
20
1.20349
11
2.18213
21
1.20133
0
LINE
8
BLACK
6
CONTINUOUS
10
2.18213
20
1.20133
11
2.17918
21
1.20054
0
LINE
8
BLACK
6
CONTINUOUS
10
2.17918
20
1.20054
11
2.1654
21
1.20054
0
LINE
8
BLACK
6
CONTINUOUS
10
2.1654
20
1.20054
11
2.1654
21
1.17832
0
LINE
8
BLACK
6
CONTINUOUS
10
2.1654
20
1.17832
11
2.16515
21
1.17741
0
LINE
8
BLACK
6
CONTINUOUS
10
2.16515
20
1.17741
11
2.16509
21
1.17646
0
LINE
8
BLACK
6
CONTINUOUS
10
2.16509
20
1.17646
11
2.16476
21
1.17595
0
LINE
8
BLACK
6
CONTINUOUS
10
2.16476
20
1.17595
11
2.16461
21
1.17537
0
LINE
8
BLACK
6
CONTINUOUS
10
2.16461
20
1.17537
11
2.16393
21
1.1747
0
LINE
8
BLACK
6
CONTINUOUS
10
2.16393
20
1.1747
11
2.16341
21
1.17391
0
LINE
8
BLACK
6
CONTINUOUS
10
2.16341
20
1.17391
11
2.16287
21
1.17364
0
LINE
8
BLACK
6
CONTINUOUS
10
2.16287
20
1.17364
11
2.16244
21
1.17321
0
LINE
8
BLACK
6
CONTINUOUS
10
2.16244
20
1.17321
11
2.16153
21
1.17296
0
LINE
8
BLACK
6
CONTINUOUS
10
2.16153
20
1.17296
11
2.16067
21
1.17254
0
LINE
8
BLACK
6
CONTINUOUS
10
2.16067
20
1.17254
11
2.16007
21
1.17257
0
LINE
8
BLACK
6
CONTINUOUS
10
2.16007
20
1.17257
11
2.15949
21
1.17242
0
LINE
8
BLACK
6
CONTINUOUS
10
2.15949
20
1.17242
11
2.15857
21
1.17266
0
LINE
8
BLACK
6
CONTINUOUS
10
2.15857
20
1.17266
11
2.15762
21
1.17272
0
LINE
8
BLACK
6
CONTINUOUS
10
2.15762
20
1.17272
11
2.11544
21
1.18678
0
LINE
8
BLACK
6
CONTINUOUS
10
2.11544
20
1.18678
11
2.11289
21
1.18847
0
LINE
8
BLACK
6
CONTINUOUS
10
2.11289
20
1.18847
11
2.11152
21
1.1912
0
LINE
8
BLACK
6
CONTINUOUS
10
2.11152
20
1.1912
11
2.11171
21
1.19425
0
LINE
8
BLACK
6
CONTINUOUS
10
2.11171
20
1.19425
11
2.11339
21
1.1968
0
LINE
8
BLACK
6
CONTINUOUS
10
2.11339
20
1.1968
11
2.11612
21
1.19817
0
LINE
8
BLACK
6
CONTINUOUS
10
2.11612
20
1.19817
11
2.11918
21
1.19799
0
LINE
8
BLACK
6
CONTINUOUS
10
2.11918
20
1.19799
11
2.15359
21
1.18652
0
LINE
8
BLACK
6
CONTINUOUS
10
2.15359
20
1.18652
11
2.15359
21
1.20054
0
LINE
8
BLACK
6
CONTINUOUS
10
2.15359
20
1.20054
11
2.13981
21
1.20054
0
LINE
8
BLACK
6
CONTINUOUS
10
2.13981
20
1.20054
11
2.13685
21
1.20133
0
LINE
8
BLACK
6
CONTINUOUS
10
2.13685
20
1.20133
11
2.13469
21
1.20349
0
LINE
8
BLACK
6
CONTINUOUS
10
2.13469
20
1.20349
11
2.1339
21
1.20645
0
LINE
8
BLACK
6
CONTINUOUS
10
2.1339
20
1.20645
11
2.13469
21
1.2094
0
LINE
8
BLACK
6
CONTINUOUS
10
2.13469
20
1.2094
11
2.13685
21
1.21156
0
LINE
8
BLACK
6
CONTINUOUS
10
2.13685
20
1.21156
11
2.13981
21
1.21235
0
LINE
8
BLACK
6
CONTINUOUS
10
2.13981
20
1.21235
11
2.15359
21
1.21235
0
LINE
8
BLACK
6
CONTINUOUS
10
2.15359
20
1.21235
11
2.15359
21
1.21488
0
LINE
8
BLACK
6
CONTINUOUS
10
2.15359
20
1.21488
11
2.15438
21
1.21783
0
LINE
8
BLACK
6
CONTINUOUS
10
2.15438
20
1.21783
11
2.15654
21
1.22
0
LINE
8
BLACK
6
CONTINUOUS
10
2.15654
20
1.22
11
2.15949
21
1.22079
0
LINE
8
BLACK
6
CONTINUOUS
10
2.15949
20
1.22079
11
2.16244
21
1.22
0
LINE
8
BLACK
6
CONTINUOUS
10
2.18179
20
1.27642
11
2.18409
21
1.2744
0
LINE
8
BLACK
6
CONTINUOUS
10
2.18409
20
1.2744
11
2.18507
21
1.2715
0
LINE
8
BLACK
6
CONTINUOUS
10
2.18507
20
1.2715
11
2.18447
21
1.26851
0
LINE
8
BLACK
6
CONTINUOUS
10
2.18447
20
1.26851
11
2.18245
21
1.26621
0
LINE
8
BLACK
6
CONTINUOUS
10
2.18245
20
1.26621
11
2.16029
21
1.25144
0
LINE
8
BLACK
6
CONTINUOUS
10
2.16029
20
1.25144
11
2.18245
21
1.23667
0
LINE
8
BLACK
6
CONTINUOUS
10
2.18245
20
1.23667
11
2.18447
21
1.23437
0
LINE
8
BLACK
6
CONTINUOUS
10
2.18447
20
1.23437
11
2.18507
21
1.23137
0
LINE
8
BLACK
6
CONTINUOUS
10
2.18507
20
1.23137
11
2.18409
21
1.22848
0
LINE
8
BLACK
6
CONTINUOUS
10
2.18409
20
1.22848
11
2.18179
21
1.22646
0
LINE
8
BLACK
6
CONTINUOUS
10
2.18179
20
1.22646
11
2.1788
21
1.22586
0
LINE
8
BLACK
6
CONTINUOUS
10
2.1788
20
1.22586
11
2.1759
21
1.22684
0
LINE
8
BLACK
6
CONTINUOUS
10
2.1759
20
1.22684
11
2.14965
21
1.24434
0
LINE
8
BLACK
6
CONTINUOUS
10
2.14965
20
1.24434
11
2.1234
21
1.22684
0
LINE
8
BLACK
6
CONTINUOUS
10
2.1234
20
1.22684
11
2.1205
21
1.22586
0
LINE
8
BLACK
6
CONTINUOUS
10
2.1205
20
1.22586
11
2.1175
21
1.22646
0
LINE
8
BLACK
6
CONTINUOUS
10
2.1175
20
1.22646
11
2.11521
21
1.22848
0
LINE
8
BLACK
6
CONTINUOUS
10
2.11521
20
1.22848
11
2.11423
21
1.23137
0
LINE
8
BLACK
6
CONTINUOUS
10
2.11423
20
1.23137
11
2.11483
21
1.23437
0
LINE
8
BLACK
6
CONTINUOUS
10
2.11483
20
1.23437
11
2.11685
21
1.23667
0
LINE
8
BLACK
6
CONTINUOUS
10
2.11685
20
1.23667
11
2.139
21
1.25144
0
LINE
8
BLACK
6
CONTINUOUS
10
2.139
20
1.25144
11
2.11685
21
1.26621
0
LINE
8
BLACK
6
CONTINUOUS
10
2.11685
20
1.26621
11
2.11483
21
1.26851
0
LINE
8
BLACK
6
CONTINUOUS
10
2.11483
20
1.26851
11
2.11423
21
1.2715
0
LINE
8
BLACK
6
CONTINUOUS
10
2.11423
20
1.2715
11
2.11521
21
1.2744
0
LINE
8
BLACK
6
CONTINUOUS
10
2.11521
20
1.2744
11
2.1175
21
1.27642
0
LINE
8
BLACK
6
CONTINUOUS
10
2.1175
20
1.27642
11
2.1205
21
1.27702
0
LINE
8
BLACK
6
CONTINUOUS
10
2.1205
20
1.27702
11
2.1234
21
1.27604
0
LINE
8
BLACK
6
CONTINUOUS
10
2.1234
20
1.27604
11
2.14965
21
1.25854
0
LINE
8
BLACK
6
CONTINUOUS
10
2.14965
20
1.25854
11
2.1759
21
1.27604
0
LINE
8
BLACK
6
CONTINUOUS
10
2.1759
20
1.27604
11
2.1788
21
1.27702
0
LINE
8
BLACK
6
CONTINUOUS
10
2.1788
20
1.27702
11
2.18179
21
1.27642
0
LINE
8
BLACK
6
CONTINUOUS
10
0.182129
20
1.31435
11
0.18429
21
1.31219
0
LINE
8
BLACK
6
CONTINUOUS
10
0.18429
20
1.31219
11
0.185082
21
1.30924
0
LINE
8
BLACK
6
CONTINUOUS
10
0.185082
20
1.30924
11
0.18429
21
1.30628
0
LINE
8
BLACK
6
CONTINUOUS
10
0.18429
20
1.30628
11
0.182129
21
1.30412
0
LINE
8
BLACK
6
CONTINUOUS
10
0.182129
20
1.30412
11
0.179176
21
1.30333
0
LINE
8
BLACK
6
CONTINUOUS
10
0.179176
20
1.30333
11
0.14674
21
1.30333
0
LINE
8
BLACK
6
CONTINUOUS
10
0.14674
20
1.30333
11
0.164801
21
1.2949
0
LINE
8
BLACK
6
CONTINUOUS
10
0.164801
20
1.2949
11
0.165199
21
1.29457
0
LINE
8
BLACK
6
CONTINUOUS
10
0.165199
20
1.29457
11
0.165689
21
1.29439
0
LINE
8
BLACK
6
CONTINUOUS
10
0.165689
20
1.29439
11
0.166352
21
1.2936
0
LINE
8
BLACK
6
CONTINUOUS
10
0.166352
20
1.2936
11
0.167142
21
1.29294
0
LINE
8
BLACK
6
CONTINUOUS
10
0.167142
20
1.29294
11
0.16732
21
1.29245
0
LINE
8
BLACK
6
CONTINUOUS
10
0.16732
20
1.29245
11
0.167655
21
1.29205
0
LINE
8
BLACK
6
CONTINUOUS
10
0.167655
20
1.29205
11
0.167834
21
1.29103
0
LINE
8
BLACK
6
CONTINUOUS
10
0.167834
20
1.29103
11
0.168186
21
1.29006
0
LINE
8
BLACK
6
CONTINUOUS
10
0.168186
20
1.29006
11
0.168096
21
1.28955
0
LINE
8
BLACK
6
CONTINUOUS
10
0.168096
20
1.28955
11
0.168186
21
1.28904
0
LINE
8
BLACK
6
CONTINUOUS
10
0.168186
20
1.28904
11
0.167834
21
1.28807
0
LINE
8
BLACK
6
CONTINUOUS
10
0.167834
20
1.28807
11
0.167655
21
1.28705
0
LINE
8
BLACK
6
CONTINUOUS
10
0.167655
20
1.28705
11
0.16732
21
1.28665
0
LINE
8
BLACK
6
CONTINUOUS
10
0.16732
20
1.28665
11
0.167142
21
1.28616
0
LINE
8
BLACK
6
CONTINUOUS
10
0.167142
20
1.28616
11
0.166352
21
1.2855
0
LINE
8
BLACK
6
CONTINUOUS
10
0.166352
20
1.2855
11
0.165689
21
1.28471
0
LINE
8
BLACK
6
CONTINUOUS
10
0.165689
20
1.28471
11
0.165199
21
1.28453
0
LINE
8
BLACK
6
CONTINUOUS
10
0.165199
20
1.28453
11
0.164801
21
1.2842
0
LINE
8
BLACK
6
CONTINUOUS
10
0.164801
20
1.2842
11
0.14674
21
1.27577
0
LINE
8
BLACK
6
CONTINUOUS
10
0.14674
20
1.27577
11
0.179176
21
1.27577
0
LINE
8
BLACK
6
CONTINUOUS
10
0.179176
20
1.27577
11
0.182129
21
1.27498
0
LINE
8
BLACK
6
CONTINUOUS
10
0.182129
20
1.27498
11
0.18429
21
1.27282
0
LINE
8
BLACK
6
CONTINUOUS
10
0.18429
20
1.27282
11
0.185082
21
1.26987
0
LINE
8
BLACK
6
CONTINUOUS
10
0.185082
20
1.26987
11
0.18429
21
1.26691
0
LINE
8
BLACK
6
CONTINUOUS
10
0.18429
20
1.26691
11
0.182129
21
1.26475
0
LINE
8
BLACK
6
CONTINUOUS
10
0.182129
20
1.26475
11
0.179176
21
1.26396
0
LINE
8
BLACK
6
CONTINUOUS
10
0.179176
20
1.26396
11
0.120121
21
1.26396
0
LINE
8
BLACK
6
CONTINUOUS
10
0.120121
20
1.26396
11
0.119867
21
1.26403
0
LINE
8
BLACK
6
CONTINUOUS
10
0.119867
20
1.26403
11
0.119608
21
1.26398
0
LINE
8
BLACK
6
CONTINUOUS
10
0.119608
20
1.26398
11
0.118405
21
1.26442
0
LINE
8
BLACK
6
CONTINUOUS
10
0.118405
20
1.26442
11
0.117168
21
1.26475
0
LINE
8
BLACK
6
CONTINUOUS
10
0.117168
20
1.26475
11
0.116982
21
1.26494
0
LINE
8
BLACK
6
CONTINUOUS
10
0.116982
20
1.26494
11
0.116735
21
1.26503
0
LINE
8
BLACK
6
CONTINUOUS
10
0.116735
20
1.26503
11
0.115912
21
1.26601
0
LINE
8
BLACK
6
CONTINUOUS
10
0.115912
20
1.26601
11
0.115007
21
1.26691
0
LINE
8
BLACK
6
CONTINUOUS
10
0.115007
20
1.26691
11
0.114939
21
1.26717
0
LINE
8
BLACK
6
CONTINUOUS
10
0.114939
20
1.26717
11
0.114769
21
1.26737
0
LINE
8
BLACK
6
CONTINUOUS
10
0.114769
20
1.26737
11
0.114547
21
1.26863
0
LINE
8
BLACK
6
CONTINUOUS
10
0.114547
20
1.26863
11
0.114215
21
1.26987
0
LINE
8
BLACK
6
CONTINUOUS
10
0.114215
20
1.26987
11
0.114283
21
1.27012
0
LINE
8
BLACK
6
CONTINUOUS
10
0.114283
20
1.27012
11
0.114238
21
1.27038
0
LINE
8
BLACK
6
CONTINUOUS
10
0.114238
20
1.27038
11
0.114675
21
1.27158
0
LINE
8
BLACK
6
CONTINUOUS
10
0.114675
20
1.27158
11
0.115007
21
1.27282
0
LINE
8
BLACK
6
CONTINUOUS
10
0.115007
20
1.27282
11
0.115193
21
1.273
0
LINE
8
BLACK
6
CONTINUOUS
10
0.115193
20
1.273
11
0.115282
21
1.27325
0
LINE
8
BLACK
6
CONTINUOUS
10
0.115282
20
1.27325
11
0.116263
21
1.27407
0
LINE
8
BLACK
6
CONTINUOUS
10
0.116263
20
1.27407
11
0.117168
21
1.27498
0
LINE
8
BLACK
6
CONTINUOUS
10
0.117168
20
1.27498
11
0.117422
21
1.27505
0
LINE
8
BLACK
6
CONTINUOUS
10
0.117422
20
1.27505
11
0.117624
21
1.27522
0
LINE
8
BLACK
6
CONTINUOUS
10
0.117624
20
1.27522
11
0.148338
21
1.28955
0
LINE
8
BLACK
6
CONTINUOUS
10
0.148338
20
1.28955
11
0.117624
21
1.30388
0
LINE
8
BLACK
6
CONTINUOUS
10
0.117624
20
1.30388
11
0.117422
21
1.30405
0
LINE
8
BLACK
6
CONTINUOUS
10
0.117422
20
1.30405
11
0.117168
21
1.30412
0
LINE
8
BLACK
6
CONTINUOUS
10
0.117168
20
1.30412
11
0.116263
21
1.30503
0
LINE
8
BLACK
6
CONTINUOUS
10
0.116263
20
1.30503
11
0.115282
21
1.30585
0
LINE
8
BLACK
6
CONTINUOUS
10
0.115282
20
1.30585
11
0.115193
21
1.3061
0
LINE
8
BLACK
6
CONTINUOUS
10
0.115193
20
1.3061
11
0.115007
21
1.30628
0
LINE
8
BLACK
6
CONTINUOUS
10
0.115007
20
1.30628
11
0.114675
21
1.30752
0
LINE
8
BLACK
6
CONTINUOUS
10
0.114675
20
1.30752
11
0.114238
21
1.30872
0
LINE
8
BLACK
6
CONTINUOUS
10
0.114238
20
1.30872
11
0.114283
21
1.30898
0
LINE
8
BLACK
6
CONTINUOUS
10
0.114283
20
1.30898
11
0.114215
21
1.30924
0
LINE
8
BLACK
6
CONTINUOUS
10
0.114215
20
1.30924
11
0.114547
21
1.31047
0
LINE
8
BLACK
6
CONTINUOUS
10
0.114547
20
1.31047
11
0.114769
21
1.31173
0
LINE
8
BLACK
6
CONTINUOUS
10
0.114769
20
1.31173
11
0.114939
21
1.31193
0
LINE
8
BLACK
6
CONTINUOUS
10
0.114939
20
1.31193
11
0.115007
21
1.31219
0
LINE
8
BLACK
6
CONTINUOUS
10
0.115007
20
1.31219
11
0.115912
21
1.31309
0
LINE
8
BLACK
6
CONTINUOUS
10
0.115912
20
1.31309
11
0.116735
21
1.31407
0
LINE
8
BLACK
6
CONTINUOUS
10
0.116735
20
1.31407
11
0.116982
21
1.31416
0
LINE
8
BLACK
6
CONTINUOUS
10
0.116982
20
1.31416
11
0.117168
21
1.31435
0
LINE
8
BLACK
6
CONTINUOUS
10
0.117168
20
1.31435
11
0.118405
21
1.31468
0
LINE
8
BLACK
6
CONTINUOUS
10
0.118405
20
1.31468
11
0.119608
21
1.31512
0
LINE
8
BLACK
6
CONTINUOUS
10
0.119608
20
1.31512
11
0.119867
21
1.31507
0
LINE
8
BLACK
6
CONTINUOUS
10
0.119867
20
1.31507
11
0.120121
21
1.31514
0
LINE
8
BLACK
6
CONTINUOUS
10
0.120121
20
1.31514
11
0.179176
21
1.31514
0
LINE
8
BLACK
6
CONTINUOUS
10
0.179176
20
1.31514
11
0.182129
21
1.31435
0
LINE
8
BLACK
6
CONTINUOUS
10
2.11717
20
1.28851
11
2.11501
21
1.29067
0
LINE
8
BLACK
6
CONTINUOUS
10
2.11501
20
1.29067
11
2.11422
21
1.29362
0
LINE
8
BLACK
6
CONTINUOUS
10
2.11422
20
1.29362
11
2.11501
21
1.29657
0
LINE
8
BLACK
6
CONTINUOUS
10
2.11501
20
1.29657
11
2.11717
21
1.29874
0
LINE
8
BLACK
6
CONTINUOUS
10
2.11717
20
1.29874
11
2.12012
21
1.29953
0
LINE
8
BLACK
6
CONTINUOUS
10
2.12012
20
1.29953
11
2.17327
21
1.29953
0
LINE
8
BLACK
6
CONTINUOUS
10
2.17327
20
1.29953
11
2.17327
21
1.32174
0
LINE
8
BLACK
6
CONTINUOUS
10
2.17327
20
1.32174
11
2.17406
21
1.3247
0
LINE
8
BLACK
6
CONTINUOUS
10
2.17406
20
1.3247
11
2.17622
21
1.32686
0
LINE
8
BLACK
6
CONTINUOUS
10
2.17622
20
1.32686
11
2.17918
21
1.32765
0
LINE
8
BLACK
6
CONTINUOUS
10
2.17918
20
1.32765
11
2.18213
21
1.32686
0
LINE
8
BLACK
6
CONTINUOUS
10
2.18213
20
1.32686
11
2.18429
21
1.3247
0
LINE
8
BLACK
6
CONTINUOUS
10
2.18429
20
1.3247
11
2.18508
21
1.32174
0
LINE
8
BLACK
6
CONTINUOUS
10
2.18508
20
1.32174
11
2.18508
21
1.29362
0
LINE
8
BLACK
6
CONTINUOUS
10
2.18508
20
1.29362
11
2.18429
21
1.29067
0
LINE
8
BLACK
6
CONTINUOUS
10
2.18429
20
1.29067
11
2.18213
21
1.28851
0
LINE
8
BLACK
6
CONTINUOUS
10
2.18213
20
1.28851
11
2.17918
21
1.28772
0
LINE
8
BLACK
6
CONTINUOUS
10
2.17918
20
1.28772
11
2.12012
21
1.28772
0
LINE
8
BLACK
6
CONTINUOUS
10
2.12012
20
1.28772
11
2.11717
21
1.28851
0
LINE
8
BLACK
6
CONTINUOUS
10
2.12307
20
1.37185
11
2.12524
21
1.36969
0
LINE
8
BLACK
6
CONTINUOUS
10
2.12524
20
1.36969
11
2.12603
21
1.36674
0
LINE
8
BLACK
6
CONTINUOUS
10
2.12603
20
1.36674
11
2.12603
21
1.35577
0
LINE
8
BLACK
6
CONTINUOUS
10
2.12603
20
1.35577
11
2.17918
21
1.35577
0
LINE
8
BLACK
6
CONTINUOUS
10
2.17918
20
1.35577
11
2.18213
21
1.35498
0
LINE
8
BLACK
6
CONTINUOUS
10
2.18213
20
1.35498
11
2.18429
21
1.35282
0
LINE
8
BLACK
6
CONTINUOUS
10
2.18429
20
1.35282
11
2.18508
21
1.34987
0
LINE
8
BLACK
6
CONTINUOUS
10
2.18508
20
1.34987
11
2.18429
21
1.34691
0
LINE
8
BLACK
6
CONTINUOUS
10
2.18429
20
1.34691
11
2.18213
21
1.34475
0
LINE
8
BLACK
6
CONTINUOUS
10
2.18213
20
1.34475
11
2.17918
21
1.34396
0
LINE
8
BLACK
6
CONTINUOUS
10
2.17918
20
1.34396
11
2.12603
21
1.34396
0
LINE
8
BLACK
6
CONTINUOUS
10
2.12603
20
1.34396
11
2.12603
21
1.33299
0
LINE
8
BLACK
6
CONTINUOUS
10
2.12603
20
1.33299
11
2.12524
21
1.33004
0
LINE
8
BLACK
6
CONTINUOUS
10
2.12524
20
1.33004
11
2.12307
21
1.32788
0
LINE
8
BLACK
6
CONTINUOUS
10
2.12307
20
1.32788
11
2.12012
21
1.32709
0
LINE
8
BLACK
6
CONTINUOUS
10
2.12012
20
1.32709
11
2.11717
21
1.32788
0
LINE
8
BLACK
6
CONTINUOUS
10
2.11717
20
1.32788
11
2.11501
21
1.33004
0
LINE
8
BLACK
6
CONTINUOUS
10
2.11501
20
1.33004
11
2.11422
21
1.33299
0
LINE
8
BLACK
6
CONTINUOUS
10
2.11422
20
1.33299
11
2.11422
21
1.36674
0
LINE
8
BLACK
6
CONTINUOUS
10
2.11422
20
1.36674
11
2.11501
21
1.36969
0
LINE
8
BLACK
6
CONTINUOUS
10
2.11501
20
1.36969
11
2.11717
21
1.37185
0
LINE
8
BLACK
6
CONTINUOUS
10
2.11717
20
1.37185
11
2.12012
21
1.37264
0
LINE
8
BLACK
6
CONTINUOUS
10
2.12012
20
1.37264
11
2.12307
21
1.37185
0
LINE
8
BLACK
6
CONTINUOUS
10
0.232991
20
1.37817
11
0.23394
21
1.37811
0
LINE
8
BLACK
6
CONTINUOUS
10
0.23394
20
1.37811
11
0.242376
21
1.3753
0
LINE
8
BLACK
6
CONTINUOUS
10
0.242376
20
1.3753
11
0.243509
21
1.37455
0
LINE
8
BLACK
6
CONTINUOUS
10
0.243509
20
1.37455
11
0.244685
21
1.37387
0
LINE
8
BLACK
6
CONTINUOUS
10
0.244685
20
1.37387
11
0.268349
21
1.35021
0
LINE
8
BLACK
6
CONTINUOUS
10
0.268349
20
1.35021
11
0.268349
21
1.37251
0
LINE
8
BLACK
6
CONTINUOUS
10
0.268349
20
1.37251
11
0.26914
21
1.37546
0
LINE
8
BLACK
6
CONTINUOUS
10
0.26914
20
1.37546
11
0.271302
21
1.37762
0
LINE
8
BLACK
6
CONTINUOUS
10
0.271302
20
1.37762
11
0.274255
21
1.37841
0
LINE
8
BLACK
6
CONTINUOUS
10
0.274255
20
1.37841
11
0.277208
21
1.37762
0
LINE
8
BLACK
6
CONTINUOUS
10
0.277208
20
1.37762
11
0.279369
21
1.37546
0
LINE
8
BLACK
6
CONTINUOUS
10
0.279369
20
1.37546
11
0.28016
21
1.37251
0
LINE
8
BLACK
6
CONTINUOUS
10
0.28016
20
1.37251
11
0.28016
21
1.33595
0
LINE
8
BLACK
6
CONTINUOUS
10
0.28016
20
1.33595
11
0.279959
21
1.3352
0
LINE
8
BLACK
6
CONTINUOUS
10
0.279959
20
1.3352
11
0.279959
21
1.33442
0
LINE
8
BLACK
6
CONTINUOUS
10
0.279959
20
1.33442
11
0.27957
21
1.33375
0
LINE
8
BLACK
6
CONTINUOUS
10
0.27957
20
1.33375
11
0.279369
21
1.333
0
LINE
8
BLACK
6
CONTINUOUS
10
0.279369
20
1.333
11
0.278819
21
1.33245
0
LINE
8
BLACK
6
CONTINUOUS
10
0.278819
20
1.33245
11
0.278431
21
1.33177
0
LINE
8
BLACK
6
CONTINUOUS
10
0.278431
20
1.33177
11
0.277757
21
1.33139
0
LINE
8
BLACK
6
CONTINUOUS
10
0.277757
20
1.33139
11
0.277208
21
1.33084
0
LINE
8
BLACK
6
CONTINUOUS
10
0.277208
20
1.33084
11
0.276457
21
1.33063
0
LINE
8
BLACK
6
CONTINUOUS
10
0.276457
20
1.33063
11
0.275783
21
1.33025
0
LINE
8
BLACK
6
CONTINUOUS
10
0.275783
20
1.33025
11
0.275006
21
1.33025
0
LINE
8
BLACK
6
CONTINUOUS
10
0.275006
20
1.33025
11
0.274255
21
1.33004
0
LINE
8
BLACK
6
CONTINUOUS
10
0.274255
20
1.33004
11
0.273504
21
1.33025
0
LINE
8
BLACK
6
CONTINUOUS
10
0.273504
20
1.33025
11
0.272726
21
1.33025
0
LINE
8
BLACK
6
CONTINUOUS
10
0.272726
20
1.33025
11
0.272053
21
1.33063
0
LINE
8
BLACK
6
CONTINUOUS
10
0.272053
20
1.33063
11
0.271302
21
1.33084
0
LINE
8
BLACK
6
CONTINUOUS
10
0.271302
20
1.33084
11
0.270752
21
1.33139
0
LINE
8
BLACK
6
CONTINUOUS
10
0.270752
20
1.33139
11
0.270079
21
1.33177
0
LINE
8
BLACK
6
CONTINUOUS
10
0.270079
20
1.33177
11
0.237319
21
1.36453
0
LINE
8
BLACK
6
CONTINUOUS
10
0.237319
20
1.36453
11
0.231114
21
1.3666
0
LINE
8
BLACK
6
CONTINUOUS
10
0.231114
20
1.3666
11
0.227842
21
1.3666
0
LINE
8
BLACK
6
CONTINUOUS
10
0.227842
20
1.3666
11
0.224322
21
1.36484
0
LINE
8
BLACK
6
CONTINUOUS
10
0.224322
20
1.36484
11
0.222865
21
1.36339
0
LINE
8
BLACK
6
CONTINUOUS
10
0.222865
20
1.36339
11
0.221105
21
1.35987
0
LINE
8
BLACK
6
CONTINUOUS
10
0.221105
20
1.35987
11
0.221105
21
1.34859
0
LINE
8
BLACK
6
CONTINUOUS
10
0.221105
20
1.34859
11
0.222865
21
1.34507
0
LINE
8
BLACK
6
CONTINUOUS
10
0.222865
20
1.34507
11
0.225
21
1.34294
0
LINE
8
BLACK
6
CONTINUOUS
10
0.225
20
1.34294
11
0.226528
21
1.34029
0
LINE
8
BLACK
6
CONTINUOUS
10
0.226528
20
1.34029
11
0.226528
21
1.33723
0
LINE
8
BLACK
6
CONTINUOUS
10
0.226528
20
1.33723
11
0.225
21
1.33459
0
LINE
8
BLACK
6
CONTINUOUS
10
0.225
20
1.33459
11
0.222352
21
1.33306
0
LINE
8
BLACK
6
CONTINUOUS
10
0.222352
20
1.33306
11
0.219295
21
1.33306
0
LINE
8
BLACK
6
CONTINUOUS
10
0.219295
20
1.33306
11
0.216648
21
1.33459
0
LINE
8
BLACK
6
CONTINUOUS
10
0.216648
20
1.33459
11
0.213836
21
1.3374
0
LINE
8
BLACK
6
CONTINUOUS
10
0.213836
20
1.3374
11
0.213361
21
1.33822
0
LINE
8
BLACK
6
CONTINUOUS
10
0.213361
20
1.33822
11
0.21273
21
1.33893
0
LINE
8
BLACK
6
CONTINUOUS
10
0.21273
20
1.33893
11
0.209918
21
1.34456
0
LINE
8
BLACK
6
CONTINUOUS
10
0.209918
20
1.34456
11
0.209645
21
1.34589
0
LINE
8
BLACK
6
CONTINUOUS
10
0.209645
20
1.34589
11
0.209294
21
1.3472
0
LINE
8
BLACK
6
CONTINUOUS
10
0.209294
20
1.3472
11
0.209294
21
1.36126
0
LINE
8
BLACK
6
CONTINUOUS
10
0.209294
20
1.36126
11
0.209645
21
1.36257
0
LINE
8
BLACK
6
CONTINUOUS
10
0.209645
20
1.36257
11
0.209918
21
1.3639
0
LINE
8
BLACK
6
CONTINUOUS
10
0.209918
20
1.3639
11
0.21273
21
1.36953
0
LINE
8
BLACK
6
CONTINUOUS
10
0.21273
20
1.36953
11
0.213361
21
1.37024
0
LINE
8
BLACK
6
CONTINUOUS
10
0.213361
20
1.37024
11
0.213836
21
1.37106
0
LINE
8
BLACK
6
CONTINUOUS
10
0.213836
20
1.37106
11
0.216648
21
1.37387
0
LINE
8
BLACK
6
CONTINUOUS
10
0.216648
20
1.37387
11
0.217472
21
1.37435
0
LINE
8
BLACK
6
CONTINUOUS
10
0.217472
20
1.37435
11
0.218183
21
1.37498
0
LINE
8
BLACK
6
CONTINUOUS
10
0.218183
20
1.37498
11
0.223807
21
1.37779
0
LINE
8
BLACK
6
CONTINUOUS
10
0.223807
20
1.37779
11
0.225137
21
1.37806
0
LINE
8
BLACK
6
CONTINUOUS
10
0.225137
20
1.37806
11
0.226448
21
1.37841
0
LINE
8
BLACK
6
CONTINUOUS
10
0.226448
20
1.37841
11
0.232073
21
1.37841
0
LINE
8
BLACK
6
CONTINUOUS
10
0.232073
20
1.37841
11
0.232991
21
1.37817
0
LINE
8
BLACK
6
CONTINUOUS
10
0.117168
20
1.33224
11
0.115007
21
1.3344
0
LINE
8
BLACK
6
CONTINUOUS
10
0.115007
20
1.3344
11
0.114215
21
1.33736
0
LINE
8
BLACK
6
CONTINUOUS
10
0.114215
20
1.33736
11
0.115007
21
1.34031
0
LINE
8
BLACK
6
CONTINUOUS
10
0.115007
20
1.34031
11
0.117168
21
1.34247
0
LINE
8
BLACK
6
CONTINUOUS
10
0.117168
20
1.34247
11
0.120121
21
1.34326
0
LINE
8
BLACK
6
CONTINUOUS
10
0.120121
20
1.34326
11
0.173271
21
1.34326
0
LINE
8
BLACK
6
CONTINUOUS
10
0.173271
20
1.34326
11
0.173271
21
1.36548
0
LINE
8
BLACK
6
CONTINUOUS
10
0.173271
20
1.36548
11
0.174062
21
1.36843
0
LINE
8
BLACK
6
CONTINUOUS
10
0.174062
20
1.36843
11
0.176223
21
1.37059
0
LINE
8
BLACK
6
CONTINUOUS
10
0.176223
20
1.37059
11
0.178043
21
1.37108
0
LINE
8
BLACK
6
CONTINUOUS
10
0.178043
20
1.37108
11
0.177309
21
1.37112
0
LINE
8
BLACK
6
CONTINUOUS
10
0.177309
20
1.37112
11
0.118253
21
1.39081
0
LINE
8
BLACK
6
CONTINUOUS
10
0.118253
20
1.39081
11
0.117264
21
1.39146
0
LINE
8
BLACK
6
CONTINUOUS
10
0.117264
20
1.39146
11
0.116203
21
1.39199
0
LINE
8
BLACK
6
CONTINUOUS
10
0.116203
20
1.39199
11
0.116004
21
1.39229
0
LINE
8
BLACK
6
CONTINUOUS
10
0.116004
20
1.39229
11
0.115702
21
1.39249
0
LINE
8
BLACK
6
CONTINUOUS
10
0.115702
20
1.39249
11
0.115172
21
1.39355
0
LINE
8
BLACK
6
CONTINUOUS
10
0.115172
20
1.39355
11
0.114518
21
1.39454
0
LINE
8
BLACK
6
CONTINUOUS
10
0.114518
20
1.39454
11
0.114497
21
1.3949
0
LINE
8
BLACK
6
CONTINUOUS
10
0.114497
20
1.3949
11
0.114335
21
1.39523
0
LINE
8
BLACK
6
CONTINUOUS
10
0.114335
20
1.39523
11
0.114406
21
1.39641
0
LINE
8
BLACK
6
CONTINUOUS
10
0.114406
20
1.39641
11
0.114335
21
1.3976
0
LINE
8
BLACK
6
CONTINUOUS
10
0.114335
20
1.3976
11
0.114497
21
1.39792
0
LINE
8
BLACK
6
CONTINUOUS
10
0.114497
20
1.39792
11
0.114518
21
1.39828
0
LINE
8
BLACK
6
CONTINUOUS
10
0.114518
20
1.39828
11
0.115172
21
1.39927
0
LINE
8
BLACK
6
CONTINUOUS
10
0.115172
20
1.39927
11
0.115702
21
1.40033
0
LINE
8
BLACK
6
CONTINUOUS
10
0.115702
20
1.40033
11
0.116004
21
1.40053
0
LINE
8
BLACK
6
CONTINUOUS
10
0.116004
20
1.40053
11
0.116203
21
1.40083
0
LINE
8
BLACK
6
CONTINUOUS
10
0.116203
20
1.40083
11
0.117264
21
1.40136
0
LINE
8
BLACK
6
CONTINUOUS
10
0.117264
20
1.40136
11
0.118253
21
1.40201
0
LINE
8
BLACK
6
CONTINUOUS
10
0.118253
20
1.40201
11
0.177309
21
1.4217
0
LINE
8
BLACK
6
CONTINUOUS
10
0.177309
20
1.4217
11
0.18036
21
1.42188
0
LINE
8
BLACK
6
CONTINUOUS
10
0.18036
20
1.42188
11
0.183094
21
1.42052
0
LINE
8
BLACK
6
CONTINUOUS
10
0.183094
20
1.42052
11
0.184779
21
1.41796
0
LINE
8
BLACK
6
CONTINUOUS
10
0.184779
20
1.41796
11
0.184962
21
1.41491
0
LINE
8
BLACK
6
CONTINUOUS
10
0.184962
20
1.41491
11
0.183595
21
1.41218
0
LINE
8
BLACK
6
CONTINUOUS
10
0.183595
20
1.41218
11
0.181044
21
1.41049
0
LINE
8
BLACK
6
CONTINUOUS
10
0.181044
20
1.41049
11
0.168209
21
1.40622
0
LINE
8
BLACK
6
CONTINUOUS
10
0.168209
20
1.40622
11
0.168209
21
1.38661
0
LINE
8
BLACK
6
CONTINUOUS
10
0.168209
20
1.38661
11
0.181044
21
1.38233
0
LINE
8
BLACK
6
CONTINUOUS
10
0.181044
20
1.38233
11
0.183595
21
1.38064
0
LINE
8
BLACK
6
CONTINUOUS
10
0.183595
20
1.38064
11
0.184962
21
1.37791
0
LINE
8
BLACK
6
CONTINUOUS
10
0.184962
20
1.37791
11
0.184779
21
1.37486
0
LINE
8
BLACK
6
CONTINUOUS
10
0.184779
20
1.37486
11
0.183094
21
1.37231
0
LINE
8
BLACK
6
CONTINUOUS
10
0.183094
20
1.37231
11
0.180523
21
1.37102
0
LINE
8
BLACK
6
CONTINUOUS
10
0.180523
20
1.37102
11
0.182129
21
1.37059
0
LINE
8
BLACK
6
CONTINUOUS
10
0.182129
20
1.37059
11
0.18429
21
1.36843
0
LINE
8
BLACK
6
CONTINUOUS
10
0.18429
20
1.36843
11
0.185082
21
1.36548
0
LINE
8
BLACK
6
CONTINUOUS
10
0.185082
20
1.36548
11
0.185082
21
1.33736
0
LINE
8
BLACK
6
CONTINUOUS
10
0.185082
20
1.33736
11
0.18429
21
1.3344
0
LINE
8
BLACK
6
CONTINUOUS
10
0.18429
20
1.3344
11
0.182129
21
1.33224
0
LINE
8
BLACK
6
CONTINUOUS
10
0.182129
20
1.33224
11
0.179176
21
1.33145
0
LINE
8
BLACK
6
CONTINUOUS
10
0.179176
20
1.33145
11
0.120121
21
1.33145
0
LINE
8
BLACK
6
CONTINUOUS
10
0.120121
20
1.33145
11
0.117168
21
1.33224
0
LINE
8
BLACK
6
CONTINUOUS
10
0.138796
20
1.39641
11
0.156398
21
1.39054
0
LINE
8
BLACK
6
CONTINUOUS
10
0.156398
20
1.39054
11
0.156398
21
1.40228
0
LINE
8
BLACK
6
CONTINUOUS
10
0.156398
20
1.40228
11
0.138796
21
1.39641
0
LINE
8
BLACK
6
CONTINUOUS
10
2.16019
20
1.4287
11
2.16092
21
1.42871
0
LINE
8
BLACK
6
CONTINUOUS
10
2.16092
20
1.42871
11
2.17217
21
1.4259
0
LINE
8
BLACK
6
CONTINUOUS
10
2.17217
20
1.4259
11
2.17222
21
1.42587
0
LINE
8
BLACK
6
CONTINUOUS
10
2.17222
20
1.42587
11
2.17227
21
1.42587
0
LINE
8
BLACK
6
CONTINUOUS
10
2.17227
20
1.42587
11
2.17355
21
1.42513
0
LINE
8
BLACK
6
CONTINUOUS
10
2.17355
20
1.42513
11
2.17484
21
1.42441
0
LINE
8
BLACK
6
CONTINUOUS
10
2.17484
20
1.42441
11
2.17487
21
1.42437
0
LINE
8
BLACK
6
CONTINUOUS
10
2.17487
20
1.42437
11
2.17492
21
1.42434
0
LINE
8
BLACK
6
CONTINUOUS
10
2.17492
20
1.42434
11
2.18054
21
1.41872
0
LINE
8
BLACK
6
CONTINUOUS
10
2.18054
20
1.41872
11
2.18102
21
1.4179
0
LINE
8
BLACK
6
CONTINUOUS
10
2.18102
20
1.4179
11
2.18165
21
1.41719
0
LINE
8
BLACK
6
CONTINUOUS
10
2.18165
20
1.41719
11
2.18446
21
1.41156
0
LINE
8
BLACK
6
CONTINUOUS
10
2.18446
20
1.41156
11
2.18473
21
1.41023
0
LINE
8
BLACK
6
CONTINUOUS
10
2.18473
20
1.41023
11
2.18508
21
1.40892
0
LINE
8
BLACK
6
CONTINUOUS
10
2.18508
20
1.40892
11
2.18508
21
1.39767
0
LINE
8
BLACK
6
CONTINUOUS
10
2.18508
20
1.39767
11
2.18473
21
1.39636
0
LINE
8
BLACK
6
CONTINUOUS
10
2.18473
20
1.39636
11
2.18446
21
1.39503
0
LINE
8
BLACK
6
CONTINUOUS
10
2.18446
20
1.39503
11
2.18165
21
1.38941
0
LINE
8
BLACK
6
CONTINUOUS
10
2.18165
20
1.38941
11
2.18102
21
1.38869
0
LINE
8
BLACK
6
CONTINUOUS
10
2.18102
20
1.38869
11
2.18054
21
1.38787
0
LINE
8
BLACK
6
CONTINUOUS
10
2.18054
20
1.38787
11
2.17492
21
1.38225
0
LINE
8
BLACK
6
CONTINUOUS
10
2.17492
20
1.38225
11
2.17487
21
1.38222
0
LINE
8
BLACK
6
CONTINUOUS
10
2.17487
20
1.38222
11
2.17484
21
1.38218
0
LINE
8
BLACK
6
CONTINUOUS
10
2.17484
20
1.38218
11
2.17355
21
1.38146
0
LINE
8
BLACK
6
CONTINUOUS
10
2.17355
20
1.38146
11
2.17227
21
1.38072
0
LINE
8
BLACK
6
CONTINUOUS
10
2.17227
20
1.38072
11
2.17222
21
1.38072
0
LINE
8
BLACK
6
CONTINUOUS
10
2.17222
20
1.38072
11
2.17217
21
1.38069
0
LINE
8
BLACK
6
CONTINUOUS
10
2.17217
20
1.38069
11
2.16092
21
1.37788
0
LINE
8
BLACK
6
CONTINUOUS
10
2.16092
20
1.37788
11
2.16019
21
1.37789
0
LINE
8
BLACK
6
CONTINUOUS
10
2.16019
20
1.37789
11
2.15949
21
1.37771
0
LINE
8
BLACK
6
CONTINUOUS
10
2.15949
20
1.37771
11
2.13981
21
1.37771
0
LINE
8
BLACK
6
CONTINUOUS
10
2.13981
20
1.37771
11
2.1391
21
1.37789
0
LINE
8
BLACK
6
CONTINUOUS
10
2.1391
20
1.37789
11
2.13837
21
1.37788
0
LINE
8
BLACK
6
CONTINUOUS
10
2.13837
20
1.37788
11
2.12713
21
1.38069
0
LINE
8
BLACK
6
CONTINUOUS
10
2.12713
20
1.38069
11
2.12708
21
1.38072
0
LINE
8
BLACK
6
CONTINUOUS
10
2.12708
20
1.38072
11
2.12703
21
1.38072
0
LINE
8
BLACK
6
CONTINUOUS
10
2.12703
20
1.38072
11
2.12575
21
1.38146
0
LINE
8
BLACK
6
CONTINUOUS
10
2.12575
20
1.38146
11
2.12445
21
1.38218
0
LINE
8
BLACK
6
CONTINUOUS
10
2.12445
20
1.38218
11
2.12443
21
1.38222
0
LINE
8
BLACK
6
CONTINUOUS
10
2.12443
20
1.38222
11
2.12438
21
1.38225
0
LINE
8
BLACK
6
CONTINUOUS
10
2.12438
20
1.38225
11
2.11876
21
1.38787
0
LINE
8
BLACK
6
CONTINUOUS
10
2.11876
20
1.38787
11
2.11828
21
1.38869
0
LINE
8
BLACK
6
CONTINUOUS
10
2.11828
20
1.38869
11
2.11765
21
1.38941
0
LINE
8
BLACK
6
CONTINUOUS
10
2.11765
20
1.38941
11
2.11484
21
1.39503
0
LINE
8
BLACK
6
CONTINUOUS
10
2.11484
20
1.39503
11
2.11457
21
1.39636
0
LINE
8
BLACK
6
CONTINUOUS
10
2.11457
20
1.39636
11
2.11422
21
1.39767
0
LINE
8
BLACK
6
CONTINUOUS
10
2.11422
20
1.39767
11
2.11422
21
1.40892
0
LINE
8
BLACK
6
CONTINUOUS
10
2.11422
20
1.40892
11
2.11457
21
1.41023
0
LINE
8
BLACK
6
CONTINUOUS
10
2.11457
20
1.41023
11
2.11484
21
1.41156
0
LINE
8
BLACK
6
CONTINUOUS
10
2.11484
20
1.41156
11
2.11765
21
1.41719
0
LINE
8
BLACK
6
CONTINUOUS
10
2.11765
20
1.41719
11
2.11828
21
1.4179
0
LINE
8
BLACK
6
CONTINUOUS
10
2.11828
20
1.4179
11
2.11876
21
1.41872
0
LINE
8
BLACK
6
CONTINUOUS
10
2.11876
20
1.41872
11
2.12438
21
1.42434
0
LINE
8
BLACK
6
CONTINUOUS
10
2.12438
20
1.42434
11
2.12443
21
1.42437
0
LINE
8
BLACK
6
CONTINUOUS
10
2.12443
20
1.42437
11
2.12445
21
1.42441
0
LINE
8
BLACK
6
CONTINUOUS
10
2.12445
20
1.42441
11
2.12575
21
1.42513
0
LINE
8
BLACK
6
CONTINUOUS
10
2.12575
20
1.42513
11
2.12703
21
1.42587
0
LINE
8
BLACK
6
CONTINUOUS
10
2.12703
20
1.42587
11
2.12708
21
1.42587
0
LINE
8
BLACK
6
CONTINUOUS
10
2.12708
20
1.42587
11
2.12713
21
1.4259
0
LINE
8
BLACK
6
CONTINUOUS
10
2.12713
20
1.4259
11
2.13837
21
1.42871
0
LINE
8
BLACK
6
CONTINUOUS
10
2.13837
20
1.42871
11
2.1391
21
1.4287
0
LINE
8
BLACK
6
CONTINUOUS
10
2.1391
20
1.4287
11
2.13981
21
1.42889
0
LINE
8
BLACK
6
CONTINUOUS
10
2.13981
20
1.42889
11
2.15949
21
1.42889
0
LINE
8
BLACK
6
CONTINUOUS
10
2.15949
20
1.42889
11
2.16019
21
1.4287
0
LINE
8
BLACK
6
CONTINUOUS
10
2.14053
20
1.41708
11
2.13158
21
1.41484
0
LINE
8
BLACK
6
CONTINUOUS
10
2.13158
20
1.41484
11
2.12779
21
1.41105
0
LINE
8
BLACK
6
CONTINUOUS
10
2.12779
20
1.41105
11
2.12603
21
1.40753
0
LINE
8
BLACK
6
CONTINUOUS
10
2.12603
20
1.40753
11
2.12603
21
1.39907
0
LINE
8
BLACK
6
CONTINUOUS
10
2.12603
20
1.39907
11
2.12779
21
1.39555
0
LINE
8
BLACK
6
CONTINUOUS
10
2.12779
20
1.39555
11
2.13158
21
1.39176
0
LINE
8
BLACK
6
CONTINUOUS
10
2.13158
20
1.39176
11
2.14053
21
1.38952
0
LINE
8
BLACK
6
CONTINUOUS
10
2.14053
20
1.38952
11
2.15876
21
1.38952
0
LINE
8
BLACK
6
CONTINUOUS
10
2.15876
20
1.38952
11
2.16772
21
1.39176
0
LINE
8
BLACK
6
CONTINUOUS
10
2.16772
20
1.39176
11
2.17151
21
1.39555
0
LINE
8
BLACK
6
CONTINUOUS
10
2.17151
20
1.39555
11
2.17327
21
1.39907
0
LINE
8
BLACK
6
CONTINUOUS
10
2.17327
20
1.39907
11
2.17327
21
1.40753
0
LINE
8
BLACK
6
CONTINUOUS
10
2.17327
20
1.40753
11
2.17151
21
1.41105
0
LINE
8
BLACK
6
CONTINUOUS
10
2.17151
20
1.41105
11
2.16772
21
1.41484
0
LINE
8
BLACK
6
CONTINUOUS
10
2.16772
20
1.41484
11
2.15876
21
1.41708
0
LINE
8
BLACK
6
CONTINUOUS
10
2.15876
20
1.41708
11
2.14053
21
1.41708
0
LINE
8
BLACK
6
CONTINUOUS
10
2.2583
20
1.41739
11
2.25925
21
1.41733
0
LINE
8
BLACK
6
CONTINUOUS
10
2.25925
20
1.41733
11
2.26769
21
1.41452
0
LINE
8
BLACK
6
CONTINUOUS
10
2.26769
20
1.41452
11
2.26882
21
1.41377
0
LINE
8
BLACK
6
CONTINUOUS
10
2.26882
20
1.41377
11
2.26999
21
1.4131
0
LINE
8
BLACK
6
CONTINUOUS
10
2.26999
20
1.4131
11
2.27562
21
1.40747
0
LINE
8
BLACK
6
CONTINUOUS
10
2.27562
20
1.40747
11
2.2763
21
1.4063
0
LINE
8
BLACK
6
CONTINUOUS
10
2.2763
20
1.4063
11
2.27705
21
1.40516
0
LINE
8
BLACK
6
CONTINUOUS
10
2.27705
20
1.40516
11
2.27986
21
1.39673
0
LINE
8
BLACK
6
CONTINUOUS
10
2.27986
20
1.39673
11
2.27991
21
1.39578
0
LINE
8
BLACK
6
CONTINUOUS
10
2.27991
20
1.39578
11
2.28016
21
1.39486
0
LINE
8
BLACK
6
CONTINUOUS
10
2.28016
20
1.39486
11
2.28016
21
1.38924
0
LINE
8
BLACK
6
CONTINUOUS
10
2.28016
20
1.38924
11
2.27937
21
1.38628
0
LINE
8
BLACK
6
CONTINUOUS
10
2.27937
20
1.38628
11
2.27721
21
1.38412
0
LINE
8
BLACK
6
CONTINUOUS
10
2.27721
20
1.38412
11
2.27425
21
1.38333
0
LINE
8
BLACK
6
CONTINUOUS
10
2.27425
20
1.38333
11
2.2713
21
1.38412
0
LINE
8
BLACK
6
CONTINUOUS
10
2.2713
20
1.38412
11
2.26914
21
1.38628
0
LINE
8
BLACK
6
CONTINUOUS
10
2.26914
20
1.38628
11
2.26835
21
1.38924
0
LINE
8
BLACK
6
CONTINUOUS
10
2.26835
20
1.38924
11
2.26835
21
1.3939
0
LINE
8
BLACK
6
CONTINUOUS
10
2.26835
20
1.3939
11
2.26628
21
1.40011
0
LINE
8
BLACK
6
CONTINUOUS
10
2.26628
20
1.40011
11
2.26263
21
1.40376
0
LINE
8
BLACK
6
CONTINUOUS
10
2.26263
20
1.40376
11
2.25642
21
1.40583
0
LINE
8
BLACK
6
CONTINUOUS
10
2.25642
20
1.40583
11
2.2152
21
1.40583
0
LINE
8
BLACK
6
CONTINUOUS
10
2.2152
20
1.40583
11
2.21225
21
1.40662
0
LINE
8
BLACK
6
CONTINUOUS
10
2.21225
20
1.40662
11
2.21009
21
1.40878
0
LINE
8
BLACK
6
CONTINUOUS
10
2.21009
20
1.40878
11
2.20929
21
1.41173
0
LINE
8
BLACK
6
CONTINUOUS
10
2.20929
20
1.41173
11
2.21009
21
1.41469
0
LINE
8
BLACK
6
CONTINUOUS
10
2.21009
20
1.41469
11
2.21225
21
1.41685
0
LINE
8
BLACK
6
CONTINUOUS
10
2.21225
20
1.41685
11
2.2152
21
1.41764
0
LINE
8
BLACK
6
CONTINUOUS
10
2.2152
20
1.41764
11
2.25738
21
1.41764
0
LINE
8
BLACK
6
CONTINUOUS
10
2.25738
20
1.41764
11
2.2583
21
1.41739
0
LINE
8
BLACK
6
CONTINUOUS
10
0.252461
20
1.43447
11
0.25319
21
1.43448
0
LINE
8
BLACK
6
CONTINUOUS
10
0.25319
20
1.43448
11
0.264438
21
1.43167
0
LINE
8
BLACK
6
CONTINUOUS
10
0.264438
20
1.43167
11
0.265008
21
1.43135
0
LINE
8
BLACK
6
CONTINUOUS
10
0.265008
20
1.43135
11
0.265647
21
1.43122
0
LINE
8
BLACK
6
CONTINUOUS
10
0.265647
20
1.43122
11
0.271271
21
1.42841
0
LINE
8
BLACK
6
CONTINUOUS
10
0.271271
20
1.42841
11
0.271983
21
1.42778
0
LINE
8
BLACK
6
CONTINUOUS
10
0.271983
20
1.42778
11
0.272806
21
1.4273
0
LINE
8
BLACK
6
CONTINUOUS
10
0.272806
20
1.4273
11
0.275618
21
1.42449
0
LINE
8
BLACK
6
CONTINUOUS
10
0.275618
20
1.42449
11
0.276094
21
1.42367
0
LINE
8
BLACK
6
CONTINUOUS
10
0.276094
20
1.42367
11
0.276725
21
1.42296
0
LINE
8
BLACK
6
CONTINUOUS
10
0.276725
20
1.42296
11
0.279537
21
1.41733
0
LINE
8
BLACK
6
CONTINUOUS
10
0.279537
20
1.41733
11
0.279809
21
1.416
0
LINE
8
BLACK
6
CONTINUOUS
10
0.279809
20
1.416
11
0.28016
21
1.41469
0
LINE
8
BLACK
6
CONTINUOUS
10
0.28016
20
1.41469
11
0.28016
21
1.40907
0
LINE
8
BLACK
6
CONTINUOUS
10
0.28016
20
1.40907
11
0.279809
21
1.40776
0
LINE
8
BLACK
6
CONTINUOUS
10
0.279809
20
1.40776
11
0.279537
21
1.40643
0
LINE
8
BLACK
6
CONTINUOUS
10
0.279537
20
1.40643
11
0.276725
21
1.4008
0
LINE
8
BLACK
6
CONTINUOUS
10
0.276725
20
1.4008
11
0.276094
21
1.40009
0
LINE
8
BLACK
6
CONTINUOUS
10
0.276094
20
1.40009
11
0.275618
21
1.39927
0
LINE
8
BLACK
6
CONTINUOUS
10
0.275618
20
1.39927
11
0.272806
21
1.39645
0
LINE
8
BLACK
6
CONTINUOUS
10
0.272806
20
1.39645
11
0.271983
21
1.39598
0
LINE
8
BLACK
6
CONTINUOUS
10
0.271983
20
1.39598
11
0.271271
21
1.39535
0
LINE
8
BLACK
6
CONTINUOUS
10
0.271271
20
1.39535
11
0.265647
21
1.39254
0
LINE
8
BLACK
6
CONTINUOUS
10
0.265647
20
1.39254
11
0.265008
21
1.39241
0
LINE
8
BLACK
6
CONTINUOUS
10
0.265008
20
1.39241
11
0.264438
21
1.39209
0
LINE
8
BLACK
6
CONTINUOUS
10
0.264438
20
1.39209
11
0.25319
21
1.38928
0
LINE
8
BLACK
6
CONTINUOUS
10
0.25319
20
1.38928
11
0.252461
21
1.38929
0
LINE
8
BLACK
6
CONTINUOUS
10
0.252461
20
1.38929
11
0.251758
21
1.3891
0
LINE
8
BLACK
6
CONTINUOUS
10
0.251758
20
1.3891
11
0.237697
21
1.3891
0
LINE
8
BLACK
6
CONTINUOUS
10
0.237697
20
1.3891
11
0.236993
21
1.38929
0
LINE
8
BLACK
6
CONTINUOUS
10
0.236993
20
1.38929
11
0.236265
21
1.38928
0
LINE
8
BLACK
6
CONTINUOUS
10
0.236265
20
1.38928
11
0.225016
21
1.39209
0
LINE
8
BLACK
6
CONTINUOUS
10
0.225016
20
1.39209
11
0.224446
21
1.39241
0
LINE
8
BLACK
6
CONTINUOUS
10
0.224446
20
1.39241
11
0.223807
21
1.39254
0
LINE
8
BLACK
6
CONTINUOUS
10
0.223807
20
1.39254
11
0.218183
21
1.39535
0
LINE
8
BLACK
6
CONTINUOUS
10
0.218183
20
1.39535
11
0.217471
21
1.39598
0
LINE
8
BLACK
6
CONTINUOUS
10
0.217471
20
1.39598
11
0.216648
21
1.39645
0
LINE
8
BLACK
6
CONTINUOUS
10
0.216648
20
1.39645
11
0.213836
21
1.39927
0
LINE
8
BLACK
6
CONTINUOUS
10
0.213836
20
1.39927
11
0.213361
21
1.40009
0
LINE
8
BLACK
6
CONTINUOUS
10
0.213361
20
1.40009
11
0.21273
21
1.4008
0
LINE
8
BLACK
6
CONTINUOUS
10
0.21273
20
1.4008
11
0.209918
21
1.40643
0
LINE
8
BLACK
6
CONTINUOUS
10
0.209918
20
1.40643
11
0.209645
21
1.40776
0
LINE
8
BLACK
6
CONTINUOUS
10
0.209645
20
1.40776
11
0.209294
21
1.40907
0
LINE
8
BLACK
6
CONTINUOUS
10
0.209294
20
1.40907
11
0.209294
21
1.41469
0
LINE
8
BLACK
6
CONTINUOUS
10
0.209294
20
1.41469
11
0.209645
21
1.416
0
LINE
8
BLACK
6
CONTINUOUS
10
0.209645
20
1.416
11
0.209918
21
1.41733
0
LINE
8
BLACK
6
CONTINUOUS
10
0.209918
20
1.41733
11
0.21273
21
1.42296
0
LINE
8
BLACK
6
CONTINUOUS
10
0.21273
20
1.42296
11
0.213361
21
1.42367
0
LINE
8
BLACK
6
CONTINUOUS
10
0.213361
20
1.42367
11
0.213836
21
1.42449
0
LINE
8
BLACK
6
CONTINUOUS
10
0.213836
20
1.42449
11
0.216648
21
1.4273
0
LINE
8
BLACK
6
CONTINUOUS
10
0.216648
20
1.4273
11
0.217472
21
1.42778
0
LINE
8
BLACK
6
CONTINUOUS
10
0.217472
20
1.42778
11
0.218183
21
1.42841
0
LINE
8
BLACK
6
CONTINUOUS
10
0.218183
20
1.42841
11
0.223807
21
1.43122
0
LINE
8
BLACK
6
CONTINUOUS
10
0.223807
20
1.43122
11
0.224446
21
1.43135
0
LINE
8
BLACK
6
CONTINUOUS
10
0.224446
20
1.43135
11
0.225016
21
1.43167
0
LINE
8
BLACK
6
CONTINUOUS
10
0.225016
20
1.43167
11
0.236265
21
1.43448
0
LINE
8
BLACK
6
CONTINUOUS
10
0.236265
20
1.43448
11
0.236993
21
1.43447
0
LINE
8
BLACK
6
CONTINUOUS
10
0.236993
20
1.43447
11
0.237697
21
1.43466
0
LINE
8
BLACK
6
CONTINUOUS
10
0.237697
20
1.43466
11
0.251758
21
1.43466
0
LINE
8
BLACK
6
CONTINUOUS
10
0.251758
20
1.43466
11
0.252461
21
1.43447
0
LINE
8
BLACK
6
CONTINUOUS
10
0.238424
20
1.42285
11
0.228509
21
1.42037
0
LINE
8
BLACK
6
CONTINUOUS
10
0.228509
20
1.42037
11
0.224322
21
1.41827
0
LINE
8
BLACK
6
CONTINUOUS
10
0.224322
20
1.41827
11
0.222865
21
1.41682
0
LINE
8
BLACK
6
CONTINUOUS
10
0.222865
20
1.41682
11
0.221105
21
1.4133
0
LINE
8
BLACK
6
CONTINUOUS
10
0.221105
20
1.4133
11
0.221105
21
1.41046
0
LINE
8
BLACK
6
CONTINUOUS
10
0.221105
20
1.41046
11
0.222865
21
1.40694
0
LINE
8
BLACK
6
CONTINUOUS
10
0.222865
20
1.40694
11
0.224322
21
1.40548
0
LINE
8
BLACK
6
CONTINUOUS
10
0.224322
20
1.40548
11
0.228509
21
1.40339
0
LINE
8
BLACK
6
CONTINUOUS
10
0.228509
20
1.40339
11
0.238424
21
1.40091
0
LINE
8
BLACK
6
CONTINUOUS
10
0.238424
20
1.40091
11
0.251031
21
1.40091
0
LINE
8
BLACK
6
CONTINUOUS
10
0.251031
20
1.40091
11
0.260945
21
1.40339
0
LINE
8
BLACK
6
CONTINUOUS
10
0.260945
20
1.40339
11
0.265132
21
1.40548
0
LINE
8
BLACK
6
CONTINUOUS
10
0.265132
20
1.40548
11
0.266589
21
1.40694
0
LINE
8
BLACK
6
CONTINUOUS
10
0.266589
20
1.40694
11
0.268349
21
1.41046
0
LINE
8
BLACK
6
CONTINUOUS
10
0.268349
20
1.41046
11
0.268349
21
1.4133
0
LINE
8
BLACK
6
CONTINUOUS
10
0.268349
20
1.4133
11
0.266589
21
1.41682
0
LINE
8
BLACK
6
CONTINUOUS
10
0.266589
20
1.41682
11
0.265132
21
1.41827
0
LINE
8
BLACK
6
CONTINUOUS
10
0.265132
20
1.41827
11
0.260945
21
1.42037
0
LINE
8
BLACK
6
CONTINUOUS
10
0.260945
20
1.42037
11
0.251031
21
1.42285
0
LINE
8
BLACK
6
CONTINUOUS
10
0.251031
20
1.42285
11
0.238424
21
1.42285
0
LINE
8
BLACK
6
CONTINUOUS
10
2.27817
20
1.47521
11
2.27986
21
1.47265
0
LINE
8
BLACK
6
CONTINUOUS
10
2.27986
20
1.47265
11
2.28004
21
1.4696
0
LINE
8
BLACK
6
CONTINUOUS
10
2.28004
20
1.4696
11
2.27867
21
1.46687
0
LINE
8
BLACK
6
CONTINUOUS
10
2.27867
20
1.46687
11
2.27612
21
1.46518
0
LINE
8
BLACK
6
CONTINUOUS
10
2.27612
20
1.46518
11
2.26329
21
1.46091
0
LINE
8
BLACK
6
CONTINUOUS
10
2.26329
20
1.46091
11
2.26329
21
1.4413
0
LINE
8
BLACK
6
CONTINUOUS
10
2.26329
20
1.4413
11
2.27612
21
1.43702
0
LINE
8
BLACK
6
CONTINUOUS
10
2.27612
20
1.43702
11
2.27867
21
1.43534
0
LINE
8
BLACK
6
CONTINUOUS
10
2.27867
20
1.43534
11
2.28004
21
1.4326
0
LINE
8
BLACK
6
CONTINUOUS
10
2.28004
20
1.4326
11
2.27986
21
1.42955
0
LINE
8
BLACK
6
CONTINUOUS
10
2.27986
20
1.42955
11
2.27817
21
1.427
0
LINE
8
BLACK
6
CONTINUOUS
10
2.27817
20
1.427
11
2.27544
21
1.42563
0
LINE
8
BLACK
6
CONTINUOUS
10
2.27544
20
1.42563
11
2.27239
21
1.42581
0
LINE
8
BLACK
6
CONTINUOUS
10
2.27239
20
1.42581
11
2.21333
21
1.4455
0
LINE
8
BLACK
6
CONTINUOUS
10
2.21333
20
1.4455
11
2.21234
21
1.44615
0
LINE
8
BLACK
6
CONTINUOUS
10
2.21234
20
1.44615
11
2.21128
21
1.44668
0
LINE
8
BLACK
6
CONTINUOUS
10
2.21128
20
1.44668
11
2.21108
21
1.44699
0
LINE
8
BLACK
6
CONTINUOUS
10
2.21108
20
1.44699
11
2.21078
21
1.44718
0
LINE
8
BLACK
6
CONTINUOUS
10
2.21078
20
1.44718
11
2.21025
21
1.44825
0
LINE
8
BLACK
6
CONTINUOUS
10
2.21025
20
1.44825
11
2.2096
21
1.44923
0
LINE
8
BLACK
6
CONTINUOUS
10
2.2096
20
1.44923
11
2.20958
21
1.4496
0
LINE
8
BLACK
6
CONTINUOUS
10
2.20958
20
1.4496
11
2.20941
21
1.44992
0
LINE
8
BLACK
6
CONTINUOUS
10
2.20941
20
1.44992
11
2.20949
21
1.4511
0
LINE
8
BLACK
6
CONTINUOUS
10
2.20949
20
1.4511
11
2.20941
21
1.45229
0
LINE
8
BLACK
6
CONTINUOUS
10
2.20941
20
1.45229
11
2.20958
21
1.45261
0
LINE
8
BLACK
6
CONTINUOUS
10
2.20958
20
1.45261
11
2.2096
21
1.45297
0
LINE
8
BLACK
6
CONTINUOUS
10
2.2096
20
1.45297
11
2.21025
21
1.45396
0
LINE
8
BLACK
6
CONTINUOUS
10
2.21025
20
1.45396
11
2.21078
21
1.45502
0
LINE
8
BLACK
6
CONTINUOUS
10
2.21078
20
1.45502
11
2.21108
21
1.45522
0
LINE
8
BLACK
6
CONTINUOUS
10
2.21108
20
1.45522
11
2.21128
21
1.45552
0
LINE
8
BLACK
6
CONTINUOUS
10
2.21128
20
1.45552
11
2.21234
21
1.45605
0
LINE
8
BLACK
6
CONTINUOUS
10
2.21234
20
1.45605
11
2.21333
21
1.4567
0
LINE
8
BLACK
6
CONTINUOUS
10
2.21333
20
1.4567
11
2.27239
21
1.47639
0
LINE
8
BLACK
6
CONTINUOUS
10
2.27239
20
1.47639
11
2.27544
21
1.47657
0
LINE
8
BLACK
6
CONTINUOUS
10
2.27544
20
1.47657
11
2.27817
21
1.47521
0
LINE
8
BLACK
6
CONTINUOUS
10
2.23387
20
1.4511
11
2.25148
21
1.44524
0
LINE
8
BLACK
6
CONTINUOUS
10
2.25148
20
1.44524
11
2.25148
21
1.45697
0
LINE
8
BLACK
6
CONTINUOUS
10
2.25148
20
1.45697
11
2.23387
21
1.4511
0
LINE
8
BLACK
6
CONTINUOUS
10
0.117168
20
1.43067
11
0.115007
21
1.43283
0
LINE
8
BLACK
6
CONTINUOUS
10
0.115007
20
1.43283
11
0.114215
21
1.43578
0
LINE
8
BLACK
6
CONTINUOUS
10
0.114215
20
1.43578
11
0.114215
21
1.45547
0
LINE
8
BLACK
6
CONTINUOUS
10
0.114215
20
1.45547
11
0.114567
21
1.45678
0
LINE
8
BLACK
6
CONTINUOUS
10
0.114567
20
1.45678
11
0.114839
21
1.45811
0
LINE
8
BLACK
6
CONTINUOUS
10
0.114839
20
1.45811
11
0.117651
21
1.46373
0
LINE
8
BLACK
6
CONTINUOUS
10
0.117651
20
1.46373
11
0.118282
21
1.46444
0
LINE
8
BLACK
6
CONTINUOUS
10
0.118282
20
1.46444
11
0.118757
21
1.46527
0
LINE
8
BLACK
6
CONTINUOUS
10
0.118757
20
1.46527
11
0.121569
21
1.46808
0
LINE
8
BLACK
6
CONTINUOUS
10
0.121569
20
1.46808
11
0.122393
21
1.46855
0
LINE
8
BLACK
6
CONTINUOUS
10
0.122393
20
1.46855
11
0.123104
21
1.46919
0
LINE
8
BLACK
6
CONTINUOUS
10
0.123104
20
1.46919
11
0.128728
21
1.472
0
LINE
8
BLACK
6
CONTINUOUS
10
0.128728
20
1.472
11
0.130058
21
1.47227
0
LINE
8
BLACK
6
CONTINUOUS
10
0.130058
20
1.47227
11
0.131369
21
1.47262
0
LINE
8
BLACK
6
CONTINUOUS
10
0.131369
20
1.47262
11
0.136994
21
1.47262
0
LINE
8
BLACK
6
CONTINUOUS
10
0.136994
20
1.47262
11
0.138305
21
1.47227
0
LINE
8
BLACK
6
CONTINUOUS
10
0.138305
20
1.47227
11
0.139635
21
1.472
0
LINE
8
BLACK
6
CONTINUOUS
10
0.139635
20
1.472
11
0.145259
21
1.46919
0
LINE
8
BLACK
6
CONTINUOUS
10
0.145259
20
1.46919
11
0.145971
21
1.46855
0
LINE
8
BLACK
6
CONTINUOUS
10
0.145971
20
1.46855
11
0.146794
21
1.46808
0
LINE
8
BLACK
6
CONTINUOUS
10
0.146794
20
1.46808
11
0.146848
21
1.46803
0
LINE
8
BLACK
6
CONTINUOUS
10
0.146848
20
1.46803
11
0.146879
21
1.46808
0
LINE
8
BLACK
6
CONTINUOUS
10
0.146879
20
1.46808
11
0.149691
21
1.47089
0
LINE
8
BLACK
6
CONTINUOUS
10
0.149691
20
1.47089
11
0.150514
21
1.47137
0
LINE
8
BLACK
6
CONTINUOUS
10
0.150514
20
1.47137
11
0.151226
21
1.472
0
LINE
8
BLACK
6
CONTINUOUS
10
0.151226
20
1.472
11
0.15685
21
1.47481
0
LINE
8
BLACK
6
CONTINUOUS
10
0.15685
20
1.47481
11
0.15818
21
1.47508
0
LINE
8
BLACK
6
CONTINUOUS
10
0.15818
20
1.47508
11
0.159491
21
1.47543
0
LINE
8
BLACK
6
CONTINUOUS
10
0.159491
20
1.47543
11
0.167927
21
1.47543
0
LINE
8
BLACK
6
CONTINUOUS
10
0.167927
20
1.47543
11
0.169239
21
1.47508
0
LINE
8
BLACK
6
CONTINUOUS
10
0.169239
20
1.47508
11
0.170568
21
1.47481
0
LINE
8
BLACK
6
CONTINUOUS
10
0.170568
20
1.47481
11
0.176193
21
1.472
0
LINE
8
BLACK
6
CONTINUOUS
10
0.176193
20
1.472
11
0.176904
21
1.47137
0
LINE
8
BLACK
6
CONTINUOUS
10
0.176904
20
1.47137
11
0.177728
21
1.47089
0
LINE
8
BLACK
6
CONTINUOUS
10
0.177728
20
1.47089
11
0.18054
21
1.46808
0
LINE
8
BLACK
6
CONTINUOUS
10
0.18054
20
1.46808
11
0.181015
21
1.46726
0
LINE
8
BLACK
6
CONTINUOUS
10
0.181015
20
1.46726
11
0.181646
21
1.46654
0
LINE
8
BLACK
6
CONTINUOUS
10
0.181646
20
1.46654
11
0.184458
21
1.46092
0
LINE
8
BLACK
6
CONTINUOUS
10
0.184458
20
1.46092
11
0.18473
21
1.45959
0
LINE
8
BLACK
6
CONTINUOUS
10
0.18473
20
1.45959
11
0.185082
21
1.45828
0
LINE
8
BLACK
6
CONTINUOUS
10
0.185082
20
1.45828
11
0.185082
21
1.43578
0
LINE
8
BLACK
6
CONTINUOUS
10
0.185082
20
1.43578
11
0.18429
21
1.43283
0
LINE
8
BLACK
6
CONTINUOUS
10
0.18429
20
1.43283
11
0.182129
21
1.43067
0
LINE
8
BLACK
6
CONTINUOUS
10
0.182129
20
1.43067
11
0.179176
21
1.42988
0
LINE
8
BLACK
6
CONTINUOUS
10
0.179176
20
1.42988
11
0.120121
21
1.42988
0
LINE
8
BLACK
6
CONTINUOUS
10
0.120121
20
1.42988
11
0.117168
21
1.43067
0
LINE
8
BLACK
6
CONTINUOUS
10
0.132764
20
1.46081
11
0.129243
21
1.45905
0
LINE
8
BLACK
6
CONTINUOUS
10
0.129243
20
1.45905
11
0.127787
21
1.45759
0
LINE
8
BLACK
6
CONTINUOUS
10
0.127787
20
1.45759
11
0.126026
21
1.45407
0
LINE
8
BLACK
6
CONTINUOUS
10
0.126026
20
1.45407
11
0.126026
21
1.44169
0
LINE
8
BLACK
6
CONTINUOUS
10
0.126026
20
1.44169
11
0.142337
21
1.44169
0
LINE
8
BLACK
6
CONTINUOUS
10
0.142337
20
1.44169
11
0.142337
21
1.45407
0
LINE
8
BLACK
6
CONTINUOUS
10
0.142337
20
1.45407
11
0.140577
21
1.45759
0
LINE
8
BLACK
6
CONTINUOUS
10
0.140577
20
1.45759
11
0.13912
21
1.45905
0
LINE
8
BLACK
6
CONTINUOUS
10
0.13912
20
1.45905
11
0.1356
21
1.46081
0
LINE
8
BLACK
6
CONTINUOUS
10
0.1356
20
1.46081
11
0.132764
21
1.46081
0
LINE
8
BLACK
6
CONTINUOUS
10
0.160885
20
1.46362
11
0.157365
21
1.46186
0
LINE
8
BLACK
6
CONTINUOUS
10
0.157365
20
1.46186
11
0.156216
21
1.46071
0
LINE
8
BLACK
6
CONTINUOUS
10
0.156216
20
1.46071
11
0.154148
21
1.45451
0
LINE
8
BLACK
6
CONTINUOUS
10
0.154148
20
1.45451
11
0.154148
21
1.44169
0
LINE
8
BLACK
6
CONTINUOUS
10
0.154148
20
1.44169
11
0.173271
21
1.44169
0
LINE
8
BLACK
6
CONTINUOUS
10
0.173271
20
1.44169
11
0.173271
21
1.45688
0
LINE
8
BLACK
6
CONTINUOUS
10
0.173271
20
1.45688
11
0.17151
21
1.46041
0
LINE
8
BLACK
6
CONTINUOUS
10
0.17151
20
1.46041
11
0.170054
21
1.46186
0
LINE
8
BLACK
6
CONTINUOUS
10
0.170054
20
1.46186
11
0.166533
21
1.46362
0
LINE
8
BLACK
6
CONTINUOUS
10
0.166533
20
1.46362
11
0.160885
21
1.46362
0
LINE
8
BLACK
6
CONTINUOUS
10
2.18213
20
1.48434
11
2.18429
21
1.48218
0
LINE
8
BLACK
6
CONTINUOUS
10
2.18429
20
1.48218
11
2.18508
21
1.47922
0
LINE
8
BLACK
6
CONTINUOUS
10
2.18508
20
1.47922
11
2.18508
21
1.44548
0
LINE
8
BLACK
6
CONTINUOUS
10
2.18508
20
1.44548
11
2.18429
21
1.44253
0
LINE
8
BLACK
6
CONTINUOUS
10
2.18429
20
1.44253
11
2.18213
21
1.44036
0
LINE
8
BLACK
6
CONTINUOUS
10
2.18213
20
1.44036
11
2.17918
21
1.43957
0
LINE
8
BLACK
6
CONTINUOUS
10
2.17918
20
1.43957
11
2.17622
21
1.44036
0
LINE
8
BLACK
6
CONTINUOUS
10
2.17622
20
1.44036
11
2.17406
21
1.44253
0
LINE
8
BLACK
6
CONTINUOUS
10
2.17406
20
1.44253
11
2.17327
21
1.44548
0
LINE
8
BLACK
6
CONTINUOUS
10
2.17327
20
1.44548
11
2.17327
21
1.45645
0
LINE
8
BLACK
6
CONTINUOUS
10
2.17327
20
1.45645
11
2.13719
21
1.45645
0
LINE
8
BLACK
6
CONTINUOUS
10
2.13719
20
1.45645
11
2.13836
21
1.45528
0
LINE
8
BLACK
6
CONTINUOUS
10
2.13836
20
1.45528
11
2.13883
21
1.45445
0
LINE
8
BLACK
6
CONTINUOUS
10
2.13883
20
1.45445
11
2.13946
21
1.45374
0
LINE
8
BLACK
6
CONTINUOUS
10
2.13946
20
1.45374
11
2.14228
21
1.44812
0
LINE
8
BLACK
6
CONTINUOUS
10
2.14228
20
1.44812
11
2.14289
21
1.44512
0
LINE
8
BLACK
6
CONTINUOUS
10
2.14289
20
1.44512
11
2.14192
21
1.44222
0
LINE
8
BLACK
6
CONTINUOUS
10
2.14192
20
1.44222
11
2.13963
21
1.4402
0
LINE
8
BLACK
6
CONTINUOUS
10
2.13963
20
1.4402
11
2.13664
21
1.43958
0
LINE
8
BLACK
6
CONTINUOUS
10
2.13664
20
1.43958
11
2.13374
21
1.44055
0
LINE
8
BLACK
6
CONTINUOUS
10
2.13374
20
1.44055
11
2.13171
21
1.44284
0
LINE
8
BLACK
6
CONTINUOUS
10
2.13171
20
1.44284
11
2.12933
21
1.4476
0
LINE
8
BLACK
6
CONTINUOUS
10
2.12933
20
1.4476
11
2.1248
21
1.45214
0
LINE
8
BLACK
6
CONTINUOUS
10
2.1248
20
1.45214
11
2.11685
21
1.45744
0
LINE
8
BLACK
6
CONTINUOUS
10
2.11685
20
1.45744
11
2.11596
21
1.45845
0
LINE
8
BLACK
6
CONTINUOUS
10
2.11596
20
1.45845
11
2.11501
21
1.4594
0
LINE
8
BLACK
6
CONTINUOUS
10
2.11501
20
1.4594
11
2.11496
21
1.45959
0
LINE
8
BLACK
6
CONTINUOUS
10
2.11496
20
1.45959
11
2.11483
21
1.45973
0
LINE
8
BLACK
6
CONTINUOUS
10
2.11483
20
1.45973
11
2.11456
21
1.46105
0
LINE
8
BLACK
6
CONTINUOUS
10
2.11456
20
1.46105
11
2.11422
21
1.46235
0
LINE
8
BLACK
6
CONTINUOUS
10
2.11422
20
1.46235
11
2.11427
21
1.46254
0
LINE
8
BLACK
6
CONTINUOUS
10
2.11427
20
1.46254
11
2.11423
21
1.46273
0
LINE
8
BLACK
6
CONTINUOUS
10
2.11423
20
1.46273
11
2.11466
21
1.464
0
LINE
8
BLACK
6
CONTINUOUS
10
2.11466
20
1.464
11
2.11501
21
1.4653
0
LINE
8
BLACK
6
CONTINUOUS
10
2.11501
20
1.4653
11
2.11514
21
1.46544
0
LINE
8
BLACK
6
CONTINUOUS
10
2.11514
20
1.46544
11
2.11521
21
1.46563
0
LINE
8
BLACK
6
CONTINUOUS
10
2.11521
20
1.46563
11
2.11622
21
1.46651
0
LINE
8
BLACK
6
CONTINUOUS
10
2.11622
20
1.46651
11
2.11717
21
1.46747
0
LINE
8
BLACK
6
CONTINUOUS
10
2.11717
20
1.46747
11
2.11736
21
1.46752
0
LINE
8
BLACK
6
CONTINUOUS
10
2.11736
20
1.46752
11
2.1175
21
1.46764
0
LINE
8
BLACK
6
CONTINUOUS
10
2.1175
20
1.46764
11
2.11882
21
1.46791
0
LINE
8
BLACK
6
CONTINUOUS
10
2.11882
20
1.46791
11
2.12012
21
1.46826
0
LINE
8
BLACK
6
CONTINUOUS
10
2.12012
20
1.46826
11
2.17327
21
1.46826
0
LINE
8
BLACK
6
CONTINUOUS
10
2.17327
20
1.46826
11
2.17327
21
1.47922
0
LINE
8
BLACK
6
CONTINUOUS
10
2.17327
20
1.47922
11
2.17406
21
1.48218
0
LINE
8
BLACK
6
CONTINUOUS
10
2.17406
20
1.48218
11
2.17622
21
1.48434
0
LINE
8
BLACK
6
CONTINUOUS
10
2.17622
20
1.48434
11
2.17918
21
1.48513
0
LINE
8
BLACK
6
CONTINUOUS
10
2.17918
20
1.48513
11
2.18213
21
1.48434
0
LINE
8
BLACK
6
CONTINUOUS
10
0.232991
20
1.49065
11
0.23394
21
1.4906
0
LINE
8
BLACK
6
CONTINUOUS
10
0.23394
20
1.4906
11
0.242376
21
1.48778
0
LINE
8
BLACK
6
CONTINUOUS
10
0.242376
20
1.48778
11
0.243509
21
1.48704
0
LINE
8
BLACK
6
CONTINUOUS
10
0.243509
20
1.48704
11
0.244685
21
1.48636
0
LINE
8
BLACK
6
CONTINUOUS
10
0.244685
20
1.48636
11
0.268349
21
1.46269
0
LINE
8
BLACK
6
CONTINUOUS
10
0.268349
20
1.46269
11
0.268349
21
1.48499
0
LINE
8
BLACK
6
CONTINUOUS
10
0.268349
20
1.48499
11
0.26914
21
1.48795
0
LINE
8
BLACK
6
CONTINUOUS
10
0.26914
20
1.48795
11
0.271302
21
1.49011
0
LINE
8
BLACK
6
CONTINUOUS
10
0.271302
20
1.49011
11
0.274255
21
1.4909
0
LINE
8
BLACK
6
CONTINUOUS
10
0.274255
20
1.4909
11
0.277208
21
1.49011
0
LINE
8
BLACK
6
CONTINUOUS
10
0.277208
20
1.49011
11
0.279369
21
1.48795
0
LINE
8
BLACK
6
CONTINUOUS
10
0.279369
20
1.48795
11
0.28016
21
1.48499
0
LINE
8
BLACK
6
CONTINUOUS
10
0.28016
20
1.48499
11
0.28016
21
1.44844
0
LINE
8
BLACK
6
CONTINUOUS
10
0.28016
20
1.44844
11
0.279959
21
1.44769
0
LINE
8
BLACK
6
CONTINUOUS
10
0.279959
20
1.44769
11
0.279959
21
1.44691
0
LINE
8
BLACK
6
CONTINUOUS
10
0.279959
20
1.44691
11
0.27957
21
1.44623
0
LINE
8
BLACK
6
CONTINUOUS
10
0.27957
20
1.44623
11
0.279369
21
1.44548
0
LINE
8
BLACK
6
CONTINUOUS
10
0.279369
20
1.44548
11
0.278819
21
1.44493
0
LINE
8
BLACK
6
CONTINUOUS
10
0.278819
20
1.44493
11
0.278431
21
1.44426
0
LINE
8
BLACK
6
CONTINUOUS
10
0.278431
20
1.44426
11
0.277757
21
1.44387
0
LINE
8
BLACK
6
CONTINUOUS
10
0.277757
20
1.44387
11
0.277208
21
1.44332
0
LINE
8
BLACK
6
CONTINUOUS
10
0.277208
20
1.44332
11
0.276457
21
1.44312
0
LINE
8
BLACK
6
CONTINUOUS
10
0.276457
20
1.44312
11
0.275783
21
1.44273
0
LINE
8
BLACK
6
CONTINUOUS
10
0.275783
20
1.44273
11
0.275006
21
1.44273
0
LINE
8
BLACK
6
CONTINUOUS
10
0.275006
20
1.44273
11
0.274255
21
1.44253
0
LINE
8
BLACK
6
CONTINUOUS
10
0.274255
20
1.44253
11
0.273504
21
1.44273
0
LINE
8
BLACK
6
CONTINUOUS
10
0.273504
20
1.44273
11
0.272726
21
1.44273
0
LINE
8
BLACK
6
CONTINUOUS
10
0.272726
20
1.44273
11
0.272053
21
1.44312
0
LINE
8
BLACK
6
CONTINUOUS
10
0.272053
20
1.44312
11
0.271302
21
1.44332
0
LINE
8
BLACK
6
CONTINUOUS
10
0.271302
20
1.44332
11
0.270752
21
1.44387
0
LINE
8
BLACK
6
CONTINUOUS
10
0.270752
20
1.44387
11
0.270079
21
1.44426
0
LINE
8
BLACK
6
CONTINUOUS
10
0.270079
20
1.44426
11
0.237319
21
1.47702
0
LINE
8
BLACK
6
CONTINUOUS
10
0.237319
20
1.47702
11
0.231114
21
1.47909
0
LINE
8
BLACK
6
CONTINUOUS
10
0.231114
20
1.47909
11
0.227842
21
1.47909
0
LINE
8
BLACK
6
CONTINUOUS
10
0.227842
20
1.47909
11
0.224322
21
1.47733
0
LINE
8
BLACK
6
CONTINUOUS
10
0.224322
20
1.47733
11
0.222865
21
1.47587
0
LINE
8
BLACK
6
CONTINUOUS
10
0.222865
20
1.47587
11
0.221105
21
1.47235
0
LINE
8
BLACK
6
CONTINUOUS
10
0.221105
20
1.47235
11
0.221105
21
1.46108
0
LINE
8
BLACK
6
CONTINUOUS
10
0.221105
20
1.46108
11
0.222865
21
1.45756
0
LINE
8
BLACK
6
CONTINUOUS
10
0.222865
20
1.45756
11
0.225
21
1.45542
0
LINE
8
BLACK
6
CONTINUOUS
10
0.225
20
1.45542
11
0.226528
21
1.45278
0
LINE
8
BLACK
6
CONTINUOUS
10
0.226528
20
1.45278
11
0.226528
21
1.44972
0
LINE
8
BLACK
6
CONTINUOUS
10
0.226528
20
1.44972
11
0.225
21
1.44707
0
LINE
8
BLACK
6
CONTINUOUS
10
0.225
20
1.44707
11
0.222352
21
1.44554
0
LINE
8
BLACK
6
CONTINUOUS
10
0.222352
20
1.44554
11
0.219295
21
1.44554
0
LINE
8
BLACK
6
CONTINUOUS
10
0.219295
20
1.44554
11
0.216648
21
1.44707
0
LINE
8
BLACK
6
CONTINUOUS
10
0.216648
20
1.44707
11
0.213836
21
1.44988
0
LINE
8
BLACK
6
CONTINUOUS
10
0.213836
20
1.44988
11
0.213361
21
1.45071
0
LINE
8
BLACK
6
CONTINUOUS
10
0.213361
20
1.45071
11
0.21273
21
1.45142
0
LINE
8
BLACK
6
CONTINUOUS
10
0.21273
20
1.45142
11
0.209918
21
1.45704
0
LINE
8
BLACK
6
CONTINUOUS
10
0.209918
20
1.45704
11
0.209645
21
1.45837
0
LINE
8
BLACK
6
CONTINUOUS
10
0.209645
20
1.45837
11
0.209294
21
1.45969
0
LINE
8
BLACK
6
CONTINUOUS
10
0.209294
20
1.45969
11
0.209294
21
1.47375
0
LINE
8
BLACK
6
CONTINUOUS
10
0.209294
20
1.47375
11
0.209645
21
1.47506
0
LINE
8
BLACK
6
CONTINUOUS
10
0.209645
20
1.47506
11
0.209918
21
1.47639
0
LINE
8
BLACK
6
CONTINUOUS
10
0.209918
20
1.47639
11
0.21273
21
1.48201
0
LINE
8
BLACK
6
CONTINUOUS
10
0.21273
20
1.48201
11
0.213361
21
1.48272
0
LINE
8
BLACK
6
CONTINUOUS
10
0.213361
20
1.48272
11
0.213836
21
1.48355
0
LINE
8
BLACK
6
CONTINUOUS
10
0.213836
20
1.48355
11
0.216648
21
1.48636
0
LINE
8
BLACK
6
CONTINUOUS
10
0.216648
20
1.48636
11
0.217472
21
1.48683
0
LINE
8
BLACK
6
CONTINUOUS
10
0.217472
20
1.48683
11
0.218183
21
1.48746
0
LINE
8
BLACK
6
CONTINUOUS
10
0.218183
20
1.48746
11
0.223807
21
1.49028
0
LINE
8
BLACK
6
CONTINUOUS
10
0.223807
20
1.49028
11
0.225137
21
1.49055
0
LINE
8
BLACK
6
CONTINUOUS
10
0.225137
20
1.49055
11
0.226448
21
1.4909
0
LINE
8
BLACK
6
CONTINUOUS
10
0.226448
20
1.4909
11
0.232073
21
1.4909
0
LINE
8
BLACK
6
CONTINUOUS
10
0.232073
20
1.4909
11
0.232991
21
1.49065
0
LINE
8
BLACK
6
CONTINUOUS
10
2.225
20
1.52839
11
2.22653
21
1.52575
0
LINE
8
BLACK
6
CONTINUOUS
10
2.22653
20
1.52575
11
2.22653
21
1.52269
0
LINE
8
BLACK
6
CONTINUOUS
10
2.22653
20
1.52269
11
2.225
21
1.52004
0
LINE
8
BLACK
6
CONTINUOUS
10
2.225
20
1.52004
11
2.22317
21
1.51822
0
LINE
8
BLACK
6
CONTINUOUS
10
2.22317
20
1.51822
11
2.22111
21
1.51201
0
LINE
8
BLACK
6
CONTINUOUS
10
2.22111
20
1.51201
11
2.22111
21
1.5083
0
LINE
8
BLACK
6
CONTINUOUS
10
2.22111
20
1.5083
11
2.22317
21
1.5021
0
LINE
8
BLACK
6
CONTINUOUS
10
2.22317
20
1.5021
11
2.22713
21
1.49814
0
LINE
8
BLACK
6
CONTINUOUS
10
2.22713
20
1.49814
11
2.23132
21
1.49604
0
LINE
8
BLACK
6
CONTINUOUS
10
2.23132
20
1.49604
11
2.24124
21
1.49357
0
LINE
8
BLACK
6
CONTINUOUS
10
2.24124
20
1.49357
11
2.24822
21
1.49357
0
LINE
8
BLACK
6
CONTINUOUS
10
2.24822
20
1.49357
11
2.25813
21
1.49604
0
LINE
8
BLACK
6
CONTINUOUS
10
2.25813
20
1.49604
11
2.26232
21
1.49814
0
LINE
8
BLACK
6
CONTINUOUS
10
2.26232
20
1.49814
11
2.26628
21
1.5021
0
LINE
8
BLACK
6
CONTINUOUS
10
2.26628
20
1.5021
11
2.26835
21
1.5083
0
LINE
8
BLACK
6
CONTINUOUS
10
2.26835
20
1.5083
11
2.26835
21
1.51201
0
LINE
8
BLACK
6
CONTINUOUS
10
2.26835
20
1.51201
11
2.26628
21
1.51822
0
LINE
8
BLACK
6
CONTINUOUS
10
2.26628
20
1.51822
11
2.26445
21
1.52004
0
LINE
8
BLACK
6
CONTINUOUS
10
2.26445
20
1.52004
11
2.26293
21
1.52269
0
LINE
8
BLACK
6
CONTINUOUS
10
2.26293
20
1.52269
11
2.26293
21
1.52575
0
LINE
8
BLACK
6
CONTINUOUS
10
2.26293
20
1.52575
11
2.26445
21
1.52839
0
LINE
8
BLACK
6
CONTINUOUS
10
2.26445
20
1.52839
11
2.2671
21
1.52992
0
LINE
8
BLACK
6
CONTINUOUS
10
2.2671
20
1.52992
11
2.27016
21
1.52992
0
LINE
8
BLACK
6
CONTINUOUS
10
2.27016
20
1.52992
11
2.27281
21
1.52839
0
LINE
8
BLACK
6
CONTINUOUS
10
2.27281
20
1.52839
11
2.27562
21
1.52558
0
LINE
8
BLACK
6
CONTINUOUS
10
2.27562
20
1.52558
11
2.2763
21
1.52441
0
LINE
8
BLACK
6
CONTINUOUS
10
2.2763
20
1.52441
11
2.27705
21
1.52327
0
LINE
8
BLACK
6
CONTINUOUS
10
2.27705
20
1.52327
11
2.27986
21
1.51484
0
LINE
8
BLACK
6
CONTINUOUS
10
2.27986
20
1.51484
11
2.27991
21
1.51389
0
LINE
8
BLACK
6
CONTINUOUS
10
2.27991
20
1.51389
11
2.28016
21
1.51297
0
LINE
8
BLACK
6
CONTINUOUS
10
2.28016
20
1.51297
11
2.28016
21
1.50735
0
LINE
8
BLACK
6
CONTINUOUS
10
2.28016
20
1.50735
11
2.27991
21
1.50643
0
LINE
8
BLACK
6
CONTINUOUS
10
2.27991
20
1.50643
11
2.27986
21
1.50548
0
LINE
8
BLACK
6
CONTINUOUS
10
2.27986
20
1.50548
11
2.27705
21
1.49704
0
LINE
8
BLACK
6
CONTINUOUS
10
2.27705
20
1.49704
11
2.2763
21
1.49591
0
LINE
8
BLACK
6
CONTINUOUS
10
2.2763
20
1.49591
11
2.27562
21
1.49473
0
LINE
8
BLACK
6
CONTINUOUS
10
2.27562
20
1.49473
11
2.26999
21
1.48911
0
LINE
8
BLACK
6
CONTINUOUS
10
2.26999
20
1.48911
11
2.26917
21
1.48863
0
LINE
8
BLACK
6
CONTINUOUS
10
2.26917
20
1.48863
11
2.26846
21
1.488
0
LINE
8
BLACK
6
CONTINUOUS
10
2.26846
20
1.488
11
2.26284
21
1.48519
0
LINE
8
BLACK
6
CONTINUOUS
10
2.26284
20
1.48519
11
2.2622
21
1.48506
0
LINE
8
BLACK
6
CONTINUOUS
10
2.2622
20
1.48506
11
2.26163
21
1.48474
0
LINE
8
BLACK
6
CONTINUOUS
10
2.26163
20
1.48474
11
2.25038
21
1.48193
0
LINE
8
BLACK
6
CONTINUOUS
10
2.25038
20
1.48193
11
2.24965
21
1.48194
0
LINE
8
BLACK
6
CONTINUOUS
10
2.24965
20
1.48194
11
2.24895
21
1.48175
0
LINE
8
BLACK
6
CONTINUOUS
10
2.24895
20
1.48175
11
2.24051
21
1.48175
0
LINE
8
BLACK
6
CONTINUOUS
10
2.24051
20
1.48175
11
2.23981
21
1.48194
0
LINE
8
BLACK
6
CONTINUOUS
10
2.23981
20
1.48194
11
2.23908
21
1.48193
0
LINE
8
BLACK
6
CONTINUOUS
10
2.23908
20
1.48193
11
2.22783
21
1.48474
0
LINE
8
BLACK
6
CONTINUOUS
10
2.22783
20
1.48474
11
2.22726
21
1.48506
0
LINE
8
BLACK
6
CONTINUOUS
10
2.22726
20
1.48506
11
2.22662
21
1.48519
0
LINE
8
BLACK
6
CONTINUOUS
10
2.22662
20
1.48519
11
2.221
21
1.488
0
LINE
8
BLACK
6
CONTINUOUS
10
2.221
20
1.488
11
2.22028
21
1.48863
0
LINE
8
BLACK
6
CONTINUOUS
10
2.22028
20
1.48863
11
2.21946
21
1.48911
0
LINE
8
BLACK
6
CONTINUOUS
10
2.21946
20
1.48911
11
2.21384
21
1.49473
0
LINE
8
BLACK
6
CONTINUOUS
10
2.21384
20
1.49473
11
2.21316
21
1.49591
0
LINE
8
BLACK
6
CONTINUOUS
10
2.21316
20
1.49591
11
2.21241
21
1.49704
0
LINE
8
BLACK
6
CONTINUOUS
10
2.21241
20
1.49704
11
2.2096
21
1.50548
0
LINE
8
BLACK
6
CONTINUOUS
10
2.2096
20
1.50548
11
2.20954
21
1.50643
0
LINE
8
BLACK
6
CONTINUOUS
10
2.20954
20
1.50643
11
2.20929
21
1.50735
0
LINE
8
BLACK
6
CONTINUOUS
10
2.20929
20
1.50735
11
2.20929
21
1.51297
0
LINE
8
BLACK
6
CONTINUOUS
10
2.20929
20
1.51297
11
2.20954
21
1.51389
0
LINE
8
BLACK
6
CONTINUOUS
10
2.20954
20
1.51389
11
2.2096
21
1.51484
0
LINE
8
BLACK
6
CONTINUOUS
10
2.2096
20
1.51484
11
2.21241
21
1.52327
0
LINE
8
BLACK
6
CONTINUOUS
10
2.21241
20
1.52327
11
2.21316
21
1.52441
0
LINE
8
BLACK
6
CONTINUOUS
10
2.21316
20
1.52441
11
2.21384
21
1.52558
0
LINE
8
BLACK
6
CONTINUOUS
10
2.21384
20
1.52558
11
2.21665
21
1.52839
0
LINE
8
BLACK
6
CONTINUOUS
10
2.21665
20
1.52839
11
2.2193
21
1.52992
0
LINE
8
BLACK
6
CONTINUOUS
10
2.2193
20
1.52992
11
2.22235
21
1.52992
0
LINE
8
BLACK
6
CONTINUOUS
10
2.22235
20
1.52992
11
2.225
21
1.52839
0
LINE
8
BLACK
6
CONTINUOUS
10
0.185082
20
1.49484
11
0.18488
21
1.49409
0
LINE
8
BLACK
6
CONTINUOUS
10
0.18488
20
1.49409
11
0.18488
21
1.49331
0
LINE
8
BLACK
6
CONTINUOUS
10
0.18488
20
1.49331
11
0.184492
21
1.49264
0
LINE
8
BLACK
6
CONTINUOUS
10
0.184492
20
1.49264
11
0.18429
21
1.49188
0
LINE
8
BLACK
6
CONTINUOUS
10
0.18429
20
1.49188
11
0.183741
21
1.49133
0
LINE
8
BLACK
6
CONTINUOUS
10
0.183741
20
1.49133
11
0.183421
21
1.49078
0
LINE
8
BLACK
6
CONTINUOUS
10
0.183421
20
1.49078
11
0.183352
21
1.49066
0
LINE
8
BLACK
6
CONTINUOUS
10
0.183352
20
1.49066
11
0.18054
21
1.48785
0
LINE
8
BLACK
6
CONTINUOUS
10
0.18054
20
1.48785
11
0.179873
21
1.48746
0
LINE
8
BLACK
6
CONTINUOUS
10
0.179873
20
1.48746
11
0.177892
21
1.48632
0
LINE
8
BLACK
6
CONTINUOUS
10
0.177892
20
1.48632
11
0.174835
21
1.48632
0
LINE
8
BLACK
6
CONTINUOUS
10
0.174835
20
1.48632
11
0.172558
21
1.48764
0
LINE
8
BLACK
6
CONTINUOUS
10
0.172558
20
1.48764
11
0.172188
21
1.48785
0
LINE
8
BLACK
6
CONTINUOUS
10
0.172188
20
1.48785
11
0.172188
21
1.48785
0
LINE
8
BLACK
6
CONTINUOUS
10
0.172188
20
1.48785
11
0.169376
21
1.49066
0
LINE
8
BLACK
6
CONTINUOUS
10
0.169376
20
1.49066
11
0.168987
21
1.49133
0
LINE
8
BLACK
6
CONTINUOUS
10
0.168987
20
1.49133
11
0.168437
21
1.49188
0
LINE
8
BLACK
6
CONTINUOUS
10
0.168437
20
1.49188
11
0.168236
21
1.49264
0
LINE
8
BLACK
6
CONTINUOUS
10
0.168236
20
1.49264
11
0.167847
21
1.49331
0
LINE
8
BLACK
6
CONTINUOUS
10
0.167847
20
1.49331
11
0.167847
21
1.49409
0
LINE
8
BLACK
6
CONTINUOUS
10
0.167847
20
1.49409
11
0.167646
21
1.49484
0
LINE
8
BLACK
6
CONTINUOUS
10
0.167646
20
1.49484
11
0.167847
21
1.49559
0
LINE
8
BLACK
6
CONTINUOUS
10
0.167847
20
1.49559
11
0.167847
21
1.49637
0
LINE
8
BLACK
6
CONTINUOUS
10
0.167847
20
1.49637
11
0.168236
21
1.49704
0
LINE
8
BLACK
6
CONTINUOUS
10
0.168236
20
1.49704
11
0.168437
21
1.49779
0
LINE
8
BLACK
6
CONTINUOUS
10
0.168437
20
1.49779
11
0.168987
21
1.49834
0
LINE
8
BLACK
6
CONTINUOUS
10
0.168987
20
1.49834
11
0.169118
21
1.49857
0
LINE
8
BLACK
6
CONTINUOUS
10
0.169118
20
1.49857
11
0.169376
21
1.49901
0
LINE
8
BLACK
6
CONTINUOUS
10
0.169376
20
1.49901
11
0.172188
21
1.50182
0
LINE
8
BLACK
6
CONTINUOUS
10
0.172188
20
1.50182
11
0.173307
21
1.50247
0
LINE
8
BLACK
6
CONTINUOUS
10
0.173307
20
1.50247
11
0.174835
21
1.50335
0
LINE
8
BLACK
6
CONTINUOUS
10
0.174835
20
1.50335
11
0.177892
21
1.50335
0
LINE
8
BLACK
6
CONTINUOUS
10
0.177892
20
1.50335
11
0.179421
21
1.50247
0
LINE
8
BLACK
6
CONTINUOUS
10
0.179421
20
1.50247
11
0.18054
21
1.50182
0
LINE
8
BLACK
6
CONTINUOUS
10
0.18054
20
1.50182
11
0.183352
21
1.49901
0
LINE
8
BLACK
6
CONTINUOUS
10
0.183352
20
1.49901
11
0.183352
21
1.49901
0
LINE
8
BLACK
6
CONTINUOUS
10
0.183352
20
1.49901
11
0.183352
21
1.49901
0
LINE
8
BLACK
6
CONTINUOUS
10
0.183352
20
1.49901
11
0.183609
21
1.49857
0
LINE
8
BLACK
6
CONTINUOUS
10
0.183609
20
1.49857
11
0.183741
21
1.49834
0
LINE
8
BLACK
6
CONTINUOUS
10
0.183741
20
1.49834
11
0.18429
21
1.49779
0
LINE
8
BLACK
6
CONTINUOUS
10
0.18429
20
1.49779
11
0.184492
21
1.49704
0
LINE
8
BLACK
6
CONTINUOUS
10
0.184492
20
1.49704
11
0.18488
21
1.49637
0
LINE
8
BLACK
6
CONTINUOUS
10
0.18488
20
1.49637
11
0.18488
21
1.49559
0
LINE
8
BLACK
6
CONTINUOUS
10
0.18488
20
1.49559
11
0.185082
21
1.49484
0
LINE
8
BLACK
6
CONTINUOUS
10
2.13549
20
1.54102
11
2.13682
21
1.54075
0
LINE
8
BLACK
6
CONTINUOUS
10
2.13682
20
1.54075
11
2.14245
21
1.53794
0
LINE
8
BLACK
6
CONTINUOUS
10
2.14245
20
1.53794
11
2.14316
21
1.53731
0
LINE
8
BLACK
6
CONTINUOUS
10
2.14316
20
1.53731
11
2.14398
21
1.53683
0
LINE
8
BLACK
6
CONTINUOUS
10
2.14398
20
1.53683
11
2.14543
21
1.53538
0
LINE
8
BLACK
6
CONTINUOUS
10
2.14543
20
1.53538
11
2.14688
21
1.53683
0
LINE
8
BLACK
6
CONTINUOUS
10
2.14688
20
1.53683
11
2.1477
21
1.53731
0
LINE
8
BLACK
6
CONTINUOUS
10
2.1477
20
1.53731
11
2.14841
21
1.53794
0
LINE
8
BLACK
6
CONTINUOUS
10
2.14841
20
1.53794
11
2.15404
21
1.54075
0
LINE
8
BLACK
6
CONTINUOUS
10
2.15404
20
1.54075
11
2.15537
21
1.54102
0
LINE
8
BLACK
6
CONTINUOUS
10
2.15537
20
1.54102
11
2.15668
21
1.54137
0
LINE
8
BLACK
6
CONTINUOUS
10
2.15668
20
1.54137
11
2.16793
21
1.54137
0
LINE
8
BLACK
6
CONTINUOUS
10
2.16793
20
1.54137
11
2.16924
21
1.54102
0
LINE
8
BLACK
6
CONTINUOUS
10
2.16924
20
1.54102
11
2.17057
21
1.54075
0
LINE
8
BLACK
6
CONTINUOUS
10
2.17057
20
1.54075
11
2.17619
21
1.53794
0
LINE
8
BLACK
6
CONTINUOUS
10
2.17619
20
1.53794
11
2.1769
21
1.53731
0
LINE
8
BLACK
6
CONTINUOUS
10
2.1769
20
1.53731
11
2.17773
21
1.53683
0
LINE
8
BLACK
6
CONTINUOUS
10
2.17773
20
1.53683
11
2.18054
21
1.53402
0
LINE
8
BLACK
6
CONTINUOUS
10
2.18054
20
1.53402
11
2.18102
21
1.53319
0
LINE
8
BLACK
6
CONTINUOUS
10
2.18102
20
1.53319
11
2.18165
21
1.53248
0
LINE
8
BLACK
6
CONTINUOUS
10
2.18165
20
1.53248
11
2.18446
21
1.52686
0
LINE
8
BLACK
6
CONTINUOUS
10
2.18446
20
1.52686
11
2.18473
21
1.52553
0
LINE
8
BLACK
6
CONTINUOUS
10
2.18473
20
1.52553
11
2.18508
21
1.52422
0
LINE
8
BLACK
6
CONTINUOUS
10
2.18508
20
1.52422
11
2.18508
21
1.51297
0
LINE
8
BLACK
6
CONTINUOUS
10
2.18508
20
1.51297
11
2.18473
21
1.51166
0
LINE
8
BLACK
6
CONTINUOUS
10
2.18473
20
1.51166
11
2.18446
21
1.51033
0
LINE
8
BLACK
6
CONTINUOUS
10
2.18446
20
1.51033
11
2.18165
21
1.5047
0
LINE
8
BLACK
6
CONTINUOUS
10
2.18165
20
1.5047
11
2.18102
21
1.50399
0
LINE
8
BLACK
6
CONTINUOUS
10
2.18102
20
1.50399
11
2.18054
21
1.50317
0
LINE
8
BLACK
6
CONTINUOUS
10
2.18054
20
1.50317
11
2.17773
21
1.50036
0
LINE
8
BLACK
6
CONTINUOUS
10
2.17773
20
1.50036
11
2.1769
21
1.49988
0
LINE
8
BLACK
6
CONTINUOUS
10
2.1769
20
1.49988
11
2.17619
21
1.49925
0
LINE
8
BLACK
6
CONTINUOUS
10
2.17619
20
1.49925
11
2.17057
21
1.49644
0
LINE
8
BLACK
6
CONTINUOUS
10
2.17057
20
1.49644
11
2.16924
21
1.49617
0
LINE
8
BLACK
6
CONTINUOUS
10
2.16924
20
1.49617
11
2.16793
21
1.49582
0
LINE
8
BLACK
6
CONTINUOUS
10
2.16793
20
1.49582
11
2.15668
21
1.49582
0
LINE
8
BLACK
6
CONTINUOUS
10
2.15668
20
1.49582
11
2.15537
21
1.49617
0
LINE
8
BLACK
6
CONTINUOUS
10
2.15537
20
1.49617
11
2.15404
21
1.49644
0
LINE
8
BLACK
6
CONTINUOUS
10
2.15404
20
1.49644
11
2.14841
21
1.49925
0
LINE
8
BLACK
6
CONTINUOUS
10
2.14841
20
1.49925
11
2.1477
21
1.49988
0
LINE
8
BLACK
6
CONTINUOUS
10
2.1477
20
1.49988
11
2.14688
21
1.50036
0
LINE
8
BLACK
6
CONTINUOUS
10
2.14688
20
1.50036
11
2.14543
21
1.50181
0
LINE
8
BLACK
6
CONTINUOUS
10
2.14543
20
1.50181
11
2.14398
21
1.50036
0
LINE
8
BLACK
6
CONTINUOUS
10
2.14398
20
1.50036
11
2.14316
21
1.49988
0
LINE
8
BLACK
6
CONTINUOUS
10
2.14316
20
1.49988
11
2.14245
21
1.49925
0
LINE
8
BLACK
6
CONTINUOUS
10
2.14245
20
1.49925
11
2.13682
21
1.49644
0
LINE
8
BLACK
6
CONTINUOUS
10
2.13682
20
1.49644
11
2.13549
21
1.49617
0
LINE
8
BLACK
6
CONTINUOUS
10
2.13549
20
1.49617
11
2.13418
21
1.49582
0
LINE
8
BLACK
6
CONTINUOUS
10
2.13418
20
1.49582
11
2.13137
21
1.49582
0
LINE
8
BLACK
6
CONTINUOUS
10
2.13137
20
1.49582
11
2.13006
21
1.49617
0
LINE
8
BLACK
6
CONTINUOUS
10
2.13006
20
1.49617
11
2.12873
21
1.49644
0
LINE
8
BLACK
6
CONTINUOUS
10
2.12873
20
1.49644
11
2.1231
21
1.49925
0
LINE
8
BLACK
6
CONTINUOUS
10
2.1231
20
1.49925
11
2.12239
21
1.49988
0
LINE
8
BLACK
6
CONTINUOUS
10
2.12239
20
1.49988
11
2.12157
21
1.50036
0
LINE
8
BLACK
6
CONTINUOUS
10
2.12157
20
1.50036
11
2.11876
21
1.50317
0
LINE
8
BLACK
6
CONTINUOUS
10
2.11876
20
1.50317
11
2.11828
21
1.50399
0
LINE
8
BLACK
6
CONTINUOUS
10
2.11828
20
1.50399
11
2.11765
21
1.5047
0
LINE
8
BLACK
6
CONTINUOUS
10
2.11765
20
1.5047
11
2.11484
21
1.51033
0
LINE
8
BLACK
6
CONTINUOUS
10
2.11484
20
1.51033
11
2.11457
21
1.51166
0
LINE
8
BLACK
6
CONTINUOUS
10
2.11457
20
1.51166
11
2.11422
21
1.51297
0
LINE
8
BLACK
6
CONTINUOUS
10
2.11422
20
1.51297
11
2.11422
21
1.52422
0
LINE
8
BLACK
6
CONTINUOUS
10
2.11422
20
1.52422
11
2.11457
21
1.52553
0
LINE
8
BLACK
6
CONTINUOUS
10
2.11457
20
1.52553
11
2.11484
21
1.52686
0
LINE
8
BLACK
6
CONTINUOUS
10
2.11484
20
1.52686
11
2.11765
21
1.53248
0
LINE
8
BLACK
6
CONTINUOUS
10
2.11765
20
1.53248
11
2.11828
21
1.53319
0
LINE
8
BLACK
6
CONTINUOUS
10
2.11828
20
1.53319
11
2.11876
21
1.53402
0
LINE
8
BLACK
6
CONTINUOUS
10
2.11876
20
1.53402
11
2.12157
21
1.53683
0
LINE
8
BLACK
6
CONTINUOUS
10
2.12157
20
1.53683
11
2.12239
21
1.53731
0
LINE
8
BLACK
6
CONTINUOUS
10
2.12239
20
1.53731
11
2.1231
21
1.53794
0
LINE
8
BLACK
6
CONTINUOUS
10
2.1231
20
1.53794
11
2.12873
21
1.54075
0
LINE
8
BLACK
6
CONTINUOUS
10
2.12873
20
1.54075
11
2.13006
21
1.54102
0
LINE
8
BLACK
6
CONTINUOUS
10
2.13006
20
1.54102
11
2.13137
21
1.54137
0
LINE
8
BLACK
6
CONTINUOUS
10
2.13137
20
1.54137
11
2.13418
21
1.54137
0
LINE
8
BLACK
6
CONTINUOUS
10
2.13418
20
1.54137
11
2.13549
21
1.54102
0
LINE
8
BLACK
6
CONTINUOUS
10
2.15807
20
1.52956
11
2.15455
21
1.5278
0
LINE
8
BLACK
6
CONTINUOUS
10
2.15455
20
1.5278
11
2.1531
21
1.52634
0
LINE
8
BLACK
6
CONTINUOUS
10
2.1531
20
1.52634
11
2.15134
21
1.52282
0
LINE
8
BLACK
6
CONTINUOUS
10
2.15134
20
1.52282
11
2.15134
21
1.51436
0
LINE
8
BLACK
6
CONTINUOUS
10
2.15134
20
1.51436
11
2.1531
21
1.51084
0
LINE
8
BLACK
6
CONTINUOUS
10
2.1531
20
1.51084
11
2.15455
21
1.50939
0
LINE
8
BLACK
6
CONTINUOUS
10
2.15455
20
1.50939
11
2.15807
21
1.50763
0
LINE
8
BLACK
6
CONTINUOUS
10
2.15807
20
1.50763
11
2.16653
21
1.50763
0
LINE
8
BLACK
6
CONTINUOUS
10
2.16653
20
1.50763
11
2.17005
21
1.50939
0
LINE
8
BLACK
6
CONTINUOUS
10
2.17005
20
1.50939
11
2.17151
21
1.51084
0
LINE
8
BLACK
6
CONTINUOUS
10
2.17151
20
1.51084
11
2.17327
21
1.51436
0
LINE
8
BLACK
6
CONTINUOUS
10
2.17327
20
1.51436
11
2.17327
21
1.52282
0
LINE
8
BLACK
6
CONTINUOUS
10
2.17327
20
1.52282
11
2.17151
21
1.52634
0
LINE
8
BLACK
6
CONTINUOUS
10
2.17151
20
1.52634
11
2.17005
21
1.5278
0
LINE
8
BLACK
6
CONTINUOUS
10
2.17005
20
1.5278
11
2.16653
21
1.52956
0
LINE
8
BLACK
6
CONTINUOUS
10
2.16653
20
1.52956
11
2.15807
21
1.52956
0
LINE
8
BLACK
6
CONTINUOUS
10
2.13276
20
1.52956
11
2.12924
21
1.5278
0
LINE
8
BLACK
6
CONTINUOUS
10
2.12924
20
1.5278
11
2.12779
21
1.52634
0
LINE
8
BLACK
6
CONTINUOUS
10
2.12779
20
1.52634
11
2.12603
21
1.52282
0
LINE
8
BLACK
6
CONTINUOUS
10
2.12603
20
1.52282
11
2.12603
21
1.51436
0
LINE
8
BLACK
6
CONTINUOUS
10
2.12603
20
1.51436
11
2.12779
21
1.51084
0
LINE
8
BLACK
6
CONTINUOUS
10
2.12779
20
1.51084
11
2.12924
21
1.50939
0
LINE
8
BLACK
6
CONTINUOUS
10
2.12924
20
1.50939
11
2.13276
21
1.50763
0
LINE
8
BLACK
6
CONTINUOUS
10
2.13276
20
1.50763
11
2.13279
21
1.50763
0
LINE
8
BLACK
6
CONTINUOUS
10
2.13279
20
1.50763
11
2.13631
21
1.50939
0
LINE
8
BLACK
6
CONTINUOUS
10
2.13631
20
1.50939
11
2.13776
21
1.51084
0
LINE
8
BLACK
6
CONTINUOUS
10
2.13776
20
1.51084
11
2.13952
21
1.51436
0
LINE
8
BLACK
6
CONTINUOUS
10
2.13952
20
1.51436
11
2.13952
21
1.52282
0
LINE
8
BLACK
6
CONTINUOUS
10
2.13952
20
1.52282
11
2.13776
21
1.52634
0
LINE
8
BLACK
6
CONTINUOUS
10
2.13776
20
1.52634
11
2.13631
21
1.5278
0
LINE
8
BLACK
6
CONTINUOUS
10
2.13631
20
1.5278
11
2.13279
21
1.52956
0
LINE
8
BLACK
6
CONTINUOUS
10
2.13279
20
1.52956
11
2.13276
21
1.52956
0
LINE
8
BLACK
6
CONTINUOUS
10
0.232991
20
1.5469
11
0.23394
21
1.54684
0
LINE
8
BLACK
6
CONTINUOUS
10
0.23394
20
1.54684
11
0.242376
21
1.54403
0
LINE
8
BLACK
6
CONTINUOUS
10
0.242376
20
1.54403
11
0.243509
21
1.54328
0
LINE
8
BLACK
6
CONTINUOUS
10
0.243509
20
1.54328
11
0.244685
21
1.5426
0
LINE
8
BLACK
6
CONTINUOUS
10
0.244685
20
1.5426
11
0.268349
21
1.51894
0
LINE
8
BLACK
6
CONTINUOUS
10
0.268349
20
1.51894
11
0.268349
21
1.54124
0
LINE
8
BLACK
6
CONTINUOUS
10
0.268349
20
1.54124
11
0.26914
21
1.54419
0
LINE
8
BLACK
6
CONTINUOUS
10
0.26914
20
1.54419
11
0.271302
21
1.54635
0
LINE
8
BLACK
6
CONTINUOUS
10
0.271302
20
1.54635
11
0.274255
21
1.54714
0
LINE
8
BLACK
6
CONTINUOUS
10
0.274255
20
1.54714
11
0.277208
21
1.54635
0
LINE
8
BLACK
6
CONTINUOUS
10
0.277208
20
1.54635
11
0.279369
21
1.54419
0
LINE
8
BLACK
6
CONTINUOUS
10
0.279369
20
1.54419
11
0.28016
21
1.54124
0
LINE
8
BLACK
6
CONTINUOUS
10
0.28016
20
1.54124
11
0.28016
21
1.50468
0
LINE
8
BLACK
6
CONTINUOUS
10
0.28016
20
1.50468
11
0.279959
21
1.50393
0
LINE
8
BLACK
6
CONTINUOUS
10
0.279959
20
1.50393
11
0.279959
21
1.50315
0
LINE
8
BLACK
6
CONTINUOUS
10
0.279959
20
1.50315
11
0.27957
21
1.50248
0
LINE
8
BLACK
6
CONTINUOUS
10
0.27957
20
1.50248
11
0.279369
21
1.50173
0
LINE
8
BLACK
6
CONTINUOUS
10
0.279369
20
1.50173
11
0.278819
21
1.50118
0
LINE
8
BLACK
6
CONTINUOUS
10
0.278819
20
1.50118
11
0.278431
21
1.5005
0
LINE
8
BLACK
6
CONTINUOUS
10
0.278431
20
1.5005
11
0.277757
21
1.50011
0
LINE
8
BLACK
6
CONTINUOUS
10
0.277757
20
1.50011
11
0.277208
21
1.49957
0
LINE
8
BLACK
6
CONTINUOUS
10
0.277208
20
1.49957
11
0.276457
21
1.49936
0
LINE
8
BLACK
6
CONTINUOUS
10
0.276457
20
1.49936
11
0.275783
21
1.49898
0
LINE
8
BLACK
6
CONTINUOUS
10
0.275783
20
1.49898
11
0.275006
21
1.49898
0
LINE
8
BLACK
6
CONTINUOUS
10
0.275006
20
1.49898
11
0.274255
21
1.49877
0
LINE
8
BLACK
6
CONTINUOUS
10
0.274255
20
1.49877
11
0.273504
21
1.49898
0
LINE
8
BLACK
6
CONTINUOUS
10
0.273504
20
1.49898
11
0.272726
21
1.49898
0
LINE
8
BLACK
6
CONTINUOUS
10
0.272726
20
1.49898
11
0.272053
21
1.49936
0
LINE
8
BLACK
6
CONTINUOUS
10
0.272053
20
1.49936
11
0.271302
21
1.49957
0
LINE
8
BLACK
6
CONTINUOUS
10
0.271302
20
1.49957
11
0.270752
21
1.50011
0
LINE
8
BLACK
6
CONTINUOUS
10
0.270752
20
1.50011
11
0.270079
21
1.5005
0
LINE
8
BLACK
6
CONTINUOUS
10
0.270079
20
1.5005
11
0.237319
21
1.53326
0
LINE
8
BLACK
6
CONTINUOUS
10
0.237319
20
1.53326
11
0.231114
21
1.53533
0
LINE
8
BLACK
6
CONTINUOUS
10
0.231114
20
1.53533
11
0.227842
21
1.53533
0
LINE
8
BLACK
6
CONTINUOUS
10
0.227842
20
1.53533
11
0.224322
21
1.53357
0
LINE
8
BLACK
6
CONTINUOUS
10
0.224322
20
1.53357
11
0.222865
21
1.53211
0
LINE
8
BLACK
6
CONTINUOUS
10
0.222865
20
1.53211
11
0.221105
21
1.52859
0
LINE
8
BLACK
6
CONTINUOUS
10
0.221105
20
1.52859
11
0.221105
21
1.51732
0
LINE
8
BLACK
6
CONTINUOUS
10
0.221105
20
1.51732
11
0.222865
21
1.5138
0
LINE
8
BLACK
6
CONTINUOUS
10
0.222865
20
1.5138
11
0.225
21
1.51167
0
LINE
8
BLACK
6
CONTINUOUS
10
0.225
20
1.51167
11
0.226528
21
1.50902
0
LINE
8
BLACK
6
CONTINUOUS
10
0.226528
20
1.50902
11
0.226528
21
1.50596
0
LINE
8
BLACK
6
CONTINUOUS
10
0.226528
20
1.50596
11
0.225
21
1.50332
0
LINE
8
BLACK
6
CONTINUOUS
10
0.225
20
1.50332
11
0.222352
21
1.50179
0
LINE
8
BLACK
6
CONTINUOUS
10
0.222352
20
1.50179
11
0.219295
21
1.50179
0
LINE
8
BLACK
6
CONTINUOUS
10
0.219295
20
1.50179
11
0.216648
21
1.50332
0
LINE
8
BLACK
6
CONTINUOUS
10
0.216648
20
1.50332
11
0.213836
21
1.50613
0
LINE
8
BLACK
6
CONTINUOUS
10
0.213836
20
1.50613
11
0.213361
21
1.50695
0
LINE
8
BLACK
6
CONTINUOUS
10
0.213361
20
1.50695
11
0.21273
21
1.50766
0
LINE
8
BLACK
6
CONTINUOUS
10
0.21273
20
1.50766
11
0.209918
21
1.51329
0
LINE
8
BLACK
6
CONTINUOUS
10
0.209918
20
1.51329
11
0.209645
21
1.51462
0
LINE
8
BLACK
6
CONTINUOUS
10
0.209645
20
1.51462
11
0.209294
21
1.51593
0
LINE
8
BLACK
6
CONTINUOUS
10
0.209294
20
1.51593
11
0.209294
21
1.52999
0
LINE
8
BLACK
6
CONTINUOUS
10
0.209294
20
1.52999
11
0.209645
21
1.5313
0
LINE
8
BLACK
6
CONTINUOUS
10
0.209645
20
1.5313
11
0.209918
21
1.53263
0
LINE
8
BLACK
6
CONTINUOUS
10
0.209918
20
1.53263
11
0.21273
21
1.53825
0
LINE
8
BLACK
6
CONTINUOUS
10
0.21273
20
1.53825
11
0.213361
21
1.53897
0
LINE
8
BLACK
6
CONTINUOUS
10
0.213361
20
1.53897
11
0.213836
21
1.53979
0
LINE
8
BLACK
6
CONTINUOUS
10
0.213836
20
1.53979
11
0.216648
21
1.5426
0
LINE
8
BLACK
6
CONTINUOUS
10
0.216648
20
1.5426
11
0.217472
21
1.54308
0
LINE
8
BLACK
6
CONTINUOUS
10
0.217472
20
1.54308
11
0.218183
21
1.54371
0
LINE
8
BLACK
6
CONTINUOUS
10
0.218183
20
1.54371
11
0.223807
21
1.54652
0
LINE
8
BLACK
6
CONTINUOUS
10
0.223807
20
1.54652
11
0.225137
21
1.54679
0
LINE
8
BLACK
6
CONTINUOUS
10
0.225137
20
1.54679
11
0.226448
21
1.54714
0
LINE
8
BLACK
6
CONTINUOUS
10
0.226448
20
1.54714
11
0.232073
21
1.54714
0
LINE
8
BLACK
6
CONTINUOUS
10
0.232073
20
1.54714
11
0.232991
21
1.5469
0
LINE
8
BLACK
6
CONTINUOUS
10
0.129921
20
1.56088
11
0.131449
21
1.55823
0
LINE
8
BLACK
6
CONTINUOUS
10
0.131449
20
1.55823
11
0.131449
21
1.55518
0
LINE
8
BLACK
6
CONTINUOUS
10
0.131449
20
1.55518
11
0.129921
21
1.55253
0
LINE
8
BLACK
6
CONTINUOUS
10
0.129921
20
1.55253
11
0.128095
21
1.5507
0
LINE
8
BLACK
6
CONTINUOUS
10
0.128095
20
1.5507
11
0.126026
21
1.5445
0
LINE
8
BLACK
6
CONTINUOUS
10
0.126026
20
1.5445
11
0.126026
21
1.54079
0
LINE
8
BLACK
6
CONTINUOUS
10
0.126026
20
1.54079
11
0.128095
21
1.53458
0
LINE
8
BLACK
6
CONTINUOUS
10
0.128095
20
1.53458
11
0.132056
21
1.53062
0
LINE
8
BLACK
6
CONTINUOUS
10
0.132056
20
1.53062
11
0.136243
21
1.52853
0
LINE
8
BLACK
6
CONTINUOUS
10
0.136243
20
1.52853
11
0.146157
21
1.52605
0
LINE
8
BLACK
6
CONTINUOUS
10
0.146157
20
1.52605
11
0.15314
21
1.52605
0
LINE
8
BLACK
6
CONTINUOUS
10
0.15314
20
1.52605
11
0.163054
21
1.52853
0
LINE
8
BLACK
6
CONTINUOUS
10
0.163054
20
1.52853
11
0.167241
21
1.53062
0
LINE
8
BLACK
6
CONTINUOUS
10
0.167241
20
1.53062
11
0.171202
21
1.53458
0
LINE
8
BLACK
6
CONTINUOUS
10
0.171202
20
1.53458
11
0.173271
21
1.54079
0
LINE
8
BLACK
6
CONTINUOUS
10
0.173271
20
1.54079
11
0.173271
21
1.5445
0
LINE
8
BLACK
6
CONTINUOUS
10
0.173271
20
1.5445
11
0.171202
21
1.5507
0
LINE
8
BLACK
6
CONTINUOUS
10
0.171202
20
1.5507
11
0.169376
21
1.55253
0
LINE
8
BLACK
6
CONTINUOUS
10
0.169376
20
1.55253
11
0.167847
21
1.55518
0
LINE
8
BLACK
6
CONTINUOUS
10
0.167847
20
1.55518
11
0.167847
21
1.55823
0
LINE
8
BLACK
6
CONTINUOUS
10
0.167847
20
1.55823
11
0.169376
21
1.56088
0
LINE
8
BLACK
6
CONTINUOUS
10
0.169376
20
1.56088
11
0.172023
21
1.56241
0
LINE
8
BLACK
6
CONTINUOUS
10
0.172023
20
1.56241
11
0.17508
21
1.56241
0
LINE
8
BLACK
6
CONTINUOUS
10
0.17508
20
1.56241
11
0.177728
21
1.56088
0
LINE
8
BLACK
6
CONTINUOUS
10
0.177728
20
1.56088
11
0.18054
21
1.55807
0
LINE
8
BLACK
6
CONTINUOUS
10
0.18054
20
1.55807
11
0.181218
21
1.55689
0
LINE
8
BLACK
6
CONTINUOUS
10
0.181218
20
1.55689
11
0.181966
21
1.55576
0
LINE
8
BLACK
6
CONTINUOUS
10
0.181966
20
1.55576
11
0.184778
21
1.54732
0
LINE
8
BLACK
6
CONTINUOUS
10
0.184778
20
1.54732
11
0.184835
21
1.54637
0
LINE
8
BLACK
6
CONTINUOUS
10
0.184835
20
1.54637
11
0.185082
21
1.54546
0
LINE
8
BLACK
6
CONTINUOUS
10
0.185082
20
1.54546
11
0.185082
21
1.53983
0
LINE
8
BLACK
6
CONTINUOUS
10
0.185082
20
1.53983
11
0.184835
21
1.53891
0
LINE
8
BLACK
6
CONTINUOUS
10
0.184835
20
1.53891
11
0.184778
21
1.53796
0
LINE
8
BLACK
6
CONTINUOUS
10
0.184778
20
1.53796
11
0.181966
21
1.52953
0
LINE
8
BLACK
6
CONTINUOUS
10
0.181966
20
1.52953
11
0.181218
21
1.52839
0
LINE
8
BLACK
6
CONTINUOUS
10
0.181218
20
1.52839
11
0.18054
21
1.52722
0
LINE
8
BLACK
6
CONTINUOUS
10
0.18054
20
1.52722
11
0.174915
21
1.52159
0
LINE
8
BLACK
6
CONTINUOUS
10
0.174915
20
1.52159
11
0.174092
21
1.52112
0
LINE
8
BLACK
6
CONTINUOUS
10
0.174092
20
1.52112
11
0.173381
21
1.52049
0
LINE
8
BLACK
6
CONTINUOUS
10
0.173381
20
1.52049
11
0.167756
21
1.51768
0
LINE
8
BLACK
6
CONTINUOUS
10
0.167756
20
1.51768
11
0.167118
21
1.51755
0
LINE
8
BLACK
6
CONTINUOUS
10
0.167118
20
1.51755
11
0.166548
21
1.51723
0
LINE
8
BLACK
6
CONTINUOUS
10
0.166548
20
1.51723
11
0.155299
21
1.51442
0
LINE
8
BLACK
6
CONTINUOUS
10
0.155299
20
1.51442
11
0.154571
21
1.51443
0
LINE
8
BLACK
6
CONTINUOUS
10
0.154571
20
1.51443
11
0.153867
21
1.51424
0
LINE
8
BLACK
6
CONTINUOUS
10
0.153867
20
1.51424
11
0.14543
21
1.51424
0
LINE
8
BLACK
6
CONTINUOUS
10
0.14543
20
1.51424
11
0.144726
21
1.51443
0
LINE
8
BLACK
6
CONTINUOUS
10
0.144726
20
1.51443
11
0.143998
21
1.51442
0
LINE
8
BLACK
6
CONTINUOUS
10
0.143998
20
1.51442
11
0.132749
21
1.51723
0
LINE
8
BLACK
6
CONTINUOUS
10
0.132749
20
1.51723
11
0.132179
21
1.51755
0
LINE
8
BLACK
6
CONTINUOUS
10
0.132179
20
1.51755
11
0.131541
21
1.51768
0
LINE
8
BLACK
6
CONTINUOUS
10
0.131541
20
1.51768
11
0.125916
21
1.52049
0
LINE
8
BLACK
6
CONTINUOUS
10
0.125916
20
1.52049
11
0.125205
21
1.52112
0
LINE
8
BLACK
6
CONTINUOUS
10
0.125205
20
1.52112
11
0.124382
21
1.52159
0
LINE
8
BLACK
6
CONTINUOUS
10
0.124382
20
1.52159
11
0.118757
21
1.52722
0
LINE
8
BLACK
6
CONTINUOUS
10
0.118757
20
1.52722
11
0.118079
21
1.52839
0
LINE
8
BLACK
6
CONTINUOUS
10
0.118079
20
1.52839
11
0.117331
21
1.52953
0
LINE
8
BLACK
6
CONTINUOUS
10
0.117331
20
1.52953
11
0.114518
21
1.53796
0
LINE
8
BLACK
6
CONTINUOUS
10
0.114518
20
1.53796
11
0.114461
21
1.53891
0
LINE
8
BLACK
6
CONTINUOUS
10
0.114461
20
1.53891
11
0.114215
21
1.53983
0
LINE
8
BLACK
6
CONTINUOUS
10
0.114215
20
1.53983
11
0.114215
21
1.54546
0
LINE
8
BLACK
6
CONTINUOUS
10
0.114215
20
1.54546
11
0.114461
21
1.54637
0
LINE
8
BLACK
6
CONTINUOUS
10
0.114461
20
1.54637
11
0.114518
21
1.54732
0
LINE
8
BLACK
6
CONTINUOUS
10
0.114518
20
1.54732
11
0.117331
21
1.55576
0
LINE
8
BLACK
6
CONTINUOUS
10
0.117331
20
1.55576
11
0.118079
21
1.55689
0
LINE
8
BLACK
6
CONTINUOUS
10
0.118079
20
1.55689
11
0.118757
21
1.55807
0
LINE
8
BLACK
6
CONTINUOUS
10
0.118757
20
1.55807
11
0.121569
21
1.56088
0
LINE
8
BLACK
6
CONTINUOUS
10
0.121569
20
1.56088
11
0.124217
21
1.56241
0
LINE
8
BLACK
6
CONTINUOUS
10
0.124217
20
1.56241
11
0.127274
21
1.56241
0
LINE
8
BLACK
6
CONTINUOUS
10
0.127274
20
1.56241
11
0.129921
21
1.56088
0
LINE
8
BLACK
6
CONTINUOUS
10
2.21225
20
1.54441
11
2.21009
21
1.54657
0
LINE
8
BLACK
6
CONTINUOUS
10
2.21009
20
1.54657
11
2.20929
21
1.54953
0
LINE
8
BLACK
6
CONTINUOUS
10
2.20929
20
1.54953
11
2.21009
21
1.55248
0
LINE
8
BLACK
6
CONTINUOUS
10
2.21009
20
1.55248
11
2.21225
21
1.55464
0
LINE
8
BLACK
6
CONTINUOUS
10
2.21225
20
1.55464
11
2.2152
21
1.55543
0
LINE
8
BLACK
6
CONTINUOUS
10
2.2152
20
1.55543
11
2.23742
21
1.55543
0
LINE
8
BLACK
6
CONTINUOUS
10
2.23742
20
1.55543
11
2.23742
21
1.57737
0
LINE
8
BLACK
6
CONTINUOUS
10
2.23742
20
1.57737
11
2.2152
21
1.57737
0
LINE
8
BLACK
6
CONTINUOUS
10
2.2152
20
1.57737
11
2.21225
21
1.57816
0
LINE
8
BLACK
6
CONTINUOUS
10
2.21225
20
1.57816
11
2.21009
21
1.58032
0
LINE
8
BLACK
6
CONTINUOUS
10
2.21009
20
1.58032
11
2.20929
21
1.58327
0
LINE
8
BLACK
6
CONTINUOUS
10
2.20929
20
1.58327
11
2.21009
21
1.58623
0
LINE
8
BLACK
6
CONTINUOUS
10
2.21009
20
1.58623
11
2.21225
21
1.58839
0
LINE
8
BLACK
6
CONTINUOUS
10
2.21225
20
1.58839
11
2.2152
21
1.58918
0
LINE
8
BLACK
6
CONTINUOUS
10
2.2152
20
1.58918
11
2.27425
21
1.58918
0
LINE
8
BLACK
6
CONTINUOUS
10
2.27425
20
1.58918
11
2.27721
21
1.58839
0
LINE
8
BLACK
6
CONTINUOUS
10
2.27721
20
1.58839
11
2.27937
21
1.58623
0
LINE
8
BLACK
6
CONTINUOUS
10
2.27937
20
1.58623
11
2.28016
21
1.58327
0
LINE
8
BLACK
6
CONTINUOUS
10
2.28016
20
1.58327
11
2.27937
21
1.58032
0
LINE
8
BLACK
6
CONTINUOUS
10
2.27937
20
1.58032
11
2.27721
21
1.57816
0
LINE
8
BLACK
6
CONTINUOUS
10
2.27721
20
1.57816
11
2.27425
21
1.57737
0
LINE
8
BLACK
6
CONTINUOUS
10
2.27425
20
1.57737
11
2.24923
21
1.57737
0
LINE
8
BLACK
6
CONTINUOUS
10
2.24923
20
1.57737
11
2.24923
21
1.55543
0
LINE
8
BLACK
6
CONTINUOUS
10
2.24923
20
1.55543
11
2.27425
21
1.55543
0
LINE
8
BLACK
6
CONTINUOUS
10
2.27425
20
1.55543
11
2.27721
21
1.55464
0
LINE
8
BLACK
6
CONTINUOUS
10
2.27721
20
1.55464
11
2.27937
21
1.55248
0
LINE
8
BLACK
6
CONTINUOUS
10
2.27937
20
1.55248
11
2.28016
21
1.54953
0
LINE
8
BLACK
6
CONTINUOUS
10
2.28016
20
1.54953
11
2.27937
21
1.54657
0
LINE
8
BLACK
6
CONTINUOUS
10
2.27937
20
1.54657
11
2.27721
21
1.54441
0
LINE
8
BLACK
6
CONTINUOUS
10
2.27721
20
1.54441
11
2.27425
21
1.54362
0
LINE
8
BLACK
6
CONTINUOUS
10
2.27425
20
1.54362
11
2.2152
21
1.54362
0
LINE
8
BLACK
6
CONTINUOUS
10
2.2152
20
1.54362
11
2.21225
21
1.54441
0
LINE
8
BLACK
6
CONTINUOUS
10
2.16924
20
1.59726
11
2.17057
21
1.59699
0
LINE
8
BLACK
6
CONTINUOUS
10
2.17057
20
1.59699
11
2.17619
21
1.59418
0
LINE
8
BLACK
6
CONTINUOUS
10
2.17619
20
1.59418
11
2.1769
21
1.59355
0
LINE
8
BLACK
6
CONTINUOUS
10
2.1769
20
1.59355
11
2.17773
21
1.59307
0
LINE
8
BLACK
6
CONTINUOUS
10
2.17773
20
1.59307
11
2.18054
21
1.59026
0
LINE
8
BLACK
6
CONTINUOUS
10
2.18054
20
1.59026
11
2.18102
21
1.58944
0
LINE
8
BLACK
6
CONTINUOUS
10
2.18102
20
1.58944
11
2.18165
21
1.58873
0
LINE
8
BLACK
6
CONTINUOUS
10
2.18165
20
1.58873
11
2.18446
21
1.5831
0
LINE
8
BLACK
6
CONTINUOUS
10
2.18446
20
1.5831
11
2.18473
21
1.58177
0
LINE
8
BLACK
6
CONTINUOUS
10
2.18473
20
1.58177
11
2.18508
21
1.58046
0
LINE
8
BLACK
6
CONTINUOUS
10
2.18508
20
1.58046
11
2.18508
21
1.56921
0
LINE
8
BLACK
6
CONTINUOUS
10
2.18508
20
1.56921
11
2.18473
21
1.5679
0
LINE
8
BLACK
6
CONTINUOUS
10
2.18473
20
1.5679
11
2.18446
21
1.56657
0
LINE
8
BLACK
6
CONTINUOUS
10
2.18446
20
1.56657
11
2.18165
21
1.56095
0
LINE
8
BLACK
6
CONTINUOUS
10
2.18165
20
1.56095
11
2.18102
21
1.56024
0
LINE
8
BLACK
6
CONTINUOUS
10
2.18102
20
1.56024
11
2.18054
21
1.55941
0
LINE
8
BLACK
6
CONTINUOUS
10
2.18054
20
1.55941
11
2.17773
21
1.5566
0
LINE
8
BLACK
6
CONTINUOUS
10
2.17773
20
1.5566
11
2.1769
21
1.55612
0
LINE
8
BLACK
6
CONTINUOUS
10
2.1769
20
1.55612
11
2.17619
21
1.55549
0
LINE
8
BLACK
6
CONTINUOUS
10
2.17619
20
1.55549
11
2.17057
21
1.55268
0
LINE
8
BLACK
6
CONTINUOUS
10
2.17057
20
1.55268
11
2.16924
21
1.55241
0
LINE
8
BLACK
6
CONTINUOUS
10
2.16924
20
1.55241
11
2.16793
21
1.55206
0
LINE
8
BLACK
6
CONTINUOUS
10
2.16793
20
1.55206
11
2.14543
21
1.55206
0
LINE
8
BLACK
6
CONTINUOUS
10
2.14543
20
1.55206
11
2.14473
21
1.55225
0
LINE
8
BLACK
6
CONTINUOUS
10
2.14473
20
1.55225
11
2.144
21
1.55223
0
LINE
8
BLACK
6
CONTINUOUS
10
2.144
20
1.55223
11
2.13275
21
1.55505
0
LINE
8
BLACK
6
CONTINUOUS
10
2.13275
20
1.55505
11
2.13186
21
1.55554
0
LINE
8
BLACK
6
CONTINUOUS
10
2.13186
20
1.55554
11
2.13091
21
1.55586
0
LINE
8
BLACK
6
CONTINUOUS
10
2.13091
20
1.55586
11
2.12247
21
1.56149
0
LINE
8
BLACK
6
CONTINUOUS
10
2.12247
20
1.56149
11
2.12208
21
1.56193
0
LINE
8
BLACK
6
CONTINUOUS
10
2.12208
20
1.56193
11
2.12157
21
1.56222
0
LINE
8
BLACK
6
CONTINUOUS
10
2.12157
20
1.56222
11
2.11876
21
1.56504
0
LINE
8
BLACK
6
CONTINUOUS
10
2.11876
20
1.56504
11
2.11828
21
1.56586
0
LINE
8
BLACK
6
CONTINUOUS
10
2.11828
20
1.56586
11
2.11765
21
1.56657
0
LINE
8
BLACK
6
CONTINUOUS
10
2.11765
20
1.56657
11
2.11484
21
1.5722
0
LINE
8
BLACK
6
CONTINUOUS
10
2.11484
20
1.5722
11
2.11457
21
1.57353
0
LINE
8
BLACK
6
CONTINUOUS
10
2.11457
20
1.57353
11
2.11422
21
1.57484
0
LINE
8
BLACK
6
CONTINUOUS
10
2.11422
20
1.57484
11
2.11422
21
1.58609
0
LINE
8
BLACK
6
CONTINUOUS
10
2.11422
20
1.58609
11
2.11501
21
1.58904
0
LINE
8
BLACK
6
CONTINUOUS
10
2.11501
20
1.58904
11
2.11717
21
1.5912
0
LINE
8
BLACK
6
CONTINUOUS
10
2.11717
20
1.5912
11
2.12012
21
1.59199
0
LINE
8
BLACK
6
CONTINUOUS
10
2.12012
20
1.59199
11
2.12307
21
1.5912
0
LINE
8
BLACK
6
CONTINUOUS
10
2.12307
20
1.5912
11
2.12524
21
1.58904
0
LINE
8
BLACK
6
CONTINUOUS
10
2.12524
20
1.58904
11
2.12603
21
1.58609
0
LINE
8
BLACK
6
CONTINUOUS
10
2.12603
20
1.58609
11
2.12603
21
1.57623
0
LINE
8
BLACK
6
CONTINUOUS
10
2.12603
20
1.57623
11
2.12779
21
1.57271
0
LINE
8
BLACK
6
CONTINUOUS
10
2.12779
20
1.57271
11
2.12951
21
1.57099
0
LINE
8
BLACK
6
CONTINUOUS
10
2.12951
20
1.57099
11
2.13661
21
1.56626
0
LINE
8
BLACK
6
CONTINUOUS
10
2.13661
20
1.56626
11
2.13762
21
1.566
0
LINE
8
BLACK
6
CONTINUOUS
10
2.13762
20
1.566
11
2.13734
21
1.56657
0
LINE
8
BLACK
6
CONTINUOUS
10
2.13734
20
1.56657
11
2.13706
21
1.5679
0
LINE
8
BLACK
6
CONTINUOUS
10
2.13706
20
1.5679
11
2.13671
21
1.56921
0
LINE
8
BLACK
6
CONTINUOUS
10
2.13671
20
1.56921
11
2.13671
21
1.58046
0
LINE
8
BLACK
6
CONTINUOUS
10
2.13671
20
1.58046
11
2.13706
21
1.58177
0
LINE
8
BLACK
6
CONTINUOUS
10
2.13706
20
1.58177
11
2.13734
21
1.5831
0
LINE
8
BLACK
6
CONTINUOUS
10
2.13734
20
1.5831
11
2.14015
21
1.58873
0
LINE
8
BLACK
6
CONTINUOUS
10
2.14015
20
1.58873
11
2.14078
21
1.58944
0
LINE
8
BLACK
6
CONTINUOUS
10
2.14078
20
1.58944
11
2.14125
21
1.59026
0
LINE
8
BLACK
6
CONTINUOUS
10
2.14125
20
1.59026
11
2.14407
21
1.59307
0
LINE
8
BLACK
6
CONTINUOUS
10
2.14407
20
1.59307
11
2.14489
21
1.59355
0
LINE
8
BLACK
6
CONTINUOUS
10
2.14489
20
1.59355
11
2.1456
21
1.59418
0
LINE
8
BLACK
6
CONTINUOUS
10
2.1456
20
1.59418
11
2.15123
21
1.59699
0
LINE
8
BLACK
6
CONTINUOUS
10
2.15123
20
1.59699
11
2.15256
21
1.59726
0
LINE
8
BLACK
6
CONTINUOUS
10
2.15256
20
1.59726
11
2.15387
21
1.59762
0
LINE
8
BLACK
6
CONTINUOUS
10
2.15387
20
1.59762
11
2.16793
21
1.59762
0
LINE
8
BLACK
6
CONTINUOUS
10
2.16793
20
1.59762
11
2.16924
21
1.59726
0
LINE
8
BLACK
6
CONTINUOUS
10
2.15526
20
1.5858
11
2.15174
21
1.58404
0
LINE
8
BLACK
6
CONTINUOUS
10
2.15174
20
1.58404
11
2.15028
21
1.58259
0
LINE
8
BLACK
6
CONTINUOUS
10
2.15028
20
1.58259
11
2.14852
21
1.57907
0
LINE
8
BLACK
6
CONTINUOUS
10
2.14852
20
1.57907
11
2.14852
21
1.57061
0
LINE
8
BLACK
6
CONTINUOUS
10
2.14852
20
1.57061
11
2.15028
21
1.56709
0
LINE
8
BLACK
6
CONTINUOUS
10
2.15028
20
1.56709
11
2.15174
21
1.56563
0
LINE
8
BLACK
6
CONTINUOUS
10
2.15174
20
1.56563
11
2.15526
21
1.56387
0
LINE
8
BLACK
6
CONTINUOUS
10
2.15526
20
1.56387
11
2.16653
21
1.56387
0
LINE
8
BLACK
6
CONTINUOUS
10
2.16653
20
1.56387
11
2.17005
21
1.56563
0
LINE
8
BLACK
6
CONTINUOUS
10
2.17005
20
1.56563
11
2.17151
21
1.56709
0
LINE
8
BLACK
6
CONTINUOUS
10
2.17151
20
1.56709
11
2.17327
21
1.57061
0
LINE
8
BLACK
6
CONTINUOUS
10
2.17327
20
1.57061
11
2.17327
21
1.57907
0
LINE
8
BLACK
6
CONTINUOUS
10
2.17327
20
1.57907
11
2.17151
21
1.58259
0
LINE
8
BLACK
6
CONTINUOUS
10
2.17151
20
1.58259
11
2.17005
21
1.58404
0
LINE
8
BLACK
6
CONTINUOUS
10
2.17005
20
1.58404
11
2.16653
21
1.5858
0
LINE
8
BLACK
6
CONTINUOUS
10
2.16653
20
1.5858
11
2.15526
21
1.5858
0
LINE
8
BLACK
6
CONTINUOUS
10
0.182129
20
1.62087
11
0.18429
21
1.61871
0
LINE
8
BLACK
6
CONTINUOUS
10
0.18429
20
1.61871
11
0.185082
21
1.61576
0
LINE
8
BLACK
6
CONTINUOUS
10
0.185082
20
1.61576
11
0.185082
21
1.57639
0
LINE
8
BLACK
6
CONTINUOUS
10
0.185082
20
1.57639
11
0.185031
21
1.5762
0
LINE
8
BLACK
6
CONTINUOUS
10
0.185031
20
1.5762
11
0.185069
21
1.57601
0
LINE
8
BLACK
6
CONTINUOUS
10
0.185069
20
1.57601
11
0.184638
21
1.57474
0
LINE
8
BLACK
6
CONTINUOUS
10
0.184638
20
1.57474
11
0.18429
21
1.57344
0
LINE
8
BLACK
6
CONTINUOUS
10
0.18429
20
1.57344
11
0.184152
21
1.5733
0
LINE
8
BLACK
6
CONTINUOUS
10
0.184152
20
1.5733
11
0.18409
21
1.57311
0
LINE
8
BLACK
6
CONTINUOUS
10
0.18409
20
1.57311
11
0.18308
21
1.57223
0
LINE
8
BLACK
6
CONTINUOUS
10
0.18308
20
1.57223
11
0.182129
21
1.57127
0
LINE
8
BLACK
6
CONTINUOUS
10
0.182129
20
1.57127
11
0.18194
21
1.57122
0
LINE
8
BLACK
6
CONTINUOUS
10
0.18194
20
1.57122
11
0.181794
21
1.5711
0
LINE
8
BLACK
6
CONTINUOUS
10
0.181794
20
1.5711
11
0.180475
21
1.57083
0
LINE
8
BLACK
6
CONTINUOUS
10
0.180475
20
1.57083
11
0.179176
21
1.57048
0
LINE
8
BLACK
6
CONTINUOUS
10
0.179176
20
1.57048
11
0.178987
21
1.57053
0
LINE
8
BLACK
6
CONTINUOUS
10
0.178987
20
1.57053
11
0.178796
21
1.5705
0
LINE
8
BLACK
6
CONTINUOUS
10
0.178796
20
1.5705
11
0.177522
21
1.57093
0
LINE
8
BLACK
6
CONTINUOUS
10
0.177522
20
1.57093
11
0.176223
21
1.57127
0
LINE
8
BLACK
6
CONTINUOUS
10
0.176223
20
1.57127
11
0.176085
21
1.57141
0
LINE
8
BLACK
6
CONTINUOUS
10
0.176085
20
1.57141
11
0.1759
21
1.57148
0
LINE
8
BLACK
6
CONTINUOUS
10
0.1759
20
1.57148
11
0.126026
21
1.60472
0
LINE
8
BLACK
6
CONTINUOUS
10
0.126026
20
1.60472
11
0.126026
21
1.57639
0
LINE
8
BLACK
6
CONTINUOUS
10
0.126026
20
1.57639
11
0.125235
21
1.57344
0
LINE
8
BLACK
6
CONTINUOUS
10
0.125235
20
1.57344
11
0.123074
21
1.57127
0
LINE
8
BLACK
6
CONTINUOUS
10
0.123074
20
1.57127
11
0.120121
21
1.57048
0
LINE
8
BLACK
6
CONTINUOUS
10
0.120121
20
1.57048
11
0.117168
21
1.57127
0
LINE
8
BLACK
6
CONTINUOUS
10
0.117168
20
1.57127
11
0.115007
21
1.57344
0
LINE
8
BLACK
6
CONTINUOUS
10
0.115007
20
1.57344
11
0.114215
21
1.57639
0
LINE
8
BLACK
6
CONTINUOUS
10
0.114215
20
1.57639
11
0.114215
21
1.61576
0
LINE
8
BLACK
6
CONTINUOUS
10
0.114215
20
1.61576
11
0.114266
21
1.61595
0
LINE
8
BLACK
6
CONTINUOUS
10
0.114266
20
1.61595
11
0.114228
21
1.61614
0
LINE
8
BLACK
6
CONTINUOUS
10
0.114228
20
1.61614
11
0.114659
21
1.61741
0
LINE
8
BLACK
6
CONTINUOUS
10
0.114659
20
1.61741
11
0.115007
21
1.61871
0
LINE
8
BLACK
6
CONTINUOUS
10
0.115007
20
1.61871
11
0.115145
21
1.61885
0
LINE
8
BLACK
6
CONTINUOUS
10
0.115145
20
1.61885
11
0.115207
21
1.61904
0
LINE
8
BLACK
6
CONTINUOUS
10
0.115207
20
1.61904
11
0.116217
21
1.61992
0
LINE
8
BLACK
6
CONTINUOUS
10
0.116217
20
1.61992
11
0.117168
21
1.62087
0
LINE
8
BLACK
6
CONTINUOUS
10
0.117168
20
1.62087
11
0.117357
21
1.62092
0
LINE
8
BLACK
6
CONTINUOUS
10
0.117357
20
1.62092
11
0.117503
21
1.62105
0
LINE
8
BLACK
6
CONTINUOUS
10
0.117503
20
1.62105
11
0.118822
21
1.62132
0
LINE
8
BLACK
6
CONTINUOUS
10
0.118822
20
1.62132
11
0.120121
21
1.62166
0
LINE
8
BLACK
6
CONTINUOUS
10
0.120121
20
1.62166
11
0.12031
21
1.62161
0
LINE
8
BLACK
6
CONTINUOUS
10
0.12031
20
1.62161
11
0.120501
21
1.62165
0
LINE
8
BLACK
6
CONTINUOUS
10
0.120501
20
1.62165
11
0.121775
21
1.62122
0
LINE
8
BLACK
6
CONTINUOUS
10
0.121775
20
1.62122
11
0.123074
21
1.62087
0
LINE
8
BLACK
6
CONTINUOUS
10
0.123074
20
1.62087
11
0.123212
21
1.62074
0
LINE
8
BLACK
6
CONTINUOUS
10
0.123212
20
1.62074
11
0.123397
21
1.62067
0
LINE
8
BLACK
6
CONTINUOUS
10
0.123397
20
1.62067
11
0.173271
21
1.58742
0
LINE
8
BLACK
6
CONTINUOUS
10
0.173271
20
1.58742
11
0.173271
21
1.61576
0
LINE
8
BLACK
6
CONTINUOUS
10
0.173271
20
1.61576
11
0.174062
21
1.61871
0
LINE
8
BLACK
6
CONTINUOUS
10
0.174062
20
1.61871
11
0.176223
21
1.62087
0
LINE
8
BLACK
6
CONTINUOUS
10
0.176223
20
1.62087
11
0.179176
21
1.62166
0
LINE
8
BLACK
6
CONTINUOUS
10
0.179176
20
1.62166
11
0.182129
21
1.62087
0
LINE
8
BLACK
6
CONTINUOUS
10
2.25527
20
1.65367
11
2.256
21
1.65368
0
LINE
8
BLACK
6
CONTINUOUS
10
2.256
20
1.65368
11
2.26725
21
1.65087
0
LINE
8
BLACK
6
CONTINUOUS
10
2.26725
20
1.65087
11
2.2673
21
1.65084
0
LINE
8
BLACK
6
CONTINUOUS
10
2.2673
20
1.65084
11
2.26735
21
1.65084
0
LINE
8
BLACK
6
CONTINUOUS
10
2.26735
20
1.65084
11
2.26863
21
1.6501
0
LINE
8
BLACK
6
CONTINUOUS
10
2.26863
20
1.6501
11
2.26992
21
1.64939
0
LINE
8
BLACK
6
CONTINUOUS
10
2.26992
20
1.64939
11
2.26995
21
1.64934
0
LINE
8
BLACK
6
CONTINUOUS
10
2.26995
20
1.64934
11
2.26999
21
1.64932
0
LINE
8
BLACK
6
CONTINUOUS
10
2.26999
20
1.64932
11
2.27562
21
1.64369
0
LINE
8
BLACK
6
CONTINUOUS
10
2.27562
20
1.64369
11
2.27609
21
1.64287
0
LINE
8
BLACK
6
CONTINUOUS
10
2.27609
20
1.64287
11
2.27672
21
1.64216
0
LINE
8
BLACK
6
CONTINUOUS
10
2.27672
20
1.64216
11
2.27954
21
1.63653
0
LINE
8
BLACK
6
CONTINUOUS
10
2.27954
20
1.63653
11
2.27981
21
1.6352
0
LINE
8
BLACK
6
CONTINUOUS
10
2.27981
20
1.6352
11
2.28016
21
1.63389
0
LINE
8
BLACK
6
CONTINUOUS
10
2.28016
20
1.63389
11
2.28016
21
1.62264
0
LINE
8
BLACK
6
CONTINUOUS
10
2.28016
20
1.62264
11
2.27981
21
1.62133
0
LINE
8
BLACK
6
CONTINUOUS
10
2.27981
20
1.62133
11
2.27954
21
1.62
0
LINE
8
BLACK
6
CONTINUOUS
10
2.27954
20
1.62
11
2.27672
21
1.61438
0
LINE
8
BLACK
6
CONTINUOUS
10
2.27672
20
1.61438
11
2.27609
21
1.61367
0
LINE
8
BLACK
6
CONTINUOUS
10
2.27609
20
1.61367
11
2.27562
21
1.61284
0
LINE
8
BLACK
6
CONTINUOUS
10
2.27562
20
1.61284
11
2.26999
21
1.60722
0
LINE
8
BLACK
6
CONTINUOUS
10
2.26999
20
1.60722
11
2.26995
21
1.60719
0
LINE
8
BLACK
6
CONTINUOUS
10
2.26995
20
1.60719
11
2.26992
21
1.60715
0
LINE
8
BLACK
6
CONTINUOUS
10
2.26992
20
1.60715
11
2.26863
21
1.60643
0
LINE
8
BLACK
6
CONTINUOUS
10
2.26863
20
1.60643
11
2.26735
21
1.60569
0
LINE
8
BLACK
6
CONTINUOUS
10
2.26735
20
1.60569
11
2.2673
21
1.60569
0
LINE
8
BLACK
6
CONTINUOUS
10
2.2673
20
1.60569
11
2.26725
21
1.60567
0
LINE
8
BLACK
6
CONTINUOUS
10
2.26725
20
1.60567
11
2.256
21
1.60285
0
LINE
8
BLACK
6
CONTINUOUS
10
2.256
20
1.60285
11
2.25527
21
1.60287
0
LINE
8
BLACK
6
CONTINUOUS
10
2.25527
20
1.60287
11
2.25457
21
1.60268
0
LINE
8
BLACK
6
CONTINUOUS
10
2.25457
20
1.60268
11
2.23488
21
1.60268
0
LINE
8
BLACK
6
CONTINUOUS
10
2.23488
20
1.60268
11
2.23418
21
1.60287
0
LINE
8
BLACK
6
CONTINUOUS
10
2.23418
20
1.60287
11
2.23345
21
1.60285
0
LINE
8
BLACK
6
CONTINUOUS
10
2.23345
20
1.60285
11
2.2222
21
1.60567
0
LINE
8
BLACK
6
CONTINUOUS
10
2.2222
20
1.60567
11
2.22216
21
1.60569
0
LINE
8
BLACK
6
CONTINUOUS
10
2.22216
20
1.60569
11
2.22211
21
1.60569
0
LINE
8
BLACK
6
CONTINUOUS
10
2.22211
20
1.60569
11
2.22083
21
1.60643
0
LINE
8
BLACK
6
CONTINUOUS
10
2.22083
20
1.60643
11
2.21953
21
1.60715
0
LINE
8
BLACK
6
CONTINUOUS
10
2.21953
20
1.60715
11
2.2195
21
1.60719
0
LINE
8
BLACK
6
CONTINUOUS
10
2.2195
20
1.60719
11
2.21946
21
1.60722
0
LINE
8
BLACK
6
CONTINUOUS
10
2.21946
20
1.60722
11
2.21384
21
1.61284
0
LINE
8
BLACK
6
CONTINUOUS
10
2.21384
20
1.61284
11
2.21336
21
1.61367
0
LINE
8
BLACK
6
CONTINUOUS
10
2.21336
20
1.61367
11
2.21273
21
1.61438
0
LINE
8
BLACK
6
CONTINUOUS
10
2.21273
20
1.61438
11
2.20992
21
1.62
0
LINE
8
BLACK
6
CONTINUOUS
10
2.20992
20
1.62
11
2.20965
21
1.62133
0
LINE
8
BLACK
6
CONTINUOUS
10
2.20965
20
1.62133
11
2.20929
21
1.62264
0
LINE
8
BLACK
6
CONTINUOUS
10
2.20929
20
1.62264
11
2.20929
21
1.63389
0
LINE
8
BLACK
6
CONTINUOUS
10
2.20929
20
1.63389
11
2.20965
21
1.6352
0
LINE
8
BLACK
6
CONTINUOUS
10
2.20965
20
1.6352
11
2.20992
21
1.63653
0
LINE
8
BLACK
6
CONTINUOUS
10
2.20992
20
1.63653
11
2.21273
21
1.64216
0
LINE
8
BLACK
6
CONTINUOUS
10
2.21273
20
1.64216
11
2.21336
21
1.64287
0
LINE
8
BLACK
6
CONTINUOUS
10
2.21336
20
1.64287
11
2.21384
21
1.64369
0
LINE
8
BLACK
6
CONTINUOUS
10
2.21384
20
1.64369
11
2.21946
21
1.64932
0
LINE
8
BLACK
6
CONTINUOUS
10
2.21946
20
1.64932
11
2.2195
21
1.64934
0
LINE
8
BLACK
6
CONTINUOUS
10
2.2195
20
1.64934
11
2.21953
21
1.64939
0
LINE
8
BLACK
6
CONTINUOUS
10
2.21953
20
1.64939
11
2.22082
21
1.6501
0
LINE
8
BLACK
6
CONTINUOUS
10
2.22082
20
1.6501
11
2.22211
21
1.65084
0
LINE
8
BLACK
6
CONTINUOUS
10
2.22211
20
1.65084
11
2.22216
21
1.65084
0
LINE
8
BLACK
6
CONTINUOUS
10
2.22216
20
1.65084
11
2.2222
21
1.65087
0
LINE
8
BLACK
6
CONTINUOUS
10
2.2222
20
1.65087
11
2.23345
21
1.65368
0
LINE
8
BLACK
6
CONTINUOUS
10
2.23345
20
1.65368
11
2.23418
21
1.65367
0
LINE
8
BLACK
6
CONTINUOUS
10
2.23418
20
1.65367
11
2.23488
21
1.65386
0
LINE
8
BLACK
6
CONTINUOUS
10
2.23488
20
1.65386
11
2.25457
21
1.65386
0
LINE
8
BLACK
6
CONTINUOUS
10
2.25457
20
1.65386
11
2.25527
21
1.65367
0
LINE
8
BLACK
6
CONTINUOUS
10
2.23561
20
1.64205
11
2.22666
21
1.63981
0
LINE
8
BLACK
6
CONTINUOUS
10
2.22666
20
1.63981
11
2.22287
21
1.63602
0
LINE
8
BLACK
6
CONTINUOUS
10
2.22287
20
1.63602
11
2.22111
21
1.6325
0
LINE
8
BLACK
6
CONTINUOUS
10
2.22111
20
1.6325
11
2.22111
21
1.62404
0
LINE
8
BLACK
6
CONTINUOUS
10
2.22111
20
1.62404
11
2.22287
21
1.62052
0
LINE
8
BLACK
6
CONTINUOUS
10
2.22287
20
1.62052
11
2.22666
21
1.61673
0
LINE
8
BLACK
6
CONTINUOUS
10
2.22666
20
1.61673
11
2.23561
21
1.61449
0
LINE
8
BLACK
6
CONTINUOUS
10
2.23561
20
1.61449
11
2.25384
21
1.61449
0
LINE
8
BLACK
6
CONTINUOUS
10
2.25384
20
1.61449
11
2.2628
21
1.61673
0
LINE
8
BLACK
6
CONTINUOUS
10
2.2628
20
1.61673
11
2.26659
21
1.62052
0
LINE
8
BLACK
6
CONTINUOUS
10
2.26659
20
1.62052
11
2.26835
21
1.62404
0
LINE
8
BLACK
6
CONTINUOUS
10
2.26835
20
1.62404
11
2.26835
21
1.6325
0
LINE
8
BLACK
6
CONTINUOUS
10
2.26835
20
1.6325
11
2.26659
21
1.63602
0
LINE
8
BLACK
6
CONTINUOUS
10
2.26659
20
1.63602
11
2.2628
21
1.63981
0
LINE
8
BLACK
6
CONTINUOUS
10
2.2628
20
1.63981
11
2.25384
21
1.64205
0
LINE
8
BLACK
6
CONTINUOUS
10
2.25384
20
1.64205
11
2.23561
21
1.64205
0
LINE
8
BLACK
6
CONTINUOUS
10
2.16924
20
1.65351
11
2.17057
21
1.65323
0
LINE
8
BLACK
6
CONTINUOUS
10
2.17057
20
1.65323
11
2.17619
21
1.65042
0
LINE
8
BLACK
6
CONTINUOUS
10
2.17619
20
1.65042
11
2.1769
21
1.64979
0
LINE
8
BLACK
6
CONTINUOUS
10
2.1769
20
1.64979
11
2.17773
21
1.64932
0
LINE
8
BLACK
6
CONTINUOUS
10
2.17773
20
1.64932
11
2.18054
21
1.6465
0
LINE
8
BLACK
6
CONTINUOUS
10
2.18054
20
1.6465
11
2.18102
21
1.64568
0
LINE
8
BLACK
6
CONTINUOUS
10
2.18102
20
1.64568
11
2.18165
21
1.64497
0
LINE
8
BLACK
6
CONTINUOUS
10
2.18165
20
1.64497
11
2.18446
21
1.63935
0
LINE
8
BLACK
6
CONTINUOUS
10
2.18446
20
1.63935
11
2.18473
21
1.63802
0
LINE
8
BLACK
6
CONTINUOUS
10
2.18473
20
1.63802
11
2.18508
21
1.6367
0
LINE
8
BLACK
6
CONTINUOUS
10
2.18508
20
1.6367
11
2.18508
21
1.62264
0
LINE
8
BLACK
6
CONTINUOUS
10
2.18508
20
1.62264
11
2.18473
21
1.62133
0
LINE
8
BLACK
6
CONTINUOUS
10
2.18473
20
1.62133
11
2.18446
21
1.62
0
LINE
8
BLACK
6
CONTINUOUS
10
2.18446
20
1.62
11
2.18165
21
1.61438
0
LINE
8
BLACK
6
CONTINUOUS
10
2.18165
20
1.61438
11
2.18102
21
1.61367
0
LINE
8
BLACK
6
CONTINUOUS
10
2.18102
20
1.61367
11
2.18054
21
1.61284
0
LINE
8
BLACK
6
CONTINUOUS
10
2.18054
20
1.61284
11
2.17773
21
1.61003
0
LINE
8
BLACK
6
CONTINUOUS
10
2.17773
20
1.61003
11
2.17508
21
1.6085
0
LINE
8
BLACK
6
CONTINUOUS
10
2.17508
20
1.6085
11
2.17202
21
1.6085
0
LINE
8
BLACK
6
CONTINUOUS
10
2.17202
20
1.6085
11
2.16938
21
1.61003
0
LINE
8
BLACK
6
CONTINUOUS
10
2.16938
20
1.61003
11
2.16785
21
1.61268
0
LINE
8
BLACK
6
CONTINUOUS
10
2.16785
20
1.61268
11
2.16785
21
1.61574
0
LINE
8
BLACK
6
CONTINUOUS
10
2.16785
20
1.61574
11
2.16938
21
1.61838
0
LINE
8
BLACK
6
CONTINUOUS
10
2.16938
20
1.61838
11
2.17151
21
1.62052
0
LINE
8
BLACK
6
CONTINUOUS
10
2.17151
20
1.62052
11
2.17327
21
1.62404
0
LINE
8
BLACK
6
CONTINUOUS
10
2.17327
20
1.62404
11
2.17327
21
1.63531
0
LINE
8
BLACK
6
CONTINUOUS
10
2.17327
20
1.63531
11
2.17151
21
1.63883
0
LINE
8
BLACK
6
CONTINUOUS
10
2.17151
20
1.63883
11
2.17005
21
1.64029
0
LINE
8
BLACK
6
CONTINUOUS
10
2.17005
20
1.64029
11
2.16653
21
1.64205
0
LINE
8
BLACK
6
CONTINUOUS
10
2.16653
20
1.64205
11
2.15526
21
1.64205
0
LINE
8
BLACK
6
CONTINUOUS
10
2.15526
20
1.64205
11
2.15174
21
1.64029
0
LINE
8
BLACK
6
CONTINUOUS
10
2.15174
20
1.64029
11
2.15028
21
1.63883
0
LINE
8
BLACK
6
CONTINUOUS
10
2.15028
20
1.63883
11
2.14852
21
1.63531
0
LINE
8
BLACK
6
CONTINUOUS
10
2.14852
20
1.63531
11
2.14852
21
1.62404
0
LINE
8
BLACK
6
CONTINUOUS
10
2.14852
20
1.62404
11
2.15028
21
1.62052
0
LINE
8
BLACK
6
CONTINUOUS
10
2.15028
20
1.62052
11
2.15242
21
1.61838
0
LINE
8
BLACK
6
CONTINUOUS
10
2.15242
20
1.61838
11
2.15295
21
1.61746
0
LINE
8
BLACK
6
CONTINUOUS
10
2.15295
20
1.61746
11
2.15363
21
1.61664
0
LINE
8
BLACK
6
CONTINUOUS
10
2.15363
20
1.61664
11
2.1537
21
1.61616
0
LINE
8
BLACK
6
CONTINUOUS
10
2.1537
20
1.61616
11
2.15395
21
1.61574
0
LINE
8
BLACK
6
CONTINUOUS
10
2.15395
20
1.61574
11
2.15395
21
1.61467
0
LINE
8
BLACK
6
CONTINUOUS
10
2.15395
20
1.61467
11
2.15412
21
1.61362
0
LINE
8
BLACK
6
CONTINUOUS
10
2.15412
20
1.61362
11
2.15395
21
1.61316
0
LINE
8
BLACK
6
CONTINUOUS
10
2.15395
20
1.61316
11
2.15395
21
1.61268
0
LINE
8
BLACK
6
CONTINUOUS
10
2.15395
20
1.61268
11
2.15341
21
1.61176
0
LINE
8
BLACK
6
CONTINUOUS
10
2.15341
20
1.61176
11
2.15304
21
1.61076
0
LINE
8
BLACK
6
CONTINUOUS
10
2.15304
20
1.61076
11
2.15266
21
1.61045
0
LINE
8
BLACK
6
CONTINUOUS
10
2.15266
20
1.61045
11
2.15242
21
1.61003
0
LINE
8
BLACK
6
CONTINUOUS
10
2.15242
20
1.61003
11
2.1515
21
1.6095
0
LINE
8
BLACK
6
CONTINUOUS
10
2.1515
20
1.6095
11
2.15067
21
1.60882
0
LINE
8
BLACK
6
CONTINUOUS
10
2.15067
20
1.60882
11
2.15019
21
1.60875
0
LINE
8
BLACK
6
CONTINUOUS
10
2.15019
20
1.60875
11
2.14977
21
1.6085
0
LINE
8
BLACK
6
CONTINUOUS
10
2.14977
20
1.6085
11
2.14871
21
1.6085
0
LINE
8
BLACK
6
CONTINUOUS
10
2.14871
20
1.6085
11
2.14765
21
1.60833
0
LINE
8
BLACK
6
CONTINUOUS
10
2.14765
20
1.60833
11
2.11953
21
1.61114
0
LINE
8
BLACK
6
CONTINUOUS
10
2.11953
20
1.61114
11
2.11837
21
1.61158
0
LINE
8
BLACK
6
CONTINUOUS
10
2.11837
20
1.61158
11
2.11717
21
1.6119
0
LINE
8
BLACK
6
CONTINUOUS
10
2.11717
20
1.6119
11
2.11696
21
1.61212
0
LINE
8
BLACK
6
CONTINUOUS
10
2.11696
20
1.61212
11
2.11667
21
1.61222
0
LINE
8
BLACK
6
CONTINUOUS
10
2.11667
20
1.61222
11
2.11589
21
1.61319
0
LINE
8
BLACK
6
CONTINUOUS
10
2.11589
20
1.61319
11
2.11501
21
1.61407
0
LINE
8
BLACK
6
CONTINUOUS
10
2.11501
20
1.61407
11
2.11493
21
1.61436
0
LINE
8
BLACK
6
CONTINUOUS
10
2.11493
20
1.61436
11
2.11474
21
1.61459
0
LINE
8
BLACK
6
CONTINUOUS
10
2.11474
20
1.61459
11
2.11454
21
1.61582
0
LINE
8
BLACK
6
CONTINUOUS
10
2.11454
20
1.61582
11
2.11422
21
1.61702
0
LINE
8
BLACK
6
CONTINUOUS
10
2.11422
20
1.61702
11
2.11422
21
1.64514
0
LINE
8
BLACK
6
CONTINUOUS
10
2.11422
20
1.64514
11
2.11501
21
1.64809
0
LINE
8
BLACK
6
CONTINUOUS
10
2.11501
20
1.64809
11
2.11717
21
1.65025
0
LINE
8
BLACK
6
CONTINUOUS
10
2.11717
20
1.65025
11
2.12012
21
1.65105
0
LINE
8
BLACK
6
CONTINUOUS
10
2.12012
20
1.65105
11
2.12307
21
1.65025
0
LINE
8
BLACK
6
CONTINUOUS
10
2.12307
20
1.65025
11
2.12524
21
1.64809
0
LINE
8
BLACK
6
CONTINUOUS
10
2.12524
20
1.64809
11
2.12603
21
1.64514
0
LINE
8
BLACK
6
CONTINUOUS
10
2.12603
20
1.64514
11
2.12603
21
1.62236
0
LINE
8
BLACK
6
CONTINUOUS
10
2.12603
20
1.62236
11
2.13708
21
1.62126
0
LINE
8
BLACK
6
CONTINUOUS
10
2.13708
20
1.62126
11
2.13706
21
1.62133
0
LINE
8
BLACK
6
CONTINUOUS
10
2.13706
20
1.62133
11
2.13671
21
1.62264
0
LINE
8
BLACK
6
CONTINUOUS
10
2.13671
20
1.62264
11
2.13671
21
1.6367
0
LINE
8
BLACK
6
CONTINUOUS
10
2.13671
20
1.6367
11
2.13706
21
1.63802
0
LINE
8
BLACK
6
CONTINUOUS
10
2.13706
20
1.63802
11
2.13734
21
1.63935
0
LINE
8
BLACK
6
CONTINUOUS
10
2.13734
20
1.63935
11
2.14015
21
1.64497
0
LINE
8
BLACK
6
CONTINUOUS
10
2.14015
20
1.64497
11
2.14078
21
1.64568
0
LINE
8
BLACK
6
CONTINUOUS
10
2.14078
20
1.64568
11
2.14125
21
1.6465
0
LINE
8
BLACK
6
CONTINUOUS
10
2.14125
20
1.6465
11
2.14407
21
1.64932
0
LINE
8
BLACK
6
CONTINUOUS
10
2.14407
20
1.64932
11
2.14489
21
1.64979
0
LINE
8
BLACK
6
CONTINUOUS
10
2.14489
20
1.64979
11
2.1456
21
1.65042
0
LINE
8
BLACK
6
CONTINUOUS
10
2.1456
20
1.65042
11
2.15123
21
1.65323
0
LINE
8
BLACK
6
CONTINUOUS
10
2.15123
20
1.65323
11
2.15256
21
1.65351
0
LINE
8
BLACK
6
CONTINUOUS
10
2.15256
20
1.65351
11
2.15387
21
1.65386
0
LINE
8
BLACK
6
CONTINUOUS
10
2.15387
20
1.65386
11
2.16793
21
1.65386
0
LINE
8
BLACK
6
CONTINUOUS
10
2.16793
20
1.65386
11
2.16924
21
1.65351
0
LINE
8
BLACK
6
CONTINUOUS
10
2.12199
20
1.7098
11
2.18104
21
1.69011
0
LINE
8
BLACK
6
CONTINUOUS
10
2.18104
20
1.69011
11
2.18203
21
1.68946
0
LINE
8
BLACK
6
CONTINUOUS
10
2.18203
20
1.68946
11
2.18309
21
1.68893
0
LINE
8
BLACK
6
CONTINUOUS
10
2.18309
20
1.68893
11
2.18329
21
1.68863
0
LINE
8
BLACK
6
CONTINUOUS
10
2.18329
20
1.68863
11
2.18359
21
1.68843
0
LINE
8
BLACK
6
CONTINUOUS
10
2.18359
20
1.68843
11
2.18412
21
1.68737
0
LINE
8
BLACK
6
CONTINUOUS
10
2.18412
20
1.68737
11
2.18478
21
1.68638
0
LINE
8
BLACK
6
CONTINUOUS
10
2.18478
20
1.68638
11
2.1848
21
1.68602
0
LINE
8
BLACK
6
CONTINUOUS
10
2.1848
20
1.68602
11
2.18496
21
1.68569
0
LINE
8
BLACK
6
CONTINUOUS
10
2.18496
20
1.68569
11
2.18489
21
1.68451
0
LINE
8
BLACK
6
CONTINUOUS
10
2.18489
20
1.68451
11
2.18496
21
1.68333
0
LINE
8
BLACK
6
CONTINUOUS
10
2.18496
20
1.68333
11
2.1848
21
1.683
0
LINE
8
BLACK
6
CONTINUOUS
10
2.1848
20
1.683
11
2.18478
21
1.68264
0
LINE
8
BLACK
6
CONTINUOUS
10
2.18478
20
1.68264
11
2.18412
21
1.68165
0
LINE
8
BLACK
6
CONTINUOUS
10
2.18412
20
1.68165
11
2.18359
21
1.68059
0
LINE
8
BLACK
6
CONTINUOUS
10
2.18359
20
1.68059
11
2.18329
21
1.68039
0
LINE
8
BLACK
6
CONTINUOUS
10
2.18329
20
1.68039
11
2.18309
21
1.68009
0
LINE
8
BLACK
6
CONTINUOUS
10
2.18309
20
1.68009
11
2.18203
21
1.67956
0
LINE
8
BLACK
6
CONTINUOUS
10
2.18203
20
1.67956
11
2.18104
21
1.67891
0
LINE
8
BLACK
6
CONTINUOUS
10
2.18104
20
1.67891
11
2.12199
21
1.65922
0
LINE
8
BLACK
6
CONTINUOUS
10
2.12199
20
1.65922
11
2.11894
21
1.65904
0
LINE
8
BLACK
6
CONTINUOUS
10
2.11894
20
1.65904
11
2.1162
21
1.66041
0
LINE
8
BLACK
6
CONTINUOUS
10
2.1162
20
1.66041
11
2.11452
21
1.66296
0
LINE
8
BLACK
6
CONTINUOUS
10
2.11452
20
1.66296
11
2.11434
21
1.66601
0
LINE
8
BLACK
6
CONTINUOUS
10
2.11434
20
1.66601
11
2.1157
21
1.66874
0
LINE
8
BLACK
6
CONTINUOUS
10
2.1157
20
1.66874
11
2.11825
21
1.67043
0
LINE
8
BLACK
6
CONTINUOUS
10
2.11825
20
1.67043
11
2.1605
21
1.68451
0
LINE
8
BLACK
6
CONTINUOUS
10
2.1605
20
1.68451
11
2.11825
21
1.69859
0
LINE
8
BLACK
6
CONTINUOUS
10
2.11825
20
1.69859
11
2.1157
21
1.70028
0
LINE
8
BLACK
6
CONTINUOUS
10
2.1157
20
1.70028
11
2.11434
21
1.70301
0
LINE
8
BLACK
6
CONTINUOUS
10
2.11434
20
1.70301
11
2.11452
21
1.70606
0
LINE
8
BLACK
6
CONTINUOUS
10
2.11452
20
1.70606
11
2.1162
21
1.70861
0
LINE
8
BLACK
6
CONTINUOUS
10
2.1162
20
1.70861
11
2.11894
21
1.70998
0
LINE
8
BLACK
6
CONTINUOUS
10
2.11894
20
1.70998
11
2.12199
21
1.7098
0
LINE
8
BLACK
6
CONTINUOUS
10
2.15738
20
1.76053
11
2.15811
21
1.76054
0
LINE
8
BLACK
6
CONTINUOUS
10
2.15811
20
1.76054
11
2.16936
21
1.75773
0
LINE
8
BLACK
6
CONTINUOUS
10
2.16936
20
1.75773
11
2.16993
21
1.75742
0
LINE
8
BLACK
6
CONTINUOUS
10
2.16993
20
1.75742
11
2.17057
21
1.75728
0
LINE
8
BLACK
6
CONTINUOUS
10
2.17057
20
1.75728
11
2.17619
21
1.75447
0
LINE
8
BLACK
6
CONTINUOUS
10
2.17619
20
1.75447
11
2.1769
21
1.75384
0
LINE
8
BLACK
6
CONTINUOUS
10
2.1769
20
1.75384
11
2.17773
21
1.75337
0
LINE
8
BLACK
6
CONTINUOUS
10
2.17773
20
1.75337
11
2.18054
21
1.75055
0
LINE
8
BLACK
6
CONTINUOUS
10
2.18054
20
1.75055
11
2.18102
21
1.74973
0
LINE
8
BLACK
6
CONTINUOUS
10
2.18102
20
1.74973
11
2.18165
21
1.74902
0
LINE
8
BLACK
6
CONTINUOUS
10
2.18165
20
1.74902
11
2.18446
21
1.74339
0
LINE
8
BLACK
6
CONTINUOUS
10
2.18446
20
1.74339
11
2.18473
21
1.74206
0
LINE
8
BLACK
6
CONTINUOUS
10
2.18473
20
1.74206
11
2.18508
21
1.74075
0
LINE
8
BLACK
6
CONTINUOUS
10
2.18508
20
1.74075
11
2.18508
21
1.73513
0
LINE
8
BLACK
6
CONTINUOUS
10
2.18508
20
1.73513
11
2.18473
21
1.73382
0
LINE
8
BLACK
6
CONTINUOUS
10
2.18473
20
1.73382
11
2.18446
21
1.73249
0
LINE
8
BLACK
6
CONTINUOUS
10
2.18446
20
1.73249
11
2.18165
21
1.72686
0
LINE
8
BLACK
6
CONTINUOUS
10
2.18165
20
1.72686
11
2.18102
21
1.72615
0
LINE
8
BLACK
6
CONTINUOUS
10
2.18102
20
1.72615
11
2.18054
21
1.72533
0
LINE
8
BLACK
6
CONTINUOUS
10
2.18054
20
1.72533
11
2.17773
21
1.72252
0
LINE
8
BLACK
6
CONTINUOUS
10
2.17773
20
1.72252
11
2.1769
21
1.72204
0
LINE
8
BLACK
6
CONTINUOUS
10
2.1769
20
1.72204
11
2.17619
21
1.72141
0
LINE
8
BLACK
6
CONTINUOUS
10
2.17619
20
1.72141
11
2.17057
21
1.7186
0
LINE
8
BLACK
6
CONTINUOUS
10
2.17057
20
1.7186
11
2.16993
21
1.71847
0
LINE
8
BLACK
6
CONTINUOUS
10
2.16993
20
1.71847
11
2.16936
21
1.71815
0
LINE
8
BLACK
6
CONTINUOUS
10
2.16936
20
1.71815
11
2.15811
21
1.71534
0
LINE
8
BLACK
6
CONTINUOUS
10
2.15811
20
1.71534
11
2.15738
21
1.71535
0
LINE
8
BLACK
6
CONTINUOUS
10
2.15738
20
1.71535
11
2.15668
21
1.71516
0
LINE
8
BLACK
6
CONTINUOUS
10
2.15668
20
1.71516
11
2.14262
21
1.71516
0
LINE
8
BLACK
6
CONTINUOUS
10
2.14262
20
1.71516
11
2.14191
21
1.71535
0
LINE
8
BLACK
6
CONTINUOUS
10
2.14191
20
1.71535
11
2.14119
21
1.71534
0
LINE
8
BLACK
6
CONTINUOUS
10
2.14119
20
1.71534
11
2.12994
21
1.71815
0
LINE
8
BLACK
6
CONTINUOUS
10
2.12994
20
1.71815
11
2.12937
21
1.71847
0
LINE
8
BLACK
6
CONTINUOUS
10
2.12937
20
1.71847
11
2.12873
21
1.7186
0
LINE
8
BLACK
6
CONTINUOUS
10
2.12873
20
1.7186
11
2.1231
21
1.72141
0
LINE
8
BLACK
6
CONTINUOUS
10
2.1231
20
1.72141
11
2.12239
21
1.72204
0
LINE
8
BLACK
6
CONTINUOUS
10
2.12239
20
1.72204
11
2.12157
21
1.72252
0
LINE
8
BLACK
6
CONTINUOUS
10
2.12157
20
1.72252
11
2.11876
21
1.72533
0
LINE
8
BLACK
6
CONTINUOUS
10
2.11876
20
1.72533
11
2.11828
21
1.72615
0
LINE
8
BLACK
6
CONTINUOUS
10
2.11828
20
1.72615
11
2.11765
21
1.72686
0
LINE
8
BLACK
6
CONTINUOUS
10
2.11765
20
1.72686
11
2.11484
21
1.73249
0
LINE
8
BLACK
6
CONTINUOUS
10
2.11484
20
1.73249
11
2.11457
21
1.73382
0
LINE
8
BLACK
6
CONTINUOUS
10
2.11457
20
1.73382
11
2.11422
21
1.73513
0
LINE
8
BLACK
6
CONTINUOUS
10
2.11422
20
1.73513
11
2.11422
21
1.74075
0
LINE
8
BLACK
6
CONTINUOUS
10
2.11422
20
1.74075
11
2.11457
21
1.74206
0
LINE
8
BLACK
6
CONTINUOUS
10
2.11457
20
1.74206
11
2.11484
21
1.74339
0
LINE
8
BLACK
6
CONTINUOUS
10
2.11484
20
1.74339
11
2.11765
21
1.74902
0
LINE
8
BLACK
6
CONTINUOUS
10
2.11765
20
1.74902
11
2.11828
21
1.74973
0
LINE
8
BLACK
6
CONTINUOUS
10
2.11828
20
1.74973
11
2.11876
21
1.75055
0
LINE
8
BLACK
6
CONTINUOUS
10
2.11876
20
1.75055
11
2.12157
21
1.75337
0
LINE
8
BLACK
6
CONTINUOUS
10
2.12157
20
1.75337
11
2.12239
21
1.75384
0
LINE
8
BLACK
6
CONTINUOUS
10
2.12239
20
1.75384
11
2.1231
21
1.75447
0
LINE
8
BLACK
6
CONTINUOUS
10
2.1231
20
1.75447
11
2.12873
21
1.75728
0
LINE
8
BLACK
6
CONTINUOUS
10
2.12873
20
1.75728
11
2.12937
21
1.75742
0
LINE
8
BLACK
6
CONTINUOUS
10
2.12937
20
1.75742
11
2.12994
21
1.75773
0
LINE
8
BLACK
6
CONTINUOUS
10
2.12994
20
1.75773
11
2.14119
21
1.76054
0
LINE
8
BLACK
6
CONTINUOUS
10
2.14119
20
1.76054
11
2.14191
21
1.76053
0
LINE
8
BLACK
6
CONTINUOUS
10
2.14191
20
1.76053
11
2.14262
21
1.76072
0
LINE
8
BLACK
6
CONTINUOUS
10
2.14262
20
1.76072
11
2.15668
21
1.76072
0
LINE
8
BLACK
6
CONTINUOUS
10
2.15668
20
1.76072
11
2.15738
21
1.76053
0
LINE
8
BLACK
6
CONTINUOUS
10
2.14335
20
1.74891
11
2.13343
21
1.74643
0
LINE
8
BLACK
6
CONTINUOUS
10
2.13343
20
1.74643
11
2.12924
21
1.74434
0
LINE
8
BLACK
6
CONTINUOUS
10
2.12924
20
1.74434
11
2.12779
21
1.74288
0
LINE
8
BLACK
6
CONTINUOUS
10
2.12779
20
1.74288
11
2.12603
21
1.73936
0
LINE
8
BLACK
6
CONTINUOUS
10
2.12603
20
1.73936
11
2.12603
21
1.73652
0
LINE
8
BLACK
6
CONTINUOUS
10
2.12603
20
1.73652
11
2.12779
21
1.733
0
LINE
8
BLACK
6
CONTINUOUS
10
2.12779
20
1.733
11
2.12924
21
1.73155
0
LINE
8
BLACK
6
CONTINUOUS
10
2.12924
20
1.73155
11
2.13343
21
1.72945
0
LINE
8
BLACK
6
CONTINUOUS
10
2.13343
20
1.72945
11
2.14335
21
1.72697
0
LINE
8
BLACK
6
CONTINUOUS
10
2.14335
20
1.72697
11
2.15595
21
1.72697
0
LINE
8
BLACK
6
CONTINUOUS
10
2.15595
20
1.72697
11
2.16587
21
1.72945
0
LINE
8
BLACK
6
CONTINUOUS
10
2.16587
20
1.72945
11
2.17005
21
1.73155
0
LINE
8
BLACK
6
CONTINUOUS
10
2.17005
20
1.73155
11
2.17151
21
1.733
0
LINE
8
BLACK
6
CONTINUOUS
10
2.17151
20
1.733
11
2.17327
21
1.73652
0
LINE
8
BLACK
6
CONTINUOUS
10
2.17327
20
1.73652
11
2.17327
21
1.73936
0
LINE
8
BLACK
6
CONTINUOUS
10
2.17327
20
1.73936
11
2.17151
21
1.74288
0
LINE
8
BLACK
6
CONTINUOUS
10
2.17151
20
1.74288
11
2.17005
21
1.74434
0
LINE
8
BLACK
6
CONTINUOUS
10
2.17005
20
1.74434
11
2.16587
21
1.74643
0
LINE
8
BLACK
6
CONTINUOUS
10
2.16587
20
1.74643
11
2.15595
21
1.74891
0
LINE
8
BLACK
6
CONTINUOUS
10
2.15595
20
1.74891
11
2.14335
21
1.74891
0
LINE
8
BLACK
6
CONTINUOUS
10
2.13791
20
1.81672
11
2.13886
21
1.81666
0
LINE
8
BLACK
6
CONTINUOUS
10
2.13886
20
1.81666
11
2.1473
21
1.81385
0
LINE
8
BLACK
6
CONTINUOUS
10
2.1473
20
1.81385
11
2.14843
21
1.8131
0
LINE
8
BLACK
6
CONTINUOUS
10
2.14843
20
1.8131
11
2.14961
21
1.81242
0
LINE
8
BLACK
6
CONTINUOUS
10
2.14961
20
1.81242
11
2.17327
21
1.78876
0
LINE
8
BLACK
6
CONTINUOUS
10
2.17327
20
1.78876
11
2.17327
21
1.81106
0
LINE
8
BLACK
6
CONTINUOUS
10
2.17327
20
1.81106
11
2.17406
21
1.81401
0
LINE
8
BLACK
6
CONTINUOUS
10
2.17406
20
1.81401
11
2.17622
21
1.81617
0
LINE
8
BLACK
6
CONTINUOUS
10
2.17622
20
1.81617
11
2.17918
21
1.81696
0
LINE
8
BLACK
6
CONTINUOUS
10
2.17918
20
1.81696
11
2.18213
21
1.81617
0
LINE
8
BLACK
6
CONTINUOUS
10
2.18213
20
1.81617
11
2.18429
21
1.81401
0
LINE
8
BLACK
6
CONTINUOUS
10
2.18429
20
1.81401
11
2.18508
21
1.81106
0
LINE
8
BLACK
6
CONTINUOUS
10
2.18508
20
1.81106
11
2.18508
21
1.7745
0
LINE
8
BLACK
6
CONTINUOUS
10
2.18508
20
1.7745
11
2.18488
21
1.77375
0
LINE
8
BLACK
6
CONTINUOUS
10
2.18488
20
1.77375
11
2.18488
21
1.77297
0
LINE
8
BLACK
6
CONTINUOUS
10
2.18488
20
1.77297
11
2.18449
21
1.7723
0
LINE
8
BLACK
6
CONTINUOUS
10
2.18449
20
1.7723
11
2.18429
21
1.77155
0
LINE
8
BLACK
6
CONTINUOUS
10
2.18429
20
1.77155
11
2.18374
21
1.771
0
LINE
8
BLACK
6
CONTINUOUS
10
2.18374
20
1.771
11
2.18335
21
1.77032
0
LINE
8
BLACK
6
CONTINUOUS
10
2.18335
20
1.77032
11
2.18268
21
1.76993
0
LINE
8
BLACK
6
CONTINUOUS
10
2.18268
20
1.76993
11
2.18213
21
1.76939
0
LINE
8
BLACK
6
CONTINUOUS
10
2.18213
20
1.76939
11
2.18138
21
1.76918
0
LINE
8
BLACK
6
CONTINUOUS
10
2.18138
20
1.76918
11
2.1807
21
1.7688
0
LINE
8
BLACK
6
CONTINUOUS
10
2.1807
20
1.7688
11
2.17993
21
1.7688
0
LINE
8
BLACK
6
CONTINUOUS
10
2.17993
20
1.7688
11
2.17918
21
1.76859
0
LINE
8
BLACK
6
CONTINUOUS
10
2.17918
20
1.76859
11
2.17843
21
1.7688
0
LINE
8
BLACK
6
CONTINUOUS
10
2.17843
20
1.7688
11
2.17765
21
1.7688
0
LINE
8
BLACK
6
CONTINUOUS
10
2.17765
20
1.7688
11
2.17697
21
1.76918
0
LINE
8
BLACK
6
CONTINUOUS
10
2.17697
20
1.76918
11
2.17622
21
1.76939
0
LINE
8
BLACK
6
CONTINUOUS
10
2.17622
20
1.76939
11
2.17567
21
1.76993
0
LINE
8
BLACK
6
CONTINUOUS
10
2.17567
20
1.76993
11
2.175
21
1.77032
0
LINE
8
BLACK
6
CONTINUOUS
10
2.175
20
1.77032
11
2.14224
21
1.80308
0
LINE
8
BLACK
6
CONTINUOUS
10
2.14224
20
1.80308
11
2.13604
21
1.80515
0
LINE
8
BLACK
6
CONTINUOUS
10
2.13604
20
1.80515
11
2.13276
21
1.80515
0
LINE
8
BLACK
6
CONTINUOUS
10
2.13276
20
1.80515
11
2.12924
21
1.80339
0
LINE
8
BLACK
6
CONTINUOUS
10
2.12924
20
1.80339
11
2.12779
21
1.80193
0
LINE
8
BLACK
6
CONTINUOUS
10
2.12779
20
1.80193
11
2.12603
21
1.79841
0
LINE
8
BLACK
6
CONTINUOUS
10
2.12603
20
1.79841
11
2.12603
21
1.78714
0
LINE
8
BLACK
6
CONTINUOUS
10
2.12603
20
1.78714
11
2.12779
21
1.78362
0
LINE
8
BLACK
6
CONTINUOUS
10
2.12779
20
1.78362
11
2.12992
21
1.78149
0
LINE
8
BLACK
6
CONTINUOUS
10
2.12992
20
1.78149
11
2.13145
21
1.77884
0
LINE
8
BLACK
6
CONTINUOUS
10
2.13145
20
1.77884
11
2.13145
21
1.77578
0
LINE
8
BLACK
6
CONTINUOUS
10
2.13145
20
1.77578
11
2.12992
21
1.77314
0
LINE
8
BLACK
6
CONTINUOUS
10
2.12992
20
1.77314
11
2.12727
21
1.77161
0
LINE
8
BLACK
6
CONTINUOUS
10
2.12727
20
1.77161
11
2.12422
21
1.77161
0
LINE
8
BLACK
6
CONTINUOUS
10
2.12422
20
1.77161
11
2.12157
21
1.77314
0
LINE
8
BLACK
6
CONTINUOUS
10
2.12157
20
1.77314
11
2.11876
21
1.77595
0
LINE
8
BLACK
6
CONTINUOUS
10
2.11876
20
1.77595
11
2.11828
21
1.77677
0
LINE
8
BLACK
6
CONTINUOUS
10
2.11828
20
1.77677
11
2.11765
21
1.77748
0
LINE
8
BLACK
6
CONTINUOUS
10
2.11765
20
1.77748
11
2.11484
21
1.78311
0
LINE
8
BLACK
6
CONTINUOUS
10
2.11484
20
1.78311
11
2.11457
21
1.78444
0
LINE
8
BLACK
6
CONTINUOUS
10
2.11457
20
1.78444
11
2.11422
21
1.78575
0
LINE
8
BLACK
6
CONTINUOUS
10
2.11422
20
1.78575
11
2.11422
21
1.79981
0
LINE
8
BLACK
6
CONTINUOUS
10
2.11422
20
1.79981
11
2.11457
21
1.80112
0
LINE
8
BLACK
6
CONTINUOUS
10
2.11457
20
1.80112
11
2.11484
21
1.80245
0
LINE
8
BLACK
6
CONTINUOUS
10
2.11484
20
1.80245
11
2.11765
21
1.80807
0
LINE
8
BLACK
6
CONTINUOUS
10
2.11765
20
1.80807
11
2.11828
21
1.80879
0
LINE
8
BLACK
6
CONTINUOUS
10
2.11828
20
1.80879
11
2.11876
21
1.80961
0
LINE
8
BLACK
6
CONTINUOUS
10
2.11876
20
1.80961
11
2.12157
21
1.81242
0
LINE
8
BLACK
6
CONTINUOUS
10
2.12157
20
1.81242
11
2.12239
21
1.8129
0
LINE
8
BLACK
6
CONTINUOUS
10
2.12239
20
1.8129
11
2.1231
21
1.81353
0
LINE
8
BLACK
6
CONTINUOUS
10
2.1231
20
1.81353
11
2.12873
21
1.81634
0
LINE
8
BLACK
6
CONTINUOUS
10
2.12873
20
1.81634
11
2.13006
21
1.81661
0
LINE
8
BLACK
6
CONTINUOUS
10
2.13006
20
1.81661
11
2.13137
21
1.81696
0
LINE
8
BLACK
6
CONTINUOUS
10
2.13137
20
1.81696
11
2.13699
21
1.81696
0
LINE
8
BLACK
6
CONTINUOUS
10
2.13699
20
1.81696
11
2.13791
21
1.81672
0
LINE
8
BLACK
6
CONTINUOUS
10
2.18309
20
1.87172
11
2.18478
21
1.86917
0
LINE
8
BLACK
6
CONTINUOUS
10
2.18478
20
1.86917
11
2.18496
21
1.86612
0
LINE
8
BLACK
6
CONTINUOUS
10
2.18496
20
1.86612
11
2.18359
21
1.86338
0
LINE
8
BLACK
6
CONTINUOUS
10
2.18359
20
1.86338
11
2.18104
21
1.8617
0
LINE
8
BLACK
6
CONTINUOUS
10
2.18104
20
1.8617
11
2.16821
21
1.85742
0
LINE
8
BLACK
6
CONTINUOUS
10
2.16821
20
1.85742
11
2.16821
21
1.83781
0
LINE
8
BLACK
6
CONTINUOUS
10
2.16821
20
1.83781
11
2.18104
21
1.83353
0
LINE
8
BLACK
6
CONTINUOUS
10
2.18104
20
1.83353
11
2.18359
21
1.83185
0
LINE
8
BLACK
6
CONTINUOUS
10
2.18359
20
1.83185
11
2.18496
21
1.82911
0
LINE
8
BLACK
6
CONTINUOUS
10
2.18496
20
1.82911
11
2.18478
21
1.82606
0
LINE
8
BLACK
6
CONTINUOUS
10
2.18478
20
1.82606
11
2.18309
21
1.82351
0
LINE
8
BLACK
6
CONTINUOUS
10
2.18309
20
1.82351
11
2.18036
21
1.82214
0
LINE
8
BLACK
6
CONTINUOUS
10
2.18036
20
1.82214
11
2.17731
21
1.82233
0
LINE
8
BLACK
6
CONTINUOUS
10
2.17731
20
1.82233
11
2.11825
21
1.84201
0
LINE
8
BLACK
6
CONTINUOUS
10
2.11825
20
1.84201
11
2.11726
21
1.84267
0
LINE
8
BLACK
6
CONTINUOUS
10
2.11726
20
1.84267
11
2.1162
21
1.8432
0
LINE
8
BLACK
6
CONTINUOUS
10
2.1162
20
1.8432
11
2.116
21
1.8435
0
LINE
8
BLACK
6
CONTINUOUS
10
2.116
20
1.8435
11
2.1157
21
1.8437
0
LINE
8
BLACK
6
CONTINUOUS
10
2.1157
20
1.8437
11
2.11517
21
1.84476
0
LINE
8
BLACK
6
CONTINUOUS
10
2.11517
20
1.84476
11
2.11452
21
1.84575
0
LINE
8
BLACK
6
CONTINUOUS
10
2.11452
20
1.84575
11
2.1145
21
1.84611
0
LINE
8
BLACK
6
CONTINUOUS
10
2.1145
20
1.84611
11
2.11434
21
1.84643
0
LINE
8
BLACK
6
CONTINUOUS
10
2.11434
20
1.84643
11
2.11441
21
1.84762
0
LINE
8
BLACK
6
CONTINUOUS
10
2.11441
20
1.84762
11
2.11434
21
1.8488
0
LINE
8
BLACK
6
CONTINUOUS
10
2.11434
20
1.8488
11
2.1145
21
1.84912
0
LINE
8
BLACK
6
CONTINUOUS
10
2.1145
20
1.84912
11
2.11452
21
1.84948
0
LINE
8
BLACK
6
CONTINUOUS
10
2.11452
20
1.84948
11
2.11517
21
1.85047
0
LINE
8
BLACK
6
CONTINUOUS
10
2.11517
20
1.85047
11
2.1157
21
1.85153
0
LINE
8
BLACK
6
CONTINUOUS
10
2.1157
20
1.85153
11
2.116
21
1.85173
0
LINE
8
BLACK
6
CONTINUOUS
10
2.116
20
1.85173
11
2.1162
21
1.85203
0
LINE
8
BLACK
6
CONTINUOUS
10
2.1162
20
1.85203
11
2.11726
21
1.85256
0
LINE
8
BLACK
6
CONTINUOUS
10
2.11726
20
1.85256
11
2.11825
21
1.85322
0
LINE
8
BLACK
6
CONTINUOUS
10
2.11825
20
1.85322
11
2.17731
21
1.8729
0
LINE
8
BLACK
6
CONTINUOUS
10
2.17731
20
1.8729
11
2.18036
21
1.87309
0
LINE
8
BLACK
6
CONTINUOUS
10
2.18036
20
1.87309
11
2.18309
21
1.87172
0
LINE
8
BLACK
6
CONTINUOUS
10
2.1388
20
1.84762
11
2.1564
21
1.84175
0
LINE
8
BLACK
6
CONTINUOUS
10
2.1564
20
1.84175
11
2.1564
21
1.85348
0
LINE
8
BLACK
6
CONTINUOUS
10
2.1564
20
1.85348
11
2.1388
21
1.84762
  0
ENDSEC
  0
EOF
