  0
SECTION
  2
HEADER
  9
$ANGBASE
  50
0.0
  9
$ANGDIR
  70
1
  9
$MEASUREMENT
  70
0
  0
ENDSEC
  0
SECTION
  2
TABLES
  0
TABLE
  2
LTYPE
  70
4
  0
LTYPE
  5
40F
  2
CONTINUOUS
  70
0
  3
Solid line
  72
65
  73
0
  40
0.0
  0
LTYPE
  5
410
  2
DASHDOT
 70
0
  3
Dash Dot ____ _ ____ _
 72
65
 73
4
 40
2.0
 49
1.25
 49
-0.25
 49
0.25
 49
-0.25
  0
LTYPE
  5
411
  2
DASHED
 70
0
  3
Dashed __ __ __ __ __
 72
65
 73
2
 40
0.75
 49
0.5
 49
-0.25
  0
LTYPE
  5
43B
  2
DOTTED
 70
0
  3
Dotted .  .  .  .
 72
65
 73
2
 40
0.2
 49
0.0
 49
-0.2
  0
ENDTAB
  0
TABLE
  2
STYLE
  70
4
  0
STYLE
  2
KICAD
  70
0
  40
0
  41
1
  42
1
  50
0
  71
0
  3
isocp.shx
  0
STYLE
  2
KICADB
  70
0
  40
0
  41
1
  42
1
  50
0
  71
0
  3
isocp.shx
  0
STYLE
  2
KICADI
  70
0
  40
0
  41
1
  42
1
  50
15
  71
0
  3
isocp.shx
  0
STYLE
  2
KICADBI
  70
0
  40
0
  41
1
  42
1
  50
15
  71
0
  3
isocp.shx
  0
ENDTAB
  0
TABLE
  2
LAYER
  70
1
  0
LAYER
  2
BLACK
  70
0
  62
7
  6
CONTINUOUS
  0
ENDTAB
  0
ENDSEC
  0
SECTION
  2
ENTITIES
0
LINE
8
BLACK
6
CONTINUOUS
10
2.22673
20
-0.222835
11
2.22666
21
-0.223218
0
LINE
8
BLACK
6
CONTINUOUS
10
2.22666
20
-0.223218
11
2.22669
21
-0.223347
0
LINE
8
BLACK
6
CONTINUOUS
10
2.22669
20
-0.223347
11
2.22662
21
-0.223461
0
LINE
8
BLACK
6
CONTINUOUS
10
2.22662
20
-0.223461
11
2.22655
21
-0.223845
0
LINE
8
BLACK
6
CONTINUOUS
10
2.22655
20
-0.223845
11
2.22606
21
-0.224432
0
LINE
8
BLACK
6
CONTINUOUS
10
2.22606
20
-0.224432
11
2.22568
21
-0.225097
0
LINE
8
BLACK
6
CONTINUOUS
10
2.22568
20
-0.225097
11
2.22543
21
-0.225188
0
LINE
8
BLACK
6
CONTINUOUS
10
2.22543
20
-0.225188
11
2.22526
21
-0.225392
0
LINE
8
BLACK
6
CONTINUOUS
10
2.22526
20
-0.225392
11
2.2245
21
-0.225525
0
LINE
8
BLACK
6
CONTINUOUS
10
2.2245
20
-0.225525
11
2.22378
21
-0.225787
0
LINE
8
BLACK
6
CONTINUOUS
10
2.22378
20
-0.225787
11
2.20378
21
-0.225787
0
LINE
8
BLACK
6
CONTINUOUS
10
2.20378
20
-0.225787
11
2.2034
21
-0.22572
0
LINE
8
BLACK
6
CONTINUOUS
10
2.2034
20
-0.22572
11
2.20327
21
-0.225743
0
LINE
8
BLACK
6
CONTINUOUS
10
2.20327
20
-0.225743
11
2.20315
21
-0.225677
0
LINE
8
BLACK
6
CONTINUOUS
10
2.20315
20
-0.225677
11
2.20277
21
-0.225609
0
LINE
8
BLACK
6
CONTINUOUS
10
2.20277
20
-0.225609
11
2.20218
21
-0.225116
0
LINE
8
BLACK
6
CONTINUOUS
10
2.20218
20
-0.225116
11
2.20152
21
-0.224733
0
LINE
8
BLACK
6
CONTINUOUS
10
2.20152
20
-0.224733
11
2.20143
21
-0.224482
0
LINE
8
BLACK
6
CONTINUOUS
10
2.20143
20
-0.224482
11
2.20122
21
-0.224311
0
LINE
8
BLACK
6
CONTINUOUS
10
2.20122
20
-0.224311
11
2.20109
21
-0.223555
0
LINE
8
BLACK
6
CONTINUOUS
10
2.20109
20
-0.223555
11
2.20083
21
-0.222835
0
LINE
8
BLACK
6
CONTINUOUS
10
2.20083
20
-0.222835
11
2.20083
21
0.0142126
0
LINE
8
BLACK
6
CONTINUOUS
10
2.20083
20
0.0142126
11
2.12673
21
0.0142126
0
LINE
8
BLACK
6
CONTINUOUS
10
2.12673
20
0.0142126
11
2.12673
21
-0.222835
0
LINE
8
BLACK
6
CONTINUOUS
10
2.12673
20
-0.222835
11
2.12666
21
-0.223218
0
LINE
8
BLACK
6
CONTINUOUS
10
2.12666
20
-0.223218
11
2.12669
21
-0.223347
0
LINE
8
BLACK
6
CONTINUOUS
10
2.12669
20
-0.223347
11
2.12662
21
-0.223461
0
LINE
8
BLACK
6
CONTINUOUS
10
2.12662
20
-0.223461
11
2.12655
21
-0.223845
0
LINE
8
BLACK
6
CONTINUOUS
10
2.12655
20
-0.223845
11
2.12606
21
-0.224432
0
LINE
8
BLACK
6
CONTINUOUS
10
2.12606
20
-0.224432
11
2.12568
21
-0.225097
0
LINE
8
BLACK
6
CONTINUOUS
10
2.12568
20
-0.225097
11
2.12543
21
-0.225188
0
LINE
8
BLACK
6
CONTINUOUS
10
2.12543
20
-0.225188
11
2.12526
21
-0.225392
0
LINE
8
BLACK
6
CONTINUOUS
10
2.12526
20
-0.225392
11
2.1245
21
-0.225525
0
LINE
8
BLACK
6
CONTINUOUS
10
2.1245
20
-0.225525
11
2.12378
21
-0.225787
0
LINE
8
BLACK
6
CONTINUOUS
10
2.12378
20
-0.225787
11
2.10378
21
-0.225787
0
LINE
8
BLACK
6
CONTINUOUS
10
2.10378
20
-0.225787
11
2.1034
21
-0.22572
0
LINE
8
BLACK
6
CONTINUOUS
10
2.1034
20
-0.22572
11
2.10327
21
-0.225743
0
LINE
8
BLACK
6
CONTINUOUS
10
2.10327
20
-0.225743
11
2.10315
21
-0.225677
0
LINE
8
BLACK
6
CONTINUOUS
10
2.10315
20
-0.225677
11
2.10277
21
-0.225609
0
LINE
8
BLACK
6
CONTINUOUS
10
2.10277
20
-0.225609
11
2.10218
21
-0.225116
0
LINE
8
BLACK
6
CONTINUOUS
10
2.10218
20
-0.225116
11
2.10152
21
-0.224733
0
LINE
8
BLACK
6
CONTINUOUS
10
2.10152
20
-0.224733
11
2.10143
21
-0.224482
0
LINE
8
BLACK
6
CONTINUOUS
10
2.10143
20
-0.224482
11
2.10122
21
-0.224311
0
LINE
8
BLACK
6
CONTINUOUS
10
2.10122
20
-0.224311
11
2.10109
21
-0.223555
0
LINE
8
BLACK
6
CONTINUOUS
10
2.10109
20
-0.223555
11
2.10083
21
-0.222835
0
LINE
8
BLACK
6
CONTINUOUS
10
2.10083
20
-0.222835
11
2.10083
21
0.0142126
0
LINE
8
BLACK
6
CONTINUOUS
10
2.10083
20
0.0142126
11
2.02673
21
0.0142126
0
LINE
8
BLACK
6
CONTINUOUS
10
2.02673
20
0.0142126
11
2.02673
21
-0.222835
0
LINE
8
BLACK
6
CONTINUOUS
10
2.02673
20
-0.222835
11
2.02666
21
-0.223218
0
LINE
8
BLACK
6
CONTINUOUS
10
2.02666
20
-0.223218
11
2.02669
21
-0.223347
0
LINE
8
BLACK
6
CONTINUOUS
10
2.02669
20
-0.223347
11
2.02662
21
-0.223461
0
LINE
8
BLACK
6
CONTINUOUS
10
2.02662
20
-0.223461
11
2.02655
21
-0.223845
0
LINE
8
BLACK
6
CONTINUOUS
10
2.02655
20
-0.223845
11
2.02606
21
-0.224432
0
LINE
8
BLACK
6
CONTINUOUS
10
2.02606
20
-0.224432
11
2.02568
21
-0.225097
0
LINE
8
BLACK
6
CONTINUOUS
10
2.02568
20
-0.225097
11
2.02543
21
-0.225188
0
LINE
8
BLACK
6
CONTINUOUS
10
2.02543
20
-0.225188
11
2.02526
21
-0.225392
0
LINE
8
BLACK
6
CONTINUOUS
10
2.02526
20
-0.225392
11
2.0245
21
-0.225525
0
LINE
8
BLACK
6
CONTINUOUS
10
2.0245
20
-0.225525
11
2.02378
21
-0.225787
0
LINE
8
BLACK
6
CONTINUOUS
10
2.02378
20
-0.225787
11
2.00378
21
-0.225787
0
LINE
8
BLACK
6
CONTINUOUS
10
2.00378
20
-0.225787
11
2.0034
21
-0.22572
0
LINE
8
BLACK
6
CONTINUOUS
10
2.0034
20
-0.22572
11
2.00327
21
-0.225743
0
LINE
8
BLACK
6
CONTINUOUS
10
2.00327
20
-0.225743
11
2.00315
21
-0.225677
0
LINE
8
BLACK
6
CONTINUOUS
10
2.00315
20
-0.225677
11
2.00277
21
-0.225609
0
LINE
8
BLACK
6
CONTINUOUS
10
2.00277
20
-0.225609
11
2.00218
21
-0.225116
0
LINE
8
BLACK
6
CONTINUOUS
10
2.00218
20
-0.225116
11
2.00152
21
-0.224733
0
LINE
8
BLACK
6
CONTINUOUS
10
2.00152
20
-0.224733
11
2.00143
21
-0.224482
0
LINE
8
BLACK
6
CONTINUOUS
10
2.00143
20
-0.224482
11
2.00122
21
-0.224311
0
LINE
8
BLACK
6
CONTINUOUS
10
2.00122
20
-0.224311
11
2.00109
21
-0.223555
0
LINE
8
BLACK
6
CONTINUOUS
10
2.00109
20
-0.223555
11
2.00083
21
-0.222835
0
LINE
8
BLACK
6
CONTINUOUS
10
2.00083
20
-0.222835
11
2.00083
21
0.0142126
0
LINE
8
BLACK
6
CONTINUOUS
10
2.00083
20
0.0142126
11
1.96378
21
0.0142126
0
LINE
8
BLACK
6
CONTINUOUS
10
1.96378
20
0.0142126
11
1.9634
21
0.0142802
0
LINE
8
BLACK
6
CONTINUOUS
10
1.9634
20
0.0142802
11
1.96327
21
0.0142574
0
LINE
8
BLACK
6
CONTINUOUS
10
1.96327
20
0.0142574
11
1.96315
21
0.014323
0
LINE
8
BLACK
6
CONTINUOUS
10
1.96315
20
0.014323
11
1.96277
21
0.0143907
0
LINE
8
BLACK
6
CONTINUOUS
10
1.96277
20
0.0143907
11
1.96218
21
0.0148838
0
LINE
8
BLACK
6
CONTINUOUS
10
1.96218
20
0.0148838
11
1.96152
21
0.0152674
0
LINE
8
BLACK
6
CONTINUOUS
10
1.96152
20
0.0152674
11
1.96143
21
0.0155177
0
LINE
8
BLACK
6
CONTINUOUS
10
1.96143
20
0.0155177
11
1.96122
21
0.015689
0
LINE
8
BLACK
6
CONTINUOUS
10
1.96122
20
0.015689
11
1.96109
21
0.0164445
0
LINE
8
BLACK
6
CONTINUOUS
10
1.96109
20
0.0164445
11
1.96083
21
0.0171654
0
LINE
8
BLACK
6
CONTINUOUS
10
1.96083
20
0.0171654
11
1.96083
21
0.117165
0
LINE
8
BLACK
6
CONTINUOUS
10
1.96083
20
0.117165
11
1.96089
21
0.117549
0
LINE
8
BLACK
6
CONTINUOUS
10
1.96089
20
0.117549
11
1.96087
21
0.117678
0
LINE
8
BLACK
6
CONTINUOUS
10
1.96087
20
0.117678
11
1.96094
21
0.117792
0
LINE
8
BLACK
6
CONTINUOUS
10
1.96094
20
0.117792
11
1.961
21
0.118175
0
LINE
8
BLACK
6
CONTINUOUS
10
1.961
20
0.118175
11
1.9615
21
0.118763
0
LINE
8
BLACK
6
CONTINUOUS
10
1.9615
20
0.118763
11
1.96188
21
0.119427
0
LINE
8
BLACK
6
CONTINUOUS
10
1.96188
20
0.119427
11
1.96213
21
0.119518
0
LINE
8
BLACK
6
CONTINUOUS
10
1.96213
20
0.119518
11
1.9623
21
0.119723
0
LINE
8
BLACK
6
CONTINUOUS
10
1.9623
20
0.119723
11
1.96306
21
0.119856
0
LINE
8
BLACK
6
CONTINUOUS
10
1.96306
20
0.119856
11
1.96378
21
0.120118
0
LINE
8
BLACK
6
CONTINUOUS
10
1.96378
20
0.120118
11
2.00083
21
0.120118
0
LINE
8
BLACK
6
CONTINUOUS
10
2.00083
20
0.120118
11
2.00083
21
0.137165
0
LINE
8
BLACK
6
CONTINUOUS
10
2.00083
20
0.137165
11
2.001
21
0.138175
0
LINE
8
BLACK
6
CONTINUOUS
10
2.001
20
0.138175
11
2.0023
21
0.139723
0
LINE
8
BLACK
6
CONTINUOUS
10
2.0023
20
0.139723
11
2.00429
21
0.140073
0
LINE
8
BLACK
6
CONTINUOUS
10
2.00429
20
0.140073
11
2.00604
21
0.139063
0
LINE
8
BLACK
6
CONTINUOUS
10
2.00604
20
0.139063
11
2.00673
21
0.137165
0
LINE
8
BLACK
6
CONTINUOUS
10
2.00673
20
0.137165
11
2.00673
21
0.120118
0
LINE
8
BLACK
6
CONTINUOUS
10
2.00673
20
0.120118
11
2.02083
21
0.120118
0
LINE
8
BLACK
6
CONTINUOUS
10
2.02083
20
0.120118
11
2.02083
21
0.137165
0
LINE
8
BLACK
6
CONTINUOUS
10
2.02083
20
0.137165
11
2.021
21
0.138175
0
LINE
8
BLACK
6
CONTINUOUS
10
2.021
20
0.138175
11
2.0223
21
0.139723
0
LINE
8
BLACK
6
CONTINUOUS
10
2.0223
20
0.139723
11
2.02429
21
0.140073
0
LINE
8
BLACK
6
CONTINUOUS
10
2.02429
20
0.140073
11
2.02604
21
0.139063
0
LINE
8
BLACK
6
CONTINUOUS
10
2.02604
20
0.139063
11
2.02673
21
0.137165
0
LINE
8
BLACK
6
CONTINUOUS
10
2.02673
20
0.137165
11
2.02673
21
0.120118
0
LINE
8
BLACK
6
CONTINUOUS
10
2.02673
20
0.120118
11
2.10083
21
0.120118
0
LINE
8
BLACK
6
CONTINUOUS
10
2.10083
20
0.120118
11
2.10083
21
0.137165
0
LINE
8
BLACK
6
CONTINUOUS
10
2.10083
20
0.137165
11
2.101
21
0.138175
0
LINE
8
BLACK
6
CONTINUOUS
10
2.101
20
0.138175
11
2.1023
21
0.139723
0
LINE
8
BLACK
6
CONTINUOUS
10
2.1023
20
0.139723
11
2.10429
21
0.140073
0
LINE
8
BLACK
6
CONTINUOUS
10
2.10429
20
0.140073
11
2.10604
21
0.139063
0
LINE
8
BLACK
6
CONTINUOUS
10
2.10604
20
0.139063
11
2.10673
21
0.137165
0
LINE
8
BLACK
6
CONTINUOUS
10
2.10673
20
0.137165
11
2.10673
21
0.120118
0
LINE
8
BLACK
6
CONTINUOUS
10
2.10673
20
0.120118
11
2.12083
21
0.120118
0
LINE
8
BLACK
6
CONTINUOUS
10
2.12083
20
0.120118
11
2.12083
21
0.137165
0
LINE
8
BLACK
6
CONTINUOUS
10
2.12083
20
0.137165
11
2.121
21
0.138175
0
LINE
8
BLACK
6
CONTINUOUS
10
2.121
20
0.138175
11
2.1223
21
0.139723
0
LINE
8
BLACK
6
CONTINUOUS
10
2.1223
20
0.139723
11
2.12429
21
0.140073
0
LINE
8
BLACK
6
CONTINUOUS
10
2.12429
20
0.140073
11
2.12604
21
0.139063
0
LINE
8
BLACK
6
CONTINUOUS
10
2.12604
20
0.139063
11
2.12673
21
0.137165
0
LINE
8
BLACK
6
CONTINUOUS
10
2.12673
20
0.137165
11
2.12673
21
0.120118
0
LINE
8
BLACK
6
CONTINUOUS
10
2.12673
20
0.120118
11
2.20083
21
0.120118
0
LINE
8
BLACK
6
CONTINUOUS
10
2.20083
20
0.120118
11
2.20083
21
0.137165
0
LINE
8
BLACK
6
CONTINUOUS
10
2.20083
20
0.137165
11
2.201
21
0.138175
0
LINE
8
BLACK
6
CONTINUOUS
10
2.201
20
0.138175
11
2.2023
21
0.139723
0
LINE
8
BLACK
6
CONTINUOUS
10
2.2023
20
0.139723
11
2.20429
21
0.140073
0
LINE
8
BLACK
6
CONTINUOUS
10
2.20429
20
0.140073
11
2.20604
21
0.139063
0
LINE
8
BLACK
6
CONTINUOUS
10
2.20604
20
0.139063
11
2.20673
21
0.137165
0
LINE
8
BLACK
6
CONTINUOUS
10
2.20673
20
0.137165
11
2.20673
21
0.120118
0
LINE
8
BLACK
6
CONTINUOUS
10
2.20673
20
0.120118
11
2.22083
21
0.120118
0
LINE
8
BLACK
6
CONTINUOUS
10
2.22083
20
0.120118
11
2.22083
21
0.137165
0
LINE
8
BLACK
6
CONTINUOUS
10
2.22083
20
0.137165
11
2.221
21
0.138175
0
LINE
8
BLACK
6
CONTINUOUS
10
2.221
20
0.138175
11
2.2223
21
0.139723
0
LINE
8
BLACK
6
CONTINUOUS
10
2.2223
20
0.139723
11
2.22429
21
0.140073
0
LINE
8
BLACK
6
CONTINUOUS
10
2.22429
20
0.140073
11
2.22604
21
0.139063
0
LINE
8
BLACK
6
CONTINUOUS
10
2.22604
20
0.139063
11
2.22673
21
0.137165
0
LINE
8
BLACK
6
CONTINUOUS
10
2.22673
20
0.137165
11
2.22673
21
0.120118
0
LINE
8
BLACK
6
CONTINUOUS
10
2.22673
20
0.120118
11
2.30083
21
0.120118
0
LINE
8
BLACK
6
CONTINUOUS
10
2.30083
20
0.120118
11
2.30083
21
0.137165
0
LINE
8
BLACK
6
CONTINUOUS
10
2.30083
20
0.137165
11
2.301
21
0.138175
0
LINE
8
BLACK
6
CONTINUOUS
10
2.301
20
0.138175
11
2.3023
21
0.139723
0
LINE
8
BLACK
6
CONTINUOUS
10
2.3023
20
0.139723
11
2.30429
21
0.140073
0
LINE
8
BLACK
6
CONTINUOUS
10
2.30429
20
0.140073
11
2.30604
21
0.139063
0
LINE
8
BLACK
6
CONTINUOUS
10
2.30604
20
0.139063
11
2.30673
21
0.137165
0
LINE
8
BLACK
6
CONTINUOUS
10
2.30673
20
0.137165
11
2.30673
21
0.120118
0
LINE
8
BLACK
6
CONTINUOUS
10
2.30673
20
0.120118
11
2.32083
21
0.120118
0
LINE
8
BLACK
6
CONTINUOUS
10
2.32083
20
0.120118
11
2.32083
21
0.137165
0
LINE
8
BLACK
6
CONTINUOUS
10
2.32083
20
0.137165
11
2.321
21
0.138175
0
LINE
8
BLACK
6
CONTINUOUS
10
2.321
20
0.138175
11
2.3223
21
0.139723
0
LINE
8
BLACK
6
CONTINUOUS
10
2.3223
20
0.139723
11
2.32429
21
0.140073
0
LINE
8
BLACK
6
CONTINUOUS
10
2.32429
20
0.140073
11
2.32604
21
0.139063
0
LINE
8
BLACK
6
CONTINUOUS
10
2.32604
20
0.139063
11
2.32673
21
0.137165
0
LINE
8
BLACK
6
CONTINUOUS
10
2.32673
20
0.137165
11
2.32673
21
0.120118
0
LINE
8
BLACK
6
CONTINUOUS
10
2.32673
20
0.120118
11
2.36378
21
0.120118
0
LINE
8
BLACK
6
CONTINUOUS
10
2.36378
20
0.120118
11
2.36416
21
0.12005
0
LINE
8
BLACK
6
CONTINUOUS
10
2.36416
20
0.12005
11
2.36429
21
0.120073
0
LINE
8
BLACK
6
CONTINUOUS
10
2.36429
20
0.120073
11
2.36441
21
0.120008
0
LINE
8
BLACK
6
CONTINUOUS
10
2.36441
20
0.120008
11
2.36441
21
0.120006
0
LINE
8
BLACK
6
CONTINUOUS
10
2.36441
20
0.120006
11
2.36454
21
0.120017
0
LINE
8
BLACK
6
CONTINUOUS
10
2.36454
20
0.120017
11
2.36461
21
0.119972
0
LINE
8
BLACK
6
CONTINUOUS
10
2.36461
20
0.119972
11
2.36479
21
0.11994
0
LINE
8
BLACK
6
CONTINUOUS
10
2.36479
20
0.11994
11
2.36538
21
0.119447
0
LINE
8
BLACK
6
CONTINUOUS
10
2.36538
20
0.119447
11
2.36604
21
0.119063
0
LINE
8
BLACK
6
CONTINUOUS
10
2.36604
20
0.119063
11
2.36609
21
0.118936
0
LINE
8
BLACK
6
CONTINUOUS
10
2.36609
20
0.118936
11
2.3662
21
0.118859
0
LINE
8
BLACK
6
CONTINUOUS
10
2.3662
20
0.118859
11
2.36623
21
0.118729
0
LINE
8
BLACK
6
CONTINUOUS
10
2.36623
20
0.118729
11
2.36634
21
0.118642
0
LINE
8
BLACK
6
CONTINUOUS
10
2.36634
20
0.118642
11
2.36647
21
0.117886
0
LINE
8
BLACK
6
CONTINUOUS
10
2.36647
20
0.117886
11
2.36673
21
0.117165
0
LINE
8
BLACK
6
CONTINUOUS
10
2.36673
20
0.117165
11
2.36673
21
0.0171654
0
LINE
8
BLACK
6
CONTINUOUS
10
2.36673
20
0.0171654
11
2.36666
21
0.0167818
0
LINE
8
BLACK
6
CONTINUOUS
10
2.36666
20
0.0167818
11
2.36669
21
0.0166526
0
LINE
8
BLACK
6
CONTINUOUS
10
2.36669
20
0.0166526
11
2.36662
21
0.016539
0
LINE
8
BLACK
6
CONTINUOUS
10
2.36662
20
0.016539
11
2.36662
21
0.0165305
0
LINE
8
BLACK
6
CONTINUOUS
10
2.36662
20
0.0165305
11
2.36663
21
0.0164011
0
LINE
8
BLACK
6
CONTINUOUS
10
2.36663
20
0.0164011
11
2.36659
21
0.016336
0
LINE
8
BLACK
6
CONTINUOUS
10
2.36659
20
0.016336
11
2.36655
21
0.0161554
0
LINE
8
BLACK
6
CONTINUOUS
10
2.36655
20
0.0161554
11
2.36606
21
0.0155678
0
LINE
8
BLACK
6
CONTINUOUS
10
2.36606
20
0.0155678
11
2.36568
21
0.0149034
0
LINE
8
BLACK
6
CONTINUOUS
10
2.36568
20
0.0149034
11
2.36555
21
0.0148572
0
LINE
8
BLACK
6
CONTINUOUS
10
2.36555
20
0.0148572
11
2.36547
21
0.0147466
0
LINE
8
BLACK
6
CONTINUOUS
10
2.36547
20
0.0147466
11
2.36534
21
0.0147116
0
LINE
8
BLACK
6
CONTINUOUS
10
2.36534
20
0.0147116
11
2.36526
21
0.0146082
0
LINE
8
BLACK
6
CONTINUOUS
10
2.36526
20
0.0146082
11
2.3645
21
0.014475
0
LINE
8
BLACK
6
CONTINUOUS
10
2.3645
20
0.014475
11
2.36378
21
0.0142126
0
LINE
8
BLACK
6
CONTINUOUS
10
2.36378
20
0.0142126
11
2.32673
21
0.0142126
0
LINE
8
BLACK
6
CONTINUOUS
10
2.32673
20
0.0142126
11
2.32673
21
-0.222835
0
LINE
8
BLACK
6
CONTINUOUS
10
2.32673
20
-0.222835
11
2.32666
21
-0.223218
0
LINE
8
BLACK
6
CONTINUOUS
10
2.32666
20
-0.223218
11
2.32669
21
-0.223347
0
LINE
8
BLACK
6
CONTINUOUS
10
2.32669
20
-0.223347
11
2.32662
21
-0.223461
0
LINE
8
BLACK
6
CONTINUOUS
10
2.32662
20
-0.223461
11
2.32655
21
-0.223845
0
LINE
8
BLACK
6
CONTINUOUS
10
2.32655
20
-0.223845
11
2.32606
21
-0.224432
0
LINE
8
BLACK
6
CONTINUOUS
10
2.32606
20
-0.224432
11
2.32568
21
-0.225097
0
LINE
8
BLACK
6
CONTINUOUS
10
2.32568
20
-0.225097
11
2.32543
21
-0.225188
0
LINE
8
BLACK
6
CONTINUOUS
10
2.32543
20
-0.225188
11
2.32526
21
-0.225392
0
LINE
8
BLACK
6
CONTINUOUS
10
2.32526
20
-0.225392
11
2.3245
21
-0.225525
0
LINE
8
BLACK
6
CONTINUOUS
10
2.3245
20
-0.225525
11
2.32378
21
-0.225787
0
LINE
8
BLACK
6
CONTINUOUS
10
2.32378
20
-0.225787
11
2.30378
21
-0.225787
0
LINE
8
BLACK
6
CONTINUOUS
10
2.30378
20
-0.225787
11
2.3034
21
-0.22572
0
LINE
8
BLACK
6
CONTINUOUS
10
2.3034
20
-0.22572
11
2.30327
21
-0.225743
0
LINE
8
BLACK
6
CONTINUOUS
10
2.30327
20
-0.225743
11
2.30315
21
-0.225677
0
LINE
8
BLACK
6
CONTINUOUS
10
2.30315
20
-0.225677
11
2.30277
21
-0.225609
0
LINE
8
BLACK
6
CONTINUOUS
10
2.30277
20
-0.225609
11
2.30218
21
-0.225116
0
LINE
8
BLACK
6
CONTINUOUS
10
2.30218
20
-0.225116
11
2.30152
21
-0.224733
0
LINE
8
BLACK
6
CONTINUOUS
10
2.30152
20
-0.224733
11
2.30143
21
-0.224482
0
LINE
8
BLACK
6
CONTINUOUS
10
2.30143
20
-0.224482
11
2.30122
21
-0.224311
0
LINE
8
BLACK
6
CONTINUOUS
10
2.30122
20
-0.224311
11
2.30109
21
-0.223555
0
LINE
8
BLACK
6
CONTINUOUS
10
2.30109
20
-0.223555
11
2.30083
21
-0.222835
0
LINE
8
BLACK
6
CONTINUOUS
10
2.30083
20
-0.222835
11
2.30083
21
0.0142126
0
LINE
8
BLACK
6
CONTINUOUS
10
2.30083
20
0.0142126
11
2.22673
21
0.0142126
0
LINE
8
BLACK
6
CONTINUOUS
10
2.22673
20
0.0142126
11
2.22673
21
-0.222835
0
LINE
8
BLACK
6
CONTINUOUS
10
2.30673
20
-0.219882
11
2.30678
21
-0.219882
0
LINE
8
BLACK
6
CONTINUOUS
10
2.30678
20
-0.219882
11
2.30673
21
-0.219857
0
LINE
8
BLACK
6
CONTINUOUS
10
2.30673
20
-0.219857
11
2.30673
21
-0.219882
0
LINE
8
BLACK
6
CONTINUOUS
10
2.3208
20
-0.219882
11
2.32083
21
-0.219882
0
LINE
8
BLACK
6
CONTINUOUS
10
2.32083
20
-0.219882
11
2.32083
21
-0.219838
0
LINE
8
BLACK
6
CONTINUOUS
10
2.32083
20
-0.219838
11
2.3208
21
-0.219882
0
LINE
8
BLACK
6
CONTINUOUS
10
2.20673
20
0.0142126
11
2.20673
21
-0.219882
0
LINE
8
BLACK
6
CONTINUOUS
10
2.20673
20
-0.219882
11
2.22083
21
-0.219882
0
LINE
8
BLACK
6
CONTINUOUS
10
2.22083
20
-0.219882
11
2.22083
21
0.0142126
0
LINE
8
BLACK
6
CONTINUOUS
10
2.22083
20
0.0142126
11
2.20673
21
0.0142126
0
LINE
8
BLACK
6
CONTINUOUS
10
2.10673
20
0.0142126
11
2.10673
21
-0.219882
0
LINE
8
BLACK
6
CONTINUOUS
10
2.10673
20
-0.219882
11
2.12083
21
-0.219882
0
LINE
8
BLACK
6
CONTINUOUS
10
2.12083
20
-0.219882
11
2.12083
21
0.0142126
0
LINE
8
BLACK
6
CONTINUOUS
10
2.12083
20
0.0142126
11
2.10673
21
0.0142126
0
LINE
8
BLACK
6
CONTINUOUS
10
2.00673
20
0.0142126
11
2.00673
21
-0.219882
0
LINE
8
BLACK
6
CONTINUOUS
10
2.00673
20
-0.219882
11
2.02083
21
-0.219882
0
LINE
8
BLACK
6
CONTINUOUS
10
2.02083
20
-0.219882
11
2.02083
21
0.0142126
0
LINE
8
BLACK
6
CONTINUOUS
10
2.02083
20
0.0142126
11
2.00673
21
0.0142126
0
LINE
8
BLACK
6
CONTINUOUS
10
2.31078
20
0.0142126
11
2.31104
21
0.0140633
0
LINE
8
BLACK
6
CONTINUOUS
10
2.31104
20
0.0140633
11
2.31126
21
0.0134744
0
LINE
8
BLACK
6
CONTINUOUS
10
2.31126
20
0.0134744
11
2.31188
21
0.0142126
0
LINE
8
BLACK
6
CONTINUOUS
10
2.31188
20
0.0142126
11
2.31078
21
0.0142126
0
LINE
8
BLACK
6
CONTINUOUS
10
2.31578
20
0.0142126
11
2.31604
21
0.0140633
0
LINE
8
BLACK
6
CONTINUOUS
10
2.31604
20
0.0140633
11
2.31626
21
0.0134744
0
LINE
8
BLACK
6
CONTINUOUS
10
2.31626
20
0.0134744
11
2.31688
21
0.0142126
0
LINE
8
BLACK
6
CONTINUOUS
10
2.31688
20
0.0142126
11
2.31578
21
0.0142126
0
LINE
8
BLACK
6
CONTINUOUS
10
2.30673
20
0.0142126
11
2.30673
21
0.0140422
0
LINE
8
BLACK
6
CONTINUOUS
10
2.30673
20
0.0140422
11
2.30688
21
0.0142126
0
LINE
8
BLACK
6
CONTINUOUS
10
2.30688
20
0.0142126
11
2.30673
21
0.0142126
0
LINE
8
BLACK
6
CONTINUOUS
10
2.32078
20
0.0142126
11
2.32083
21
0.0141873
0
LINE
8
BLACK
6
CONTINUOUS
10
2.32083
20
0.0141873
11
2.32083
21
0.0142126
0
LINE
8
BLACK
6
CONTINUOUS
10
2.32083
20
0.0142126
11
2.32078
21
0.0142126
0
LINE
8
BLACK
6
CONTINUOUS
10
2.27091
20
0.0201181
11
2.35665
21
0.0201181
0
LINE
8
BLACK
6
CONTINUOUS
10
2.35665
20
0.0201181
11
2.31378
21
0.0629895
0
LINE
8
BLACK
6
CONTINUOUS
10
2.31378
20
0.0629895
11
2.27091
21
0.0201181
0
LINE
8
BLACK
6
CONTINUOUS
10
2.16673
20
0.114213
11
2.16673
21
0.0201181
0
LINE
8
BLACK
6
CONTINUOUS
10
2.16673
20
0.0201181
11
2.26083
21
0.0201181
0
LINE
8
BLACK
6
CONTINUOUS
10
2.26083
20
0.0201181
11
2.26083
21
0.114213
0
LINE
8
BLACK
6
CONTINUOUS
10
2.26083
20
0.114213
11
2.16673
21
0.114213
0
LINE
8
BLACK
6
CONTINUOUS
10
2.06673
20
0.114213
11
2.06673
21
0.0201181
0
LINE
8
BLACK
6
CONTINUOUS
10
2.06673
20
0.0201181
11
2.16083
21
0.0201181
0
LINE
8
BLACK
6
CONTINUOUS
10
2.16083
20
0.0201181
11
2.16083
21
0.114213
0
LINE
8
BLACK
6
CONTINUOUS
10
2.16083
20
0.114213
11
2.06673
21
0.114213
0
LINE
8
BLACK
6
CONTINUOUS
10
1.96673
20
0.114213
11
1.96673
21
0.0201181
0
LINE
8
BLACK
6
CONTINUOUS
10
1.96673
20
0.0201181
11
2.06083
21
0.0201181
0
LINE
8
BLACK
6
CONTINUOUS
10
2.06083
20
0.0201181
11
2.06083
21
0.114213
0
LINE
8
BLACK
6
CONTINUOUS
10
2.06083
20
0.114213
11
1.96673
21
0.114213
0
LINE
8
BLACK
6
CONTINUOUS
10
2.31796
20
0.0671654
11
2.36083
21
0.0242939
0
LINE
8
BLACK
6
CONTINUOUS
10
2.36083
20
0.0242939
11
2.36083
21
0.110037
0
LINE
8
BLACK
6
CONTINUOUS
10
2.36083
20
0.110037
11
2.31796
21
0.0671654
0
LINE
8
BLACK
6
CONTINUOUS
10
2.26673
20
0.0242939
11
2.3096
21
0.0671654
0
LINE
8
BLACK
6
CONTINUOUS
10
2.3096
20
0.0671654
11
2.26673
21
0.110037
0
LINE
8
BLACK
6
CONTINUOUS
10
2.26673
20
0.110037
11
2.26673
21
0.0242939
0
LINE
8
BLACK
6
CONTINUOUS
10
2.27091
20
0.114213
11
2.31378
21
0.0713412
0
LINE
8
BLACK
6
CONTINUOUS
10
2.31378
20
0.0713412
11
2.35665
21
0.114213
0
LINE
8
BLACK
6
CONTINUOUS
10
2.35665
20
0.114213
11
2.27091
21
0.114213
0
LINE
8
BLACK
6
CONTINUOUS
10
0.299173
20
-0.222835
11
0.299106
21
-0.223218
0
LINE
8
BLACK
6
CONTINUOUS
10
0.299106
20
-0.223218
11
0.299128
21
-0.223347
0
LINE
8
BLACK
6
CONTINUOUS
10
0.299128
20
-0.223347
11
0.299063
21
-0.223461
0
LINE
8
BLACK
6
CONTINUOUS
10
0.299063
20
-0.223461
11
0.298995
21
-0.223845
0
LINE
8
BLACK
6
CONTINUOUS
10
0.298995
20
-0.223845
11
0.298502
21
-0.224432
0
LINE
8
BLACK
6
CONTINUOUS
10
0.298502
20
-0.224432
11
0.298118
21
-0.225097
0
LINE
8
BLACK
6
CONTINUOUS
10
0.298118
20
-0.225097
11
0.297868
21
-0.225188
0
LINE
8
BLACK
6
CONTINUOUS
10
0.297868
20
-0.225188
11
0.297697
21
-0.225392
0
LINE
8
BLACK
6
CONTINUOUS
10
0.297697
20
-0.225392
11
0.296941
21
-0.225525
0
LINE
8
BLACK
6
CONTINUOUS
10
0.296941
20
-0.225525
11
0.29622
21
-0.225787
0
LINE
8
BLACK
6
CONTINUOUS
10
0.29622
20
-0.225787
11
0.27622
21
-0.225787
0
LINE
8
BLACK
6
CONTINUOUS
10
0.27622
20
-0.225787
11
0.275837
21
-0.22572
0
LINE
8
BLACK
6
CONTINUOUS
10
0.275837
20
-0.22572
11
0.275708
21
-0.225743
0
LINE
8
BLACK
6
CONTINUOUS
10
0.275708
20
-0.225743
11
0.275594
21
-0.225677
0
LINE
8
BLACK
6
CONTINUOUS
10
0.275594
20
-0.225677
11
0.275211
21
-0.225609
0
LINE
8
BLACK
6
CONTINUOUS
10
0.275211
20
-0.225609
11
0.274623
21
-0.225116
0
LINE
8
BLACK
6
CONTINUOUS
10
0.274623
20
-0.225116
11
0.273959
21
-0.224733
0
LINE
8
BLACK
6
CONTINUOUS
10
0.273959
20
-0.224733
11
0.273867
21
-0.224482
0
LINE
8
BLACK
6
CONTINUOUS
10
0.273867
20
-0.224482
11
0.273663
21
-0.224311
0
LINE
8
BLACK
6
CONTINUOUS
10
0.273663
20
-0.224311
11
0.27353
21
-0.223555
0
LINE
8
BLACK
6
CONTINUOUS
10
0.27353
20
-0.223555
11
0.273268
21
-0.222835
0
LINE
8
BLACK
6
CONTINUOUS
10
0.273268
20
-0.222835
11
0.273268
21
0.0142126
0
LINE
8
BLACK
6
CONTINUOUS
10
0.273268
20
0.0142126
11
0.199173
21
0.0142126
0
LINE
8
BLACK
6
CONTINUOUS
10
0.199173
20
0.0142126
11
0.199173
21
-0.222835
0
LINE
8
BLACK
6
CONTINUOUS
10
0.199173
20
-0.222835
11
0.199106
21
-0.223218
0
LINE
8
BLACK
6
CONTINUOUS
10
0.199106
20
-0.223218
11
0.199128
21
-0.223347
0
LINE
8
BLACK
6
CONTINUOUS
10
0.199128
20
-0.223347
11
0.199063
21
-0.223461
0
LINE
8
BLACK
6
CONTINUOUS
10
0.199063
20
-0.223461
11
0.198995
21
-0.223845
0
LINE
8
BLACK
6
CONTINUOUS
10
0.198995
20
-0.223845
11
0.198502
21
-0.224432
0
LINE
8
BLACK
6
CONTINUOUS
10
0.198502
20
-0.224432
11
0.198118
21
-0.225097
0
LINE
8
BLACK
6
CONTINUOUS
10
0.198118
20
-0.225097
11
0.197868
21
-0.225188
0
LINE
8
BLACK
6
CONTINUOUS
10
0.197868
20
-0.225188
11
0.197697
21
-0.225392
0
LINE
8
BLACK
6
CONTINUOUS
10
0.197697
20
-0.225392
11
0.196941
21
-0.225525
0
LINE
8
BLACK
6
CONTINUOUS
10
0.196941
20
-0.225525
11
0.19622
21
-0.225787
0
LINE
8
BLACK
6
CONTINUOUS
10
0.19622
20
-0.225787
11
0.17622
21
-0.225787
0
LINE
8
BLACK
6
CONTINUOUS
10
0.17622
20
-0.225787
11
0.175837
21
-0.22572
0
LINE
8
BLACK
6
CONTINUOUS
10
0.175837
20
-0.22572
11
0.175708
21
-0.225743
0
LINE
8
BLACK
6
CONTINUOUS
10
0.175708
20
-0.225743
11
0.175594
21
-0.225677
0
LINE
8
BLACK
6
CONTINUOUS
10
0.175594
20
-0.225677
11
0.175211
21
-0.225609
0
LINE
8
BLACK
6
CONTINUOUS
10
0.175211
20
-0.225609
11
0.174623
21
-0.225116
0
LINE
8
BLACK
6
CONTINUOUS
10
0.174623
20
-0.225116
11
0.173959
21
-0.224733
0
LINE
8
BLACK
6
CONTINUOUS
10
0.173959
20
-0.224733
11
0.173867
21
-0.224482
0
LINE
8
BLACK
6
CONTINUOUS
10
0.173867
20
-0.224482
11
0.173663
21
-0.224311
0
LINE
8
BLACK
6
CONTINUOUS
10
0.173663
20
-0.224311
11
0.17353
21
-0.223555
0
LINE
8
BLACK
6
CONTINUOUS
10
0.17353
20
-0.223555
11
0.173268
21
-0.222835
0
LINE
8
BLACK
6
CONTINUOUS
10
0.173268
20
-0.222835
11
0.173268
21
0.0142126
0
LINE
8
BLACK
6
CONTINUOUS
10
0.173268
20
0.0142126
11
0.0991732
21
0.0142126
0
LINE
8
BLACK
6
CONTINUOUS
10
0.0991732
20
0.0142126
11
0.0991732
21
-0.222835
0
LINE
8
BLACK
6
CONTINUOUS
10
0.0991732
20
-0.222835
11
0.0991056
21
-0.223218
0
LINE
8
BLACK
6
CONTINUOUS
10
0.0991056
20
-0.223218
11
0.0991284
21
-0.223347
0
LINE
8
BLACK
6
CONTINUOUS
10
0.0991284
20
-0.223347
11
0.0990628
21
-0.223461
0
LINE
8
BLACK
6
CONTINUOUS
10
0.0990628
20
-0.223461
11
0.0989952
21
-0.223845
0
LINE
8
BLACK
6
CONTINUOUS
10
0.0989952
20
-0.223845
11
0.098502
21
-0.224432
0
LINE
8
BLACK
6
CONTINUOUS
10
0.098502
20
-0.224432
11
0.0981185
21
-0.225097
0
LINE
8
BLACK
6
CONTINUOUS
10
0.0981185
20
-0.225097
11
0.0978681
21
-0.225188
0
LINE
8
BLACK
6
CONTINUOUS
10
0.0978681
20
-0.225188
11
0.0976969
21
-0.225392
0
LINE
8
BLACK
6
CONTINUOUS
10
0.0976969
20
-0.225392
11
0.0969413
21
-0.225525
0
LINE
8
BLACK
6
CONTINUOUS
10
0.0969413
20
-0.225525
11
0.0962205
21
-0.225787
0
LINE
8
BLACK
6
CONTINUOUS
10
0.0962205
20
-0.225787
11
0.0762205
21
-0.225787
0
LINE
8
BLACK
6
CONTINUOUS
10
0.0762205
20
-0.225787
11
0.0758369
21
-0.22572
0
LINE
8
BLACK
6
CONTINUOUS
10
0.0758369
20
-0.22572
11
0.0757077
21
-0.225743
0
LINE
8
BLACK
6
CONTINUOUS
10
0.0757077
20
-0.225743
11
0.0755941
21
-0.225677
0
LINE
8
BLACK
6
CONTINUOUS
10
0.0755941
20
-0.225677
11
0.0752106
21
-0.225609
0
LINE
8
BLACK
6
CONTINUOUS
10
0.0752106
20
-0.225609
11
0.0746229
21
-0.225116
0
LINE
8
BLACK
6
CONTINUOUS
10
0.0746229
20
-0.225116
11
0.0739585
21
-0.224733
0
LINE
8
BLACK
6
CONTINUOUS
10
0.0739585
20
-0.224733
11
0.0738674
21
-0.224482
0
LINE
8
BLACK
6
CONTINUOUS
10
0.0738674
20
-0.224482
11
0.0736633
21
-0.224311
0
LINE
8
BLACK
6
CONTINUOUS
10
0.0736633
20
-0.224311
11
0.0735301
21
-0.223555
0
LINE
8
BLACK
6
CONTINUOUS
10
0.0735301
20
-0.223555
11
0.0732677
21
-0.222835
0
LINE
8
BLACK
6
CONTINUOUS
10
0.0732677
20
-0.222835
11
0.0732677
21
0.0142126
0
LINE
8
BLACK
6
CONTINUOUS
10
0.0732677
20
0.0142126
11
0.0362205
21
0.0142126
0
LINE
8
BLACK
6
CONTINUOUS
10
0.0362205
20
0.0142126
11
0.0358369
21
0.0142802
0
LINE
8
BLACK
6
CONTINUOUS
10
0.0358369
20
0.0142802
11
0.0357077
21
0.0142574
0
LINE
8
BLACK
6
CONTINUOUS
10
0.0357077
20
0.0142574
11
0.0355941
21
0.014323
0
LINE
8
BLACK
6
CONTINUOUS
10
0.0355941
20
0.014323
11
0.0352106
21
0.0143907
0
LINE
8
BLACK
6
CONTINUOUS
10
0.0352106
20
0.0143907
11
0.0346229
21
0.0148838
0
LINE
8
BLACK
6
CONTINUOUS
10
0.0346229
20
0.0148838
11
0.0339585
21
0.0152674
0
LINE
8
BLACK
6
CONTINUOUS
10
0.0339585
20
0.0152674
11
0.0338674
21
0.0155177
0
LINE
8
BLACK
6
CONTINUOUS
10
0.0338674
20
0.0155177
11
0.0336633
21
0.015689
0
LINE
8
BLACK
6
CONTINUOUS
10
0.0336633
20
0.015689
11
0.0335301
21
0.0164445
0
LINE
8
BLACK
6
CONTINUOUS
10
0.0335301
20
0.0164445
11
0.0332677
21
0.0171654
0
LINE
8
BLACK
6
CONTINUOUS
10
0.0332677
20
0.0171654
11
0.0332677
21
0.117165
0
LINE
8
BLACK
6
CONTINUOUS
10
0.0332677
20
0.117165
11
0.0333354
21
0.117549
0
LINE
8
BLACK
6
CONTINUOUS
10
0.0333354
20
0.117549
11
0.0333126
21
0.117678
0
LINE
8
BLACK
6
CONTINUOUS
10
0.0333126
20
0.117678
11
0.0333781
21
0.117792
0
LINE
8
BLACK
6
CONTINUOUS
10
0.0333781
20
0.117792
11
0.0334458
21
0.118175
0
LINE
8
BLACK
6
CONTINUOUS
10
0.0334458
20
0.118175
11
0.0339389
21
0.118763
0
LINE
8
BLACK
6
CONTINUOUS
10
0.0339389
20
0.118763
11
0.0343225
21
0.119427
0
LINE
8
BLACK
6
CONTINUOUS
10
0.0343225
20
0.119427
11
0.0345728
21
0.119518
0
LINE
8
BLACK
6
CONTINUOUS
10
0.0345728
20
0.119518
11
0.0347441
21
0.119723
0
LINE
8
BLACK
6
CONTINUOUS
10
0.0347441
20
0.119723
11
0.0354996
21
0.119856
0
LINE
8
BLACK
6
CONTINUOUS
10
0.0354996
20
0.119856
11
0.0362205
21
0.120118
0
LINE
8
BLACK
6
CONTINUOUS
10
0.0362205
20
0.120118
11
0.0732677
21
0.120118
0
LINE
8
BLACK
6
CONTINUOUS
10
0.0732677
20
0.120118
11
0.0732677
21
0.137165
0
LINE
8
BLACK
6
CONTINUOUS
10
0.0732677
20
0.137165
11
0.0734458
21
0.138175
0
LINE
8
BLACK
6
CONTINUOUS
10
0.0734458
20
0.138175
11
0.0747441
21
0.139723
0
LINE
8
BLACK
6
CONTINUOUS
10
0.0747441
20
0.139723
11
0.0767332
21
0.140073
0
LINE
8
BLACK
6
CONTINUOUS
10
0.0767332
20
0.140073
11
0.0784824
21
0.139063
0
LINE
8
BLACK
6
CONTINUOUS
10
0.0784824
20
0.139063
11
0.0791732
21
0.137165
0
LINE
8
BLACK
6
CONTINUOUS
10
0.0791732
20
0.137165
11
0.0791732
21
0.120118
0
LINE
8
BLACK
6
CONTINUOUS
10
0.0791732
20
0.120118
11
0.0932677
21
0.120118
0
LINE
8
BLACK
6
CONTINUOUS
10
0.0932677
20
0.120118
11
0.0932677
21
0.137165
0
LINE
8
BLACK
6
CONTINUOUS
10
0.0932677
20
0.137165
11
0.0934458
21
0.138175
0
LINE
8
BLACK
6
CONTINUOUS
10
0.0934458
20
0.138175
11
0.0947441
21
0.139723
0
LINE
8
BLACK
6
CONTINUOUS
10
0.0947441
20
0.139723
11
0.0967332
21
0.140073
0
LINE
8
BLACK
6
CONTINUOUS
10
0.0967332
20
0.140073
11
0.0984824
21
0.139063
0
LINE
8
BLACK
6
CONTINUOUS
10
0.0984824
20
0.139063
11
0.0991732
21
0.137165
0
LINE
8
BLACK
6
CONTINUOUS
10
0.0991732
20
0.137165
11
0.0991732
21
0.120118
0
LINE
8
BLACK
6
CONTINUOUS
10
0.0991732
20
0.120118
11
0.173268
21
0.120118
0
LINE
8
BLACK
6
CONTINUOUS
10
0.173268
20
0.120118
11
0.173268
21
0.137165
0
LINE
8
BLACK
6
CONTINUOUS
10
0.173268
20
0.137165
11
0.173446
21
0.138175
0
LINE
8
BLACK
6
CONTINUOUS
10
0.173446
20
0.138175
11
0.174744
21
0.139723
0
LINE
8
BLACK
6
CONTINUOUS
10
0.174744
20
0.139723
11
0.176733
21
0.140073
0
LINE
8
BLACK
6
CONTINUOUS
10
0.176733
20
0.140073
11
0.178482
21
0.139063
0
LINE
8
BLACK
6
CONTINUOUS
10
0.178482
20
0.139063
11
0.179173
21
0.137165
0
LINE
8
BLACK
6
CONTINUOUS
10
0.179173
20
0.137165
11
0.179173
21
0.120118
0
LINE
8
BLACK
6
CONTINUOUS
10
0.179173
20
0.120118
11
0.193268
21
0.120118
0
LINE
8
BLACK
6
CONTINUOUS
10
0.193268
20
0.120118
11
0.193268
21
0.137165
0
LINE
8
BLACK
6
CONTINUOUS
10
0.193268
20
0.137165
11
0.193446
21
0.138175
0
LINE
8
BLACK
6
CONTINUOUS
10
0.193446
20
0.138175
11
0.194744
21
0.139723
0
LINE
8
BLACK
6
CONTINUOUS
10
0.194744
20
0.139723
11
0.196733
21
0.140073
0
LINE
8
BLACK
6
CONTINUOUS
10
0.196733
20
0.140073
11
0.198482
21
0.139063
0
LINE
8
BLACK
6
CONTINUOUS
10
0.198482
20
0.139063
11
0.199173
21
0.137165
0
LINE
8
BLACK
6
CONTINUOUS
10
0.199173
20
0.137165
11
0.199173
21
0.120118
0
LINE
8
BLACK
6
CONTINUOUS
10
0.199173
20
0.120118
11
0.273268
21
0.120118
0
LINE
8
BLACK
6
CONTINUOUS
10
0.273268
20
0.120118
11
0.273268
21
0.137165
0
LINE
8
BLACK
6
CONTINUOUS
10
0.273268
20
0.137165
11
0.273446
21
0.138175
0
LINE
8
BLACK
6
CONTINUOUS
10
0.273446
20
0.138175
11
0.274744
21
0.139723
0
LINE
8
BLACK
6
CONTINUOUS
10
0.274744
20
0.139723
11
0.276733
21
0.140073
0
LINE
8
BLACK
6
CONTINUOUS
10
0.276733
20
0.140073
11
0.278482
21
0.139063
0
LINE
8
BLACK
6
CONTINUOUS
10
0.278482
20
0.139063
11
0.279173
21
0.137165
0
LINE
8
BLACK
6
CONTINUOUS
10
0.279173
20
0.137165
11
0.279173
21
0.120118
0
LINE
8
BLACK
6
CONTINUOUS
10
0.279173
20
0.120118
11
0.293268
21
0.120118
0
LINE
8
BLACK
6
CONTINUOUS
10
0.293268
20
0.120118
11
0.293268
21
0.137165
0
LINE
8
BLACK
6
CONTINUOUS
10
0.293268
20
0.137165
11
0.293446
21
0.138175
0
LINE
8
BLACK
6
CONTINUOUS
10
0.293446
20
0.138175
11
0.294744
21
0.139723
0
LINE
8
BLACK
6
CONTINUOUS
10
0.294744
20
0.139723
11
0.296733
21
0.140073
0
LINE
8
BLACK
6
CONTINUOUS
10
0.296733
20
0.140073
11
0.298482
21
0.139063
0
LINE
8
BLACK
6
CONTINUOUS
10
0.298482
20
0.139063
11
0.299173
21
0.137165
0
LINE
8
BLACK
6
CONTINUOUS
10
0.299173
20
0.137165
11
0.299173
21
0.120118
0
LINE
8
BLACK
6
CONTINUOUS
10
0.299173
20
0.120118
11
0.373268
21
0.120118
0
LINE
8
BLACK
6
CONTINUOUS
10
0.373268
20
0.120118
11
0.373268
21
0.137165
0
LINE
8
BLACK
6
CONTINUOUS
10
0.373268
20
0.137165
11
0.373446
21
0.138175
0
LINE
8
BLACK
6
CONTINUOUS
10
0.373446
20
0.138175
11
0.374744
21
0.139723
0
LINE
8
BLACK
6
CONTINUOUS
10
0.374744
20
0.139723
11
0.376733
21
0.140073
0
LINE
8
BLACK
6
CONTINUOUS
10
0.376733
20
0.140073
11
0.378482
21
0.139063
0
LINE
8
BLACK
6
CONTINUOUS
10
0.378482
20
0.139063
11
0.379173
21
0.137165
0
LINE
8
BLACK
6
CONTINUOUS
10
0.379173
20
0.137165
11
0.379173
21
0.120118
0
LINE
8
BLACK
6
CONTINUOUS
10
0.379173
20
0.120118
11
0.393268
21
0.120118
0
LINE
8
BLACK
6
CONTINUOUS
10
0.393268
20
0.120118
11
0.393268
21
0.137165
0
LINE
8
BLACK
6
CONTINUOUS
10
0.393268
20
0.137165
11
0.393446
21
0.138175
0
LINE
8
BLACK
6
CONTINUOUS
10
0.393446
20
0.138175
11
0.394744
21
0.139723
0
LINE
8
BLACK
6
CONTINUOUS
10
0.394744
20
0.139723
11
0.396733
21
0.140073
0
LINE
8
BLACK
6
CONTINUOUS
10
0.396733
20
0.140073
11
0.398482
21
0.139063
0
LINE
8
BLACK
6
CONTINUOUS
10
0.398482
20
0.139063
11
0.399173
21
0.137165
0
LINE
8
BLACK
6
CONTINUOUS
10
0.399173
20
0.137165
11
0.399173
21
0.120118
0
LINE
8
BLACK
6
CONTINUOUS
10
0.399173
20
0.120118
11
0.43622
21
0.120118
0
LINE
8
BLACK
6
CONTINUOUS
10
0.43622
20
0.120118
11
0.436604
21
0.12005
0
LINE
8
BLACK
6
CONTINUOUS
10
0.436604
20
0.12005
11
0.436733
21
0.120073
0
LINE
8
BLACK
6
CONTINUOUS
10
0.436733
20
0.120073
11
0.436847
21
0.120008
0
LINE
8
BLACK
6
CONTINUOUS
10
0.436847
20
0.120008
11
0.436855
21
0.120006
0
LINE
8
BLACK
6
CONTINUOUS
10
0.436855
20
0.120006
11
0.436985
21
0.120017
0
LINE
8
BLACK
6
CONTINUOUS
10
0.436985
20
0.120017
11
0.43705
21
0.119972
0
LINE
8
BLACK
6
CONTINUOUS
10
0.43705
20
0.119972
11
0.43723
21
0.11994
0
LINE
8
BLACK
6
CONTINUOUS
10
0.43723
20
0.11994
11
0.437818
21
0.119447
0
LINE
8
BLACK
6
CONTINUOUS
10
0.437818
20
0.119447
11
0.438482
21
0.119063
0
LINE
8
BLACK
6
CONTINUOUS
10
0.438482
20
0.119063
11
0.438529
21
0.118936
0
LINE
8
BLACK
6
CONTINUOUS
10
0.438529
20
0.118936
11
0.438639
21
0.118859
0
LINE
8
BLACK
6
CONTINUOUS
10
0.438639
20
0.118859
11
0.438674
21
0.118729
0
LINE
8
BLACK
6
CONTINUOUS
10
0.438674
20
0.118729
11
0.438778
21
0.118642
0
LINE
8
BLACK
6
CONTINUOUS
10
0.438778
20
0.118642
11
0.438911
21
0.117886
0
LINE
8
BLACK
6
CONTINUOUS
10
0.438911
20
0.117886
11
0.439173
21
0.117165
0
LINE
8
BLACK
6
CONTINUOUS
10
0.439173
20
0.117165
11
0.439173
21
0.0171654
0
LINE
8
BLACK
6
CONTINUOUS
10
0.439173
20
0.0171654
11
0.439106
21
0.0167818
0
LINE
8
BLACK
6
CONTINUOUS
10
0.439106
20
0.0167818
11
0.439128
21
0.0166526
0
LINE
8
BLACK
6
CONTINUOUS
10
0.439128
20
0.0166526
11
0.439063
21
0.016539
0
LINE
8
BLACK
6
CONTINUOUS
10
0.439063
20
0.016539
11
0.439061
21
0.0165305
0
LINE
8
BLACK
6
CONTINUOUS
10
0.439061
20
0.0165305
11
0.439073
21
0.0164011
0
LINE
8
BLACK
6
CONTINUOUS
10
0.439073
20
0.0164011
11
0.439027
21
0.016336
0
LINE
8
BLACK
6
CONTINUOUS
10
0.439027
20
0.016336
11
0.438995
21
0.0161554
0
LINE
8
BLACK
6
CONTINUOUS
10
0.438995
20
0.0161554
11
0.438502
21
0.0155678
0
LINE
8
BLACK
6
CONTINUOUS
10
0.438502
20
0.0155678
11
0.438118
21
0.0149034
0
LINE
8
BLACK
6
CONTINUOUS
10
0.438118
20
0.0149034
11
0.437992
21
0.0148572
0
LINE
8
BLACK
6
CONTINUOUS
10
0.437992
20
0.0148572
11
0.437914
21
0.0147466
0
LINE
8
BLACK
6
CONTINUOUS
10
0.437914
20
0.0147466
11
0.437784
21
0.0147116
0
LINE
8
BLACK
6
CONTINUOUS
10
0.437784
20
0.0147116
11
0.437697
21
0.0146082
0
LINE
8
BLACK
6
CONTINUOUS
10
0.437697
20
0.0146082
11
0.436941
21
0.014475
0
LINE
8
BLACK
6
CONTINUOUS
10
0.436941
20
0.014475
11
0.43622
21
0.0142126
0
LINE
8
BLACK
6
CONTINUOUS
10
0.43622
20
0.0142126
11
0.399173
21
0.0142126
0
LINE
8
BLACK
6
CONTINUOUS
10
0.399173
20
0.0142126
11
0.399173
21
-0.222835
0
LINE
8
BLACK
6
CONTINUOUS
10
0.399173
20
-0.222835
11
0.399106
21
-0.223218
0
LINE
8
BLACK
6
CONTINUOUS
10
0.399106
20
-0.223218
11
0.399128
21
-0.223347
0
LINE
8
BLACK
6
CONTINUOUS
10
0.399128
20
-0.223347
11
0.399063
21
-0.223461
0
LINE
8
BLACK
6
CONTINUOUS
10
0.399063
20
-0.223461
11
0.398995
21
-0.223845
0
LINE
8
BLACK
6
CONTINUOUS
10
0.398995
20
-0.223845
11
0.398502
21
-0.224432
0
LINE
8
BLACK
6
CONTINUOUS
10
0.398502
20
-0.224432
11
0.398118
21
-0.225097
0
LINE
8
BLACK
6
CONTINUOUS
10
0.398118
20
-0.225097
11
0.397868
21
-0.225188
0
LINE
8
BLACK
6
CONTINUOUS
10
0.397868
20
-0.225188
11
0.397697
21
-0.225392
0
LINE
8
BLACK
6
CONTINUOUS
10
0.397697
20
-0.225392
11
0.396941
21
-0.225525
0
LINE
8
BLACK
6
CONTINUOUS
10
0.396941
20
-0.225525
11
0.39622
21
-0.225787
0
LINE
8
BLACK
6
CONTINUOUS
10
0.39622
20
-0.225787
11
0.37622
21
-0.225787
0
LINE
8
BLACK
6
CONTINUOUS
10
0.37622
20
-0.225787
11
0.375837
21
-0.22572
0
LINE
8
BLACK
6
CONTINUOUS
10
0.375837
20
-0.22572
11
0.375708
21
-0.225743
0
LINE
8
BLACK
6
CONTINUOUS
10
0.375708
20
-0.225743
11
0.375594
21
-0.225677
0
LINE
8
BLACK
6
CONTINUOUS
10
0.375594
20
-0.225677
11
0.375211
21
-0.225609
0
LINE
8
BLACK
6
CONTINUOUS
10
0.375211
20
-0.225609
11
0.374623
21
-0.225116
0
LINE
8
BLACK
6
CONTINUOUS
10
0.374623
20
-0.225116
11
0.373959
21
-0.224733
0
LINE
8
BLACK
6
CONTINUOUS
10
0.373959
20
-0.224733
11
0.373867
21
-0.224482
0
LINE
8
BLACK
6
CONTINUOUS
10
0.373867
20
-0.224482
11
0.373663
21
-0.224311
0
LINE
8
BLACK
6
CONTINUOUS
10
0.373663
20
-0.224311
11
0.37353
21
-0.223555
0
LINE
8
BLACK
6
CONTINUOUS
10
0.37353
20
-0.223555
11
0.373268
21
-0.222835
0
LINE
8
BLACK
6
CONTINUOUS
10
0.373268
20
-0.222835
11
0.373268
21
0.0142126
0
LINE
8
BLACK
6
CONTINUOUS
10
0.373268
20
0.0142126
11
0.299173
21
0.0142126
0
LINE
8
BLACK
6
CONTINUOUS
10
0.299173
20
0.0142126
11
0.299173
21
-0.222835
0
LINE
8
BLACK
6
CONTINUOUS
10
0.379173
20
-0.219882
11
0.379217
21
-0.219882
0
LINE
8
BLACK
6
CONTINUOUS
10
0.379217
20
-0.219882
11
0.379173
21
-0.219857
0
LINE
8
BLACK
6
CONTINUOUS
10
0.379173
20
-0.219857
11
0.379173
21
-0.219882
0
LINE
8
BLACK
6
CONTINUOUS
10
0.393242
20
-0.219882
11
0.393268
21
-0.219882
0
LINE
8
BLACK
6
CONTINUOUS
10
0.393268
20
-0.219882
11
0.393268
21
-0.219838
0
LINE
8
BLACK
6
CONTINUOUS
10
0.393268
20
-0.219838
11
0.393242
21
-0.219882
0
LINE
8
BLACK
6
CONTINUOUS
10
0.279173
20
0.0142126
11
0.279173
21
-0.219882
0
LINE
8
BLACK
6
CONTINUOUS
10
0.279173
20
-0.219882
11
0.293268
21
-0.219882
0
LINE
8
BLACK
6
CONTINUOUS
10
0.293268
20
-0.219882
11
0.293268
21
0.0142126
0
LINE
8
BLACK
6
CONTINUOUS
10
0.293268
20
0.0142126
11
0.279173
21
0.0142126
0
LINE
8
BLACK
6
CONTINUOUS
10
0.179173
20
0.0142126
11
0.179173
21
-0.219882
0
LINE
8
BLACK
6
CONTINUOUS
10
0.179173
20
-0.219882
11
0.193268
21
-0.219882
0
LINE
8
BLACK
6
CONTINUOUS
10
0.193268
20
-0.219882
11
0.193268
21
0.0142126
0
LINE
8
BLACK
6
CONTINUOUS
10
0.193268
20
0.0142126
11
0.179173
21
0.0142126
0
LINE
8
BLACK
6
CONTINUOUS
10
0.0791732
20
0.0142126
11
0.0791732
21
-0.219882
0
LINE
8
BLACK
6
CONTINUOUS
10
0.0791732
20
-0.219882
11
0.0932677
21
-0.219882
0
LINE
8
BLACK
6
CONTINUOUS
10
0.0932677
20
-0.219882
11
0.0932677
21
0.0142126
0
LINE
8
BLACK
6
CONTINUOUS
10
0.0932677
20
0.0142126
11
0.0791732
21
0.0142126
0
LINE
8
BLACK
6
CONTINUOUS
10
0.383224
20
0.0142126
11
0.383482
21
0.0140633
0
LINE
8
BLACK
6
CONTINUOUS
10
0.383482
20
0.0140633
11
0.383697
21
0.0134744
0
LINE
8
BLACK
6
CONTINUOUS
10
0.383697
20
0.0134744
11
0.384316
21
0.0142126
0
LINE
8
BLACK
6
CONTINUOUS
10
0.384316
20
0.0142126
11
0.383224
21
0.0142126
0
LINE
8
BLACK
6
CONTINUOUS
10
0.388224
20
0.0142126
11
0.388482
21
0.0140633
0
LINE
8
BLACK
6
CONTINUOUS
10
0.388482
20
0.0140633
11
0.388697
21
0.0134744
0
LINE
8
BLACK
6
CONTINUOUS
10
0.388697
20
0.0134744
11
0.389316
21
0.0142126
0
LINE
8
BLACK
6
CONTINUOUS
10
0.389316
20
0.0142126
11
0.388224
21
0.0142126
0
LINE
8
BLACK
6
CONTINUOUS
10
0.379173
20
0.0142126
11
0.379173
21
0.0140422
0
LINE
8
BLACK
6
CONTINUOUS
10
0.379173
20
0.0140422
11
0.379316
21
0.0142126
0
LINE
8
BLACK
6
CONTINUOUS
10
0.379316
20
0.0142126
11
0.379173
21
0.0142126
0
LINE
8
BLACK
6
CONTINUOUS
10
0.393224
20
0.0142126
11
0.393268
21
0.0141873
0
LINE
8
BLACK
6
CONTINUOUS
10
0.393268
20
0.0141873
11
0.393268
21
0.0142126
0
LINE
8
BLACK
6
CONTINUOUS
10
0.393268
20
0.0142126
11
0.393224
21
0.0142126
0
LINE
8
BLACK
6
CONTINUOUS
10
0.343349
20
0.0201181
11
0.429092
21
0.0201181
0
LINE
8
BLACK
6
CONTINUOUS
10
0.429092
20
0.0201181
11
0.38622
21
0.0629895
0
LINE
8
BLACK
6
CONTINUOUS
10
0.38622
20
0.0629895
11
0.343349
21
0.0201181
0
LINE
8
BLACK
6
CONTINUOUS
10
0.239173
20
0.114213
11
0.239173
21
0.0201181
0
LINE
8
BLACK
6
CONTINUOUS
10
0.239173
20
0.0201181
11
0.333268
21
0.0201181
0
LINE
8
BLACK
6
CONTINUOUS
10
0.333268
20
0.0201181
11
0.333268
21
0.114213
0
LINE
8
BLACK
6
CONTINUOUS
10
0.333268
20
0.114213
11
0.239173
21
0.114213
0
LINE
8
BLACK
6
CONTINUOUS
10
0.139173
20
0.114213
11
0.139173
21
0.0201181
0
LINE
8
BLACK
6
CONTINUOUS
10
0.139173
20
0.0201181
11
0.233268
21
0.0201181
0
LINE
8
BLACK
6
CONTINUOUS
10
0.233268
20
0.0201181
11
0.233268
21
0.114213
0
LINE
8
BLACK
6
CONTINUOUS
10
0.233268
20
0.114213
11
0.139173
21
0.114213
0
LINE
8
BLACK
6
CONTINUOUS
10
0.0391732
20
0.114213
11
0.0391732
21
0.0201181
0
LINE
8
BLACK
6
CONTINUOUS
10
0.0391732
20
0.0201181
11
0.133268
21
0.0201181
0
LINE
8
BLACK
6
CONTINUOUS
10
0.133268
20
0.0201181
11
0.133268
21
0.114213
0
LINE
8
BLACK
6
CONTINUOUS
10
0.133268
20
0.114213
11
0.0391732
21
0.114213
0
LINE
8
BLACK
6
CONTINUOUS
10
0.390396
20
0.0671654
11
0.433268
21
0.0242939
0
LINE
8
BLACK
6
CONTINUOUS
10
0.433268
20
0.0242939
11
0.433268
21
0.110037
0
LINE
8
BLACK
6
CONTINUOUS
10
0.433268
20
0.110037
11
0.390396
21
0.0671654
0
LINE
8
BLACK
6
CONTINUOUS
10
0.339173
20
0.0242939
11
0.382045
21
0.0671654
0
LINE
8
BLACK
6
CONTINUOUS
10
0.382045
20
0.0671654
11
0.339173
21
0.110037
0
LINE
8
BLACK
6
CONTINUOUS
10
0.339173
20
0.110037
11
0.339173
21
0.0242939
0
LINE
8
BLACK
6
CONTINUOUS
10
0.343349
20
0.114213
11
0.38622
21
0.0713412
0
LINE
8
BLACK
6
CONTINUOUS
10
0.38622
20
0.0713412
11
0.429092
21
0.114213
0
LINE
8
BLACK
6
CONTINUOUS
10
0.429092
20
0.114213
11
0.343349
21
0.114213
0
LINE
8
BLACK
6
CONTINUOUS
10
0.31622
20
0.147165
11
0.25622
21
0.147165
0
LINE
8
BLACK
6
CONTINUOUS
10
0.25622
20
0.147165
11
0.25622
21
0.207165
0
LINE
8
BLACK
6
CONTINUOUS
10
0.25622
20
0.207165
11
0.31622
21
0.207165
0
LINE
8
BLACK
6
CONTINUOUS
10
0.31622
20
0.207165
11
0.31622
21
0.147165
0
LINE
8
BLACK
6
CONTINUOUS
10
0.41622
20
0.147165
11
0.35622
21
0.147165
0
LINE
8
BLACK
6
CONTINUOUS
10
0.35622
20
0.147165
11
0.35622
21
0.207165
0
LINE
8
BLACK
6
CONTINUOUS
10
0.35622
20
0.207165
11
0.41622
21
0.207165
0
LINE
8
BLACK
6
CONTINUOUS
10
0.41622
20
0.207165
11
0.41622
21
0.147165
0
LINE
8
BLACK
6
CONTINUOUS
10
2.14378
20
0.147165
11
2.08378
21
0.147165
0
LINE
8
BLACK
6
CONTINUOUS
10
2.08378
20
0.147165
11
2.08378
21
0.207165
0
LINE
8
BLACK
6
CONTINUOUS
10
2.08378
20
0.207165
11
2.14378
21
0.207165
0
LINE
8
BLACK
6
CONTINUOUS
10
2.14378
20
0.207165
11
2.14378
21
0.147165
0
LINE
8
BLACK
6
CONTINUOUS
10
2.24378
20
0.147165
11
2.18378
21
0.147165
0
LINE
8
BLACK
6
CONTINUOUS
10
2.18378
20
0.147165
11
2.18378
21
0.207165
0
LINE
8
BLACK
6
CONTINUOUS
10
2.18378
20
0.207165
11
2.24378
21
0.207165
0
LINE
8
BLACK
6
CONTINUOUS
10
2.24378
20
0.207165
11
2.24378
21
0.147165
0
LINE
8
BLACK
6
CONTINUOUS
10
2.34378
20
0.147165
11
2.28378
21
0.147165
0
LINE
8
BLACK
6
CONTINUOUS
10
2.28378
20
0.147165
11
2.28378
21
0.207165
0
LINE
8
BLACK
6
CONTINUOUS
10
2.28378
20
0.207165
11
2.34378
21
0.207165
0
LINE
8
BLACK
6
CONTINUOUS
10
2.34378
20
0.207165
11
2.34378
21
0.147165
0
LINE
8
BLACK
6
CONTINUOUS
10
0.11622
20
0.147165
11
0.0562205
21
0.147165
0
LINE
8
BLACK
6
CONTINUOUS
10
0.0562205
20
0.147165
11
0.0562205
21
0.207165
0
LINE
8
BLACK
6
CONTINUOUS
10
0.0562205
20
0.207165
11
0.11622
21
0.207165
0
LINE
8
BLACK
6
CONTINUOUS
10
0.11622
20
0.207165
11
0.11622
21
0.147165
0
LINE
8
BLACK
6
CONTINUOUS
10
0.21622
20
0.147165
11
0.15622
21
0.147165
0
LINE
8
BLACK
6
CONTINUOUS
10
0.15622
20
0.147165
11
0.15622
21
0.207165
0
LINE
8
BLACK
6
CONTINUOUS
10
0.15622
20
0.207165
11
0.21622
21
0.207165
0
LINE
8
BLACK
6
CONTINUOUS
10
0.21622
20
0.207165
11
0.21622
21
0.147165
0
LINE
8
BLACK
6
CONTINUOUS
10
2.04378
20
0.147165
11
1.98378
21
0.147165
0
LINE
8
BLACK
6
CONTINUOUS
10
1.98378
20
0.147165
11
1.98378
21
0.207165
0
LINE
8
BLACK
6
CONTINUOUS
10
1.98378
20
0.207165
11
2.04378
21
0.207165
0
LINE
8
BLACK
6
CONTINUOUS
10
2.04378
20
0.207165
11
2.04378
21
0.147165
0
LINE
8
BLACK
6
CONTINUOUS
10
2.14244
20
0.699996
11
2.14461
21
0.697835
0
LINE
8
BLACK
6
CONTINUOUS
10
2.14461
20
0.697835
11
2.1454
21
0.694882
0
LINE
8
BLACK
6
CONTINUOUS
10
2.1454
20
0.694882
11
2.1454
21
0.692351
0
LINE
8
BLACK
6
CONTINUOUS
10
2.1454
20
0.692351
11
2.15918
21
0.692351
0
LINE
8
BLACK
6
CONTINUOUS
10
2.15918
20
0.692351
11
2.16213
21
0.69156
0
LINE
8
BLACK
6
CONTINUOUS
10
2.16213
20
0.69156
11
2.16429
21
0.689398
0
LINE
8
BLACK
6
CONTINUOUS
10
2.16429
20
0.689398
11
2.16508
21
0.686445
0
LINE
8
BLACK
6
CONTINUOUS
10
2.16508
20
0.686445
11
2.16429
21
0.683493
0
LINE
8
BLACK
6
CONTINUOUS
10
2.16429
20
0.683493
11
2.16213
21
0.681331
0
LINE
8
BLACK
6
CONTINUOUS
10
2.16213
20
0.681331
11
2.15918
21
0.68054
0
LINE
8
BLACK
6
CONTINUOUS
10
2.15918
20
0.68054
11
2.1454
21
0.68054
0
LINE
8
BLACK
6
CONTINUOUS
10
2.1454
20
0.68054
11
2.1454
21
0.658324
0
LINE
8
BLACK
6
CONTINUOUS
10
2.1454
20
0.658324
11
2.14515
21
0.657406
0
LINE
8
BLACK
6
CONTINUOUS
10
2.14515
20
0.657406
11
2.14509
21
0.656456
0
LINE
8
BLACK
6
CONTINUOUS
10
2.14509
20
0.656456
11
2.14476
21
0.655954
0
LINE
8
BLACK
6
CONTINUOUS
10
2.14476
20
0.655954
11
2.14461
21
0.655371
0
LINE
8
BLACK
6
CONTINUOUS
10
2.14461
20
0.655371
11
2.14393
21
0.654699
0
LINE
8
BLACK
6
CONTINUOUS
10
2.14393
20
0.654699
11
2.14341
21
0.653905
0
LINE
8
BLACK
6
CONTINUOUS
10
2.14341
20
0.653905
11
2.14287
21
0.653636
0
LINE
8
BLACK
6
CONTINUOUS
10
2.14287
20
0.653636
11
2.14244
21
0.65321
0
LINE
8
BLACK
6
CONTINUOUS
10
2.14244
20
0.65321
11
2.14153
21
0.652964
0
LINE
8
BLACK
6
CONTINUOUS
10
2.14153
20
0.652964
11
2.14067
21
0.652538
0
LINE
8
BLACK
6
CONTINUOUS
10
2.14067
20
0.652538
11
2.14007
21
0.652574
0
LINE
8
BLACK
6
CONTINUOUS
10
2.14007
20
0.652574
11
2.13949
21
0.652418
0
LINE
8
BLACK
6
CONTINUOUS
10
2.13949
20
0.652418
11
2.13857
21
0.652665
0
LINE
8
BLACK
6
CONTINUOUS
10
2.13857
20
0.652665
11
2.13762
21
0.652722
0
LINE
8
BLACK
6
CONTINUOUS
10
2.13762
20
0.652722
11
2.09544
21
0.666782
0
LINE
8
BLACK
6
CONTINUOUS
10
2.09544
20
0.666782
11
2.09289
21
0.668467
0
LINE
8
BLACK
6
CONTINUOUS
10
2.09289
20
0.668467
11
2.09152
21
0.671201
0
LINE
8
BLACK
6
CONTINUOUS
10
2.09152
20
0.671201
11
2.09171
21
0.674252
0
LINE
8
BLACK
6
CONTINUOUS
10
2.09171
20
0.674252
11
2.09339
21
0.676803
0
LINE
8
BLACK
6
CONTINUOUS
10
2.09339
20
0.676803
11
2.09612
21
0.67817
0
LINE
8
BLACK
6
CONTINUOUS
10
2.09612
20
0.67817
11
2.09918
21
0.677987
0
LINE
8
BLACK
6
CONTINUOUS
10
2.09918
20
0.677987
11
2.13359
21
0.666517
0
LINE
8
BLACK
6
CONTINUOUS
10
2.13359
20
0.666517
11
2.13359
21
0.68054
0
LINE
8
BLACK
6
CONTINUOUS
10
2.13359
20
0.68054
11
2.11981
21
0.68054
0
LINE
8
BLACK
6
CONTINUOUS
10
2.11981
20
0.68054
11
2.11685
21
0.681331
0
LINE
8
BLACK
6
CONTINUOUS
10
2.11685
20
0.681331
11
2.11469
21
0.683493
0
LINE
8
BLACK
6
CONTINUOUS
10
2.11469
20
0.683493
11
2.1139
21
0.686445
0
LINE
8
BLACK
6
CONTINUOUS
10
2.1139
20
0.686445
11
2.11469
21
0.689398
0
LINE
8
BLACK
6
CONTINUOUS
10
2.11469
20
0.689398
11
2.11685
21
0.69156
0
LINE
8
BLACK
6
CONTINUOUS
10
2.11685
20
0.69156
11
2.11981
21
0.692351
0
LINE
8
BLACK
6
CONTINUOUS
10
2.11981
20
0.692351
11
2.13359
21
0.692351
0
LINE
8
BLACK
6
CONTINUOUS
10
2.13359
20
0.692351
11
2.13359
21
0.694882
0
LINE
8
BLACK
6
CONTINUOUS
10
2.13359
20
0.694882
11
2.13438
21
0.697835
0
LINE
8
BLACK
6
CONTINUOUS
10
2.13438
20
0.697835
11
2.13654
21
0.699996
0
LINE
8
BLACK
6
CONTINUOUS
10
2.13654
20
0.699996
11
2.13949
21
0.700787
0
LINE
8
BLACK
6
CONTINUOUS
10
2.13949
20
0.700787
11
2.14244
21
0.699996
0
LINE
8
BLACK
6
CONTINUOUS
10
2.16179
20
0.756419
11
2.16409
21
0.754401
0
LINE
8
BLACK
6
CONTINUOUS
10
2.16409
20
0.754401
11
2.16507
21
0.751505
0
LINE
8
BLACK
6
CONTINUOUS
10
2.16507
20
0.751505
11
2.16447
21
0.748507
0
LINE
8
BLACK
6
CONTINUOUS
10
2.16447
20
0.748507
11
2.16245
21
0.746211
0
LINE
8
BLACK
6
CONTINUOUS
10
2.16245
20
0.746211
11
2.14029
21
0.73144
0
LINE
8
BLACK
6
CONTINUOUS
10
2.14029
20
0.73144
11
2.16245
21
0.716668
0
LINE
8
BLACK
6
CONTINUOUS
10
2.16245
20
0.716668
11
2.16447
21
0.714372
0
LINE
8
BLACK
6
CONTINUOUS
10
2.16447
20
0.714372
11
2.16507
21
0.711375
0
LINE
8
BLACK
6
CONTINUOUS
10
2.16507
20
0.711375
11
2.16409
21
0.708479
0
LINE
8
BLACK
6
CONTINUOUS
10
2.16409
20
0.708479
11
2.16179
21
0.706461
0
LINE
8
BLACK
6
CONTINUOUS
10
2.16179
20
0.706461
11
2.1588
21
0.705862
0
LINE
8
BLACK
6
CONTINUOUS
10
2.1588
20
0.705862
11
2.1559
21
0.706841
0
LINE
8
BLACK
6
CONTINUOUS
10
2.1559
20
0.706841
11
2.12965
21
0.724342
0
LINE
8
BLACK
6
CONTINUOUS
10
2.12965
20
0.724342
11
2.1034
21
0.706841
0
LINE
8
BLACK
6
CONTINUOUS
10
2.1034
20
0.706841
11
2.1005
21
0.705862
0
LINE
8
BLACK
6
CONTINUOUS
10
2.1005
20
0.705862
11
2.0975
21
0.706461
0
LINE
8
BLACK
6
CONTINUOUS
10
2.0975
20
0.706461
11
2.09521
21
0.708479
0
LINE
8
BLACK
6
CONTINUOUS
10
2.09521
20
0.708479
11
2.09423
21
0.711375
0
LINE
8
BLACK
6
CONTINUOUS
10
2.09423
20
0.711375
11
2.09483
21
0.714372
0
LINE
8
BLACK
6
CONTINUOUS
10
2.09483
20
0.714372
11
2.09685
21
0.716669
0
LINE
8
BLACK
6
CONTINUOUS
10
2.09685
20
0.716669
11
2.119
21
0.73144
0
LINE
8
BLACK
6
CONTINUOUS
10
2.119
20
0.73144
11
2.09685
21
0.746211
0
LINE
8
BLACK
6
CONTINUOUS
10
2.09685
20
0.746211
11
2.09483
21
0.748507
0
LINE
8
BLACK
6
CONTINUOUS
10
2.09483
20
0.748507
11
2.09423
21
0.751505
0
LINE
8
BLACK
6
CONTINUOUS
10
2.09423
20
0.751505
11
2.09521
21
0.754401
0
LINE
8
BLACK
6
CONTINUOUS
10
2.09521
20
0.754401
11
2.0975
21
0.756419
0
LINE
8
BLACK
6
CONTINUOUS
10
2.0975
20
0.756419
11
2.1005
21
0.757018
0
LINE
8
BLACK
6
CONTINUOUS
10
2.1005
20
0.757018
11
2.1034
21
0.756039
0
LINE
8
BLACK
6
CONTINUOUS
10
2.1034
20
0.756039
11
2.12965
21
0.738537
0
LINE
8
BLACK
6
CONTINUOUS
10
2.12965
20
0.738537
11
2.1559
21
0.756039
0
LINE
8
BLACK
6
CONTINUOUS
10
2.1559
20
0.756039
11
2.1588
21
0.757018
0
LINE
8
BLACK
6
CONTINUOUS
10
2.1588
20
0.757018
11
2.16179
21
0.756419
0
LINE
8
BLACK
6
CONTINUOUS
10
2.09717
20
0.768508
11
2.09501
21
0.770669
0
LINE
8
BLACK
6
CONTINUOUS
10
2.09501
20
0.770669
11
2.09422
21
0.773622
0
LINE
8
BLACK
6
CONTINUOUS
10
2.09422
20
0.773622
11
2.09501
21
0.776575
0
LINE
8
BLACK
6
CONTINUOUS
10
2.09501
20
0.776575
11
2.09717
21
0.778736
0
LINE
8
BLACK
6
CONTINUOUS
10
2.09717
20
0.778736
11
2.10012
21
0.779528
0
LINE
8
BLACK
6
CONTINUOUS
10
2.10012
20
0.779528
11
2.15327
21
0.779528
0
LINE
8
BLACK
6
CONTINUOUS
10
2.15327
20
0.779528
11
2.15327
21
0.801744
0
LINE
8
BLACK
6
CONTINUOUS
10
2.15327
20
0.801744
11
2.15406
21
0.804696
0
LINE
8
BLACK
6
CONTINUOUS
10
2.15406
20
0.804696
11
2.15622
21
0.806858
0
LINE
8
BLACK
6
CONTINUOUS
10
2.15622
20
0.806858
11
2.15918
21
0.807649
0
LINE
8
BLACK
6
CONTINUOUS
10
2.15918
20
0.807649
11
2.16213
21
0.806858
0
LINE
8
BLACK
6
CONTINUOUS
10
2.16213
20
0.806858
11
2.16429
21
0.804696
0
LINE
8
BLACK
6
CONTINUOUS
10
2.16429
20
0.804696
11
2.16508
21
0.801744
0
LINE
8
BLACK
6
CONTINUOUS
10
2.16508
20
0.801744
11
2.16508
21
0.773622
0
LINE
8
BLACK
6
CONTINUOUS
10
2.16508
20
0.773622
11
2.16429
21
0.770669
0
LINE
8
BLACK
6
CONTINUOUS
10
2.16429
20
0.770669
11
2.16213
21
0.768508
0
LINE
8
BLACK
6
CONTINUOUS
10
2.16213
20
0.768508
11
2.15918
21
0.767717
0
LINE
8
BLACK
6
CONTINUOUS
10
2.15918
20
0.767717
11
2.10012
21
0.767717
0
LINE
8
BLACK
6
CONTINUOUS
10
2.10012
20
0.767717
11
2.09717
21
0.768508
0
LINE
8
BLACK
6
CONTINUOUS
10
2.10307
20
0.851852
11
2.10524
21
0.849691
0
LINE
8
BLACK
6
CONTINUOUS
10
2.10524
20
0.849691
11
2.10603
21
0.846738
0
LINE
8
BLACK
6
CONTINUOUS
10
2.10603
20
0.846738
11
2.10603
21
0.835771
0
LINE
8
BLACK
6
CONTINUOUS
10
2.10603
20
0.835771
11
2.15918
21
0.835771
0
LINE
8
BLACK
6
CONTINUOUS
10
2.15918
20
0.835771
11
2.16213
21
0.834979
0
LINE
8
BLACK
6
CONTINUOUS
10
2.16213
20
0.834979
11
2.16429
21
0.832818
0
LINE
8
BLACK
6
CONTINUOUS
10
2.16429
20
0.832818
11
2.16508
21
0.829865
0
LINE
8
BLACK
6
CONTINUOUS
10
2.16508
20
0.829865
11
2.16429
21
0.826912
0
LINE
8
BLACK
6
CONTINUOUS
10
2.16429
20
0.826912
11
2.16213
21
0.824751
0
LINE
8
BLACK
6
CONTINUOUS
10
2.16213
20
0.824751
11
2.15918
21
0.82396
0
LINE
8
BLACK
6
CONTINUOUS
10
2.15918
20
0.82396
11
2.10603
21
0.82396
0
LINE
8
BLACK
6
CONTINUOUS
10
2.10603
20
0.82396
11
2.10603
21
0.812992
0
LINE
8
BLACK
6
CONTINUOUS
10
2.10603
20
0.812992
11
2.10524
21
0.810039
0
LINE
8
BLACK
6
CONTINUOUS
10
2.10524
20
0.810039
11
2.10307
21
0.807878
0
LINE
8
BLACK
6
CONTINUOUS
10
2.10307
20
0.807878
11
2.10012
21
0.807087
0
LINE
8
BLACK
6
CONTINUOUS
10
2.10012
20
0.807087
11
2.09717
21
0.807878
0
LINE
8
BLACK
6
CONTINUOUS
10
2.09717
20
0.807878
11
2.09501
21
0.810039
0
LINE
8
BLACK
6
CONTINUOUS
10
2.09501
20
0.810039
11
2.09422
21
0.812992
0
LINE
8
BLACK
6
CONTINUOUS
10
2.09422
20
0.812992
11
2.09422
21
0.846738
0
LINE
8
BLACK
6
CONTINUOUS
10
2.09422
20
0.846738
11
2.09501
21
0.849691
0
LINE
8
BLACK
6
CONTINUOUS
10
2.09501
20
0.849691
11
2.09717
21
0.851852
0
LINE
8
BLACK
6
CONTINUOUS
10
2.09717
20
0.851852
11
2.10012
21
0.852643
0
LINE
8
BLACK
6
CONTINUOUS
10
2.10012
20
0.852643
11
2.10307
21
0.851852
0
LINE
8
BLACK
6
CONTINUOUS
10
0.192129
20
0.864349
11
0.19429
21
0.862188
0
LINE
8
BLACK
6
CONTINUOUS
10
0.19429
20
0.862188
11
0.195082
21
0.859235
0
LINE
8
BLACK
6
CONTINUOUS
10
0.195082
20
0.859235
11
0.19429
21
0.856282
0
LINE
8
BLACK
6
CONTINUOUS
10
0.19429
20
0.856282
11
0.192129
21
0.854121
0
LINE
8
BLACK
6
CONTINUOUS
10
0.192129
20
0.854121
11
0.189176
21
0.85333
0
LINE
8
BLACK
6
CONTINUOUS
10
0.189176
20
0.85333
11
0.15674
21
0.85333
0
LINE
8
BLACK
6
CONTINUOUS
10
0.15674
20
0.85333
11
0.174801
21
0.844902
0
LINE
8
BLACK
6
CONTINUOUS
10
0.174801
20
0.844902
11
0.175199
21
0.844567
0
LINE
8
BLACK
6
CONTINUOUS
10
0.175199
20
0.844567
11
0.175689
21
0.844389
0
LINE
8
BLACK
6
CONTINUOUS
10
0.175689
20
0.844389
11
0.176352
21
0.843599
0
LINE
8
BLACK
6
CONTINUOUS
10
0.176352
20
0.843599
11
0.177142
21
0.842936
0
LINE
8
BLACK
6
CONTINUOUS
10
0.177142
20
0.842936
11
0.17732
21
0.842446
0
LINE
8
BLACK
6
CONTINUOUS
10
0.17732
20
0.842446
11
0.177655
21
0.842047
0
LINE
8
BLACK
6
CONTINUOUS
10
0.177655
20
0.842047
11
0.177834
21
0.841032
0
LINE
8
BLACK
6
CONTINUOUS
10
0.177834
20
0.841032
11
0.178186
21
0.840063
0
LINE
8
BLACK
6
CONTINUOUS
10
0.178186
20
0.840063
11
0.178096
21
0.83955
0
LINE
8
BLACK
6
CONTINUOUS
10
0.178096
20
0.83955
11
0.178186
21
0.839037
0
LINE
8
BLACK
6
CONTINUOUS
10
0.178186
20
0.839037
11
0.177834
21
0.838068
0
LINE
8
BLACK
6
CONTINUOUS
10
0.177834
20
0.838068
11
0.177655
21
0.837053
0
LINE
8
BLACK
6
CONTINUOUS
10
0.177655
20
0.837053
11
0.17732
21
0.836654
0
LINE
8
BLACK
6
CONTINUOUS
10
0.17732
20
0.836654
11
0.177142
21
0.836164
0
LINE
8
BLACK
6
CONTINUOUS
10
0.177142
20
0.836164
11
0.176352
21
0.835501
0
LINE
8
BLACK
6
CONTINUOUS
10
0.176352
20
0.835501
11
0.175689
21
0.834712
0
LINE
8
BLACK
6
CONTINUOUS
10
0.175689
20
0.834712
11
0.175199
21
0.834534
0
LINE
8
BLACK
6
CONTINUOUS
10
0.175199
20
0.834534
11
0.174801
21
0.834199
0
LINE
8
BLACK
6
CONTINUOUS
10
0.174801
20
0.834199
11
0.15674
21
0.825771
0
LINE
8
BLACK
6
CONTINUOUS
10
0.15674
20
0.825771
11
0.189176
21
0.825771
0
LINE
8
BLACK
6
CONTINUOUS
10
0.189176
20
0.825771
11
0.192129
21
0.824979
0
LINE
8
BLACK
6
CONTINUOUS
10
0.192129
20
0.824979
11
0.19429
21
0.822818
0
LINE
8
BLACK
6
CONTINUOUS
10
0.19429
20
0.822818
11
0.195082
21
0.819865
0
LINE
8
BLACK
6
CONTINUOUS
10
0.195082
20
0.819865
11
0.19429
21
0.816912
0
LINE
8
BLACK
6
CONTINUOUS
10
0.19429
20
0.816912
11
0.192129
21
0.814751
0
LINE
8
BLACK
6
CONTINUOUS
10
0.192129
20
0.814751
11
0.189176
21
0.81396
0
LINE
8
BLACK
6
CONTINUOUS
10
0.189176
20
0.81396
11
0.130121
21
0.81396
0
LINE
8
BLACK
6
CONTINUOUS
10
0.130121
20
0.81396
11
0.129867
21
0.814028
0
LINE
8
BLACK
6
CONTINUOUS
10
0.129867
20
0.814028
11
0.129608
21
0.813982
0
LINE
8
BLACK
6
CONTINUOUS
10
0.129608
20
0.813982
11
0.128405
21
0.814419
0
LINE
8
BLACK
6
CONTINUOUS
10
0.128405
20
0.814419
11
0.127168
21
0.814751
0
LINE
8
BLACK
6
CONTINUOUS
10
0.127168
20
0.814751
11
0.126982
21
0.814937
0
LINE
8
BLACK
6
CONTINUOUS
10
0.126982
20
0.814937
11
0.126735
21
0.815027
0
LINE
8
BLACK
6
CONTINUOUS
10
0.126735
20
0.815027
11
0.125912
21
0.816007
0
LINE
8
BLACK
6
CONTINUOUS
10
0.125912
20
0.816007
11
0.125007
21
0.816912
0
LINE
8
BLACK
6
CONTINUOUS
10
0.125007
20
0.816912
11
0.124939
21
0.817166
0
LINE
8
BLACK
6
CONTINUOUS
10
0.124939
20
0.817166
11
0.124769
21
0.817368
0
LINE
8
BLACK
6
CONTINUOUS
10
0.124769
20
0.817368
11
0.124547
21
0.818628
0
LINE
8
BLACK
6
CONTINUOUS
10
0.124547
20
0.818628
11
0.124215
21
0.819865
0
LINE
8
BLACK
6
CONTINUOUS
10
0.124215
20
0.819865
11
0.124283
21
0.820119
0
LINE
8
BLACK
6
CONTINUOUS
10
0.124283
20
0.820119
11
0.124238
21
0.820378
0
LINE
8
BLACK
6
CONTINUOUS
10
0.124238
20
0.820378
11
0.124675
21
0.821581
0
LINE
8
BLACK
6
CONTINUOUS
10
0.124675
20
0.821581
11
0.125007
21
0.822818
0
LINE
8
BLACK
6
CONTINUOUS
10
0.125007
20
0.822818
11
0.125193
21
0.823004
0
LINE
8
BLACK
6
CONTINUOUS
10
0.125193
20
0.823004
11
0.125282
21
0.823251
0
LINE
8
BLACK
6
CONTINUOUS
10
0.125282
20
0.823251
11
0.126263
21
0.824074
0
LINE
8
BLACK
6
CONTINUOUS
10
0.126263
20
0.824074
11
0.127168
21
0.824979
0
LINE
8
BLACK
6
CONTINUOUS
10
0.127168
20
0.824979
11
0.127422
21
0.825047
0
LINE
8
BLACK
6
CONTINUOUS
10
0.127422
20
0.825047
11
0.127624
21
0.825216
0
LINE
8
BLACK
6
CONTINUOUS
10
0.127624
20
0.825216
11
0.158338
21
0.83955
0
LINE
8
BLACK
6
CONTINUOUS
10
0.158338
20
0.83955
11
0.127624
21
0.853884
0
LINE
8
BLACK
6
CONTINUOUS
10
0.127624
20
0.853884
11
0.127422
21
0.854053
0
LINE
8
BLACK
6
CONTINUOUS
10
0.127422
20
0.854053
11
0.127168
21
0.854121
0
LINE
8
BLACK
6
CONTINUOUS
10
0.127168
20
0.854121
11
0.126263
21
0.855026
0
LINE
8
BLACK
6
CONTINUOUS
10
0.126263
20
0.855026
11
0.125282
21
0.855849
0
LINE
8
BLACK
6
CONTINUOUS
10
0.125282
20
0.855849
11
0.125193
21
0.856096
0
LINE
8
BLACK
6
CONTINUOUS
10
0.125193
20
0.856096
11
0.125007
21
0.856282
0
LINE
8
BLACK
6
CONTINUOUS
10
0.125007
20
0.856282
11
0.124675
21
0.857519
0
LINE
8
BLACK
6
CONTINUOUS
10
0.124675
20
0.857519
11
0.124238
21
0.858722
0
LINE
8
BLACK
6
CONTINUOUS
10
0.124238
20
0.858722
11
0.124283
21
0.858981
0
LINE
8
BLACK
6
CONTINUOUS
10
0.124283
20
0.858981
11
0.124215
21
0.859235
0
LINE
8
BLACK
6
CONTINUOUS
10
0.124215
20
0.859235
11
0.124547
21
0.860472
0
LINE
8
BLACK
6
CONTINUOUS
10
0.124547
20
0.860472
11
0.124769
21
0.861732
0
LINE
8
BLACK
6
CONTINUOUS
10
0.124769
20
0.861732
11
0.124939
21
0.861934
0
LINE
8
BLACK
6
CONTINUOUS
10
0.124939
20
0.861934
11
0.125007
21
0.862188
0
LINE
8
BLACK
6
CONTINUOUS
10
0.125007
20
0.862188
11
0.125912
21
0.863093
0
LINE
8
BLACK
6
CONTINUOUS
10
0.125912
20
0.863093
11
0.126735
21
0.864074
0
LINE
8
BLACK
6
CONTINUOUS
10
0.126735
20
0.864074
11
0.126982
21
0.864163
0
LINE
8
BLACK
6
CONTINUOUS
10
0.126982
20
0.864163
11
0.127168
21
0.864349
0
LINE
8
BLACK
6
CONTINUOUS
10
0.127168
20
0.864349
11
0.128405
21
0.864681
0
LINE
8
BLACK
6
CONTINUOUS
10
0.128405
20
0.864681
11
0.129608
21
0.865118
0
LINE
8
BLACK
6
CONTINUOUS
10
0.129608
20
0.865118
11
0.129867
21
0.865073
0
LINE
8
BLACK
6
CONTINUOUS
10
0.129867
20
0.865073
11
0.130121
21
0.865141
0
LINE
8
BLACK
6
CONTINUOUS
10
0.130121
20
0.865141
11
0.189176
21
0.865141
0
LINE
8
BLACK
6
CONTINUOUS
10
0.189176
20
0.865141
11
0.192129
21
0.864349
0
LINE
8
BLACK
6
CONTINUOUS
10
2.14019
20
0.908698
11
2.14092
21
0.90871
0
LINE
8
BLACK
6
CONTINUOUS
10
2.14092
20
0.90871
11
2.15217
21
0.905898
0
LINE
8
BLACK
6
CONTINUOUS
10
2.15217
20
0.905898
11
2.15222
21
0.905873
0
LINE
8
BLACK
6
CONTINUOUS
10
2.15222
20
0.905873
11
2.15227
21
0.905873
0
LINE
8
BLACK
6
CONTINUOUS
10
2.15227
20
0.905873
11
2.15355
21
0.905132
0
LINE
8
BLACK
6
CONTINUOUS
10
2.15355
20
0.905132
11
2.15484
21
0.904414
0
LINE
8
BLACK
6
CONTINUOUS
10
2.15484
20
0.904414
11
2.15487
21
0.90437
0
LINE
8
BLACK
6
CONTINUOUS
10
2.15487
20
0.90437
11
2.15492
21
0.904345
0
LINE
8
BLACK
6
CONTINUOUS
10
2.15492
20
0.904345
11
2.16054
21
0.89872
0
LINE
8
BLACK
6
CONTINUOUS
10
2.16054
20
0.89872
11
2.16102
21
0.897897
0
LINE
8
BLACK
6
CONTINUOUS
10
2.16102
20
0.897897
11
2.16165
21
0.897185
0
LINE
8
BLACK
6
CONTINUOUS
10
2.16165
20
0.897185
11
2.16446
21
0.891561
0
LINE
8
BLACK
6
CONTINUOUS
10
2.16446
20
0.891561
11
2.16473
21
0.890231
0
LINE
8
BLACK
6
CONTINUOUS
10
2.16473
20
0.890231
11
2.16508
21
0.88892
0
LINE
8
BLACK
6
CONTINUOUS
10
2.16508
20
0.88892
11
2.16508
21
0.877672
0
LINE
8
BLACK
6
CONTINUOUS
10
2.16508
20
0.877672
11
2.16473
21
0.87636
0
LINE
8
BLACK
6
CONTINUOUS
10
2.16473
20
0.87636
11
2.16446
21
0.875031
0
LINE
8
BLACK
6
CONTINUOUS
10
2.16446
20
0.875031
11
2.16165
21
0.869406
0
LINE
8
BLACK
6
CONTINUOUS
10
2.16165
20
0.869406
11
2.16102
21
0.868695
0
LINE
8
BLACK
6
CONTINUOUS
10
2.16102
20
0.868695
11
2.16054
21
0.867871
0
LINE
8
BLACK
6
CONTINUOUS
10
2.16054
20
0.867871
11
2.15492
21
0.862247
0
LINE
8
BLACK
6
CONTINUOUS
10
2.15492
20
0.862247
11
2.15487
21
0.862221
0
LINE
8
BLACK
6
CONTINUOUS
10
2.15487
20
0.862221
11
2.15484
21
0.862177
0
LINE
8
BLACK
6
CONTINUOUS
10
2.15484
20
0.862177
11
2.15355
21
0.861459
0
LINE
8
BLACK
6
CONTINUOUS
10
2.15355
20
0.861459
11
2.15227
21
0.860719
0
LINE
8
BLACK
6
CONTINUOUS
10
2.15227
20
0.860719
11
2.15222
21
0.860719
0
LINE
8
BLACK
6
CONTINUOUS
10
2.15222
20
0.860719
11
2.15217
21
0.860694
0
LINE
8
BLACK
6
CONTINUOUS
10
2.15217
20
0.860694
11
2.14092
21
0.857882
0
LINE
8
BLACK
6
CONTINUOUS
10
2.14092
20
0.857882
11
2.14019
21
0.857894
0
LINE
8
BLACK
6
CONTINUOUS
10
2.14019
20
0.857894
11
2.13949
21
0.857705
0
LINE
8
BLACK
6
CONTINUOUS
10
2.13949
20
0.857705
11
2.11981
21
0.857705
0
LINE
8
BLACK
6
CONTINUOUS
10
2.11981
20
0.857705
11
2.1191
21
0.857894
0
LINE
8
BLACK
6
CONTINUOUS
10
2.1191
20
0.857894
11
2.11837
21
0.857882
0
LINE
8
BLACK
6
CONTINUOUS
10
2.11837
20
0.857882
11
2.10713
21
0.860694
0
LINE
8
BLACK
6
CONTINUOUS
10
2.10713
20
0.860694
11
2.10708
21
0.860719
0
LINE
8
BLACK
6
CONTINUOUS
10
2.10708
20
0.860719
11
2.10703
21
0.860719
0
LINE
8
BLACK
6
CONTINUOUS
10
2.10703
20
0.860719
11
2.10575
21
0.861459
0
LINE
8
BLACK
6
CONTINUOUS
10
2.10575
20
0.861459
11
2.10445
21
0.862177
0
LINE
8
BLACK
6
CONTINUOUS
10
2.10445
20
0.862177
11
2.10443
21
0.862221
0
LINE
8
BLACK
6
CONTINUOUS
10
2.10443
20
0.862221
11
2.10438
21
0.862247
0
LINE
8
BLACK
6
CONTINUOUS
10
2.10438
20
0.862247
11
2.09876
21
0.867871
0
LINE
8
BLACK
6
CONTINUOUS
10
2.09876
20
0.867871
11
2.09828
21
0.868695
0
LINE
8
BLACK
6
CONTINUOUS
10
2.09828
20
0.868695
11
2.09765
21
0.869406
0
LINE
8
BLACK
6
CONTINUOUS
10
2.09765
20
0.869406
11
2.09484
21
0.875031
0
LINE
8
BLACK
6
CONTINUOUS
10
2.09484
20
0.875031
11
2.09457
21
0.87636
0
LINE
8
BLACK
6
CONTINUOUS
10
2.09457
20
0.87636
11
2.09422
21
0.877672
0
LINE
8
BLACK
6
CONTINUOUS
10
2.09422
20
0.877672
11
2.09422
21
0.88892
0
LINE
8
BLACK
6
CONTINUOUS
10
2.09422
20
0.88892
11
2.09457
21
0.890231
0
LINE
8
BLACK
6
CONTINUOUS
10
2.09457
20
0.890231
11
2.09484
21
0.891561
0
LINE
8
BLACK
6
CONTINUOUS
10
2.09484
20
0.891561
11
2.09765
21
0.897185
0
LINE
8
BLACK
6
CONTINUOUS
10
2.09765
20
0.897185
11
2.09828
21
0.897897
0
LINE
8
BLACK
6
CONTINUOUS
10
2.09828
20
0.897897
11
2.09876
21
0.89872
0
LINE
8
BLACK
6
CONTINUOUS
10
2.09876
20
0.89872
11
2.10438
21
0.904345
0
LINE
8
BLACK
6
CONTINUOUS
10
2.10438
20
0.904345
11
2.10443
21
0.90437
0
LINE
8
BLACK
6
CONTINUOUS
10
2.10443
20
0.90437
11
2.10445
21
0.904414
0
LINE
8
BLACK
6
CONTINUOUS
10
2.10445
20
0.904414
11
2.10575
21
0.905133
0
LINE
8
BLACK
6
CONTINUOUS
10
2.10575
20
0.905133
11
2.10703
21
0.905873
0
LINE
8
BLACK
6
CONTINUOUS
10
2.10703
20
0.905873
11
2.10708
21
0.905873
0
LINE
8
BLACK
6
CONTINUOUS
10
2.10708
20
0.905873
11
2.10713
21
0.905898
0
LINE
8
BLACK
6
CONTINUOUS
10
2.10713
20
0.905898
11
2.11837
21
0.90871
0
LINE
8
BLACK
6
CONTINUOUS
10
2.11837
20
0.90871
11
2.1191
21
0.908698
0
LINE
8
BLACK
6
CONTINUOUS
10
2.1191
20
0.908698
11
2.11981
21
0.908886
0
LINE
8
BLACK
6
CONTINUOUS
10
2.11981
20
0.908886
11
2.13949
21
0.908886
0
LINE
8
BLACK
6
CONTINUOUS
10
2.13949
20
0.908886
11
2.14019
21
0.908698
0
LINE
8
BLACK
6
CONTINUOUS
10
2.12053
20
0.897075
11
2.11158
21
0.894836
0
LINE
8
BLACK
6
CONTINUOUS
10
2.11158
20
0.894836
11
2.10779
21
0.891046
0
LINE
8
BLACK
6
CONTINUOUS
10
2.10779
20
0.891046
11
2.10603
21
0.887526
0
LINE
8
BLACK
6
CONTINUOUS
10
2.10603
20
0.887526
11
2.10603
21
0.879066
0
LINE
8
BLACK
6
CONTINUOUS
10
2.10603
20
0.879066
11
2.10779
21
0.875545
0
LINE
8
BLACK
6
CONTINUOUS
10
2.10779
20
0.875545
11
2.11158
21
0.871755
0
LINE
8
BLACK
6
CONTINUOUS
10
2.11158
20
0.871755
11
2.12053
21
0.869516
0
LINE
8
BLACK
6
CONTINUOUS
10
2.12053
20
0.869516
11
2.13876
21
0.869516
0
LINE
8
BLACK
6
CONTINUOUS
10
2.13876
20
0.869516
11
2.14772
21
0.871755
0
LINE
8
BLACK
6
CONTINUOUS
10
2.14772
20
0.871755
11
2.15151
21
0.875545
0
LINE
8
BLACK
6
CONTINUOUS
10
2.15151
20
0.875545
11
2.15327
21
0.879066
0
LINE
8
BLACK
6
CONTINUOUS
10
2.15327
20
0.879066
11
2.15327
21
0.887526
0
LINE
8
BLACK
6
CONTINUOUS
10
2.15327
20
0.887526
11
2.15151
21
0.891046
0
LINE
8
BLACK
6
CONTINUOUS
10
2.15151
20
0.891046
11
2.14772
21
0.894836
0
LINE
8
BLACK
6
CONTINUOUS
10
2.14772
20
0.894836
11
2.13876
21
0.897075
0
LINE
8
BLACK
6
CONTINUOUS
10
2.13876
20
0.897075
11
2.12053
21
0.897075
0
LINE
8
BLACK
6
CONTINUOUS
10
2.2383
20
0.897392
11
2.23925
21
0.897335
0
LINE
8
BLACK
6
CONTINUOUS
10
2.23925
20
0.897335
11
2.24769
21
0.894523
0
LINE
8
BLACK
6
CONTINUOUS
10
2.24769
20
0.894523
11
2.24882
21
0.893775
0
LINE
8
BLACK
6
CONTINUOUS
10
2.24882
20
0.893775
11
2.24999
21
0.893096
0
LINE
8
BLACK
6
CONTINUOUS
10
2.24999
20
0.893096
11
2.25562
21
0.887472
0
LINE
8
BLACK
6
CONTINUOUS
10
2.25562
20
0.887472
11
2.2563
21
0.886296
0
LINE
8
BLACK
6
CONTINUOUS
10
2.2563
20
0.886296
11
2.25705
21
0.885163
0
LINE
8
BLACK
6
CONTINUOUS
10
2.25705
20
0.885163
11
2.25986
21
0.876727
0
LINE
8
BLACK
6
CONTINUOUS
10
2.25986
20
0.876727
11
2.25991
21
0.875778
0
LINE
8
BLACK
6
CONTINUOUS
10
2.25991
20
0.875778
11
2.26016
21
0.874859
0
LINE
8
BLACK
6
CONTINUOUS
10
2.26016
20
0.874859
11
2.26016
21
0.869235
0
LINE
8
BLACK
6
CONTINUOUS
10
2.26016
20
0.869235
11
2.25937
21
0.866282
0
LINE
8
BLACK
6
CONTINUOUS
10
2.25937
20
0.866282
11
2.25721
21
0.864121
0
LINE
8
BLACK
6
CONTINUOUS
10
2.25721
20
0.864121
11
2.25425
21
0.86333
0
LINE
8
BLACK
6
CONTINUOUS
10
2.25425
20
0.86333
11
2.2513
21
0.864121
0
LINE
8
BLACK
6
CONTINUOUS
10
2.2513
20
0.864121
11
2.24914
21
0.866282
0
LINE
8
BLACK
6
CONTINUOUS
10
2.24914
20
0.866282
11
2.24835
21
0.869235
0
LINE
8
BLACK
6
CONTINUOUS
10
2.24835
20
0.869235
11
2.24835
21
0.873901
0
LINE
8
BLACK
6
CONTINUOUS
10
2.24835
20
0.873901
11
2.24628
21
0.880106
0
LINE
8
BLACK
6
CONTINUOUS
10
2.24628
20
0.880106
11
2.24263
21
0.883759
0
LINE
8
BLACK
6
CONTINUOUS
10
2.24263
20
0.883759
11
2.23642
21
0.885827
0
LINE
8
BLACK
6
CONTINUOUS
10
2.23642
20
0.885827
11
2.1952
21
0.885827
0
LINE
8
BLACK
6
CONTINUOUS
10
2.1952
20
0.885827
11
2.19225
21
0.886618
0
LINE
8
BLACK
6
CONTINUOUS
10
2.19225
20
0.886618
11
2.19009
21
0.88878
0
LINE
8
BLACK
6
CONTINUOUS
10
2.19009
20
0.88878
11
2.18929
21
0.891732
0
LINE
8
BLACK
6
CONTINUOUS
10
2.18929
20
0.891732
11
2.19009
21
0.894685
0
LINE
8
BLACK
6
CONTINUOUS
10
2.19009
20
0.894685
11
2.19225
21
0.896847
0
LINE
8
BLACK
6
CONTINUOUS
10
2.19225
20
0.896847
11
2.1952
21
0.897638
0
LINE
8
BLACK
6
CONTINUOUS
10
2.1952
20
0.897638
11
2.23738
21
0.897638
0
LINE
8
BLACK
6
CONTINUOUS
10
2.23738
20
0.897638
11
2.2383
21
0.897392
0
LINE
8
BLACK
6
CONTINUOUS
10
0.242991
20
0.928168
11
0.24394
21
0.928111
0
LINE
8
BLACK
6
CONTINUOUS
10
0.24394
20
0.928111
11
0.252376
21
0.925299
0
LINE
8
BLACK
6
CONTINUOUS
10
0.252376
20
0.925299
11
0.253509
21
0.924551
0
LINE
8
BLACK
6
CONTINUOUS
10
0.253509
20
0.924551
11
0.254685
21
0.923872
0
LINE
8
BLACK
6
CONTINUOUS
10
0.254685
20
0.923872
11
0.278349
21
0.900208
0
LINE
8
BLACK
6
CONTINUOUS
10
0.278349
20
0.900208
11
0.278349
21
0.922508
0
LINE
8
BLACK
6
CONTINUOUS
10
0.278349
20
0.922508
11
0.27914
21
0.925461
0
LINE
8
BLACK
6
CONTINUOUS
10
0.27914
20
0.925461
11
0.281302
21
0.927623
0
LINE
8
BLACK
6
CONTINUOUS
10
0.281302
20
0.927623
11
0.284255
21
0.928414
0
LINE
8
BLACK
6
CONTINUOUS
10
0.284255
20
0.928414
11
0.287208
21
0.927623
0
LINE
8
BLACK
6
CONTINUOUS
10
0.287208
20
0.927623
11
0.289369
21
0.925461
0
LINE
8
BLACK
6
CONTINUOUS
10
0.289369
20
0.925461
11
0.29016
21
0.922508
0
LINE
8
BLACK
6
CONTINUOUS
10
0.29016
20
0.922508
11
0.29016
21
0.885951
0
LINE
8
BLACK
6
CONTINUOUS
10
0.29016
20
0.885951
11
0.289959
21
0.8852
0
LINE
8
BLACK
6
CONTINUOUS
10
0.289959
20
0.8852
11
0.289959
21
0.884422
0
LINE
8
BLACK
6
CONTINUOUS
10
0.289959
20
0.884422
11
0.28957
21
0.883749
0
LINE
8
BLACK
6
CONTINUOUS
10
0.28957
20
0.883749
11
0.289369
21
0.882998
0
LINE
8
BLACK
6
CONTINUOUS
10
0.289369
20
0.882998
11
0.288819
21
0.882448
0
LINE
8
BLACK
6
CONTINUOUS
10
0.288819
20
0.882448
11
0.288431
21
0.881775
0
LINE
8
BLACK
6
CONTINUOUS
10
0.288431
20
0.881775
11
0.287757
21
0.881386
0
LINE
8
BLACK
6
CONTINUOUS
10
0.287757
20
0.881386
11
0.287208
21
0.880836
0
LINE
8
BLACK
6
CONTINUOUS
10
0.287208
20
0.880836
11
0.286457
21
0.880635
0
LINE
8
BLACK
6
CONTINUOUS
10
0.286457
20
0.880635
11
0.285783
21
0.880246
0
LINE
8
BLACK
6
CONTINUOUS
10
0.285783
20
0.880246
11
0.285006
21
0.880246
0
LINE
8
BLACK
6
CONTINUOUS
10
0.285006
20
0.880246
11
0.284255
21
0.880045
0
LINE
8
BLACK
6
CONTINUOUS
10
0.284255
20
0.880045
11
0.283504
21
0.880246
0
LINE
8
BLACK
6
CONTINUOUS
10
0.283504
20
0.880246
11
0.282726
21
0.880246
0
LINE
8
BLACK
6
CONTINUOUS
10
0.282726
20
0.880246
11
0.282053
21
0.880635
0
LINE
8
BLACK
6
CONTINUOUS
10
0.282053
20
0.880635
11
0.281302
21
0.880836
0
LINE
8
BLACK
6
CONTINUOUS
10
0.281302
20
0.880836
11
0.280752
21
0.881386
0
LINE
8
BLACK
6
CONTINUOUS
10
0.280752
20
0.881386
11
0.280079
21
0.881775
0
LINE
8
BLACK
6
CONTINUOUS
10
0.280079
20
0.881775
11
0.247319
21
0.914535
0
LINE
8
BLACK
6
CONTINUOUS
10
0.247319
20
0.914535
11
0.241114
21
0.916603
0
LINE
8
BLACK
6
CONTINUOUS
10
0.241114
20
0.916603
11
0.237842
21
0.916603
0
LINE
8
BLACK
6
CONTINUOUS
10
0.237842
20
0.916603
11
0.234322
21
0.914843
0
LINE
8
BLACK
6
CONTINUOUS
10
0.234322
20
0.914843
11
0.232865
21
0.913386
0
LINE
8
BLACK
6
CONTINUOUS
10
0.232865
20
0.913386
11
0.231105
21
0.909866
0
LINE
8
BLACK
6
CONTINUOUS
10
0.231105
20
0.909866
11
0.231105
21
0.898593
0
LINE
8
BLACK
6
CONTINUOUS
10
0.231105
20
0.898593
11
0.232865
21
0.895073
0
LINE
8
BLACK
6
CONTINUOUS
10
0.232865
20
0.895073
11
0.235
21
0.892939
0
LINE
8
BLACK
6
CONTINUOUS
10
0.235
20
0.892939
11
0.236528
21
0.890291
0
LINE
8
BLACK
6
CONTINUOUS
10
0.236528
20
0.890291
11
0.236528
21
0.887234
0
LINE
8
BLACK
6
CONTINUOUS
10
0.236528
20
0.887234
11
0.235
21
0.884587
0
LINE
8
BLACK
6
CONTINUOUS
10
0.235
20
0.884587
11
0.232352
21
0.883058
0
LINE
8
BLACK
6
CONTINUOUS
10
0.232352
20
0.883058
11
0.229295
21
0.883058
0
LINE
8
BLACK
6
CONTINUOUS
10
0.229295
20
0.883058
11
0.226648
21
0.884587
0
LINE
8
BLACK
6
CONTINUOUS
10
0.226648
20
0.884587
11
0.223836
21
0.887399
0
LINE
8
BLACK
6
CONTINUOUS
10
0.223836
20
0.887399
11
0.223361
21
0.888222
0
LINE
8
BLACK
6
CONTINUOUS
10
0.223361
20
0.888222
11
0.22273
21
0.888934
0
LINE
8
BLACK
6
CONTINUOUS
10
0.22273
20
0.888934
11
0.219918
21
0.894558
0
LINE
8
BLACK
6
CONTINUOUS
10
0.219918
20
0.894558
11
0.219645
21
0.895888
0
LINE
8
BLACK
6
CONTINUOUS
10
0.219645
20
0.895888
11
0.219294
21
0.897199
0
LINE
8
BLACK
6
CONTINUOUS
10
0.219294
20
0.897199
11
0.219294
21
0.91126
0
LINE
8
BLACK
6
CONTINUOUS
10
0.219294
20
0.91126
11
0.219645
21
0.912571
0
LINE
8
BLACK
6
CONTINUOUS
10
0.219645
20
0.912571
11
0.219918
21
0.913901
0
LINE
8
BLACK
6
CONTINUOUS
10
0.219918
20
0.913901
11
0.22273
21
0.919525
0
LINE
8
BLACK
6
CONTINUOUS
10
0.22273
20
0.919525
11
0.223361
21
0.920237
0
LINE
8
BLACK
6
CONTINUOUS
10
0.223361
20
0.920237
11
0.223836
21
0.92106
0
LINE
8
BLACK
6
CONTINUOUS
10
0.223836
20
0.92106
11
0.226648
21
0.923872
0
LINE
8
BLACK
6
CONTINUOUS
10
0.226648
20
0.923872
11
0.227472
21
0.924348
0
LINE
8
BLACK
6
CONTINUOUS
10
0.227472
20
0.924348
11
0.228183
21
0.924978
0
LINE
8
BLACK
6
CONTINUOUS
10
0.228183
20
0.924978
11
0.233807
21
0.927791
0
LINE
8
BLACK
6
CONTINUOUS
10
0.233807
20
0.927791
11
0.235137
21
0.928063
0
LINE
8
BLACK
6
CONTINUOUS
10
0.235137
20
0.928063
11
0.236448
21
0.928414
0
LINE
8
BLACK
6
CONTINUOUS
10
0.236448
20
0.928414
11
0.242073
21
0.928414
0
LINE
8
BLACK
6
CONTINUOUS
10
0.242073
20
0.928414
11
0.242991
21
0.928168
0
LINE
8
BLACK
6
CONTINUOUS
10
0.127168
20
0.882242
11
0.125007
21
0.884404
0
LINE
8
BLACK
6
CONTINUOUS
10
0.125007
20
0.884404
11
0.124215
21
0.887357
0
LINE
8
BLACK
6
CONTINUOUS
10
0.124215
20
0.887357
11
0.125007
21
0.890309
0
LINE
8
BLACK
6
CONTINUOUS
10
0.125007
20
0.890309
11
0.127168
21
0.892471
0
LINE
8
BLACK
6
CONTINUOUS
10
0.127168
20
0.892471
11
0.130121
21
0.893262
0
LINE
8
BLACK
6
CONTINUOUS
10
0.130121
20
0.893262
11
0.183271
21
0.893262
0
LINE
8
BLACK
6
CONTINUOUS
10
0.183271
20
0.893262
11
0.183271
21
0.915478
0
LINE
8
BLACK
6
CONTINUOUS
10
0.183271
20
0.915478
11
0.184062
21
0.918431
0
LINE
8
BLACK
6
CONTINUOUS
10
0.184062
20
0.918431
11
0.186223
21
0.920592
0
LINE
8
BLACK
6
CONTINUOUS
10
0.186223
20
0.920592
11
0.188043
21
0.92108
0
LINE
8
BLACK
6
CONTINUOUS
10
0.188043
20
0.92108
11
0.187309
21
0.921124
0
LINE
8
BLACK
6
CONTINUOUS
10
0.187309
20
0.921124
11
0.128253
21
0.940809
0
LINE
8
BLACK
6
CONTINUOUS
10
0.128253
20
0.940809
11
0.127264
21
0.941463
0
LINE
8
BLACK
6
CONTINUOUS
10
0.127264
20
0.941463
11
0.126203
21
0.941993
0
LINE
8
BLACK
6
CONTINUOUS
10
0.126203
20
0.941993
11
0.126004
21
0.942295
0
LINE
8
BLACK
6
CONTINUOUS
10
0.126004
20
0.942295
11
0.125702
21
0.942494
0
LINE
8
BLACK
6
CONTINUOUS
10
0.125702
20
0.942494
11
0.125172
21
0.943555
0
LINE
8
BLACK
6
CONTINUOUS
10
0.125172
20
0.943555
11
0.124518
21
0.944544
0
LINE
8
BLACK
6
CONTINUOUS
10
0.124518
20
0.944544
11
0.124497
21
0.944905
0
LINE
8
BLACK
6
CONTINUOUS
10
0.124497
20
0.944905
11
0.124335
21
0.945228
0
LINE
8
BLACK
6
CONTINUOUS
10
0.124335
20
0.945228
11
0.124406
21
0.946412
0
LINE
8
BLACK
6
CONTINUOUS
10
0.124406
20
0.946412
11
0.124335
21
0.947596
0
LINE
8
BLACK
6
CONTINUOUS
10
0.124335
20
0.947596
11
0.124497
21
0.947919
0
LINE
8
BLACK
6
CONTINUOUS
10
0.124497
20
0.947919
11
0.124518
21
0.948279
0
LINE
8
BLACK
6
CONTINUOUS
10
0.124518
20
0.948279
11
0.125172
21
0.949269
0
LINE
8
BLACK
6
CONTINUOUS
10
0.125172
20
0.949269
11
0.125702
21
0.95033
0
LINE
8
BLACK
6
CONTINUOUS
10
0.125702
20
0.95033
11
0.126004
21
0.950529
0
LINE
8
BLACK
6
CONTINUOUS
10
0.126004
20
0.950529
11
0.126203
21
0.95083
0
LINE
8
BLACK
6
CONTINUOUS
10
0.126203
20
0.95083
11
0.127264
21
0.951361
0
LINE
8
BLACK
6
CONTINUOUS
10
0.127264
20
0.951361
11
0.128253
21
0.952014
0
LINE
8
BLACK
6
CONTINUOUS
10
0.128253
20
0.952014
11
0.187309
21
0.971699
0
LINE
8
BLACK
6
CONTINUOUS
10
0.187309
20
0.971699
11
0.19036
21
0.971882
0
LINE
8
BLACK
6
CONTINUOUS
10
0.19036
20
0.971882
11
0.193094
21
0.970515
0
LINE
8
BLACK
6
CONTINUOUS
10
0.193094
20
0.970515
11
0.194779
21
0.967964
0
LINE
8
BLACK
6
CONTINUOUS
10
0.194779
20
0.967964
11
0.194962
21
0.964913
0
LINE
8
BLACK
6
CONTINUOUS
10
0.194962
20
0.964913
11
0.193595
21
0.962179
0
LINE
8
BLACK
6
CONTINUOUS
10
0.193595
20
0.962179
11
0.191044
21
0.960494
0
LINE
8
BLACK
6
CONTINUOUS
10
0.191044
20
0.960494
11
0.178209
21
0.956216
0
LINE
8
BLACK
6
CONTINUOUS
10
0.178209
20
0.956216
11
0.178209
21
0.936607
0
LINE
8
BLACK
6
CONTINUOUS
10
0.178209
20
0.936607
11
0.191044
21
0.932329
0
LINE
8
BLACK
6
CONTINUOUS
10
0.191044
20
0.932329
11
0.193595
21
0.930645
0
LINE
8
BLACK
6
CONTINUOUS
10
0.193595
20
0.930645
11
0.194962
21
0.927911
0
LINE
8
BLACK
6
CONTINUOUS
10
0.194962
20
0.927911
11
0.194779
21
0.924859
0
LINE
8
BLACK
6
CONTINUOUS
10
0.194779
20
0.924859
11
0.193094
21
0.922308
0
LINE
8
BLACK
6
CONTINUOUS
10
0.193094
20
0.922308
11
0.190523
21
0.921023
0
LINE
8
BLACK
6
CONTINUOUS
10
0.190523
20
0.921023
11
0.192129
21
0.920592
0
LINE
8
BLACK
6
CONTINUOUS
10
0.192129
20
0.920592
11
0.19429
21
0.918431
0
LINE
8
BLACK
6
CONTINUOUS
10
0.19429
20
0.918431
11
0.195082
21
0.915478
0
LINE
8
BLACK
6
CONTINUOUS
10
0.195082
20
0.915478
11
0.195082
21
0.887357
0
LINE
8
BLACK
6
CONTINUOUS
10
0.195082
20
0.887357
11
0.19429
21
0.884404
0
LINE
8
BLACK
6
CONTINUOUS
10
0.19429
20
0.884404
11
0.192129
21
0.882242
0
LINE
8
BLACK
6
CONTINUOUS
10
0.192129
20
0.882242
11
0.189176
21
0.881451
0
LINE
8
BLACK
6
CONTINUOUS
10
0.189176
20
0.881451
11
0.130121
21
0.881451
0
LINE
8
BLACK
6
CONTINUOUS
10
0.130121
20
0.881451
11
0.127168
21
0.882242
0
LINE
8
BLACK
6
CONTINUOUS
10
0.148796
20
0.946412
11
0.166398
21
0.940544
0
LINE
8
BLACK
6
CONTINUOUS
10
0.166398
20
0.940544
11
0.166398
21
0.952279
0
LINE
8
BLACK
6
CONTINUOUS
10
0.166398
20
0.952279
11
0.148796
21
0.946412
0
LINE
8
BLACK
6
CONTINUOUS
10
2.25817
20
0.955206
11
2.25986
21
0.952655
0
LINE
8
BLACK
6
CONTINUOUS
10
2.25986
20
0.952655
11
2.26004
21
0.949603
0
LINE
8
BLACK
6
CONTINUOUS
10
2.26004
20
0.949603
11
2.25867
21
0.946869
0
LINE
8
BLACK
6
CONTINUOUS
10
2.25867
20
0.946869
11
2.25612
21
0.945185
0
LINE
8
BLACK
6
CONTINUOUS
10
2.25612
20
0.945185
11
2.24329
21
0.940907
0
LINE
8
BLACK
6
CONTINUOUS
10
2.24329
20
0.940907
11
2.24329
21
0.921298
0
LINE
8
BLACK
6
CONTINUOUS
10
2.24329
20
0.921298
11
2.25612
21
0.91702
0
LINE
8
BLACK
6
CONTINUOUS
10
2.25612
20
0.91702
11
2.25867
21
0.915335
0
LINE
8
BLACK
6
CONTINUOUS
10
2.25867
20
0.915335
11
2.26004
21
0.912601
0
LINE
8
BLACK
6
CONTINUOUS
10
2.26004
20
0.912601
11
2.25986
21
0.90955
0
LINE
8
BLACK
6
CONTINUOUS
10
2.25986
20
0.90955
11
2.25817
21
0.906999
0
LINE
8
BLACK
6
CONTINUOUS
10
2.25817
20
0.906999
11
2.25544
21
0.905632
0
LINE
8
BLACK
6
CONTINUOUS
10
2.25544
20
0.905632
11
2.25239
21
0.905815
0
LINE
8
BLACK
6
CONTINUOUS
10
2.25239
20
0.905815
11
2.19333
21
0.9255
0
LINE
8
BLACK
6
CONTINUOUS
10
2.19333
20
0.9255
11
2.19234
21
0.926153
0
LINE
8
BLACK
6
CONTINUOUS
10
2.19234
20
0.926153
11
2.19128
21
0.926684
0
LINE
8
BLACK
6
CONTINUOUS
10
2.19128
20
0.926684
11
2.19108
21
0.926985
0
LINE
8
BLACK
6
CONTINUOUS
10
2.19108
20
0.926985
11
2.19078
21
0.927184
0
LINE
8
BLACK
6
CONTINUOUS
10
2.19078
20
0.927184
11
2.19025
21
0.928245
0
LINE
8
BLACK
6
CONTINUOUS
10
2.19025
20
0.928245
11
2.1896
21
0.929235
0
LINE
8
BLACK
6
CONTINUOUS
10
2.1896
20
0.929235
11
2.18958
21
0.929595
0
LINE
8
BLACK
6
CONTINUOUS
10
2.18958
20
0.929595
11
2.18941
21
0.929918
0
LINE
8
BLACK
6
CONTINUOUS
10
2.18941
20
0.929918
11
2.18949
21
0.931102
0
LINE
8
BLACK
6
CONTINUOUS
10
2.18949
20
0.931102
11
2.18941
21
0.932286
0
LINE
8
BLACK
6
CONTINUOUS
10
2.18941
20
0.932286
11
2.18958
21
0.932609
0
LINE
8
BLACK
6
CONTINUOUS
10
2.18958
20
0.932609
11
2.1896
21
0.93297
0
LINE
8
BLACK
6
CONTINUOUS
10
2.1896
20
0.93297
11
2.19025
21
0.93396
0
LINE
8
BLACK
6
CONTINUOUS
10
2.19025
20
0.93396
11
2.19078
21
0.935021
0
LINE
8
BLACK
6
CONTINUOUS
10
2.19078
20
0.935021
11
2.19108
21
0.935219
0
LINE
8
BLACK
6
CONTINUOUS
10
2.19108
20
0.935219
11
2.19128
21
0.935521
0
LINE
8
BLACK
6
CONTINUOUS
10
2.19128
20
0.935521
11
2.19234
21
0.936051
0
LINE
8
BLACK
6
CONTINUOUS
10
2.19234
20
0.936051
11
2.19333
21
0.936705
0
LINE
8
BLACK
6
CONTINUOUS
10
2.19333
20
0.936705
11
2.25239
21
0.95639
0
LINE
8
BLACK
6
CONTINUOUS
10
2.25239
20
0.95639
11
2.25544
21
0.956573
0
LINE
8
BLACK
6
CONTINUOUS
10
2.25544
20
0.956573
11
2.25817
21
0.955206
0
LINE
8
BLACK
6
CONTINUOUS
10
2.21387
20
0.931102
11
2.23148
21
0.925235
0
LINE
8
BLACK
6
CONTINUOUS
10
2.23148
20
0.925235
11
2.23148
21
0.93697
0
LINE
8
BLACK
6
CONTINUOUS
10
2.23148
20
0.93697
11
2.21387
21
0.931102
0
LINE
8
BLACK
6
CONTINUOUS
10
2.16213
20
0.964338
11
2.16429
21
0.962177
0
LINE
8
BLACK
6
CONTINUOUS
10
2.16429
20
0.962177
11
2.16508
21
0.959224
0
LINE
8
BLACK
6
CONTINUOUS
10
2.16508
20
0.959224
11
2.16508
21
0.925478
0
LINE
8
BLACK
6
CONTINUOUS
10
2.16508
20
0.925478
11
2.16429
21
0.922525
0
LINE
8
BLACK
6
CONTINUOUS
10
2.16429
20
0.922525
11
2.16213
21
0.920364
0
LINE
8
BLACK
6
CONTINUOUS
10
2.16213
20
0.920364
11
2.15918
21
0.919573
0
LINE
8
BLACK
6
CONTINUOUS
10
2.15918
20
0.919573
11
2.15622
21
0.920364
0
LINE
8
BLACK
6
CONTINUOUS
10
2.15622
20
0.920364
11
2.15406
21
0.922525
0
LINE
8
BLACK
6
CONTINUOUS
10
2.15406
20
0.922525
11
2.15327
21
0.925478
0
LINE
8
BLACK
6
CONTINUOUS
10
2.15327
20
0.925478
11
2.15327
21
0.936445
0
LINE
8
BLACK
6
CONTINUOUS
10
2.15327
20
0.936445
11
2.11719
21
0.936445
0
LINE
8
BLACK
6
CONTINUOUS
10
2.11719
20
0.936445
11
2.11836
21
0.935278
0
LINE
8
BLACK
6
CONTINUOUS
10
2.11836
20
0.935278
11
2.11883
21
0.934455
0
LINE
8
BLACK
6
CONTINUOUS
10
2.11883
20
0.934455
11
2.11946
21
0.933743
0
LINE
8
BLACK
6
CONTINUOUS
10
2.11946
20
0.933743
11
2.12228
21
0.928119
0
LINE
8
BLACK
6
CONTINUOUS
10
2.12228
20
0.928119
11
2.12289
21
0.925124
0
LINE
8
BLACK
6
CONTINUOUS
10
2.12289
20
0.925124
11
2.12192
21
0.922224
0
LINE
8
BLACK
6
CONTINUOUS
10
2.12192
20
0.922224
11
2.11963
21
0.920196
0
LINE
8
BLACK
6
CONTINUOUS
10
2.11963
20
0.920196
11
2.11664
21
0.919583
0
LINE
8
BLACK
6
CONTINUOUS
10
2.11664
20
0.919583
11
2.11374
21
0.92055
0
LINE
8
BLACK
6
CONTINUOUS
10
2.11374
20
0.92055
11
2.11171
21
0.922837
0
LINE
8
BLACK
6
CONTINUOUS
10
2.11171
20
0.922837
11
2.10933
21
0.927604
0
LINE
8
BLACK
6
CONTINUOUS
10
2.10933
20
0.927604
11
2.1048
21
0.932137
0
LINE
8
BLACK
6
CONTINUOUS
10
2.1048
20
0.932137
11
2.09685
21
0.937437
0
LINE
8
BLACK
6
CONTINUOUS
10
2.09685
20
0.937437
11
2.09596
21
0.938447
0
LINE
8
BLACK
6
CONTINUOUS
10
2.09596
20
0.938447
11
2.09501
21
0.939398
0
LINE
8
BLACK
6
CONTINUOUS
10
2.09501
20
0.939398
11
2.09496
21
0.939587
0
LINE
8
BLACK
6
CONTINUOUS
10
2.09496
20
0.939587
11
2.09483
21
0.939734
0
LINE
8
BLACK
6
CONTINUOUS
10
2.09483
20
0.939734
11
2.09456
21
0.941052
0
LINE
8
BLACK
6
CONTINUOUS
10
2.09456
20
0.941052
11
2.09422
21
0.942351
0
LINE
8
BLACK
6
CONTINUOUS
10
2.09422
20
0.942351
11
2.09427
21
0.94254
0
LINE
8
BLACK
6
CONTINUOUS
10
2.09427
20
0.94254
11
2.09423
21
0.942731
0
LINE
8
BLACK
6
CONTINUOUS
10
2.09423
20
0.942731
11
2.09466
21
0.944005
0
LINE
8
BLACK
6
CONTINUOUS
10
2.09466
20
0.944005
11
2.09501
21
0.945304
0
LINE
8
BLACK
6
CONTINUOUS
10
2.09501
20
0.945304
11
2.09514
21
0.945442
0
LINE
8
BLACK
6
CONTINUOUS
10
2.09514
20
0.945442
11
2.09521
21
0.945627
0
LINE
8
BLACK
6
CONTINUOUS
10
2.09521
20
0.945627
11
2.09622
21
0.946514
0
LINE
8
BLACK
6
CONTINUOUS
10
2.09622
20
0.946514
11
2.09717
21
0.947465
0
LINE
8
BLACK
6
CONTINUOUS
10
2.09717
20
0.947465
11
2.09736
21
0.947516
0
LINE
8
BLACK
6
CONTINUOUS
10
2.09736
20
0.947516
11
2.0975
21
0.947645
0
LINE
8
BLACK
6
CONTINUOUS
10
2.0975
20
0.947645
11
2.09882
21
0.947908
0
LINE
8
BLACK
6
CONTINUOUS
10
2.09882
20
0.947908
11
2.10012
21
0.948256
0
LINE
8
BLACK
6
CONTINUOUS
10
2.10012
20
0.948256
11
2.15327
21
0.948256
0
LINE
8
BLACK
6
CONTINUOUS
10
2.15327
20
0.948256
11
2.15327
21
0.959224
0
LINE
8
BLACK
6
CONTINUOUS
10
2.15327
20
0.959224
11
2.15406
21
0.962177
0
LINE
8
BLACK
6
CONTINUOUS
10
2.15406
20
0.962177
11
2.15622
21
0.964338
0
LINE
8
BLACK
6
CONTINUOUS
10
2.15622
20
0.964338
11
2.15918
21
0.965129
0
LINE
8
BLACK
6
CONTINUOUS
10
2.15918
20
0.965129
11
2.16213
21
0.964338
0
LINE
8
BLACK
6
CONTINUOUS
10
0.262461
20
0.984468
11
0.26319
21
0.984481
0
LINE
8
BLACK
6
CONTINUOUS
10
0.26319
20
0.984481
11
0.274438
21
0.981668
0
LINE
8
BLACK
6
CONTINUOUS
10
0.274438
20
0.981668
11
0.275008
21
0.981352
0
LINE
8
BLACK
6
CONTINUOUS
10
0.275008
20
0.981352
11
0.275647
21
0.981221
0
LINE
8
BLACK
6
CONTINUOUS
10
0.275647
20
0.981221
11
0.281271
21
0.978409
0
LINE
8
BLACK
6
CONTINUOUS
10
0.281271
20
0.978409
11
0.281983
21
0.977778
0
LINE
8
BLACK
6
CONTINUOUS
10
0.281983
20
0.977778
11
0.282806
21
0.977303
0
LINE
8
BLACK
6
CONTINUOUS
10
0.282806
20
0.977303
11
0.285618
21
0.974491
0
LINE
8
BLACK
6
CONTINUOUS
10
0.285618
20
0.974491
11
0.286094
21
0.973667
0
LINE
8
BLACK
6
CONTINUOUS
10
0.286094
20
0.973667
11
0.286725
21
0.972956
0
LINE
8
BLACK
6
CONTINUOUS
10
0.286725
20
0.972956
11
0.289537
21
0.967332
0
LINE
8
BLACK
6
CONTINUOUS
10
0.289537
20
0.967332
11
0.289809
21
0.966002
0
LINE
8
BLACK
6
CONTINUOUS
10
0.289809
20
0.966002
11
0.29016
21
0.964691
0
LINE
8
BLACK
6
CONTINUOUS
10
0.29016
20
0.964691
11
0.29016
21
0.959066
0
LINE
8
BLACK
6
CONTINUOUS
10
0.29016
20
0.959066
11
0.289809
21
0.957755
0
LINE
8
BLACK
6
CONTINUOUS
10
0.289809
20
0.957755
11
0.289537
21
0.956425
0
LINE
8
BLACK
6
CONTINUOUS
10
0.289537
20
0.956425
11
0.286725
21
0.950801
0
LINE
8
BLACK
6
CONTINUOUS
10
0.286725
20
0.950801
11
0.286094
21
0.95009
0
LINE
8
BLACK
6
CONTINUOUS
10
0.286094
20
0.95009
11
0.285618
21
0.949266
0
LINE
8
BLACK
6
CONTINUOUS
10
0.285618
20
0.949266
11
0.282806
21
0.946454
0
LINE
8
BLACK
6
CONTINUOUS
10
0.282806
20
0.946454
11
0.281983
21
0.945979
0
LINE
8
BLACK
6
CONTINUOUS
10
0.281983
20
0.945979
11
0.281271
21
0.945348
0
LINE
8
BLACK
6
CONTINUOUS
10
0.281271
20
0.945348
11
0.275647
21
0.942536
0
LINE
8
BLACK
6
CONTINUOUS
10
0.275647
20
0.942536
11
0.275008
21
0.942405
0
LINE
8
BLACK
6
CONTINUOUS
10
0.275008
20
0.942405
11
0.274438
21
0.942089
0
LINE
8
BLACK
6
CONTINUOUS
10
0.274438
20
0.942089
11
0.26319
21
0.939276
0
LINE
8
BLACK
6
CONTINUOUS
10
0.26319
20
0.939276
11
0.262461
21
0.939289
0
LINE
8
BLACK
6
CONTINUOUS
10
0.262461
20
0.939289
11
0.261758
21
0.9391
0
LINE
8
BLACK
6
CONTINUOUS
10
0.261758
20
0.9391
11
0.247697
21
0.9391
0
LINE
8
BLACK
6
CONTINUOUS
10
0.247697
20
0.9391
11
0.246993
21
0.939289
0
LINE
8
BLACK
6
CONTINUOUS
10
0.246993
20
0.939289
11
0.246265
21
0.939276
0
LINE
8
BLACK
6
CONTINUOUS
10
0.246265
20
0.939276
11
0.235016
21
0.942089
0
LINE
8
BLACK
6
CONTINUOUS
10
0.235016
20
0.942089
11
0.234446
21
0.942405
0
LINE
8
BLACK
6
CONTINUOUS
10
0.234446
20
0.942405
11
0.233807
21
0.942536
0
LINE
8
BLACK
6
CONTINUOUS
10
0.233807
20
0.942536
11
0.228183
21
0.945348
0
LINE
8
BLACK
6
CONTINUOUS
10
0.228183
20
0.945348
11
0.227471
21
0.945979
0
LINE
8
BLACK
6
CONTINUOUS
10
0.227471
20
0.945979
11
0.226648
21
0.946454
0
LINE
8
BLACK
6
CONTINUOUS
10
0.226648
20
0.946454
11
0.223836
21
0.949266
0
LINE
8
BLACK
6
CONTINUOUS
10
0.223836
20
0.949266
11
0.223361
21
0.95009
0
LINE
8
BLACK
6
CONTINUOUS
10
0.223361
20
0.95009
11
0.22273
21
0.950801
0
LINE
8
BLACK
6
CONTINUOUS
10
0.22273
20
0.950801
11
0.219918
21
0.956425
0
LINE
8
BLACK
6
CONTINUOUS
10
0.219918
20
0.956425
11
0.219645
21
0.957755
0
LINE
8
BLACK
6
CONTINUOUS
10
0.219645
20
0.957755
11
0.219294
21
0.959066
0
LINE
8
BLACK
6
CONTINUOUS
10
0.219294
20
0.959066
11
0.219294
21
0.964691
0
LINE
8
BLACK
6
CONTINUOUS
10
0.219294
20
0.964691
11
0.219645
21
0.966002
0
LINE
8
BLACK
6
CONTINUOUS
10
0.219645
20
0.966002
11
0.219918
21
0.967332
0
LINE
8
BLACK
6
CONTINUOUS
10
0.219918
20
0.967332
11
0.22273
21
0.972956
0
LINE
8
BLACK
6
CONTINUOUS
10
0.22273
20
0.972956
11
0.223361
21
0.973667
0
LINE
8
BLACK
6
CONTINUOUS
10
0.223361
20
0.973667
11
0.223836
21
0.974491
0
LINE
8
BLACK
6
CONTINUOUS
10
0.223836
20
0.974491
11
0.226648
21
0.977303
0
LINE
8
BLACK
6
CONTINUOUS
10
0.226648
20
0.977303
11
0.227472
21
0.977778
0
LINE
8
BLACK
6
CONTINUOUS
10
0.227472
20
0.977778
11
0.228183
21
0.978409
0
LINE
8
BLACK
6
CONTINUOUS
10
0.228183
20
0.978409
11
0.233807
21
0.981221
0
LINE
8
BLACK
6
CONTINUOUS
10
0.233807
20
0.981221
11
0.234446
21
0.981352
0
LINE
8
BLACK
6
CONTINUOUS
10
0.234446
20
0.981352
11
0.235016
21
0.981668
0
LINE
8
BLACK
6
CONTINUOUS
10
0.235016
20
0.981668
11
0.246265
21
0.984481
0
LINE
8
BLACK
6
CONTINUOUS
10
0.246265
20
0.984481
11
0.246993
21
0.984468
0
LINE
8
BLACK
6
CONTINUOUS
10
0.246993
20
0.984468
11
0.247697
21
0.984657
0
LINE
8
BLACK
6
CONTINUOUS
10
0.247697
20
0.984657
11
0.261758
21
0.984657
0
LINE
8
BLACK
6
CONTINUOUS
10
0.261758
20
0.984657
11
0.262461
21
0.984468
0
LINE
8
BLACK
6
CONTINUOUS
10
0.248424
20
0.972846
11
0.238509
21
0.970367
0
LINE
8
BLACK
6
CONTINUOUS
10
0.238509
20
0.970367
11
0.234322
21
0.968274
0
LINE
8
BLACK
6
CONTINUOUS
10
0.234322
20
0.968274
11
0.232865
21
0.966817
0
LINE
8
BLACK
6
CONTINUOUS
10
0.232865
20
0.966817
11
0.231105
21
0.963297
0
LINE
8
BLACK
6
CONTINUOUS
10
0.231105
20
0.963297
11
0.231105
21
0.96046
0
LINE
8
BLACK
6
CONTINUOUS
10
0.231105
20
0.96046
11
0.232865
21
0.95694
0
LINE
8
BLACK
6
CONTINUOUS
10
0.232865
20
0.95694
11
0.234322
21
0.955483
0
LINE
8
BLACK
6
CONTINUOUS
10
0.234322
20
0.955483
11
0.238509
21
0.95339
0
LINE
8
BLACK
6
CONTINUOUS
10
0.238509
20
0.95339
11
0.248424
21
0.950911
0
LINE
8
BLACK
6
CONTINUOUS
10
0.248424
20
0.950911
11
0.261031
21
0.950911
0
LINE
8
BLACK
6
CONTINUOUS
10
0.261031
20
0.950911
11
0.270945
21
0.95339
0
LINE
8
BLACK
6
CONTINUOUS
10
0.270945
20
0.95339
11
0.275132
21
0.955483
0
LINE
8
BLACK
6
CONTINUOUS
10
0.275132
20
0.955483
11
0.276589
21
0.95694
0
LINE
8
BLACK
6
CONTINUOUS
10
0.276589
20
0.95694
11
0.278349
21
0.96046
0
LINE
8
BLACK
6
CONTINUOUS
10
0.278349
20
0.96046
11
0.278349
21
0.963297
0
LINE
8
BLACK
6
CONTINUOUS
10
0.278349
20
0.963297
11
0.276589
21
0.966817
0
LINE
8
BLACK
6
CONTINUOUS
10
0.276589
20
0.966817
11
0.275132
21
0.968274
0
LINE
8
BLACK
6
CONTINUOUS
10
0.275132
20
0.968274
11
0.270945
21
0.970367
0
LINE
8
BLACK
6
CONTINUOUS
10
0.270945
20
0.970367
11
0.261031
21
0.972846
0
LINE
8
BLACK
6
CONTINUOUS
10
0.261031
20
0.972846
11
0.248424
21
0.972846
0
LINE
8
BLACK
6
CONTINUOUS
10
2.205
20
1.00839
11
2.20653
21
1.00575
0
LINE
8
BLACK
6
CONTINUOUS
10
2.20653
20
1.00575
11
2.20653
21
1.00269
0
LINE
8
BLACK
6
CONTINUOUS
10
2.20653
20
1.00269
11
2.205
21
1.00004
0
LINE
8
BLACK
6
CONTINUOUS
10
2.205
20
1.00004
11
2.20317
21
0.998216
0
LINE
8
BLACK
6
CONTINUOUS
10
2.20317
20
0.998216
11
2.20111
21
0.992011
0
LINE
8
BLACK
6
CONTINUOUS
10
2.20111
20
0.992011
11
2.20111
21
0.988304
0
LINE
8
BLACK
6
CONTINUOUS
10
2.20111
20
0.988304
11
2.20317
21
0.982099
0
LINE
8
BLACK
6
CONTINUOUS
10
2.20317
20
0.982099
11
2.20713
21
0.978138
0
LINE
8
BLACK
6
CONTINUOUS
10
2.20713
20
0.978138
11
2.21132
21
0.976044
0
LINE
8
BLACK
6
CONTINUOUS
10
2.21132
20
0.976044
11
2.22124
21
0.973566
0
LINE
8
BLACK
6
CONTINUOUS
10
2.22124
20
0.973566
11
2.22822
21
0.973566
0
LINE
8
BLACK
6
CONTINUOUS
10
2.22822
20
0.973566
11
2.23813
21
0.976044
0
LINE
8
BLACK
6
CONTINUOUS
10
2.23813
20
0.976044
11
2.24232
21
0.978138
0
LINE
8
BLACK
6
CONTINUOUS
10
2.24232
20
0.978138
11
2.24628
21
0.982099
0
LINE
8
BLACK
6
CONTINUOUS
10
2.24628
20
0.982099
11
2.24835
21
0.988304
0
LINE
8
BLACK
6
CONTINUOUS
10
2.24835
20
0.988304
11
2.24835
21
0.992011
0
LINE
8
BLACK
6
CONTINUOUS
10
2.24835
20
0.992011
11
2.24628
21
0.998216
0
LINE
8
BLACK
6
CONTINUOUS
10
2.24628
20
0.998216
11
2.24445
21
1.00004
0
LINE
8
BLACK
6
CONTINUOUS
10
2.24445
20
1.00004
11
2.24293
21
1.00269
0
LINE
8
BLACK
6
CONTINUOUS
10
2.24293
20
1.00269
11
2.24293
21
1.00575
0
LINE
8
BLACK
6
CONTINUOUS
10
2.24293
20
1.00575
11
2.24445
21
1.00839
0
LINE
8
BLACK
6
CONTINUOUS
10
2.24445
20
1.00839
11
2.2471
21
1.00992
0
LINE
8
BLACK
6
CONTINUOUS
10
2.2471
20
1.00992
11
2.25016
21
1.00992
0
LINE
8
BLACK
6
CONTINUOUS
10
2.25016
20
1.00992
11
2.25281
21
1.00839
0
LINE
8
BLACK
6
CONTINUOUS
10
2.25281
20
1.00839
11
2.25562
21
1.00558
0
LINE
8
BLACK
6
CONTINUOUS
10
2.25562
20
1.00558
11
2.2563
21
1.00441
0
LINE
8
BLACK
6
CONTINUOUS
10
2.2563
20
1.00441
11
2.25705
21
1.00327
0
LINE
8
BLACK
6
CONTINUOUS
10
2.25705
20
1.00327
11
2.25986
21
0.994837
0
LINE
8
BLACK
6
CONTINUOUS
10
2.25986
20
0.994837
11
2.25991
21
0.993888
0
LINE
8
BLACK
6
CONTINUOUS
10
2.25991
20
0.993888
11
2.26016
21
0.99297
0
LINE
8
BLACK
6
CONTINUOUS
10
2.26016
20
0.99297
11
2.26016
21
0.987345
0
LINE
8
BLACK
6
CONTINUOUS
10
2.26016
20
0.987345
11
2.25991
21
0.986427
0
LINE
8
BLACK
6
CONTINUOUS
10
2.25991
20
0.986427
11
2.25986
21
0.985478
0
LINE
8
BLACK
6
CONTINUOUS
10
2.25986
20
0.985478
11
2.25705
21
0.977041
0
LINE
8
BLACK
6
CONTINUOUS
10
2.25705
20
0.977041
11
2.2563
21
0.975909
0
LINE
8
BLACK
6
CONTINUOUS
10
2.2563
20
0.975909
11
2.25562
21
0.974733
0
LINE
8
BLACK
6
CONTINUOUS
10
2.25562
20
0.974733
11
2.24999
21
0.969109
0
LINE
8
BLACK
6
CONTINUOUS
10
2.24999
20
0.969109
11
2.24917
21
0.968633
0
LINE
8
BLACK
6
CONTINUOUS
10
2.24917
20
0.968633
11
2.24846
21
0.968003
0
LINE
8
BLACK
6
CONTINUOUS
10
2.24846
20
0.968003
11
2.24284
21
0.96519
0
LINE
8
BLACK
6
CONTINUOUS
10
2.24284
20
0.96519
11
2.2422
21
0.96506
0
LINE
8
BLACK
6
CONTINUOUS
10
2.2422
20
0.96506
11
2.24163
21
0.964743
0
LINE
8
BLACK
6
CONTINUOUS
10
2.24163
20
0.964743
11
2.23038
21
0.961931
0
LINE
8
BLACK
6
CONTINUOUS
10
2.23038
20
0.961931
11
2.22965
21
0.961943
0
LINE
8
BLACK
6
CONTINUOUS
10
2.22965
20
0.961943
11
2.22895
21
0.961755
0
LINE
8
BLACK
6
CONTINUOUS
10
2.22895
20
0.961755
11
2.22051
21
0.961755
0
LINE
8
BLACK
6
CONTINUOUS
10
2.22051
20
0.961755
11
2.21981
21
0.961943
0
LINE
8
BLACK
6
CONTINUOUS
10
2.21981
20
0.961943
11
2.21908
21
0.961931
0
LINE
8
BLACK
6
CONTINUOUS
10
2.21908
20
0.961931
11
2.20783
21
0.964743
0
LINE
8
BLACK
6
CONTINUOUS
10
2.20783
20
0.964743
11
2.20726
21
0.96506
0
LINE
8
BLACK
6
CONTINUOUS
10
2.20726
20
0.96506
11
2.20662
21
0.96519
0
LINE
8
BLACK
6
CONTINUOUS
10
2.20662
20
0.96519
11
2.201
21
0.968003
0
LINE
8
BLACK
6
CONTINUOUS
10
2.201
20
0.968003
11
2.20028
21
0.968633
0
LINE
8
BLACK
6
CONTINUOUS
10
2.20028
20
0.968633
11
2.19946
21
0.969109
0
LINE
8
BLACK
6
CONTINUOUS
10
2.19946
20
0.969109
11
2.19384
21
0.974733
0
LINE
8
BLACK
6
CONTINUOUS
10
2.19384
20
0.974733
11
2.19316
21
0.975909
0
LINE
8
BLACK
6
CONTINUOUS
10
2.19316
20
0.975909
11
2.19241
21
0.977041
0
LINE
8
BLACK
6
CONTINUOUS
10
2.19241
20
0.977041
11
2.1896
21
0.985478
0
LINE
8
BLACK
6
CONTINUOUS
10
2.1896
20
0.985478
11
2.18954
21
0.986427
0
LINE
8
BLACK
6
CONTINUOUS
10
2.18954
20
0.986427
11
2.18929
21
0.987345
0
LINE
8
BLACK
6
CONTINUOUS
10
2.18929
20
0.987345
11
2.18929
21
0.99297
0
LINE
8
BLACK
6
CONTINUOUS
10
2.18929
20
0.99297
11
2.18954
21
0.993888
0
LINE
8
BLACK
6
CONTINUOUS
10
2.18954
20
0.993888
11
2.1896
21
0.994837
0
LINE
8
BLACK
6
CONTINUOUS
10
2.1896
20
0.994837
11
2.19241
21
1.00327
0
LINE
8
BLACK
6
CONTINUOUS
10
2.19241
20
1.00327
11
2.19316
21
1.00441
0
LINE
8
BLACK
6
CONTINUOUS
10
2.19316
20
1.00441
11
2.19384
21
1.00558
0
LINE
8
BLACK
6
CONTINUOUS
10
2.19384
20
1.00558
11
2.19665
21
1.00839
0
LINE
8
BLACK
6
CONTINUOUS
10
2.19665
20
1.00839
11
2.1993
21
1.00992
0
LINE
8
BLACK
6
CONTINUOUS
10
2.1993
20
1.00992
11
2.20235
21
1.00992
0
LINE
8
BLACK
6
CONTINUOUS
10
2.20235
20
1.00992
11
2.205
21
1.00839
0
LINE
8
BLACK
6
CONTINUOUS
10
2.11549
20
1.02102
11
2.11682
21
1.02075
0
LINE
8
BLACK
6
CONTINUOUS
10
2.11682
20
1.02075
11
2.12245
21
1.01794
0
LINE
8
BLACK
6
CONTINUOUS
10
2.12245
20
1.01794
11
2.12316
21
1.01731
0
LINE
8
BLACK
6
CONTINUOUS
10
2.12316
20
1.01731
11
2.12398
21
1.01683
0
LINE
8
BLACK
6
CONTINUOUS
10
2.12398
20
1.01683
11
2.12543
21
1.01538
0
LINE
8
BLACK
6
CONTINUOUS
10
2.12543
20
1.01538
11
2.12688
21
1.01683
0
LINE
8
BLACK
6
CONTINUOUS
10
2.12688
20
1.01683
11
2.1277
21
1.01731
0
LINE
8
BLACK
6
CONTINUOUS
10
2.1277
20
1.01731
11
2.12841
21
1.01794
0
LINE
8
BLACK
6
CONTINUOUS
10
2.12841
20
1.01794
11
2.13404
21
1.02075
0
LINE
8
BLACK
6
CONTINUOUS
10
2.13404
20
1.02075
11
2.13537
21
1.02102
0
LINE
8
BLACK
6
CONTINUOUS
10
2.13537
20
1.02102
11
2.13668
21
1.02137
0
LINE
8
BLACK
6
CONTINUOUS
10
2.13668
20
1.02137
11
2.14793
21
1.02137
0
LINE
8
BLACK
6
CONTINUOUS
10
2.14793
20
1.02137
11
2.14924
21
1.02102
0
LINE
8
BLACK
6
CONTINUOUS
10
2.14924
20
1.02102
11
2.15057
21
1.02075
0
LINE
8
BLACK
6
CONTINUOUS
10
2.15057
20
1.02075
11
2.15619
21
1.01794
0
LINE
8
BLACK
6
CONTINUOUS
10
2.15619
20
1.01794
11
2.1569
21
1.01731
0
LINE
8
BLACK
6
CONTINUOUS
10
2.1569
20
1.01731
11
2.15773
21
1.01683
0
LINE
8
BLACK
6
CONTINUOUS
10
2.15773
20
1.01683
11
2.16054
21
1.01402
0
LINE
8
BLACK
6
CONTINUOUS
10
2.16054
20
1.01402
11
2.16102
21
1.01319
0
LINE
8
BLACK
6
CONTINUOUS
10
2.16102
20
1.01319
11
2.16165
21
1.01248
0
LINE
8
BLACK
6
CONTINUOUS
10
2.16165
20
1.01248
11
2.16446
21
1.00686
0
LINE
8
BLACK
6
CONTINUOUS
10
2.16446
20
1.00686
11
2.16473
21
1.00553
0
LINE
8
BLACK
6
CONTINUOUS
10
2.16473
20
1.00553
11
2.16508
21
1.00422
0
LINE
8
BLACK
6
CONTINUOUS
10
2.16508
20
1.00422
11
2.16508
21
0.99297
0
LINE
8
BLACK
6
CONTINUOUS
10
2.16508
20
0.99297
11
2.16473
21
0.991659
0
LINE
8
BLACK
6
CONTINUOUS
10
2.16473
20
0.991659
11
2.16446
21
0.990329
0
LINE
8
BLACK
6
CONTINUOUS
10
2.16446
20
0.990329
11
2.16165
21
0.984704
0
LINE
8
BLACK
6
CONTINUOUS
10
2.16165
20
0.984704
11
2.16102
21
0.983993
0
LINE
8
BLACK
6
CONTINUOUS
10
2.16102
20
0.983993
11
2.16054
21
0.98317
0
LINE
8
BLACK
6
CONTINUOUS
10
2.16054
20
0.98317
11
2.15773
21
0.980357
0
LINE
8
BLACK
6
CONTINUOUS
10
2.15773
20
0.980357
11
2.1569
21
0.979882
0
LINE
8
BLACK
6
CONTINUOUS
10
2.1569
20
0.979882
11
2.15619
21
0.979251
0
LINE
8
BLACK
6
CONTINUOUS
10
2.15619
20
0.979251
11
2.15057
21
0.976439
0
LINE
8
BLACK
6
CONTINUOUS
10
2.15057
20
0.976439
11
2.14924
21
0.976167
0
LINE
8
BLACK
6
CONTINUOUS
10
2.14924
20
0.976167
11
2.14793
21
0.975816
0
LINE
8
BLACK
6
CONTINUOUS
10
2.14793
20
0.975816
11
2.13668
21
0.975816
0
LINE
8
BLACK
6
CONTINUOUS
10
2.13668
20
0.975816
11
2.13537
21
0.976167
0
LINE
8
BLACK
6
CONTINUOUS
10
2.13537
20
0.976167
11
2.13404
21
0.976439
0
LINE
8
BLACK
6
CONTINUOUS
10
2.13404
20
0.976439
11
2.12841
21
0.979251
0
LINE
8
BLACK
6
CONTINUOUS
10
2.12841
20
0.979251
11
2.1277
21
0.979882
0
LINE
8
BLACK
6
CONTINUOUS
10
2.1277
20
0.979882
11
2.12688
21
0.980357
0
LINE
8
BLACK
6
CONTINUOUS
10
2.12688
20
0.980357
11
2.12543
21
0.981806
0
LINE
8
BLACK
6
CONTINUOUS
10
2.12543
20
0.981806
11
2.12398
21
0.980357
0
LINE
8
BLACK
6
CONTINUOUS
10
2.12398
20
0.980357
11
2.12316
21
0.979882
0
LINE
8
BLACK
6
CONTINUOUS
10
2.12316
20
0.979882
11
2.12245
21
0.979251
0
LINE
8
BLACK
6
CONTINUOUS
10
2.12245
20
0.979251
11
2.11682
21
0.976439
0
LINE
8
BLACK
6
CONTINUOUS
10
2.11682
20
0.976439
11
2.11549
21
0.976167
0
LINE
8
BLACK
6
CONTINUOUS
10
2.11549
20
0.976167
11
2.11418
21
0.975816
0
LINE
8
BLACK
6
CONTINUOUS
10
2.11418
20
0.975816
11
2.11137
21
0.975816
0
LINE
8
BLACK
6
CONTINUOUS
10
2.11137
20
0.975816
11
2.11006
21
0.976167
0
LINE
8
BLACK
6
CONTINUOUS
10
2.11006
20
0.976167
11
2.10873
21
0.976439
0
LINE
8
BLACK
6
CONTINUOUS
10
2.10873
20
0.976439
11
2.1031
21
0.979251
0
LINE
8
BLACK
6
CONTINUOUS
10
2.1031
20
0.979251
11
2.10239
21
0.979882
0
LINE
8
BLACK
6
CONTINUOUS
10
2.10239
20
0.979882
11
2.10157
21
0.980357
0
LINE
8
BLACK
6
CONTINUOUS
10
2.10157
20
0.980357
11
2.09876
21
0.98317
0
LINE
8
BLACK
6
CONTINUOUS
10
2.09876
20
0.98317
11
2.09828
21
0.983993
0
LINE
8
BLACK
6
CONTINUOUS
10
2.09828
20
0.983993
11
2.09765
21
0.984704
0
LINE
8
BLACK
6
CONTINUOUS
10
2.09765
20
0.984704
11
2.09484
21
0.990329
0
LINE
8
BLACK
6
CONTINUOUS
10
2.09484
20
0.990329
11
2.09457
21
0.991659
0
LINE
8
BLACK
6
CONTINUOUS
10
2.09457
20
0.991659
11
2.09422
21
0.99297
0
LINE
8
BLACK
6
CONTINUOUS
10
2.09422
20
0.99297
11
2.09422
21
1.00422
0
LINE
8
BLACK
6
CONTINUOUS
10
2.09422
20
1.00422
11
2.09457
21
1.00553
0
LINE
8
BLACK
6
CONTINUOUS
10
2.09457
20
1.00553
11
2.09484
21
1.00686
0
LINE
8
BLACK
6
CONTINUOUS
10
2.09484
20
1.00686
11
2.09765
21
1.01248
0
LINE
8
BLACK
6
CONTINUOUS
10
2.09765
20
1.01248
11
2.09828
21
1.01319
0
LINE
8
BLACK
6
CONTINUOUS
10
2.09828
20
1.01319
11
2.09876
21
1.01402
0
LINE
8
BLACK
6
CONTINUOUS
10
2.09876
20
1.01402
11
2.10157
21
1.01683
0
LINE
8
BLACK
6
CONTINUOUS
10
2.10157
20
1.01683
11
2.10239
21
1.01731
0
LINE
8
BLACK
6
CONTINUOUS
10
2.10239
20
1.01731
11
2.1031
21
1.01794
0
LINE
8
BLACK
6
CONTINUOUS
10
2.1031
20
1.01794
11
2.10873
21
1.02075
0
LINE
8
BLACK
6
CONTINUOUS
10
2.10873
20
1.02075
11
2.11006
21
1.02102
0
LINE
8
BLACK
6
CONTINUOUS
10
2.11006
20
1.02102
11
2.11137
21
1.02137
0
LINE
8
BLACK
6
CONTINUOUS
10
2.11137
20
1.02137
11
2.11418
21
1.02137
0
LINE
8
BLACK
6
CONTINUOUS
10
2.11418
20
1.02137
11
2.11549
21
1.02102
0
LINE
8
BLACK
6
CONTINUOUS
10
2.13807
20
1.00956
11
2.13455
21
1.0078
0
LINE
8
BLACK
6
CONTINUOUS
10
2.13455
20
1.0078
11
2.1331
21
1.00634
0
LINE
8
BLACK
6
CONTINUOUS
10
2.1331
20
1.00634
11
2.13134
21
1.00282
0
LINE
8
BLACK
6
CONTINUOUS
10
2.13134
20
1.00282
11
2.13134
21
0.994364
0
LINE
8
BLACK
6
CONTINUOUS
10
2.13134
20
0.994364
11
2.1331
21
0.990844
0
LINE
8
BLACK
6
CONTINUOUS
10
2.1331
20
0.990844
11
2.13455
21
0.989387
0
LINE
8
BLACK
6
CONTINUOUS
10
2.13455
20
0.989387
11
2.13807
21
0.987627
0
LINE
8
BLACK
6
CONTINUOUS
10
2.13807
20
0.987627
11
2.14653
21
0.987627
0
LINE
8
BLACK
6
CONTINUOUS
10
2.14653
20
0.987627
11
2.15005
21
0.989387
0
LINE
8
BLACK
6
CONTINUOUS
10
2.15005
20
0.989387
11
2.15151
21
0.990844
0
LINE
8
BLACK
6
CONTINUOUS
10
2.15151
20
0.990844
11
2.15327
21
0.994364
0
LINE
8
BLACK
6
CONTINUOUS
10
2.15327
20
0.994364
11
2.15327
21
1.00282
0
LINE
8
BLACK
6
CONTINUOUS
10
2.15327
20
1.00282
11
2.15151
21
1.00634
0
LINE
8
BLACK
6
CONTINUOUS
10
2.15151
20
1.00634
11
2.15005
21
1.0078
0
LINE
8
BLACK
6
CONTINUOUS
10
2.15005
20
1.0078
11
2.14653
21
1.00956
0
LINE
8
BLACK
6
CONTINUOUS
10
2.14653
20
1.00956
11
2.13807
21
1.00956
0
LINE
8
BLACK
6
CONTINUOUS
10
2.11276
20
1.00956
11
2.10924
21
1.0078
0
LINE
8
BLACK
6
CONTINUOUS
10
2.10924
20
1.0078
11
2.10779
21
1.00634
0
LINE
8
BLACK
6
CONTINUOUS
10
2.10779
20
1.00634
11
2.10603
21
1.00282
0
LINE
8
BLACK
6
CONTINUOUS
10
2.10603
20
1.00282
11
2.10603
21
0.994364
0
LINE
8
BLACK
6
CONTINUOUS
10
2.10603
20
0.994364
11
2.10779
21
0.990844
0
LINE
8
BLACK
6
CONTINUOUS
10
2.10779
20
0.990844
11
2.10924
21
0.989387
0
LINE
8
BLACK
6
CONTINUOUS
10
2.10924
20
0.989387
11
2.11276
21
0.987627
0
LINE
8
BLACK
6
CONTINUOUS
10
2.11276
20
0.987627
11
2.11279
21
0.987627
0
LINE
8
BLACK
6
CONTINUOUS
10
2.11279
20
0.987627
11
2.11631
21
0.989387
0
LINE
8
BLACK
6
CONTINUOUS
10
2.11631
20
0.989387
11
2.11776
21
0.990844
0
LINE
8
BLACK
6
CONTINUOUS
10
2.11776
20
0.990844
11
2.11952
21
0.994364
0
LINE
8
BLACK
6
CONTINUOUS
10
2.11952
20
0.994364
11
2.11952
21
1.00282
0
LINE
8
BLACK
6
CONTINUOUS
10
2.11952
20
1.00282
11
2.11776
21
1.00634
0
LINE
8
BLACK
6
CONTINUOUS
10
2.11776
20
1.00634
11
2.11631
21
1.0078
0
LINE
8
BLACK
6
CONTINUOUS
10
2.11631
20
1.0078
11
2.11279
21
1.00956
0
LINE
8
BLACK
6
CONTINUOUS
10
2.11279
20
1.00956
11
2.11276
21
1.00956
0
LINE
8
BLACK
6
CONTINUOUS
10
0.127168
20
0.980667
11
0.125007
21
0.982829
0
LINE
8
BLACK
6
CONTINUOUS
10
0.125007
20
0.982829
11
0.124215
21
0.985782
0
LINE
8
BLACK
6
CONTINUOUS
10
0.124215
20
0.985782
11
0.124215
21
1.00547
0
LINE
8
BLACK
6
CONTINUOUS
10
0.124215
20
1.00547
11
0.124567
21
1.00678
0
LINE
8
BLACK
6
CONTINUOUS
10
0.124567
20
1.00678
11
0.124839
21
1.00811
0
LINE
8
BLACK
6
CONTINUOUS
10
0.124839
20
1.00811
11
0.127651
21
1.01373
0
LINE
8
BLACK
6
CONTINUOUS
10
0.127651
20
1.01373
11
0.128282
21
1.01444
0
LINE
8
BLACK
6
CONTINUOUS
10
0.128282
20
1.01444
11
0.128757
21
1.01527
0
LINE
8
BLACK
6
CONTINUOUS
10
0.128757
20
1.01527
11
0.131569
21
1.01808
0
LINE
8
BLACK
6
CONTINUOUS
10
0.131569
20
1.01808
11
0.132393
21
1.01855
0
LINE
8
BLACK
6
CONTINUOUS
10
0.132393
20
1.01855
11
0.133104
21
1.01919
0
LINE
8
BLACK
6
CONTINUOUS
10
0.133104
20
1.01919
11
0.138728
21
1.022
0
LINE
8
BLACK
6
CONTINUOUS
10
0.138728
20
1.022
11
0.140058
21
1.02227
0
LINE
8
BLACK
6
CONTINUOUS
10
0.140058
20
1.02227
11
0.141369
21
1.02262
0
LINE
8
BLACK
6
CONTINUOUS
10
0.141369
20
1.02262
11
0.146994
21
1.02262
0
LINE
8
BLACK
6
CONTINUOUS
10
0.146994
20
1.02262
11
0.148305
21
1.02227
0
LINE
8
BLACK
6
CONTINUOUS
10
0.148305
20
1.02227
11
0.149635
21
1.022
0
LINE
8
BLACK
6
CONTINUOUS
10
0.149635
20
1.022
11
0.155259
21
1.01919
0
LINE
8
BLACK
6
CONTINUOUS
10
0.155259
20
1.01919
11
0.155971
21
1.01855
0
LINE
8
BLACK
6
CONTINUOUS
10
0.155971
20
1.01855
11
0.156794
21
1.01808
0
LINE
8
BLACK
6
CONTINUOUS
10
0.156794
20
1.01808
11
0.156848
21
1.01803
0
LINE
8
BLACK
6
CONTINUOUS
10
0.156848
20
1.01803
11
0.156879
21
1.01808
0
LINE
8
BLACK
6
CONTINUOUS
10
0.156879
20
1.01808
11
0.159691
21
1.02089
0
LINE
8
BLACK
6
CONTINUOUS
10
0.159691
20
1.02089
11
0.160514
21
1.02137
0
LINE
8
BLACK
6
CONTINUOUS
10
0.160514
20
1.02137
11
0.161226
21
1.022
0
LINE
8
BLACK
6
CONTINUOUS
10
0.161226
20
1.022
11
0.16685
21
1.02481
0
LINE
8
BLACK
6
CONTINUOUS
10
0.16685
20
1.02481
11
0.16818
21
1.02508
0
LINE
8
BLACK
6
CONTINUOUS
10
0.16818
20
1.02508
11
0.169491
21
1.02543
0
LINE
8
BLACK
6
CONTINUOUS
10
0.169491
20
1.02543
11
0.177927
21
1.02543
0
LINE
8
BLACK
6
CONTINUOUS
10
0.177927
20
1.02543
11
0.179239
21
1.02508
0
LINE
8
BLACK
6
CONTINUOUS
10
0.179239
20
1.02508
11
0.180568
21
1.02481
0
LINE
8
BLACK
6
CONTINUOUS
10
0.180568
20
1.02481
11
0.186193
21
1.022
0
LINE
8
BLACK
6
CONTINUOUS
10
0.186193
20
1.022
11
0.186904
21
1.02137
0
LINE
8
BLACK
6
CONTINUOUS
10
0.186904
20
1.02137
11
0.187728
21
1.02089
0
LINE
8
BLACK
6
CONTINUOUS
10
0.187728
20
1.02089
11
0.19054
21
1.01808
0
LINE
8
BLACK
6
CONTINUOUS
10
0.19054
20
1.01808
11
0.191015
21
1.01726
0
LINE
8
BLACK
6
CONTINUOUS
10
0.191015
20
1.01726
11
0.191646
21
1.01654
0
LINE
8
BLACK
6
CONTINUOUS
10
0.191646
20
1.01654
11
0.194458
21
1.01092
0
LINE
8
BLACK
6
CONTINUOUS
10
0.194458
20
1.01092
11
0.19473
21
1.00959
0
LINE
8
BLACK
6
CONTINUOUS
10
0.19473
20
1.00959
11
0.195082
21
1.00828
0
LINE
8
BLACK
6
CONTINUOUS
10
0.195082
20
1.00828
11
0.195082
21
0.985782
0
LINE
8
BLACK
6
CONTINUOUS
10
0.195082
20
0.985782
11
0.19429
21
0.982829
0
LINE
8
BLACK
6
CONTINUOUS
10
0.19429
20
0.982829
11
0.192129
21
0.980667
0
LINE
8
BLACK
6
CONTINUOUS
10
0.192129
20
0.980667
11
0.189176
21
0.979876
0
LINE
8
BLACK
6
CONTINUOUS
10
0.189176
20
0.979876
11
0.130121
21
0.979876
0
LINE
8
BLACK
6
CONTINUOUS
10
0.130121
20
0.979876
11
0.127168
21
0.980667
0
LINE
8
BLACK
6
CONTINUOUS
10
0.142764
20
1.01081
11
0.139243
21
1.00905
0
LINE
8
BLACK
6
CONTINUOUS
10
0.139243
20
1.00905
11
0.137787
21
1.00759
0
LINE
8
BLACK
6
CONTINUOUS
10
0.137787
20
1.00759
11
0.136026
21
1.00407
0
LINE
8
BLACK
6
CONTINUOUS
10
0.136026
20
1.00407
11
0.136026
21
0.991687
0
LINE
8
BLACK
6
CONTINUOUS
10
0.136026
20
0.991687
11
0.152337
21
0.991687
0
LINE
8
BLACK
6
CONTINUOUS
10
0.152337
20
0.991687
11
0.152337
21
1.00407
0
LINE
8
BLACK
6
CONTINUOUS
10
0.152337
20
1.00407
11
0.150577
21
1.00759
0
LINE
8
BLACK
6
CONTINUOUS
10
0.150577
20
1.00759
11
0.14912
21
1.00905
0
LINE
8
BLACK
6
CONTINUOUS
10
0.14912
20
1.00905
11
0.1456
21
1.01081
0
LINE
8
BLACK
6
CONTINUOUS
10
0.1456
20
1.01081
11
0.142764
21
1.01081
0
LINE
8
BLACK
6
CONTINUOUS
10
0.170885
20
1.01362
11
0.167365
21
1.01186
0
LINE
8
BLACK
6
CONTINUOUS
10
0.167365
20
1.01186
11
0.166216
21
1.01071
0
LINE
8
BLACK
6
CONTINUOUS
10
0.166216
20
1.01071
11
0.164148
21
1.00451
0
LINE
8
BLACK
6
CONTINUOUS
10
0.164148
20
1.00451
11
0.164148
21
0.991687
0
LINE
8
BLACK
6
CONTINUOUS
10
0.164148
20
0.991687
11
0.183271
21
0.991687
0
LINE
8
BLACK
6
CONTINUOUS
10
0.183271
20
0.991687
11
0.183271
21
1.00688
0
LINE
8
BLACK
6
CONTINUOUS
10
0.183271
20
1.00688
11
0.18151
21
1.01041
0
LINE
8
BLACK
6
CONTINUOUS
10
0.18151
20
1.01041
11
0.180054
21
1.01186
0
LINE
8
BLACK
6
CONTINUOUS
10
0.180054
20
1.01186
11
0.176533
21
1.01362
0
LINE
8
BLACK
6
CONTINUOUS
10
0.176533
20
1.01362
11
0.170885
21
1.01362
0
LINE
8
BLACK
6
CONTINUOUS
10
0.242991
20
1.04065
11
0.24394
21
1.0406
0
LINE
8
BLACK
6
CONTINUOUS
10
0.24394
20
1.0406
11
0.252376
21
1.03778
0
LINE
8
BLACK
6
CONTINUOUS
10
0.252376
20
1.03778
11
0.253509
21
1.03704
0
LINE
8
BLACK
6
CONTINUOUS
10
0.253509
20
1.03704
11
0.254685
21
1.03636
0
LINE
8
BLACK
6
CONTINUOUS
10
0.254685
20
1.03636
11
0.278349
21
1.01269
0
LINE
8
BLACK
6
CONTINUOUS
10
0.278349
20
1.01269
11
0.278349
21
1.03499
0
LINE
8
BLACK
6
CONTINUOUS
10
0.278349
20
1.03499
11
0.27914
21
1.03795
0
LINE
8
BLACK
6
CONTINUOUS
10
0.27914
20
1.03795
11
0.281302
21
1.04011
0
LINE
8
BLACK
6
CONTINUOUS
10
0.281302
20
1.04011
11
0.284255
21
1.0409
0
LINE
8
BLACK
6
CONTINUOUS
10
0.284255
20
1.0409
11
0.287208
21
1.04011
0
LINE
8
BLACK
6
CONTINUOUS
10
0.287208
20
1.04011
11
0.289369
21
1.03795
0
LINE
8
BLACK
6
CONTINUOUS
10
0.289369
20
1.03795
11
0.29016
21
1.03499
0
LINE
8
BLACK
6
CONTINUOUS
10
0.29016
20
1.03499
11
0.29016
21
0.998436
0
LINE
8
BLACK
6
CONTINUOUS
10
0.29016
20
0.998436
11
0.289959
21
0.997685
0
LINE
8
BLACK
6
CONTINUOUS
10
0.289959
20
0.997685
11
0.289959
21
0.996908
0
LINE
8
BLACK
6
CONTINUOUS
10
0.289959
20
0.996908
11
0.28957
21
0.996235
0
LINE
8
BLACK
6
CONTINUOUS
10
0.28957
20
0.996235
11
0.289369
21
0.995484
0
LINE
8
BLACK
6
CONTINUOUS
10
0.289369
20
0.995484
11
0.288819
21
0.994934
0
LINE
8
BLACK
6
CONTINUOUS
10
0.288819
20
0.994934
11
0.288431
21
0.994261
0
LINE
8
BLACK
6
CONTINUOUS
10
0.288431
20
0.994261
11
0.287757
21
0.993872
0
LINE
8
BLACK
6
CONTINUOUS
10
0.287757
20
0.993872
11
0.287208
21
0.993322
0
LINE
8
BLACK
6
CONTINUOUS
10
0.287208
20
0.993322
11
0.286457
21
0.993121
0
LINE
8
BLACK
6
CONTINUOUS
10
0.286457
20
0.993121
11
0.285783
21
0.992732
0
LINE
8
BLACK
6
CONTINUOUS
10
0.285783
20
0.992732
11
0.285006
21
0.992732
0
LINE
8
BLACK
6
CONTINUOUS
10
0.285006
20
0.992732
11
0.284255
21
0.992531
0
LINE
8
BLACK
6
CONTINUOUS
10
0.284255
20
0.992531
11
0.283504
21
0.992732
0
LINE
8
BLACK
6
CONTINUOUS
10
0.283504
20
0.992732
11
0.282726
21
0.992732
0
LINE
8
BLACK
6
CONTINUOUS
10
0.282726
20
0.992732
11
0.282053
21
0.993121
0
LINE
8
BLACK
6
CONTINUOUS
10
0.282053
20
0.993121
11
0.281302
21
0.993322
0
LINE
8
BLACK
6
CONTINUOUS
10
0.281302
20
0.993322
11
0.280752
21
0.993872
0
LINE
8
BLACK
6
CONTINUOUS
10
0.280752
20
0.993872
11
0.280079
21
0.994261
0
LINE
8
BLACK
6
CONTINUOUS
10
0.280079
20
0.994261
11
0.247319
21
1.02702
0
LINE
8
BLACK
6
CONTINUOUS
10
0.247319
20
1.02702
11
0.241114
21
1.02909
0
LINE
8
BLACK
6
CONTINUOUS
10
0.241114
20
1.02909
11
0.237842
21
1.02909
0
LINE
8
BLACK
6
CONTINUOUS
10
0.237842
20
1.02909
11
0.234322
21
1.02733
0
LINE
8
BLACK
6
CONTINUOUS
10
0.234322
20
1.02733
11
0.232865
21
1.02587
0
LINE
8
BLACK
6
CONTINUOUS
10
0.232865
20
1.02587
11
0.231105
21
1.02235
0
LINE
8
BLACK
6
CONTINUOUS
10
0.231105
20
1.02235
11
0.231105
21
1.01108
0
LINE
8
BLACK
6
CONTINUOUS
10
0.231105
20
1.01108
11
0.232865
21
1.00756
0
LINE
8
BLACK
6
CONTINUOUS
10
0.232865
20
1.00756
11
0.235
21
1.00542
0
LINE
8
BLACK
6
CONTINUOUS
10
0.235
20
1.00542
11
0.236528
21
1.00278
0
LINE
8
BLACK
6
CONTINUOUS
10
0.236528
20
1.00278
11
0.236528
21
0.99972
0
LINE
8
BLACK
6
CONTINUOUS
10
0.236528
20
0.99972
11
0.235
21
0.997073
0
LINE
8
BLACK
6
CONTINUOUS
10
0.235
20
0.997073
11
0.232352
21
0.995544
0
LINE
8
BLACK
6
CONTINUOUS
10
0.232352
20
0.995544
11
0.229295
21
0.995544
0
LINE
8
BLACK
6
CONTINUOUS
10
0.229295
20
0.995544
11
0.226648
21
0.997073
0
LINE
8
BLACK
6
CONTINUOUS
10
0.226648
20
0.997073
11
0.223836
21
0.999885
0
LINE
8
BLACK
6
CONTINUOUS
10
0.223836
20
0.999885
11
0.223361
21
1.00071
0
LINE
8
BLACK
6
CONTINUOUS
10
0.223361
20
1.00071
11
0.22273
21
1.00142
0
LINE
8
BLACK
6
CONTINUOUS
10
0.22273
20
1.00142
11
0.219918
21
1.00704
0
LINE
8
BLACK
6
CONTINUOUS
10
0.219918
20
1.00704
11
0.219645
21
1.00837
0
LINE
8
BLACK
6
CONTINUOUS
10
0.219645
20
1.00837
11
0.219294
21
1.00969
0
LINE
8
BLACK
6
CONTINUOUS
10
0.219294
20
1.00969
11
0.219294
21
1.02375
0
LINE
8
BLACK
6
CONTINUOUS
10
0.219294
20
1.02375
11
0.219645
21
1.02506
0
LINE
8
BLACK
6
CONTINUOUS
10
0.219645
20
1.02506
11
0.219918
21
1.02639
0
LINE
8
BLACK
6
CONTINUOUS
10
0.219918
20
1.02639
11
0.22273
21
1.03201
0
LINE
8
BLACK
6
CONTINUOUS
10
0.22273
20
1.03201
11
0.223361
21
1.03272
0
LINE
8
BLACK
6
CONTINUOUS
10
0.223361
20
1.03272
11
0.223836
21
1.03355
0
LINE
8
BLACK
6
CONTINUOUS
10
0.223836
20
1.03355
11
0.226648
21
1.03636
0
LINE
8
BLACK
6
CONTINUOUS
10
0.226648
20
1.03636
11
0.227472
21
1.03683
0
LINE
8
BLACK
6
CONTINUOUS
10
0.227472
20
1.03683
11
0.228183
21
1.03746
0
LINE
8
BLACK
6
CONTINUOUS
10
0.228183
20
1.03746
11
0.233807
21
1.04028
0
LINE
8
BLACK
6
CONTINUOUS
10
0.233807
20
1.04028
11
0.235137
21
1.04055
0
LINE
8
BLACK
6
CONTINUOUS
10
0.235137
20
1.04055
11
0.236448
21
1.0409
0
LINE
8
BLACK
6
CONTINUOUS
10
0.236448
20
1.0409
11
0.242073
21
1.0409
0
LINE
8
BLACK
6
CONTINUOUS
10
0.242073
20
1.0409
11
0.242991
21
1.04065
0
LINE
8
BLACK
6
CONTINUOUS
10
2.19225
20
1.02441
11
2.19009
21
1.02657
0
LINE
8
BLACK
6
CONTINUOUS
10
2.19009
20
1.02657
11
2.18929
21
1.02953
0
LINE
8
BLACK
6
CONTINUOUS
10
2.18929
20
1.02953
11
2.19009
21
1.03248
0
LINE
8
BLACK
6
CONTINUOUS
10
2.19009
20
1.03248
11
2.19225
21
1.03464
0
LINE
8
BLACK
6
CONTINUOUS
10
2.19225
20
1.03464
11
2.1952
21
1.03543
0
LINE
8
BLACK
6
CONTINUOUS
10
2.1952
20
1.03543
11
2.21742
21
1.03543
0
LINE
8
BLACK
6
CONTINUOUS
10
2.21742
20
1.03543
11
2.21742
21
1.05737
0
LINE
8
BLACK
6
CONTINUOUS
10
2.21742
20
1.05737
11
2.1952
21
1.05737
0
LINE
8
BLACK
6
CONTINUOUS
10
2.1952
20
1.05737
11
2.19225
21
1.05816
0
LINE
8
BLACK
6
CONTINUOUS
10
2.19225
20
1.05816
11
2.19009
21
1.06032
0
LINE
8
BLACK
6
CONTINUOUS
10
2.19009
20
1.06032
11
2.18929
21
1.06327
0
LINE
8
BLACK
6
CONTINUOUS
10
2.18929
20
1.06327
11
2.19009
21
1.06623
0
LINE
8
BLACK
6
CONTINUOUS
10
2.19009
20
1.06623
11
2.19225
21
1.06839
0
LINE
8
BLACK
6
CONTINUOUS
10
2.19225
20
1.06839
11
2.1952
21
1.06918
0
LINE
8
BLACK
6
CONTINUOUS
10
2.1952
20
1.06918
11
2.25425
21
1.06918
0
LINE
8
BLACK
6
CONTINUOUS
10
2.25425
20
1.06918
11
2.25721
21
1.06839
0
LINE
8
BLACK
6
CONTINUOUS
10
2.25721
20
1.06839
11
2.25937
21
1.06623
0
LINE
8
BLACK
6
CONTINUOUS
10
2.25937
20
1.06623
11
2.26016
21
1.06327
0
LINE
8
BLACK
6
CONTINUOUS
10
2.26016
20
1.06327
11
2.25937
21
1.06032
0
LINE
8
BLACK
6
CONTINUOUS
10
2.25937
20
1.06032
11
2.25721
21
1.05816
0
LINE
8
BLACK
6
CONTINUOUS
10
2.25721
20
1.05816
11
2.25425
21
1.05737
0
LINE
8
BLACK
6
CONTINUOUS
10
2.25425
20
1.05737
11
2.22923
21
1.05737
0
LINE
8
BLACK
6
CONTINUOUS
10
2.22923
20
1.05737
11
2.22923
21
1.03543
0
LINE
8
BLACK
6
CONTINUOUS
10
2.22923
20
1.03543
11
2.25425
21
1.03543
0
LINE
8
BLACK
6
CONTINUOUS
10
2.25425
20
1.03543
11
2.25721
21
1.03464
0
LINE
8
BLACK
6
CONTINUOUS
10
2.25721
20
1.03464
11
2.25937
21
1.03248
0
LINE
8
BLACK
6
CONTINUOUS
10
2.25937
20
1.03248
11
2.26016
21
1.02953
0
LINE
8
BLACK
6
CONTINUOUS
10
2.26016
20
1.02953
11
2.25937
21
1.02657
0
LINE
8
BLACK
6
CONTINUOUS
10
2.25937
20
1.02657
11
2.25721
21
1.02441
0
LINE
8
BLACK
6
CONTINUOUS
10
2.25721
20
1.02441
11
2.25425
21
1.02362
0
LINE
8
BLACK
6
CONTINUOUS
10
2.25425
20
1.02362
11
2.1952
21
1.02362
0
LINE
8
BLACK
6
CONTINUOUS
10
2.1952
20
1.02362
11
2.19225
21
1.02441
0
LINE
8
BLACK
6
CONTINUOUS
10
2.14924
20
1.07726
11
2.15057
21
1.07699
0
LINE
8
BLACK
6
CONTINUOUS
10
2.15057
20
1.07699
11
2.15619
21
1.07418
0
LINE
8
BLACK
6
CONTINUOUS
10
2.15619
20
1.07418
11
2.1569
21
1.07355
0
LINE
8
BLACK
6
CONTINUOUS
10
2.1569
20
1.07355
11
2.15773
21
1.07307
0
LINE
8
BLACK
6
CONTINUOUS
10
2.15773
20
1.07307
11
2.16054
21
1.07026
0
LINE
8
BLACK
6
CONTINUOUS
10
2.16054
20
1.07026
11
2.16102
21
1.06944
0
LINE
8
BLACK
6
CONTINUOUS
10
2.16102
20
1.06944
11
2.16165
21
1.06873
0
LINE
8
BLACK
6
CONTINUOUS
10
2.16165
20
1.06873
11
2.16446
21
1.0631
0
LINE
8
BLACK
6
CONTINUOUS
10
2.16446
20
1.0631
11
2.16473
21
1.06177
0
LINE
8
BLACK
6
CONTINUOUS
10
2.16473
20
1.06177
11
2.16508
21
1.06046
0
LINE
8
BLACK
6
CONTINUOUS
10
2.16508
20
1.06046
11
2.16508
21
1.04921
0
LINE
8
BLACK
6
CONTINUOUS
10
2.16508
20
1.04921
11
2.16473
21
1.0479
0
LINE
8
BLACK
6
CONTINUOUS
10
2.16473
20
1.0479
11
2.16446
21
1.04657
0
LINE
8
BLACK
6
CONTINUOUS
10
2.16446
20
1.04657
11
2.16165
21
1.04095
0
LINE
8
BLACK
6
CONTINUOUS
10
2.16165
20
1.04095
11
2.16102
21
1.04024
0
LINE
8
BLACK
6
CONTINUOUS
10
2.16102
20
1.04024
11
2.16054
21
1.03941
0
LINE
8
BLACK
6
CONTINUOUS
10
2.16054
20
1.03941
11
2.15773
21
1.0366
0
LINE
8
BLACK
6
CONTINUOUS
10
2.15773
20
1.0366
11
2.1569
21
1.03612
0
LINE
8
BLACK
6
CONTINUOUS
10
2.1569
20
1.03612
11
2.15619
21
1.03549
0
LINE
8
BLACK
6
CONTINUOUS
10
2.15619
20
1.03549
11
2.15057
21
1.03268
0
LINE
8
BLACK
6
CONTINUOUS
10
2.15057
20
1.03268
11
2.14924
21
1.03241
0
LINE
8
BLACK
6
CONTINUOUS
10
2.14924
20
1.03241
11
2.14793
21
1.03206
0
LINE
8
BLACK
6
CONTINUOUS
10
2.14793
20
1.03206
11
2.12543
21
1.03206
0
LINE
8
BLACK
6
CONTINUOUS
10
2.12543
20
1.03206
11
2.12473
21
1.03225
0
LINE
8
BLACK
6
CONTINUOUS
10
2.12473
20
1.03225
11
2.124
21
1.03223
0
LINE
8
BLACK
6
CONTINUOUS
10
2.124
20
1.03223
11
2.11275
21
1.03505
0
LINE
8
BLACK
6
CONTINUOUS
10
2.11275
20
1.03505
11
2.11186
21
1.03554
0
LINE
8
BLACK
6
CONTINUOUS
10
2.11186
20
1.03554
11
2.11091
21
1.03586
0
LINE
8
BLACK
6
CONTINUOUS
10
2.11091
20
1.03586
11
2.10247
21
1.04149
0
LINE
8
BLACK
6
CONTINUOUS
10
2.10247
20
1.04149
11
2.10208
21
1.04193
0
LINE
8
BLACK
6
CONTINUOUS
10
2.10208
20
1.04193
11
2.10157
21
1.04222
0
LINE
8
BLACK
6
CONTINUOUS
10
2.10157
20
1.04222
11
2.09876
21
1.04504
0
LINE
8
BLACK
6
CONTINUOUS
10
2.09876
20
1.04504
11
2.09828
21
1.04586
0
LINE
8
BLACK
6
CONTINUOUS
10
2.09828
20
1.04586
11
2.09765
21
1.04657
0
LINE
8
BLACK
6
CONTINUOUS
10
2.09765
20
1.04657
11
2.09484
21
1.0522
0
LINE
8
BLACK
6
CONTINUOUS
10
2.09484
20
1.0522
11
2.09457
21
1.05353
0
LINE
8
BLACK
6
CONTINUOUS
10
2.09457
20
1.05353
11
2.09422
21
1.05484
0
LINE
8
BLACK
6
CONTINUOUS
10
2.09422
20
1.05484
11
2.09422
21
1.06609
0
LINE
8
BLACK
6
CONTINUOUS
10
2.09422
20
1.06609
11
2.09501
21
1.06904
0
LINE
8
BLACK
6
CONTINUOUS
10
2.09501
20
1.06904
11
2.09717
21
1.0712
0
LINE
8
BLACK
6
CONTINUOUS
10
2.09717
20
1.0712
11
2.10012
21
1.07199
0
LINE
8
BLACK
6
CONTINUOUS
10
2.10012
20
1.07199
11
2.10307
21
1.0712
0
LINE
8
BLACK
6
CONTINUOUS
10
2.10307
20
1.0712
11
2.10524
21
1.06904
0
LINE
8
BLACK
6
CONTINUOUS
10
2.10524
20
1.06904
11
2.10603
21
1.06609
0
LINE
8
BLACK
6
CONTINUOUS
10
2.10603
20
1.06609
11
2.10603
21
1.05623
0
LINE
8
BLACK
6
CONTINUOUS
10
2.10603
20
1.05623
11
2.10779
21
1.05271
0
LINE
8
BLACK
6
CONTINUOUS
10
2.10779
20
1.05271
11
2.10951
21
1.05099
0
LINE
8
BLACK
6
CONTINUOUS
10
2.10951
20
1.05099
11
2.11661
21
1.04626
0
LINE
8
BLACK
6
CONTINUOUS
10
2.11661
20
1.04626
11
2.11762
21
1.046
0
LINE
8
BLACK
6
CONTINUOUS
10
2.11762
20
1.046
11
2.11734
21
1.04657
0
LINE
8
BLACK
6
CONTINUOUS
10
2.11734
20
1.04657
11
2.11706
21
1.0479
0
LINE
8
BLACK
6
CONTINUOUS
10
2.11706
20
1.0479
11
2.11671
21
1.04921
0
LINE
8
BLACK
6
CONTINUOUS
10
2.11671
20
1.04921
11
2.11671
21
1.06046
0
LINE
8
BLACK
6
CONTINUOUS
10
2.11671
20
1.06046
11
2.11706
21
1.06177
0
LINE
8
BLACK
6
CONTINUOUS
10
2.11706
20
1.06177
11
2.11734
21
1.0631
0
LINE
8
BLACK
6
CONTINUOUS
10
2.11734
20
1.0631
11
2.12015
21
1.06873
0
LINE
8
BLACK
6
CONTINUOUS
10
2.12015
20
1.06873
11
2.12078
21
1.06944
0
LINE
8
BLACK
6
CONTINUOUS
10
2.12078
20
1.06944
11
2.12125
21
1.07026
0
LINE
8
BLACK
6
CONTINUOUS
10
2.12125
20
1.07026
11
2.12407
21
1.07307
0
LINE
8
BLACK
6
CONTINUOUS
10
2.12407
20
1.07307
11
2.12489
21
1.07355
0
LINE
8
BLACK
6
CONTINUOUS
10
2.12489
20
1.07355
11
2.1256
21
1.07418
0
LINE
8
BLACK
6
CONTINUOUS
10
2.1256
20
1.07418
11
2.13123
21
1.07699
0
LINE
8
BLACK
6
CONTINUOUS
10
2.13123
20
1.07699
11
2.13256
21
1.07726
0
LINE
8
BLACK
6
CONTINUOUS
10
2.13256
20
1.07726
11
2.13387
21
1.07762
0
LINE
8
BLACK
6
CONTINUOUS
10
2.13387
20
1.07762
11
2.14793
21
1.07762
0
LINE
8
BLACK
6
CONTINUOUS
10
2.14793
20
1.07762
11
2.14924
21
1.07726
0
LINE
8
BLACK
6
CONTINUOUS
10
2.13526
20
1.0658
11
2.13174
21
1.06404
0
LINE
8
BLACK
6
CONTINUOUS
10
2.13174
20
1.06404
11
2.13028
21
1.06259
0
LINE
8
BLACK
6
CONTINUOUS
10
2.13028
20
1.06259
11
2.12852
21
1.05907
0
LINE
8
BLACK
6
CONTINUOUS
10
2.12852
20
1.05907
11
2.12852
21
1.05061
0
LINE
8
BLACK
6
CONTINUOUS
10
2.12852
20
1.05061
11
2.13028
21
1.04709
0
LINE
8
BLACK
6
CONTINUOUS
10
2.13028
20
1.04709
11
2.13174
21
1.04563
0
LINE
8
BLACK
6
CONTINUOUS
10
2.13174
20
1.04563
11
2.13526
21
1.04387
0
LINE
8
BLACK
6
CONTINUOUS
10
2.13526
20
1.04387
11
2.14653
21
1.04387
0
LINE
8
BLACK
6
CONTINUOUS
10
2.14653
20
1.04387
11
2.15005
21
1.04563
0
LINE
8
BLACK
6
CONTINUOUS
10
2.15005
20
1.04563
11
2.15151
21
1.04709
0
LINE
8
BLACK
6
CONTINUOUS
10
2.15151
20
1.04709
11
2.15327
21
1.05061
0
LINE
8
BLACK
6
CONTINUOUS
10
2.15327
20
1.05061
11
2.15327
21
1.05907
0
LINE
8
BLACK
6
CONTINUOUS
10
2.15327
20
1.05907
11
2.15151
21
1.06259
0
LINE
8
BLACK
6
CONTINUOUS
10
2.15151
20
1.06259
11
2.15005
21
1.06404
0
LINE
8
BLACK
6
CONTINUOUS
10
2.15005
20
1.06404
11
2.14653
21
1.0658
0
LINE
8
BLACK
6
CONTINUOUS
10
2.14653
20
1.0658
11
2.13526
21
1.0658
0
LINE
8
BLACK
6
CONTINUOUS
10
0.195082
20
1.04484
11
0.19488
21
1.04409
0
LINE
8
BLACK
6
CONTINUOUS
10
0.19488
20
1.04409
11
0.19488
21
1.04331
0
LINE
8
BLACK
6
CONTINUOUS
10
0.19488
20
1.04331
11
0.194747
21
1.04308
0
LINE
8
BLACK
6
CONTINUOUS
10
0.194747
20
1.04308
11
0.194492
21
1.04264
0
LINE
8
BLACK
6
CONTINUOUS
10
0.194492
20
1.04264
11
0.19429
21
1.04188
0
LINE
8
BLACK
6
CONTINUOUS
10
0.19429
20
1.04188
11
0.193741
21
1.04133
0
LINE
8
BLACK
6
CONTINUOUS
10
0.193741
20
1.04133
11
0.193372
21
1.0407
0
LINE
8
BLACK
6
CONTINUOUS
10
0.193372
20
1.0407
11
0.193352
21
1.04066
0
LINE
8
BLACK
6
CONTINUOUS
10
0.193352
20
1.04066
11
0.19054
21
1.03785
0
LINE
8
BLACK
6
CONTINUOUS
10
0.19054
20
1.03785
11
0.189873
21
1.03746
0
LINE
8
BLACK
6
CONTINUOUS
10
0.189873
20
1.03746
11
0.187892
21
1.03632
0
LINE
8
BLACK
6
CONTINUOUS
10
0.187892
20
1.03632
11
0.184835
21
1.03632
0
LINE
8
BLACK
6
CONTINUOUS
10
0.184835
20
1.03632
11
0.182558
21
1.03764
0
LINE
8
BLACK
6
CONTINUOUS
10
0.182558
20
1.03764
11
0.182188
21
1.03785
0
LINE
8
BLACK
6
CONTINUOUS
10
0.182188
20
1.03785
11
0.182188
21
1.03785
0
LINE
8
BLACK
6
CONTINUOUS
10
0.182188
20
1.03785
11
0.179376
21
1.04066
0
LINE
8
BLACK
6
CONTINUOUS
10
0.179376
20
1.04066
11
0.178987
21
1.04133
0
LINE
8
BLACK
6
CONTINUOUS
10
0.178987
20
1.04133
11
0.178437
21
1.04188
0
LINE
8
BLACK
6
CONTINUOUS
10
0.178437
20
1.04188
11
0.178236
21
1.04264
0
LINE
8
BLACK
6
CONTINUOUS
10
0.178236
20
1.04264
11
0.17798
21
1.04308
0
LINE
8
BLACK
6
CONTINUOUS
10
0.17798
20
1.04308
11
0.177847
21
1.04331
0
LINE
8
BLACK
6
CONTINUOUS
10
0.177847
20
1.04331
11
0.177847
21
1.04409
0
LINE
8
BLACK
6
CONTINUOUS
10
0.177847
20
1.04409
11
0.177646
21
1.04484
0
LINE
8
BLACK
6
CONTINUOUS
10
0.177646
20
1.04484
11
0.177847
21
1.04559
0
LINE
8
BLACK
6
CONTINUOUS
10
0.177847
20
1.04559
11
0.177847
21
1.04637
0
LINE
8
BLACK
6
CONTINUOUS
10
0.177847
20
1.04637
11
0.178236
21
1.04704
0
LINE
8
BLACK
6
CONTINUOUS
10
0.178236
20
1.04704
11
0.178437
21
1.04779
0
LINE
8
BLACK
6
CONTINUOUS
10
0.178437
20
1.04779
11
0.178987
21
1.04834
0
LINE
8
BLACK
6
CONTINUOUS
10
0.178987
20
1.04834
11
0.179287
21
1.04886
0
LINE
8
BLACK
6
CONTINUOUS
10
0.179287
20
1.04886
11
0.179376
21
1.04901
0
LINE
8
BLACK
6
CONTINUOUS
10
0.179376
20
1.04901
11
0.182188
21
1.05182
0
LINE
8
BLACK
6
CONTINUOUS
10
0.182188
20
1.05182
11
0.184485
21
1.05315
0
LINE
8
BLACK
6
CONTINUOUS
10
0.184485
20
1.05315
11
0.184835
21
1.05335
0
LINE
8
BLACK
6
CONTINUOUS
10
0.184835
20
1.05335
11
0.187892
21
1.05335
0
LINE
8
BLACK
6
CONTINUOUS
10
0.187892
20
1.05335
11
0.189421
21
1.05247
0
LINE
8
BLACK
6
CONTINUOUS
10
0.189421
20
1.05247
11
0.19054
21
1.05182
0
LINE
8
BLACK
6
CONTINUOUS
10
0.19054
20
1.05182
11
0.193352
21
1.04901
0
LINE
8
BLACK
6
CONTINUOUS
10
0.193352
20
1.04901
11
0.193352
21
1.04901
0
LINE
8
BLACK
6
CONTINUOUS
10
0.193352
20
1.04901
11
0.193352
21
1.04901
0
LINE
8
BLACK
6
CONTINUOUS
10
0.193352
20
1.04901
11
0.193441
21
1.04886
0
LINE
8
BLACK
6
CONTINUOUS
10
0.193441
20
1.04886
11
0.193741
21
1.04834
0
LINE
8
BLACK
6
CONTINUOUS
10
0.193741
20
1.04834
11
0.19429
21
1.04779
0
LINE
8
BLACK
6
CONTINUOUS
10
0.19429
20
1.04779
11
0.194492
21
1.04704
0
LINE
8
BLACK
6
CONTINUOUS
10
0.194492
20
1.04704
11
0.19488
21
1.04637
0
LINE
8
BLACK
6
CONTINUOUS
10
0.19488
20
1.04637
11
0.19488
21
1.04559
0
LINE
8
BLACK
6
CONTINUOUS
10
0.19488
20
1.04559
11
0.195082
21
1.04484
0
LINE
8
BLACK
6
CONTINUOUS
10
0.242991
20
1.0969
11
0.24394
21
1.09684
0
LINE
8
BLACK
6
CONTINUOUS
10
0.24394
20
1.09684
11
0.252376
21
1.09403
0
LINE
8
BLACK
6
CONTINUOUS
10
0.252376
20
1.09403
11
0.253509
21
1.09328
0
LINE
8
BLACK
6
CONTINUOUS
10
0.253509
20
1.09328
11
0.254685
21
1.0926
0
LINE
8
BLACK
6
CONTINUOUS
10
0.254685
20
1.0926
11
0.278349
21
1.06894
0
LINE
8
BLACK
6
CONTINUOUS
10
0.278349
20
1.06894
11
0.278349
21
1.09124
0
LINE
8
BLACK
6
CONTINUOUS
10
0.278349
20
1.09124
11
0.27914
21
1.09419
0
LINE
8
BLACK
6
CONTINUOUS
10
0.27914
20
1.09419
11
0.281302
21
1.09635
0
LINE
8
BLACK
6
CONTINUOUS
10
0.281302
20
1.09635
11
0.284255
21
1.09714
0
LINE
8
BLACK
6
CONTINUOUS
10
0.284255
20
1.09714
11
0.287208
21
1.09635
0
LINE
8
BLACK
6
CONTINUOUS
10
0.287208
20
1.09635
11
0.289369
21
1.09419
0
LINE
8
BLACK
6
CONTINUOUS
10
0.289369
20
1.09419
11
0.29016
21
1.09124
0
LINE
8
BLACK
6
CONTINUOUS
10
0.29016
20
1.09124
11
0.29016
21
1.05468
0
LINE
8
BLACK
6
CONTINUOUS
10
0.29016
20
1.05468
11
0.289959
21
1.05393
0
LINE
8
BLACK
6
CONTINUOUS
10
0.289959
20
1.05393
11
0.289959
21
1.05315
0
LINE
8
BLACK
6
CONTINUOUS
10
0.289959
20
1.05315
11
0.28957
21
1.05248
0
LINE
8
BLACK
6
CONTINUOUS
10
0.28957
20
1.05248
11
0.289369
21
1.05173
0
LINE
8
BLACK
6
CONTINUOUS
10
0.289369
20
1.05173
11
0.288819
21
1.05118
0
LINE
8
BLACK
6
CONTINUOUS
10
0.288819
20
1.05118
11
0.288431
21
1.0505
0
LINE
8
BLACK
6
CONTINUOUS
10
0.288431
20
1.0505
11
0.287757
21
1.05011
0
LINE
8
BLACK
6
CONTINUOUS
10
0.287757
20
1.05011
11
0.287208
21
1.04957
0
LINE
8
BLACK
6
CONTINUOUS
10
0.287208
20
1.04957
11
0.286457
21
1.04936
0
LINE
8
BLACK
6
CONTINUOUS
10
0.286457
20
1.04936
11
0.285783
21
1.04898
0
LINE
8
BLACK
6
CONTINUOUS
10
0.285783
20
1.04898
11
0.285006
21
1.04898
0
LINE
8
BLACK
6
CONTINUOUS
10
0.285006
20
1.04898
11
0.284255
21
1.04877
0
LINE
8
BLACK
6
CONTINUOUS
10
0.284255
20
1.04877
11
0.283504
21
1.04898
0
LINE
8
BLACK
6
CONTINUOUS
10
0.283504
20
1.04898
11
0.282726
21
1.04898
0
LINE
8
BLACK
6
CONTINUOUS
10
0.282726
20
1.04898
11
0.282053
21
1.04936
0
LINE
8
BLACK
6
CONTINUOUS
10
0.282053
20
1.04936
11
0.281302
21
1.04957
0
LINE
8
BLACK
6
CONTINUOUS
10
0.281302
20
1.04957
11
0.280752
21
1.05011
0
LINE
8
BLACK
6
CONTINUOUS
10
0.280752
20
1.05011
11
0.280079
21
1.0505
0
LINE
8
BLACK
6
CONTINUOUS
10
0.280079
20
1.0505
11
0.247319
21
1.08326
0
LINE
8
BLACK
6
CONTINUOUS
10
0.247319
20
1.08326
11
0.241114
21
1.08533
0
LINE
8
BLACK
6
CONTINUOUS
10
0.241114
20
1.08533
11
0.237842
21
1.08533
0
LINE
8
BLACK
6
CONTINUOUS
10
0.237842
20
1.08533
11
0.234322
21
1.08357
0
LINE
8
BLACK
6
CONTINUOUS
10
0.234322
20
1.08357
11
0.232865
21
1.08211
0
LINE
8
BLACK
6
CONTINUOUS
10
0.232865
20
1.08211
11
0.231105
21
1.07859
0
LINE
8
BLACK
6
CONTINUOUS
10
0.231105
20
1.07859
11
0.231105
21
1.06732
0
LINE
8
BLACK
6
CONTINUOUS
10
0.231105
20
1.06732
11
0.232865
21
1.0638
0
LINE
8
BLACK
6
CONTINUOUS
10
0.232865
20
1.0638
11
0.235
21
1.06167
0
LINE
8
BLACK
6
CONTINUOUS
10
0.235
20
1.06167
11
0.236528
21
1.05902
0
LINE
8
BLACK
6
CONTINUOUS
10
0.236528
20
1.05902
11
0.236528
21
1.05596
0
LINE
8
BLACK
6
CONTINUOUS
10
0.236528
20
1.05596
11
0.235
21
1.05332
0
LINE
8
BLACK
6
CONTINUOUS
10
0.235
20
1.05332
11
0.232352
21
1.05179
0
LINE
8
BLACK
6
CONTINUOUS
10
0.232352
20
1.05179
11
0.229295
21
1.05179
0
LINE
8
BLACK
6
CONTINUOUS
10
0.229295
20
1.05179
11
0.226648
21
1.05332
0
LINE
8
BLACK
6
CONTINUOUS
10
0.226648
20
1.05332
11
0.223836
21
1.05613
0
LINE
8
BLACK
6
CONTINUOUS
10
0.223836
20
1.05613
11
0.223361
21
1.05695
0
LINE
8
BLACK
6
CONTINUOUS
10
0.223361
20
1.05695
11
0.22273
21
1.05766
0
LINE
8
BLACK
6
CONTINUOUS
10
0.22273
20
1.05766
11
0.219918
21
1.06329
0
LINE
8
BLACK
6
CONTINUOUS
10
0.219918
20
1.06329
11
0.219645
21
1.06462
0
LINE
8
BLACK
6
CONTINUOUS
10
0.219645
20
1.06462
11
0.219294
21
1.06593
0
LINE
8
BLACK
6
CONTINUOUS
10
0.219294
20
1.06593
11
0.219294
21
1.07999
0
LINE
8
BLACK
6
CONTINUOUS
10
0.219294
20
1.07999
11
0.219645
21
1.0813
0
LINE
8
BLACK
6
CONTINUOUS
10
0.219645
20
1.0813
11
0.219918
21
1.08263
0
LINE
8
BLACK
6
CONTINUOUS
10
0.219918
20
1.08263
11
0.22273
21
1.08825
0
LINE
8
BLACK
6
CONTINUOUS
10
0.22273
20
1.08825
11
0.223361
21
1.08897
0
LINE
8
BLACK
6
CONTINUOUS
10
0.223361
20
1.08897
11
0.223836
21
1.08979
0
LINE
8
BLACK
6
CONTINUOUS
10
0.223836
20
1.08979
11
0.226648
21
1.0926
0
LINE
8
BLACK
6
CONTINUOUS
10
0.226648
20
1.0926
11
0.227472
21
1.09308
0
LINE
8
BLACK
6
CONTINUOUS
10
0.227472
20
1.09308
11
0.228183
21
1.09371
0
LINE
8
BLACK
6
CONTINUOUS
10
0.228183
20
1.09371
11
0.233807
21
1.09652
0
LINE
8
BLACK
6
CONTINUOUS
10
0.233807
20
1.09652
11
0.235137
21
1.09679
0
LINE
8
BLACK
6
CONTINUOUS
10
0.235137
20
1.09679
11
0.236448
21
1.09714
0
LINE
8
BLACK
6
CONTINUOUS
10
0.236448
20
1.09714
11
0.242073
21
1.09714
0
LINE
8
BLACK
6
CONTINUOUS
10
0.242073
20
1.09714
11
0.242991
21
1.0969
0
LINE
8
BLACK
6
CONTINUOUS
10
0.139921
20
1.11088
11
0.141449
21
1.10823
0
LINE
8
BLACK
6
CONTINUOUS
10
0.141449
20
1.10823
11
0.141449
21
1.10518
0
LINE
8
BLACK
6
CONTINUOUS
10
0.141449
20
1.10518
11
0.139921
21
1.10253
0
LINE
8
BLACK
6
CONTINUOUS
10
0.139921
20
1.10253
11
0.138095
21
1.1007
0
LINE
8
BLACK
6
CONTINUOUS
10
0.138095
20
1.1007
11
0.136026
21
1.0945
0
LINE
8
BLACK
6
CONTINUOUS
10
0.136026
20
1.0945
11
0.136026
21
1.09079
0
LINE
8
BLACK
6
CONTINUOUS
10
0.136026
20
1.09079
11
0.138095
21
1.08458
0
LINE
8
BLACK
6
CONTINUOUS
10
0.138095
20
1.08458
11
0.142056
21
1.08062
0
LINE
8
BLACK
6
CONTINUOUS
10
0.142056
20
1.08062
11
0.146243
21
1.07853
0
LINE
8
BLACK
6
CONTINUOUS
10
0.146243
20
1.07853
11
0.156157
21
1.07605
0
LINE
8
BLACK
6
CONTINUOUS
10
0.156157
20
1.07605
11
0.16314
21
1.07605
0
LINE
8
BLACK
6
CONTINUOUS
10
0.16314
20
1.07605
11
0.173054
21
1.07853
0
LINE
8
BLACK
6
CONTINUOUS
10
0.173054
20
1.07853
11
0.177241
21
1.08062
0
LINE
8
BLACK
6
CONTINUOUS
10
0.177241
20
1.08062
11
0.181202
21
1.08458
0
LINE
8
BLACK
6
CONTINUOUS
10
0.181202
20
1.08458
11
0.183271
21
1.09079
0
LINE
8
BLACK
6
CONTINUOUS
10
0.183271
20
1.09079
11
0.183271
21
1.0945
0
LINE
8
BLACK
6
CONTINUOUS
10
0.183271
20
1.0945
11
0.181202
21
1.1007
0
LINE
8
BLACK
6
CONTINUOUS
10
0.181202
20
1.1007
11
0.179376
21
1.10253
0
LINE
8
BLACK
6
CONTINUOUS
10
0.179376
20
1.10253
11
0.177847
21
1.10518
0
LINE
8
BLACK
6
CONTINUOUS
10
0.177847
20
1.10518
11
0.177847
21
1.10823
0
LINE
8
BLACK
6
CONTINUOUS
10
0.177847
20
1.10823
11
0.179376
21
1.11088
0
LINE
8
BLACK
6
CONTINUOUS
10
0.179376
20
1.11088
11
0.182023
21
1.11241
0
LINE
8
BLACK
6
CONTINUOUS
10
0.182023
20
1.11241
11
0.18508
21
1.11241
0
LINE
8
BLACK
6
CONTINUOUS
10
0.18508
20
1.11241
11
0.187728
21
1.11088
0
LINE
8
BLACK
6
CONTINUOUS
10
0.187728
20
1.11088
11
0.19054
21
1.10807
0
LINE
8
BLACK
6
CONTINUOUS
10
0.19054
20
1.10807
11
0.191218
21
1.10689
0
LINE
8
BLACK
6
CONTINUOUS
10
0.191218
20
1.10689
11
0.191966
21
1.10576
0
LINE
8
BLACK
6
CONTINUOUS
10
0.191966
20
1.10576
11
0.194778
21
1.09732
0
LINE
8
BLACK
6
CONTINUOUS
10
0.194778
20
1.09732
11
0.194835
21
1.09637
0
LINE
8
BLACK
6
CONTINUOUS
10
0.194835
20
1.09637
11
0.195082
21
1.09546
0
LINE
8
BLACK
6
CONTINUOUS
10
0.195082
20
1.09546
11
0.195082
21
1.08983
0
LINE
8
BLACK
6
CONTINUOUS
10
0.195082
20
1.08983
11
0.194835
21
1.08891
0
LINE
8
BLACK
6
CONTINUOUS
10
0.194835
20
1.08891
11
0.194778
21
1.08796
0
LINE
8
BLACK
6
CONTINUOUS
10
0.194778
20
1.08796
11
0.191966
21
1.07953
0
LINE
8
BLACK
6
CONTINUOUS
10
0.191966
20
1.07953
11
0.191218
21
1.07839
0
LINE
8
BLACK
6
CONTINUOUS
10
0.191218
20
1.07839
11
0.19054
21
1.07722
0
LINE
8
BLACK
6
CONTINUOUS
10
0.19054
20
1.07722
11
0.184915
21
1.07159
0
LINE
8
BLACK
6
CONTINUOUS
10
0.184915
20
1.07159
11
0.184092
21
1.07112
0
LINE
8
BLACK
6
CONTINUOUS
10
0.184092
20
1.07112
11
0.183381
21
1.07049
0
LINE
8
BLACK
6
CONTINUOUS
10
0.183381
20
1.07049
11
0.177756
21
1.06768
0
LINE
8
BLACK
6
CONTINUOUS
10
0.177756
20
1.06768
11
0.177118
21
1.06755
0
LINE
8
BLACK
6
CONTINUOUS
10
0.177118
20
1.06755
11
0.176548
21
1.06723
0
LINE
8
BLACK
6
CONTINUOUS
10
0.176548
20
1.06723
11
0.165299
21
1.06442
0
LINE
8
BLACK
6
CONTINUOUS
10
0.165299
20
1.06442
11
0.164571
21
1.06443
0
LINE
8
BLACK
6
CONTINUOUS
10
0.164571
20
1.06443
11
0.163867
21
1.06424
0
LINE
8
BLACK
6
CONTINUOUS
10
0.163867
20
1.06424
11
0.15543
21
1.06424
0
LINE
8
BLACK
6
CONTINUOUS
10
0.15543
20
1.06424
11
0.154726
21
1.06443
0
LINE
8
BLACK
6
CONTINUOUS
10
0.154726
20
1.06443
11
0.153998
21
1.06442
0
LINE
8
BLACK
6
CONTINUOUS
10
0.153998
20
1.06442
11
0.142749
21
1.06723
0
LINE
8
BLACK
6
CONTINUOUS
10
0.142749
20
1.06723
11
0.142179
21
1.06755
0
LINE
8
BLACK
6
CONTINUOUS
10
0.142179
20
1.06755
11
0.141541
21
1.06768
0
LINE
8
BLACK
6
CONTINUOUS
10
0.141541
20
1.06768
11
0.135916
21
1.07049
0
LINE
8
BLACK
6
CONTINUOUS
10
0.135916
20
1.07049
11
0.135205
21
1.07112
0
LINE
8
BLACK
6
CONTINUOUS
10
0.135205
20
1.07112
11
0.134382
21
1.07159
0
LINE
8
BLACK
6
CONTINUOUS
10
0.134382
20
1.07159
11
0.128757
21
1.07722
0
LINE
8
BLACK
6
CONTINUOUS
10
0.128757
20
1.07722
11
0.128079
21
1.07839
0
LINE
8
BLACK
6
CONTINUOUS
10
0.128079
20
1.07839
11
0.127331
21
1.07953
0
LINE
8
BLACK
6
CONTINUOUS
10
0.127331
20
1.07953
11
0.124518
21
1.08796
0
LINE
8
BLACK
6
CONTINUOUS
10
0.124518
20
1.08796
11
0.124461
21
1.08891
0
LINE
8
BLACK
6
CONTINUOUS
10
0.124461
20
1.08891
11
0.124215
21
1.08983
0
LINE
8
BLACK
6
CONTINUOUS
10
0.124215
20
1.08983
11
0.124215
21
1.09546
0
LINE
8
BLACK
6
CONTINUOUS
10
0.124215
20
1.09546
11
0.124461
21
1.09637
0
LINE
8
BLACK
6
CONTINUOUS
10
0.124461
20
1.09637
11
0.124518
21
1.09732
0
LINE
8
BLACK
6
CONTINUOUS
10
0.124518
20
1.09732
11
0.127331
21
1.10576
0
LINE
8
BLACK
6
CONTINUOUS
10
0.127331
20
1.10576
11
0.128079
21
1.10689
0
LINE
8
BLACK
6
CONTINUOUS
10
0.128079
20
1.10689
11
0.128757
21
1.10807
0
LINE
8
BLACK
6
CONTINUOUS
10
0.128757
20
1.10807
11
0.131569
21
1.11088
0
LINE
8
BLACK
6
CONTINUOUS
10
0.131569
20
1.11088
11
0.134217
21
1.11241
0
LINE
8
BLACK
6
CONTINUOUS
10
0.134217
20
1.11241
11
0.137274
21
1.11241
0
LINE
8
BLACK
6
CONTINUOUS
10
0.137274
20
1.11241
11
0.139921
21
1.11088
0
LINE
8
BLACK
6
CONTINUOUS
10
2.23527
20
1.13367
11
2.236
21
1.13368
0
LINE
8
BLACK
6
CONTINUOUS
10
2.236
20
1.13368
11
2.24725
21
1.13087
0
LINE
8
BLACK
6
CONTINUOUS
10
2.24725
20
1.13087
11
2.2473
21
1.13084
0
LINE
8
BLACK
6
CONTINUOUS
10
2.2473
20
1.13084
11
2.24735
21
1.13084
0
LINE
8
BLACK
6
CONTINUOUS
10
2.24735
20
1.13084
11
2.24863
21
1.1301
0
LINE
8
BLACK
6
CONTINUOUS
10
2.24863
20
1.1301
11
2.24992
21
1.12939
0
LINE
8
BLACK
6
CONTINUOUS
10
2.24992
20
1.12939
11
2.24995
21
1.12934
0
LINE
8
BLACK
6
CONTINUOUS
10
2.24995
20
1.12934
11
2.24999
21
1.12932
0
LINE
8
BLACK
6
CONTINUOUS
10
2.24999
20
1.12932
11
2.25562
21
1.12369
0
LINE
8
BLACK
6
CONTINUOUS
10
2.25562
20
1.12369
11
2.25609
21
1.12287
0
LINE
8
BLACK
6
CONTINUOUS
10
2.25609
20
1.12287
11
2.25672
21
1.12216
0
LINE
8
BLACK
6
CONTINUOUS
10
2.25672
20
1.12216
11
2.25954
21
1.11653
0
LINE
8
BLACK
6
CONTINUOUS
10
2.25954
20
1.11653
11
2.25981
21
1.1152
0
LINE
8
BLACK
6
CONTINUOUS
10
2.25981
20
1.1152
11
2.26016
21
1.11389
0
LINE
8
BLACK
6
CONTINUOUS
10
2.26016
20
1.11389
11
2.26016
21
1.10264
0
LINE
8
BLACK
6
CONTINUOUS
10
2.26016
20
1.10264
11
2.25981
21
1.10133
0
LINE
8
BLACK
6
CONTINUOUS
10
2.25981
20
1.10133
11
2.25954
21
1.1
0
LINE
8
BLACK
6
CONTINUOUS
10
2.25954
20
1.1
11
2.25672
21
1.09438
0
LINE
8
BLACK
6
CONTINUOUS
10
2.25672
20
1.09438
11
2.25609
21
1.09367
0
LINE
8
BLACK
6
CONTINUOUS
10
2.25609
20
1.09367
11
2.25562
21
1.09284
0
LINE
8
BLACK
6
CONTINUOUS
10
2.25562
20
1.09284
11
2.24999
21
1.08722
0
LINE
8
BLACK
6
CONTINUOUS
10
2.24999
20
1.08722
11
2.24995
21
1.08719
0
LINE
8
BLACK
6
CONTINUOUS
10
2.24995
20
1.08719
11
2.24992
21
1.08715
0
LINE
8
BLACK
6
CONTINUOUS
10
2.24992
20
1.08715
11
2.24863
21
1.08643
0
LINE
8
BLACK
6
CONTINUOUS
10
2.24863
20
1.08643
11
2.24735
21
1.08569
0
LINE
8
BLACK
6
CONTINUOUS
10
2.24735
20
1.08569
11
2.2473
21
1.08569
0
LINE
8
BLACK
6
CONTINUOUS
10
2.2473
20
1.08569
11
2.24725
21
1.08567
0
LINE
8
BLACK
6
CONTINUOUS
10
2.24725
20
1.08567
11
2.236
21
1.08285
0
LINE
8
BLACK
6
CONTINUOUS
10
2.236
20
1.08285
11
2.23527
21
1.08287
0
LINE
8
BLACK
6
CONTINUOUS
10
2.23527
20
1.08287
11
2.23457
21
1.08268
0
LINE
8
BLACK
6
CONTINUOUS
10
2.23457
20
1.08268
11
2.21488
21
1.08268
0
LINE
8
BLACK
6
CONTINUOUS
10
2.21488
20
1.08268
11
2.21418
21
1.08287
0
LINE
8
BLACK
6
CONTINUOUS
10
2.21418
20
1.08287
11
2.21345
21
1.08285
0
LINE
8
BLACK
6
CONTINUOUS
10
2.21345
20
1.08285
11
2.2022
21
1.08567
0
LINE
8
BLACK
6
CONTINUOUS
10
2.2022
20
1.08567
11
2.20216
21
1.08569
0
LINE
8
BLACK
6
CONTINUOUS
10
2.20216
20
1.08569
11
2.20211
21
1.08569
0
LINE
8
BLACK
6
CONTINUOUS
10
2.20211
20
1.08569
11
2.20083
21
1.08643
0
LINE
8
BLACK
6
CONTINUOUS
10
2.20083
20
1.08643
11
2.19953
21
1.08715
0
LINE
8
BLACK
6
CONTINUOUS
10
2.19953
20
1.08715
11
2.1995
21
1.08719
0
LINE
8
BLACK
6
CONTINUOUS
10
2.1995
20
1.08719
11
2.19946
21
1.08722
0
LINE
8
BLACK
6
CONTINUOUS
10
2.19946
20
1.08722
11
2.19384
21
1.09284
0
LINE
8
BLACK
6
CONTINUOUS
10
2.19384
20
1.09284
11
2.19336
21
1.09367
0
LINE
8
BLACK
6
CONTINUOUS
10
2.19336
20
1.09367
11
2.19273
21
1.09438
0
LINE
8
BLACK
6
CONTINUOUS
10
2.19273
20
1.09438
11
2.18992
21
1.1
0
LINE
8
BLACK
6
CONTINUOUS
10
2.18992
20
1.1
11
2.18965
21
1.10133
0
LINE
8
BLACK
6
CONTINUOUS
10
2.18965
20
1.10133
11
2.18929
21
1.10264
0
LINE
8
BLACK
6
CONTINUOUS
10
2.18929
20
1.10264
11
2.18929
21
1.11389
0
LINE
8
BLACK
6
CONTINUOUS
10
2.18929
20
1.11389
11
2.18965
21
1.1152
0
LINE
8
BLACK
6
CONTINUOUS
10
2.18965
20
1.1152
11
2.18992
21
1.11653
0
LINE
8
BLACK
6
CONTINUOUS
10
2.18992
20
1.11653
11
2.19273
21
1.12216
0
LINE
8
BLACK
6
CONTINUOUS
10
2.19273
20
1.12216
11
2.19336
21
1.12287
0
LINE
8
BLACK
6
CONTINUOUS
10
2.19336
20
1.12287
11
2.19384
21
1.12369
0
LINE
8
BLACK
6
CONTINUOUS
10
2.19384
20
1.12369
11
2.19946
21
1.12932
0
LINE
8
BLACK
6
CONTINUOUS
10
2.19946
20
1.12932
11
2.1995
21
1.12934
0
LINE
8
BLACK
6
CONTINUOUS
10
2.1995
20
1.12934
11
2.19953
21
1.12939
0
LINE
8
BLACK
6
CONTINUOUS
10
2.19953
20
1.12939
11
2.20082
21
1.1301
0
LINE
8
BLACK
6
CONTINUOUS
10
2.20082
20
1.1301
11
2.20211
21
1.13084
0
LINE
8
BLACK
6
CONTINUOUS
10
2.20211
20
1.13084
11
2.20216
21
1.13084
0
LINE
8
BLACK
6
CONTINUOUS
10
2.20216
20
1.13084
11
2.2022
21
1.13087
0
LINE
8
BLACK
6
CONTINUOUS
10
2.2022
20
1.13087
11
2.21345
21
1.13368
0
LINE
8
BLACK
6
CONTINUOUS
10
2.21345
20
1.13368
11
2.21418
21
1.13367
0
LINE
8
BLACK
6
CONTINUOUS
10
2.21418
20
1.13367
11
2.21488
21
1.13386
0
LINE
8
BLACK
6
CONTINUOUS
10
2.21488
20
1.13386
11
2.23457
21
1.13386
0
LINE
8
BLACK
6
CONTINUOUS
10
2.23457
20
1.13386
11
2.23527
21
1.13367
0
LINE
8
BLACK
6
CONTINUOUS
10
2.21561
20
1.12205
11
2.20666
21
1.11981
0
LINE
8
BLACK
6
CONTINUOUS
10
2.20666
20
1.11981
11
2.20287
21
1.11602
0
LINE
8
BLACK
6
CONTINUOUS
10
2.20287
20
1.11602
11
2.20111
21
1.1125
0
LINE
8
BLACK
6
CONTINUOUS
10
2.20111
20
1.1125
11
2.20111
21
1.10404
0
LINE
8
BLACK
6
CONTINUOUS
10
2.20111
20
1.10404
11
2.20287
21
1.10052
0
LINE
8
BLACK
6
CONTINUOUS
10
2.20287
20
1.10052
11
2.20666
21
1.09673
0
LINE
8
BLACK
6
CONTINUOUS
10
2.20666
20
1.09673
11
2.21561
21
1.09449
0
LINE
8
BLACK
6
CONTINUOUS
10
2.21561
20
1.09449
11
2.23384
21
1.09449
0
LINE
8
BLACK
6
CONTINUOUS
10
2.23384
20
1.09449
11
2.2428
21
1.09673
0
LINE
8
BLACK
6
CONTINUOUS
10
2.2428
20
1.09673
11
2.24659
21
1.10052
0
LINE
8
BLACK
6
CONTINUOUS
10
2.24659
20
1.10052
11
2.24835
21
1.10404
0
LINE
8
BLACK
6
CONTINUOUS
10
2.24835
20
1.10404
11
2.24835
21
1.1125
0
LINE
8
BLACK
6
CONTINUOUS
10
2.24835
20
1.1125
11
2.24659
21
1.11602
0
LINE
8
BLACK
6
CONTINUOUS
10
2.24659
20
1.11602
11
2.2428
21
1.11981
0
LINE
8
BLACK
6
CONTINUOUS
10
2.2428
20
1.11981
11
2.23384
21
1.12205
0
LINE
8
BLACK
6
CONTINUOUS
10
2.23384
20
1.12205
11
2.21561
21
1.12205
0
LINE
8
BLACK
6
CONTINUOUS
10
2.14924
20
1.13351
11
2.15057
21
1.13323
0
LINE
8
BLACK
6
CONTINUOUS
10
2.15057
20
1.13323
11
2.15619
21
1.13042
0
LINE
8
BLACK
6
CONTINUOUS
10
2.15619
20
1.13042
11
2.1569
21
1.12979
0
LINE
8
BLACK
6
CONTINUOUS
10
2.1569
20
1.12979
11
2.15773
21
1.12932
0
LINE
8
BLACK
6
CONTINUOUS
10
2.15773
20
1.12932
11
2.16054
21
1.1265
0
LINE
8
BLACK
6
CONTINUOUS
10
2.16054
20
1.1265
11
2.16102
21
1.12568
0
LINE
8
BLACK
6
CONTINUOUS
10
2.16102
20
1.12568
11
2.16165
21
1.12497
0
LINE
8
BLACK
6
CONTINUOUS
10
2.16165
20
1.12497
11
2.16446
21
1.11935
0
LINE
8
BLACK
6
CONTINUOUS
10
2.16446
20
1.11935
11
2.16473
21
1.11802
0
LINE
8
BLACK
6
CONTINUOUS
10
2.16473
20
1.11802
11
2.16508
21
1.1167
0
LINE
8
BLACK
6
CONTINUOUS
10
2.16508
20
1.1167
11
2.16508
21
1.10264
0
LINE
8
BLACK
6
CONTINUOUS
10
2.16508
20
1.10264
11
2.16473
21
1.10133
0
LINE
8
BLACK
6
CONTINUOUS
10
2.16473
20
1.10133
11
2.16446
21
1.1
0
LINE
8
BLACK
6
CONTINUOUS
10
2.16446
20
1.1
11
2.16165
21
1.09438
0
LINE
8
BLACK
6
CONTINUOUS
10
2.16165
20
1.09438
11
2.16102
21
1.09367
0
LINE
8
BLACK
6
CONTINUOUS
10
2.16102
20
1.09367
11
2.16054
21
1.09284
0
LINE
8
BLACK
6
CONTINUOUS
10
2.16054
20
1.09284
11
2.15773
21
1.09003
0
LINE
8
BLACK
6
CONTINUOUS
10
2.15773
20
1.09003
11
2.15508
21
1.0885
0
LINE
8
BLACK
6
CONTINUOUS
10
2.15508
20
1.0885
11
2.15202
21
1.0885
0
LINE
8
BLACK
6
CONTINUOUS
10
2.15202
20
1.0885
11
2.14938
21
1.09003
0
LINE
8
BLACK
6
CONTINUOUS
10
2.14938
20
1.09003
11
2.14785
21
1.09268
0
LINE
8
BLACK
6
CONTINUOUS
10
2.14785
20
1.09268
11
2.14785
21
1.09574
0
LINE
8
BLACK
6
CONTINUOUS
10
2.14785
20
1.09574
11
2.14938
21
1.09838
0
LINE
8
BLACK
6
CONTINUOUS
10
2.14938
20
1.09838
11
2.15151
21
1.10052
0
LINE
8
BLACK
6
CONTINUOUS
10
2.15151
20
1.10052
11
2.15327
21
1.10404
0
LINE
8
BLACK
6
CONTINUOUS
10
2.15327
20
1.10404
11
2.15327
21
1.11531
0
LINE
8
BLACK
6
CONTINUOUS
10
2.15327
20
1.11531
11
2.15151
21
1.11883
0
LINE
8
BLACK
6
CONTINUOUS
10
2.15151
20
1.11883
11
2.15005
21
1.12029
0
LINE
8
BLACK
6
CONTINUOUS
10
2.15005
20
1.12029
11
2.14653
21
1.12205
0
LINE
8
BLACK
6
CONTINUOUS
10
2.14653
20
1.12205
11
2.13526
21
1.12205
0
LINE
8
BLACK
6
CONTINUOUS
10
2.13526
20
1.12205
11
2.13174
21
1.12029
0
LINE
8
BLACK
6
CONTINUOUS
10
2.13174
20
1.12029
11
2.13028
21
1.11883
0
LINE
8
BLACK
6
CONTINUOUS
10
2.13028
20
1.11883
11
2.12852
21
1.11531
0
LINE
8
BLACK
6
CONTINUOUS
10
2.12852
20
1.11531
11
2.12852
21
1.10404
0
LINE
8
BLACK
6
CONTINUOUS
10
2.12852
20
1.10404
11
2.13028
21
1.10052
0
LINE
8
BLACK
6
CONTINUOUS
10
2.13028
20
1.10052
11
2.13242
21
1.09838
0
LINE
8
BLACK
6
CONTINUOUS
10
2.13242
20
1.09838
11
2.13295
21
1.09746
0
LINE
8
BLACK
6
CONTINUOUS
10
2.13295
20
1.09746
11
2.13363
21
1.09664
0
LINE
8
BLACK
6
CONTINUOUS
10
2.13363
20
1.09664
11
2.1337
21
1.09616
0
LINE
8
BLACK
6
CONTINUOUS
10
2.1337
20
1.09616
11
2.13395
21
1.09574
0
LINE
8
BLACK
6
CONTINUOUS
10
2.13395
20
1.09574
11
2.13395
21
1.09467
0
LINE
8
BLACK
6
CONTINUOUS
10
2.13395
20
1.09467
11
2.13412
21
1.09362
0
LINE
8
BLACK
6
CONTINUOUS
10
2.13412
20
1.09362
11
2.13395
21
1.09316
0
LINE
8
BLACK
6
CONTINUOUS
10
2.13395
20
1.09316
11
2.13395
21
1.09268
0
LINE
8
BLACK
6
CONTINUOUS
10
2.13395
20
1.09268
11
2.13341
21
1.09176
0
LINE
8
BLACK
6
CONTINUOUS
10
2.13341
20
1.09176
11
2.13304
21
1.09076
0
LINE
8
BLACK
6
CONTINUOUS
10
2.13304
20
1.09076
11
2.13266
21
1.09045
0
LINE
8
BLACK
6
CONTINUOUS
10
2.13266
20
1.09045
11
2.13242
21
1.09003
0
LINE
8
BLACK
6
CONTINUOUS
10
2.13242
20
1.09003
11
2.1315
21
1.0895
0
LINE
8
BLACK
6
CONTINUOUS
10
2.1315
20
1.0895
11
2.13067
21
1.08882
0
LINE
8
BLACK
6
CONTINUOUS
10
2.13067
20
1.08882
11
2.13019
21
1.08875
0
LINE
8
BLACK
6
CONTINUOUS
10
2.13019
20
1.08875
11
2.12977
21
1.0885
0
LINE
8
BLACK
6
CONTINUOUS
10
2.12977
20
1.0885
11
2.12871
21
1.0885
0
LINE
8
BLACK
6
CONTINUOUS
10
2.12871
20
1.0885
11
2.12765
21
1.08833
0
LINE
8
BLACK
6
CONTINUOUS
10
2.12765
20
1.08833
11
2.09953
21
1.09114
0
LINE
8
BLACK
6
CONTINUOUS
10
2.09953
20
1.09114
11
2.09837
21
1.09158
0
LINE
8
BLACK
6
CONTINUOUS
10
2.09837
20
1.09158
11
2.09717
21
1.0919
0
LINE
8
BLACK
6
CONTINUOUS
10
2.09717
20
1.0919
11
2.09696
21
1.09212
0
LINE
8
BLACK
6
CONTINUOUS
10
2.09696
20
1.09212
11
2.09667
21
1.09222
0
LINE
8
BLACK
6
CONTINUOUS
10
2.09667
20
1.09222
11
2.09589
21
1.09319
0
LINE
8
BLACK
6
CONTINUOUS
10
2.09589
20
1.09319
11
2.09501
21
1.09407
0
LINE
8
BLACK
6
CONTINUOUS
10
2.09501
20
1.09407
11
2.09493
21
1.09436
0
LINE
8
BLACK
6
CONTINUOUS
10
2.09493
20
1.09436
11
2.09474
21
1.09459
0
LINE
8
BLACK
6
CONTINUOUS
10
2.09474
20
1.09459
11
2.09454
21
1.09582
0
LINE
8
BLACK
6
CONTINUOUS
10
2.09454
20
1.09582
11
2.09422
21
1.09702
0
LINE
8
BLACK
6
CONTINUOUS
10
2.09422
20
1.09702
11
2.09422
21
1.12514
0
LINE
8
BLACK
6
CONTINUOUS
10
2.09422
20
1.12514
11
2.09501
21
1.12809
0
LINE
8
BLACK
6
CONTINUOUS
10
2.09501
20
1.12809
11
2.09717
21
1.13025
0
LINE
8
BLACK
6
CONTINUOUS
10
2.09717
20
1.13025
11
2.10012
21
1.13105
0
LINE
8
BLACK
6
CONTINUOUS
10
2.10012
20
1.13105
11
2.10307
21
1.13025
0
LINE
8
BLACK
6
CONTINUOUS
10
2.10307
20
1.13025
11
2.10524
21
1.12809
0
LINE
8
BLACK
6
CONTINUOUS
10
2.10524
20
1.12809
11
2.10603
21
1.12514
0
LINE
8
BLACK
6
CONTINUOUS
10
2.10603
20
1.12514
11
2.10603
21
1.10236
0
LINE
8
BLACK
6
CONTINUOUS
10
2.10603
20
1.10236
11
2.11708
21
1.10126
0
LINE
8
BLACK
6
CONTINUOUS
10
2.11708
20
1.10126
11
2.11706
21
1.10133
0
LINE
8
BLACK
6
CONTINUOUS
10
2.11706
20
1.10133
11
2.11671
21
1.10264
0
LINE
8
BLACK
6
CONTINUOUS
10
2.11671
20
1.10264
11
2.11671
21
1.1167
0
LINE
8
BLACK
6
CONTINUOUS
10
2.11671
20
1.1167
11
2.11706
21
1.11802
0
LINE
8
BLACK
6
CONTINUOUS
10
2.11706
20
1.11802
11
2.11734
21
1.11935
0
LINE
8
BLACK
6
CONTINUOUS
10
2.11734
20
1.11935
11
2.12015
21
1.12497
0
LINE
8
BLACK
6
CONTINUOUS
10
2.12015
20
1.12497
11
2.12078
21
1.12568
0
LINE
8
BLACK
6
CONTINUOUS
10
2.12078
20
1.12568
11
2.12125
21
1.1265
0
LINE
8
BLACK
6
CONTINUOUS
10
2.12125
20
1.1265
11
2.12407
21
1.12932
0
LINE
8
BLACK
6
CONTINUOUS
10
2.12407
20
1.12932
11
2.12489
21
1.12979
0
LINE
8
BLACK
6
CONTINUOUS
10
2.12489
20
1.12979
11
2.1256
21
1.13042
0
LINE
8
BLACK
6
CONTINUOUS
10
2.1256
20
1.13042
11
2.13123
21
1.13323
0
LINE
8
BLACK
6
CONTINUOUS
10
2.13123
20
1.13323
11
2.13256
21
1.13351
0
LINE
8
BLACK
6
CONTINUOUS
10
2.13256
20
1.13351
11
2.13387
21
1.13386
0
LINE
8
BLACK
6
CONTINUOUS
10
2.13387
20
1.13386
11
2.14793
21
1.13386
0
LINE
8
BLACK
6
CONTINUOUS
10
2.14793
20
1.13386
11
2.14924
21
1.13351
0
LINE
8
BLACK
6
CONTINUOUS
10
0.192129
20
1.17087
11
0.19429
21
1.16871
0
LINE
8
BLACK
6
CONTINUOUS
10
0.19429
20
1.16871
11
0.195082
21
1.16576
0
LINE
8
BLACK
6
CONTINUOUS
10
0.195082
20
1.16576
11
0.195082
21
1.12639
0
LINE
8
BLACK
6
CONTINUOUS
10
0.195082
20
1.12639
11
0.195031
21
1.1262
0
LINE
8
BLACK
6
CONTINUOUS
10
0.195031
20
1.1262
11
0.195069
21
1.12601
0
LINE
8
BLACK
6
CONTINUOUS
10
0.195069
20
1.12601
11
0.194638
21
1.12474
0
LINE
8
BLACK
6
CONTINUOUS
10
0.194638
20
1.12474
11
0.19429
21
1.12344
0
LINE
8
BLACK
6
CONTINUOUS
10
0.19429
20
1.12344
11
0.194152
21
1.1233
0
LINE
8
BLACK
6
CONTINUOUS
10
0.194152
20
1.1233
11
0.19409
21
1.12311
0
LINE
8
BLACK
6
CONTINUOUS
10
0.19409
20
1.12311
11
0.19308
21
1.12223
0
LINE
8
BLACK
6
CONTINUOUS
10
0.19308
20
1.12223
11
0.192129
21
1.12127
0
LINE
8
BLACK
6
CONTINUOUS
10
0.192129
20
1.12127
11
0.19194
21
1.12122
0
LINE
8
BLACK
6
CONTINUOUS
10
0.19194
20
1.12122
11
0.191794
21
1.1211
0
LINE
8
BLACK
6
CONTINUOUS
10
0.191794
20
1.1211
11
0.190475
21
1.12083
0
LINE
8
BLACK
6
CONTINUOUS
10
0.190475
20
1.12083
11
0.189176
21
1.12048
0
LINE
8
BLACK
6
CONTINUOUS
10
0.189176
20
1.12048
11
0.188987
21
1.12053
0
LINE
8
BLACK
6
CONTINUOUS
10
0.188987
20
1.12053
11
0.188796
21
1.1205
0
LINE
8
BLACK
6
CONTINUOUS
10
0.188796
20
1.1205
11
0.187522
21
1.12093
0
LINE
8
BLACK
6
CONTINUOUS
10
0.187522
20
1.12093
11
0.186223
21
1.12127
0
LINE
8
BLACK
6
CONTINUOUS
10
0.186223
20
1.12127
11
0.186085
21
1.12141
0
LINE
8
BLACK
6
CONTINUOUS
10
0.186085
20
1.12141
11
0.1859
21
1.12148
0
LINE
8
BLACK
6
CONTINUOUS
10
0.1859
20
1.12148
11
0.136026
21
1.15472
0
LINE
8
BLACK
6
CONTINUOUS
10
0.136026
20
1.15472
11
0.136026
21
1.12639
0
LINE
8
BLACK
6
CONTINUOUS
10
0.136026
20
1.12639
11
0.135235
21
1.12344
0
LINE
8
BLACK
6
CONTINUOUS
10
0.135235
20
1.12344
11
0.133074
21
1.12127
0
LINE
8
BLACK
6
CONTINUOUS
10
0.133074
20
1.12127
11
0.130121
21
1.12048
0
LINE
8
BLACK
6
CONTINUOUS
10
0.130121
20
1.12048
11
0.127168
21
1.12127
0
LINE
8
BLACK
6
CONTINUOUS
10
0.127168
20
1.12127
11
0.125007
21
1.12344
0
LINE
8
BLACK
6
CONTINUOUS
10
0.125007
20
1.12344
11
0.124215
21
1.12639
0
LINE
8
BLACK
6
CONTINUOUS
10
0.124215
20
1.12639
11
0.124215
21
1.16576
0
LINE
8
BLACK
6
CONTINUOUS
10
0.124215
20
1.16576
11
0.124266
21
1.16595
0
LINE
8
BLACK
6
CONTINUOUS
10
0.124266
20
1.16595
11
0.124228
21
1.16614
0
LINE
8
BLACK
6
CONTINUOUS
10
0.124228
20
1.16614
11
0.124659
21
1.16741
0
LINE
8
BLACK
6
CONTINUOUS
10
0.124659
20
1.16741
11
0.125007
21
1.16871
0
LINE
8
BLACK
6
CONTINUOUS
10
0.125007
20
1.16871
11
0.125145
21
1.16885
0
LINE
8
BLACK
6
CONTINUOUS
10
0.125145
20
1.16885
11
0.125207
21
1.16904
0
LINE
8
BLACK
6
CONTINUOUS
10
0.125207
20
1.16904
11
0.126217
21
1.16992
0
LINE
8
BLACK
6
CONTINUOUS
10
0.126217
20
1.16992
11
0.127168
21
1.17087
0
LINE
8
BLACK
6
CONTINUOUS
10
0.127168
20
1.17087
11
0.127357
21
1.17092
0
LINE
8
BLACK
6
CONTINUOUS
10
0.127357
20
1.17092
11
0.127503
21
1.17105
0
LINE
8
BLACK
6
CONTINUOUS
10
0.127503
20
1.17105
11
0.128822
21
1.17132
0
LINE
8
BLACK
6
CONTINUOUS
10
0.128822
20
1.17132
11
0.130121
21
1.17166
0
LINE
8
BLACK
6
CONTINUOUS
10
0.130121
20
1.17166
11
0.13031
21
1.17161
0
LINE
8
BLACK
6
CONTINUOUS
10
0.13031
20
1.17161
11
0.130501
21
1.17165
0
LINE
8
BLACK
6
CONTINUOUS
10
0.130501
20
1.17165
11
0.131775
21
1.17122
0
LINE
8
BLACK
6
CONTINUOUS
10
0.131775
20
1.17122
11
0.133074
21
1.17087
0
LINE
8
BLACK
6
CONTINUOUS
10
0.133074
20
1.17087
11
0.133212
21
1.17074
0
LINE
8
BLACK
6
CONTINUOUS
10
0.133212
20
1.17074
11
0.133397
21
1.17067
0
LINE
8
BLACK
6
CONTINUOUS
10
0.133397
20
1.17067
11
0.183271
21
1.13742
0
LINE
8
BLACK
6
CONTINUOUS
10
0.183271
20
1.13742
11
0.183271
21
1.16576
0
LINE
8
BLACK
6
CONTINUOUS
10
0.183271
20
1.16576
11
0.184062
21
1.16871
0
LINE
8
BLACK
6
CONTINUOUS
10
0.184062
20
1.16871
11
0.186223
21
1.17087
0
LINE
8
BLACK
6
CONTINUOUS
10
0.186223
20
1.17087
11
0.189176
21
1.17166
0
LINE
8
BLACK
6
CONTINUOUS
10
0.189176
20
1.17166
11
0.192129
21
1.17087
0
LINE
8
BLACK
6
CONTINUOUS
10
2.10199
20
1.1898
11
2.16104
21
1.17011
0
LINE
8
BLACK
6
CONTINUOUS
10
2.16104
20
1.17011
11
2.16203
21
1.16946
0
LINE
8
BLACK
6
CONTINUOUS
10
2.16203
20
1.16946
11
2.16309
21
1.16893
0
LINE
8
BLACK
6
CONTINUOUS
10
2.16309
20
1.16893
11
2.16329
21
1.16863
0
LINE
8
BLACK
6
CONTINUOUS
10
2.16329
20
1.16863
11
2.16359
21
1.16843
0
LINE
8
BLACK
6
CONTINUOUS
10
2.16359
20
1.16843
11
2.16412
21
1.16737
0
LINE
8
BLACK
6
CONTINUOUS
10
2.16412
20
1.16737
11
2.16478
21
1.16638
0
LINE
8
BLACK
6
CONTINUOUS
10
2.16478
20
1.16638
11
2.1648
21
1.16602
0
LINE
8
BLACK
6
CONTINUOUS
10
2.1648
20
1.16602
11
2.16496
21
1.16569
0
LINE
8
BLACK
6
CONTINUOUS
10
2.16496
20
1.16569
11
2.16489
21
1.16451
0
LINE
8
BLACK
6
CONTINUOUS
10
2.16489
20
1.16451
11
2.16496
21
1.16333
0
LINE
8
BLACK
6
CONTINUOUS
10
2.16496
20
1.16333
11
2.1648
21
1.163
0
LINE
8
BLACK
6
CONTINUOUS
10
2.1648
20
1.163
11
2.16478
21
1.16264
0
LINE
8
BLACK
6
CONTINUOUS
10
2.16478
20
1.16264
11
2.16412
21
1.16165
0
LINE
8
BLACK
6
CONTINUOUS
10
2.16412
20
1.16165
11
2.16359
21
1.16059
0
LINE
8
BLACK
6
CONTINUOUS
10
2.16359
20
1.16059
11
2.16329
21
1.16039
0
LINE
8
BLACK
6
CONTINUOUS
10
2.16329
20
1.16039
11
2.16309
21
1.16009
0
LINE
8
BLACK
6
CONTINUOUS
10
2.16309
20
1.16009
11
2.16203
21
1.15956
0
LINE
8
BLACK
6
CONTINUOUS
10
2.16203
20
1.15956
11
2.16104
21
1.15891
0
LINE
8
BLACK
6
CONTINUOUS
10
2.16104
20
1.15891
11
2.10199
21
1.13922
0
LINE
8
BLACK
6
CONTINUOUS
10
2.10199
20
1.13922
11
2.09894
21
1.13904
0
LINE
8
BLACK
6
CONTINUOUS
10
2.09894
20
1.13904
11
2.0962
21
1.14041
0
LINE
8
BLACK
6
CONTINUOUS
10
2.0962
20
1.14041
11
2.09452
21
1.14296
0
LINE
8
BLACK
6
CONTINUOUS
10
2.09452
20
1.14296
11
2.09434
21
1.14601
0
LINE
8
BLACK
6
CONTINUOUS
10
2.09434
20
1.14601
11
2.0957
21
1.14874
0
LINE
8
BLACK
6
CONTINUOUS
10
2.0957
20
1.14874
11
2.09825
21
1.15043
0
LINE
8
BLACK
6
CONTINUOUS
10
2.09825
20
1.15043
11
2.1405
21
1.16451
0
LINE
8
BLACK
6
CONTINUOUS
10
2.1405
20
1.16451
11
2.09825
21
1.17859
0
LINE
8
BLACK
6
CONTINUOUS
10
2.09825
20
1.17859
11
2.0957
21
1.18028
0
LINE
8
BLACK
6
CONTINUOUS
10
2.0957
20
1.18028
11
2.09434
21
1.18301
0
LINE
8
BLACK
6
CONTINUOUS
10
2.09434
20
1.18301
11
2.09452
21
1.18606
0
LINE
8
BLACK
6
CONTINUOUS
10
2.09452
20
1.18606
11
2.0962
21
1.18861
0
LINE
8
BLACK
6
CONTINUOUS
10
2.0962
20
1.18861
11
2.09894
21
1.18998
0
LINE
8
BLACK
6
CONTINUOUS
10
2.09894
20
1.18998
11
2.10199
21
1.1898
0
LINE
8
BLACK
6
CONTINUOUS
10
2.13738
20
1.24053
11
2.13811
21
1.24054
0
LINE
8
BLACK
6
CONTINUOUS
10
2.13811
20
1.24054
11
2.14936
21
1.23773
0
LINE
8
BLACK
6
CONTINUOUS
10
2.14936
20
1.23773
11
2.14993
21
1.23742
0
LINE
8
BLACK
6
CONTINUOUS
10
2.14993
20
1.23742
11
2.15057
21
1.23728
0
LINE
8
BLACK
6
CONTINUOUS
10
2.15057
20
1.23728
11
2.15619
21
1.23447
0
LINE
8
BLACK
6
CONTINUOUS
10
2.15619
20
1.23447
11
2.1569
21
1.23384
0
LINE
8
BLACK
6
CONTINUOUS
10
2.1569
20
1.23384
11
2.15773
21
1.23337
0
LINE
8
BLACK
6
CONTINUOUS
10
2.15773
20
1.23337
11
2.16054
21
1.23055
0
LINE
8
BLACK
6
CONTINUOUS
10
2.16054
20
1.23055
11
2.16102
21
1.22973
0
LINE
8
BLACK
6
CONTINUOUS
10
2.16102
20
1.22973
11
2.16165
21
1.22902
0
LINE
8
BLACK
6
CONTINUOUS
10
2.16165
20
1.22902
11
2.16446
21
1.22339
0
LINE
8
BLACK
6
CONTINUOUS
10
2.16446
20
1.22339
11
2.16473
21
1.22206
0
LINE
8
BLACK
6
CONTINUOUS
10
2.16473
20
1.22206
11
2.16508
21
1.22075
0
LINE
8
BLACK
6
CONTINUOUS
10
2.16508
20
1.22075
11
2.16508
21
1.21513
0
LINE
8
BLACK
6
CONTINUOUS
10
2.16508
20
1.21513
11
2.16473
21
1.21382
0
LINE
8
BLACK
6
CONTINUOUS
10
2.16473
20
1.21382
11
2.16446
21
1.21249
0
LINE
8
BLACK
6
CONTINUOUS
10
2.16446
20
1.21249
11
2.16165
21
1.20686
0
LINE
8
BLACK
6
CONTINUOUS
10
2.16165
20
1.20686
11
2.16102
21
1.20615
0
LINE
8
BLACK
6
CONTINUOUS
10
2.16102
20
1.20615
11
2.16054
21
1.20533
0
LINE
8
BLACK
6
CONTINUOUS
10
2.16054
20
1.20533
11
2.15773
21
1.20252
0
LINE
8
BLACK
6
CONTINUOUS
10
2.15773
20
1.20252
11
2.1569
21
1.20204
0
LINE
8
BLACK
6
CONTINUOUS
10
2.1569
20
1.20204
11
2.15619
21
1.20141
0
LINE
8
BLACK
6
CONTINUOUS
10
2.15619
20
1.20141
11
2.15057
21
1.1986
0
LINE
8
BLACK
6
CONTINUOUS
10
2.15057
20
1.1986
11
2.14993
21
1.19847
0
LINE
8
BLACK
6
CONTINUOUS
10
2.14993
20
1.19847
11
2.14936
21
1.19815
0
LINE
8
BLACK
6
CONTINUOUS
10
2.14936
20
1.19815
11
2.13811
21
1.19534
0
LINE
8
BLACK
6
CONTINUOUS
10
2.13811
20
1.19534
11
2.13738
21
1.19535
0
LINE
8
BLACK
6
CONTINUOUS
10
2.13738
20
1.19535
11
2.13668
21
1.19516
0
LINE
8
BLACK
6
CONTINUOUS
10
2.13668
20
1.19516
11
2.12262
21
1.19516
0
LINE
8
BLACK
6
CONTINUOUS
10
2.12262
20
1.19516
11
2.12191
21
1.19535
0
LINE
8
BLACK
6
CONTINUOUS
10
2.12191
20
1.19535
11
2.12119
21
1.19534
0
LINE
8
BLACK
6
CONTINUOUS
10
2.12119
20
1.19534
11
2.10994
21
1.19815
0
LINE
8
BLACK
6
CONTINUOUS
10
2.10994
20
1.19815
11
2.10937
21
1.19847
0
LINE
8
BLACK
6
CONTINUOUS
10
2.10937
20
1.19847
11
2.10873
21
1.1986
0
LINE
8
BLACK
6
CONTINUOUS
10
2.10873
20
1.1986
11
2.1031
21
1.20141
0
LINE
8
BLACK
6
CONTINUOUS
10
2.1031
20
1.20141
11
2.10239
21
1.20204
0
LINE
8
BLACK
6
CONTINUOUS
10
2.10239
20
1.20204
11
2.10157
21
1.20252
0
LINE
8
BLACK
6
CONTINUOUS
10
2.10157
20
1.20252
11
2.09876
21
1.20533
0
LINE
8
BLACK
6
CONTINUOUS
10
2.09876
20
1.20533
11
2.09828
21
1.20615
0
LINE
8
BLACK
6
CONTINUOUS
10
2.09828
20
1.20615
11
2.09765
21
1.20686
0
LINE
8
BLACK
6
CONTINUOUS
10
2.09765
20
1.20686
11
2.09484
21
1.21249
0
LINE
8
BLACK
6
CONTINUOUS
10
2.09484
20
1.21249
11
2.09457
21
1.21382
0
LINE
8
BLACK
6
CONTINUOUS
10
2.09457
20
1.21382
11
2.09422
21
1.21513
0
LINE
8
BLACK
6
CONTINUOUS
10
2.09422
20
1.21513
11
2.09422
21
1.22075
0
LINE
8
BLACK
6
CONTINUOUS
10
2.09422
20
1.22075
11
2.09457
21
1.22206
0
LINE
8
BLACK
6
CONTINUOUS
10
2.09457
20
1.22206
11
2.09484
21
1.22339
0
LINE
8
BLACK
6
CONTINUOUS
10
2.09484
20
1.22339
11
2.09765
21
1.22902
0
LINE
8
BLACK
6
CONTINUOUS
10
2.09765
20
1.22902
11
2.09828
21
1.22973
0
LINE
8
BLACK
6
CONTINUOUS
10
2.09828
20
1.22973
11
2.09876
21
1.23055
0
LINE
8
BLACK
6
CONTINUOUS
10
2.09876
20
1.23055
11
2.10157
21
1.23337
0
LINE
8
BLACK
6
CONTINUOUS
10
2.10157
20
1.23337
11
2.10239
21
1.23384
0
LINE
8
BLACK
6
CONTINUOUS
10
2.10239
20
1.23384
11
2.1031
21
1.23447
0
LINE
8
BLACK
6
CONTINUOUS
10
2.1031
20
1.23447
11
2.10873
21
1.23728
0
LINE
8
BLACK
6
CONTINUOUS
10
2.10873
20
1.23728
11
2.10937
21
1.23742
0
LINE
8
BLACK
6
CONTINUOUS
10
2.10937
20
1.23742
11
2.10994
21
1.23773
0
LINE
8
BLACK
6
CONTINUOUS
10
2.10994
20
1.23773
11
2.12119
21
1.24054
0
LINE
8
BLACK
6
CONTINUOUS
10
2.12119
20
1.24054
11
2.12191
21
1.24053
0
LINE
8
BLACK
6
CONTINUOUS
10
2.12191
20
1.24053
11
2.12262
21
1.24072
0
LINE
8
BLACK
6
CONTINUOUS
10
2.12262
20
1.24072
11
2.13668
21
1.24072
0
LINE
8
BLACK
6
CONTINUOUS
10
2.13668
20
1.24072
11
2.13738
21
1.24053
0
LINE
8
BLACK
6
CONTINUOUS
10
2.12335
20
1.22891
11
2.11343
21
1.22643
0
LINE
8
BLACK
6
CONTINUOUS
10
2.11343
20
1.22643
11
2.10924
21
1.22434
0
LINE
8
BLACK
6
CONTINUOUS
10
2.10924
20
1.22434
11
2.10779
21
1.22288
0
LINE
8
BLACK
6
CONTINUOUS
10
2.10779
20
1.22288
11
2.10603
21
1.21936
0
LINE
8
BLACK
6
CONTINUOUS
10
2.10603
20
1.21936
11
2.10603
21
1.21652
0
LINE
8
BLACK
6
CONTINUOUS
10
2.10603
20
1.21652
11
2.10779
21
1.213
0
LINE
8
BLACK
6
CONTINUOUS
10
2.10779
20
1.213
11
2.10924
21
1.21155
0
LINE
8
BLACK
6
CONTINUOUS
10
2.10924
20
1.21155
11
2.11343
21
1.20945
0
LINE
8
BLACK
6
CONTINUOUS
10
2.11343
20
1.20945
11
2.12335
21
1.20697
0
LINE
8
BLACK
6
CONTINUOUS
10
2.12335
20
1.20697
11
2.13595
21
1.20697
0
LINE
8
BLACK
6
CONTINUOUS
10
2.13595
20
1.20697
11
2.14587
21
1.20945
0
LINE
8
BLACK
6
CONTINUOUS
10
2.14587
20
1.20945
11
2.15005
21
1.21155
0
LINE
8
BLACK
6
CONTINUOUS
10
2.15005
20
1.21155
11
2.15151
21
1.213
0
LINE
8
BLACK
6
CONTINUOUS
10
2.15151
20
1.213
11
2.15327
21
1.21652
0
LINE
8
BLACK
6
CONTINUOUS
10
2.15327
20
1.21652
11
2.15327
21
1.21936
0
LINE
8
BLACK
6
CONTINUOUS
10
2.15327
20
1.21936
11
2.15151
21
1.22288
0
LINE
8
BLACK
6
CONTINUOUS
10
2.15151
20
1.22288
11
2.15005
21
1.22434
0
LINE
8
BLACK
6
CONTINUOUS
10
2.15005
20
1.22434
11
2.14587
21
1.22643
0
LINE
8
BLACK
6
CONTINUOUS
10
2.14587
20
1.22643
11
2.13595
21
1.22891
0
LINE
8
BLACK
6
CONTINUOUS
10
2.13595
20
1.22891
11
2.12335
21
1.22891
0
LINE
8
BLACK
6
CONTINUOUS
10
2.11791
20
1.29672
11
2.11886
21
1.29666
0
LINE
8
BLACK
6
CONTINUOUS
10
2.11886
20
1.29666
11
2.1273
21
1.29385
0
LINE
8
BLACK
6
CONTINUOUS
10
2.1273
20
1.29385
11
2.12843
21
1.2931
0
LINE
8
BLACK
6
CONTINUOUS
10
2.12843
20
1.2931
11
2.12961
21
1.29242
0
LINE
8
BLACK
6
CONTINUOUS
10
2.12961
20
1.29242
11
2.15327
21
1.26876
0
LINE
8
BLACK
6
CONTINUOUS
10
2.15327
20
1.26876
11
2.15327
21
1.29106
0
LINE
8
BLACK
6
CONTINUOUS
10
2.15327
20
1.29106
11
2.15406
21
1.29401
0
LINE
8
BLACK
6
CONTINUOUS
10
2.15406
20
1.29401
11
2.15622
21
1.29617
0
LINE
8
BLACK
6
CONTINUOUS
10
2.15622
20
1.29617
11
2.15918
21
1.29696
0
LINE
8
BLACK
6
CONTINUOUS
10
2.15918
20
1.29696
11
2.16213
21
1.29617
0
LINE
8
BLACK
6
CONTINUOUS
10
2.16213
20
1.29617
11
2.16429
21
1.29401
0
LINE
8
BLACK
6
CONTINUOUS
10
2.16429
20
1.29401
11
2.16508
21
1.29106
0
LINE
8
BLACK
6
CONTINUOUS
10
2.16508
20
1.29106
11
2.16508
21
1.2545
0
LINE
8
BLACK
6
CONTINUOUS
10
2.16508
20
1.2545
11
2.16488
21
1.25375
0
LINE
8
BLACK
6
CONTINUOUS
10
2.16488
20
1.25375
11
2.16488
21
1.25297
0
LINE
8
BLACK
6
CONTINUOUS
10
2.16488
20
1.25297
11
2.16449
21
1.2523
0
LINE
8
BLACK
6
CONTINUOUS
10
2.16449
20
1.2523
11
2.16429
21
1.25155
0
LINE
8
BLACK
6
CONTINUOUS
10
2.16429
20
1.25155
11
2.16374
21
1.251
0
LINE
8
BLACK
6
CONTINUOUS
10
2.16374
20
1.251
11
2.16335
21
1.25032
0
LINE
8
BLACK
6
CONTINUOUS
10
2.16335
20
1.25032
11
2.16268
21
1.24993
0
LINE
8
BLACK
6
CONTINUOUS
10
2.16268
20
1.24993
11
2.16213
21
1.24939
0
LINE
8
BLACK
6
CONTINUOUS
10
2.16213
20
1.24939
11
2.16138
21
1.24918
0
LINE
8
BLACK
6
CONTINUOUS
10
2.16138
20
1.24918
11
2.1607
21
1.2488
0
LINE
8
BLACK
6
CONTINUOUS
10
2.1607
20
1.2488
11
2.15993
21
1.2488
0
LINE
8
BLACK
6
CONTINUOUS
10
2.15993
20
1.2488
11
2.15918
21
1.24859
0
LINE
8
BLACK
6
CONTINUOUS
10
2.15918
20
1.24859
11
2.15843
21
1.2488
0
LINE
8
BLACK
6
CONTINUOUS
10
2.15843
20
1.2488
11
2.15765
21
1.2488
0
LINE
8
BLACK
6
CONTINUOUS
10
2.15765
20
1.2488
11
2.15697
21
1.24918
0
LINE
8
BLACK
6
CONTINUOUS
10
2.15697
20
1.24918
11
2.15622
21
1.24939
0
LINE
8
BLACK
6
CONTINUOUS
10
2.15622
20
1.24939
11
2.15567
21
1.24993
0
LINE
8
BLACK
6
CONTINUOUS
10
2.15567
20
1.24993
11
2.155
21
1.25032
0
LINE
8
BLACK
6
CONTINUOUS
10
2.155
20
1.25032
11
2.12224
21
1.28308
0
LINE
8
BLACK
6
CONTINUOUS
10
2.12224
20
1.28308
11
2.11604
21
1.28515
0
LINE
8
BLACK
6
CONTINUOUS
10
2.11604
20
1.28515
11
2.11276
21
1.28515
0
LINE
8
BLACK
6
CONTINUOUS
10
2.11276
20
1.28515
11
2.10924
21
1.28339
0
LINE
8
BLACK
6
CONTINUOUS
10
2.10924
20
1.28339
11
2.10779
21
1.28193
0
LINE
8
BLACK
6
CONTINUOUS
10
2.10779
20
1.28193
11
2.10603
21
1.27841
0
LINE
8
BLACK
6
CONTINUOUS
10
2.10603
20
1.27841
11
2.10603
21
1.26714
0
LINE
8
BLACK
6
CONTINUOUS
10
2.10603
20
1.26714
11
2.10779
21
1.26362
0
LINE
8
BLACK
6
CONTINUOUS
10
2.10779
20
1.26362
11
2.10992
21
1.26149
0
LINE
8
BLACK
6
CONTINUOUS
10
2.10992
20
1.26149
11
2.11145
21
1.25884
0
LINE
8
BLACK
6
CONTINUOUS
10
2.11145
20
1.25884
11
2.11145
21
1.25578
0
LINE
8
BLACK
6
CONTINUOUS
10
2.11145
20
1.25578
11
2.10992
21
1.25314
0
LINE
8
BLACK
6
CONTINUOUS
10
2.10992
20
1.25314
11
2.10727
21
1.25161
0
LINE
8
BLACK
6
CONTINUOUS
10
2.10727
20
1.25161
11
2.10422
21
1.25161
0
LINE
8
BLACK
6
CONTINUOUS
10
2.10422
20
1.25161
11
2.10157
21
1.25314
0
LINE
8
BLACK
6
CONTINUOUS
10
2.10157
20
1.25314
11
2.09876
21
1.25595
0
LINE
8
BLACK
6
CONTINUOUS
10
2.09876
20
1.25595
11
2.09828
21
1.25677
0
LINE
8
BLACK
6
CONTINUOUS
10
2.09828
20
1.25677
11
2.09765
21
1.25748
0
LINE
8
BLACK
6
CONTINUOUS
10
2.09765
20
1.25748
11
2.09484
21
1.26311
0
LINE
8
BLACK
6
CONTINUOUS
10
2.09484
20
1.26311
11
2.09457
21
1.26444
0
LINE
8
BLACK
6
CONTINUOUS
10
2.09457
20
1.26444
11
2.09422
21
1.26575
0
LINE
8
BLACK
6
CONTINUOUS
10
2.09422
20
1.26575
11
2.09422
21
1.27981
0
LINE
8
BLACK
6
CONTINUOUS
10
2.09422
20
1.27981
11
2.09457
21
1.28112
0
LINE
8
BLACK
6
CONTINUOUS
10
2.09457
20
1.28112
11
2.09484
21
1.28245
0
LINE
8
BLACK
6
CONTINUOUS
10
2.09484
20
1.28245
11
2.09765
21
1.28807
0
LINE
8
BLACK
6
CONTINUOUS
10
2.09765
20
1.28807
11
2.09828
21
1.28879
0
LINE
8
BLACK
6
CONTINUOUS
10
2.09828
20
1.28879
11
2.09876
21
1.28961
0
LINE
8
BLACK
6
CONTINUOUS
10
2.09876
20
1.28961
11
2.10157
21
1.29242
0
LINE
8
BLACK
6
CONTINUOUS
10
2.10157
20
1.29242
11
2.10239
21
1.2929
0
LINE
8
BLACK
6
CONTINUOUS
10
2.10239
20
1.2929
11
2.1031
21
1.29353
0
LINE
8
BLACK
6
CONTINUOUS
10
2.1031
20
1.29353
11
2.10873
21
1.29634
0
LINE
8
BLACK
6
CONTINUOUS
10
2.10873
20
1.29634
11
2.11006
21
1.29661
0
LINE
8
BLACK
6
CONTINUOUS
10
2.11006
20
1.29661
11
2.11137
21
1.29696
0
LINE
8
BLACK
6
CONTINUOUS
10
2.11137
20
1.29696
11
2.11699
21
1.29696
0
LINE
8
BLACK
6
CONTINUOUS
10
2.11699
20
1.29696
11
2.11791
21
1.29672
0
LINE
8
BLACK
6
CONTINUOUS
10
2.16309
20
1.35172
11
2.16478
21
1.34917
0
LINE
8
BLACK
6
CONTINUOUS
10
2.16478
20
1.34917
11
2.16496
21
1.34612
0
LINE
8
BLACK
6
CONTINUOUS
10
2.16496
20
1.34612
11
2.16359
21
1.34338
0
LINE
8
BLACK
6
CONTINUOUS
10
2.16359
20
1.34338
11
2.16104
21
1.3417
0
LINE
8
BLACK
6
CONTINUOUS
10
2.16104
20
1.3417
11
2.14821
21
1.33742
0
LINE
8
BLACK
6
CONTINUOUS
10
2.14821
20
1.33742
11
2.14821
21
1.31781
0
LINE
8
BLACK
6
CONTINUOUS
10
2.14821
20
1.31781
11
2.16104
21
1.31353
0
LINE
8
BLACK
6
CONTINUOUS
10
2.16104
20
1.31353
11
2.16359
21
1.31185
0
LINE
8
BLACK
6
CONTINUOUS
10
2.16359
20
1.31185
11
2.16496
21
1.30911
0
LINE
8
BLACK
6
CONTINUOUS
10
2.16496
20
1.30911
11
2.16478
21
1.30606
0
LINE
8
BLACK
6
CONTINUOUS
10
2.16478
20
1.30606
11
2.16309
21
1.30351
0
LINE
8
BLACK
6
CONTINUOUS
10
2.16309
20
1.30351
11
2.16036
21
1.30214
0
LINE
8
BLACK
6
CONTINUOUS
10
2.16036
20
1.30214
11
2.15731
21
1.30233
0
LINE
8
BLACK
6
CONTINUOUS
10
2.15731
20
1.30233
11
2.09825
21
1.32201
0
LINE
8
BLACK
6
CONTINUOUS
10
2.09825
20
1.32201
11
2.09726
21
1.32267
0
LINE
8
BLACK
6
CONTINUOUS
10
2.09726
20
1.32267
11
2.0962
21
1.3232
0
LINE
8
BLACK
6
CONTINUOUS
10
2.0962
20
1.3232
11
2.096
21
1.3235
0
LINE
8
BLACK
6
CONTINUOUS
10
2.096
20
1.3235
11
2.0957
21
1.3237
0
LINE
8
BLACK
6
CONTINUOUS
10
2.0957
20
1.3237
11
2.09517
21
1.32476
0
LINE
8
BLACK
6
CONTINUOUS
10
2.09517
20
1.32476
11
2.09452
21
1.32575
0
LINE
8
BLACK
6
CONTINUOUS
10
2.09452
20
1.32575
11
2.0945
21
1.32611
0
LINE
8
BLACK
6
CONTINUOUS
10
2.0945
20
1.32611
11
2.09434
21
1.32643
0
LINE
8
BLACK
6
CONTINUOUS
10
2.09434
20
1.32643
11
2.09441
21
1.32762
0
LINE
8
BLACK
6
CONTINUOUS
10
2.09441
20
1.32762
11
2.09434
21
1.3288
0
LINE
8
BLACK
6
CONTINUOUS
10
2.09434
20
1.3288
11
2.0945
21
1.32912
0
LINE
8
BLACK
6
CONTINUOUS
10
2.0945
20
1.32912
11
2.09452
21
1.32948
0
LINE
8
BLACK
6
CONTINUOUS
10
2.09452
20
1.32948
11
2.09517
21
1.33047
0
LINE
8
BLACK
6
CONTINUOUS
10
2.09517
20
1.33047
11
2.0957
21
1.33153
0
LINE
8
BLACK
6
CONTINUOUS
10
2.0957
20
1.33153
11
2.096
21
1.33173
0
LINE
8
BLACK
6
CONTINUOUS
10
2.096
20
1.33173
11
2.0962
21
1.33203
0
LINE
8
BLACK
6
CONTINUOUS
10
2.0962
20
1.33203
11
2.09726
21
1.33256
0
LINE
8
BLACK
6
CONTINUOUS
10
2.09726
20
1.33256
11
2.09825
21
1.33322
0
LINE
8
BLACK
6
CONTINUOUS
10
2.09825
20
1.33322
11
2.15731
21
1.3529
0
LINE
8
BLACK
6
CONTINUOUS
10
2.15731
20
1.3529
11
2.16036
21
1.35309
0
LINE
8
BLACK
6
CONTINUOUS
10
2.16036
20
1.35309
11
2.16309
21
1.35172
0
LINE
8
BLACK
6
CONTINUOUS
10
2.1188
20
1.32762
11
2.1364
21
1.32175
0
LINE
8
BLACK
6
CONTINUOUS
10
2.1364
20
1.32175
11
2.1364
21
1.33348
0
LINE
8
BLACK
6
CONTINUOUS
10
2.1364
20
1.33348
11
2.1188
21
1.32762
  0
ENDSEC
  0
EOF
