  0
SECTION
  2
HEADER
  9
$ANGBASE
  50
0.0
  9
$ANGDIR
  70
1
  9
$MEASUREMENT
  70
0
  0
ENDSEC
  0
SECTION
  2
TABLES
  0
TABLE
  2
LTYPE
  70
4
  0
LTYPE
  5
40F
  2
CONTINUOUS
  70
0
  3
Solid line
  72
65
  73
0
  40
0.0
  0
LTYPE
  5
410
  2
DASHDOT
 70
0
  3
Dash Dot ____ _ ____ _
 72
65
 73
4
 40
2.0
 49
1.25
 49
-0.25
 49
0.25
 49
-0.25
  0
LTYPE
  5
411
  2
DASHED
 70
0
  3
Dashed __ __ __ __ __
 72
65
 73
2
 40
0.75
 49
0.5
 49
-0.25
  0
LTYPE
  5
43B
  2
DOTTED
 70
0
  3
Dotted .  .  .  .
 72
65
 73
2
 40
0.2
 49
0.0
 49
-0.2
  0
ENDTAB
  0
TABLE
  2
STYLE
  70
4
  0
STYLE
  2
KICAD
  70
0
  40
0
  41
1
  42
1
  50
0
  71
0
  3
isocp.shx
  0
STYLE
  2
KICADB
  70
0
  40
0
  41
1
  42
1
  50
0
  71
0
  3
isocp.shx
  0
STYLE
  2
KICADI
  70
0
  40
0
  41
1
  42
1
  50
15
  71
0
  3
isocp.shx
  0
STYLE
  2
KICADBI
  70
0
  40
0
  41
1
  42
1
  50
15
  71
0
  3
isocp.shx
  0
ENDTAB
  0
TABLE
  2
LAYER
  70
1
  0
LAYER
  2
BLACK
  70
0
  62
7
  6
CONTINUOUS
  0
ENDTAB
  0
ENDSEC
  0
SECTION
  2
ENTITIES
0
LINE
8
BLACK
6
CONTINUOUS
10
0.419234
20
0.21444
11
0.421788
21
0.212733
0
LINE
8
BLACK
6
CONTINUOUS
10
0.421788
20
0.212733
11
0.423495
21
0.210179
0
LINE
8
BLACK
6
CONTINUOUS
10
0.423495
20
0.210179
11
0.424094
21
0.207165
0
LINE
8
BLACK
6
CONTINUOUS
10
0.424094
20
0.207165
11
0.424094
21
0.147165
0
LINE
8
BLACK
6
CONTINUOUS
10
0.424094
20
0.147165
11
0.423495
21
0.144152
0
LINE
8
BLACK
6
CONTINUOUS
10
0.423495
20
0.144152
11
0.421788
21
0.141598
0
LINE
8
BLACK
6
CONTINUOUS
10
0.421788
20
0.141598
11
0.419234
21
0.139891
0
LINE
8
BLACK
6
CONTINUOUS
10
0.419234
20
0.139891
11
0.41622
21
0.139291
0
LINE
8
BLACK
6
CONTINUOUS
10
0.41622
20
0.139291
11
0.35622
21
0.139291
0
LINE
8
BLACK
6
CONTINUOUS
10
0.35622
20
0.139291
11
0.353207
21
0.139891
0
LINE
8
BLACK
6
CONTINUOUS
10
0.353207
20
0.139891
11
0.350653
21
0.141598
0
LINE
8
BLACK
6
CONTINUOUS
10
0.350653
20
0.141598
11
0.348946
21
0.144152
0
LINE
8
BLACK
6
CONTINUOUS
10
0.348946
20
0.144152
11
0.348346
21
0.147165
0
LINE
8
BLACK
6
CONTINUOUS
10
0.348346
20
0.147165
11
0.348346
21
0.207165
0
LINE
8
BLACK
6
CONTINUOUS
10
0.348346
20
0.207165
11
0.348946
21
0.210179
0
LINE
8
BLACK
6
CONTINUOUS
10
0.348946
20
0.210179
11
0.350653
21
0.212733
0
LINE
8
BLACK
6
CONTINUOUS
10
0.350653
20
0.212733
11
0.353207
21
0.21444
0
LINE
8
BLACK
6
CONTINUOUS
10
0.353207
20
0.21444
11
0.35622
21
0.215039
0
LINE
8
BLACK
6
CONTINUOUS
10
0.35622
20
0.215039
11
0.41622
21
0.215039
0
LINE
8
BLACK
6
CONTINUOUS
10
0.41622
20
0.215039
11
0.419234
21
0.21444
0
LINE
8
BLACK
6
CONTINUOUS
10
0.319234
20
0.21444
11
0.321788
21
0.212733
0
LINE
8
BLACK
6
CONTINUOUS
10
0.321788
20
0.212733
11
0.323495
21
0.210179
0
LINE
8
BLACK
6
CONTINUOUS
10
0.323495
20
0.210179
11
0.324094
21
0.207165
0
LINE
8
BLACK
6
CONTINUOUS
10
0.324094
20
0.207165
11
0.324094
21
0.147165
0
LINE
8
BLACK
6
CONTINUOUS
10
0.324094
20
0.147165
11
0.323495
21
0.144152
0
LINE
8
BLACK
6
CONTINUOUS
10
0.323495
20
0.144152
11
0.321788
21
0.141598
0
LINE
8
BLACK
6
CONTINUOUS
10
0.321788
20
0.141598
11
0.319234
21
0.139891
0
LINE
8
BLACK
6
CONTINUOUS
10
0.319234
20
0.139891
11
0.31622
21
0.139291
0
LINE
8
BLACK
6
CONTINUOUS
10
0.31622
20
0.139291
11
0.25622
21
0.139291
0
LINE
8
BLACK
6
CONTINUOUS
10
0.25622
20
0.139291
11
0.253207
21
0.139891
0
LINE
8
BLACK
6
CONTINUOUS
10
0.253207
20
0.139891
11
0.250653
21
0.141598
0
LINE
8
BLACK
6
CONTINUOUS
10
0.250653
20
0.141598
11
0.248946
21
0.144152
0
LINE
8
BLACK
6
CONTINUOUS
10
0.248946
20
0.144152
11
0.248346
21
0.147165
0
LINE
8
BLACK
6
CONTINUOUS
10
0.248346
20
0.147165
11
0.248346
21
0.207165
0
LINE
8
BLACK
6
CONTINUOUS
10
0.248346
20
0.207165
11
0.248946
21
0.210179
0
LINE
8
BLACK
6
CONTINUOUS
10
0.248946
20
0.210179
11
0.250653
21
0.212733
0
LINE
8
BLACK
6
CONTINUOUS
10
0.250653
20
0.212733
11
0.253207
21
0.21444
0
LINE
8
BLACK
6
CONTINUOUS
10
0.253207
20
0.21444
11
0.25622
21
0.215039
0
LINE
8
BLACK
6
CONTINUOUS
10
0.25622
20
0.215039
11
0.31622
21
0.215039
0
LINE
8
BLACK
6
CONTINUOUS
10
0.31622
20
0.215039
11
0.319234
21
0.21444
0
LINE
8
BLACK
6
CONTINUOUS
10
0.219234
20
0.21444
11
0.221788
21
0.212733
0
LINE
8
BLACK
6
CONTINUOUS
10
0.221788
20
0.212733
11
0.223495
21
0.210179
0
LINE
8
BLACK
6
CONTINUOUS
10
0.223495
20
0.210179
11
0.224094
21
0.207165
0
LINE
8
BLACK
6
CONTINUOUS
10
0.224094
20
0.207165
11
0.224094
21
0.147165
0
LINE
8
BLACK
6
CONTINUOUS
10
0.224094
20
0.147165
11
0.223495
21
0.144152
0
LINE
8
BLACK
6
CONTINUOUS
10
0.223495
20
0.144152
11
0.221788
21
0.141598
0
LINE
8
BLACK
6
CONTINUOUS
10
0.221788
20
0.141598
11
0.219234
21
0.139891
0
LINE
8
BLACK
6
CONTINUOUS
10
0.219234
20
0.139891
11
0.21622
21
0.139291
0
LINE
8
BLACK
6
CONTINUOUS
10
0.21622
20
0.139291
11
0.15622
21
0.139291
0
LINE
8
BLACK
6
CONTINUOUS
10
0.15622
20
0.139291
11
0.153207
21
0.139891
0
LINE
8
BLACK
6
CONTINUOUS
10
0.153207
20
0.139891
11
0.150653
21
0.141598
0
LINE
8
BLACK
6
CONTINUOUS
10
0.150653
20
0.141598
11
0.148946
21
0.144152
0
LINE
8
BLACK
6
CONTINUOUS
10
0.148946
20
0.144152
11
0.148346
21
0.147165
0
LINE
8
BLACK
6
CONTINUOUS
10
0.148346
20
0.147165
11
0.148346
21
0.207165
0
LINE
8
BLACK
6
CONTINUOUS
10
0.148346
20
0.207165
11
0.148946
21
0.210179
0
LINE
8
BLACK
6
CONTINUOUS
10
0.148946
20
0.210179
11
0.150653
21
0.212733
0
LINE
8
BLACK
6
CONTINUOUS
10
0.150653
20
0.212733
11
0.153207
21
0.21444
0
LINE
8
BLACK
6
CONTINUOUS
10
0.153207
20
0.21444
11
0.15622
21
0.215039
0
LINE
8
BLACK
6
CONTINUOUS
10
0.15622
20
0.215039
11
0.21622
21
0.215039
0
LINE
8
BLACK
6
CONTINUOUS
10
0.21622
20
0.215039
11
0.219234
21
0.21444
0
LINE
8
BLACK
6
CONTINUOUS
10
0.119234
20
0.21444
11
0.121788
21
0.212733
0
LINE
8
BLACK
6
CONTINUOUS
10
0.121788
20
0.212733
11
0.123495
21
0.210179
0
LINE
8
BLACK
6
CONTINUOUS
10
0.123495
20
0.210179
11
0.124094
21
0.207165
0
LINE
8
BLACK
6
CONTINUOUS
10
0.124094
20
0.207165
11
0.124094
21
0.147165
0
LINE
8
BLACK
6
CONTINUOUS
10
0.124094
20
0.147165
11
0.123495
21
0.144152
0
LINE
8
BLACK
6
CONTINUOUS
10
0.123495
20
0.144152
11
0.121788
21
0.141598
0
LINE
8
BLACK
6
CONTINUOUS
10
0.121788
20
0.141598
11
0.119234
21
0.139891
0
LINE
8
BLACK
6
CONTINUOUS
10
0.119234
20
0.139891
11
0.11622
21
0.139291
0
LINE
8
BLACK
6
CONTINUOUS
10
0.11622
20
0.139291
11
0.0562205
21
0.139291
0
LINE
8
BLACK
6
CONTINUOUS
10
0.0562205
20
0.139291
11
0.0532072
21
0.139891
0
LINE
8
BLACK
6
CONTINUOUS
10
0.0532072
20
0.139891
11
0.0506527
21
0.141598
0
LINE
8
BLACK
6
CONTINUOUS
10
0.0506527
20
0.141598
11
0.0489458
21
0.144152
0
LINE
8
BLACK
6
CONTINUOUS
10
0.0489458
20
0.144152
11
0.0483465
21
0.147165
0
LINE
8
BLACK
6
CONTINUOUS
10
0.0483465
20
0.147165
11
0.0483465
21
0.207165
0
LINE
8
BLACK
6
CONTINUOUS
10
0.0483465
20
0.207165
11
0.0489458
21
0.210179
0
LINE
8
BLACK
6
CONTINUOUS
10
0.0489458
20
0.210179
11
0.0506527
21
0.212733
0
LINE
8
BLACK
6
CONTINUOUS
10
0.0506527
20
0.212733
11
0.0532072
21
0.21444
0
LINE
8
BLACK
6
CONTINUOUS
10
0.0532072
20
0.21444
11
0.0562205
21
0.215039
0
LINE
8
BLACK
6
CONTINUOUS
10
0.0562205
20
0.215039
11
0.11622
21
0.215039
0
LINE
8
BLACK
6
CONTINUOUS
10
0.11622
20
0.215039
11
0.119234
21
0.21444
0
LINE
8
BLACK
6
CONTINUOUS
10
2.34679
20
0.21444
11
2.34935
21
0.212733
0
LINE
8
BLACK
6
CONTINUOUS
10
2.34935
20
0.212733
11
2.35105
21
0.210179
0
LINE
8
BLACK
6
CONTINUOUS
10
2.35105
20
0.210179
11
2.35165
21
0.207165
0
LINE
8
BLACK
6
CONTINUOUS
10
2.35165
20
0.207165
11
2.35165
21
0.147165
0
LINE
8
BLACK
6
CONTINUOUS
10
2.35165
20
0.147165
11
2.35105
21
0.144152
0
LINE
8
BLACK
6
CONTINUOUS
10
2.35105
20
0.144152
11
2.34935
21
0.141598
0
LINE
8
BLACK
6
CONTINUOUS
10
2.34935
20
0.141598
11
2.34679
21
0.139891
0
LINE
8
BLACK
6
CONTINUOUS
10
2.34679
20
0.139891
11
2.34378
21
0.139291
0
LINE
8
BLACK
6
CONTINUOUS
10
2.34378
20
0.139291
11
2.28378
21
0.139291
0
LINE
8
BLACK
6
CONTINUOUS
10
2.28378
20
0.139291
11
2.28077
21
0.139891
0
LINE
8
BLACK
6
CONTINUOUS
10
2.28077
20
0.139891
11
2.27821
21
0.141598
0
LINE
8
BLACK
6
CONTINUOUS
10
2.27821
20
0.141598
11
2.2765
21
0.144152
0
LINE
8
BLACK
6
CONTINUOUS
10
2.2765
20
0.144152
11
2.27591
21
0.147165
0
LINE
8
BLACK
6
CONTINUOUS
10
2.27591
20
0.147165
11
2.27591
21
0.207165
0
LINE
8
BLACK
6
CONTINUOUS
10
2.27591
20
0.207165
11
2.2765
21
0.210179
0
LINE
8
BLACK
6
CONTINUOUS
10
2.2765
20
0.210179
11
2.27821
21
0.212733
0
LINE
8
BLACK
6
CONTINUOUS
10
2.27821
20
0.212733
11
2.28077
21
0.21444
0
LINE
8
BLACK
6
CONTINUOUS
10
2.28077
20
0.21444
11
2.28378
21
0.215039
0
LINE
8
BLACK
6
CONTINUOUS
10
2.28378
20
0.215039
11
2.34378
21
0.215039
0
LINE
8
BLACK
6
CONTINUOUS
10
2.34378
20
0.215039
11
2.34679
21
0.21444
0
LINE
8
BLACK
6
CONTINUOUS
10
2.24679
20
0.21444
11
2.24935
21
0.212733
0
LINE
8
BLACK
6
CONTINUOUS
10
2.24935
20
0.212733
11
2.25105
21
0.210179
0
LINE
8
BLACK
6
CONTINUOUS
10
2.25105
20
0.210179
11
2.25165
21
0.207165
0
LINE
8
BLACK
6
CONTINUOUS
10
2.25165
20
0.207165
11
2.25165
21
0.147165
0
LINE
8
BLACK
6
CONTINUOUS
10
2.25165
20
0.147165
11
2.25105
21
0.144152
0
LINE
8
BLACK
6
CONTINUOUS
10
2.25105
20
0.144152
11
2.24935
21
0.141598
0
LINE
8
BLACK
6
CONTINUOUS
10
2.24935
20
0.141598
11
2.24679
21
0.139891
0
LINE
8
BLACK
6
CONTINUOUS
10
2.24679
20
0.139891
11
2.24378
21
0.139291
0
LINE
8
BLACK
6
CONTINUOUS
10
2.24378
20
0.139291
11
2.18378
21
0.139291
0
LINE
8
BLACK
6
CONTINUOUS
10
2.18378
20
0.139291
11
2.18077
21
0.139891
0
LINE
8
BLACK
6
CONTINUOUS
10
2.18077
20
0.139891
11
2.17821
21
0.141598
0
LINE
8
BLACK
6
CONTINUOUS
10
2.17821
20
0.141598
11
2.1765
21
0.144152
0
LINE
8
BLACK
6
CONTINUOUS
10
2.1765
20
0.144152
11
2.17591
21
0.147165
0
LINE
8
BLACK
6
CONTINUOUS
10
2.17591
20
0.147165
11
2.17591
21
0.207165
0
LINE
8
BLACK
6
CONTINUOUS
10
2.17591
20
0.207165
11
2.1765
21
0.210179
0
LINE
8
BLACK
6
CONTINUOUS
10
2.1765
20
0.210179
11
2.17821
21
0.212733
0
LINE
8
BLACK
6
CONTINUOUS
10
2.17821
20
0.212733
11
2.18077
21
0.21444
0
LINE
8
BLACK
6
CONTINUOUS
10
2.18077
20
0.21444
11
2.18378
21
0.215039
0
LINE
8
BLACK
6
CONTINUOUS
10
2.18378
20
0.215039
11
2.24378
21
0.215039
0
LINE
8
BLACK
6
CONTINUOUS
10
2.24378
20
0.215039
11
2.24679
21
0.21444
0
LINE
8
BLACK
6
CONTINUOUS
10
2.14679
20
0.21444
11
2.14935
21
0.212733
0
LINE
8
BLACK
6
CONTINUOUS
10
2.14935
20
0.212733
11
2.15105
21
0.210179
0
LINE
8
BLACK
6
CONTINUOUS
10
2.15105
20
0.210179
11
2.15165
21
0.207165
0
LINE
8
BLACK
6
CONTINUOUS
10
2.15165
20
0.207165
11
2.15165
21
0.147165
0
LINE
8
BLACK
6
CONTINUOUS
10
2.15165
20
0.147165
11
2.15105
21
0.144152
0
LINE
8
BLACK
6
CONTINUOUS
10
2.15105
20
0.144152
11
2.14935
21
0.141598
0
LINE
8
BLACK
6
CONTINUOUS
10
2.14935
20
0.141598
11
2.14679
21
0.139891
0
LINE
8
BLACK
6
CONTINUOUS
10
2.14679
20
0.139891
11
2.14378
21
0.139291
0
LINE
8
BLACK
6
CONTINUOUS
10
2.14378
20
0.139291
11
2.08378
21
0.139291
0
LINE
8
BLACK
6
CONTINUOUS
10
2.08378
20
0.139291
11
2.08077
21
0.139891
0
LINE
8
BLACK
6
CONTINUOUS
10
2.08077
20
0.139891
11
2.07821
21
0.141598
0
LINE
8
BLACK
6
CONTINUOUS
10
2.07821
20
0.141598
11
2.0765
21
0.144152
0
LINE
8
BLACK
6
CONTINUOUS
10
2.0765
20
0.144152
11
2.07591
21
0.147165
0
LINE
8
BLACK
6
CONTINUOUS
10
2.07591
20
0.147165
11
2.07591
21
0.207165
0
LINE
8
BLACK
6
CONTINUOUS
10
2.07591
20
0.207165
11
2.0765
21
0.210179
0
LINE
8
BLACK
6
CONTINUOUS
10
2.0765
20
0.210179
11
2.07821
21
0.212733
0
LINE
8
BLACK
6
CONTINUOUS
10
2.07821
20
0.212733
11
2.08077
21
0.21444
0
LINE
8
BLACK
6
CONTINUOUS
10
2.08077
20
0.21444
11
2.08378
21
0.215039
0
LINE
8
BLACK
6
CONTINUOUS
10
2.08378
20
0.215039
11
2.14378
21
0.215039
0
LINE
8
BLACK
6
CONTINUOUS
10
2.14378
20
0.215039
11
2.14679
21
0.21444
0
LINE
8
BLACK
6
CONTINUOUS
10
2.04679
20
0.21444
11
2.04935
21
0.212733
0
LINE
8
BLACK
6
CONTINUOUS
10
2.04935
20
0.212733
11
2.05105
21
0.210179
0
LINE
8
BLACK
6
CONTINUOUS
10
2.05105
20
0.210179
11
2.05165
21
0.207165
0
LINE
8
BLACK
6
CONTINUOUS
10
2.05165
20
0.207165
11
2.05165
21
0.147165
0
LINE
8
BLACK
6
CONTINUOUS
10
2.05165
20
0.147165
11
2.05105
21
0.144152
0
LINE
8
BLACK
6
CONTINUOUS
10
2.05105
20
0.144152
11
2.04935
21
0.141598
0
LINE
8
BLACK
6
CONTINUOUS
10
2.04935
20
0.141598
11
2.04679
21
0.139891
0
LINE
8
BLACK
6
CONTINUOUS
10
2.04679
20
0.139891
11
2.04378
21
0.139291
0
LINE
8
BLACK
6
CONTINUOUS
10
2.04378
20
0.139291
11
1.98378
21
0.139291
0
LINE
8
BLACK
6
CONTINUOUS
10
1.98378
20
0.139291
11
1.98077
21
0.139891
0
LINE
8
BLACK
6
CONTINUOUS
10
1.98077
20
0.139891
11
1.97821
21
0.141598
0
LINE
8
BLACK
6
CONTINUOUS
10
1.97821
20
0.141598
11
1.9765
21
0.144152
0
LINE
8
BLACK
6
CONTINUOUS
10
1.9765
20
0.144152
11
1.97591
21
0.147165
0
LINE
8
BLACK
6
CONTINUOUS
10
1.97591
20
0.147165
11
1.97591
21
0.207165
0
LINE
8
BLACK
6
CONTINUOUS
10
1.97591
20
0.207165
11
1.9765
21
0.210179
0
LINE
8
BLACK
6
CONTINUOUS
10
1.9765
20
0.210179
11
1.97821
21
0.212733
0
LINE
8
BLACK
6
CONTINUOUS
10
1.97821
20
0.212733
11
1.98077
21
0.21444
0
LINE
8
BLACK
6
CONTINUOUS
10
1.98077
20
0.21444
11
1.98378
21
0.215039
0
LINE
8
BLACK
6
CONTINUOUS
10
1.98378
20
0.215039
11
2.04378
21
0.215039
0
LINE
8
BLACK
6
CONTINUOUS
10
2.04378
20
0.215039
11
2.04679
21
0.21444
0
LINE
8
BLACK
6
CONTINUOUS
10
0.770976
20
0.908703
11
0.794614
21
0.906469
0
LINE
8
BLACK
6
CONTINUOUS
10
0.794614
20
0.906469
11
0.818065
21
0.902754
0
LINE
8
BLACK
6
CONTINUOUS
10
0.818065
20
0.902754
11
0.841237
21
0.897575
0
LINE
8
BLACK
6
CONTINUOUS
10
0.841237
20
0.897575
11
0.864038
21
0.890951
0
LINE
8
BLACK
6
CONTINUOUS
10
0.864038
20
0.890951
11
0.886378
21
0.882908
0
LINE
8
BLACK
6
CONTINUOUS
10
0.886378
20
0.882908
11
0.908169
21
0.873478
0
LINE
8
BLACK
6
CONTINUOUS
10
0.908169
20
0.873478
11
0.929324
21
0.862699
0
LINE
8
BLACK
6
CONTINUOUS
10
0.929324
20
0.862699
11
0.949761
21
0.850612
0
LINE
8
BLACK
6
CONTINUOUS
10
0.949761
20
0.850612
11
0.969399
21
0.837266
0
LINE
8
BLACK
6
CONTINUOUS
10
0.969399
20
0.837266
11
0.98816
21
0.822714
0
LINE
8
BLACK
6
CONTINUOUS
10
0.98816
20
0.822714
11
1.00597
21
0.807012
0
LINE
8
BLACK
6
CONTINUOUS
10
1.00597
20
0.807012
11
1.02276
21
0.790223
0
LINE
8
BLACK
6
CONTINUOUS
10
1.02276
20
0.790223
11
1.03846
21
0.772412
0
LINE
8
BLACK
6
CONTINUOUS
10
1.03846
20
0.772412
11
1.05301
21
0.753651
0
LINE
8
BLACK
6
CONTINUOUS
10
1.05301
20
0.753651
11
1.06636
21
0.734013
0
LINE
8
BLACK
6
CONTINUOUS
10
1.06636
20
0.734013
11
1.07845
21
0.713576
0
LINE
8
BLACK
6
CONTINUOUS
10
1.07845
20
0.713576
11
1.08923
21
0.692421
0
LINE
8
BLACK
6
CONTINUOUS
10
1.08923
20
0.692421
11
1.09866
21
0.67063
0
LINE
8
BLACK
6
CONTINUOUS
10
1.09866
20
0.67063
11
1.1067
21
0.64829
0
LINE
8
BLACK
6
CONTINUOUS
10
1.1067
20
0.64829
11
1.11332
21
0.625489
0
LINE
8
BLACK
6
CONTINUOUS
10
1.11332
20
0.625489
11
1.1185
21
0.602317
0
LINE
8
BLACK
6
CONTINUOUS
10
1.1185
20
0.602317
11
1.12222
21
0.578866
0
LINE
8
BLACK
6
CONTINUOUS
10
1.12222
20
0.578866
11
1.12445
21
0.555228
0
LINE
8
BLACK
6
CONTINUOUS
10
1.12445
20
0.555228
11
1.1252
21
0.531496
0
LINE
8
BLACK
6
CONTINUOUS
10
1.1252
20
0.531496
11
1.12445
21
0.507764
0
LINE
8
BLACK
6
CONTINUOUS
10
1.12445
20
0.507764
11
1.12222
21
0.484126
0
LINE
8
BLACK
6
CONTINUOUS
10
1.12222
20
0.484126
11
1.1185
21
0.460675
0
LINE
8
BLACK
6
CONTINUOUS
10
1.1185
20
0.460675
11
1.11332
21
0.437503
0
LINE
8
BLACK
6
CONTINUOUS
10
1.11332
20
0.437503
11
1.1067
21
0.414702
0
LINE
8
BLACK
6
CONTINUOUS
10
1.1067
20
0.414702
11
1.09866
21
0.392362
0
LINE
8
BLACK
6
CONTINUOUS
10
1.09866
20
0.392362
11
1.08923
21
0.370572
0
LINE
8
BLACK
6
CONTINUOUS
10
1.08923
20
0.370572
11
1.07845
21
0.349416
0
LINE
8
BLACK
6
CONTINUOUS
10
1.07845
20
0.349416
11
1.06636
21
0.328979
0
LINE
8
BLACK
6
CONTINUOUS
10
1.06636
20
0.328979
11
1.05301
21
0.309341
0
LINE
8
BLACK
6
CONTINUOUS
10
1.05301
20
0.309341
11
1.03846
21
0.29058
0
LINE
8
BLACK
6
CONTINUOUS
10
1.03846
20
0.29058
11
1.02276
21
0.27277
0
LINE
8
BLACK
6
CONTINUOUS
10
1.02276
20
0.27277
11
1.00597
21
0.25598
0
LINE
8
BLACK
6
CONTINUOUS
10
1.00597
20
0.25598
11
0.98816
21
0.240278
0
LINE
8
BLACK
6
CONTINUOUS
10
0.98816
20
0.240278
11
0.969399
21
0.225726
0
LINE
8
BLACK
6
CONTINUOUS
10
0.969399
20
0.225726
11
0.949761
21
0.21238
0
LINE
8
BLACK
6
CONTINUOUS
10
0.949761
20
0.21238
11
0.929324
21
0.200294
0
LINE
8
BLACK
6
CONTINUOUS
10
0.929324
20
0.200294
11
0.908169
21
0.189514
0
LINE
8
BLACK
6
CONTINUOUS
10
0.908169
20
0.189514
11
0.886378
21
0.180084
0
LINE
8
BLACK
6
CONTINUOUS
10
0.886378
20
0.180084
11
0.864038
21
0.172042
0
LINE
8
BLACK
6
CONTINUOUS
10
0.864038
20
0.172042
11
0.841237
21
0.165417
0
LINE
8
BLACK
6
CONTINUOUS
10
0.841237
20
0.165417
11
0.818065
21
0.160238
0
LINE
8
BLACK
6
CONTINUOUS
10
0.818065
20
0.160238
11
0.794614
21
0.156524
0
LINE
8
BLACK
6
CONTINUOUS
10
0.794614
20
0.156524
11
0.770976
21
0.154289
0
LINE
8
BLACK
6
CONTINUOUS
10
0.770976
20
0.154289
11
0.747244
21
0.153543
0
LINE
8
BLACK
6
CONTINUOUS
10
0.747244
20
0.153543
11
0.723512
21
0.154289
0
LINE
8
BLACK
6
CONTINUOUS
10
0.723512
20
0.154289
11
0.699874
21
0.156524
0
LINE
8
BLACK
6
CONTINUOUS
10
0.699874
20
0.156524
11
0.676423
21
0.160238
0
LINE
8
BLACK
6
CONTINUOUS
10
0.676423
20
0.160238
11
0.653251
21
0.165417
0
LINE
8
BLACK
6
CONTINUOUS
10
0.653251
20
0.165417
11
0.63045
21
0.172042
0
LINE
8
BLACK
6
CONTINUOUS
10
0.63045
20
0.172042
11
0.60811
21
0.180084
0
LINE
8
BLACK
6
CONTINUOUS
10
0.60811
20
0.180084
11
0.58632
21
0.189514
0
LINE
8
BLACK
6
CONTINUOUS
10
0.58632
20
0.189514
11
0.565164
21
0.200294
0
LINE
8
BLACK
6
CONTINUOUS
10
0.565164
20
0.200294
11
0.544727
21
0.21238
0
LINE
8
BLACK
6
CONTINUOUS
10
0.544727
20
0.21238
11
0.525089
21
0.225726
0
LINE
8
BLACK
6
CONTINUOUS
10
0.525089
20
0.225726
11
0.506328
21
0.240278
0
LINE
8
BLACK
6
CONTINUOUS
10
0.506328
20
0.240278
11
0.488518
21
0.25598
0
LINE
8
BLACK
6
CONTINUOUS
10
0.488518
20
0.25598
11
0.471728
21
0.27277
0
LINE
8
BLACK
6
CONTINUOUS
10
0.471728
20
0.27277
11
0.456026
21
0.29058
0
LINE
8
BLACK
6
CONTINUOUS
10
0.456026
20
0.29058
11
0.441474
21
0.309341
0
LINE
8
BLACK
6
CONTINUOUS
10
0.441474
20
0.309341
11
0.428128
21
0.328979
0
LINE
8
BLACK
6
CONTINUOUS
10
0.428128
20
0.328979
11
0.416042
21
0.349416
0
LINE
8
BLACK
6
CONTINUOUS
10
0.416042
20
0.349416
11
0.405262
21
0.370572
0
LINE
8
BLACK
6
CONTINUOUS
10
0.405262
20
0.370572
11
0.395833
21
0.392362
0
LINE
8
BLACK
6
CONTINUOUS
10
0.395833
20
0.392362
11
0.38779
21
0.414702
0
LINE
8
BLACK
6
CONTINUOUS
10
0.38779
20
0.414702
11
0.381165
21
0.437503
0
LINE
8
BLACK
6
CONTINUOUS
10
0.381165
20
0.437503
11
0.375986
21
0.460675
0
LINE
8
BLACK
6
CONTINUOUS
10
0.375986
20
0.460675
11
0.372272
21
0.484126
0
LINE
8
BLACK
6
CONTINUOUS
10
0.372272
20
0.484126
11
0.370037
21
0.507764
0
LINE
8
BLACK
6
CONTINUOUS
10
0.370037
20
0.507764
11
0.369291
21
0.531496
0
LINE
8
BLACK
6
CONTINUOUS
10
0.369291
20
0.531496
11
0.370037
21
0.555228
0
LINE
8
BLACK
6
CONTINUOUS
10
0.370037
20
0.555228
11
0.372272
21
0.578866
0
LINE
8
BLACK
6
CONTINUOUS
10
0.372272
20
0.578866
11
0.375986
21
0.602317
0
LINE
8
BLACK
6
CONTINUOUS
10
0.375986
20
0.602317
11
0.381165
21
0.625489
0
LINE
8
BLACK
6
CONTINUOUS
10
0.381165
20
0.625489
11
0.38779
21
0.64829
0
LINE
8
BLACK
6
CONTINUOUS
10
0.38779
20
0.64829
11
0.395833
21
0.67063
0
LINE
8
BLACK
6
CONTINUOUS
10
0.395833
20
0.67063
11
0.405262
21
0.692421
0
LINE
8
BLACK
6
CONTINUOUS
10
0.405262
20
0.692421
11
0.416042
21
0.713576
0
LINE
8
BLACK
6
CONTINUOUS
10
0.416042
20
0.713576
11
0.428128
21
0.734013
0
LINE
8
BLACK
6
CONTINUOUS
10
0.428128
20
0.734013
11
0.441474
21
0.753651
0
LINE
8
BLACK
6
CONTINUOUS
10
0.441474
20
0.753651
11
0.456026
21
0.772412
0
LINE
8
BLACK
6
CONTINUOUS
10
0.456026
20
0.772412
11
0.471728
21
0.790223
0
LINE
8
BLACK
6
CONTINUOUS
10
0.471728
20
0.790223
11
0.488518
21
0.807012
0
LINE
8
BLACK
6
CONTINUOUS
10
0.488518
20
0.807012
11
0.506328
21
0.822714
0
LINE
8
BLACK
6
CONTINUOUS
10
0.506328
20
0.822714
11
0.525089
21
0.837266
0
LINE
8
BLACK
6
CONTINUOUS
10
0.525089
20
0.837266
11
0.544727
21
0.850612
0
LINE
8
BLACK
6
CONTINUOUS
10
0.544727
20
0.850612
11
0.565164
21
0.862699
0
LINE
8
BLACK
6
CONTINUOUS
10
0.565164
20
0.862699
11
0.58632
21
0.873478
0
LINE
8
BLACK
6
CONTINUOUS
10
0.58632
20
0.873478
11
0.60811
21
0.882908
0
LINE
8
BLACK
6
CONTINUOUS
10
0.60811
20
0.882908
11
0.63045
21
0.890951
0
LINE
8
BLACK
6
CONTINUOUS
10
0.63045
20
0.890951
11
0.653251
21
0.897575
0
LINE
8
BLACK
6
CONTINUOUS
10
0.653251
20
0.897575
11
0.676423
21
0.902754
0
LINE
8
BLACK
6
CONTINUOUS
10
0.676423
20
0.902754
11
0.699874
21
0.906469
0
LINE
8
BLACK
6
CONTINUOUS
10
0.699874
20
0.906469
11
0.723512
21
0.908703
0
LINE
8
BLACK
6
CONTINUOUS
10
0.723512
20
0.908703
11
0.747244
21
0.909449
0
LINE
8
BLACK
6
CONTINUOUS
10
0.747244
20
0.909449
11
0.770976
21
0.908703
0
LINE
8
BLACK
6
CONTINUOUS
10
1.67649
20
0.908703
11
1.70013
21
0.906469
0
LINE
8
BLACK
6
CONTINUOUS
10
1.70013
20
0.906469
11
1.72358
21
0.902754
0
LINE
8
BLACK
6
CONTINUOUS
10
1.72358
20
0.902754
11
1.74675
21
0.897575
0
LINE
8
BLACK
6
CONTINUOUS
10
1.74675
20
0.897575
11
1.76955
21
0.890951
0
LINE
8
BLACK
6
CONTINUOUS
10
1.76955
20
0.890951
11
1.79189
21
0.882908
0
LINE
8
BLACK
6
CONTINUOUS
10
1.79189
20
0.882908
11
1.81368
21
0.873478
0
LINE
8
BLACK
6
CONTINUOUS
10
1.81368
20
0.873478
11
1.83484
21
0.862699
0
LINE
8
BLACK
6
CONTINUOUS
10
1.83484
20
0.862699
11
1.85527
21
0.850612
0
LINE
8
BLACK
6
CONTINUOUS
10
1.85527
20
0.850612
11
1.87491
21
0.837266
0
LINE
8
BLACK
6
CONTINUOUS
10
1.87491
20
0.837266
11
1.89367
21
0.822714
0
LINE
8
BLACK
6
CONTINUOUS
10
1.89367
20
0.822714
11
1.91148
21
0.807012
0
LINE
8
BLACK
6
CONTINUOUS
10
1.91148
20
0.807012
11
1.92827
21
0.790223
0
LINE
8
BLACK
6
CONTINUOUS
10
1.92827
20
0.790223
11
1.94397
21
0.772412
0
LINE
8
BLACK
6
CONTINUOUS
10
1.94397
20
0.772412
11
1.95853
21
0.753651
0
LINE
8
BLACK
6
CONTINUOUS
10
1.95853
20
0.753651
11
1.97187
21
0.734013
0
LINE
8
BLACK
6
CONTINUOUS
10
1.97187
20
0.734013
11
1.98396
21
0.713576
0
LINE
8
BLACK
6
CONTINUOUS
10
1.98396
20
0.713576
11
1.99474
21
0.692421
0
LINE
8
BLACK
6
CONTINUOUS
10
1.99474
20
0.692421
11
2.00417
21
0.67063
0
LINE
8
BLACK
6
CONTINUOUS
10
2.00417
20
0.67063
11
2.01221
21
0.64829
0
LINE
8
BLACK
6
CONTINUOUS
10
2.01221
20
0.64829
11
2.01883
21
0.625489
0
LINE
8
BLACK
6
CONTINUOUS
10
2.01883
20
0.625489
11
2.02401
21
0.602317
0
LINE
8
BLACK
6
CONTINUOUS
10
2.02401
20
0.602317
11
2.02773
21
0.578866
0
LINE
8
BLACK
6
CONTINUOUS
10
2.02773
20
0.578866
11
2.02996
21
0.555228
0
LINE
8
BLACK
6
CONTINUOUS
10
2.02996
20
0.555228
11
2.03071
21
0.531496
0
LINE
8
BLACK
6
CONTINUOUS
10
2.03071
20
0.531496
11
2.02996
21
0.507764
0
LINE
8
BLACK
6
CONTINUOUS
10
2.02996
20
0.507764
11
2.02773
21
0.484126
0
LINE
8
BLACK
6
CONTINUOUS
10
2.02773
20
0.484126
11
2.02401
21
0.460675
0
LINE
8
BLACK
6
CONTINUOUS
10
2.02401
20
0.460675
11
2.01883
21
0.437503
0
LINE
8
BLACK
6
CONTINUOUS
10
2.01883
20
0.437503
11
2.01221
21
0.414702
0
LINE
8
BLACK
6
CONTINUOUS
10
2.01221
20
0.414702
11
2.00417
21
0.392362
0
LINE
8
BLACK
6
CONTINUOUS
10
2.00417
20
0.392362
11
1.99474
21
0.370572
0
LINE
8
BLACK
6
CONTINUOUS
10
1.99474
20
0.370572
11
1.98396
21
0.349416
0
LINE
8
BLACK
6
CONTINUOUS
10
1.98396
20
0.349416
11
1.97187
21
0.328979
0
LINE
8
BLACK
6
CONTINUOUS
10
1.97187
20
0.328979
11
1.95853
21
0.309341
0
LINE
8
BLACK
6
CONTINUOUS
10
1.95853
20
0.309341
11
1.94397
21
0.29058
0
LINE
8
BLACK
6
CONTINUOUS
10
1.94397
20
0.29058
11
1.92827
21
0.27277
0
LINE
8
BLACK
6
CONTINUOUS
10
1.92827
20
0.27277
11
1.91148
21
0.25598
0
LINE
8
BLACK
6
CONTINUOUS
10
1.91148
20
0.25598
11
1.89367
21
0.240278
0
LINE
8
BLACK
6
CONTINUOUS
10
1.89367
20
0.240278
11
1.87491
21
0.225726
0
LINE
8
BLACK
6
CONTINUOUS
10
1.87491
20
0.225726
11
1.85527
21
0.21238
0
LINE
8
BLACK
6
CONTINUOUS
10
1.85527
20
0.21238
11
1.83484
21
0.200294
0
LINE
8
BLACK
6
CONTINUOUS
10
1.83484
20
0.200294
11
1.81368
21
0.189514
0
LINE
8
BLACK
6
CONTINUOUS
10
1.81368
20
0.189514
11
1.79189
21
0.180084
0
LINE
8
BLACK
6
CONTINUOUS
10
1.79189
20
0.180084
11
1.76955
21
0.172042
0
LINE
8
BLACK
6
CONTINUOUS
10
1.76955
20
0.172042
11
1.74675
21
0.165417
0
LINE
8
BLACK
6
CONTINUOUS
10
1.74675
20
0.165417
11
1.72358
21
0.160238
0
LINE
8
BLACK
6
CONTINUOUS
10
1.72358
20
0.160238
11
1.70013
21
0.156524
0
LINE
8
BLACK
6
CONTINUOUS
10
1.70013
20
0.156524
11
1.67649
21
0.154289
0
LINE
8
BLACK
6
CONTINUOUS
10
1.67649
20
0.154289
11
1.65276
21
0.153543
0
LINE
8
BLACK
6
CONTINUOUS
10
1.65276
20
0.153543
11
1.62902
21
0.154289
0
LINE
8
BLACK
6
CONTINUOUS
10
1.62902
20
0.154289
11
1.60539
21
0.156524
0
LINE
8
BLACK
6
CONTINUOUS
10
1.60539
20
0.156524
11
1.58193
21
0.160238
0
LINE
8
BLACK
6
CONTINUOUS
10
1.58193
20
0.160238
11
1.55876
21
0.165417
0
LINE
8
BLACK
6
CONTINUOUS
10
1.55876
20
0.165417
11
1.53596
21
0.172042
0
LINE
8
BLACK
6
CONTINUOUS
10
1.53596
20
0.172042
11
1.51362
21
0.180084
0
LINE
8
BLACK
6
CONTINUOUS
10
1.51362
20
0.180084
11
1.49183
21
0.189514
0
LINE
8
BLACK
6
CONTINUOUS
10
1.49183
20
0.189514
11
1.47068
21
0.200294
0
LINE
8
BLACK
6
CONTINUOUS
10
1.47068
20
0.200294
11
1.45024
21
0.21238
0
LINE
8
BLACK
6
CONTINUOUS
10
1.45024
20
0.21238
11
1.4306
21
0.225726
0
LINE
8
BLACK
6
CONTINUOUS
10
1.4306
20
0.225726
11
1.41184
21
0.240278
0
LINE
8
BLACK
6
CONTINUOUS
10
1.41184
20
0.240278
11
1.39403
21
0.25598
0
LINE
8
BLACK
6
CONTINUOUS
10
1.39403
20
0.25598
11
1.37724
21
0.27277
0
LINE
8
BLACK
6
CONTINUOUS
10
1.37724
20
0.27277
11
1.36154
21
0.29058
0
LINE
8
BLACK
6
CONTINUOUS
10
1.36154
20
0.29058
11
1.34699
21
0.309341
0
LINE
8
BLACK
6
CONTINUOUS
10
1.34699
20
0.309341
11
1.33364
21
0.328979
0
LINE
8
BLACK
6
CONTINUOUS
10
1.33364
20
0.328979
11
1.32155
21
0.349416
0
LINE
8
BLACK
6
CONTINUOUS
10
1.32155
20
0.349416
11
1.31077
21
0.370572
0
LINE
8
BLACK
6
CONTINUOUS
10
1.31077
20
0.370572
11
1.30134
21
0.392362
0
LINE
8
BLACK
6
CONTINUOUS
10
1.30134
20
0.392362
11
1.2933
21
0.414702
0
LINE
8
BLACK
6
CONTINUOUS
10
1.2933
20
0.414702
11
1.28668
21
0.437503
0
LINE
8
BLACK
6
CONTINUOUS
10
1.28668
20
0.437503
11
1.2815
21
0.460675
0
LINE
8
BLACK
6
CONTINUOUS
10
1.2815
20
0.460675
11
1.27778
21
0.484126
0
LINE
8
BLACK
6
CONTINUOUS
10
1.27778
20
0.484126
11
1.27555
21
0.507764
0
LINE
8
BLACK
6
CONTINUOUS
10
1.27555
20
0.507764
11
1.2748
21
0.531496
0
LINE
8
BLACK
6
CONTINUOUS
10
1.2748
20
0.531496
11
1.27555
21
0.555228
0
LINE
8
BLACK
6
CONTINUOUS
10
1.27555
20
0.555228
11
1.27778
21
0.578866
0
LINE
8
BLACK
6
CONTINUOUS
10
1.27778
20
0.578866
11
1.2815
21
0.602317
0
LINE
8
BLACK
6
CONTINUOUS
10
1.2815
20
0.602317
11
1.28668
21
0.625489
0
LINE
8
BLACK
6
CONTINUOUS
10
1.28668
20
0.625489
11
1.2933
21
0.64829
0
LINE
8
BLACK
6
CONTINUOUS
10
1.2933
20
0.64829
11
1.30134
21
0.67063
0
LINE
8
BLACK
6
CONTINUOUS
10
1.30134
20
0.67063
11
1.31077
21
0.692421
0
LINE
8
BLACK
6
CONTINUOUS
10
1.31077
20
0.692421
11
1.32155
21
0.713576
0
LINE
8
BLACK
6
CONTINUOUS
10
1.32155
20
0.713576
11
1.33364
21
0.734013
0
LINE
8
BLACK
6
CONTINUOUS
10
1.33364
20
0.734013
11
1.34699
21
0.753651
0
LINE
8
BLACK
6
CONTINUOUS
10
1.34699
20
0.753651
11
1.36154
21
0.772412
0
LINE
8
BLACK
6
CONTINUOUS
10
1.36154
20
0.772412
11
1.37724
21
0.790223
0
LINE
8
BLACK
6
CONTINUOUS
10
1.37724
20
0.790223
11
1.39403
21
0.807012
0
LINE
8
BLACK
6
CONTINUOUS
10
1.39403
20
0.807012
11
1.41184
21
0.822714
0
LINE
8
BLACK
6
CONTINUOUS
10
1.41184
20
0.822714
11
1.4306
21
0.837266
0
LINE
8
BLACK
6
CONTINUOUS
10
1.4306
20
0.837266
11
1.45024
21
0.850612
0
LINE
8
BLACK
6
CONTINUOUS
10
1.45024
20
0.850612
11
1.47068
21
0.862699
0
LINE
8
BLACK
6
CONTINUOUS
10
1.47068
20
0.862699
11
1.49183
21
0.873478
0
LINE
8
BLACK
6
CONTINUOUS
10
1.49183
20
0.873478
11
1.51362
21
0.882908
0
LINE
8
BLACK
6
CONTINUOUS
10
1.51362
20
0.882908
11
1.53596
21
0.890951
0
LINE
8
BLACK
6
CONTINUOUS
10
1.53596
20
0.890951
11
1.55876
21
0.897575
0
LINE
8
BLACK
6
CONTINUOUS
10
1.55876
20
0.897575
11
1.58193
21
0.902754
0
LINE
8
BLACK
6
CONTINUOUS
10
1.58193
20
0.902754
11
1.60539
21
0.906469
0
LINE
8
BLACK
6
CONTINUOUS
10
1.60539
20
0.906469
11
1.62902
21
0.908703
0
LINE
8
BLACK
6
CONTINUOUS
10
1.62902
20
0.908703
11
1.65276
21
0.909449
0
LINE
8
BLACK
6
CONTINUOUS
10
1.65276
20
0.909449
11
1.67649
21
0.908703
0
LINE
8
BLACK
6
CONTINUOUS
10
2.21492
20
1.11435
11
2.22877
21
1.11191
0
LINE
8
BLACK
6
CONTINUOUS
10
2.22877
20
1.11191
11
2.24226
21
1.10794
0
LINE
8
BLACK
6
CONTINUOUS
10
2.24226
20
1.10794
11
2.25523
21
1.10249
0
LINE
8
BLACK
6
CONTINUOUS
10
2.25523
20
1.10249
11
2.26751
21
1.09562
0
LINE
8
BLACK
6
CONTINUOUS
10
2.26751
20
1.09562
11
2.27894
21
1.08744
0
LINE
8
BLACK
6
CONTINUOUS
10
2.27894
20
1.08744
11
2.28939
21
1.07802
0
LINE
8
BLACK
6
CONTINUOUS
10
2.28939
20
1.07802
11
2.29873
21
1.06751
0
LINE
8
BLACK
6
CONTINUOUS
10
2.29873
20
1.06751
11
2.30684
21
1.05601
0
LINE
8
BLACK
6
CONTINUOUS
10
2.30684
20
1.05601
11
2.31362
21
1.04369
0
LINE
8
BLACK
6
CONTINUOUS
10
2.31362
20
1.04369
11
2.31898
21
1.03068
0
LINE
8
BLACK
6
CONTINUOUS
10
2.31898
20
1.03068
11
2.32285
21
1.01716
0
LINE
8
BLACK
6
CONTINUOUS
10
2.32285
20
1.01716
11
2.3252
21
1.0033
0
LINE
8
BLACK
6
CONTINUOUS
10
2.3252
20
1.0033
11
2.32598
21
0.989252
0
LINE
8
BLACK
6
CONTINUOUS
10
2.32598
20
0.989252
11
2.32594
21
0.985734
0
LINE
8
BLACK
6
CONTINUOUS
10
2.32594
20
0.985734
11
2.32476
21
0.971718
0
LINE
8
BLACK
6
CONTINUOUS
10
2.32476
20
0.971718
11
2.32203
21
0.957921
0
LINE
8
BLACK
6
CONTINUOUS
10
2.32203
20
0.957921
11
2.31777
21
0.944514
0
LINE
8
BLACK
6
CONTINUOUS
10
2.31777
20
0.944514
11
2.31205
21
0.931665
0
LINE
8
BLACK
6
CONTINUOUS
10
2.31205
20
0.931665
11
2.30493
21
0.919533
0
LINE
8
BLACK
6
CONTINUOUS
10
2.30493
20
0.919533
11
2.29651
21
0.908271
0
LINE
8
BLACK
6
CONTINUOUS
10
2.29651
20
0.908271
11
2.28688
21
0.898018
0
LINE
8
BLACK
6
CONTINUOUS
10
2.28688
20
0.898018
11
2.27617
21
0.888902
0
LINE
8
BLACK
6
CONTINUOUS
10
2.27617
20
0.888902
11
2.26451
21
0.881037
0
LINE
8
BLACK
6
CONTINUOUS
10
2.26451
20
0.881037
11
2.25204
21
0.87452
0
LINE
8
BLACK
6
CONTINUOUS
10
2.25204
20
0.87452
11
2.23893
21
0.869434
0
LINE
8
BLACK
6
CONTINUOUS
10
2.23893
20
0.869434
11
2.22533
21
0.865841
0
LINE
8
BLACK
6
CONTINUOUS
10
2.22533
20
0.865841
11
2.21142
21
0.863786
0
LINE
8
BLACK
6
CONTINUOUS
10
2.21142
20
0.863786
11
2.19736
21
0.863295
0
LINE
8
BLACK
6
CONTINUOUS
10
2.19736
20
0.863295
11
2.18334
21
0.864374
0
LINE
8
BLACK
6
CONTINUOUS
10
2.18334
20
0.864374
11
2.16952
21
0.86701
0
LINE
8
BLACK
6
CONTINUOUS
10
2.16952
20
0.86701
11
2.15609
21
0.871169
0
LINE
8
BLACK
6
CONTINUOUS
10
2.15609
20
0.871169
11
2.1432
21
0.8768
0
LINE
8
BLACK
6
CONTINUOUS
10
2.1432
20
0.8768
11
2.13102
21
0.883833
0
LINE
8
BLACK
6
CONTINUOUS
10
2.13102
20
0.883833
11
2.11969
21
0.892179
0
LINE
8
BLACK
6
CONTINUOUS
10
2.11969
20
0.892179
11
2.10937
21
0.901736
0
LINE
8
BLACK
6
CONTINUOUS
10
2.10937
20
0.901736
11
2.10018
21
0.912383
0
LINE
8
BLACK
6
CONTINUOUS
10
2.10018
20
0.912383
11
2.09224
21
0.923989
0
LINE
8
BLACK
6
CONTINUOUS
10
2.09224
20
0.923989
11
2.08563
21
0.936408
0
LINE
8
BLACK
6
CONTINUOUS
10
2.08563
20
0.936408
11
2.08046
21
0.949485
0
LINE
8
BLACK
6
CONTINUOUS
10
2.08046
20
0.949485
11
2.07677
21
0.963058
0
LINE
8
BLACK
6
CONTINUOUS
10
2.07677
20
0.963058
11
2.07462
21
0.976958
0
LINE
8
BLACK
6
CONTINUOUS
10
2.07462
20
0.976958
11
2.07403
21
0.991011
0
LINE
8
BLACK
6
CONTINUOUS
10
2.07403
20
0.991011
11
2.07501
21
1.00504
0
LINE
8
BLACK
6
CONTINUOUS
10
2.07501
20
1.00504
11
2.07755
21
1.01888
0
LINE
8
BLACK
6
CONTINUOUS
10
2.07755
20
1.01888
11
2.08161
21
1.03234
0
LINE
8
BLACK
6
CONTINUOUS
10
2.08161
20
1.03234
11
2.08715
21
1.04527
0
LINE
8
BLACK
6
CONTINUOUS
10
2.08715
20
1.04527
11
2.0941
21
1.0575
0
LINE
8
BLACK
6
CONTINUOUS
10
2.0941
20
1.0575
11
2.10237
21
1.06888
0
LINE
8
BLACK
6
CONTINUOUS
10
2.10237
20
1.06888
11
2.11185
21
1.07926
0
LINE
8
BLACK
6
CONTINUOUS
10
2.11185
20
1.07926
11
2.12244
21
1.08853
0
LINE
8
BLACK
6
CONTINUOUS
10
2.12244
20
1.08853
11
2.13399
21
1.09656
0
LINE
8
BLACK
6
CONTINUOUS
10
2.13399
20
1.09656
11
2.14636
21
1.10325
0
LINE
8
BLACK
6
CONTINUOUS
10
2.14636
20
1.10325
11
2.1594
21
1.10851
0
LINE
8
BLACK
6
CONTINUOUS
10
2.1594
20
1.10851
11
2.17295
21
1.1123
0
LINE
8
BLACK
6
CONTINUOUS
10
2.17295
20
1.1123
11
2.18683
21
1.11455
0
LINE
8
BLACK
6
CONTINUOUS
10
2.18683
20
1.11455
11
2.20088
21
1.11523
0
LINE
8
BLACK
6
CONTINUOUS
10
2.20088
20
1.11523
11
2.21492
21
1.11435
0
LINE
8
BLACK
6
CONTINUOUS
10
0.214917
20
1.11435
11
0.228769
21
1.11191
0
LINE
8
BLACK
6
CONTINUOUS
10
0.228769
20
1.11191
11
0.242262
21
1.10794
0
LINE
8
BLACK
6
CONTINUOUS
10
0.242262
20
1.10794
11
0.255228
21
1.10249
0
LINE
8
BLACK
6
CONTINUOUS
10
0.255228
20
1.10249
11
0.267506
21
1.09562
0
LINE
8
BLACK
6
CONTINUOUS
10
0.267506
20
1.09562
11
0.278942
21
1.08744
0
LINE
8
BLACK
6
CONTINUOUS
10
0.278942
20
1.08744
11
0.289395
21
1.07802
0
LINE
8
BLACK
6
CONTINUOUS
10
0.289395
20
1.07802
11
0.298733
21
1.06751
0
LINE
8
BLACK
6
CONTINUOUS
10
0.298733
20
1.06751
11
0.306841
21
1.05601
0
LINE
8
BLACK
6
CONTINUOUS
10
0.306841
20
1.05601
11
0.313617
21
1.04369
0
LINE
8
BLACK
6
CONTINUOUS
10
0.313617
20
1.04369
11
0.318977
21
1.03068
0
LINE
8
BLACK
6
CONTINUOUS
10
0.318977
20
1.03068
11
0.322853
21
1.01716
0
LINE
8
BLACK
6
CONTINUOUS
10
0.322853
20
1.01716
11
0.325199
21
1.0033
0
LINE
8
BLACK
6
CONTINUOUS
10
0.325199
20
1.0033
11
0.325984
21
0.989252
0
LINE
8
BLACK
6
CONTINUOUS
10
0.325984
20
0.989252
11
0.325935
21
0.985734
0
LINE
8
BLACK
6
CONTINUOUS
10
0.325935
20
0.985734
11
0.324758
21
0.971718
0
LINE
8
BLACK
6
CONTINUOUS
10
0.324758
20
0.971718
11
0.322026
21
0.957921
0
LINE
8
BLACK
6
CONTINUOUS
10
0.322026
20
0.957921
11
0.317773
21
0.944514
0
LINE
8
BLACK
6
CONTINUOUS
10
0.317773
20
0.944514
11
0.312052
21
0.931665
0
LINE
8
BLACK
6
CONTINUOUS
10
0.312052
20
0.931665
11
0.304935
21
0.919533
0
LINE
8
BLACK
6
CONTINUOUS
10
0.304935
20
0.919533
11
0.29651
21
0.908271
0
LINE
8
BLACK
6
CONTINUOUS
10
0.29651
20
0.908271
11
0.286881
21
0.898018
0
LINE
8
BLACK
6
CONTINUOUS
10
0.286881
20
0.898018
11
0.27617
21
0.888902
0
LINE
8
BLACK
6
CONTINUOUS
10
0.27617
20
0.888902
11
0.264509
21
0.881037
0
LINE
8
BLACK
6
CONTINUOUS
10
0.264509
20
0.881037
11
0.252045
21
0.87452
0
LINE
8
BLACK
6
CONTINUOUS
10
0.252045
20
0.87452
11
0.238931
21
0.869434
0
LINE
8
BLACK
6
CONTINUOUS
10
0.238931
20
0.869434
11
0.225333
21
0.865841
0
LINE
8
BLACK
6
CONTINUOUS
10
0.225333
20
0.865841
11
0.211418
21
0.863786
0
LINE
8
BLACK
6
CONTINUOUS
10
0.211418
20
0.863786
11
0.197362
21
0.863295
0
LINE
8
BLACK
6
CONTINUOUS
10
0.197362
20
0.863295
11
0.183338
21
0.864374
0
LINE
8
BLACK
6
CONTINUOUS
10
0.183338
20
0.864374
11
0.169522
21
0.86701
0
LINE
8
BLACK
6
CONTINUOUS
10
0.169522
20
0.86701
11
0.156085
21
0.871169
0
LINE
8
BLACK
6
CONTINUOUS
10
0.156085
20
0.871169
11
0.143197
21
0.8768
0
LINE
8
BLACK
6
CONTINUOUS
10
0.143197
20
0.8768
11
0.131016
21
0.883833
0
LINE
8
BLACK
6
CONTINUOUS
10
0.131016
20
0.883833
11
0.119695
21
0.892179
0
LINE
8
BLACK
6
CONTINUOUS
10
0.119695
20
0.892179
11
0.109375
21
0.901736
0
LINE
8
BLACK
6
CONTINUOUS
10
0.109375
20
0.901736
11
0.100184
21
0.912383
0
LINE
8
BLACK
6
CONTINUOUS
10
0.100184
20
0.912383
11
0.0922376
21
0.923989
0
LINE
8
BLACK
6
CONTINUOUS
10
0.0922376
20
0.923989
11
0.0856343
21
0.936408
0
LINE
8
BLACK
6
CONTINUOUS
10
0.0856343
20
0.936408
11
0.0804566
21
0.949485
0
LINE
8
BLACK
6
CONTINUOUS
10
0.0804566
20
0.949485
11
0.0767688
21
0.963058
0
LINE
8
BLACK
6
CONTINUOUS
10
0.0767688
20
0.963058
11
0.074617
21
0.976958
0
LINE
8
BLACK
6
CONTINUOUS
10
0.074617
20
0.976958
11
0.074028
21
0.991011
0
LINE
8
BLACK
6
CONTINUOUS
10
0.074028
20
0.991011
11
0.0750092
21
1.00504
0
LINE
8
BLACK
6
CONTINUOUS
10
0.0750092
20
1.00504
11
0.0775482
21
1.01888
0
LINE
8
BLACK
6
CONTINUOUS
10
0.0775482
20
1.01888
11
0.0816135
21
1.03234
0
LINE
8
BLACK
6
CONTINUOUS
10
0.0816135
20
1.03234
11
0.0871544
21
1.04527
0
LINE
8
BLACK
6
CONTINUOUS
10
0.0871544
20
1.04527
11
0.0941019
21
1.0575
0
LINE
8
BLACK
6
CONTINUOUS
10
0.0941019
20
1.0575
11
0.102369
21
1.06888
0
LINE
8
BLACK
6
CONTINUOUS
10
0.102369
20
1.06888
11
0.111853
21
1.07926
0
LINE
8
BLACK
6
CONTINUOUS
10
0.111853
20
1.07926
11
0.122436
21
1.08853
0
LINE
8
BLACK
6
CONTINUOUS
10
0.122436
20
1.08853
11
0.133986
21
1.09656
0
LINE
8
BLACK
6
CONTINUOUS
10
0.133986
20
1.09656
11
0.146359
21
1.10325
0
LINE
8
BLACK
6
CONTINUOUS
10
0.146359
20
1.10325
11
0.1594
21
1.10851
0
LINE
8
BLACK
6
CONTINUOUS
10
0.1594
20
1.10851
11
0.172947
21
1.1123
0
LINE
8
BLACK
6
CONTINUOUS
10
0.172947
20
1.1123
11
0.186831
21
1.11455
0
LINE
8
BLACK
6
CONTINUOUS
10
0.186831
20
1.11455
11
0.20088
21
1.11523
0
LINE
8
BLACK
6
CONTINUOUS
10
0.20088
20
1.11523
11
0.214917
21
1.11435
0
LINE
8
BLACK
6
CONTINUOUS
10
0.770976
20
1.81421
11
0.794614
21
1.81198
0
LINE
8
BLACK
6
CONTINUOUS
10
0.794614
20
1.81198
11
0.818065
21
1.80827
0
LINE
8
BLACK
6
CONTINUOUS
10
0.818065
20
1.80827
11
0.841237
21
1.80309
0
LINE
8
BLACK
6
CONTINUOUS
10
0.841237
20
1.80309
11
0.864038
21
1.79646
0
LINE
8
BLACK
6
CONTINUOUS
10
0.864038
20
1.79646
11
0.886378
21
1.78842
0
LINE
8
BLACK
6
CONTINUOUS
10
0.886378
20
1.78842
11
0.908169
21
1.77899
0
LINE
8
BLACK
6
CONTINUOUS
10
0.908169
20
1.77899
11
0.929324
21
1.76821
0
LINE
8
BLACK
6
CONTINUOUS
10
0.929324
20
1.76821
11
0.949761
21
1.75612
0
LINE
8
BLACK
6
CONTINUOUS
10
0.949761
20
1.75612
11
0.969399
21
1.74278
0
LINE
8
BLACK
6
CONTINUOUS
10
0.969399
20
1.74278
11
0.98816
21
1.72823
0
LINE
8
BLACK
6
CONTINUOUS
10
0.98816
20
1.72823
11
1.00597
21
1.71252
0
LINE
8
BLACK
6
CONTINUOUS
10
1.00597
20
1.71252
11
1.02276
21
1.69573
0
LINE
8
BLACK
6
CONTINUOUS
10
1.02276
20
1.69573
11
1.03846
21
1.67792
0
LINE
8
BLACK
6
CONTINUOUS
10
1.03846
20
1.67792
11
1.05301
21
1.65916
0
LINE
8
BLACK
6
CONTINUOUS
10
1.05301
20
1.65916
11
1.06636
21
1.63953
0
LINE
8
BLACK
6
CONTINUOUS
10
1.06636
20
1.63953
11
1.07845
21
1.61909
0
LINE
8
BLACK
6
CONTINUOUS
10
1.07845
20
1.61909
11
1.08923
21
1.59793
0
LINE
8
BLACK
6
CONTINUOUS
10
1.08923
20
1.59793
11
1.09866
21
1.57614
0
LINE
8
BLACK
6
CONTINUOUS
10
1.09866
20
1.57614
11
1.1067
21
1.5538
0
LINE
8
BLACK
6
CONTINUOUS
10
1.1067
20
1.5538
11
1.11332
21
1.531
0
LINE
8
BLACK
6
CONTINUOUS
10
1.11332
20
1.531
11
1.1185
21
1.50783
0
LINE
8
BLACK
6
CONTINUOUS
10
1.1185
20
1.50783
11
1.12222
21
1.48438
0
LINE
8
BLACK
6
CONTINUOUS
10
1.12222
20
1.48438
11
1.12445
21
1.46074
0
LINE
8
BLACK
6
CONTINUOUS
10
1.12445
20
1.46074
11
1.1252
21
1.43701
0
LINE
8
BLACK
6
CONTINUOUS
10
1.1252
20
1.43701
11
1.12445
21
1.41328
0
LINE
8
BLACK
6
CONTINUOUS
10
1.12445
20
1.41328
11
1.12222
21
1.38964
0
LINE
8
BLACK
6
CONTINUOUS
10
1.12222
20
1.38964
11
1.1185
21
1.36619
0
LINE
8
BLACK
6
CONTINUOUS
10
1.1185
20
1.36619
11
1.11332
21
1.34301
0
LINE
8
BLACK
6
CONTINUOUS
10
1.11332
20
1.34301
11
1.1067
21
1.32021
0
LINE
8
BLACK
6
CONTINUOUS
10
1.1067
20
1.32021
11
1.09866
21
1.29787
0
LINE
8
BLACK
6
CONTINUOUS
10
1.09866
20
1.29787
11
1.08923
21
1.27608
0
LINE
8
BLACK
6
CONTINUOUS
10
1.08923
20
1.27608
11
1.07845
21
1.25493
0
LINE
8
BLACK
6
CONTINUOUS
10
1.07845
20
1.25493
11
1.06636
21
1.23449
0
LINE
8
BLACK
6
CONTINUOUS
10
1.06636
20
1.23449
11
1.05301
21
1.21485
0
LINE
8
BLACK
6
CONTINUOUS
10
1.05301
20
1.21485
11
1.03846
21
1.19609
0
LINE
8
BLACK
6
CONTINUOUS
10
1.03846
20
1.19609
11
1.02276
21
1.17828
0
LINE
8
BLACK
6
CONTINUOUS
10
1.02276
20
1.17828
11
1.00597
21
1.16149
0
LINE
8
BLACK
6
CONTINUOUS
10
1.00597
20
1.16149
11
0.98816
21
1.14579
0
LINE
8
BLACK
6
CONTINUOUS
10
0.98816
20
1.14579
11
0.969399
21
1.13124
0
LINE
8
BLACK
6
CONTINUOUS
10
0.969399
20
1.13124
11
0.949761
21
1.11789
0
LINE
8
BLACK
6
CONTINUOUS
10
0.949761
20
1.11789
11
0.929324
21
1.10581
0
LINE
8
BLACK
6
CONTINUOUS
10
0.929324
20
1.10581
11
0.908169
21
1.09503
0
LINE
8
BLACK
6
CONTINUOUS
10
0.908169
20
1.09503
11
0.886378
21
1.0856
0
LINE
8
BLACK
6
CONTINUOUS
10
0.886378
20
1.0856
11
0.864038
21
1.07755
0
LINE
8
BLACK
6
CONTINUOUS
10
0.864038
20
1.07755
11
0.841237
21
1.07093
0
LINE
8
BLACK
6
CONTINUOUS
10
0.841237
20
1.07093
11
0.818065
21
1.06575
0
LINE
8
BLACK
6
CONTINUOUS
10
0.818065
20
1.06575
11
0.794614
21
1.06204
0
LINE
8
BLACK
6
CONTINUOUS
10
0.794614
20
1.06204
11
0.770976
21
1.0598
0
LINE
8
BLACK
6
CONTINUOUS
10
0.770976
20
1.0598
11
0.747244
21
1.05906
0
LINE
8
BLACK
6
CONTINUOUS
10
0.747244
20
1.05906
11
0.723512
21
1.0598
0
LINE
8
BLACK
6
CONTINUOUS
10
0.723512
20
1.0598
11
0.699874
21
1.06204
0
LINE
8
BLACK
6
CONTINUOUS
10
0.699874
20
1.06204
11
0.676423
21
1.06575
0
LINE
8
BLACK
6
CONTINUOUS
10
0.676423
20
1.06575
11
0.653251
21
1.07093
0
LINE
8
BLACK
6
CONTINUOUS
10
0.653251
20
1.07093
11
0.63045
21
1.07755
0
LINE
8
BLACK
6
CONTINUOUS
10
0.63045
20
1.07755
11
0.60811
21
1.0856
0
LINE
8
BLACK
6
CONTINUOUS
10
0.60811
20
1.0856
11
0.58632
21
1.09503
0
LINE
8
BLACK
6
CONTINUOUS
10
0.58632
20
1.09503
11
0.565164
21
1.10581
0
LINE
8
BLACK
6
CONTINUOUS
10
0.565164
20
1.10581
11
0.544727
21
1.11789
0
LINE
8
BLACK
6
CONTINUOUS
10
0.544727
20
1.11789
11
0.525089
21
1.13124
0
LINE
8
BLACK
6
CONTINUOUS
10
0.525089
20
1.13124
11
0.506328
21
1.14579
0
LINE
8
BLACK
6
CONTINUOUS
10
0.506328
20
1.14579
11
0.488518
21
1.16149
0
LINE
8
BLACK
6
CONTINUOUS
10
0.488518
20
1.16149
11
0.471728
21
1.17828
0
LINE
8
BLACK
6
CONTINUOUS
10
0.471728
20
1.17828
11
0.456026
21
1.19609
0
LINE
8
BLACK
6
CONTINUOUS
10
0.456026
20
1.19609
11
0.441474
21
1.21485
0
LINE
8
BLACK
6
CONTINUOUS
10
0.441474
20
1.21485
11
0.428128
21
1.23449
0
LINE
8
BLACK
6
CONTINUOUS
10
0.428128
20
1.23449
11
0.416042
21
1.25493
0
LINE
8
BLACK
6
CONTINUOUS
10
0.416042
20
1.25493
11
0.405262
21
1.27608
0
LINE
8
BLACK
6
CONTINUOUS
10
0.405262
20
1.27608
11
0.395833
21
1.29787
0
LINE
8
BLACK
6
CONTINUOUS
10
0.395833
20
1.29787
11
0.38779
21
1.32021
0
LINE
8
BLACK
6
CONTINUOUS
10
0.38779
20
1.32021
11
0.381165
21
1.34301
0
LINE
8
BLACK
6
CONTINUOUS
10
0.381165
20
1.34301
11
0.375986
21
1.36619
0
LINE
8
BLACK
6
CONTINUOUS
10
0.375986
20
1.36619
11
0.372272
21
1.38964
0
LINE
8
BLACK
6
CONTINUOUS
10
0.372272
20
1.38964
11
0.370037
21
1.41328
0
LINE
8
BLACK
6
CONTINUOUS
10
0.370037
20
1.41328
11
0.369291
21
1.43701
0
LINE
8
BLACK
6
CONTINUOUS
10
0.369291
20
1.43701
11
0.370037
21
1.46074
0
LINE
8
BLACK
6
CONTINUOUS
10
0.370037
20
1.46074
11
0.372272
21
1.48438
0
LINE
8
BLACK
6
CONTINUOUS
10
0.372272
20
1.48438
11
0.375986
21
1.50783
0
LINE
8
BLACK
6
CONTINUOUS
10
0.375986
20
1.50783
11
0.381165
21
1.531
0
LINE
8
BLACK
6
CONTINUOUS
10
0.381165
20
1.531
11
0.38779
21
1.5538
0
LINE
8
BLACK
6
CONTINUOUS
10
0.38779
20
1.5538
11
0.395833
21
1.57614
0
LINE
8
BLACK
6
CONTINUOUS
10
0.395833
20
1.57614
11
0.405262
21
1.59793
0
LINE
8
BLACK
6
CONTINUOUS
10
0.405262
20
1.59793
11
0.416042
21
1.61909
0
LINE
8
BLACK
6
CONTINUOUS
10
0.416042
20
1.61909
11
0.428128
21
1.63953
0
LINE
8
BLACK
6
CONTINUOUS
10
0.428128
20
1.63953
11
0.441474
21
1.65916
0
LINE
8
BLACK
6
CONTINUOUS
10
0.441474
20
1.65916
11
0.456026
21
1.67792
0
LINE
8
BLACK
6
CONTINUOUS
10
0.456026
20
1.67792
11
0.471728
21
1.69573
0
LINE
8
BLACK
6
CONTINUOUS
10
0.471728
20
1.69573
11
0.488518
21
1.71252
0
LINE
8
BLACK
6
CONTINUOUS
10
0.488518
20
1.71252
11
0.506328
21
1.72823
0
LINE
8
BLACK
6
CONTINUOUS
10
0.506328
20
1.72823
11
0.525089
21
1.74278
0
LINE
8
BLACK
6
CONTINUOUS
10
0.525089
20
1.74278
11
0.544727
21
1.75612
0
LINE
8
BLACK
6
CONTINUOUS
10
0.544727
20
1.75612
11
0.565164
21
1.76821
0
LINE
8
BLACK
6
CONTINUOUS
10
0.565164
20
1.76821
11
0.58632
21
1.77899
0
LINE
8
BLACK
6
CONTINUOUS
10
0.58632
20
1.77899
11
0.60811
21
1.78842
0
LINE
8
BLACK
6
CONTINUOUS
10
0.60811
20
1.78842
11
0.63045
21
1.79646
0
LINE
8
BLACK
6
CONTINUOUS
10
0.63045
20
1.79646
11
0.653251
21
1.80309
0
LINE
8
BLACK
6
CONTINUOUS
10
0.653251
20
1.80309
11
0.676423
21
1.80827
0
LINE
8
BLACK
6
CONTINUOUS
10
0.676423
20
1.80827
11
0.699874
21
1.81198
0
LINE
8
BLACK
6
CONTINUOUS
10
0.699874
20
1.81198
11
0.723512
21
1.81421
0
LINE
8
BLACK
6
CONTINUOUS
10
0.723512
20
1.81421
11
0.747244
21
1.81496
0
LINE
8
BLACK
6
CONTINUOUS
10
0.747244
20
1.81496
11
0.770976
21
1.81421
0
LINE
8
BLACK
6
CONTINUOUS
10
1.67649
20
1.81421
11
1.70013
21
1.81198
0
LINE
8
BLACK
6
CONTINUOUS
10
1.70013
20
1.81198
11
1.72358
21
1.80827
0
LINE
8
BLACK
6
CONTINUOUS
10
1.72358
20
1.80827
11
1.74675
21
1.80309
0
LINE
8
BLACK
6
CONTINUOUS
10
1.74675
20
1.80309
11
1.76955
21
1.79646
0
LINE
8
BLACK
6
CONTINUOUS
10
1.76955
20
1.79646
11
1.79189
21
1.78842
0
LINE
8
BLACK
6
CONTINUOUS
10
1.79189
20
1.78842
11
1.81368
21
1.77899
0
LINE
8
BLACK
6
CONTINUOUS
10
1.81368
20
1.77899
11
1.83484
21
1.76821
0
LINE
8
BLACK
6
CONTINUOUS
10
1.83484
20
1.76821
11
1.85527
21
1.75612
0
LINE
8
BLACK
6
CONTINUOUS
10
1.85527
20
1.75612
11
1.87491
21
1.74278
0
LINE
8
BLACK
6
CONTINUOUS
10
1.87491
20
1.74278
11
1.89367
21
1.72823
0
LINE
8
BLACK
6
CONTINUOUS
10
1.89367
20
1.72823
11
1.91148
21
1.71252
0
LINE
8
BLACK
6
CONTINUOUS
10
1.91148
20
1.71252
11
1.92827
21
1.69573
0
LINE
8
BLACK
6
CONTINUOUS
10
1.92827
20
1.69573
11
1.94397
21
1.67792
0
LINE
8
BLACK
6
CONTINUOUS
10
1.94397
20
1.67792
11
1.95853
21
1.65916
0
LINE
8
BLACK
6
CONTINUOUS
10
1.95853
20
1.65916
11
1.97187
21
1.63953
0
LINE
8
BLACK
6
CONTINUOUS
10
1.97187
20
1.63953
11
1.98396
21
1.61909
0
LINE
8
BLACK
6
CONTINUOUS
10
1.98396
20
1.61909
11
1.99474
21
1.59793
0
LINE
8
BLACK
6
CONTINUOUS
10
1.99474
20
1.59793
11
2.00417
21
1.57614
0
LINE
8
BLACK
6
CONTINUOUS
10
2.00417
20
1.57614
11
2.01221
21
1.5538
0
LINE
8
BLACK
6
CONTINUOUS
10
2.01221
20
1.5538
11
2.01883
21
1.531
0
LINE
8
BLACK
6
CONTINUOUS
10
2.01883
20
1.531
11
2.02401
21
1.50783
0
LINE
8
BLACK
6
CONTINUOUS
10
2.02401
20
1.50783
11
2.02773
21
1.48438
0
LINE
8
BLACK
6
CONTINUOUS
10
2.02773
20
1.48438
11
2.02996
21
1.46074
0
LINE
8
BLACK
6
CONTINUOUS
10
2.02996
20
1.46074
11
2.03071
21
1.43701
0
LINE
8
BLACK
6
CONTINUOUS
10
2.03071
20
1.43701
11
2.02996
21
1.41328
0
LINE
8
BLACK
6
CONTINUOUS
10
2.02996
20
1.41328
11
2.02773
21
1.38964
0
LINE
8
BLACK
6
CONTINUOUS
10
2.02773
20
1.38964
11
2.02401
21
1.36619
0
LINE
8
BLACK
6
CONTINUOUS
10
2.02401
20
1.36619
11
2.01883
21
1.34301
0
LINE
8
BLACK
6
CONTINUOUS
10
2.01883
20
1.34301
11
2.01221
21
1.32021
0
LINE
8
BLACK
6
CONTINUOUS
10
2.01221
20
1.32021
11
2.00417
21
1.29787
0
LINE
8
BLACK
6
CONTINUOUS
10
2.00417
20
1.29787
11
1.99474
21
1.27608
0
LINE
8
BLACK
6
CONTINUOUS
10
1.99474
20
1.27608
11
1.98396
21
1.25493
0
LINE
8
BLACK
6
CONTINUOUS
10
1.98396
20
1.25493
11
1.97187
21
1.23449
0
LINE
8
BLACK
6
CONTINUOUS
10
1.97187
20
1.23449
11
1.95853
21
1.21485
0
LINE
8
BLACK
6
CONTINUOUS
10
1.95853
20
1.21485
11
1.94397
21
1.19609
0
LINE
8
BLACK
6
CONTINUOUS
10
1.94397
20
1.19609
11
1.92827
21
1.17828
0
LINE
8
BLACK
6
CONTINUOUS
10
1.92827
20
1.17828
11
1.91148
21
1.16149
0
LINE
8
BLACK
6
CONTINUOUS
10
1.91148
20
1.16149
11
1.89367
21
1.14579
0
LINE
8
BLACK
6
CONTINUOUS
10
1.89367
20
1.14579
11
1.87491
21
1.13124
0
LINE
8
BLACK
6
CONTINUOUS
10
1.87491
20
1.13124
11
1.85527
21
1.11789
0
LINE
8
BLACK
6
CONTINUOUS
10
1.85527
20
1.11789
11
1.83484
21
1.10581
0
LINE
8
BLACK
6
CONTINUOUS
10
1.83484
20
1.10581
11
1.81368
21
1.09503
0
LINE
8
BLACK
6
CONTINUOUS
10
1.81368
20
1.09503
11
1.79189
21
1.0856
0
LINE
8
BLACK
6
CONTINUOUS
10
1.79189
20
1.0856
11
1.76955
21
1.07755
0
LINE
8
BLACK
6
CONTINUOUS
10
1.76955
20
1.07755
11
1.74675
21
1.07093
0
LINE
8
BLACK
6
CONTINUOUS
10
1.74675
20
1.07093
11
1.72358
21
1.06575
0
LINE
8
BLACK
6
CONTINUOUS
10
1.72358
20
1.06575
11
1.70013
21
1.06204
0
LINE
8
BLACK
6
CONTINUOUS
10
1.70013
20
1.06204
11
1.67649
21
1.0598
0
LINE
8
BLACK
6
CONTINUOUS
10
1.67649
20
1.0598
11
1.65276
21
1.05906
0
LINE
8
BLACK
6
CONTINUOUS
10
1.65276
20
1.05906
11
1.62902
21
1.0598
0
LINE
8
BLACK
6
CONTINUOUS
10
1.62902
20
1.0598
11
1.60539
21
1.06204
0
LINE
8
BLACK
6
CONTINUOUS
10
1.60539
20
1.06204
11
1.58193
21
1.06575
0
LINE
8
BLACK
6
CONTINUOUS
10
1.58193
20
1.06575
11
1.55876
21
1.07093
0
LINE
8
BLACK
6
CONTINUOUS
10
1.55876
20
1.07093
11
1.53596
21
1.07755
0
LINE
8
BLACK
6
CONTINUOUS
10
1.53596
20
1.07755
11
1.51362
21
1.0856
0
LINE
8
BLACK
6
CONTINUOUS
10
1.51362
20
1.0856
11
1.49183
21
1.09503
0
LINE
8
BLACK
6
CONTINUOUS
10
1.49183
20
1.09503
11
1.47068
21
1.10581
0
LINE
8
BLACK
6
CONTINUOUS
10
1.47068
20
1.10581
11
1.45024
21
1.11789
0
LINE
8
BLACK
6
CONTINUOUS
10
1.45024
20
1.11789
11
1.4306
21
1.13124
0
LINE
8
BLACK
6
CONTINUOUS
10
1.4306
20
1.13124
11
1.41184
21
1.14579
0
LINE
8
BLACK
6
CONTINUOUS
10
1.41184
20
1.14579
11
1.39403
21
1.16149
0
LINE
8
BLACK
6
CONTINUOUS
10
1.39403
20
1.16149
11
1.37724
21
1.17828
0
LINE
8
BLACK
6
CONTINUOUS
10
1.37724
20
1.17828
11
1.36154
21
1.19609
0
LINE
8
BLACK
6
CONTINUOUS
10
1.36154
20
1.19609
11
1.34699
21
1.21485
0
LINE
8
BLACK
6
CONTINUOUS
10
1.34699
20
1.21485
11
1.33364
21
1.23449
0
LINE
8
BLACK
6
CONTINUOUS
10
1.33364
20
1.23449
11
1.32155
21
1.25493
0
LINE
8
BLACK
6
CONTINUOUS
10
1.32155
20
1.25493
11
1.31077
21
1.27608
0
LINE
8
BLACK
6
CONTINUOUS
10
1.31077
20
1.27608
11
1.30134
21
1.29787
0
LINE
8
BLACK
6
CONTINUOUS
10
1.30134
20
1.29787
11
1.2933
21
1.32021
0
LINE
8
BLACK
6
CONTINUOUS
10
1.2933
20
1.32021
11
1.28668
21
1.34301
0
LINE
8
BLACK
6
CONTINUOUS
10
1.28668
20
1.34301
11
1.2815
21
1.36619
0
LINE
8
BLACK
6
CONTINUOUS
10
1.2815
20
1.36619
11
1.27778
21
1.38964
0
LINE
8
BLACK
6
CONTINUOUS
10
1.27778
20
1.38964
11
1.27555
21
1.41328
0
LINE
8
BLACK
6
CONTINUOUS
10
1.27555
20
1.41328
11
1.2748
21
1.43701
0
LINE
8
BLACK
6
CONTINUOUS
10
1.2748
20
1.43701
11
1.27555
21
1.46074
0
LINE
8
BLACK
6
CONTINUOUS
10
1.27555
20
1.46074
11
1.27778
21
1.48438
0
LINE
8
BLACK
6
CONTINUOUS
10
1.27778
20
1.48438
11
1.2815
21
1.50783
0
LINE
8
BLACK
6
CONTINUOUS
10
1.2815
20
1.50783
11
1.28668
21
1.531
0
LINE
8
BLACK
6
CONTINUOUS
10
1.28668
20
1.531
11
1.2933
21
1.5538
0
LINE
8
BLACK
6
CONTINUOUS
10
1.2933
20
1.5538
11
1.30134
21
1.57614
0
LINE
8
BLACK
6
CONTINUOUS
10
1.30134
20
1.57614
11
1.31077
21
1.59793
0
LINE
8
BLACK
6
CONTINUOUS
10
1.31077
20
1.59793
11
1.32155
21
1.61909
0
LINE
8
BLACK
6
CONTINUOUS
10
1.32155
20
1.61909
11
1.33364
21
1.63953
0
LINE
8
BLACK
6
CONTINUOUS
10
1.33364
20
1.63953
11
1.34699
21
1.65916
0
LINE
8
BLACK
6
CONTINUOUS
10
1.34699
20
1.65916
11
1.36154
21
1.67792
0
LINE
8
BLACK
6
CONTINUOUS
10
1.36154
20
1.67792
11
1.37724
21
1.69573
0
LINE
8
BLACK
6
CONTINUOUS
10
1.37724
20
1.69573
11
1.39403
21
1.71252
0
LINE
8
BLACK
6
CONTINUOUS
10
1.39403
20
1.71252
11
1.41184
21
1.72823
0
LINE
8
BLACK
6
CONTINUOUS
10
1.41184
20
1.72823
11
1.4306
21
1.74278
0
LINE
8
BLACK
6
CONTINUOUS
10
1.4306
20
1.74278
11
1.45024
21
1.75612
0
LINE
8
BLACK
6
CONTINUOUS
10
1.45024
20
1.75612
11
1.47068
21
1.76821
0
LINE
8
BLACK
6
CONTINUOUS
10
1.47068
20
1.76821
11
1.49183
21
1.77899
0
LINE
8
BLACK
6
CONTINUOUS
10
1.49183
20
1.77899
11
1.51362
21
1.78842
0
LINE
8
BLACK
6
CONTINUOUS
10
1.51362
20
1.78842
11
1.53596
21
1.79646
0
LINE
8
BLACK
6
CONTINUOUS
10
1.53596
20
1.79646
11
1.55876
21
1.80309
0
LINE
8
BLACK
6
CONTINUOUS
10
1.55876
20
1.80309
11
1.58193
21
1.80827
0
LINE
8
BLACK
6
CONTINUOUS
10
1.58193
20
1.80827
11
1.60539
21
1.81198
0
LINE
8
BLACK
6
CONTINUOUS
10
1.60539
20
1.81198
11
1.62902
21
1.81421
0
LINE
8
BLACK
6
CONTINUOUS
10
1.62902
20
1.81421
11
1.65276
21
1.81496
0
LINE
8
BLACK
6
CONTINUOUS
10
1.65276
20
1.81496
11
1.67649
21
1.81421
  0
ENDSEC
  0
EOF
