  0
SECTION
  2
HEADER
  9
$ANGBASE
  50
0.0
  9
$ANGDIR
  70
1
  9
$MEASUREMENT
  70
0
  0
ENDSEC
  0
SECTION
  2
TABLES
  0
TABLE
  2
LTYPE
  70
4
  0
LTYPE
  5
40F
  2
CONTINUOUS
  70
0
  3
Solid line
  72
65
  73
0
  40
0.0
  0
LTYPE
  5
410
  2
DASHDOT
 70
0
  3
Dash Dot ____ _ ____ _
 72
65
 73
4
 40
2.0
 49
1.25
 49
-0.25
 49
0.25
 49
-0.25
  0
LTYPE
  5
411
  2
DASHED
 70
0
  3
Dashed __ __ __ __ __
 72
65
 73
2
 40
0.75
 49
0.5
 49
-0.25
  0
LTYPE
  5
43B
  2
DOTTED
 70
0
  3
Dotted .  .  .  .
 72
65
 73
2
 40
0.2
 49
0.0
 49
-0.2
  0
ENDTAB
  0
TABLE
  2
STYLE
  70
4
  0
STYLE
  2
KICAD
  70
0
  40
0
  41
1
  42
1
  50
0
  71
0
  3
isocp.shx
  0
STYLE
  2
KICADB
  70
0
  40
0
  41
1
  42
1
  50
0
  71
0
  3
isocp.shx
  0
STYLE
  2
KICADI
  70
0
  40
0
  41
1
  42
1
  50
15
  71
0
  3
isocp.shx
  0
STYLE
  2
KICADBI
  70
0
  40
0
  41
1
  42
1
  50
15
  71
0
  3
isocp.shx
  0
ENDTAB
  0
TABLE
  2
LAYER
  70
1
  0
LAYER
  2
BLACK
  70
0
  62
7
  6
CONTINUOUS
  0
ENDTAB
  0
ENDSEC
  0
SECTION
  2
ENTITIES
0
LINE
8
BLACK
6
CONTINUOUS
10
0.00860807
20
0.00860807
11
0.0080315
21
0.01
0
LINE
8
BLACK
6
CONTINUOUS
10
0.0080315
20
0.01
11
0.0080315
21
1.5748
0
LINE
8
BLACK
6
CONTINUOUS
10
0.0080315
20
1.5748
11
0.00875339
21
1.59869
0
LINE
8
BLACK
6
CONTINUOUS
10
0.00875339
20
1.59869
11
0.0109164
21
1.6225
0
LINE
8
BLACK
6
CONTINUOUS
10
0.0109164
20
1.6225
11
0.0145126
21
1.64612
0
LINE
8
BLACK
6
CONTINUOUS
10
0.0145126
20
1.64612
11
0.0195289
21
1.66949
0
LINE
8
BLACK
6
CONTINUOUS
10
0.0195289
20
1.66949
11
0.025947
21
1.69252
0
LINE
8
BLACK
6
CONTINUOUS
10
0.025947
20
1.69252
11
0.0337436
21
1.71511
0
LINE
8
BLACK
6
CONTINUOUS
10
0.0337436
20
1.71511
11
0.04289
21
1.73719
0
LINE
8
BLACK
6
CONTINUOUS
10
0.04289
20
1.73719
11
0.053353
21
1.75868
0
LINE
8
BLACK
6
CONTINUOUS
10
0.053353
20
1.75868
11
0.0650944
21
1.7795
0
LINE
8
BLACK
6
CONTINUOUS
10
0.0650944
20
1.7795
11
0.0780713
21
1.79957
0
LINE
8
BLACK
6
CONTINUOUS
10
0.0780713
20
1.79957
11
0.0922365
21
1.81882
0
LINE
8
BLACK
6
CONTINUOUS
10
0.0922365
20
1.81882
11
0.107538
21
1.83718
0
LINE
8
BLACK
6
CONTINUOUS
10
0.107538
20
1.83718
11
0.12392
21
1.85458
0
LINE
8
BLACK
6
CONTINUOUS
10
0.12392
20
1.85458
11
0.141324
21
1.87097
0
LINE
8
BLACK
6
CONTINUOUS
10
0.141324
20
1.87097
11
0.159684
21
1.88627
0
LINE
8
BLACK
6
CONTINUOUS
10
0.159684
20
1.88627
11
0.178935
21
1.90043
0
LINE
8
BLACK
6
CONTINUOUS
10
0.178935
20
1.90043
11
0.199006
21
1.91341
0
LINE
8
BLACK
6
CONTINUOUS
10
0.199006
20
1.91341
11
0.219824
21
1.92515
0
LINE
8
BLACK
6
CONTINUOUS
10
0.219824
20
1.92515
11
0.241313
21
1.93561
0
LINE
8
BLACK
6
CONTINUOUS
10
0.241313
20
1.93561
11
0.263395
21
1.94476
0
LINE
8
BLACK
6
CONTINUOUS
10
0.263395
20
1.94476
11
0.285988
21
1.95256
0
LINE
8
BLACK
6
CONTINUOUS
10
0.285988
20
1.95256
11
0.309011
21
1.95897
0
LINE
8
BLACK
6
CONTINUOUS
10
0.309011
20
1.95897
11
0.332379
21
1.96399
0
LINE
8
BLACK
6
CONTINUOUS
10
0.332379
20
1.96399
11
0.356008
21
1.96759
0
LINE
8
BLACK
6
CONTINUOUS
10
0.356008
20
1.96759
11
0.379811
21
1.96975
0
LINE
8
BLACK
6
CONTINUOUS
10
0.379811
20
1.96975
11
0.403701
21
1.97047
0
LINE
8
BLACK
6
CONTINUOUS
10
0.403701
20
1.97047
11
1.9963
21
1.97047
0
LINE
8
BLACK
6
CONTINUOUS
10
1.9963
20
1.97047
11
2.02019
21
1.96975
0
LINE
8
BLACK
6
CONTINUOUS
10
2.02019
20
1.96975
11
2.04399
21
1.96759
0
LINE
8
BLACK
6
CONTINUOUS
10
2.04399
20
1.96759
11
2.06762
21
1.96399
0
LINE
8
BLACK
6
CONTINUOUS
10
2.06762
20
1.96399
11
2.09099
21
1.95897
0
LINE
8
BLACK
6
CONTINUOUS
10
2.09099
20
1.95897
11
2.11401
21
1.95256
0
LINE
8
BLACK
6
CONTINUOUS
10
2.11401
20
1.95256
11
2.13661
21
1.94476
0
LINE
8
BLACK
6
CONTINUOUS
10
2.13661
20
1.94476
11
2.15869
21
1.93561
0
LINE
8
BLACK
6
CONTINUOUS
10
2.15869
20
1.93561
11
2.18018
21
1.92515
0
LINE
8
BLACK
6
CONTINUOUS
10
2.18018
20
1.92515
11
2.20099
21
1.91341
0
LINE
8
BLACK
6
CONTINUOUS
10
2.20099
20
1.91341
11
2.22106
21
1.90043
0
LINE
8
BLACK
6
CONTINUOUS
10
2.22106
20
1.90043
11
2.24032
21
1.88627
0
LINE
8
BLACK
6
CONTINUOUS
10
2.24032
20
1.88627
11
2.25868
21
1.87097
0
LINE
8
BLACK
6
CONTINUOUS
10
2.25868
20
1.87097
11
2.27608
21
1.85458
0
LINE
8
BLACK
6
CONTINUOUS
10
2.27608
20
1.85458
11
2.29246
21
1.83718
0
LINE
8
BLACK
6
CONTINUOUS
10
2.29246
20
1.83718
11
2.30776
21
1.81882
0
LINE
8
BLACK
6
CONTINUOUS
10
2.30776
20
1.81882
11
2.32193
21
1.79957
0
LINE
8
BLACK
6
CONTINUOUS
10
2.32193
20
1.79957
11
2.33491
21
1.7795
0
LINE
8
BLACK
6
CONTINUOUS
10
2.33491
20
1.7795
11
2.34665
21
1.75868
0
LINE
8
BLACK
6
CONTINUOUS
10
2.34665
20
1.75868
11
2.35711
21
1.73719
0
LINE
8
BLACK
6
CONTINUOUS
10
2.35711
20
1.73719
11
2.36626
21
1.71511
0
LINE
8
BLACK
6
CONTINUOUS
10
2.36626
20
1.71511
11
2.37405
21
1.69252
0
LINE
8
BLACK
6
CONTINUOUS
10
2.37405
20
1.69252
11
2.38047
21
1.66949
0
LINE
8
BLACK
6
CONTINUOUS
10
2.38047
20
1.66949
11
2.38549
21
1.64612
0
LINE
8
BLACK
6
CONTINUOUS
10
2.38549
20
1.64612
11
2.38908
21
1.6225
0
LINE
8
BLACK
6
CONTINUOUS
10
2.38908
20
1.6225
11
2.39125
21
1.59869
0
LINE
8
BLACK
6
CONTINUOUS
10
2.39125
20
1.59869
11
2.39197
21
1.5748
0
LINE
8
BLACK
6
CONTINUOUS
10
2.39197
20
1.5748
11
2.39197
21
0.01
0
LINE
8
BLACK
6
CONTINUOUS
10
2.39197
20
0.01
11
2.39139
21
0.00860807
0
LINE
8
BLACK
6
CONTINUOUS
10
2.39139
20
0.00860807
11
2.39
21
0.0080315
0
LINE
8
BLACK
6
CONTINUOUS
10
2.39
20
0.0080315
11
0.01
21
0.0080315
0
LINE
8
BLACK
6
CONTINUOUS
10
0.01
20
0.0080315
11
0.00860807
21
0.00860807
0
LINE
8
BLACK
6
CONTINUOUS
10
0.403299
20
1.9667
11
0.380038
21
1.966
0
LINE
8
BLACK
6
CONTINUOUS
10
0.380038
20
1.966
11
0.356461
21
1.96386
0
LINE
8
BLACK
6
CONTINUOUS
10
0.356461
20
1.96386
11
0.333057
21
1.96029
0
LINE
8
BLACK
6
CONTINUOUS
10
0.333057
20
1.96029
11
0.30991
21
1.95533
0
LINE
8
BLACK
6
CONTINUOUS
10
0.30991
20
1.95533
11
0.287106
21
1.94897
0
LINE
8
BLACK
6
CONTINUOUS
10
0.287106
20
1.94897
11
0.264727
21
1.94125
0
LINE
8
BLACK
6
CONTINUOUS
10
0.264727
20
1.94125
11
0.242855
21
1.93219
0
LINE
8
BLACK
6
CONTINUOUS
10
0.242855
20
1.93219
11
0.221571
21
1.92182
0
LINE
8
BLACK
6
CONTINUOUS
10
0.221571
20
1.92182
11
0.20095
21
1.91019
0
LINE
8
BLACK
6
CONTINUOUS
10
0.20095
20
1.91019
11
0.18107
21
1.89734
0
LINE
8
BLACK
6
CONTINUOUS
10
0.18107
20
1.89734
11
0.162002
21
1.88331
0
LINE
8
BLACK
6
CONTINUOUS
10
0.162002
20
1.88331
11
0.143816
21
1.86815
0
LINE
8
BLACK
6
CONTINUOUS
10
0.143816
20
1.86815
11
0.126578
21
1.85193
0
LINE
8
BLACK
6
CONTINUOUS
10
0.126578
20
1.85193
11
0.110351
21
1.83469
0
LINE
8
BLACK
6
CONTINUOUS
10
0.110351
20
1.83469
11
0.0951949
21
1.8165
0
LINE
8
BLACK
6
CONTINUOUS
10
0.0951949
20
1.8165
11
0.0811643
21
1.79743
0
LINE
8
BLACK
6
CONTINUOUS
10
0.0811643
20
1.79743
11
0.0683106
21
1.77755
0
LINE
8
BLACK
6
CONTINUOUS
10
0.0683106
20
1.77755
11
0.0566808
21
1.75693
0
LINE
8
BLACK
6
CONTINUOUS
10
0.0566808
20
1.75693
11
0.0463172
21
1.73565
0
LINE
8
BLACK
6
CONTINUOUS
10
0.0463172
20
1.73565
11
0.0372576
21
1.71378
0
LINE
8
BLACK
6
CONTINUOUS
10
0.0372576
20
1.71378
11
0.0295351
21
1.6914
0
LINE
8
BLACK
6
CONTINUOUS
10
0.0295351
20
1.6914
11
0.023178
21
1.66859
0
LINE
8
BLACK
6
CONTINUOUS
10
0.023178
20
1.66859
11
0.0182093
21
1.64545
0
LINE
8
BLACK
6
CONTINUOUS
10
0.0182093
20
1.64545
11
0.0146472
21
1.62204
0
LINE
8
BLACK
6
CONTINUOUS
10
0.0146472
20
1.62204
11
0.0125048
21
1.59847
0
LINE
8
BLACK
6
CONTINUOUS
10
0.0125048
20
1.59847
11
0.0118019
21
1.57521
0
LINE
8
BLACK
6
CONTINUOUS
10
0.0118019
20
1.57521
11
0.0119685
21
1.5748
0
LINE
8
BLACK
6
CONTINUOUS
10
0.0119685
20
1.5748
11
0.0119685
21
0.0119685
0
LINE
8
BLACK
6
CONTINUOUS
10
0.0119685
20
0.0119685
11
2.38803
21
0.0119685
0
LINE
8
BLACK
6
CONTINUOUS
10
2.38803
20
0.0119685
11
2.38803
21
1.5748
0
LINE
8
BLACK
6
CONTINUOUS
10
2.38803
20
1.5748
11
2.3882
21
1.57521
0
LINE
8
BLACK
6
CONTINUOUS
10
2.3882
20
1.57521
11
2.3875
21
1.59847
0
LINE
8
BLACK
6
CONTINUOUS
10
2.3875
20
1.59847
11
2.38535
21
1.62204
0
LINE
8
BLACK
6
CONTINUOUS
10
2.38535
20
1.62204
11
2.38179
21
1.64545
0
LINE
8
BLACK
6
CONTINUOUS
10
2.38179
20
1.64545
11
2.37682
21
1.66859
0
LINE
8
BLACK
6
CONTINUOUS
10
2.37682
20
1.66859
11
2.37046
21
1.6914
0
LINE
8
BLACK
6
CONTINUOUS
10
2.37046
20
1.6914
11
2.36274
21
1.71378
0
LINE
8
BLACK
6
CONTINUOUS
10
2.36274
20
1.71378
11
2.35368
21
1.73565
0
LINE
8
BLACK
6
CONTINUOUS
10
2.35368
20
1.73565
11
2.34332
21
1.75693
0
LINE
8
BLACK
6
CONTINUOUS
10
2.34332
20
1.75693
11
2.33169
21
1.77755
0
LINE
8
BLACK
6
CONTINUOUS
10
2.33169
20
1.77755
11
2.31884
21
1.79743
0
LINE
8
BLACK
6
CONTINUOUS
10
2.31884
20
1.79743
11
2.30481
21
1.8165
0
LINE
8
BLACK
6
CONTINUOUS
10
2.30481
20
1.8165
11
2.28965
21
1.83469
0
LINE
8
BLACK
6
CONTINUOUS
10
2.28965
20
1.83469
11
2.27342
21
1.85193
0
LINE
8
BLACK
6
CONTINUOUS
10
2.27342
20
1.85193
11
2.25618
21
1.86815
0
LINE
8
BLACK
6
CONTINUOUS
10
2.25618
20
1.86815
11
2.238
21
1.88331
0
LINE
8
BLACK
6
CONTINUOUS
10
2.238
20
1.88331
11
2.21893
21
1.89734
0
LINE
8
BLACK
6
CONTINUOUS
10
2.21893
20
1.89734
11
2.19905
21
1.91019
0
LINE
8
BLACK
6
CONTINUOUS
10
2.19905
20
1.91019
11
2.17843
21
1.92182
0
LINE
8
BLACK
6
CONTINUOUS
10
2.17843
20
1.92182
11
2.15714
21
1.93219
0
LINE
8
BLACK
6
CONTINUOUS
10
2.15714
20
1.93219
11
2.13527
21
1.94125
0
LINE
8
BLACK
6
CONTINUOUS
10
2.13527
20
1.94125
11
2.11289
21
1.94897
0
LINE
8
BLACK
6
CONTINUOUS
10
2.11289
20
1.94897
11
2.09009
21
1.95533
0
LINE
8
BLACK
6
CONTINUOUS
10
2.09009
20
1.95533
11
2.06694
21
1.96029
0
LINE
8
BLACK
6
CONTINUOUS
10
2.06694
20
1.96029
11
2.04354
21
1.96386
0
LINE
8
BLACK
6
CONTINUOUS
10
2.04354
20
1.96386
11
2.01996
21
1.966
0
LINE
8
BLACK
6
CONTINUOUS
10
2.01996
20
1.966
11
1.9967
21
1.9667
0
LINE
8
BLACK
6
CONTINUOUS
10
1.9967
20
1.9667
11
1.9963
21
1.96654
0
LINE
8
BLACK
6
CONTINUOUS
10
1.9963
20
1.96654
11
0.403701
21
1.96654
0
LINE
8
BLACK
6
CONTINUOUS
10
0.403701
20
1.96654
11
0.403299
21
1.9667
  0
ENDSEC
  0
EOF
