  0
SECTION
  2
HEADER
  9
$ANGBASE
  50
0.0
  9
$ANGDIR
  70
1
  9
$MEASUREMENT
  70
0
  0
ENDSEC
  0
SECTION
  2
TABLES
  0
TABLE
  2
LTYPE
  70
4
  0
LTYPE
  5
40F
  2
CONTINUOUS
  70
0
  3
Solid line
  72
65
  73
0
  40
0.0
  0
LTYPE
  5
410
  2
DASHDOT
 70
0
  3
Dash Dot ____ _ ____ _
 72
65
 73
4
 40
2.0
 49
1.25
 49
-0.25
 49
0.25
 49
-0.25
  0
LTYPE
  5
411
  2
DASHED
 70
0
  3
Dashed __ __ __ __ __
 72
65
 73
2
 40
0.75
 49
0.5
 49
-0.25
  0
LTYPE
  5
43B
  2
DOTTED
 70
0
  3
Dotted .  .  .  .
 72
65
 73
2
 40
0.2
 49
0.0
 49
-0.2
  0
ENDTAB
  0
TABLE
  2
STYLE
  70
4
  0
STYLE
  2
KICAD
  70
0
  40
0
  41
1
  42
1
  50
0
  71
0
  3
isocp.shx
  0
STYLE
  2
KICADB
  70
0
  40
0
  41
1
  42
1
  50
0
  71
0
  3
isocp.shx
  0
STYLE
  2
KICADI
  70
0
  40
0
  41
1
  42
1
  50
15
  71
0
  3
isocp.shx
  0
STYLE
  2
KICADBI
  70
0
  40
0
  41
1
  42
1
  50
15
  71
0
  3
isocp.shx
  0
ENDTAB
  0
TABLE
  2
LAYER
  70
1
  0
LAYER
  2
BLACK
  70
0
  62
7
  6
CONTINUOUS
  0
ENDTAB
  0
ENDSEC
  0
SECTION
  2
ENTITIES
0
LINE
8
BLACK
6
CONTINUOUS
10
0.0179509
20
1.57402
11
0.0179513
21
1.57424
0
LINE
8
BLACK
6
CONTINUOUS
10
0.0179513
20
1.57424
11
0.0180765
21
1.57479
0
LINE
8
BLACK
6
CONTINUOUS
10
0.0180765
20
1.57479
11
0.0179532
21
1.57533
0
LINE
8
BLACK
6
CONTINUOUS
10
0.0179532
20
1.57533
11
0.0179541
21
1.57582
0
LINE
8
BLACK
6
CONTINUOUS
10
0.0179541
20
1.57582
11
0.0179165
21
1.57621
0
LINE
8
BLACK
6
CONTINUOUS
10
0.0179165
20
1.57621
11
0.0185734
21
1.59795
0
LINE
8
BLACK
6
CONTINUOUS
10
0.0185734
20
1.59795
11
0.0185915
21
1.59825
0
LINE
8
BLACK
6
CONTINUOUS
10
0.0185915
20
1.59825
11
0.0206735
21
1.62116
0
LINE
8
BLACK
6
CONTINUOUS
10
0.0206735
20
1.62116
11
0.0207096
21
1.62146
0
LINE
8
BLACK
6
CONTINUOUS
10
0.0207096
20
1.62146
11
0.0241714
21
1.6442
0
LINE
8
BLACK
6
CONTINUOUS
10
0.0241714
20
1.6442
11
0.0242254
21
1.6445
0
LINE
8
BLACK
6
CONTINUOUS
10
0.0242254
20
1.6445
11
0.0290541
21
1.66699
0
LINE
8
BLACK
6
CONTINUOUS
10
0.0290541
20
1.66699
11
0.0291258
21
1.66728
0
LINE
8
BLACK
6
CONTINUOUS
10
0.0291258
20
1.66728
11
0.033513
21
1.68302
0
LINE
8
BLACK
6
CONTINUOUS
10
0.033513
20
1.68302
11
0.0353037
21
1.68944
0
LINE
8
BLACK
6
CONTINUOUS
10
0.0353037
20
1.68944
11
0.0353925
21
1.68973
0
LINE
8
BLACK
6
CONTINUOUS
10
0.0353925
20
1.68973
11
0.0428978
21
1.71148
0
LINE
8
BLACK
6
CONTINUOUS
10
0.0428978
20
1.71148
11
0.0430039
21
1.71176
0
LINE
8
BLACK
6
CONTINUOUS
10
0.0430039
20
1.71176
11
0.0452865
21
1.71727
0
LINE
8
BLACK
6
CONTINUOUS
10
0.0452865
20
1.71727
11
0.0518081
21
1.73301
0
LINE
8
BLACK
6
CONTINUOUS
10
0.0518081
20
1.73301
11
0.0519311
21
1.73329
0
LINE
8
BLACK
6
CONTINUOUS
10
0.0519311
20
1.73329
11
0.0620026
21
1.75397
0
LINE
8
BLACK
6
CONTINUOUS
10
0.0620026
20
1.75397
11
0.0621418
21
1.75424
0
LINE
8
BLACK
6
CONTINUOUS
10
0.0621418
20
1.75424
11
0.0734439
21
1.77428
0
LINE
8
BLACK
6
CONTINUOUS
10
0.0734439
20
1.77428
11
0.0735989
21
1.77453
0
LINE
8
BLACK
6
CONTINUOUS
10
0.0735989
20
1.77453
11
0.0811923
21
1.78628
0
LINE
8
BLACK
6
CONTINUOUS
10
0.0811923
20
1.78628
11
0.0860902
21
1.79385
0
LINE
8
BLACK
6
CONTINUOUS
10
0.0860902
20
1.79385
11
0.0862602
21
1.7941
0
LINE
8
BLACK
6
CONTINUOUS
10
0.0862602
20
1.7941
11
0.0876372
21
1.79597
0
LINE
8
BLACK
6
CONTINUOUS
10
0.0876372
20
1.79597
11
0.0998957
21
1.81263
0
LINE
8
BLACK
6
CONTINUOUS
10
0.0998957
20
1.81263
11
0.10008
21
1.81287
0
LINE
8
BLACK
6
CONTINUOUS
10
0.10008
20
1.81287
11
0.114809
21
1.83054
0
LINE
8
BLACK
6
CONTINUOUS
10
0.114809
20
1.83054
11
0.115008
21
1.83076
0
LINE
8
BLACK
6
CONTINUOUS
10
0.115008
20
1.83076
11
0.12485
21
1.84122
0
LINE
8
BLACK
6
CONTINUOUS
10
0.12485
20
1.84122
11
0.130778
21
1.84752
0
LINE
8
BLACK
6
CONTINUOUS
10
0.130778
20
1.84752
11
0.130989
21
1.84773
0
LINE
8
BLACK
6
CONTINUOUS
10
0.130989
20
1.84773
11
0.139787
21
1.85601
0
LINE
8
BLACK
6
CONTINUOUS
10
0.139787
20
1.85601
11
0.147741
21
1.8635
0
LINE
8
BLACK
6
CONTINUOUS
10
0.147741
20
1.8635
11
0.147966
21
1.86369
0
LINE
8
BLACK
6
CONTINUOUS
10
0.147966
20
1.86369
11
0.165639
21
1.87842
0
LINE
8
BLACK
6
CONTINUOUS
10
0.165639
20
1.87842
11
0.165875
21
1.87861
0
LINE
8
BLACK
6
CONTINUOUS
10
0.165875
20
1.87861
11
0.184406
21
1.89224
0
LINE
8
BLACK
6
CONTINUOUS
10
0.184406
20
1.89224
11
0.184652
21
1.89241
0
LINE
8
BLACK
6
CONTINUOUS
10
0.184652
20
1.89241
11
0.19636
21
1.89998
0
LINE
8
BLACK
6
CONTINUOUS
10
0.19636
20
1.89998
11
0.203972
21
1.90491
0
LINE
8
BLACK
6
CONTINUOUS
10
0.203972
20
1.90491
11
0.204229
21
1.90506
0
LINE
8
BLACK
6
CONTINUOUS
10
0.204229
20
1.90506
11
0.224268
21
1.91636
0
LINE
8
BLACK
6
CONTINUOUS
10
0.224268
20
1.91636
11
0.224533
21
1.9165
0
LINE
8
BLACK
6
CONTINUOUS
10
0.224533
20
1.9165
11
0.245218
21
1.92657
0
LINE
8
BLACK
6
CONTINUOUS
10
0.245218
20
1.92657
11
0.245491
21
1.9267
0
LINE
8
BLACK
6
CONTINUOUS
10
0.245491
20
1.9267
11
0.255186
21
1.93071
0
LINE
8
BLACK
6
CONTINUOUS
10
0.255186
20
1.93071
11
0.266747
21
1.9355
0
LINE
8
BLACK
6
CONTINUOUS
10
0.266747
20
1.9355
11
0.267026
21
1.93561
0
LINE
8
BLACK
6
CONTINUOUS
10
0.267026
20
1.93561
11
0.288775
21
1.94311
0
LINE
8
BLACK
6
CONTINUOUS
10
0.288775
20
1.94311
11
0.28906
21
1.9432
0
LINE
8
BLACK
6
CONTINUOUS
10
0.28906
20
1.9432
11
0.304218
21
1.94743
0
LINE
8
BLACK
6
CONTINUOUS
10
0.304218
20
1.94743
11
0.311222
21
1.94938
0
LINE
8
BLACK
6
CONTINUOUS
10
0.311222
20
1.94938
11
0.311513
21
1.94945
0
LINE
8
BLACK
6
CONTINUOUS
10
0.311513
20
1.94945
11
0.334007
21
1.95428
0
LINE
8
BLACK
6
CONTINUOUS
10
0.334007
20
1.95428
11
0.334302
21
1.95433
0
LINE
8
BLACK
6
CONTINUOUS
10
0.334302
20
1.95433
11
0.357047
21
1.95779
0
LINE
8
BLACK
6
CONTINUOUS
10
0.357047
20
1.95779
11
0.357344
21
1.95783
0
LINE
8
BLACK
6
CONTINUOUS
10
0.357344
20
1.95783
11
0.3688
21
1.95887
0
LINE
8
BLACK
6
CONTINUOUS
10
0.3688
20
1.95887
11
0.380256
21
1.95991
0
LINE
8
BLACK
6
CONTINUOUS
10
0.380256
20
1.95991
11
0.380554
21
1.95993
0
LINE
8
BLACK
6
CONTINUOUS
10
0.380554
20
1.95993
11
0.402271
21
1.96059
0
LINE
8
BLACK
6
CONTINUOUS
10
0.402271
20
1.96059
11
0.402609
21
1.96055
0
LINE
8
BLACK
6
CONTINUOUS
10
0.402609
20
1.96055
11
0.403142
21
1.96055
0
LINE
8
BLACK
6
CONTINUOUS
10
0.403142
20
1.96055
11
0.403687
21
1.96043
0
LINE
8
BLACK
6
CONTINUOUS
10
0.403687
20
1.96043
11
0.404232
21
1.96055
0
LINE
8
BLACK
6
CONTINUOUS
10
0.404232
20
1.96055
11
0.404424
21
1.96055
0
LINE
8
BLACK
6
CONTINUOUS
10
0.404424
20
1.96055
11
0.405136
21
1.96063
0
LINE
8
BLACK
6
CONTINUOUS
10
0.405136
20
1.96063
11
1.99484
21
1.96063
0
LINE
8
BLACK
6
CONTINUOUS
10
1.99484
20
1.96063
11
1.99552
21
1.96055
0
LINE
8
BLACK
6
CONTINUOUS
10
1.99552
20
1.96055
11
1.99574
21
1.96055
0
LINE
8
BLACK
6
CONTINUOUS
10
1.99574
20
1.96055
11
1.99629
21
1.96043
0
LINE
8
BLACK
6
CONTINUOUS
10
1.99629
20
1.96043
11
1.99683
21
1.96055
0
LINE
8
BLACK
6
CONTINUOUS
10
1.99683
20
1.96055
11
1.99732
21
1.96055
0
LINE
8
BLACK
6
CONTINUOUS
10
1.99732
20
1.96055
11
1.99771
21
1.96059
0
LINE
8
BLACK
6
CONTINUOUS
10
1.99771
20
1.96059
11
2.01237
21
1.96014
0
LINE
8
BLACK
6
CONTINUOUS
10
2.01237
20
1.96014
11
2.01945
21
1.95993
0
LINE
8
BLACK
6
CONTINUOUS
10
2.01945
20
1.95993
11
2.01974
21
1.95991
0
LINE
8
BLACK
6
CONTINUOUS
10
2.01974
20
1.95991
11
2.0312
21
1.95887
0
LINE
8
BLACK
6
CONTINUOUS
10
2.0312
20
1.95887
11
2.04266
21
1.95783
0
LINE
8
BLACK
6
CONTINUOUS
10
2.04266
20
1.95783
11
2.04295
21
1.95779
0
LINE
8
BLACK
6
CONTINUOUS
10
2.04295
20
1.95779
11
2.0657
21
1.95433
0
LINE
8
BLACK
6
CONTINUOUS
10
2.0657
20
1.95433
11
2.06599
21
1.95428
0
LINE
8
BLACK
6
CONTINUOUS
10
2.06599
20
1.95428
11
2.08849
21
1.94945
0
LINE
8
BLACK
6
CONTINUOUS
10
2.08849
20
1.94945
11
2.08878
21
1.94938
0
LINE
8
BLACK
6
CONTINUOUS
10
2.08878
20
1.94938
11
2.09578
21
1.94743
0
LINE
8
BLACK
6
CONTINUOUS
10
2.09578
20
1.94743
11
2.11094
21
1.9432
0
LINE
8
BLACK
6
CONTINUOUS
10
2.11094
20
1.9432
11
2.11122
21
1.94311
0
LINE
8
BLACK
6
CONTINUOUS
10
2.11122
20
1.94311
11
2.13297
21
1.93561
0
LINE
8
BLACK
6
CONTINUOUS
10
2.13297
20
1.93561
11
2.13325
21
1.9355
0
LINE
8
BLACK
6
CONTINUOUS
10
2.13325
20
1.9355
11
2.14481
21
1.93071
0
LINE
8
BLACK
6
CONTINUOUS
10
2.14481
20
1.93071
11
2.15451
21
1.9267
0
LINE
8
BLACK
6
CONTINUOUS
10
2.15451
20
1.9267
11
2.15478
21
1.92657
0
LINE
8
BLACK
6
CONTINUOUS
10
2.15478
20
1.92657
11
2.17547
21
1.9165
0
LINE
8
BLACK
6
CONTINUOUS
10
2.17547
20
1.9165
11
2.17573
21
1.91636
0
LINE
8
BLACK
6
CONTINUOUS
10
2.17573
20
1.91636
11
2.19577
21
1.90506
0
LINE
8
BLACK
6
CONTINUOUS
10
2.19577
20
1.90506
11
2.19603
21
1.90491
0
LINE
8
BLACK
6
CONTINUOUS
10
2.19603
20
1.90491
11
2.20364
21
1.89998
0
LINE
8
BLACK
6
CONTINUOUS
10
2.20364
20
1.89998
11
2.21535
21
1.89241
0
LINE
8
BLACK
6
CONTINUOUS
10
2.21535
20
1.89241
11
2.21559
21
1.89224
0
LINE
8
BLACK
6
CONTINUOUS
10
2.21559
20
1.89224
11
2.23413
21
1.87861
0
LINE
8
BLACK
6
CONTINUOUS
10
2.23413
20
1.87861
11
2.23436
21
1.87842
0
LINE
8
BLACK
6
CONTINUOUS
10
2.23436
20
1.87842
11
2.25203
21
1.86369
0
LINE
8
BLACK
6
CONTINUOUS
10
2.25203
20
1.86369
11
2.25226
21
1.8635
0
LINE
8
BLACK
6
CONTINUOUS
10
2.25226
20
1.8635
11
2.26021
21
1.85601
0
LINE
8
BLACK
6
CONTINUOUS
10
2.26021
20
1.85601
11
2.26901
21
1.84773
0
LINE
8
BLACK
6
CONTINUOUS
10
2.26901
20
1.84773
11
2.26922
21
1.84752
0
LINE
8
BLACK
6
CONTINUOUS
10
2.26922
20
1.84752
11
2.27515
21
1.84122
0
LINE
8
BLACK
6
CONTINUOUS
10
2.27515
20
1.84122
11
2.28499
21
1.83076
0
LINE
8
BLACK
6
CONTINUOUS
10
2.28499
20
1.83076
11
2.28519
21
1.83054
0
LINE
8
BLACK
6
CONTINUOUS
10
2.28519
20
1.83054
11
2.29992
21
1.81287
0
LINE
8
BLACK
6
CONTINUOUS
10
2.29992
20
1.81287
11
2.3001
21
1.81263
0
LINE
8
BLACK
6
CONTINUOUS
10
2.3001
20
1.81263
11
2.31236
21
1.79597
0
LINE
8
BLACK
6
CONTINUOUS
10
2.31236
20
1.79597
11
2.31374
21
1.7941
0
LINE
8
BLACK
6
CONTINUOUS
10
2.31374
20
1.7941
11
2.31391
21
1.79385
0
LINE
8
BLACK
6
CONTINUOUS
10
2.31391
20
1.79385
11
2.31881
21
1.78628
0
LINE
8
BLACK
6
CONTINUOUS
10
2.31881
20
1.78628
11
2.3264
21
1.77453
0
LINE
8
BLACK
6
CONTINUOUS
10
2.3264
20
1.77453
11
2.32656
21
1.77428
0
LINE
8
BLACK
6
CONTINUOUS
10
2.32656
20
1.77428
11
2.33786
21
1.75424
0
LINE
8
BLACK
6
CONTINUOUS
10
2.33786
20
1.75424
11
2.338
21
1.75397
0
LINE
8
BLACK
6
CONTINUOUS
10
2.338
20
1.75397
11
2.34807
21
1.73329
0
LINE
8
BLACK
6
CONTINUOUS
10
2.34807
20
1.73329
11
2.34819
21
1.73301
0
LINE
8
BLACK
6
CONTINUOUS
10
2.34819
20
1.73301
11
2.35471
21
1.71727
0
LINE
8
BLACK
6
CONTINUOUS
10
2.35471
20
1.71727
11
2.357
21
1.71176
0
LINE
8
BLACK
6
CONTINUOUS
10
2.357
20
1.71176
11
2.3571
21
1.71148
0
LINE
8
BLACK
6
CONTINUOUS
10
2.3571
20
1.71148
11
2.36461
21
1.68973
0
LINE
8
BLACK
6
CONTINUOUS
10
2.36461
20
1.68973
11
2.3647
21
1.68944
0
LINE
8
BLACK
6
CONTINUOUS
10
2.3647
20
1.68944
11
2.36649
21
1.68302
0
LINE
8
BLACK
6
CONTINUOUS
10
2.36649
20
1.68302
11
2.37087
21
1.66728
0
LINE
8
BLACK
6
CONTINUOUS
10
2.37087
20
1.66728
11
2.37095
21
1.66699
0
LINE
8
BLACK
6
CONTINUOUS
10
2.37095
20
1.66699
11
2.37577
21
1.6445
0
LINE
8
BLACK
6
CONTINUOUS
10
2.37577
20
1.6445
11
2.37583
21
1.6442
0
LINE
8
BLACK
6
CONTINUOUS
10
2.37583
20
1.6442
11
2.37929
21
1.62146
0
LINE
8
BLACK
6
CONTINUOUS
10
2.37929
20
1.62146
11
2.37933
21
1.62116
0
LINE
8
BLACK
6
CONTINUOUS
10
2.37933
20
1.62116
11
2.38141
21
1.59825
0
LINE
8
BLACK
6
CONTINUOUS
10
2.38141
20
1.59825
11
2.38143
21
1.59795
0
LINE
8
BLACK
6
CONTINUOUS
10
2.38143
20
1.59795
11
2.38208
21
1.57623
0
LINE
8
BLACK
6
CONTINUOUS
10
2.38208
20
1.57623
11
2.38205
21
1.5759
0
LINE
8
BLACK
6
CONTINUOUS
10
2.38205
20
1.5759
11
2.38205
21
1.57536
0
LINE
8
BLACK
6
CONTINUOUS
10
2.38205
20
1.57536
11
2.38192
21
1.57482
0
LINE
8
BLACK
6
CONTINUOUS
10
2.38192
20
1.57482
11
2.38205
21
1.57427
0
LINE
8
BLACK
6
CONTINUOUS
10
2.38205
20
1.57427
11
2.38205
21
1.57408
0
LINE
8
BLACK
6
CONTINUOUS
10
2.38205
20
1.57408
11
2.38213
21
1.57337
0
LINE
8
BLACK
6
CONTINUOUS
10
2.38213
20
1.57337
11
2.38213
21
0.15
0
LINE
8
BLACK
6
CONTINUOUS
10
2.38213
20
0.15
11
2.38961
21
0.15
0
LINE
8
BLACK
6
CONTINUOUS
10
2.38961
20
0.15
11
2.38961
21
0.0153543
0
LINE
8
BLACK
6
CONTINUOUS
10
2.38961
20
0.0153543
11
2.38882
21
0.0126724
0
LINE
8
BLACK
6
CONTINUOUS
10
2.38882
20
0.0126724
11
2.38671
21
0.010842
0
LINE
8
BLACK
6
CONTINUOUS
10
2.38671
20
0.010842
11
2.38465
21
0.0103937
0
LINE
8
BLACK
6
CONTINUOUS
10
2.38465
20
0.0103937
11
0.0153543
21
0.0103937
0
LINE
8
BLACK
6
CONTINUOUS
10
0.0153543
20
0.0103937
11
0.0126724
21
0.0111812
0
LINE
8
BLACK
6
CONTINUOUS
10
0.0126724
20
0.0111812
11
0.010842
21
0.0132936
0
LINE
8
BLACK
6
CONTINUOUS
10
0.010842
20
0.0132936
11
0.0103937
21
0.0153543
0
LINE
8
BLACK
6
CONTINUOUS
10
0.0103937
20
0.0153543
11
0.0103937
21
0.15
0
LINE
8
BLACK
6
CONTINUOUS
10
0.0103937
20
0.15
11
0.017874
21
0.15
0
LINE
8
BLACK
6
CONTINUOUS
10
0.017874
20
0.15
11
0.017874
21
1.57335
0
LINE
8
BLACK
6
CONTINUOUS
10
0.017874
20
1.57335
11
0.0179509
21
1.57402
0
LINE
8
BLACK
6
CONTINUOUS
10
1.26976
20
0.483112
11
1.27355
21
0.459158
0
LINE
8
BLACK
6
CONTINUOUS
10
1.27355
20
0.459158
11
1.27884
21
0.435491
0
LINE
8
BLACK
6
CONTINUOUS
10
1.27884
20
0.435491
11
1.28561
21
0.412202
0
LINE
8
BLACK
6
CONTINUOUS
10
1.28561
20
0.412202
11
1.28563
21
0.412129
0
LINE
8
BLACK
6
CONTINUOUS
10
1.28563
20
0.412129
11
1.28563
21
0.412129
0
LINE
8
BLACK
6
CONTINUOUS
10
1.28563
20
0.412129
11
1.29379
21
0.389457
0
LINE
8
BLACK
6
CONTINUOUS
10
1.29379
20
0.389457
11
1.29382
21
0.389384
0
LINE
8
BLACK
6
CONTINUOUS
10
1.29382
20
0.389384
11
1.30345
21
0.367126
0
LINE
8
BLACK
6
CONTINUOUS
10
1.30345
20
0.367126
11
1.31446
21
0.345518
0
LINE
8
BLACK
6
CONTINUOUS
10
1.31446
20
0.345518
11
1.32681
21
0.324643
0
LINE
8
BLACK
6
CONTINUOUS
10
1.32681
20
0.324643
11
1.34044
21
0.304585
0
LINE
8
BLACK
6
CONTINUOUS
10
1.34044
20
0.304585
11
1.3553
21
0.285422
0
LINE
8
BLACK
6
CONTINUOUS
10
1.3553
20
0.285422
11
1.37134
21
0.26723
0
LINE
8
BLACK
6
CONTINUOUS
10
1.37134
20
0.26723
11
1.38849
21
0.250081
0
LINE
8
BLACK
6
CONTINUOUS
10
1.38849
20
0.250081
11
1.40668
21
0.234043
0
LINE
8
BLACK
6
CONTINUOUS
10
1.40668
20
0.234043
11
1.42584
21
0.219179
0
LINE
8
BLACK
6
CONTINUOUS
10
1.42584
20
0.219179
11
1.4459
21
0.205548
0
LINE
8
BLACK
6
CONTINUOUS
10
1.4459
20
0.205548
11
1.46678
21
0.193202
0
LINE
8
BLACK
6
CONTINUOUS
10
1.46678
20
0.193202
11
1.46685
21
0.193167
0
LINE
8
BLACK
6
CONTINUOUS
10
1.46685
20
0.193167
11
1.46685
21
0.193167
0
LINE
8
BLACK
6
CONTINUOUS
10
1.46685
20
0.193167
11
1.47758
21
0.187697
0
LINE
8
BLACK
6
CONTINUOUS
10
1.47758
20
0.187697
11
1.48839
21
0.182192
0
LINE
8
BLACK
6
CONTINUOUS
10
1.48839
20
0.182192
11
1.51064
21
0.172561
0
LINE
8
BLACK
6
CONTINUOUS
10
1.51064
20
0.172561
11
1.51072
21
0.172534
0
LINE
8
BLACK
6
CONTINUOUS
10
1.51072
20
0.172534
11
1.51072
21
0.172534
0
LINE
8
BLACK
6
CONTINUOUS
10
1.51072
20
0.172534
11
1.53339
21
0.164372
0
LINE
8
BLACK
6
CONTINUOUS
10
1.53339
20
0.164372
11
1.53339
21
0.164372
0
LINE
8
BLACK
6
CONTINUOUS
10
1.53339
20
0.164372
11
1.53346
21
0.164346
0
LINE
8
BLACK
6
CONTINUOUS
10
1.53346
20
0.164346
11
1.53354
21
0.164324
0
LINE
8
BLACK
6
CONTINUOUS
10
1.53354
20
0.164324
11
1.53354
21
0.164324
0
LINE
8
BLACK
6
CONTINUOUS
10
1.53354
20
0.164324
11
1.55668
21
0.157601
0
LINE
8
BLACK
6
CONTINUOUS
10
1.55668
20
0.157601
11
1.55675
21
0.15758
0
LINE
8
BLACK
6
CONTINUOUS
10
1.55675
20
0.15758
11
1.55683
21
0.157563
0
LINE
8
BLACK
6
CONTINUOUS
10
1.55683
20
0.157563
11
1.55683
21
0.157563
0
LINE
8
BLACK
6
CONTINUOUS
10
1.55683
20
0.157563
11
1.56858
21
0.154934
0
LINE
8
BLACK
6
CONTINUOUS
10
1.56858
20
0.154934
11
1.58042
21
0.152289
0
LINE
8
BLACK
6
CONTINUOUS
10
1.58042
20
0.152289
11
1.5805
21
0.152277
0
LINE
8
BLACK
6
CONTINUOUS
10
1.5805
20
0.152277
11
1.5805
21
0.152277
0
LINE
8
BLACK
6
CONTINUOUS
10
1.5805
20
0.152277
11
1.59487
21
0.15
0
LINE
8
BLACK
6
CONTINUOUS
10
1.59487
20
0.15
11
1.71064
21
0.15
0
LINE
8
BLACK
6
CONTINUOUS
10
1.71064
20
0.15
11
1.72502
21
0.152277
0
LINE
8
BLACK
6
CONTINUOUS
10
1.72502
20
0.152277
11
1.72502
21
0.152277
0
LINE
8
BLACK
6
CONTINUOUS
10
1.72502
20
0.152277
11
1.72509
21
0.152289
0
LINE
8
BLACK
6
CONTINUOUS
10
1.72509
20
0.152289
11
1.73693
21
0.154934
0
LINE
8
BLACK
6
CONTINUOUS
10
1.73693
20
0.154934
11
1.74869
21
0.157563
0
LINE
8
BLACK
6
CONTINUOUS
10
1.74869
20
0.157563
11
1.74869
21
0.157563
0
LINE
8
BLACK
6
CONTINUOUS
10
1.74869
20
0.157563
11
1.74876
21
0.15758
0
LINE
8
BLACK
6
CONTINUOUS
10
1.74876
20
0.15758
11
1.74884
21
0.157601
0
LINE
8
BLACK
6
CONTINUOUS
10
1.74884
20
0.157601
11
1.77198
21
0.164324
0
LINE
8
BLACK
6
CONTINUOUS
10
1.77198
20
0.164324
11
1.77198
21
0.164324
0
LINE
8
BLACK
6
CONTINUOUS
10
1.77198
20
0.164324
11
1.77205
21
0.164346
0
LINE
8
BLACK
6
CONTINUOUS
10
1.77205
20
0.164346
11
1.77212
21
0.164372
0
LINE
8
BLACK
6
CONTINUOUS
10
1.77212
20
0.164372
11
1.77212
21
0.164372
0
LINE
8
BLACK
6
CONTINUOUS
10
1.77212
20
0.164372
11
1.7948
21
0.172534
0
LINE
8
BLACK
6
CONTINUOUS
10
1.7948
20
0.172534
11
1.7948
21
0.172534
0
LINE
8
BLACK
6
CONTINUOUS
10
1.7948
20
0.172534
11
1.79487
21
0.172561
0
LINE
8
BLACK
6
CONTINUOUS
10
1.79487
20
0.172561
11
1.81713
21
0.182192
0
LINE
8
BLACK
6
CONTINUOUS
10
1.81713
20
0.182192
11
1.82793
21
0.187697
0
LINE
8
BLACK
6
CONTINUOUS
10
1.82793
20
0.187697
11
1.83867
21
0.193167
0
LINE
8
BLACK
6
CONTINUOUS
10
1.83867
20
0.193167
11
1.83867
21
0.193167
0
LINE
8
BLACK
6
CONTINUOUS
10
1.83867
20
0.193167
11
1.83873
21
0.193202
0
LINE
8
BLACK
6
CONTINUOUS
10
1.83873
20
0.193202
11
1.85961
21
0.205548
0
LINE
8
BLACK
6
CONTINUOUS
10
1.85961
20
0.205548
11
1.87967
21
0.219179
0
LINE
8
BLACK
6
CONTINUOUS
10
1.87967
20
0.219179
11
1.89883
21
0.234043
0
LINE
8
BLACK
6
CONTINUOUS
10
1.89883
20
0.234043
11
1.91702
21
0.250081
0
LINE
8
BLACK
6
CONTINUOUS
10
1.91702
20
0.250081
11
1.93417
21
0.26723
0
LINE
8
BLACK
6
CONTINUOUS
10
1.93417
20
0.26723
11
1.95021
21
0.285422
0
LINE
8
BLACK
6
CONTINUOUS
10
1.95021
20
0.285422
11
1.96507
21
0.304585
0
LINE
8
BLACK
6
CONTINUOUS
10
1.96507
20
0.304585
11
1.9787
21
0.324643
0
LINE
8
BLACK
6
CONTINUOUS
10
1.9787
20
0.324643
11
1.99105
21
0.345518
0
LINE
8
BLACK
6
CONTINUOUS
10
1.99105
20
0.345518
11
2.00206
21
0.367126
0
LINE
8
BLACK
6
CONTINUOUS
10
2.00206
20
0.367126
11
2.01169
21
0.389384
0
LINE
8
BLACK
6
CONTINUOUS
10
2.01169
20
0.389384
11
2.01172
21
0.389457
0
LINE
8
BLACK
6
CONTINUOUS
10
2.01172
20
0.389457
11
2.01988
21
0.412129
0
LINE
8
BLACK
6
CONTINUOUS
10
2.01988
20
0.412129
11
2.01988
21
0.412129
0
LINE
8
BLACK
6
CONTINUOUS
10
2.01988
20
0.412129
11
2.01991
21
0.412202
0
LINE
8
BLACK
6
CONTINUOUS
10
2.01991
20
0.412202
11
2.02667
21
0.435491
0
LINE
8
BLACK
6
CONTINUOUS
10
2.02667
20
0.435491
11
2.03196
21
0.459158
0
LINE
8
BLACK
6
CONTINUOUS
10
2.03196
20
0.459158
11
2.03576
21
0.483112
0
LINE
8
BLACK
6
CONTINUOUS
10
2.03576
20
0.483112
11
2.03804
21
0.507256
0
LINE
8
BLACK
6
CONTINUOUS
10
2.03804
20
0.507256
11
2.0388
21
0.531496
0
LINE
8
BLACK
6
CONTINUOUS
10
2.0388
20
0.531496
11
2.03804
21
0.555736
0
LINE
8
BLACK
6
CONTINUOUS
10
2.03804
20
0.555736
11
2.03576
21
0.57988
0
LINE
8
BLACK
6
CONTINUOUS
10
2.03576
20
0.57988
11
2.03196
21
0.603834
0
LINE
8
BLACK
6
CONTINUOUS
10
2.03196
20
0.603834
11
2.02667
21
0.627501
0
LINE
8
BLACK
6
CONTINUOUS
10
2.02667
20
0.627501
11
2.01991
21
0.65079
0
LINE
8
BLACK
6
CONTINUOUS
10
2.01991
20
0.65079
11
2.01988
21
0.650863
0
LINE
8
BLACK
6
CONTINUOUS
10
2.01988
20
0.650863
11
2.01988
21
0.650864
0
LINE
8
BLACK
6
CONTINUOUS
10
2.01988
20
0.650864
11
2.01172
21
0.673535
0
LINE
8
BLACK
6
CONTINUOUS
10
2.01172
20
0.673535
11
2.01172
21
0.673536
0
LINE
8
BLACK
6
CONTINUOUS
10
2.01172
20
0.673536
11
2.01169
21
0.673609
0
LINE
8
BLACK
6
CONTINUOUS
10
2.01169
20
0.673609
11
2.00206
21
0.695866
0
LINE
8
BLACK
6
CONTINUOUS
10
2.00206
20
0.695866
11
1.99105
21
0.717475
0
LINE
8
BLACK
6
CONTINUOUS
10
1.99105
20
0.717475
11
1.9787
21
0.738349
0
LINE
8
BLACK
6
CONTINUOUS
10
1.9787
20
0.738349
11
1.96507
21
0.758408
0
LINE
8
BLACK
6
CONTINUOUS
10
1.96507
20
0.758408
11
1.95021
21
0.77757
0
LINE
8
BLACK
6
CONTINUOUS
10
1.95021
20
0.77757
11
1.93417
21
0.795762
0
LINE
8
BLACK
6
CONTINUOUS
10
1.93417
20
0.795762
11
1.91702
21
0.812911
0
LINE
8
BLACK
6
CONTINUOUS
10
1.91702
20
0.812911
11
1.89883
21
0.828949
0
LINE
8
BLACK
6
CONTINUOUS
10
1.89883
20
0.828949
11
1.87967
21
0.843813
0
LINE
8
BLACK
6
CONTINUOUS
10
1.87967
20
0.843813
11
1.85961
21
0.857444
0
LINE
8
BLACK
6
CONTINUOUS
10
1.85961
20
0.857444
11
1.83873
21
0.86979
0
LINE
8
BLACK
6
CONTINUOUS
10
1.83873
20
0.86979
11
1.83867
21
0.869825
0
LINE
8
BLACK
6
CONTINUOUS
10
1.83867
20
0.869825
11
1.83867
21
0.869825
0
LINE
8
BLACK
6
CONTINUOUS
10
1.83867
20
0.869825
11
1.82793
21
0.875295
0
LINE
8
BLACK
6
CONTINUOUS
10
1.82793
20
0.875295
11
1.81713
21
0.8808
0
LINE
8
BLACK
6
CONTINUOUS
10
1.81713
20
0.8808
11
1.79487
21
0.890431
0
LINE
8
BLACK
6
CONTINUOUS
10
1.79487
20
0.890431
11
1.7948
21
0.890458
0
LINE
8
BLACK
6
CONTINUOUS
10
1.7948
20
0.890458
11
1.77212
21
0.89862
0
LINE
8
BLACK
6
CONTINUOUS
10
1.77212
20
0.89862
11
1.77212
21
0.89862
0
LINE
8
BLACK
6
CONTINUOUS
10
1.77212
20
0.89862
11
1.77205
21
0.898646
0
LINE
8
BLACK
6
CONTINUOUS
10
1.77205
20
0.898646
11
1.77198
21
0.898668
0
LINE
8
BLACK
6
CONTINUOUS
10
1.77198
20
0.898668
11
1.77198
21
0.898668
0
LINE
8
BLACK
6
CONTINUOUS
10
1.77198
20
0.898668
11
1.74884
21
0.905391
0
LINE
8
BLACK
6
CONTINUOUS
10
1.74884
20
0.905391
11
1.74884
21
0.905391
0
LINE
8
BLACK
6
CONTINUOUS
10
1.74884
20
0.905391
11
1.74876
21
0.905413
0
LINE
8
BLACK
6
CONTINUOUS
10
1.74876
20
0.905413
11
1.74869
21
0.905429
0
LINE
8
BLACK
6
CONTINUOUS
10
1.74869
20
0.905429
11
1.74869
21
0.90543
0
LINE
8
BLACK
6
CONTINUOUS
10
1.74869
20
0.90543
11
1.73693
21
0.908058
0
LINE
8
BLACK
6
CONTINUOUS
10
1.73693
20
0.908058
11
1.72509
21
0.910703
0
LINE
8
BLACK
6
CONTINUOUS
10
1.72509
20
0.910703
11
1.72502
21
0.910715
0
LINE
8
BLACK
6
CONTINUOUS
10
1.72502
20
0.910715
11
1.70122
21
0.914485
0
LINE
8
BLACK
6
CONTINUOUS
10
1.70122
20
0.914485
11
1.70122
21
0.914485
0
LINE
8
BLACK
6
CONTINUOUS
10
1.70122
20
0.914485
11
1.70114
21
0.914497
0
LINE
8
BLACK
6
CONTINUOUS
10
1.70114
20
0.914497
11
1.70106
21
0.914504
0
LINE
8
BLACK
6
CONTINUOUS
10
1.70106
20
0.914504
11
1.70106
21
0.914504
0
LINE
8
BLACK
6
CONTINUOUS
10
1.70106
20
0.914504
11
1.67707
21
0.916772
0
LINE
8
BLACK
6
CONTINUOUS
10
1.67707
20
0.916772
11
1.67707
21
0.916772
0
LINE
8
BLACK
6
CONTINUOUS
10
1.67707
20
0.916772
11
1.677
21
0.916779
0
LINE
8
BLACK
6
CONTINUOUS
10
1.677
20
0.916779
11
1.67692
21
0.916781
0
LINE
8
BLACK
6
CONTINUOUS
10
1.67692
20
0.916781
11
1.67692
21
0.916782
0
LINE
8
BLACK
6
CONTINUOUS
10
1.67692
20
0.916782
11
1.66624
21
0.917117
0
LINE
8
BLACK
6
CONTINUOUS
10
1.66624
20
0.917117
11
1.65907
21
0.917343
0
LINE
8
BLACK
6
CONTINUOUS
10
1.65907
20
0.917343
11
1.64644
21
0.917343
0
LINE
8
BLACK
6
CONTINUOUS
10
1.64644
20
0.917343
11
1.63928
21
0.917117
0
LINE
8
BLACK
6
CONTINUOUS
10
1.63928
20
0.917117
11
1.62859
21
0.916782
0
LINE
8
BLACK
6
CONTINUOUS
10
1.62859
20
0.916782
11
1.62859
21
0.916781
0
LINE
8
BLACK
6
CONTINUOUS
10
1.62859
20
0.916781
11
1.62852
21
0.916779
0
LINE
8
BLACK
6
CONTINUOUS
10
1.62852
20
0.916779
11
1.62844
21
0.916772
0
LINE
8
BLACK
6
CONTINUOUS
10
1.62844
20
0.916772
11
1.62844
21
0.916772
0
LINE
8
BLACK
6
CONTINUOUS
10
1.62844
20
0.916772
11
1.60445
21
0.914504
0
LINE
8
BLACK
6
CONTINUOUS
10
1.60445
20
0.914504
11
1.60445
21
0.914504
0
LINE
8
BLACK
6
CONTINUOUS
10
1.60445
20
0.914504
11
1.60437
21
0.914497
0
LINE
8
BLACK
6
CONTINUOUS
10
1.60437
20
0.914497
11
1.60429
21
0.914485
0
LINE
8
BLACK
6
CONTINUOUS
10
1.60429
20
0.914485
11
1.60429
21
0.914485
0
LINE
8
BLACK
6
CONTINUOUS
10
1.60429
20
0.914485
11
1.5805
21
0.910715
0
LINE
8
BLACK
6
CONTINUOUS
10
1.5805
20
0.910715
11
1.58042
21
0.910703
0
LINE
8
BLACK
6
CONTINUOUS
10
1.58042
20
0.910703
11
1.56858
21
0.908058
0
LINE
8
BLACK
6
CONTINUOUS
10
1.56858
20
0.908058
11
1.55683
21
0.90543
0
LINE
8
BLACK
6
CONTINUOUS
10
1.55683
20
0.90543
11
1.55683
21
0.905429
0
LINE
8
BLACK
6
CONTINUOUS
10
1.55683
20
0.905429
11
1.55675
21
0.905413
0
LINE
8
BLACK
6
CONTINUOUS
10
1.55675
20
0.905413
11
1.55668
21
0.905391
0
LINE
8
BLACK
6
CONTINUOUS
10
1.55668
20
0.905391
11
1.55668
21
0.905391
0
LINE
8
BLACK
6
CONTINUOUS
10
1.55668
20
0.905391
11
1.53354
21
0.898668
0
LINE
8
BLACK
6
CONTINUOUS
10
1.53354
20
0.898668
11
1.53354
21
0.898668
0
LINE
8
BLACK
6
CONTINUOUS
10
1.53354
20
0.898668
11
1.53346
21
0.898646
0
LINE
8
BLACK
6
CONTINUOUS
10
1.53346
20
0.898646
11
1.53339
21
0.89862
0
LINE
8
BLACK
6
CONTINUOUS
10
1.53339
20
0.89862
11
1.53339
21
0.89862
0
LINE
8
BLACK
6
CONTINUOUS
10
1.53339
20
0.89862
11
1.51072
21
0.890458
0
LINE
8
BLACK
6
CONTINUOUS
10
1.51072
20
0.890458
11
1.51064
21
0.890431
0
LINE
8
BLACK
6
CONTINUOUS
10
1.51064
20
0.890431
11
1.48839
21
0.8808
0
LINE
8
BLACK
6
CONTINUOUS
10
1.48839
20
0.8808
11
1.47758
21
0.875295
0
LINE
8
BLACK
6
CONTINUOUS
10
1.47758
20
0.875295
11
1.46685
21
0.869825
0
LINE
8
BLACK
6
CONTINUOUS
10
1.46685
20
0.869825
11
1.46685
21
0.869825
0
LINE
8
BLACK
6
CONTINUOUS
10
1.46685
20
0.869825
11
1.46678
21
0.86979
0
LINE
8
BLACK
6
CONTINUOUS
10
1.46678
20
0.86979
11
1.4459
21
0.857444
0
LINE
8
BLACK
6
CONTINUOUS
10
1.4459
20
0.857444
11
1.42584
21
0.843813
0
LINE
8
BLACK
6
CONTINUOUS
10
1.42584
20
0.843813
11
1.40668
21
0.828949
0
LINE
8
BLACK
6
CONTINUOUS
10
1.40668
20
0.828949
11
1.38849
21
0.812911
0
LINE
8
BLACK
6
CONTINUOUS
10
1.38849
20
0.812911
11
1.37134
21
0.795762
0
LINE
8
BLACK
6
CONTINUOUS
10
1.37134
20
0.795762
11
1.3553
21
0.77757
0
LINE
8
BLACK
6
CONTINUOUS
10
1.3553
20
0.77757
11
1.34044
21
0.758408
0
LINE
8
BLACK
6
CONTINUOUS
10
1.34044
20
0.758408
11
1.32681
21
0.738349
0
LINE
8
BLACK
6
CONTINUOUS
10
1.32681
20
0.738349
11
1.31446
21
0.717475
0
LINE
8
BLACK
6
CONTINUOUS
10
1.31446
20
0.717475
11
1.30345
21
0.695866
0
LINE
8
BLACK
6
CONTINUOUS
10
1.30345
20
0.695866
11
1.29382
21
0.673609
0
LINE
8
BLACK
6
CONTINUOUS
10
1.29382
20
0.673609
11
1.29379
21
0.673536
0
LINE
8
BLACK
6
CONTINUOUS
10
1.29379
20
0.673536
11
1.29379
21
0.673535
0
LINE
8
BLACK
6
CONTINUOUS
10
1.29379
20
0.673535
11
1.28563
21
0.650864
0
LINE
8
BLACK
6
CONTINUOUS
10
1.28563
20
0.650864
11
1.28563
21
0.650863
0
LINE
8
BLACK
6
CONTINUOUS
10
1.28563
20
0.650863
11
1.28561
21
0.65079
0
LINE
8
BLACK
6
CONTINUOUS
10
1.28561
20
0.65079
11
1.27884
21
0.627501
0
LINE
8
BLACK
6
CONTINUOUS
10
1.27884
20
0.627501
11
1.27355
21
0.603834
0
LINE
8
BLACK
6
CONTINUOUS
10
1.27355
20
0.603834
11
1.26976
21
0.57988
0
LINE
8
BLACK
6
CONTINUOUS
10
1.26976
20
0.57988
11
1.26747
21
0.555736
0
LINE
8
BLACK
6
CONTINUOUS
10
1.26747
20
0.555736
11
1.26671
21
0.531496
0
LINE
8
BLACK
6
CONTINUOUS
10
1.26671
20
0.531496
11
1.26747
21
0.507256
0
LINE
8
BLACK
6
CONTINUOUS
10
1.26747
20
0.507256
11
1.26976
21
0.483112
0
LINE
8
BLACK
6
CONTINUOUS
10
1.13024
20
0.57988
11
1.12645
21
0.603834
0
LINE
8
BLACK
6
CONTINUOUS
10
1.12645
20
0.603834
11
1.12116
21
0.627501
0
LINE
8
BLACK
6
CONTINUOUS
10
1.12116
20
0.627501
11
1.11439
21
0.65079
0
LINE
8
BLACK
6
CONTINUOUS
10
1.11439
20
0.65079
11
1.11437
21
0.650863
0
LINE
8
BLACK
6
CONTINUOUS
10
1.11437
20
0.650863
11
1.11437
21
0.650864
0
LINE
8
BLACK
6
CONTINUOUS
10
1.11437
20
0.650864
11
1.10621
21
0.673535
0
LINE
8
BLACK
6
CONTINUOUS
10
1.10621
20
0.673535
11
1.10621
21
0.673536
0
LINE
8
BLACK
6
CONTINUOUS
10
1.10621
20
0.673536
11
1.10618
21
0.673609
0
LINE
8
BLACK
6
CONTINUOUS
10
1.10618
20
0.673609
11
1.09655
21
0.695866
0
LINE
8
BLACK
6
CONTINUOUS
10
1.09655
20
0.695866
11
1.08554
21
0.717475
0
LINE
8
BLACK
6
CONTINUOUS
10
1.08554
20
0.717475
11
1.07319
21
0.738349
0
LINE
8
BLACK
6
CONTINUOUS
10
1.07319
20
0.738349
11
1.05956
21
0.758408
0
LINE
8
BLACK
6
CONTINUOUS
10
1.05956
20
0.758408
11
1.0447
21
0.77757
0
LINE
8
BLACK
6
CONTINUOUS
10
1.0447
20
0.77757
11
1.02866
21
0.795762
0
LINE
8
BLACK
6
CONTINUOUS
10
1.02866
20
0.795762
11
1.01151
21
0.812911
0
LINE
8
BLACK
6
CONTINUOUS
10
1.01151
20
0.812911
11
0.993318
21
0.828949
0
LINE
8
BLACK
6
CONTINUOUS
10
0.993318
20
0.828949
11
0.974156
21
0.843813
0
LINE
8
BLACK
6
CONTINUOUS
10
0.974156
20
0.843813
11
0.954097
21
0.857444
0
LINE
8
BLACK
6
CONTINUOUS
10
0.954097
20
0.857444
11
0.933223
21
0.86979
0
LINE
8
BLACK
6
CONTINUOUS
10
0.933223
20
0.86979
11
0.933154
21
0.869825
0
LINE
8
BLACK
6
CONTINUOUS
10
0.933154
20
0.869825
11
0.933154
21
0.869825
0
LINE
8
BLACK
6
CONTINUOUS
10
0.933154
20
0.869825
11
0.922418
21
0.875295
0
LINE
8
BLACK
6
CONTINUOUS
10
0.922418
20
0.875295
11
0.911614
21
0.8808
0
LINE
8
BLACK
6
CONTINUOUS
10
0.911614
20
0.8808
11
0.889357
21
0.890431
0
LINE
8
BLACK
6
CONTINUOUS
10
0.889357
20
0.890431
11
0.889284
21
0.890458
0
LINE
8
BLACK
6
CONTINUOUS
10
0.889284
20
0.890458
11
0.866612
21
0.89862
0
LINE
8
BLACK
6
CONTINUOUS
10
0.866612
20
0.89862
11
0.866611
21
0.89862
0
LINE
8
BLACK
6
CONTINUOUS
10
0.866611
20
0.89862
11
0.866539
21
0.898646
0
LINE
8
BLACK
6
CONTINUOUS
10
0.866539
20
0.898646
11
0.866464
21
0.898668
0
LINE
8
BLACK
6
CONTINUOUS
10
0.866464
20
0.898668
11
0.866464
21
0.898668
0
LINE
8
BLACK
6
CONTINUOUS
10
0.866464
20
0.898668
11
0.843325
21
0.905391
0
LINE
8
BLACK
6
CONTINUOUS
10
0.843325
20
0.905391
11
0.843325
21
0.905391
0
LINE
8
BLACK
6
CONTINUOUS
10
0.843325
20
0.905391
11
0.84325
21
0.905413
0
LINE
8
BLACK
6
CONTINUOUS
10
0.84325
20
0.905413
11
0.843174
21
0.905429
0
LINE
8
BLACK
6
CONTINUOUS
10
0.843174
20
0.905429
11
0.843174
21
0.90543
0
LINE
8
BLACK
6
CONTINUOUS
10
0.843174
20
0.90543
11
0.831416
21
0.908058
0
LINE
8
BLACK
6
CONTINUOUS
10
0.831416
20
0.908058
11
0.819582
21
0.910703
0
LINE
8
BLACK
6
CONTINUOUS
10
0.819582
20
0.910703
11
0.819505
21
0.910715
0
LINE
8
BLACK
6
CONTINUOUS
10
0.819505
20
0.910715
11
0.795705
21
0.914485
0
LINE
8
BLACK
6
CONTINUOUS
10
0.795705
20
0.914485
11
0.795705
21
0.914485
0
LINE
8
BLACK
6
CONTINUOUS
10
0.795705
20
0.914485
11
0.795628
21
0.914497
0
LINE
8
BLACK
6
CONTINUOUS
10
0.795628
20
0.914497
11
0.795551
21
0.914504
0
LINE
8
BLACK
6
CONTINUOUS
10
0.795551
20
0.914504
11
0.795551
21
0.914504
0
LINE
8
BLACK
6
CONTINUOUS
10
0.795551
20
0.914504
11
0.771561
21
0.916772
0
LINE
8
BLACK
6
CONTINUOUS
10
0.771561
20
0.916772
11
0.77156
21
0.916772
0
LINE
8
BLACK
6
CONTINUOUS
10
0.77156
20
0.916772
11
0.771484
21
0.916779
0
LINE
8
BLACK
6
CONTINUOUS
10
0.771484
20
0.916779
11
0.771407
21
0.916781
0
LINE
8
BLACK
6
CONTINUOUS
10
0.771407
20
0.916781
11
0.771407
21
0.916782
0
LINE
8
BLACK
6
CONTINUOUS
10
0.771407
20
0.916782
11
0.760724
21
0.917117
0
LINE
8
BLACK
6
CONTINUOUS
10
0.760724
20
0.917117
11
0.753556
21
0.917343
0
LINE
8
BLACK
6
CONTINUOUS
10
0.753556
20
0.917343
11
0.740933
21
0.917343
0
LINE
8
BLACK
6
CONTINUOUS
10
0.740933
20
0.917343
11
0.733764
21
0.917117
0
LINE
8
BLACK
6
CONTINUOUS
10
0.733764
20
0.917117
11
0.723081
21
0.916782
0
LINE
8
BLACK
6
CONTINUOUS
10
0.723081
20
0.916782
11
0.723081
21
0.916781
0
LINE
8
BLACK
6
CONTINUOUS
10
0.723081
20
0.916781
11
0.723004
21
0.916779
0
LINE
8
BLACK
6
CONTINUOUS
10
0.723004
20
0.916779
11
0.722928
21
0.916772
0
LINE
8
BLACK
6
CONTINUOUS
10
0.722928
20
0.916772
11
0.722927
21
0.916772
0
LINE
8
BLACK
6
CONTINUOUS
10
0.722927
20
0.916772
11
0.698938
21
0.914504
0
LINE
8
BLACK
6
CONTINUOUS
10
0.698938
20
0.914504
11
0.698937
21
0.914504
0
LINE
8
BLACK
6
CONTINUOUS
10
0.698937
20
0.914504
11
0.69886
21
0.914497
0
LINE
8
BLACK
6
CONTINUOUS
10
0.69886
20
0.914497
11
0.698783
21
0.914485
0
LINE
8
BLACK
6
CONTINUOUS
10
0.698783
20
0.914485
11
0.698783
21
0.914485
0
LINE
8
BLACK
6
CONTINUOUS
10
0.698783
20
0.914485
11
0.674984
21
0.910715
0
LINE
8
BLACK
6
CONTINUOUS
10
0.674984
20
0.910715
11
0.674906
21
0.910703
0
LINE
8
BLACK
6
CONTINUOUS
10
0.674906
20
0.910703
11
0.663073
21
0.908058
0
LINE
8
BLACK
6
CONTINUOUS
10
0.663073
20
0.908058
11
0.651315
21
0.90543
0
LINE
8
BLACK
6
CONTINUOUS
10
0.651315
20
0.90543
11
0.651314
21
0.905429
0
LINE
8
BLACK
6
CONTINUOUS
10
0.651314
20
0.905429
11
0.651239
21
0.905413
0
LINE
8
BLACK
6
CONTINUOUS
10
0.651239
20
0.905413
11
0.651164
21
0.905391
0
LINE
8
BLACK
6
CONTINUOUS
10
0.651164
20
0.905391
11
0.651164
21
0.905391
0
LINE
8
BLACK
6
CONTINUOUS
10
0.651164
20
0.905391
11
0.628024
21
0.898668
0
LINE
8
BLACK
6
CONTINUOUS
10
0.628024
20
0.898668
11
0.628024
21
0.898668
0
LINE
8
BLACK
6
CONTINUOUS
10
0.628024
20
0.898668
11
0.62795
21
0.898646
0
LINE
8
BLACK
6
CONTINUOUS
10
0.62795
20
0.898646
11
0.627877
21
0.89862
0
LINE
8
BLACK
6
CONTINUOUS
10
0.627877
20
0.89862
11
0.627877
21
0.89862
0
LINE
8
BLACK
6
CONTINUOUS
10
0.627877
20
0.89862
11
0.605205
21
0.890458
0
LINE
8
BLACK
6
CONTINUOUS
10
0.605205
20
0.890458
11
0.605132
21
0.890431
0
LINE
8
BLACK
6
CONTINUOUS
10
0.605132
20
0.890431
11
0.582874
21
0.8808
0
LINE
8
BLACK
6
CONTINUOUS
10
0.582874
20
0.8808
11
0.57207
21
0.875295
0
LINE
8
BLACK
6
CONTINUOUS
10
0.57207
20
0.875295
11
0.561335
21
0.869825
0
LINE
8
BLACK
6
CONTINUOUS
10
0.561335
20
0.869825
11
0.561334
21
0.869825
0
LINE
8
BLACK
6
CONTINUOUS
10
0.561334
20
0.869825
11
0.561266
21
0.86979
0
LINE
8
BLACK
6
CONTINUOUS
10
0.561266
20
0.86979
11
0.540391
21
0.857444
0
LINE
8
BLACK
6
CONTINUOUS
10
0.540391
20
0.857444
11
0.520333
21
0.843813
0
LINE
8
BLACK
6
CONTINUOUS
10
0.520333
20
0.843813
11
0.50117
21
0.828949
0
LINE
8
BLACK
6
CONTINUOUS
10
0.50117
20
0.828949
11
0.482978
21
0.812911
0
LINE
8
BLACK
6
CONTINUOUS
10
0.482978
20
0.812911
11
0.46583
21
0.795762
0
LINE
8
BLACK
6
CONTINUOUS
10
0.46583
20
0.795762
11
0.449791
21
0.77757
0
LINE
8
BLACK
6
CONTINUOUS
10
0.449791
20
0.77757
11
0.434927
21
0.758408
0
LINE
8
BLACK
6
CONTINUOUS
10
0.434927
20
0.758408
11
0.421296
21
0.738349
0
LINE
8
BLACK
6
CONTINUOUS
10
0.421296
20
0.738349
11
0.40895
21
0.717475
0
LINE
8
BLACK
6
CONTINUOUS
10
0.40895
20
0.717475
11
0.39794
21
0.695866
0
LINE
8
BLACK
6
CONTINUOUS
10
0.39794
20
0.695866
11
0.388309
21
0.673609
0
LINE
8
BLACK
6
CONTINUOUS
10
0.388309
20
0.673609
11
0.388282
21
0.673536
0
LINE
8
BLACK
6
CONTINUOUS
10
0.388282
20
0.673536
11
0.388282
21
0.673535
0
LINE
8
BLACK
6
CONTINUOUS
10
0.388282
20
0.673535
11
0.38012
21
0.650864
0
LINE
8
BLACK
6
CONTINUOUS
10
0.38012
20
0.650864
11
0.38012
21
0.650863
0
LINE
8
BLACK
6
CONTINUOUS
10
0.38012
20
0.650863
11
0.380094
21
0.65079
0
LINE
8
BLACK
6
CONTINUOUS
10
0.380094
20
0.65079
11
0.373328
21
0.627501
0
LINE
8
BLACK
6
CONTINUOUS
10
0.373328
20
0.627501
11
0.368037
21
0.603834
0
LINE
8
BLACK
6
CONTINUOUS
10
0.368037
20
0.603834
11
0.364243
21
0.57988
0
LINE
8
BLACK
6
CONTINUOUS
10
0.364243
20
0.57988
11
0.361961
21
0.555736
0
LINE
8
BLACK
6
CONTINUOUS
10
0.361961
20
0.555736
11
0.361199
21
0.531496
0
LINE
8
BLACK
6
CONTINUOUS
10
0.361199
20
0.531496
11
0.361961
21
0.507256
0
LINE
8
BLACK
6
CONTINUOUS
10
0.361961
20
0.507256
11
0.364243
21
0.483112
0
LINE
8
BLACK
6
CONTINUOUS
10
0.364243
20
0.483112
11
0.368037
21
0.459158
0
LINE
8
BLACK
6
CONTINUOUS
10
0.368037
20
0.459158
11
0.373328
21
0.435491
0
LINE
8
BLACK
6
CONTINUOUS
10
0.373328
20
0.435491
11
0.380094
21
0.412202
0
LINE
8
BLACK
6
CONTINUOUS
10
0.380094
20
0.412202
11
0.38012
21
0.412129
0
LINE
8
BLACK
6
CONTINUOUS
10
0.38012
20
0.412129
11
0.38012
21
0.412129
0
LINE
8
BLACK
6
CONTINUOUS
10
0.38012
20
0.412129
11
0.388282
21
0.389457
0
LINE
8
BLACK
6
CONTINUOUS
10
0.388282
20
0.389457
11
0.388309
21
0.389384
0
LINE
8
BLACK
6
CONTINUOUS
10
0.388309
20
0.389384
11
0.39794
21
0.367126
0
LINE
8
BLACK
6
CONTINUOUS
10
0.39794
20
0.367126
11
0.40895
21
0.345518
0
LINE
8
BLACK
6
CONTINUOUS
10
0.40895
20
0.345518
11
0.421296
21
0.324643
0
LINE
8
BLACK
6
CONTINUOUS
10
0.421296
20
0.324643
11
0.434927
21
0.304585
0
LINE
8
BLACK
6
CONTINUOUS
10
0.434927
20
0.304585
11
0.449791
21
0.285422
0
LINE
8
BLACK
6
CONTINUOUS
10
0.449791
20
0.285422
11
0.46583
21
0.26723
0
LINE
8
BLACK
6
CONTINUOUS
10
0.46583
20
0.26723
11
0.482978
21
0.250081
0
LINE
8
BLACK
6
CONTINUOUS
10
0.482978
20
0.250081
11
0.50117
21
0.234043
0
LINE
8
BLACK
6
CONTINUOUS
10
0.50117
20
0.234043
11
0.520333
21
0.219179
0
LINE
8
BLACK
6
CONTINUOUS
10
0.520333
20
0.219179
11
0.540391
21
0.205548
0
LINE
8
BLACK
6
CONTINUOUS
10
0.540391
20
0.205548
11
0.561266
21
0.193202
0
LINE
8
BLACK
6
CONTINUOUS
10
0.561266
20
0.193202
11
0.561334
21
0.193167
0
LINE
8
BLACK
6
CONTINUOUS
10
0.561334
20
0.193167
11
0.561335
21
0.193167
0
LINE
8
BLACK
6
CONTINUOUS
10
0.561335
20
0.193167
11
0.57207
21
0.187697
0
LINE
8
BLACK
6
CONTINUOUS
10
0.57207
20
0.187697
11
0.582874
21
0.182192
0
LINE
8
BLACK
6
CONTINUOUS
10
0.582874
20
0.182192
11
0.605132
21
0.172561
0
LINE
8
BLACK
6
CONTINUOUS
10
0.605132
20
0.172561
11
0.605205
21
0.172534
0
LINE
8
BLACK
6
CONTINUOUS
10
0.605205
20
0.172534
11
0.605205
21
0.172534
0
LINE
8
BLACK
6
CONTINUOUS
10
0.605205
20
0.172534
11
0.627877
21
0.164372
0
LINE
8
BLACK
6
CONTINUOUS
10
0.627877
20
0.164372
11
0.627877
21
0.164372
0
LINE
8
BLACK
6
CONTINUOUS
10
0.627877
20
0.164372
11
0.62795
21
0.164346
0
LINE
8
BLACK
6
CONTINUOUS
10
0.62795
20
0.164346
11
0.628024
21
0.164324
0
LINE
8
BLACK
6
CONTINUOUS
10
0.628024
20
0.164324
11
0.628024
21
0.164324
0
LINE
8
BLACK
6
CONTINUOUS
10
0.628024
20
0.164324
11
0.651164
21
0.157601
0
LINE
8
BLACK
6
CONTINUOUS
10
0.651164
20
0.157601
11
0.651239
21
0.15758
0
LINE
8
BLACK
6
CONTINUOUS
10
0.651239
20
0.15758
11
0.651314
21
0.157563
0
LINE
8
BLACK
6
CONTINUOUS
10
0.651314
20
0.157563
11
0.651315
21
0.157563
0
LINE
8
BLACK
6
CONTINUOUS
10
0.651315
20
0.157563
11
0.663073
21
0.154934
0
LINE
8
BLACK
6
CONTINUOUS
10
0.663073
20
0.154934
11
0.674906
21
0.152289
0
LINE
8
BLACK
6
CONTINUOUS
10
0.674906
20
0.152289
11
0.674984
21
0.152277
0
LINE
8
BLACK
6
CONTINUOUS
10
0.674984
20
0.152277
11
0.674984
21
0.152277
0
LINE
8
BLACK
6
CONTINUOUS
10
0.674984
20
0.152277
11
0.68936
21
0.15
0
LINE
8
BLACK
6
CONTINUOUS
10
0.68936
20
0.15
11
0.805128
21
0.15
0
LINE
8
BLACK
6
CONTINUOUS
10
0.805128
20
0.15
11
0.819505
21
0.152277
0
LINE
8
BLACK
6
CONTINUOUS
10
0.819505
20
0.152277
11
0.819505
21
0.152277
0
LINE
8
BLACK
6
CONTINUOUS
10
0.819505
20
0.152277
11
0.819582
21
0.152289
0
LINE
8
BLACK
6
CONTINUOUS
10
0.819582
20
0.152289
11
0.831416
21
0.154934
0
LINE
8
BLACK
6
CONTINUOUS
10
0.831416
20
0.154934
11
0.843174
21
0.157563
0
LINE
8
BLACK
6
CONTINUOUS
10
0.843174
20
0.157563
11
0.843174
21
0.157563
0
LINE
8
BLACK
6
CONTINUOUS
10
0.843174
20
0.157563
11
0.84325
21
0.15758
0
LINE
8
BLACK
6
CONTINUOUS
10
0.84325
20
0.15758
11
0.843325
21
0.157601
0
LINE
8
BLACK
6
CONTINUOUS
10
0.843325
20
0.157601
11
0.866464
21
0.164324
0
LINE
8
BLACK
6
CONTINUOUS
10
0.866464
20
0.164324
11
0.866464
21
0.164324
0
LINE
8
BLACK
6
CONTINUOUS
10
0.866464
20
0.164324
11
0.866539
21
0.164346
0
LINE
8
BLACK
6
CONTINUOUS
10
0.866539
20
0.164346
11
0.866611
21
0.164372
0
LINE
8
BLACK
6
CONTINUOUS
10
0.866611
20
0.164372
11
0.866612
21
0.164372
0
LINE
8
BLACK
6
CONTINUOUS
10
0.866612
20
0.164372
11
0.889284
21
0.172534
0
LINE
8
BLACK
6
CONTINUOUS
10
0.889284
20
0.172534
11
0.889284
21
0.172534
0
LINE
8
BLACK
6
CONTINUOUS
10
0.889284
20
0.172534
11
0.889357
21
0.172561
0
LINE
8
BLACK
6
CONTINUOUS
10
0.889357
20
0.172561
11
0.911614
21
0.182192
0
LINE
8
BLACK
6
CONTINUOUS
10
0.911614
20
0.182192
11
0.922418
21
0.187697
0
LINE
8
BLACK
6
CONTINUOUS
10
0.922418
20
0.187697
11
0.933154
21
0.193167
0
LINE
8
BLACK
6
CONTINUOUS
10
0.933154
20
0.193167
11
0.933154
21
0.193167
0
LINE
8
BLACK
6
CONTINUOUS
10
0.933154
20
0.193167
11
0.933223
21
0.193202
0
LINE
8
BLACK
6
CONTINUOUS
10
0.933223
20
0.193202
11
0.954097
21
0.205548
0
LINE
8
BLACK
6
CONTINUOUS
10
0.954097
20
0.205548
11
0.974156
21
0.219179
0
LINE
8
BLACK
6
CONTINUOUS
10
0.974156
20
0.219179
11
0.993318
21
0.234043
0
LINE
8
BLACK
6
CONTINUOUS
10
0.993318
20
0.234043
11
1.01151
21
0.250081
0
LINE
8
BLACK
6
CONTINUOUS
10
1.01151
20
0.250081
11
1.02866
21
0.26723
0
LINE
8
BLACK
6
CONTINUOUS
10
1.02866
20
0.26723
11
1.0447
21
0.285422
0
LINE
8
BLACK
6
CONTINUOUS
10
1.0447
20
0.285422
11
1.05956
21
0.304585
0
LINE
8
BLACK
6
CONTINUOUS
10
1.05956
20
0.304585
11
1.07319
21
0.324643
0
LINE
8
BLACK
6
CONTINUOUS
10
1.07319
20
0.324643
11
1.08554
21
0.345518
0
LINE
8
BLACK
6
CONTINUOUS
10
1.08554
20
0.345518
11
1.09655
21
0.367126
0
LINE
8
BLACK
6
CONTINUOUS
10
1.09655
20
0.367126
11
1.10618
21
0.389384
0
LINE
8
BLACK
6
CONTINUOUS
10
1.10618
20
0.389384
11
1.10621
21
0.389457
0
LINE
8
BLACK
6
CONTINUOUS
10
1.10621
20
0.389457
11
1.11437
21
0.412129
0
LINE
8
BLACK
6
CONTINUOUS
10
1.11437
20
0.412129
11
1.11437
21
0.412129
0
LINE
8
BLACK
6
CONTINUOUS
10
1.11437
20
0.412129
11
1.11439
21
0.412202
0
LINE
8
BLACK
6
CONTINUOUS
10
1.11439
20
0.412202
11
1.12116
21
0.435491
0
LINE
8
BLACK
6
CONTINUOUS
10
1.12116
20
0.435491
11
1.12645
21
0.459158
0
LINE
8
BLACK
6
CONTINUOUS
10
1.12645
20
0.459158
11
1.13024
21
0.483112
0
LINE
8
BLACK
6
CONTINUOUS
10
1.13024
20
0.483112
11
1.13253
21
0.507256
0
LINE
8
BLACK
6
CONTINUOUS
10
1.13253
20
0.507256
11
1.13329
21
0.531496
0
LINE
8
BLACK
6
CONTINUOUS
10
1.13329
20
0.531496
11
1.13253
21
0.555736
0
LINE
8
BLACK
6
CONTINUOUS
10
1.13253
20
0.555736
11
1.13024
21
0.57988
0
LINE
8
BLACK
6
CONTINUOUS
10
1.26976
20
1.38862
11
1.27355
21
1.36467
0
LINE
8
BLACK
6
CONTINUOUS
10
1.27355
20
1.36467
11
1.27884
21
1.341
0
LINE
8
BLACK
6
CONTINUOUS
10
1.27884
20
1.341
11
1.28561
21
1.31771
0
LINE
8
BLACK
6
CONTINUOUS
10
1.28561
20
1.31771
11
1.28563
21
1.31764
0
LINE
8
BLACK
6
CONTINUOUS
10
1.28563
20
1.31764
11
1.28563
21
1.31764
0
LINE
8
BLACK
6
CONTINUOUS
10
1.28563
20
1.31764
11
1.29379
21
1.29497
0
LINE
8
BLACK
6
CONTINUOUS
10
1.29379
20
1.29497
11
1.29382
21
1.2949
0
LINE
8
BLACK
6
CONTINUOUS
10
1.29382
20
1.2949
11
1.30345
21
1.27264
0
LINE
8
BLACK
6
CONTINUOUS
10
1.30345
20
1.27264
11
1.31446
21
1.25103
0
LINE
8
BLACK
6
CONTINUOUS
10
1.31446
20
1.25103
11
1.32681
21
1.23015
0
LINE
8
BLACK
6
CONTINUOUS
10
1.32681
20
1.23015
11
1.34044
21
1.2101
0
LINE
8
BLACK
6
CONTINUOUS
10
1.34044
20
1.2101
11
1.3553
21
1.19093
0
LINE
8
BLACK
6
CONTINUOUS
10
1.3553
20
1.19093
11
1.37134
21
1.17274
0
LINE
8
BLACK
6
CONTINUOUS
10
1.37134
20
1.17274
11
1.38849
21
1.15559
0
LINE
8
BLACK
6
CONTINUOUS
10
1.38849
20
1.15559
11
1.40668
21
1.13956
0
LINE
8
BLACK
6
CONTINUOUS
10
1.40668
20
1.13956
11
1.42584
21
1.12469
0
LINE
8
BLACK
6
CONTINUOUS
10
1.42584
20
1.12469
11
1.4459
21
1.11106
0
LINE
8
BLACK
6
CONTINUOUS
10
1.4459
20
1.11106
11
1.46678
21
1.09871
0
LINE
8
BLACK
6
CONTINUOUS
10
1.46678
20
1.09871
11
1.46685
21
1.09868
0
LINE
8
BLACK
6
CONTINUOUS
10
1.46685
20
1.09868
11
1.46685
21
1.09868
0
LINE
8
BLACK
6
CONTINUOUS
10
1.46685
20
1.09868
11
1.47758
21
1.09321
0
LINE
8
BLACK
6
CONTINUOUS
10
1.47758
20
1.09321
11
1.48839
21
1.0877
0
LINE
8
BLACK
6
CONTINUOUS
10
1.48839
20
1.0877
11
1.51064
21
1.07807
0
LINE
8
BLACK
6
CONTINUOUS
10
1.51064
20
1.07807
11
1.51072
21
1.07805
0
LINE
8
BLACK
6
CONTINUOUS
10
1.51072
20
1.07805
11
1.51072
21
1.07805
0
LINE
8
BLACK
6
CONTINUOUS
10
1.51072
20
1.07805
11
1.53339
21
1.06988
0
LINE
8
BLACK
6
CONTINUOUS
10
1.53339
20
1.06988
11
1.53339
21
1.06988
0
LINE
8
BLACK
6
CONTINUOUS
10
1.53339
20
1.06988
11
1.53346
21
1.06986
0
LINE
8
BLACK
6
CONTINUOUS
10
1.53346
20
1.06986
11
1.53354
21
1.06984
0
LINE
8
BLACK
6
CONTINUOUS
10
1.53354
20
1.06984
11
1.53354
21
1.06984
0
LINE
8
BLACK
6
CONTINUOUS
10
1.53354
20
1.06984
11
1.55668
21
1.06311
0
LINE
8
BLACK
6
CONTINUOUS
10
1.55668
20
1.06311
11
1.55675
21
1.06309
0
LINE
8
BLACK
6
CONTINUOUS
10
1.55675
20
1.06309
11
1.55683
21
1.06307
0
LINE
8
BLACK
6
CONTINUOUS
10
1.55683
20
1.06307
11
1.55683
21
1.06307
0
LINE
8
BLACK
6
CONTINUOUS
10
1.55683
20
1.06307
11
1.56858
21
1.06045
0
LINE
8
BLACK
6
CONTINUOUS
10
1.56858
20
1.06045
11
1.58042
21
1.0578
0
LINE
8
BLACK
6
CONTINUOUS
10
1.58042
20
1.0578
11
1.5805
21
1.05779
0
LINE
8
BLACK
6
CONTINUOUS
10
1.5805
20
1.05779
11
1.5805
21
1.05779
0
LINE
8
BLACK
6
CONTINUOUS
10
1.5805
20
1.05779
11
1.60429
21
1.05402
0
LINE
8
BLACK
6
CONTINUOUS
10
1.60429
20
1.05402
11
1.60429
21
1.05402
0
LINE
8
BLACK
6
CONTINUOUS
10
1.60429
20
1.05402
11
1.60437
21
1.05401
0
LINE
8
BLACK
6
CONTINUOUS
10
1.60437
20
1.05401
11
1.60445
21
1.054
0
LINE
8
BLACK
6
CONTINUOUS
10
1.60445
20
1.054
11
1.60445
21
1.054
0
LINE
8
BLACK
6
CONTINUOUS
10
1.60445
20
1.054
11
1.62844
21
1.05173
0
LINE
8
BLACK
6
CONTINUOUS
10
1.62844
20
1.05173
11
1.62844
21
1.05173
0
LINE
8
BLACK
6
CONTINUOUS
10
1.62844
20
1.05173
11
1.62852
21
1.05172
0
LINE
8
BLACK
6
CONTINUOUS
10
1.62852
20
1.05172
11
1.62859
21
1.05172
0
LINE
8
BLACK
6
CONTINUOUS
10
1.62859
20
1.05172
11
1.62859
21
1.05172
0
LINE
8
BLACK
6
CONTINUOUS
10
1.62859
20
1.05172
11
1.63928
21
1.05139
0
LINE
8
BLACK
6
CONTINUOUS
10
1.63928
20
1.05139
11
1.64644
21
1.05116
0
LINE
8
BLACK
6
CONTINUOUS
10
1.64644
20
1.05116
11
1.65907
21
1.05116
0
LINE
8
BLACK
6
CONTINUOUS
10
1.65907
20
1.05116
11
1.66624
21
1.05139
0
LINE
8
BLACK
6
CONTINUOUS
10
1.66624
20
1.05139
11
1.67692
21
1.05172
0
LINE
8
BLACK
6
CONTINUOUS
10
1.67692
20
1.05172
11
1.67692
21
1.05172
0
LINE
8
BLACK
6
CONTINUOUS
10
1.67692
20
1.05172
11
1.677
21
1.05172
0
LINE
8
BLACK
6
CONTINUOUS
10
1.677
20
1.05172
11
1.67707
21
1.05173
0
LINE
8
BLACK
6
CONTINUOUS
10
1.67707
20
1.05173
11
1.67707
21
1.05173
0
LINE
8
BLACK
6
CONTINUOUS
10
1.67707
20
1.05173
11
1.70106
21
1.054
0
LINE
8
BLACK
6
CONTINUOUS
10
1.70106
20
1.054
11
1.70106
21
1.054
0
LINE
8
BLACK
6
CONTINUOUS
10
1.70106
20
1.054
11
1.70114
21
1.05401
0
LINE
8
BLACK
6
CONTINUOUS
10
1.70114
20
1.05401
11
1.70122
21
1.05402
0
LINE
8
BLACK
6
CONTINUOUS
10
1.70122
20
1.05402
11
1.70122
21
1.05402
0
LINE
8
BLACK
6
CONTINUOUS
10
1.70122
20
1.05402
11
1.72502
21
1.05779
0
LINE
8
BLACK
6
CONTINUOUS
10
1.72502
20
1.05779
11
1.72502
21
1.05779
0
LINE
8
BLACK
6
CONTINUOUS
10
1.72502
20
1.05779
11
1.72509
21
1.0578
0
LINE
8
BLACK
6
CONTINUOUS
10
1.72509
20
1.0578
11
1.73693
21
1.06045
0
LINE
8
BLACK
6
CONTINUOUS
10
1.73693
20
1.06045
11
1.74869
21
1.06307
0
LINE
8
BLACK
6
CONTINUOUS
10
1.74869
20
1.06307
11
1.74869
21
1.06307
0
LINE
8
BLACK
6
CONTINUOUS
10
1.74869
20
1.06307
11
1.74876
21
1.06309
0
LINE
8
BLACK
6
CONTINUOUS
10
1.74876
20
1.06309
11
1.74884
21
1.06311
0
LINE
8
BLACK
6
CONTINUOUS
10
1.74884
20
1.06311
11
1.77198
21
1.06984
0
LINE
8
BLACK
6
CONTINUOUS
10
1.77198
20
1.06984
11
1.77198
21
1.06984
0
LINE
8
BLACK
6
CONTINUOUS
10
1.77198
20
1.06984
11
1.77205
21
1.06986
0
LINE
8
BLACK
6
CONTINUOUS
10
1.77205
20
1.06986
11
1.77212
21
1.06988
0
LINE
8
BLACK
6
CONTINUOUS
10
1.77212
20
1.06988
11
1.77212
21
1.06988
0
LINE
8
BLACK
6
CONTINUOUS
10
1.77212
20
1.06988
11
1.7948
21
1.07805
0
LINE
8
BLACK
6
CONTINUOUS
10
1.7948
20
1.07805
11
1.7948
21
1.07805
0
LINE
8
BLACK
6
CONTINUOUS
10
1.7948
20
1.07805
11
1.79487
21
1.07807
0
LINE
8
BLACK
6
CONTINUOUS
10
1.79487
20
1.07807
11
1.81713
21
1.0877
0
LINE
8
BLACK
6
CONTINUOUS
10
1.81713
20
1.0877
11
1.82793
21
1.09321
0
LINE
8
BLACK
6
CONTINUOUS
10
1.82793
20
1.09321
11
1.83867
21
1.09868
0
LINE
8
BLACK
6
CONTINUOUS
10
1.83867
20
1.09868
11
1.83867
21
1.09868
0
LINE
8
BLACK
6
CONTINUOUS
10
1.83867
20
1.09868
11
1.83873
21
1.09871
0
LINE
8
BLACK
6
CONTINUOUS
10
1.83873
20
1.09871
11
1.85961
21
1.11106
0
LINE
8
BLACK
6
CONTINUOUS
10
1.85961
20
1.11106
11
1.87967
21
1.12469
0
LINE
8
BLACK
6
CONTINUOUS
10
1.87967
20
1.12469
11
1.89883
21
1.13956
0
LINE
8
BLACK
6
CONTINUOUS
10
1.89883
20
1.13956
11
1.91702
21
1.15559
0
LINE
8
BLACK
6
CONTINUOUS
10
1.91702
20
1.15559
11
1.93417
21
1.17274
0
LINE
8
BLACK
6
CONTINUOUS
10
1.93417
20
1.17274
11
1.95021
21
1.19093
0
LINE
8
BLACK
6
CONTINUOUS
10
1.95021
20
1.19093
11
1.96507
21
1.2101
0
LINE
8
BLACK
6
CONTINUOUS
10
1.96507
20
1.2101
11
1.9787
21
1.23015
0
LINE
8
BLACK
6
CONTINUOUS
10
1.9787
20
1.23015
11
1.99105
21
1.25103
0
LINE
8
BLACK
6
CONTINUOUS
10
1.99105
20
1.25103
11
2.00206
21
1.27264
0
LINE
8
BLACK
6
CONTINUOUS
10
2.00206
20
1.27264
11
2.01169
21
1.2949
0
LINE
8
BLACK
6
CONTINUOUS
10
2.01169
20
1.2949
11
2.01172
21
1.29497
0
LINE
8
BLACK
6
CONTINUOUS
10
2.01172
20
1.29497
11
2.01988
21
1.31764
0
LINE
8
BLACK
6
CONTINUOUS
10
2.01988
20
1.31764
11
2.01988
21
1.31764
0
LINE
8
BLACK
6
CONTINUOUS
10
2.01988
20
1.31764
11
2.01991
21
1.31771
0
LINE
8
BLACK
6
CONTINUOUS
10
2.01991
20
1.31771
11
2.02667
21
1.341
0
LINE
8
BLACK
6
CONTINUOUS
10
2.02667
20
1.341
11
2.03196
21
1.36467
0
LINE
8
BLACK
6
CONTINUOUS
10
2.03196
20
1.36467
11
2.03576
21
1.38862
0
LINE
8
BLACK
6
CONTINUOUS
10
2.03576
20
1.38862
11
2.03804
21
1.41277
0
LINE
8
BLACK
6
CONTINUOUS
10
2.03804
20
1.41277
11
2.0388
21
1.43701
0
LINE
8
BLACK
6
CONTINUOUS
10
2.0388
20
1.43701
11
2.03804
21
1.46125
0
LINE
8
BLACK
6
CONTINUOUS
10
2.03804
20
1.46125
11
2.03576
21
1.48539
0
LINE
8
BLACK
6
CONTINUOUS
10
2.03576
20
1.48539
11
2.03196
21
1.50935
0
LINE
8
BLACK
6
CONTINUOUS
10
2.03196
20
1.50935
11
2.02667
21
1.53301
0
LINE
8
BLACK
6
CONTINUOUS
10
2.02667
20
1.53301
11
2.01991
21
1.5563
0
LINE
8
BLACK
6
CONTINUOUS
10
2.01991
20
1.5563
11
2.01988
21
1.55637
0
LINE
8
BLACK
6
CONTINUOUS
10
2.01988
20
1.55637
11
2.01988
21
1.55638
0
LINE
8
BLACK
6
CONTINUOUS
10
2.01988
20
1.55638
11
2.01172
21
1.57905
0
LINE
8
BLACK
6
CONTINUOUS
10
2.01172
20
1.57905
11
2.01172
21
1.57905
0
LINE
8
BLACK
6
CONTINUOUS
10
2.01172
20
1.57905
11
2.01169
21
1.57912
0
LINE
8
BLACK
6
CONTINUOUS
10
2.01169
20
1.57912
11
2.00206
21
1.60138
0
LINE
8
BLACK
6
CONTINUOUS
10
2.00206
20
1.60138
11
1.99655
21
1.61218
0
LINE
8
BLACK
6
CONTINUOUS
10
1.99655
20
1.61218
11
1.99108
21
1.62292
0
LINE
8
BLACK
6
CONTINUOUS
10
1.99108
20
1.62292
11
1.99108
21
1.62292
0
LINE
8
BLACK
6
CONTINUOUS
10
1.99108
20
1.62292
11
1.99105
21
1.62299
0
LINE
8
BLACK
6
CONTINUOUS
10
1.99105
20
1.62299
11
1.9787
21
1.64386
0
LINE
8
BLACK
6
CONTINUOUS
10
1.9787
20
1.64386
11
1.96507
21
1.66392
0
LINE
8
BLACK
6
CONTINUOUS
10
1.96507
20
1.66392
11
1.95021
21
1.68308
0
LINE
8
BLACK
6
CONTINUOUS
10
1.95021
20
1.68308
11
1.93417
21
1.70127
0
LINE
8
BLACK
6
CONTINUOUS
10
1.93417
20
1.70127
11
1.91702
21
1.71842
0
LINE
8
BLACK
6
CONTINUOUS
10
1.91702
20
1.71842
11
1.89883
21
1.73446
0
LINE
8
BLACK
6
CONTINUOUS
10
1.89883
20
1.73446
11
1.87967
21
1.74932
0
LINE
8
BLACK
6
CONTINUOUS
10
1.87967
20
1.74932
11
1.85961
21
1.76296
0
LINE
8
BLACK
6
CONTINUOUS
10
1.85961
20
1.76296
11
1.83873
21
1.7753
0
LINE
8
BLACK
6
CONTINUOUS
10
1.83873
20
1.7753
11
1.83867
21
1.77534
0
LINE
8
BLACK
6
CONTINUOUS
10
1.83867
20
1.77534
11
1.83867
21
1.77534
0
LINE
8
BLACK
6
CONTINUOUS
10
1.83867
20
1.77534
11
1.82432
21
1.78265
0
LINE
8
BLACK
6
CONTINUOUS
10
1.82432
20
1.78265
11
1.81713
21
1.78631
0
LINE
8
BLACK
6
CONTINUOUS
10
1.81713
20
1.78631
11
1.81705
21
1.78634
0
LINE
8
BLACK
6
CONTINUOUS
10
1.81705
20
1.78634
11
1.79494
21
1.79591
0
LINE
8
BLACK
6
CONTINUOUS
10
1.79494
20
1.79591
11
1.79494
21
1.79591
0
LINE
8
BLACK
6
CONTINUOUS
10
1.79494
20
1.79591
11
1.79487
21
1.79594
0
LINE
8
BLACK
6
CONTINUOUS
10
1.79487
20
1.79594
11
1.7948
21
1.79597
0
LINE
8
BLACK
6
CONTINUOUS
10
1.7948
20
1.79597
11
1.77212
21
1.80413
0
LINE
8
BLACK
6
CONTINUOUS
10
1.77212
20
1.80413
11
1.77212
21
1.80413
0
LINE
8
BLACK
6
CONTINUOUS
10
1.77212
20
1.80413
11
1.77205
21
1.80416
0
LINE
8
BLACK
6
CONTINUOUS
10
1.77205
20
1.80416
11
1.77198
21
1.80418
0
LINE
8
BLACK
6
CONTINUOUS
10
1.77198
20
1.80418
11
1.77198
21
1.80418
0
LINE
8
BLACK
6
CONTINUOUS
10
1.77198
20
1.80418
11
1.74884
21
1.8109
0
LINE
8
BLACK
6
CONTINUOUS
10
1.74884
20
1.8109
11
1.74884
21
1.8109
0
LINE
8
BLACK
6
CONTINUOUS
10
1.74884
20
1.8109
11
1.74876
21
1.81092
0
LINE
8
BLACK
6
CONTINUOUS
10
1.74876
20
1.81092
11
1.74869
21
1.81094
0
LINE
8
BLACK
6
CONTINUOUS
10
1.74869
20
1.81094
11
1.74869
21
1.81094
0
LINE
8
BLACK
6
CONTINUOUS
10
1.74869
20
1.81094
11
1.73693
21
1.81357
0
LINE
8
BLACK
6
CONTINUOUS
10
1.73693
20
1.81357
11
1.72509
21
1.81621
0
LINE
8
BLACK
6
CONTINUOUS
10
1.72509
20
1.81621
11
1.72502
21
1.81623
0
LINE
8
BLACK
6
CONTINUOUS
10
1.72502
20
1.81623
11
1.70122
21
1.82
0
LINE
8
BLACK
6
CONTINUOUS
10
1.70122
20
1.82
11
1.70122
21
1.82
0
LINE
8
BLACK
6
CONTINUOUS
10
1.70122
20
1.82
11
1.70114
21
1.82001
0
LINE
8
BLACK
6
CONTINUOUS
10
1.70114
20
1.82001
11
1.70106
21
1.82002
0
LINE
8
BLACK
6
CONTINUOUS
10
1.70106
20
1.82002
11
1.70106
21
1.82002
0
LINE
8
BLACK
6
CONTINUOUS
10
1.70106
20
1.82002
11
1.67707
21
1.82228
0
LINE
8
BLACK
6
CONTINUOUS
10
1.67707
20
1.82228
11
1.67707
21
1.82228
0
LINE
8
BLACK
6
CONTINUOUS
10
1.67707
20
1.82228
11
1.677
21
1.82229
0
LINE
8
BLACK
6
CONTINUOUS
10
1.677
20
1.82229
11
1.67692
21
1.82229
0
LINE
8
BLACK
6
CONTINUOUS
10
1.67692
20
1.82229
11
1.67692
21
1.82229
0
LINE
8
BLACK
6
CONTINUOUS
10
1.67692
20
1.82229
11
1.66624
21
1.82263
0
LINE
8
BLACK
6
CONTINUOUS
10
1.66624
20
1.82263
11
1.65907
21
1.82285
0
LINE
8
BLACK
6
CONTINUOUS
10
1.65907
20
1.82285
11
1.64644
21
1.82285
0
LINE
8
BLACK
6
CONTINUOUS
10
1.64644
20
1.82285
11
1.63928
21
1.82263
0
LINE
8
BLACK
6
CONTINUOUS
10
1.63928
20
1.82263
11
1.62859
21
1.82229
0
LINE
8
BLACK
6
CONTINUOUS
10
1.62859
20
1.82229
11
1.62859
21
1.82229
0
LINE
8
BLACK
6
CONTINUOUS
10
1.62859
20
1.82229
11
1.62852
21
1.82229
0
LINE
8
BLACK
6
CONTINUOUS
10
1.62852
20
1.82229
11
1.62844
21
1.82228
0
LINE
8
BLACK
6
CONTINUOUS
10
1.62844
20
1.82228
11
1.62844
21
1.82228
0
LINE
8
BLACK
6
CONTINUOUS
10
1.62844
20
1.82228
11
1.60445
21
1.82002
0
LINE
8
BLACK
6
CONTINUOUS
10
1.60445
20
1.82002
11
1.60445
21
1.82002
0
LINE
8
BLACK
6
CONTINUOUS
10
1.60445
20
1.82002
11
1.60437
21
1.82001
0
LINE
8
BLACK
6
CONTINUOUS
10
1.60437
20
1.82001
11
1.60429
21
1.82
0
LINE
8
BLACK
6
CONTINUOUS
10
1.60429
20
1.82
11
1.60429
21
1.82
0
LINE
8
BLACK
6
CONTINUOUS
10
1.60429
20
1.82
11
1.5805
21
1.81623
0
LINE
8
BLACK
6
CONTINUOUS
10
1.5805
20
1.81623
11
1.58042
21
1.81621
0
LINE
8
BLACK
6
CONTINUOUS
10
1.58042
20
1.81621
11
1.56858
21
1.81357
0
LINE
8
BLACK
6
CONTINUOUS
10
1.56858
20
1.81357
11
1.55683
21
1.81094
0
LINE
8
BLACK
6
CONTINUOUS
10
1.55683
20
1.81094
11
1.55683
21
1.81094
0
LINE
8
BLACK
6
CONTINUOUS
10
1.55683
20
1.81094
11
1.55675
21
1.81092
0
LINE
8
BLACK
6
CONTINUOUS
10
1.55675
20
1.81092
11
1.55668
21
1.8109
0
LINE
8
BLACK
6
CONTINUOUS
10
1.55668
20
1.8109
11
1.55668
21
1.8109
0
LINE
8
BLACK
6
CONTINUOUS
10
1.55668
20
1.8109
11
1.53354
21
1.80418
0
LINE
8
BLACK
6
CONTINUOUS
10
1.53354
20
1.80418
11
1.53354
21
1.80418
0
LINE
8
BLACK
6
CONTINUOUS
10
1.53354
20
1.80418
11
1.53346
21
1.80416
0
LINE
8
BLACK
6
CONTINUOUS
10
1.53346
20
1.80416
11
1.53339
21
1.80413
0
LINE
8
BLACK
6
CONTINUOUS
10
1.53339
20
1.80413
11
1.53339
21
1.80413
0
LINE
8
BLACK
6
CONTINUOUS
10
1.53339
20
1.80413
11
1.51072
21
1.79597
0
LINE
8
BLACK
6
CONTINUOUS
10
1.51072
20
1.79597
11
1.51064
21
1.79594
0
LINE
8
BLACK
6
CONTINUOUS
10
1.51064
20
1.79594
11
1.51057
21
1.79591
0
LINE
8
BLACK
6
CONTINUOUS
10
1.51057
20
1.79591
11
1.51057
21
1.79591
0
LINE
8
BLACK
6
CONTINUOUS
10
1.51057
20
1.79591
11
1.48846
21
1.78634
0
LINE
8
BLACK
6
CONTINUOUS
10
1.48846
20
1.78634
11
1.48839
21
1.78631
0
LINE
8
BLACK
6
CONTINUOUS
10
1.48839
20
1.78631
11
1.4812
21
1.78265
0
LINE
8
BLACK
6
CONTINUOUS
10
1.4812
20
1.78265
11
1.46685
21
1.77534
0
LINE
8
BLACK
6
CONTINUOUS
10
1.46685
20
1.77534
11
1.46685
21
1.77534
0
LINE
8
BLACK
6
CONTINUOUS
10
1.46685
20
1.77534
11
1.46678
21
1.7753
0
LINE
8
BLACK
6
CONTINUOUS
10
1.46678
20
1.7753
11
1.4459
21
1.76296
0
LINE
8
BLACK
6
CONTINUOUS
10
1.4459
20
1.76296
11
1.42584
21
1.74932
0
LINE
8
BLACK
6
CONTINUOUS
10
1.42584
20
1.74932
11
1.40668
21
1.73446
0
LINE
8
BLACK
6
CONTINUOUS
10
1.40668
20
1.73446
11
1.38849
21
1.71842
0
LINE
8
BLACK
6
CONTINUOUS
10
1.38849
20
1.71842
11
1.37134
21
1.70127
0
LINE
8
BLACK
6
CONTINUOUS
10
1.37134
20
1.70127
11
1.3553
21
1.68308
0
LINE
8
BLACK
6
CONTINUOUS
10
1.3553
20
1.68308
11
1.34044
21
1.66392
0
LINE
8
BLACK
6
CONTINUOUS
10
1.34044
20
1.66392
11
1.32681
21
1.64386
0
LINE
8
BLACK
6
CONTINUOUS
10
1.32681
20
1.64386
11
1.31446
21
1.62299
0
LINE
8
BLACK
6
CONTINUOUS
10
1.31446
20
1.62299
11
1.31443
21
1.62292
0
LINE
8
BLACK
6
CONTINUOUS
10
1.31443
20
1.62292
11
1.31443
21
1.62292
0
LINE
8
BLACK
6
CONTINUOUS
10
1.31443
20
1.62292
11
1.30896
21
1.61218
0
LINE
8
BLACK
6
CONTINUOUS
10
1.30896
20
1.61218
11
1.30345
21
1.60138
0
LINE
8
BLACK
6
CONTINUOUS
10
1.30345
20
1.60138
11
1.29382
21
1.57912
0
LINE
8
BLACK
6
CONTINUOUS
10
1.29382
20
1.57912
11
1.29379
21
1.57905
0
LINE
8
BLACK
6
CONTINUOUS
10
1.29379
20
1.57905
11
1.29379
21
1.57905
0
LINE
8
BLACK
6
CONTINUOUS
10
1.29379
20
1.57905
11
1.28563
21
1.55638
0
LINE
8
BLACK
6
CONTINUOUS
10
1.28563
20
1.55638
11
1.28563
21
1.55637
0
LINE
8
BLACK
6
CONTINUOUS
10
1.28563
20
1.55637
11
1.28561
21
1.5563
0
LINE
8
BLACK
6
CONTINUOUS
10
1.28561
20
1.5563
11
1.27884
21
1.53301
0
LINE
8
BLACK
6
CONTINUOUS
10
1.27884
20
1.53301
11
1.27355
21
1.50935
0
LINE
8
BLACK
6
CONTINUOUS
10
1.27355
20
1.50935
11
1.26976
21
1.48539
0
LINE
8
BLACK
6
CONTINUOUS
10
1.26976
20
1.48539
11
1.26747
21
1.46125
0
LINE
8
BLACK
6
CONTINUOUS
10
1.26747
20
1.46125
11
1.26671
21
1.43701
0
LINE
8
BLACK
6
CONTINUOUS
10
1.26671
20
1.43701
11
1.26747
21
1.41277
0
LINE
8
BLACK
6
CONTINUOUS
10
1.26747
20
1.41277
11
1.26976
21
1.38862
0
LINE
8
BLACK
6
CONTINUOUS
10
0.364243
20
1.38862
11
0.368037
21
1.36467
0
LINE
8
BLACK
6
CONTINUOUS
10
0.368037
20
1.36467
11
0.373328
21
1.341
0
LINE
8
BLACK
6
CONTINUOUS
10
0.373328
20
1.341
11
0.380094
21
1.31771
0
LINE
8
BLACK
6
CONTINUOUS
10
0.380094
20
1.31771
11
0.38012
21
1.31764
0
LINE
8
BLACK
6
CONTINUOUS
10
0.38012
20
1.31764
11
0.38012
21
1.31764
0
LINE
8
BLACK
6
CONTINUOUS
10
0.38012
20
1.31764
11
0.388282
21
1.29497
0
LINE
8
BLACK
6
CONTINUOUS
10
0.388282
20
1.29497
11
0.388309
21
1.2949
0
LINE
8
BLACK
6
CONTINUOUS
10
0.388309
20
1.2949
11
0.39794
21
1.27264
0
LINE
8
BLACK
6
CONTINUOUS
10
0.39794
20
1.27264
11
0.40895
21
1.25103
0
LINE
8
BLACK
6
CONTINUOUS
10
0.40895
20
1.25103
11
0.421296
21
1.23015
0
LINE
8
BLACK
6
CONTINUOUS
10
0.421296
20
1.23015
11
0.434927
21
1.2101
0
LINE
8
BLACK
6
CONTINUOUS
10
0.434927
20
1.2101
11
0.449791
21
1.19093
0
LINE
8
BLACK
6
CONTINUOUS
10
0.449791
20
1.19093
11
0.46583
21
1.17274
0
LINE
8
BLACK
6
CONTINUOUS
10
0.46583
20
1.17274
11
0.482978
21
1.15559
0
LINE
8
BLACK
6
CONTINUOUS
10
0.482978
20
1.15559
11
0.50117
21
1.13956
0
LINE
8
BLACK
6
CONTINUOUS
10
0.50117
20
1.13956
11
0.520333
21
1.12469
0
LINE
8
BLACK
6
CONTINUOUS
10
0.520333
20
1.12469
11
0.540391
21
1.11106
0
LINE
8
BLACK
6
CONTINUOUS
10
0.540391
20
1.11106
11
0.561266
21
1.09871
0
LINE
8
BLACK
6
CONTINUOUS
10
0.561266
20
1.09871
11
0.561334
21
1.09868
0
LINE
8
BLACK
6
CONTINUOUS
10
0.561334
20
1.09868
11
0.561335
21
1.09868
0
LINE
8
BLACK
6
CONTINUOUS
10
0.561335
20
1.09868
11
0.57207
21
1.09321
0
LINE
8
BLACK
6
CONTINUOUS
10
0.57207
20
1.09321
11
0.582874
21
1.0877
0
LINE
8
BLACK
6
CONTINUOUS
10
0.582874
20
1.0877
11
0.605132
21
1.07807
0
LINE
8
BLACK
6
CONTINUOUS
10
0.605132
20
1.07807
11
0.605205
21
1.07805
0
LINE
8
BLACK
6
CONTINUOUS
10
0.605205
20
1.07805
11
0.605205
21
1.07805
0
LINE
8
BLACK
6
CONTINUOUS
10
0.605205
20
1.07805
11
0.627877
21
1.06988
0
LINE
8
BLACK
6
CONTINUOUS
10
0.627877
20
1.06988
11
0.627877
21
1.06988
0
LINE
8
BLACK
6
CONTINUOUS
10
0.627877
20
1.06988
11
0.62795
21
1.06986
0
LINE
8
BLACK
6
CONTINUOUS
10
0.62795
20
1.06986
11
0.628024
21
1.06984
0
LINE
8
BLACK
6
CONTINUOUS
10
0.628024
20
1.06984
11
0.628024
21
1.06984
0
LINE
8
BLACK
6
CONTINUOUS
10
0.628024
20
1.06984
11
0.651164
21
1.06311
0
LINE
8
BLACK
6
CONTINUOUS
10
0.651164
20
1.06311
11
0.651239
21
1.06309
0
LINE
8
BLACK
6
CONTINUOUS
10
0.651239
20
1.06309
11
0.651314
21
1.06307
0
LINE
8
BLACK
6
CONTINUOUS
10
0.651314
20
1.06307
11
0.651315
21
1.06307
0
LINE
8
BLACK
6
CONTINUOUS
10
0.651315
20
1.06307
11
0.663073
21
1.06045
0
LINE
8
BLACK
6
CONTINUOUS
10
0.663073
20
1.06045
11
0.674906
21
1.0578
0
LINE
8
BLACK
6
CONTINUOUS
10
0.674906
20
1.0578
11
0.674984
21
1.05779
0
LINE
8
BLACK
6
CONTINUOUS
10
0.674984
20
1.05779
11
0.674984
21
1.05779
0
LINE
8
BLACK
6
CONTINUOUS
10
0.674984
20
1.05779
11
0.698783
21
1.05402
0
LINE
8
BLACK
6
CONTINUOUS
10
0.698783
20
1.05402
11
0.698783
21
1.05402
0
LINE
8
BLACK
6
CONTINUOUS
10
0.698783
20
1.05402
11
0.69886
21
1.05401
0
LINE
8
BLACK
6
CONTINUOUS
10
0.69886
20
1.05401
11
0.698937
21
1.054
0
LINE
8
BLACK
6
CONTINUOUS
10
0.698937
20
1.054
11
0.698938
21
1.054
0
LINE
8
BLACK
6
CONTINUOUS
10
0.698938
20
1.054
11
0.722927
21
1.05173
0
LINE
8
BLACK
6
CONTINUOUS
10
0.722927
20
1.05173
11
0.722928
21
1.05173
0
LINE
8
BLACK
6
CONTINUOUS
10
0.722928
20
1.05173
11
0.723004
21
1.05172
0
LINE
8
BLACK
6
CONTINUOUS
10
0.723004
20
1.05172
11
0.723081
21
1.05172
0
LINE
8
BLACK
6
CONTINUOUS
10
0.723081
20
1.05172
11
0.723081
21
1.05172
0
LINE
8
BLACK
6
CONTINUOUS
10
0.723081
20
1.05172
11
0.733764
21
1.05139
0
LINE
8
BLACK
6
CONTINUOUS
10
0.733764
20
1.05139
11
0.740933
21
1.05116
0
LINE
8
BLACK
6
CONTINUOUS
10
0.740933
20
1.05116
11
0.753556
21
1.05116
0
LINE
8
BLACK
6
CONTINUOUS
10
0.753556
20
1.05116
11
0.760724
21
1.05139
0
LINE
8
BLACK
6
CONTINUOUS
10
0.760724
20
1.05139
11
0.771407
21
1.05172
0
LINE
8
BLACK
6
CONTINUOUS
10
0.771407
20
1.05172
11
0.771407
21
1.05172
0
LINE
8
BLACK
6
CONTINUOUS
10
0.771407
20
1.05172
11
0.771484
21
1.05172
0
LINE
8
BLACK
6
CONTINUOUS
10
0.771484
20
1.05172
11
0.77156
21
1.05173
0
LINE
8
BLACK
6
CONTINUOUS
10
0.77156
20
1.05173
11
0.771561
21
1.05173
0
LINE
8
BLACK
6
CONTINUOUS
10
0.771561
20
1.05173
11
0.795551
21
1.054
0
LINE
8
BLACK
6
CONTINUOUS
10
0.795551
20
1.054
11
0.795551
21
1.054
0
LINE
8
BLACK
6
CONTINUOUS
10
0.795551
20
1.054
11
0.795628
21
1.05401
0
LINE
8
BLACK
6
CONTINUOUS
10
0.795628
20
1.05401
11
0.795705
21
1.05402
0
LINE
8
BLACK
6
CONTINUOUS
10
0.795705
20
1.05402
11
0.795705
21
1.05402
0
LINE
8
BLACK
6
CONTINUOUS
10
0.795705
20
1.05402
11
0.819505
21
1.05779
0
LINE
8
BLACK
6
CONTINUOUS
10
0.819505
20
1.05779
11
0.819505
21
1.05779
0
LINE
8
BLACK
6
CONTINUOUS
10
0.819505
20
1.05779
11
0.819582
21
1.0578
0
LINE
8
BLACK
6
CONTINUOUS
10
0.819582
20
1.0578
11
0.831416
21
1.06045
0
LINE
8
BLACK
6
CONTINUOUS
10
0.831416
20
1.06045
11
0.843174
21
1.06307
0
LINE
8
BLACK
6
CONTINUOUS
10
0.843174
20
1.06307
11
0.843174
21
1.06307
0
LINE
8
BLACK
6
CONTINUOUS
10
0.843174
20
1.06307
11
0.84325
21
1.06309
0
LINE
8
BLACK
6
CONTINUOUS
10
0.84325
20
1.06309
11
0.843325
21
1.06311
0
LINE
8
BLACK
6
CONTINUOUS
10
0.843325
20
1.06311
11
0.866464
21
1.06984
0
LINE
8
BLACK
6
CONTINUOUS
10
0.866464
20
1.06984
11
0.866464
21
1.06984
0
LINE
8
BLACK
6
CONTINUOUS
10
0.866464
20
1.06984
11
0.866539
21
1.06986
0
LINE
8
BLACK
6
CONTINUOUS
10
0.866539
20
1.06986
11
0.866611
21
1.06988
0
LINE
8
BLACK
6
CONTINUOUS
10
0.866611
20
1.06988
11
0.866612
21
1.06988
0
LINE
8
BLACK
6
CONTINUOUS
10
0.866612
20
1.06988
11
0.889284
21
1.07805
0
LINE
8
BLACK
6
CONTINUOUS
10
0.889284
20
1.07805
11
0.889284
21
1.07805
0
LINE
8
BLACK
6
CONTINUOUS
10
0.889284
20
1.07805
11
0.889357
21
1.07807
0
LINE
8
BLACK
6
CONTINUOUS
10
0.889357
20
1.07807
11
0.911614
21
1.0877
0
LINE
8
BLACK
6
CONTINUOUS
10
0.911614
20
1.0877
11
0.922418
21
1.09321
0
LINE
8
BLACK
6
CONTINUOUS
10
0.922418
20
1.09321
11
0.933154
21
1.09868
0
LINE
8
BLACK
6
CONTINUOUS
10
0.933154
20
1.09868
11
0.933154
21
1.09868
0
LINE
8
BLACK
6
CONTINUOUS
10
0.933154
20
1.09868
11
0.933223
21
1.09871
0
LINE
8
BLACK
6
CONTINUOUS
10
0.933223
20
1.09871
11
0.954097
21
1.11106
0
LINE
8
BLACK
6
CONTINUOUS
10
0.954097
20
1.11106
11
0.974156
21
1.12469
0
LINE
8
BLACK
6
CONTINUOUS
10
0.974156
20
1.12469
11
0.993318
21
1.13956
0
LINE
8
BLACK
6
CONTINUOUS
10
0.993318
20
1.13956
11
1.01151
21
1.15559
0
LINE
8
BLACK
6
CONTINUOUS
10
1.01151
20
1.15559
11
1.02866
21
1.17274
0
LINE
8
BLACK
6
CONTINUOUS
10
1.02866
20
1.17274
11
1.0447
21
1.19093
0
LINE
8
BLACK
6
CONTINUOUS
10
1.0447
20
1.19093
11
1.05956
21
1.2101
0
LINE
8
BLACK
6
CONTINUOUS
10
1.05956
20
1.2101
11
1.07319
21
1.23015
0
LINE
8
BLACK
6
CONTINUOUS
10
1.07319
20
1.23015
11
1.08554
21
1.25103
0
LINE
8
BLACK
6
CONTINUOUS
10
1.08554
20
1.25103
11
1.09655
21
1.27264
0
LINE
8
BLACK
6
CONTINUOUS
10
1.09655
20
1.27264
11
1.10618
21
1.2949
0
LINE
8
BLACK
6
CONTINUOUS
10
1.10618
20
1.2949
11
1.10621
21
1.29497
0
LINE
8
BLACK
6
CONTINUOUS
10
1.10621
20
1.29497
11
1.11437
21
1.31764
0
LINE
8
BLACK
6
CONTINUOUS
10
1.11437
20
1.31764
11
1.11437
21
1.31764
0
LINE
8
BLACK
6
CONTINUOUS
10
1.11437
20
1.31764
11
1.11439
21
1.31771
0
LINE
8
BLACK
6
CONTINUOUS
10
1.11439
20
1.31771
11
1.12116
21
1.341
0
LINE
8
BLACK
6
CONTINUOUS
10
1.12116
20
1.341
11
1.12645
21
1.36467
0
LINE
8
BLACK
6
CONTINUOUS
10
1.12645
20
1.36467
11
1.13024
21
1.38862
0
LINE
8
BLACK
6
CONTINUOUS
10
1.13024
20
1.38862
11
1.13253
21
1.41277
0
LINE
8
BLACK
6
CONTINUOUS
10
1.13253
20
1.41277
11
1.13329
21
1.43701
0
LINE
8
BLACK
6
CONTINUOUS
10
1.13329
20
1.43701
11
1.13253
21
1.46125
0
LINE
8
BLACK
6
CONTINUOUS
10
1.13253
20
1.46125
11
1.13024
21
1.48539
0
LINE
8
BLACK
6
CONTINUOUS
10
1.13024
20
1.48539
11
1.12645
21
1.50935
0
LINE
8
BLACK
6
CONTINUOUS
10
1.12645
20
1.50935
11
1.12116
21
1.53301
0
LINE
8
BLACK
6
CONTINUOUS
10
1.12116
20
1.53301
11
1.11439
21
1.5563
0
LINE
8
BLACK
6
CONTINUOUS
10
1.11439
20
1.5563
11
1.11437
21
1.55637
0
LINE
8
BLACK
6
CONTINUOUS
10
1.11437
20
1.55637
11
1.11437
21
1.55638
0
LINE
8
BLACK
6
CONTINUOUS
10
1.11437
20
1.55638
11
1.10621
21
1.57905
0
LINE
8
BLACK
6
CONTINUOUS
10
1.10621
20
1.57905
11
1.10621
21
1.57905
0
LINE
8
BLACK
6
CONTINUOUS
10
1.10621
20
1.57905
11
1.10618
21
1.57912
0
LINE
8
BLACK
6
CONTINUOUS
10
1.10618
20
1.57912
11
1.09655
21
1.60138
0
LINE
8
BLACK
6
CONTINUOUS
10
1.09655
20
1.60138
11
1.09104
21
1.61218
0
LINE
8
BLACK
6
CONTINUOUS
10
1.09104
20
1.61218
11
1.08557
21
1.62292
0
LINE
8
BLACK
6
CONTINUOUS
10
1.08557
20
1.62292
11
1.08557
21
1.62292
0
LINE
8
BLACK
6
CONTINUOUS
10
1.08557
20
1.62292
11
1.08554
21
1.62299
0
LINE
8
BLACK
6
CONTINUOUS
10
1.08554
20
1.62299
11
1.07319
21
1.64386
0
LINE
8
BLACK
6
CONTINUOUS
10
1.07319
20
1.64386
11
1.05956
21
1.66392
0
LINE
8
BLACK
6
CONTINUOUS
10
1.05956
20
1.66392
11
1.0447
21
1.68308
0
LINE
8
BLACK
6
CONTINUOUS
10
1.0447
20
1.68308
11
1.02866
21
1.70127
0
LINE
8
BLACK
6
CONTINUOUS
10
1.02866
20
1.70127
11
1.01151
21
1.71842
0
LINE
8
BLACK
6
CONTINUOUS
10
1.01151
20
1.71842
11
0.993318
21
1.73446
0
LINE
8
BLACK
6
CONTINUOUS
10
0.993318
20
1.73446
11
0.974156
21
1.74932
0
LINE
8
BLACK
6
CONTINUOUS
10
0.974156
20
1.74932
11
0.954097
21
1.76296
0
LINE
8
BLACK
6
CONTINUOUS
10
0.954097
20
1.76296
11
0.933223
21
1.7753
0
LINE
8
BLACK
6
CONTINUOUS
10
0.933223
20
1.7753
11
0.933154
21
1.77534
0
LINE
8
BLACK
6
CONTINUOUS
10
0.933154
20
1.77534
11
0.933154
21
1.77534
0
LINE
8
BLACK
6
CONTINUOUS
10
0.933154
20
1.77534
11
0.918805
21
1.78265
0
LINE
8
BLACK
6
CONTINUOUS
10
0.918805
20
1.78265
11
0.911614
21
1.78631
0
LINE
8
BLACK
6
CONTINUOUS
10
0.911614
20
1.78631
11
0.911543
21
1.78634
0
LINE
8
BLACK
6
CONTINUOUS
10
0.911543
20
1.78634
11
0.889428
21
1.79591
0
LINE
8
BLACK
6
CONTINUOUS
10
0.889428
20
1.79591
11
0.889428
21
1.79591
0
LINE
8
BLACK
6
CONTINUOUS
10
0.889428
20
1.79591
11
0.889357
21
1.79594
0
LINE
8
BLACK
6
CONTINUOUS
10
0.889357
20
1.79594
11
0.889284
21
1.79597
0
LINE
8
BLACK
6
CONTINUOUS
10
0.889284
20
1.79597
11
0.866612
21
1.80413
0
LINE
8
BLACK
6
CONTINUOUS
10
0.866612
20
1.80413
11
0.866611
21
1.80413
0
LINE
8
BLACK
6
CONTINUOUS
10
0.866611
20
1.80413
11
0.866539
21
1.80416
0
LINE
8
BLACK
6
CONTINUOUS
10
0.866539
20
1.80416
11
0.866464
21
1.80418
0
LINE
8
BLACK
6
CONTINUOUS
10
0.866464
20
1.80418
11
0.866464
21
1.80418
0
LINE
8
BLACK
6
CONTINUOUS
10
0.866464
20
1.80418
11
0.843325
21
1.8109
0
LINE
8
BLACK
6
CONTINUOUS
10
0.843325
20
1.8109
11
0.843325
21
1.8109
0
LINE
8
BLACK
6
CONTINUOUS
10
0.843325
20
1.8109
11
0.84325
21
1.81092
0
LINE
8
BLACK
6
CONTINUOUS
10
0.84325
20
1.81092
11
0.843174
21
1.81094
0
LINE
8
BLACK
6
CONTINUOUS
10
0.843174
20
1.81094
11
0.843174
21
1.81094
0
LINE
8
BLACK
6
CONTINUOUS
10
0.843174
20
1.81094
11
0.831416
21
1.81357
0
LINE
8
BLACK
6
CONTINUOUS
10
0.831416
20
1.81357
11
0.819582
21
1.81621
0
LINE
8
BLACK
6
CONTINUOUS
10
0.819582
20
1.81621
11
0.819505
21
1.81623
0
LINE
8
BLACK
6
CONTINUOUS
10
0.819505
20
1.81623
11
0.795705
21
1.82
0
LINE
8
BLACK
6
CONTINUOUS
10
0.795705
20
1.82
11
0.795705
21
1.82
0
LINE
8
BLACK
6
CONTINUOUS
10
0.795705
20
1.82
11
0.795628
21
1.82001
0
LINE
8
BLACK
6
CONTINUOUS
10
0.795628
20
1.82001
11
0.795551
21
1.82002
0
LINE
8
BLACK
6
CONTINUOUS
10
0.795551
20
1.82002
11
0.795551
21
1.82002
0
LINE
8
BLACK
6
CONTINUOUS
10
0.795551
20
1.82002
11
0.771561
21
1.82228
0
LINE
8
BLACK
6
CONTINUOUS
10
0.771561
20
1.82228
11
0.77156
21
1.82228
0
LINE
8
BLACK
6
CONTINUOUS
10
0.77156
20
1.82228
11
0.771484
21
1.82229
0
LINE
8
BLACK
6
CONTINUOUS
10
0.771484
20
1.82229
11
0.771407
21
1.82229
0
LINE
8
BLACK
6
CONTINUOUS
10
0.771407
20
1.82229
11
0.771407
21
1.82229
0
LINE
8
BLACK
6
CONTINUOUS
10
0.771407
20
1.82229
11
0.760724
21
1.82263
0
LINE
8
BLACK
6
CONTINUOUS
10
0.760724
20
1.82263
11
0.753556
21
1.82285
0
LINE
8
BLACK
6
CONTINUOUS
10
0.753556
20
1.82285
11
0.740933
21
1.82285
0
LINE
8
BLACK
6
CONTINUOUS
10
0.740933
20
1.82285
11
0.733764
21
1.82263
0
LINE
8
BLACK
6
CONTINUOUS
10
0.733764
20
1.82263
11
0.723081
21
1.82229
0
LINE
8
BLACK
6
CONTINUOUS
10
0.723081
20
1.82229
11
0.723081
21
1.82229
0
LINE
8
BLACK
6
CONTINUOUS
10
0.723081
20
1.82229
11
0.723004
21
1.82229
0
LINE
8
BLACK
6
CONTINUOUS
10
0.723004
20
1.82229
11
0.722928
21
1.82228
0
LINE
8
BLACK
6
CONTINUOUS
10
0.722928
20
1.82228
11
0.722927
21
1.82228
0
LINE
8
BLACK
6
CONTINUOUS
10
0.722927
20
1.82228
11
0.698938
21
1.82002
0
LINE
8
BLACK
6
CONTINUOUS
10
0.698938
20
1.82002
11
0.698937
21
1.82002
0
LINE
8
BLACK
6
CONTINUOUS
10
0.698937
20
1.82002
11
0.69886
21
1.82001
0
LINE
8
BLACK
6
CONTINUOUS
10
0.69886
20
1.82001
11
0.698783
21
1.82
0
LINE
8
BLACK
6
CONTINUOUS
10
0.698783
20
1.82
11
0.698783
21
1.82
0
LINE
8
BLACK
6
CONTINUOUS
10
0.698783
20
1.82
11
0.674984
21
1.81623
0
LINE
8
BLACK
6
CONTINUOUS
10
0.674984
20
1.81623
11
0.674906
21
1.81621
0
LINE
8
BLACK
6
CONTINUOUS
10
0.674906
20
1.81621
11
0.663073
21
1.81357
0
LINE
8
BLACK
6
CONTINUOUS
10
0.663073
20
1.81357
11
0.651315
21
1.81094
0
LINE
8
BLACK
6
CONTINUOUS
10
0.651315
20
1.81094
11
0.651314
21
1.81094
0
LINE
8
BLACK
6
CONTINUOUS
10
0.651314
20
1.81094
11
0.651239
21
1.81092
0
LINE
8
BLACK
6
CONTINUOUS
10
0.651239
20
1.81092
11
0.651164
21
1.8109
0
LINE
8
BLACK
6
CONTINUOUS
10
0.651164
20
1.8109
11
0.651164
21
1.8109
0
LINE
8
BLACK
6
CONTINUOUS
10
0.651164
20
1.8109
11
0.628024
21
1.80418
0
LINE
8
BLACK
6
CONTINUOUS
10
0.628024
20
1.80418
11
0.628024
21
1.80418
0
LINE
8
BLACK
6
CONTINUOUS
10
0.628024
20
1.80418
11
0.62795
21
1.80416
0
LINE
8
BLACK
6
CONTINUOUS
10
0.62795
20
1.80416
11
0.627877
21
1.80413
0
LINE
8
BLACK
6
CONTINUOUS
10
0.627877
20
1.80413
11
0.627877
21
1.80413
0
LINE
8
BLACK
6
CONTINUOUS
10
0.627877
20
1.80413
11
0.605205
21
1.79597
0
LINE
8
BLACK
6
CONTINUOUS
10
0.605205
20
1.79597
11
0.605132
21
1.79594
0
LINE
8
BLACK
6
CONTINUOUS
10
0.605132
20
1.79594
11
0.60506
21
1.79591
0
LINE
8
BLACK
6
CONTINUOUS
10
0.60506
20
1.79591
11
0.60506
21
1.79591
0
LINE
8
BLACK
6
CONTINUOUS
10
0.60506
20
1.79591
11
0.582945
21
1.78634
0
LINE
8
BLACK
6
CONTINUOUS
10
0.582945
20
1.78634
11
0.582874
21
1.78631
0
LINE
8
BLACK
6
CONTINUOUS
10
0.582874
20
1.78631
11
0.575684
21
1.78265
0
LINE
8
BLACK
6
CONTINUOUS
10
0.575684
20
1.78265
11
0.561335
21
1.77534
0
LINE
8
BLACK
6
CONTINUOUS
10
0.561335
20
1.77534
11
0.561334
21
1.77534
0
LINE
8
BLACK
6
CONTINUOUS
10
0.561334
20
1.77534
11
0.561266
21
1.7753
0
LINE
8
BLACK
6
CONTINUOUS
10
0.561266
20
1.7753
11
0.540391
21
1.76296
0
LINE
8
BLACK
6
CONTINUOUS
10
0.540391
20
1.76296
11
0.520333
21
1.74932
0
LINE
8
BLACK
6
CONTINUOUS
10
0.520333
20
1.74932
11
0.50117
21
1.73446
0
LINE
8
BLACK
6
CONTINUOUS
10
0.50117
20
1.73446
11
0.482978
21
1.71842
0
LINE
8
BLACK
6
CONTINUOUS
10
0.482978
20
1.71842
11
0.46583
21
1.70127
0
LINE
8
BLACK
6
CONTINUOUS
10
0.46583
20
1.70127
11
0.449791
21
1.68308
0
LINE
8
BLACK
6
CONTINUOUS
10
0.449791
20
1.68308
11
0.434927
21
1.66392
0
LINE
8
BLACK
6
CONTINUOUS
10
0.434927
20
1.66392
11
0.421296
21
1.64386
0
LINE
8
BLACK
6
CONTINUOUS
10
0.421296
20
1.64386
11
0.40895
21
1.62299
0
LINE
8
BLACK
6
CONTINUOUS
10
0.40895
20
1.62299
11
0.408915
21
1.62292
0
LINE
8
BLACK
6
CONTINUOUS
10
0.408915
20
1.62292
11
0.408915
21
1.62292
0
LINE
8
BLACK
6
CONTINUOUS
10
0.408915
20
1.62292
11
0.403445
21
1.61218
0
LINE
8
BLACK
6
CONTINUOUS
10
0.403445
20
1.61218
11
0.39794
21
1.60138
0
LINE
8
BLACK
6
CONTINUOUS
10
0.39794
20
1.60138
11
0.388309
21
1.57912
0
LINE
8
BLACK
6
CONTINUOUS
10
0.388309
20
1.57912
11
0.388282
21
1.57905
0
LINE
8
BLACK
6
CONTINUOUS
10
0.388282
20
1.57905
11
0.388282
21
1.57905
0
LINE
8
BLACK
6
CONTINUOUS
10
0.388282
20
1.57905
11
0.38012
21
1.55638
0
LINE
8
BLACK
6
CONTINUOUS
10
0.38012
20
1.55638
11
0.38012
21
1.55637
0
LINE
8
BLACK
6
CONTINUOUS
10
0.38012
20
1.55637
11
0.380094
21
1.5563
0
LINE
8
BLACK
6
CONTINUOUS
10
0.380094
20
1.5563
11
0.373328
21
1.53301
0
LINE
8
BLACK
6
CONTINUOUS
10
0.373328
20
1.53301
11
0.368037
21
1.50935
0
LINE
8
BLACK
6
CONTINUOUS
10
0.368037
20
1.50935
11
0.364243
21
1.48539
0
LINE
8
BLACK
6
CONTINUOUS
10
0.364243
20
1.48539
11
0.361961
21
1.46125
0
LINE
8
BLACK
6
CONTINUOUS
10
0.361961
20
1.46125
11
0.361199
21
1.43701
0
LINE
8
BLACK
6
CONTINUOUS
10
0.361199
20
1.43701
11
0.361961
21
1.41277
0
LINE
8
BLACK
6
CONTINUOUS
10
0.361961
20
1.41277
11
0.364243
21
1.38862
0
CIRCLE
8
BLACK
10
2.19
20
0.07
40
0.00984252
0
CIRCLE
8
BLACK
10
0.26
20
0.07
40
0.00984252
0
CIRCLE
8
BLACK
10
2.34
20
0.07
40
0.00984252
0
CIRCLE
8
BLACK
10
0.11
20
0.07
40
0.00984252
0
CIRCLE
8
BLACK
10
0.41
20
0.07
40
0.00984252
0
CIRCLE
8
BLACK
10
1.99
20
0.07
40
0.00984252
0
CIRCLE
8
BLACK
10
2.24
20
0.07
40
0.00984252
0
CIRCLE
8
BLACK
10
0.31
20
0.07
40
0.00984252
0
CIRCLE
8
BLACK
10
0.36
20
0.07
40
0.00984252
0
CIRCLE
8
BLACK
10
2.14
20
0.07
40
0.00984252
0
CIRCLE
8
BLACK
10
0.16
20
0.07
40
0.00984252
0
CIRCLE
8
BLACK
10
2.29
20
0.07
40
0.00984252
0
CIRCLE
8
BLACK
10
0.21
20
0.07
40
0.00984252
0
CIRCLE
8
BLACK
10
0.06
20
0.07
40
0.00984252
0
CIRCLE
8
BLACK
10
2.09
20
0.07
40
0.00984252
0
CIRCLE
8
BLACK
10
2.04
20
0.07
40
0.00984252
  0
ENDSEC
  0
EOF
