  0
SECTION
  2
HEADER
  9
$ANGBASE
  50
0.0
  9
$ANGDIR
  70
1
  9
$MEASUREMENT
  70
0
  0
ENDSEC
  0
SECTION
  2
TABLES
  0
TABLE
  2
LTYPE
  70
4
  0
LTYPE
  5
40F
  2
CONTINUOUS
  70
0
  3
Solid line
  72
65
  73
0
  40
0.0
  0
LTYPE
  5
410
  2
DASHDOT
 70
0
  3
Dash Dot ____ _ ____ _
 72
65
 73
4
 40
2.0
 49
1.25
 49
-0.25
 49
0.25
 49
-0.25
  0
LTYPE
  5
411
  2
DASHED
 70
0
  3
Dashed __ __ __ __ __
 72
65
 73
2
 40
0.75
 49
0.5
 49
-0.25
  0
LTYPE
  5
43B
  2
DOTTED
 70
0
  3
Dotted .  .  .  .
 72
65
 73
2
 40
0.2
 49
0.0
 49
-0.2
  0
ENDTAB
  0
TABLE
  2
STYLE
  70
4
  0
STYLE
  2
KICAD
  70
0
  40
0
  41
1
  42
1
  50
0
  71
0
  3
isocp.shx
  0
STYLE
  2
KICADB
  70
0
  40
0
  41
1
  42
1
  50
0
  71
0
  3
isocp.shx
  0
STYLE
  2
KICADI
  70
0
  40
0
  41
1
  42
1
  50
15
  71
0
  3
isocp.shx
  0
STYLE
  2
KICADBI
  70
0
  40
0
  41
1
  42
1
  50
15
  71
0
  3
isocp.shx
  0
ENDTAB
  0
TABLE
  2
LAYER
  70
1
  0
LAYER
  2
BLACK
  70
0
  62
7
  6
CONTINUOUS
  0
ENDTAB
  0
ENDSEC
  0
SECTION
  2
ENTITIES
0
LINE
8
BLACK
6
CONTINUOUS
10
0.0297441
20
1.57365
11
0.0298316
21
1.57421
0
LINE
8
BLACK
6
CONTINUOUS
10
0.0298316
20
1.57421
11
0.0298316
21
1.57421
0
LINE
8
BLACK
6
CONTINUOUS
10
0.0298316
20
1.57421
11
0.029886
21
1.57456
0
LINE
8
BLACK
6
CONTINUOUS
10
0.029886
20
1.57456
11
0.0298402
21
1.57491
0
LINE
8
BLACK
6
CONTINUOUS
10
0.0298402
20
1.57491
11
0.0297699
21
1.57545
0
LINE
8
BLACK
6
CONTINUOUS
10
0.0297699
20
1.57545
11
0.0297304
21
1.57625
0
LINE
8
BLACK
6
CONTINUOUS
10
0.0297304
20
1.57625
11
0.0304182
21
1.59813
0
LINE
8
BLACK
6
CONTINUOUS
10
0.0304182
20
1.59813
11
0.0304378
21
1.59844
0
LINE
8
BLACK
6
CONTINUOUS
10
0.0304378
20
1.59844
11
0.0326196
21
1.62152
0
LINE
8
BLACK
6
CONTINUOUS
10
0.0326196
20
1.62152
11
0.0326586
21
1.62183
0
LINE
8
BLACK
6
CONTINUOUS
10
0.0326586
20
1.62183
11
0.0361474
21
1.64386
0
LINE
8
BLACK
6
CONTINUOUS
10
0.0361474
20
1.64386
11
0.0362855
21
1.64473
0
LINE
8
BLACK
6
CONTINUOUS
10
0.0362855
20
1.64473
11
0.0363439
21
1.64504
0
LINE
8
BLACK
6
CONTINUOUS
10
0.0363439
20
1.64504
11
0.0414015
21
1.66767
0
LINE
8
BLACK
6
CONTINUOUS
10
0.0414015
20
1.66767
11
0.041479
21
1.66797
0
LINE
8
BLACK
6
CONTINUOUS
10
0.041479
20
1.66797
11
0.0479472
21
1.69023
0
LINE
8
BLACK
6
CONTINUOUS
10
0.0479472
20
1.69023
11
0.0480435
21
1.69053
0
LINE
8
BLACK
6
CONTINUOUS
10
0.0480435
20
1.69053
11
0.0558971
21
1.71234
0
LINE
8
BLACK
6
CONTINUOUS
10
0.0558971
20
1.71234
11
0.0560114
21
1.71263
0
LINE
8
BLACK
6
CONTINUOUS
10
0.0560114
20
1.71263
11
0.0652195
21
1.73391
0
LINE
8
BLACK
6
CONTINUOUS
10
0.0652195
20
1.73391
11
0.0653517
21
1.73419
0
LINE
8
BLACK
6
CONTINUOUS
10
0.0653517
20
1.73419
11
0.0758775
21
1.75485
0
LINE
8
BLACK
6
CONTINUOUS
10
0.0758775
20
1.75485
11
0.0760276
21
1.75512
0
LINE
8
BLACK
6
CONTINUOUS
10
0.0760276
20
1.75512
11
0.0878295
21
1.77508
0
LINE
8
BLACK
6
CONTINUOUS
10
0.0878295
20
1.77508
11
0.0879965
21
1.77534
0
LINE
8
BLACK
6
CONTINUOUS
10
0.0879965
20
1.77534
11
0.101028
21
1.79452
0
LINE
8
BLACK
6
CONTINUOUS
10
0.101028
20
1.79452
11
0.101211
21
1.79477
0
LINE
8
BLACK
6
CONTINUOUS
10
0.101211
20
1.79477
11
0.102099
21
1.79591
0
LINE
8
BLACK
6
CONTINUOUS
10
0.102099
20
1.79591
11
0.115421
21
1.81309
0
LINE
8
BLACK
6
CONTINUOUS
10
0.115421
20
1.81309
11
0.11562
21
1.81333
0
LINE
8
BLACK
6
CONTINUOUS
10
0.11562
20
1.81333
11
0.130952
21
1.83072
0
LINE
8
BLACK
6
CONTINUOUS
10
0.130952
20
1.83072
11
0.131165
21
1.83095
0
LINE
8
BLACK
6
CONTINUOUS
10
0.131165
20
1.83095
11
0.147559
21
1.84734
0
LINE
8
BLACK
6
CONTINUOUS
10
0.147559
20
1.84734
11
0.147786
21
1.84755
0
LINE
8
BLACK
6
CONTINUOUS
10
0.147786
20
1.84755
11
0.165177
21
1.86288
0
LINE
8
BLACK
6
CONTINUOUS
10
0.165177
20
1.86288
11
0.165418
21
1.86308
0
LINE
8
BLACK
6
CONTINUOUS
10
0.165418
20
1.86308
11
0.183736
21
1.87729
0
LINE
8
BLACK
6
CONTINUOUS
10
0.183736
20
1.87729
11
0.183988
21
1.87748
0
LINE
8
BLACK
6
CONTINUOUS
10
0.183988
20
1.87748
11
0.203164
21
1.89051
0
LINE
8
BLACK
6
CONTINUOUS
10
0.203164
20
1.89051
11
0.203427
21
1.89067
0
LINE
8
BLACK
6
CONTINUOUS
10
0.203427
20
1.89067
11
0.223383
21
1.90248
0
LINE
8
BLACK
6
CONTINUOUS
10
0.223383
20
1.90248
11
0.223656
21
1.90263
0
LINE
8
BLACK
6
CONTINUOUS
10
0.223656
20
1.90263
11
0.226953
21
1.90431
0
LINE
8
BLACK
6
CONTINUOUS
10
0.226953
20
1.90431
11
0.244314
21
1.91315
0
LINE
8
BLACK
6
CONTINUOUS
10
0.244314
20
1.91315
11
0.244595
21
1.91328
0
LINE
8
BLACK
6
CONTINUOUS
10
0.244595
20
1.91328
11
0.265874
21
1.92249
0
LINE
8
BLACK
6
CONTINUOUS
10
0.265874
20
1.92249
11
0.266162
21
1.92261
0
LINE
8
BLACK
6
CONTINUOUS
10
0.266162
20
1.92261
11
0.287977
21
1.93046
0
LINE
8
BLACK
6
CONTINUOUS
10
0.287977
20
1.93046
11
0.288273
21
1.93056
0
LINE
8
BLACK
6
CONTINUOUS
10
0.288273
20
1.93056
11
0.299872
21
1.93393
0
LINE
8
BLACK
6
CONTINUOUS
10
0.299872
20
1.93393
11
0.310537
21
1.93702
0
LINE
8
BLACK
6
CONTINUOUS
10
0.310537
20
1.93702
11
0.310839
21
1.9371
0
LINE
8
BLACK
6
CONTINUOUS
10
0.310839
20
1.9371
11
0.333465
21
1.94216
0
LINE
8
BLACK
6
CONTINUOUS
10
0.333465
20
1.94216
11
0.333771
21
1.94222
0
LINE
8
BLACK
6
CONTINUOUS
10
0.333771
20
1.94222
11
0.356671
21
1.94585
0
LINE
8
BLACK
6
CONTINUOUS
10
0.356671
20
1.94585
11
0.356979
21
1.94588
0
LINE
8
BLACK
6
CONTINUOUS
10
0.356979
20
1.94588
11
0.363499
21
1.9465
0
LINE
8
BLACK
6
CONTINUOUS
10
0.363499
20
1.9465
11
0.380061
21
1.94807
0
LINE
8
BLACK
6
CONTINUOUS
10
0.380061
20
1.94807
11
0.380372
21
1.94809
0
LINE
8
BLACK
6
CONTINUOUS
10
0.380372
20
1.94809
11
0.401963
21
1.94876
0
LINE
8
BLACK
6
CONTINUOUS
10
0.401963
20
1.94876
11
0.402881
21
1.94871
0
LINE
8
BLACK
6
CONTINUOUS
10
0.402881
20
1.94871
11
0.403458
21
1.94862
0
LINE
8
BLACK
6
CONTINUOUS
10
0.403458
20
1.94862
11
0.403808
21
1.94866
0
LINE
8
BLACK
6
CONTINUOUS
10
0.403808
20
1.94866
11
0.403808
21
1.94866
0
LINE
8
BLACK
6
CONTINUOUS
10
0.403808
20
1.94866
11
0.404674
21
1.94878
0
LINE
8
BLACK
6
CONTINUOUS
10
0.404674
20
1.94878
11
0.405317
21
1.94882
0
LINE
8
BLACK
6
CONTINUOUS
10
0.405317
20
1.94882
11
1.99438
21
1.94882
0
LINE
8
BLACK
6
CONTINUOUS
10
1.99438
20
1.94882
11
1.99514
21
1.94876
0
LINE
8
BLACK
6
CONTINUOUS
10
1.99514
20
1.94876
11
1.99571
21
1.94867
0
LINE
8
BLACK
6
CONTINUOUS
10
1.99571
20
1.94867
11
1.99571
21
1.94867
0
LINE
8
BLACK
6
CONTINUOUS
10
1.99571
20
1.94867
11
1.99606
21
1.94862
0
LINE
8
BLACK
6
CONTINUOUS
10
1.99606
20
1.94862
11
1.99641
21
1.94866
0
LINE
8
BLACK
6
CONTINUOUS
10
1.99641
20
1.94866
11
1.99641
21
1.94866
0
LINE
8
BLACK
6
CONTINUOUS
10
1.99641
20
1.94866
11
1.99694
21
1.94873
0
LINE
8
BLACK
6
CONTINUOUS
10
1.99694
20
1.94873
11
1.99774
21
1.94877
0
LINE
8
BLACK
6
CONTINUOUS
10
1.99774
20
1.94877
11
2.00511
21
1.94854
0
LINE
8
BLACK
6
CONTINUOUS
10
2.00511
20
1.94854
11
2.01963
21
1.94809
0
LINE
8
BLACK
6
CONTINUOUS
10
2.01963
20
1.94809
11
2.01994
21
1.94807
0
LINE
8
BLACK
6
CONTINUOUS
10
2.01994
20
1.94807
11
2.0365
21
1.9465
0
LINE
8
BLACK
6
CONTINUOUS
10
2.0365
20
1.9465
11
2.04302
21
1.94588
0
LINE
8
BLACK
6
CONTINUOUS
10
2.04302
20
1.94588
11
2.04333
21
1.94585
0
LINE
8
BLACK
6
CONTINUOUS
10
2.04333
20
1.94585
11
2.06623
21
1.94222
0
LINE
8
BLACK
6
CONTINUOUS
10
2.06623
20
1.94222
11
2.06653
21
1.94216
0
LINE
8
BLACK
6
CONTINUOUS
10
2.06653
20
1.94216
11
2.08916
21
1.9371
0
LINE
8
BLACK
6
CONTINUOUS
10
2.08916
20
1.9371
11
2.08946
21
1.93702
0
LINE
8
BLACK
6
CONTINUOUS
10
2.08946
20
1.93702
11
2.10013
21
1.93393
0
LINE
8
BLACK
6
CONTINUOUS
10
2.10013
20
1.93393
11
2.11173
21
1.93056
0
LINE
8
BLACK
6
CONTINUOUS
10
2.11173
20
1.93056
11
2.11202
21
1.93046
0
LINE
8
BLACK
6
CONTINUOUS
10
2.11202
20
1.93046
11
2.13384
21
1.92261
0
LINE
8
BLACK
6
CONTINUOUS
10
2.13384
20
1.92261
11
2.13413
21
1.92249
0
LINE
8
BLACK
6
CONTINUOUS
10
2.13413
20
1.92249
11
2.1554
21
1.91328
0
LINE
8
BLACK
6
CONTINUOUS
10
2.1554
20
1.91328
11
2.15569
21
1.91315
0
LINE
8
BLACK
6
CONTINUOUS
10
2.15569
20
1.91315
11
2.17305
21
1.90431
0
LINE
8
BLACK
6
CONTINUOUS
10
2.17305
20
1.90431
11
2.17634
21
1.90263
0
LINE
8
BLACK
6
CONTINUOUS
10
2.17634
20
1.90263
11
2.17662
21
1.90248
0
LINE
8
BLACK
6
CONTINUOUS
10
2.17662
20
1.90248
11
2.19657
21
1.89067
0
LINE
8
BLACK
6
CONTINUOUS
10
2.19657
20
1.89067
11
2.19684
21
1.89051
0
LINE
8
BLACK
6
CONTINUOUS
10
2.19684
20
1.89051
11
2.21601
21
1.87748
0
LINE
8
BLACK
6
CONTINUOUS
10
2.21601
20
1.87748
11
2.21626
21
1.87729
0
LINE
8
BLACK
6
CONTINUOUS
10
2.21626
20
1.87729
11
2.23458
21
1.86308
0
LINE
8
BLACK
6
CONTINUOUS
10
2.23458
20
1.86308
11
2.23482
21
1.86288
0
LINE
8
BLACK
6
CONTINUOUS
10
2.23482
20
1.86288
11
2.25221
21
1.84755
0
LINE
8
BLACK
6
CONTINUOUS
10
2.25221
20
1.84755
11
2.25244
21
1.84734
0
LINE
8
BLACK
6
CONTINUOUS
10
2.25244
20
1.84734
11
2.26883
21
1.83095
0
LINE
8
BLACK
6
CONTINUOUS
10
2.26883
20
1.83095
11
2.26905
21
1.83072
0
LINE
8
BLACK
6
CONTINUOUS
10
2.26905
20
1.83072
11
2.28438
21
1.81333
0
LINE
8
BLACK
6
CONTINUOUS
10
2.28438
20
1.81333
11
2.28458
21
1.81309
0
LINE
8
BLACK
6
CONTINUOUS
10
2.28458
20
1.81309
11
2.2979
21
1.79591
0
LINE
8
BLACK
6
CONTINUOUS
10
2.2979
20
1.79591
11
2.29879
21
1.79477
0
LINE
8
BLACK
6
CONTINUOUS
10
2.29879
20
1.79477
11
2.29897
21
1.79452
0
LINE
8
BLACK
6
CONTINUOUS
10
2.29897
20
1.79452
11
2.312
21
1.77534
0
LINE
8
BLACK
6
CONTINUOUS
10
2.312
20
1.77534
11
2.31217
21
1.77508
0
LINE
8
BLACK
6
CONTINUOUS
10
2.31217
20
1.77508
11
2.32397
21
1.75512
0
LINE
8
BLACK
6
CONTINUOUS
10
2.32397
20
1.75512
11
2.32412
21
1.75485
0
LINE
8
BLACK
6
CONTINUOUS
10
2.32412
20
1.75485
11
2.33465
21
1.73419
0
LINE
8
BLACK
6
CONTINUOUS
10
2.33465
20
1.73419
11
2.33478
21
1.73391
0
LINE
8
BLACK
6
CONTINUOUS
10
2.33478
20
1.73391
11
2.34399
21
1.71263
0
LINE
8
BLACK
6
CONTINUOUS
10
2.34399
20
1.71263
11
2.3441
21
1.71234
0
LINE
8
BLACK
6
CONTINUOUS
10
2.3441
20
1.71234
11
2.35196
21
1.69053
0
LINE
8
BLACK
6
CONTINUOUS
10
2.35196
20
1.69053
11
2.35205
21
1.69023
0
LINE
8
BLACK
6
CONTINUOUS
10
2.35205
20
1.69023
11
2.35852
21
1.66797
0
LINE
8
BLACK
6
CONTINUOUS
10
2.35852
20
1.66797
11
2.3586
21
1.66767
0
LINE
8
BLACK
6
CONTINUOUS
10
2.3586
20
1.66767
11
2.36366
21
1.64504
0
LINE
8
BLACK
6
CONTINUOUS
10
2.36366
20
1.64504
11
2.36371
21
1.64473
0
LINE
8
BLACK
6
CONTINUOUS
10
2.36371
20
1.64473
11
2.36385
21
1.64386
0
LINE
8
BLACK
6
CONTINUOUS
10
2.36385
20
1.64386
11
2.36734
21
1.62183
0
LINE
8
BLACK
6
CONTINUOUS
10
2.36734
20
1.62183
11
2.36738
21
1.62152
0
LINE
8
BLACK
6
CONTINUOUS
10
2.36738
20
1.62152
11
2.36956
21
1.59844
0
LINE
8
BLACK
6
CONTINUOUS
10
2.36956
20
1.59844
11
2.36958
21
1.59813
0
LINE
8
BLACK
6
CONTINUOUS
10
2.36958
20
1.59813
11
2.37026
21
1.57654
0
LINE
8
BLACK
6
CONTINUOUS
10
2.37026
20
1.57654
11
2.3702
21
1.57562
0
LINE
8
BLACK
6
CONTINUOUS
10
2.3702
20
1.57562
11
2.37011
21
1.57505
0
LINE
8
BLACK
6
CONTINUOUS
10
2.37011
20
1.57505
11
2.37016
21
1.5747
0
LINE
8
BLACK
6
CONTINUOUS
10
2.37016
20
1.5747
11
2.37016
21
1.5747
0
LINE
8
BLACK
6
CONTINUOUS
10
2.37016
20
1.5747
11
2.37027
21
1.57383
0
LINE
8
BLACK
6
CONTINUOUS
10
2.37027
20
1.57383
11
2.37031
21
1.57319
0
LINE
8
BLACK
6
CONTINUOUS
10
2.37031
20
1.57319
11
2.37031
21
0.0346457
0
LINE
8
BLACK
6
CONTINUOUS
10
2.37031
20
0.0346457
11
2.36953
21
0.0319637
0
LINE
8
BLACK
6
CONTINUOUS
10
2.36953
20
0.0319637
11
2.36742
21
0.0301333
0
LINE
8
BLACK
6
CONTINUOUS
10
2.36742
20
0.0301333
11
2.36535
21
0.029685
0
LINE
8
BLACK
6
CONTINUOUS
10
2.36535
20
0.029685
11
0.0346457
21
0.029685
0
LINE
8
BLACK
6
CONTINUOUS
10
0.0346457
20
0.029685
11
0.0319637
21
0.0304725
0
LINE
8
BLACK
6
CONTINUOUS
10
0.0319637
20
0.0304725
11
0.0301333
21
0.032585
0
LINE
8
BLACK
6
CONTINUOUS
10
0.0301333
20
0.032585
11
0.029685
21
0.0346457
0
LINE
8
BLACK
6
CONTINUOUS
10
0.029685
20
0.0346457
11
0.029685
21
1.57289
0
LINE
8
BLACK
6
CONTINUOUS
10
0.029685
20
1.57289
11
0.0297441
21
1.57365
0
LINE
8
BLACK
6
CONTINUOUS
10
1.26976
20
0.483112
11
1.27355
21
0.459158
0
LINE
8
BLACK
6
CONTINUOUS
10
1.27355
20
0.459158
11
1.27884
21
0.435491
0
LINE
8
BLACK
6
CONTINUOUS
10
1.27884
20
0.435491
11
1.28561
21
0.412202
0
LINE
8
BLACK
6
CONTINUOUS
10
1.28561
20
0.412202
11
1.28563
21
0.412129
0
LINE
8
BLACK
6
CONTINUOUS
10
1.28563
20
0.412129
11
1.28563
21
0.412129
0
LINE
8
BLACK
6
CONTINUOUS
10
1.28563
20
0.412129
11
1.29379
21
0.389457
0
LINE
8
BLACK
6
CONTINUOUS
10
1.29379
20
0.389457
11
1.29382
21
0.389384
0
LINE
8
BLACK
6
CONTINUOUS
10
1.29382
20
0.389384
11
1.30345
21
0.367126
0
LINE
8
BLACK
6
CONTINUOUS
10
1.30345
20
0.367126
11
1.31446
21
0.345518
0
LINE
8
BLACK
6
CONTINUOUS
10
1.31446
20
0.345518
11
1.32681
21
0.324643
0
LINE
8
BLACK
6
CONTINUOUS
10
1.32681
20
0.324643
11
1.34044
21
0.304585
0
LINE
8
BLACK
6
CONTINUOUS
10
1.34044
20
0.304585
11
1.3553
21
0.285422
0
LINE
8
BLACK
6
CONTINUOUS
10
1.3553
20
0.285422
11
1.37134
21
0.26723
0
LINE
8
BLACK
6
CONTINUOUS
10
1.37134
20
0.26723
11
1.38849
21
0.250081
0
LINE
8
BLACK
6
CONTINUOUS
10
1.38849
20
0.250081
11
1.40668
21
0.234043
0
LINE
8
BLACK
6
CONTINUOUS
10
1.40668
20
0.234043
11
1.42584
21
0.219179
0
LINE
8
BLACK
6
CONTINUOUS
10
1.42584
20
0.219179
11
1.4459
21
0.205548
0
LINE
8
BLACK
6
CONTINUOUS
10
1.4459
20
0.205548
11
1.46678
21
0.193202
0
LINE
8
BLACK
6
CONTINUOUS
10
1.46678
20
0.193202
11
1.46685
21
0.193167
0
LINE
8
BLACK
6
CONTINUOUS
10
1.46685
20
0.193167
11
1.46685
21
0.193167
0
LINE
8
BLACK
6
CONTINUOUS
10
1.46685
20
0.193167
11
1.47758
21
0.187697
0
LINE
8
BLACK
6
CONTINUOUS
10
1.47758
20
0.187697
11
1.48839
21
0.182192
0
LINE
8
BLACK
6
CONTINUOUS
10
1.48839
20
0.182192
11
1.51064
21
0.172561
0
LINE
8
BLACK
6
CONTINUOUS
10
1.51064
20
0.172561
11
1.51072
21
0.172534
0
LINE
8
BLACK
6
CONTINUOUS
10
1.51072
20
0.172534
11
1.51072
21
0.172534
0
LINE
8
BLACK
6
CONTINUOUS
10
1.51072
20
0.172534
11
1.53339
21
0.164372
0
LINE
8
BLACK
6
CONTINUOUS
10
1.53339
20
0.164372
11
1.53339
21
0.164372
0
LINE
8
BLACK
6
CONTINUOUS
10
1.53339
20
0.164372
11
1.53346
21
0.164346
0
LINE
8
BLACK
6
CONTINUOUS
10
1.53346
20
0.164346
11
1.53354
21
0.164324
0
LINE
8
BLACK
6
CONTINUOUS
10
1.53354
20
0.164324
11
1.53354
21
0.164324
0
LINE
8
BLACK
6
CONTINUOUS
10
1.53354
20
0.164324
11
1.55668
21
0.157601
0
LINE
8
BLACK
6
CONTINUOUS
10
1.55668
20
0.157601
11
1.55675
21
0.15758
0
LINE
8
BLACK
6
CONTINUOUS
10
1.55675
20
0.15758
11
1.55683
21
0.157563
0
LINE
8
BLACK
6
CONTINUOUS
10
1.55683
20
0.157563
11
1.55683
21
0.157563
0
LINE
8
BLACK
6
CONTINUOUS
10
1.55683
20
0.157563
11
1.56858
21
0.154934
0
LINE
8
BLACK
6
CONTINUOUS
10
1.56858
20
0.154934
11
1.58042
21
0.152289
0
LINE
8
BLACK
6
CONTINUOUS
10
1.58042
20
0.152289
11
1.5805
21
0.152277
0
LINE
8
BLACK
6
CONTINUOUS
10
1.5805
20
0.152277
11
1.5805
21
0.152277
0
LINE
8
BLACK
6
CONTINUOUS
10
1.5805
20
0.152277
11
1.60429
21
0.148508
0
LINE
8
BLACK
6
CONTINUOUS
10
1.60429
20
0.148508
11
1.60429
21
0.148508
0
LINE
8
BLACK
6
CONTINUOUS
10
1.60429
20
0.148508
11
1.60437
21
0.148495
0
LINE
8
BLACK
6
CONTINUOUS
10
1.60437
20
0.148495
11
1.60445
21
0.148488
0
LINE
8
BLACK
6
CONTINUOUS
10
1.60445
20
0.148488
11
1.60445
21
0.148488
0
LINE
8
BLACK
6
CONTINUOUS
10
1.60445
20
0.148488
11
1.62844
21
0.14622
0
LINE
8
BLACK
6
CONTINUOUS
10
1.62844
20
0.14622
11
1.62844
21
0.14622
0
LINE
8
BLACK
6
CONTINUOUS
10
1.62844
20
0.14622
11
1.62852
21
0.146213
0
LINE
8
BLACK
6
CONTINUOUS
10
1.62852
20
0.146213
11
1.62859
21
0.146211
0
LINE
8
BLACK
6
CONTINUOUS
10
1.62859
20
0.146211
11
1.62859
21
0.146211
0
LINE
8
BLACK
6
CONTINUOUS
10
1.62859
20
0.146211
11
1.63928
21
0.145875
0
LINE
8
BLACK
6
CONTINUOUS
10
1.63928
20
0.145875
11
1.64644
21
0.14565
0
LINE
8
BLACK
6
CONTINUOUS
10
1.64644
20
0.14565
11
1.65907
21
0.14565
0
LINE
8
BLACK
6
CONTINUOUS
10
1.65907
20
0.14565
11
1.66624
21
0.145875
0
LINE
8
BLACK
6
CONTINUOUS
10
1.66624
20
0.145875
11
1.67692
21
0.146211
0
LINE
8
BLACK
6
CONTINUOUS
10
1.67692
20
0.146211
11
1.67692
21
0.146211
0
LINE
8
BLACK
6
CONTINUOUS
10
1.67692
20
0.146211
11
1.677
21
0.146213
0
LINE
8
BLACK
6
CONTINUOUS
10
1.677
20
0.146213
11
1.67707
21
0.14622
0
LINE
8
BLACK
6
CONTINUOUS
10
1.67707
20
0.14622
11
1.67707
21
0.14622
0
LINE
8
BLACK
6
CONTINUOUS
10
1.67707
20
0.14622
11
1.70106
21
0.148488
0
LINE
8
BLACK
6
CONTINUOUS
10
1.70106
20
0.148488
11
1.70106
21
0.148488
0
LINE
8
BLACK
6
CONTINUOUS
10
1.70106
20
0.148488
11
1.70114
21
0.148495
0
LINE
8
BLACK
6
CONTINUOUS
10
1.70114
20
0.148495
11
1.70122
21
0.148508
0
LINE
8
BLACK
6
CONTINUOUS
10
1.70122
20
0.148508
11
1.70122
21
0.148508
0
LINE
8
BLACK
6
CONTINUOUS
10
1.70122
20
0.148508
11
1.72502
21
0.152277
0
LINE
8
BLACK
6
CONTINUOUS
10
1.72502
20
0.152277
11
1.72502
21
0.152277
0
LINE
8
BLACK
6
CONTINUOUS
10
1.72502
20
0.152277
11
1.72509
21
0.152289
0
LINE
8
BLACK
6
CONTINUOUS
10
1.72509
20
0.152289
11
1.73693
21
0.154934
0
LINE
8
BLACK
6
CONTINUOUS
10
1.73693
20
0.154934
11
1.74869
21
0.157563
0
LINE
8
BLACK
6
CONTINUOUS
10
1.74869
20
0.157563
11
1.74869
21
0.157563
0
LINE
8
BLACK
6
CONTINUOUS
10
1.74869
20
0.157563
11
1.74876
21
0.15758
0
LINE
8
BLACK
6
CONTINUOUS
10
1.74876
20
0.15758
11
1.74884
21
0.157601
0
LINE
8
BLACK
6
CONTINUOUS
10
1.74884
20
0.157601
11
1.77198
21
0.164324
0
LINE
8
BLACK
6
CONTINUOUS
10
1.77198
20
0.164324
11
1.77198
21
0.164324
0
LINE
8
BLACK
6
CONTINUOUS
10
1.77198
20
0.164324
11
1.77205
21
0.164346
0
LINE
8
BLACK
6
CONTINUOUS
10
1.77205
20
0.164346
11
1.77212
21
0.164372
0
LINE
8
BLACK
6
CONTINUOUS
10
1.77212
20
0.164372
11
1.77212
21
0.164372
0
LINE
8
BLACK
6
CONTINUOUS
10
1.77212
20
0.164372
11
1.7948
21
0.172534
0
LINE
8
BLACK
6
CONTINUOUS
10
1.7948
20
0.172534
11
1.7948
21
0.172534
0
LINE
8
BLACK
6
CONTINUOUS
10
1.7948
20
0.172534
11
1.79487
21
0.172561
0
LINE
8
BLACK
6
CONTINUOUS
10
1.79487
20
0.172561
11
1.81713
21
0.182192
0
LINE
8
BLACK
6
CONTINUOUS
10
1.81713
20
0.182192
11
1.82793
21
0.187697
0
LINE
8
BLACK
6
CONTINUOUS
10
1.82793
20
0.187697
11
1.83867
21
0.193167
0
LINE
8
BLACK
6
CONTINUOUS
10
1.83867
20
0.193167
11
1.83867
21
0.193167
0
LINE
8
BLACK
6
CONTINUOUS
10
1.83867
20
0.193167
11
1.83873
21
0.193202
0
LINE
8
BLACK
6
CONTINUOUS
10
1.83873
20
0.193202
11
1.85961
21
0.205548
0
LINE
8
BLACK
6
CONTINUOUS
10
1.85961
20
0.205548
11
1.87967
21
0.219179
0
LINE
8
BLACK
6
CONTINUOUS
10
1.87967
20
0.219179
11
1.89883
21
0.234043
0
LINE
8
BLACK
6
CONTINUOUS
10
1.89883
20
0.234043
11
1.91702
21
0.250081
0
LINE
8
BLACK
6
CONTINUOUS
10
1.91702
20
0.250081
11
1.93417
21
0.26723
0
LINE
8
BLACK
6
CONTINUOUS
10
1.93417
20
0.26723
11
1.95021
21
0.285422
0
LINE
8
BLACK
6
CONTINUOUS
10
1.95021
20
0.285422
11
1.96507
21
0.304585
0
LINE
8
BLACK
6
CONTINUOUS
10
1.96507
20
0.304585
11
1.9787
21
0.324643
0
LINE
8
BLACK
6
CONTINUOUS
10
1.9787
20
0.324643
11
1.99105
21
0.345518
0
LINE
8
BLACK
6
CONTINUOUS
10
1.99105
20
0.345518
11
2.00206
21
0.367126
0
LINE
8
BLACK
6
CONTINUOUS
10
2.00206
20
0.367126
11
2.01169
21
0.389384
0
LINE
8
BLACK
6
CONTINUOUS
10
2.01169
20
0.389384
11
2.01172
21
0.389457
0
LINE
8
BLACK
6
CONTINUOUS
10
2.01172
20
0.389457
11
2.01988
21
0.412129
0
LINE
8
BLACK
6
CONTINUOUS
10
2.01988
20
0.412129
11
2.01988
21
0.412129
0
LINE
8
BLACK
6
CONTINUOUS
10
2.01988
20
0.412129
11
2.01991
21
0.412202
0
LINE
8
BLACK
6
CONTINUOUS
10
2.01991
20
0.412202
11
2.02667
21
0.435491
0
LINE
8
BLACK
6
CONTINUOUS
10
2.02667
20
0.435491
11
2.03196
21
0.459158
0
LINE
8
BLACK
6
CONTINUOUS
10
2.03196
20
0.459158
11
2.03576
21
0.483112
0
LINE
8
BLACK
6
CONTINUOUS
10
2.03576
20
0.483112
11
2.03804
21
0.507256
0
LINE
8
BLACK
6
CONTINUOUS
10
2.03804
20
0.507256
11
2.0388
21
0.531496
0
LINE
8
BLACK
6
CONTINUOUS
10
2.0388
20
0.531496
11
2.03804
21
0.555736
0
LINE
8
BLACK
6
CONTINUOUS
10
2.03804
20
0.555736
11
2.03576
21
0.57988
0
LINE
8
BLACK
6
CONTINUOUS
10
2.03576
20
0.57988
11
2.03196
21
0.603834
0
LINE
8
BLACK
6
CONTINUOUS
10
2.03196
20
0.603834
11
2.02667
21
0.627501
0
LINE
8
BLACK
6
CONTINUOUS
10
2.02667
20
0.627501
11
2.01991
21
0.65079
0
LINE
8
BLACK
6
CONTINUOUS
10
2.01991
20
0.65079
11
2.01988
21
0.650863
0
LINE
8
BLACK
6
CONTINUOUS
10
2.01988
20
0.650863
11
2.01988
21
0.650864
0
LINE
8
BLACK
6
CONTINUOUS
10
2.01988
20
0.650864
11
2.01172
21
0.673535
0
LINE
8
BLACK
6
CONTINUOUS
10
2.01172
20
0.673535
11
2.01172
21
0.673536
0
LINE
8
BLACK
6
CONTINUOUS
10
2.01172
20
0.673536
11
2.01169
21
0.673609
0
LINE
8
BLACK
6
CONTINUOUS
10
2.01169
20
0.673609
11
2.00206
21
0.695866
0
LINE
8
BLACK
6
CONTINUOUS
10
2.00206
20
0.695866
11
1.99105
21
0.717475
0
LINE
8
BLACK
6
CONTINUOUS
10
1.99105
20
0.717475
11
1.9787
21
0.738349
0
LINE
8
BLACK
6
CONTINUOUS
10
1.9787
20
0.738349
11
1.96507
21
0.758408
0
LINE
8
BLACK
6
CONTINUOUS
10
1.96507
20
0.758408
11
1.95021
21
0.77757
0
LINE
8
BLACK
6
CONTINUOUS
10
1.95021
20
0.77757
11
1.93417
21
0.795762
0
LINE
8
BLACK
6
CONTINUOUS
10
1.93417
20
0.795762
11
1.91702
21
0.812911
0
LINE
8
BLACK
6
CONTINUOUS
10
1.91702
20
0.812911
11
1.89883
21
0.828949
0
LINE
8
BLACK
6
CONTINUOUS
10
1.89883
20
0.828949
11
1.87967
21
0.843813
0
LINE
8
BLACK
6
CONTINUOUS
10
1.87967
20
0.843813
11
1.85961
21
0.857444
0
LINE
8
BLACK
6
CONTINUOUS
10
1.85961
20
0.857444
11
1.83873
21
0.86979
0
LINE
8
BLACK
6
CONTINUOUS
10
1.83873
20
0.86979
11
1.83867
21
0.869825
0
LINE
8
BLACK
6
CONTINUOUS
10
1.83867
20
0.869825
11
1.83867
21
0.869825
0
LINE
8
BLACK
6
CONTINUOUS
10
1.83867
20
0.869825
11
1.82793
21
0.875295
0
LINE
8
BLACK
6
CONTINUOUS
10
1.82793
20
0.875295
11
1.81713
21
0.8808
0
LINE
8
BLACK
6
CONTINUOUS
10
1.81713
20
0.8808
11
1.79487
21
0.890431
0
LINE
8
BLACK
6
CONTINUOUS
10
1.79487
20
0.890431
11
1.7948
21
0.890458
0
LINE
8
BLACK
6
CONTINUOUS
10
1.7948
20
0.890458
11
1.77212
21
0.89862
0
LINE
8
BLACK
6
CONTINUOUS
10
1.77212
20
0.89862
11
1.77212
21
0.89862
0
LINE
8
BLACK
6
CONTINUOUS
10
1.77212
20
0.89862
11
1.77205
21
0.898646
0
LINE
8
BLACK
6
CONTINUOUS
10
1.77205
20
0.898646
11
1.77198
21
0.898668
0
LINE
8
BLACK
6
CONTINUOUS
10
1.77198
20
0.898668
11
1.77198
21
0.898668
0
LINE
8
BLACK
6
CONTINUOUS
10
1.77198
20
0.898668
11
1.74884
21
0.905391
0
LINE
8
BLACK
6
CONTINUOUS
10
1.74884
20
0.905391
11
1.74884
21
0.905391
0
LINE
8
BLACK
6
CONTINUOUS
10
1.74884
20
0.905391
11
1.74876
21
0.905413
0
LINE
8
BLACK
6
CONTINUOUS
10
1.74876
20
0.905413
11
1.74869
21
0.905429
0
LINE
8
BLACK
6
CONTINUOUS
10
1.74869
20
0.905429
11
1.74869
21
0.90543
0
LINE
8
BLACK
6
CONTINUOUS
10
1.74869
20
0.90543
11
1.73693
21
0.908058
0
LINE
8
BLACK
6
CONTINUOUS
10
1.73693
20
0.908058
11
1.72509
21
0.910703
0
LINE
8
BLACK
6
CONTINUOUS
10
1.72509
20
0.910703
11
1.72502
21
0.910715
0
LINE
8
BLACK
6
CONTINUOUS
10
1.72502
20
0.910715
11
1.70122
21
0.914485
0
LINE
8
BLACK
6
CONTINUOUS
10
1.70122
20
0.914485
11
1.70122
21
0.914485
0
LINE
8
BLACK
6
CONTINUOUS
10
1.70122
20
0.914485
11
1.70114
21
0.914497
0
LINE
8
BLACK
6
CONTINUOUS
10
1.70114
20
0.914497
11
1.70106
21
0.914504
0
LINE
8
BLACK
6
CONTINUOUS
10
1.70106
20
0.914504
11
1.70106
21
0.914504
0
LINE
8
BLACK
6
CONTINUOUS
10
1.70106
20
0.914504
11
1.67707
21
0.916772
0
LINE
8
BLACK
6
CONTINUOUS
10
1.67707
20
0.916772
11
1.67707
21
0.916772
0
LINE
8
BLACK
6
CONTINUOUS
10
1.67707
20
0.916772
11
1.677
21
0.916779
0
LINE
8
BLACK
6
CONTINUOUS
10
1.677
20
0.916779
11
1.67692
21
0.916781
0
LINE
8
BLACK
6
CONTINUOUS
10
1.67692
20
0.916781
11
1.67692
21
0.916782
0
LINE
8
BLACK
6
CONTINUOUS
10
1.67692
20
0.916782
11
1.66624
21
0.917117
0
LINE
8
BLACK
6
CONTINUOUS
10
1.66624
20
0.917117
11
1.65907
21
0.917343
0
LINE
8
BLACK
6
CONTINUOUS
10
1.65907
20
0.917343
11
1.64644
21
0.917343
0
LINE
8
BLACK
6
CONTINUOUS
10
1.64644
20
0.917343
11
1.63928
21
0.917117
0
LINE
8
BLACK
6
CONTINUOUS
10
1.63928
20
0.917117
11
1.62859
21
0.916782
0
LINE
8
BLACK
6
CONTINUOUS
10
1.62859
20
0.916782
11
1.62859
21
0.916781
0
LINE
8
BLACK
6
CONTINUOUS
10
1.62859
20
0.916781
11
1.62852
21
0.916779
0
LINE
8
BLACK
6
CONTINUOUS
10
1.62852
20
0.916779
11
1.62844
21
0.916772
0
LINE
8
BLACK
6
CONTINUOUS
10
1.62844
20
0.916772
11
1.62844
21
0.916772
0
LINE
8
BLACK
6
CONTINUOUS
10
1.62844
20
0.916772
11
1.60445
21
0.914504
0
LINE
8
BLACK
6
CONTINUOUS
10
1.60445
20
0.914504
11
1.60445
21
0.914504
0
LINE
8
BLACK
6
CONTINUOUS
10
1.60445
20
0.914504
11
1.60437
21
0.914497
0
LINE
8
BLACK
6
CONTINUOUS
10
1.60437
20
0.914497
11
1.60429
21
0.914485
0
LINE
8
BLACK
6
CONTINUOUS
10
1.60429
20
0.914485
11
1.60429
21
0.914485
0
LINE
8
BLACK
6
CONTINUOUS
10
1.60429
20
0.914485
11
1.5805
21
0.910715
0
LINE
8
BLACK
6
CONTINUOUS
10
1.5805
20
0.910715
11
1.58042
21
0.910703
0
LINE
8
BLACK
6
CONTINUOUS
10
1.58042
20
0.910703
11
1.56858
21
0.908058
0
LINE
8
BLACK
6
CONTINUOUS
10
1.56858
20
0.908058
11
1.55683
21
0.90543
0
LINE
8
BLACK
6
CONTINUOUS
10
1.55683
20
0.90543
11
1.55683
21
0.905429
0
LINE
8
BLACK
6
CONTINUOUS
10
1.55683
20
0.905429
11
1.55675
21
0.905413
0
LINE
8
BLACK
6
CONTINUOUS
10
1.55675
20
0.905413
11
1.55668
21
0.905391
0
LINE
8
BLACK
6
CONTINUOUS
10
1.55668
20
0.905391
11
1.55668
21
0.905391
0
LINE
8
BLACK
6
CONTINUOUS
10
1.55668
20
0.905391
11
1.53354
21
0.898668
0
LINE
8
BLACK
6
CONTINUOUS
10
1.53354
20
0.898668
11
1.53354
21
0.898668
0
LINE
8
BLACK
6
CONTINUOUS
10
1.53354
20
0.898668
11
1.53346
21
0.898646
0
LINE
8
BLACK
6
CONTINUOUS
10
1.53346
20
0.898646
11
1.53339
21
0.89862
0
LINE
8
BLACK
6
CONTINUOUS
10
1.53339
20
0.89862
11
1.53339
21
0.89862
0
LINE
8
BLACK
6
CONTINUOUS
10
1.53339
20
0.89862
11
1.51072
21
0.890458
0
LINE
8
BLACK
6
CONTINUOUS
10
1.51072
20
0.890458
11
1.51064
21
0.890431
0
LINE
8
BLACK
6
CONTINUOUS
10
1.51064
20
0.890431
11
1.48839
21
0.8808
0
LINE
8
BLACK
6
CONTINUOUS
10
1.48839
20
0.8808
11
1.47758
21
0.875295
0
LINE
8
BLACK
6
CONTINUOUS
10
1.47758
20
0.875295
11
1.46685
21
0.869825
0
LINE
8
BLACK
6
CONTINUOUS
10
1.46685
20
0.869825
11
1.46685
21
0.869825
0
LINE
8
BLACK
6
CONTINUOUS
10
1.46685
20
0.869825
11
1.46678
21
0.86979
0
LINE
8
BLACK
6
CONTINUOUS
10
1.46678
20
0.86979
11
1.4459
21
0.857444
0
LINE
8
BLACK
6
CONTINUOUS
10
1.4459
20
0.857444
11
1.42584
21
0.843813
0
LINE
8
BLACK
6
CONTINUOUS
10
1.42584
20
0.843813
11
1.40668
21
0.828949
0
LINE
8
BLACK
6
CONTINUOUS
10
1.40668
20
0.828949
11
1.38849
21
0.812911
0
LINE
8
BLACK
6
CONTINUOUS
10
1.38849
20
0.812911
11
1.37134
21
0.795762
0
LINE
8
BLACK
6
CONTINUOUS
10
1.37134
20
0.795762
11
1.3553
21
0.77757
0
LINE
8
BLACK
6
CONTINUOUS
10
1.3553
20
0.77757
11
1.34044
21
0.758408
0
LINE
8
BLACK
6
CONTINUOUS
10
1.34044
20
0.758408
11
1.32681
21
0.738349
0
LINE
8
BLACK
6
CONTINUOUS
10
1.32681
20
0.738349
11
1.31446
21
0.717475
0
LINE
8
BLACK
6
CONTINUOUS
10
1.31446
20
0.717475
11
1.30345
21
0.695866
0
LINE
8
BLACK
6
CONTINUOUS
10
1.30345
20
0.695866
11
1.29382
21
0.673609
0
LINE
8
BLACK
6
CONTINUOUS
10
1.29382
20
0.673609
11
1.29379
21
0.673536
0
LINE
8
BLACK
6
CONTINUOUS
10
1.29379
20
0.673536
11
1.29379
21
0.673535
0
LINE
8
BLACK
6
CONTINUOUS
10
1.29379
20
0.673535
11
1.28563
21
0.650864
0
LINE
8
BLACK
6
CONTINUOUS
10
1.28563
20
0.650864
11
1.28563
21
0.650863
0
LINE
8
BLACK
6
CONTINUOUS
10
1.28563
20
0.650863
11
1.28561
21
0.65079
0
LINE
8
BLACK
6
CONTINUOUS
10
1.28561
20
0.65079
11
1.27884
21
0.627501
0
LINE
8
BLACK
6
CONTINUOUS
10
1.27884
20
0.627501
11
1.27355
21
0.603834
0
LINE
8
BLACK
6
CONTINUOUS
10
1.27355
20
0.603834
11
1.26976
21
0.57988
0
LINE
8
BLACK
6
CONTINUOUS
10
1.26976
20
0.57988
11
1.26747
21
0.555736
0
LINE
8
BLACK
6
CONTINUOUS
10
1.26747
20
0.555736
11
1.26671
21
0.531496
0
LINE
8
BLACK
6
CONTINUOUS
10
1.26671
20
0.531496
11
1.26747
21
0.507256
0
LINE
8
BLACK
6
CONTINUOUS
10
1.26747
20
0.507256
11
1.26976
21
0.483112
0
LINE
8
BLACK
6
CONTINUOUS
10
1.13024
20
0.57988
11
1.12645
21
0.603834
0
LINE
8
BLACK
6
CONTINUOUS
10
1.12645
20
0.603834
11
1.12116
21
0.627501
0
LINE
8
BLACK
6
CONTINUOUS
10
1.12116
20
0.627501
11
1.11439
21
0.65079
0
LINE
8
BLACK
6
CONTINUOUS
10
1.11439
20
0.65079
11
1.11437
21
0.650863
0
LINE
8
BLACK
6
CONTINUOUS
10
1.11437
20
0.650863
11
1.11437
21
0.650864
0
LINE
8
BLACK
6
CONTINUOUS
10
1.11437
20
0.650864
11
1.10621
21
0.673535
0
LINE
8
BLACK
6
CONTINUOUS
10
1.10621
20
0.673535
11
1.10621
21
0.673536
0
LINE
8
BLACK
6
CONTINUOUS
10
1.10621
20
0.673536
11
1.10618
21
0.673609
0
LINE
8
BLACK
6
CONTINUOUS
10
1.10618
20
0.673609
11
1.09655
21
0.695866
0
LINE
8
BLACK
6
CONTINUOUS
10
1.09655
20
0.695866
11
1.08554
21
0.717475
0
LINE
8
BLACK
6
CONTINUOUS
10
1.08554
20
0.717475
11
1.07319
21
0.738349
0
LINE
8
BLACK
6
CONTINUOUS
10
1.07319
20
0.738349
11
1.05956
21
0.758408
0
LINE
8
BLACK
6
CONTINUOUS
10
1.05956
20
0.758408
11
1.0447
21
0.77757
0
LINE
8
BLACK
6
CONTINUOUS
10
1.0447
20
0.77757
11
1.02866
21
0.795762
0
LINE
8
BLACK
6
CONTINUOUS
10
1.02866
20
0.795762
11
1.01151
21
0.812911
0
LINE
8
BLACK
6
CONTINUOUS
10
1.01151
20
0.812911
11
0.993318
21
0.828949
0
LINE
8
BLACK
6
CONTINUOUS
10
0.993318
20
0.828949
11
0.974156
21
0.843813
0
LINE
8
BLACK
6
CONTINUOUS
10
0.974156
20
0.843813
11
0.954097
21
0.857444
0
LINE
8
BLACK
6
CONTINUOUS
10
0.954097
20
0.857444
11
0.933223
21
0.86979
0
LINE
8
BLACK
6
CONTINUOUS
10
0.933223
20
0.86979
11
0.933154
21
0.869825
0
LINE
8
BLACK
6
CONTINUOUS
10
0.933154
20
0.869825
11
0.933154
21
0.869825
0
LINE
8
BLACK
6
CONTINUOUS
10
0.933154
20
0.869825
11
0.922418
21
0.875295
0
LINE
8
BLACK
6
CONTINUOUS
10
0.922418
20
0.875295
11
0.911614
21
0.8808
0
LINE
8
BLACK
6
CONTINUOUS
10
0.911614
20
0.8808
11
0.889357
21
0.890431
0
LINE
8
BLACK
6
CONTINUOUS
10
0.889357
20
0.890431
11
0.889284
21
0.890458
0
LINE
8
BLACK
6
CONTINUOUS
10
0.889284
20
0.890458
11
0.866612
21
0.89862
0
LINE
8
BLACK
6
CONTINUOUS
10
0.866612
20
0.89862
11
0.866611
21
0.89862
0
LINE
8
BLACK
6
CONTINUOUS
10
0.866611
20
0.89862
11
0.866539
21
0.898646
0
LINE
8
BLACK
6
CONTINUOUS
10
0.866539
20
0.898646
11
0.866464
21
0.898668
0
LINE
8
BLACK
6
CONTINUOUS
10
0.866464
20
0.898668
11
0.866464
21
0.898668
0
LINE
8
BLACK
6
CONTINUOUS
10
0.866464
20
0.898668
11
0.843325
21
0.905391
0
LINE
8
BLACK
6
CONTINUOUS
10
0.843325
20
0.905391
11
0.843325
21
0.905391
0
LINE
8
BLACK
6
CONTINUOUS
10
0.843325
20
0.905391
11
0.84325
21
0.905413
0
LINE
8
BLACK
6
CONTINUOUS
10
0.84325
20
0.905413
11
0.843174
21
0.905429
0
LINE
8
BLACK
6
CONTINUOUS
10
0.843174
20
0.905429
11
0.843174
21
0.90543
0
LINE
8
BLACK
6
CONTINUOUS
10
0.843174
20
0.90543
11
0.831416
21
0.908058
0
LINE
8
BLACK
6
CONTINUOUS
10
0.831416
20
0.908058
11
0.819582
21
0.910703
0
LINE
8
BLACK
6
CONTINUOUS
10
0.819582
20
0.910703
11
0.819505
21
0.910715
0
LINE
8
BLACK
6
CONTINUOUS
10
0.819505
20
0.910715
11
0.795705
21
0.914485
0
LINE
8
BLACK
6
CONTINUOUS
10
0.795705
20
0.914485
11
0.795705
21
0.914485
0
LINE
8
BLACK
6
CONTINUOUS
10
0.795705
20
0.914485
11
0.795628
21
0.914497
0
LINE
8
BLACK
6
CONTINUOUS
10
0.795628
20
0.914497
11
0.795551
21
0.914504
0
LINE
8
BLACK
6
CONTINUOUS
10
0.795551
20
0.914504
11
0.795551
21
0.914504
0
LINE
8
BLACK
6
CONTINUOUS
10
0.795551
20
0.914504
11
0.771561
21
0.916772
0
LINE
8
BLACK
6
CONTINUOUS
10
0.771561
20
0.916772
11
0.77156
21
0.916772
0
LINE
8
BLACK
6
CONTINUOUS
10
0.77156
20
0.916772
11
0.771484
21
0.916779
0
LINE
8
BLACK
6
CONTINUOUS
10
0.771484
20
0.916779
11
0.771407
21
0.916781
0
LINE
8
BLACK
6
CONTINUOUS
10
0.771407
20
0.916781
11
0.771407
21
0.916782
0
LINE
8
BLACK
6
CONTINUOUS
10
0.771407
20
0.916782
11
0.760724
21
0.917117
0
LINE
8
BLACK
6
CONTINUOUS
10
0.760724
20
0.917117
11
0.753556
21
0.917343
0
LINE
8
BLACK
6
CONTINUOUS
10
0.753556
20
0.917343
11
0.740933
21
0.917343
0
LINE
8
BLACK
6
CONTINUOUS
10
0.740933
20
0.917343
11
0.733764
21
0.917117
0
LINE
8
BLACK
6
CONTINUOUS
10
0.733764
20
0.917117
11
0.723081
21
0.916782
0
LINE
8
BLACK
6
CONTINUOUS
10
0.723081
20
0.916782
11
0.723081
21
0.916781
0
LINE
8
BLACK
6
CONTINUOUS
10
0.723081
20
0.916781
11
0.723004
21
0.916779
0
LINE
8
BLACK
6
CONTINUOUS
10
0.723004
20
0.916779
11
0.722928
21
0.916772
0
LINE
8
BLACK
6
CONTINUOUS
10
0.722928
20
0.916772
11
0.722927
21
0.916772
0
LINE
8
BLACK
6
CONTINUOUS
10
0.722927
20
0.916772
11
0.698938
21
0.914504
0
LINE
8
BLACK
6
CONTINUOUS
10
0.698938
20
0.914504
11
0.698937
21
0.914504
0
LINE
8
BLACK
6
CONTINUOUS
10
0.698937
20
0.914504
11
0.69886
21
0.914497
0
LINE
8
BLACK
6
CONTINUOUS
10
0.69886
20
0.914497
11
0.698783
21
0.914485
0
LINE
8
BLACK
6
CONTINUOUS
10
0.698783
20
0.914485
11
0.698783
21
0.914485
0
LINE
8
BLACK
6
CONTINUOUS
10
0.698783
20
0.914485
11
0.674984
21
0.910715
0
LINE
8
BLACK
6
CONTINUOUS
10
0.674984
20
0.910715
11
0.674906
21
0.910703
0
LINE
8
BLACK
6
CONTINUOUS
10
0.674906
20
0.910703
11
0.663073
21
0.908058
0
LINE
8
BLACK
6
CONTINUOUS
10
0.663073
20
0.908058
11
0.651315
21
0.90543
0
LINE
8
BLACK
6
CONTINUOUS
10
0.651315
20
0.90543
11
0.651314
21
0.905429
0
LINE
8
BLACK
6
CONTINUOUS
10
0.651314
20
0.905429
11
0.651239
21
0.905413
0
LINE
8
BLACK
6
CONTINUOUS
10
0.651239
20
0.905413
11
0.651164
21
0.905391
0
LINE
8
BLACK
6
CONTINUOUS
10
0.651164
20
0.905391
11
0.651164
21
0.905391
0
LINE
8
BLACK
6
CONTINUOUS
10
0.651164
20
0.905391
11
0.628024
21
0.898668
0
LINE
8
BLACK
6
CONTINUOUS
10
0.628024
20
0.898668
11
0.628024
21
0.898668
0
LINE
8
BLACK
6
CONTINUOUS
10
0.628024
20
0.898668
11
0.62795
21
0.898646
0
LINE
8
BLACK
6
CONTINUOUS
10
0.62795
20
0.898646
11
0.627877
21
0.89862
0
LINE
8
BLACK
6
CONTINUOUS
10
0.627877
20
0.89862
11
0.627877
21
0.89862
0
LINE
8
BLACK
6
CONTINUOUS
10
0.627877
20
0.89862
11
0.605205
21
0.890458
0
LINE
8
BLACK
6
CONTINUOUS
10
0.605205
20
0.890458
11
0.605132
21
0.890431
0
LINE
8
BLACK
6
CONTINUOUS
10
0.605132
20
0.890431
11
0.582874
21
0.8808
0
LINE
8
BLACK
6
CONTINUOUS
10
0.582874
20
0.8808
11
0.57207
21
0.875295
0
LINE
8
BLACK
6
CONTINUOUS
10
0.57207
20
0.875295
11
0.561335
21
0.869825
0
LINE
8
BLACK
6
CONTINUOUS
10
0.561335
20
0.869825
11
0.561334
21
0.869825
0
LINE
8
BLACK
6
CONTINUOUS
10
0.561334
20
0.869825
11
0.561266
21
0.86979
0
LINE
8
BLACK
6
CONTINUOUS
10
0.561266
20
0.86979
11
0.540391
21
0.857444
0
LINE
8
BLACK
6
CONTINUOUS
10
0.540391
20
0.857444
11
0.520333
21
0.843813
0
LINE
8
BLACK
6
CONTINUOUS
10
0.520333
20
0.843813
11
0.50117
21
0.828949
0
LINE
8
BLACK
6
CONTINUOUS
10
0.50117
20
0.828949
11
0.482978
21
0.812911
0
LINE
8
BLACK
6
CONTINUOUS
10
0.482978
20
0.812911
11
0.46583
21
0.795762
0
LINE
8
BLACK
6
CONTINUOUS
10
0.46583
20
0.795762
11
0.449791
21
0.77757
0
LINE
8
BLACK
6
CONTINUOUS
10
0.449791
20
0.77757
11
0.434927
21
0.758408
0
LINE
8
BLACK
6
CONTINUOUS
10
0.434927
20
0.758408
11
0.421296
21
0.738349
0
LINE
8
BLACK
6
CONTINUOUS
10
0.421296
20
0.738349
11
0.40895
21
0.717475
0
LINE
8
BLACK
6
CONTINUOUS
10
0.40895
20
0.717475
11
0.39794
21
0.695866
0
LINE
8
BLACK
6
CONTINUOUS
10
0.39794
20
0.695866
11
0.388309
21
0.673609
0
LINE
8
BLACK
6
CONTINUOUS
10
0.388309
20
0.673609
11
0.388282
21
0.673536
0
LINE
8
BLACK
6
CONTINUOUS
10
0.388282
20
0.673536
11
0.388282
21
0.673535
0
LINE
8
BLACK
6
CONTINUOUS
10
0.388282
20
0.673535
11
0.38012
21
0.650864
0
LINE
8
BLACK
6
CONTINUOUS
10
0.38012
20
0.650864
11
0.38012
21
0.650863
0
LINE
8
BLACK
6
CONTINUOUS
10
0.38012
20
0.650863
11
0.380094
21
0.65079
0
LINE
8
BLACK
6
CONTINUOUS
10
0.380094
20
0.65079
11
0.373328
21
0.627501
0
LINE
8
BLACK
6
CONTINUOUS
10
0.373328
20
0.627501
11
0.368037
21
0.603834
0
LINE
8
BLACK
6
CONTINUOUS
10
0.368037
20
0.603834
11
0.364243
21
0.57988
0
LINE
8
BLACK
6
CONTINUOUS
10
0.364243
20
0.57988
11
0.361961
21
0.555736
0
LINE
8
BLACK
6
CONTINUOUS
10
0.361961
20
0.555736
11
0.361199
21
0.531496
0
LINE
8
BLACK
6
CONTINUOUS
10
0.361199
20
0.531496
11
0.361961
21
0.507256
0
LINE
8
BLACK
6
CONTINUOUS
10
0.361961
20
0.507256
11
0.364243
21
0.483112
0
LINE
8
BLACK
6
CONTINUOUS
10
0.364243
20
0.483112
11
0.368037
21
0.459158
0
LINE
8
BLACK
6
CONTINUOUS
10
0.368037
20
0.459158
11
0.373328
21
0.435491
0
LINE
8
BLACK
6
CONTINUOUS
10
0.373328
20
0.435491
11
0.380094
21
0.412202
0
LINE
8
BLACK
6
CONTINUOUS
10
0.380094
20
0.412202
11
0.38012
21
0.412129
0
LINE
8
BLACK
6
CONTINUOUS
10
0.38012
20
0.412129
11
0.38012
21
0.412129
0
LINE
8
BLACK
6
CONTINUOUS
10
0.38012
20
0.412129
11
0.388282
21
0.389457
0
LINE
8
BLACK
6
CONTINUOUS
10
0.388282
20
0.389457
11
0.388309
21
0.389384
0
LINE
8
BLACK
6
CONTINUOUS
10
0.388309
20
0.389384
11
0.39794
21
0.367126
0
LINE
8
BLACK
6
CONTINUOUS
10
0.39794
20
0.367126
11
0.40895
21
0.345518
0
LINE
8
BLACK
6
CONTINUOUS
10
0.40895
20
0.345518
11
0.421296
21
0.324643
0
LINE
8
BLACK
6
CONTINUOUS
10
0.421296
20
0.324643
11
0.434927
21
0.304585
0
LINE
8
BLACK
6
CONTINUOUS
10
0.434927
20
0.304585
11
0.449791
21
0.285422
0
LINE
8
BLACK
6
CONTINUOUS
10
0.449791
20
0.285422
11
0.46583
21
0.26723
0
LINE
8
BLACK
6
CONTINUOUS
10
0.46583
20
0.26723
11
0.482978
21
0.250081
0
LINE
8
BLACK
6
CONTINUOUS
10
0.482978
20
0.250081
11
0.50117
21
0.234043
0
LINE
8
BLACK
6
CONTINUOUS
10
0.50117
20
0.234043
11
0.520333
21
0.219179
0
LINE
8
BLACK
6
CONTINUOUS
10
0.520333
20
0.219179
11
0.540391
21
0.205548
0
LINE
8
BLACK
6
CONTINUOUS
10
0.540391
20
0.205548
11
0.561266
21
0.193202
0
LINE
8
BLACK
6
CONTINUOUS
10
0.561266
20
0.193202
11
0.561334
21
0.193167
0
LINE
8
BLACK
6
CONTINUOUS
10
0.561334
20
0.193167
11
0.561335
21
0.193167
0
LINE
8
BLACK
6
CONTINUOUS
10
0.561335
20
0.193167
11
0.57207
21
0.187697
0
LINE
8
BLACK
6
CONTINUOUS
10
0.57207
20
0.187697
11
0.582874
21
0.182192
0
LINE
8
BLACK
6
CONTINUOUS
10
0.582874
20
0.182192
11
0.605132
21
0.172561
0
LINE
8
BLACK
6
CONTINUOUS
10
0.605132
20
0.172561
11
0.605205
21
0.172534
0
LINE
8
BLACK
6
CONTINUOUS
10
0.605205
20
0.172534
11
0.605205
21
0.172534
0
LINE
8
BLACK
6
CONTINUOUS
10
0.605205
20
0.172534
11
0.627877
21
0.164372
0
LINE
8
BLACK
6
CONTINUOUS
10
0.627877
20
0.164372
11
0.627877
21
0.164372
0
LINE
8
BLACK
6
CONTINUOUS
10
0.627877
20
0.164372
11
0.62795
21
0.164346
0
LINE
8
BLACK
6
CONTINUOUS
10
0.62795
20
0.164346
11
0.628024
21
0.164324
0
LINE
8
BLACK
6
CONTINUOUS
10
0.628024
20
0.164324
11
0.628024
21
0.164324
0
LINE
8
BLACK
6
CONTINUOUS
10
0.628024
20
0.164324
11
0.651164
21
0.157601
0
LINE
8
BLACK
6
CONTINUOUS
10
0.651164
20
0.157601
11
0.651239
21
0.15758
0
LINE
8
BLACK
6
CONTINUOUS
10
0.651239
20
0.15758
11
0.651314
21
0.157563
0
LINE
8
BLACK
6
CONTINUOUS
10
0.651314
20
0.157563
11
0.651315
21
0.157563
0
LINE
8
BLACK
6
CONTINUOUS
10
0.651315
20
0.157563
11
0.663073
21
0.154934
0
LINE
8
BLACK
6
CONTINUOUS
10
0.663073
20
0.154934
11
0.674906
21
0.152289
0
LINE
8
BLACK
6
CONTINUOUS
10
0.674906
20
0.152289
11
0.674984
21
0.152277
0
LINE
8
BLACK
6
CONTINUOUS
10
0.674984
20
0.152277
11
0.674984
21
0.152277
0
LINE
8
BLACK
6
CONTINUOUS
10
0.674984
20
0.152277
11
0.698783
21
0.148508
0
LINE
8
BLACK
6
CONTINUOUS
10
0.698783
20
0.148508
11
0.698783
21
0.148508
0
LINE
8
BLACK
6
CONTINUOUS
10
0.698783
20
0.148508
11
0.69886
21
0.148495
0
LINE
8
BLACK
6
CONTINUOUS
10
0.69886
20
0.148495
11
0.698937
21
0.148488
0
LINE
8
BLACK
6
CONTINUOUS
10
0.698937
20
0.148488
11
0.698938
21
0.148488
0
LINE
8
BLACK
6
CONTINUOUS
10
0.698938
20
0.148488
11
0.722927
21
0.14622
0
LINE
8
BLACK
6
CONTINUOUS
10
0.722927
20
0.14622
11
0.722928
21
0.14622
0
LINE
8
BLACK
6
CONTINUOUS
10
0.722928
20
0.14622
11
0.723004
21
0.146213
0
LINE
8
BLACK
6
CONTINUOUS
10
0.723004
20
0.146213
11
0.723081
21
0.146211
0
LINE
8
BLACK
6
CONTINUOUS
10
0.723081
20
0.146211
11
0.723081
21
0.146211
0
LINE
8
BLACK
6
CONTINUOUS
10
0.723081
20
0.146211
11
0.733764
21
0.145875
0
LINE
8
BLACK
6
CONTINUOUS
10
0.733764
20
0.145875
11
0.740933
21
0.14565
0
LINE
8
BLACK
6
CONTINUOUS
10
0.740933
20
0.14565
11
0.753556
21
0.14565
0
LINE
8
BLACK
6
CONTINUOUS
10
0.753556
20
0.14565
11
0.760724
21
0.145875
0
LINE
8
BLACK
6
CONTINUOUS
10
0.760724
20
0.145875
11
0.771407
21
0.146211
0
LINE
8
BLACK
6
CONTINUOUS
10
0.771407
20
0.146211
11
0.771407
21
0.146211
0
LINE
8
BLACK
6
CONTINUOUS
10
0.771407
20
0.146211
11
0.771484
21
0.146213
0
LINE
8
BLACK
6
CONTINUOUS
10
0.771484
20
0.146213
11
0.77156
21
0.14622
0
LINE
8
BLACK
6
CONTINUOUS
10
0.77156
20
0.14622
11
0.771561
21
0.14622
0
LINE
8
BLACK
6
CONTINUOUS
10
0.771561
20
0.14622
11
0.795551
21
0.148488
0
LINE
8
BLACK
6
CONTINUOUS
10
0.795551
20
0.148488
11
0.795551
21
0.148488
0
LINE
8
BLACK
6
CONTINUOUS
10
0.795551
20
0.148488
11
0.795628
21
0.148495
0
LINE
8
BLACK
6
CONTINUOUS
10
0.795628
20
0.148495
11
0.795705
21
0.148508
0
LINE
8
BLACK
6
CONTINUOUS
10
0.795705
20
0.148508
11
0.795705
21
0.148508
0
LINE
8
BLACK
6
CONTINUOUS
10
0.795705
20
0.148508
11
0.819505
21
0.152277
0
LINE
8
BLACK
6
CONTINUOUS
10
0.819505
20
0.152277
11
0.819505
21
0.152277
0
LINE
8
BLACK
6
CONTINUOUS
10
0.819505
20
0.152277
11
0.819582
21
0.152289
0
LINE
8
BLACK
6
CONTINUOUS
10
0.819582
20
0.152289
11
0.831416
21
0.154934
0
LINE
8
BLACK
6
CONTINUOUS
10
0.831416
20
0.154934
11
0.843174
21
0.157563
0
LINE
8
BLACK
6
CONTINUOUS
10
0.843174
20
0.157563
11
0.843174
21
0.157563
0
LINE
8
BLACK
6
CONTINUOUS
10
0.843174
20
0.157563
11
0.84325
21
0.15758
0
LINE
8
BLACK
6
CONTINUOUS
10
0.84325
20
0.15758
11
0.843325
21
0.157601
0
LINE
8
BLACK
6
CONTINUOUS
10
0.843325
20
0.157601
11
0.866464
21
0.164324
0
LINE
8
BLACK
6
CONTINUOUS
10
0.866464
20
0.164324
11
0.866464
21
0.164324
0
LINE
8
BLACK
6
CONTINUOUS
10
0.866464
20
0.164324
11
0.866539
21
0.164346
0
LINE
8
BLACK
6
CONTINUOUS
10
0.866539
20
0.164346
11
0.866611
21
0.164372
0
LINE
8
BLACK
6
CONTINUOUS
10
0.866611
20
0.164372
11
0.866612
21
0.164372
0
LINE
8
BLACK
6
CONTINUOUS
10
0.866612
20
0.164372
11
0.889284
21
0.172534
0
LINE
8
BLACK
6
CONTINUOUS
10
0.889284
20
0.172534
11
0.889284
21
0.172534
0
LINE
8
BLACK
6
CONTINUOUS
10
0.889284
20
0.172534
11
0.889357
21
0.172561
0
LINE
8
BLACK
6
CONTINUOUS
10
0.889357
20
0.172561
11
0.911614
21
0.182192
0
LINE
8
BLACK
6
CONTINUOUS
10
0.911614
20
0.182192
11
0.922418
21
0.187697
0
LINE
8
BLACK
6
CONTINUOUS
10
0.922418
20
0.187697
11
0.933154
21
0.193167
0
LINE
8
BLACK
6
CONTINUOUS
10
0.933154
20
0.193167
11
0.933154
21
0.193167
0
LINE
8
BLACK
6
CONTINUOUS
10
0.933154
20
0.193167
11
0.933223
21
0.193202
0
LINE
8
BLACK
6
CONTINUOUS
10
0.933223
20
0.193202
11
0.954097
21
0.205548
0
LINE
8
BLACK
6
CONTINUOUS
10
0.954097
20
0.205548
11
0.974156
21
0.219179
0
LINE
8
BLACK
6
CONTINUOUS
10
0.974156
20
0.219179
11
0.993318
21
0.234043
0
LINE
8
BLACK
6
CONTINUOUS
10
0.993318
20
0.234043
11
1.01151
21
0.250081
0
LINE
8
BLACK
6
CONTINUOUS
10
1.01151
20
0.250081
11
1.02866
21
0.26723
0
LINE
8
BLACK
6
CONTINUOUS
10
1.02866
20
0.26723
11
1.0447
21
0.285422
0
LINE
8
BLACK
6
CONTINUOUS
10
1.0447
20
0.285422
11
1.05956
21
0.304585
0
LINE
8
BLACK
6
CONTINUOUS
10
1.05956
20
0.304585
11
1.07319
21
0.324643
0
LINE
8
BLACK
6
CONTINUOUS
10
1.07319
20
0.324643
11
1.08554
21
0.345518
0
LINE
8
BLACK
6
CONTINUOUS
10
1.08554
20
0.345518
11
1.09655
21
0.367126
0
LINE
8
BLACK
6
CONTINUOUS
10
1.09655
20
0.367126
11
1.10618
21
0.389384
0
LINE
8
BLACK
6
CONTINUOUS
10
1.10618
20
0.389384
11
1.10621
21
0.389457
0
LINE
8
BLACK
6
CONTINUOUS
10
1.10621
20
0.389457
11
1.11437
21
0.412129
0
LINE
8
BLACK
6
CONTINUOUS
10
1.11437
20
0.412129
11
1.11437
21
0.412129
0
LINE
8
BLACK
6
CONTINUOUS
10
1.11437
20
0.412129
11
1.11439
21
0.412202
0
LINE
8
BLACK
6
CONTINUOUS
10
1.11439
20
0.412202
11
1.12116
21
0.435491
0
LINE
8
BLACK
6
CONTINUOUS
10
1.12116
20
0.435491
11
1.12645
21
0.459158
0
LINE
8
BLACK
6
CONTINUOUS
10
1.12645
20
0.459158
11
1.13024
21
0.483112
0
LINE
8
BLACK
6
CONTINUOUS
10
1.13024
20
0.483112
11
1.13253
21
0.507256
0
LINE
8
BLACK
6
CONTINUOUS
10
1.13253
20
0.507256
11
1.13329
21
0.531496
0
LINE
8
BLACK
6
CONTINUOUS
10
1.13329
20
0.531496
11
1.13253
21
0.555736
0
LINE
8
BLACK
6
CONTINUOUS
10
1.13253
20
0.555736
11
1.13024
21
0.57988
0
LINE
8
BLACK
6
CONTINUOUS
10
1.26976
20
1.38862
11
1.27355
21
1.36467
0
LINE
8
BLACK
6
CONTINUOUS
10
1.27355
20
1.36467
11
1.27884
21
1.341
0
LINE
8
BLACK
6
CONTINUOUS
10
1.27884
20
1.341
11
1.28561
21
1.31771
0
LINE
8
BLACK
6
CONTINUOUS
10
1.28561
20
1.31771
11
1.28563
21
1.31764
0
LINE
8
BLACK
6
CONTINUOUS
10
1.28563
20
1.31764
11
1.28563
21
1.31764
0
LINE
8
BLACK
6
CONTINUOUS
10
1.28563
20
1.31764
11
1.29379
21
1.29497
0
LINE
8
BLACK
6
CONTINUOUS
10
1.29379
20
1.29497
11
1.29382
21
1.2949
0
LINE
8
BLACK
6
CONTINUOUS
10
1.29382
20
1.2949
11
1.30345
21
1.27264
0
LINE
8
BLACK
6
CONTINUOUS
10
1.30345
20
1.27264
11
1.31446
21
1.25103
0
LINE
8
BLACK
6
CONTINUOUS
10
1.31446
20
1.25103
11
1.32681
21
1.23015
0
LINE
8
BLACK
6
CONTINUOUS
10
1.32681
20
1.23015
11
1.34044
21
1.2101
0
LINE
8
BLACK
6
CONTINUOUS
10
1.34044
20
1.2101
11
1.3553
21
1.19093
0
LINE
8
BLACK
6
CONTINUOUS
10
1.3553
20
1.19093
11
1.37134
21
1.17274
0
LINE
8
BLACK
6
CONTINUOUS
10
1.37134
20
1.17274
11
1.38849
21
1.15559
0
LINE
8
BLACK
6
CONTINUOUS
10
1.38849
20
1.15559
11
1.40668
21
1.13956
0
LINE
8
BLACK
6
CONTINUOUS
10
1.40668
20
1.13956
11
1.42584
21
1.12469
0
LINE
8
BLACK
6
CONTINUOUS
10
1.42584
20
1.12469
11
1.4459
21
1.11106
0
LINE
8
BLACK
6
CONTINUOUS
10
1.4459
20
1.11106
11
1.46678
21
1.09871
0
LINE
8
BLACK
6
CONTINUOUS
10
1.46678
20
1.09871
11
1.46685
21
1.09868
0
LINE
8
BLACK
6
CONTINUOUS
10
1.46685
20
1.09868
11
1.46685
21
1.09868
0
LINE
8
BLACK
6
CONTINUOUS
10
1.46685
20
1.09868
11
1.47758
21
1.09321
0
LINE
8
BLACK
6
CONTINUOUS
10
1.47758
20
1.09321
11
1.48839
21
1.0877
0
LINE
8
BLACK
6
CONTINUOUS
10
1.48839
20
1.0877
11
1.51064
21
1.07807
0
LINE
8
BLACK
6
CONTINUOUS
10
1.51064
20
1.07807
11
1.51072
21
1.07805
0
LINE
8
BLACK
6
CONTINUOUS
10
1.51072
20
1.07805
11
1.51072
21
1.07805
0
LINE
8
BLACK
6
CONTINUOUS
10
1.51072
20
1.07805
11
1.53339
21
1.06988
0
LINE
8
BLACK
6
CONTINUOUS
10
1.53339
20
1.06988
11
1.53339
21
1.06988
0
LINE
8
BLACK
6
CONTINUOUS
10
1.53339
20
1.06988
11
1.53346
21
1.06986
0
LINE
8
BLACK
6
CONTINUOUS
10
1.53346
20
1.06986
11
1.53354
21
1.06984
0
LINE
8
BLACK
6
CONTINUOUS
10
1.53354
20
1.06984
11
1.53354
21
1.06984
0
LINE
8
BLACK
6
CONTINUOUS
10
1.53354
20
1.06984
11
1.55668
21
1.06311
0
LINE
8
BLACK
6
CONTINUOUS
10
1.55668
20
1.06311
11
1.55675
21
1.06309
0
LINE
8
BLACK
6
CONTINUOUS
10
1.55675
20
1.06309
11
1.55683
21
1.06307
0
LINE
8
BLACK
6
CONTINUOUS
10
1.55683
20
1.06307
11
1.55683
21
1.06307
0
LINE
8
BLACK
6
CONTINUOUS
10
1.55683
20
1.06307
11
1.56858
21
1.06045
0
LINE
8
BLACK
6
CONTINUOUS
10
1.56858
20
1.06045
11
1.58042
21
1.0578
0
LINE
8
BLACK
6
CONTINUOUS
10
1.58042
20
1.0578
11
1.5805
21
1.05779
0
LINE
8
BLACK
6
CONTINUOUS
10
1.5805
20
1.05779
11
1.5805
21
1.05779
0
LINE
8
BLACK
6
CONTINUOUS
10
1.5805
20
1.05779
11
1.60429
21
1.05402
0
LINE
8
BLACK
6
CONTINUOUS
10
1.60429
20
1.05402
11
1.60429
21
1.05402
0
LINE
8
BLACK
6
CONTINUOUS
10
1.60429
20
1.05402
11
1.60437
21
1.05401
0
LINE
8
BLACK
6
CONTINUOUS
10
1.60437
20
1.05401
11
1.60445
21
1.054
0
LINE
8
BLACK
6
CONTINUOUS
10
1.60445
20
1.054
11
1.60445
21
1.054
0
LINE
8
BLACK
6
CONTINUOUS
10
1.60445
20
1.054
11
1.62844
21
1.05173
0
LINE
8
BLACK
6
CONTINUOUS
10
1.62844
20
1.05173
11
1.62844
21
1.05173
0
LINE
8
BLACK
6
CONTINUOUS
10
1.62844
20
1.05173
11
1.62852
21
1.05172
0
LINE
8
BLACK
6
CONTINUOUS
10
1.62852
20
1.05172
11
1.62859
21
1.05172
0
LINE
8
BLACK
6
CONTINUOUS
10
1.62859
20
1.05172
11
1.62859
21
1.05172
0
LINE
8
BLACK
6
CONTINUOUS
10
1.62859
20
1.05172
11
1.63928
21
1.05139
0
LINE
8
BLACK
6
CONTINUOUS
10
1.63928
20
1.05139
11
1.64644
21
1.05116
0
LINE
8
BLACK
6
CONTINUOUS
10
1.64644
20
1.05116
11
1.65907
21
1.05116
0
LINE
8
BLACK
6
CONTINUOUS
10
1.65907
20
1.05116
11
1.66624
21
1.05139
0
LINE
8
BLACK
6
CONTINUOUS
10
1.66624
20
1.05139
11
1.67692
21
1.05172
0
LINE
8
BLACK
6
CONTINUOUS
10
1.67692
20
1.05172
11
1.67692
21
1.05172
0
LINE
8
BLACK
6
CONTINUOUS
10
1.67692
20
1.05172
11
1.677
21
1.05172
0
LINE
8
BLACK
6
CONTINUOUS
10
1.677
20
1.05172
11
1.67707
21
1.05173
0
LINE
8
BLACK
6
CONTINUOUS
10
1.67707
20
1.05173
11
1.67707
21
1.05173
0
LINE
8
BLACK
6
CONTINUOUS
10
1.67707
20
1.05173
11
1.70106
21
1.054
0
LINE
8
BLACK
6
CONTINUOUS
10
1.70106
20
1.054
11
1.70106
21
1.054
0
LINE
8
BLACK
6
CONTINUOUS
10
1.70106
20
1.054
11
1.70114
21
1.05401
0
LINE
8
BLACK
6
CONTINUOUS
10
1.70114
20
1.05401
11
1.70122
21
1.05402
0
LINE
8
BLACK
6
CONTINUOUS
10
1.70122
20
1.05402
11
1.70122
21
1.05402
0
LINE
8
BLACK
6
CONTINUOUS
10
1.70122
20
1.05402
11
1.72502
21
1.05779
0
LINE
8
BLACK
6
CONTINUOUS
10
1.72502
20
1.05779
11
1.72502
21
1.05779
0
LINE
8
BLACK
6
CONTINUOUS
10
1.72502
20
1.05779
11
1.72509
21
1.0578
0
LINE
8
BLACK
6
CONTINUOUS
10
1.72509
20
1.0578
11
1.73693
21
1.06045
0
LINE
8
BLACK
6
CONTINUOUS
10
1.73693
20
1.06045
11
1.74869
21
1.06307
0
LINE
8
BLACK
6
CONTINUOUS
10
1.74869
20
1.06307
11
1.74869
21
1.06307
0
LINE
8
BLACK
6
CONTINUOUS
10
1.74869
20
1.06307
11
1.74876
21
1.06309
0
LINE
8
BLACK
6
CONTINUOUS
10
1.74876
20
1.06309
11
1.74884
21
1.06311
0
LINE
8
BLACK
6
CONTINUOUS
10
1.74884
20
1.06311
11
1.77198
21
1.06984
0
LINE
8
BLACK
6
CONTINUOUS
10
1.77198
20
1.06984
11
1.77198
21
1.06984
0
LINE
8
BLACK
6
CONTINUOUS
10
1.77198
20
1.06984
11
1.77205
21
1.06986
0
LINE
8
BLACK
6
CONTINUOUS
10
1.77205
20
1.06986
11
1.77212
21
1.06988
0
LINE
8
BLACK
6
CONTINUOUS
10
1.77212
20
1.06988
11
1.77212
21
1.06988
0
LINE
8
BLACK
6
CONTINUOUS
10
1.77212
20
1.06988
11
1.7948
21
1.07805
0
LINE
8
BLACK
6
CONTINUOUS
10
1.7948
20
1.07805
11
1.7948
21
1.07805
0
LINE
8
BLACK
6
CONTINUOUS
10
1.7948
20
1.07805
11
1.79487
21
1.07807
0
LINE
8
BLACK
6
CONTINUOUS
10
1.79487
20
1.07807
11
1.81713
21
1.0877
0
LINE
8
BLACK
6
CONTINUOUS
10
1.81713
20
1.0877
11
1.82793
21
1.09321
0
LINE
8
BLACK
6
CONTINUOUS
10
1.82793
20
1.09321
11
1.83867
21
1.09868
0
LINE
8
BLACK
6
CONTINUOUS
10
1.83867
20
1.09868
11
1.83867
21
1.09868
0
LINE
8
BLACK
6
CONTINUOUS
10
1.83867
20
1.09868
11
1.83873
21
1.09871
0
LINE
8
BLACK
6
CONTINUOUS
10
1.83873
20
1.09871
11
1.85961
21
1.11106
0
LINE
8
BLACK
6
CONTINUOUS
10
1.85961
20
1.11106
11
1.87967
21
1.12469
0
LINE
8
BLACK
6
CONTINUOUS
10
1.87967
20
1.12469
11
1.89883
21
1.13956
0
LINE
8
BLACK
6
CONTINUOUS
10
1.89883
20
1.13956
11
1.91702
21
1.15559
0
LINE
8
BLACK
6
CONTINUOUS
10
1.91702
20
1.15559
11
1.93417
21
1.17274
0
LINE
8
BLACK
6
CONTINUOUS
10
1.93417
20
1.17274
11
1.95021
21
1.19093
0
LINE
8
BLACK
6
CONTINUOUS
10
1.95021
20
1.19093
11
1.96507
21
1.2101
0
LINE
8
BLACK
6
CONTINUOUS
10
1.96507
20
1.2101
11
1.9787
21
1.23015
0
LINE
8
BLACK
6
CONTINUOUS
10
1.9787
20
1.23015
11
1.99105
21
1.25103
0
LINE
8
BLACK
6
CONTINUOUS
10
1.99105
20
1.25103
11
2.00206
21
1.27264
0
LINE
8
BLACK
6
CONTINUOUS
10
2.00206
20
1.27264
11
2.01169
21
1.2949
0
LINE
8
BLACK
6
CONTINUOUS
10
2.01169
20
1.2949
11
2.01172
21
1.29497
0
LINE
8
BLACK
6
CONTINUOUS
10
2.01172
20
1.29497
11
2.01988
21
1.31764
0
LINE
8
BLACK
6
CONTINUOUS
10
2.01988
20
1.31764
11
2.01988
21
1.31764
0
LINE
8
BLACK
6
CONTINUOUS
10
2.01988
20
1.31764
11
2.01991
21
1.31771
0
LINE
8
BLACK
6
CONTINUOUS
10
2.01991
20
1.31771
11
2.02667
21
1.341
0
LINE
8
BLACK
6
CONTINUOUS
10
2.02667
20
1.341
11
2.03196
21
1.36467
0
LINE
8
BLACK
6
CONTINUOUS
10
2.03196
20
1.36467
11
2.03576
21
1.38862
0
LINE
8
BLACK
6
CONTINUOUS
10
2.03576
20
1.38862
11
2.03804
21
1.41277
0
LINE
8
BLACK
6
CONTINUOUS
10
2.03804
20
1.41277
11
2.0388
21
1.43701
0
LINE
8
BLACK
6
CONTINUOUS
10
2.0388
20
1.43701
11
2.03804
21
1.46125
0
LINE
8
BLACK
6
CONTINUOUS
10
2.03804
20
1.46125
11
2.03576
21
1.48539
0
LINE
8
BLACK
6
CONTINUOUS
10
2.03576
20
1.48539
11
2.03196
21
1.50935
0
LINE
8
BLACK
6
CONTINUOUS
10
2.03196
20
1.50935
11
2.02667
21
1.53301
0
LINE
8
BLACK
6
CONTINUOUS
10
2.02667
20
1.53301
11
2.01991
21
1.5563
0
LINE
8
BLACK
6
CONTINUOUS
10
2.01991
20
1.5563
11
2.01988
21
1.55637
0
LINE
8
BLACK
6
CONTINUOUS
10
2.01988
20
1.55637
11
2.01988
21
1.55638
0
LINE
8
BLACK
6
CONTINUOUS
10
2.01988
20
1.55638
11
2.01172
21
1.57905
0
LINE
8
BLACK
6
CONTINUOUS
10
2.01172
20
1.57905
11
2.01172
21
1.57905
0
LINE
8
BLACK
6
CONTINUOUS
10
2.01172
20
1.57905
11
2.01169
21
1.57912
0
LINE
8
BLACK
6
CONTINUOUS
10
2.01169
20
1.57912
11
2.00206
21
1.60138
0
LINE
8
BLACK
6
CONTINUOUS
10
2.00206
20
1.60138
11
1.99105
21
1.62299
0
LINE
8
BLACK
6
CONTINUOUS
10
1.99105
20
1.62299
11
1.9787
21
1.64386
0
LINE
8
BLACK
6
CONTINUOUS
10
1.9787
20
1.64386
11
1.96507
21
1.66392
0
LINE
8
BLACK
6
CONTINUOUS
10
1.96507
20
1.66392
11
1.95021
21
1.68308
0
LINE
8
BLACK
6
CONTINUOUS
10
1.95021
20
1.68308
11
1.93417
21
1.70127
0
LINE
8
BLACK
6
CONTINUOUS
10
1.93417
20
1.70127
11
1.91702
21
1.71842
0
LINE
8
BLACK
6
CONTINUOUS
10
1.91702
20
1.71842
11
1.89883
21
1.73446
0
LINE
8
BLACK
6
CONTINUOUS
10
1.89883
20
1.73446
11
1.87967
21
1.74932
0
LINE
8
BLACK
6
CONTINUOUS
10
1.87967
20
1.74932
11
1.85961
21
1.76296
0
LINE
8
BLACK
6
CONTINUOUS
10
1.85961
20
1.76296
11
1.83873
21
1.7753
0
LINE
8
BLACK
6
CONTINUOUS
10
1.83873
20
1.7753
11
1.83867
21
1.77534
0
LINE
8
BLACK
6
CONTINUOUS
10
1.83867
20
1.77534
11
1.83867
21
1.77534
0
LINE
8
BLACK
6
CONTINUOUS
10
1.83867
20
1.77534
11
1.82793
21
1.78081
0
LINE
8
BLACK
6
CONTINUOUS
10
1.82793
20
1.78081
11
1.81713
21
1.78631
0
LINE
8
BLACK
6
CONTINUOUS
10
1.81713
20
1.78631
11
1.79487
21
1.79594
0
LINE
8
BLACK
6
CONTINUOUS
10
1.79487
20
1.79594
11
1.7948
21
1.79597
0
LINE
8
BLACK
6
CONTINUOUS
10
1.7948
20
1.79597
11
1.77212
21
1.80413
0
LINE
8
BLACK
6
CONTINUOUS
10
1.77212
20
1.80413
11
1.77212
21
1.80413
0
LINE
8
BLACK
6
CONTINUOUS
10
1.77212
20
1.80413
11
1.77205
21
1.80416
0
LINE
8
BLACK
6
CONTINUOUS
10
1.77205
20
1.80416
11
1.77198
21
1.80418
0
LINE
8
BLACK
6
CONTINUOUS
10
1.77198
20
1.80418
11
1.77198
21
1.80418
0
LINE
8
BLACK
6
CONTINUOUS
10
1.77198
20
1.80418
11
1.74884
21
1.8109
0
LINE
8
BLACK
6
CONTINUOUS
10
1.74884
20
1.8109
11
1.74884
21
1.8109
0
LINE
8
BLACK
6
CONTINUOUS
10
1.74884
20
1.8109
11
1.74876
21
1.81092
0
LINE
8
BLACK
6
CONTINUOUS
10
1.74876
20
1.81092
11
1.74869
21
1.81094
0
LINE
8
BLACK
6
CONTINUOUS
10
1.74869
20
1.81094
11
1.74869
21
1.81094
0
LINE
8
BLACK
6
CONTINUOUS
10
1.74869
20
1.81094
11
1.73693
21
1.81357
0
LINE
8
BLACK
6
CONTINUOUS
10
1.73693
20
1.81357
11
1.72509
21
1.81621
0
LINE
8
BLACK
6
CONTINUOUS
10
1.72509
20
1.81621
11
1.72502
21
1.81623
0
LINE
8
BLACK
6
CONTINUOUS
10
1.72502
20
1.81623
11
1.70122
21
1.82
0
LINE
8
BLACK
6
CONTINUOUS
10
1.70122
20
1.82
11
1.70122
21
1.82
0
LINE
8
BLACK
6
CONTINUOUS
10
1.70122
20
1.82
11
1.70114
21
1.82001
0
LINE
8
BLACK
6
CONTINUOUS
10
1.70114
20
1.82001
11
1.70106
21
1.82002
0
LINE
8
BLACK
6
CONTINUOUS
10
1.70106
20
1.82002
11
1.70106
21
1.82002
0
LINE
8
BLACK
6
CONTINUOUS
10
1.70106
20
1.82002
11
1.67707
21
1.82228
0
LINE
8
BLACK
6
CONTINUOUS
10
1.67707
20
1.82228
11
1.67707
21
1.82228
0
LINE
8
BLACK
6
CONTINUOUS
10
1.67707
20
1.82228
11
1.677
21
1.82229
0
LINE
8
BLACK
6
CONTINUOUS
10
1.677
20
1.82229
11
1.67692
21
1.82229
0
LINE
8
BLACK
6
CONTINUOUS
10
1.67692
20
1.82229
11
1.67692
21
1.82229
0
LINE
8
BLACK
6
CONTINUOUS
10
1.67692
20
1.82229
11
1.66624
21
1.82263
0
LINE
8
BLACK
6
CONTINUOUS
10
1.66624
20
1.82263
11
1.65907
21
1.82285
0
LINE
8
BLACK
6
CONTINUOUS
10
1.65907
20
1.82285
11
1.64644
21
1.82285
0
LINE
8
BLACK
6
CONTINUOUS
10
1.64644
20
1.82285
11
1.63928
21
1.82263
0
LINE
8
BLACK
6
CONTINUOUS
10
1.63928
20
1.82263
11
1.62859
21
1.82229
0
LINE
8
BLACK
6
CONTINUOUS
10
1.62859
20
1.82229
11
1.62859
21
1.82229
0
LINE
8
BLACK
6
CONTINUOUS
10
1.62859
20
1.82229
11
1.62852
21
1.82229
0
LINE
8
BLACK
6
CONTINUOUS
10
1.62852
20
1.82229
11
1.62844
21
1.82228
0
LINE
8
BLACK
6
CONTINUOUS
10
1.62844
20
1.82228
11
1.62844
21
1.82228
0
LINE
8
BLACK
6
CONTINUOUS
10
1.62844
20
1.82228
11
1.60445
21
1.82002
0
LINE
8
BLACK
6
CONTINUOUS
10
1.60445
20
1.82002
11
1.60445
21
1.82002
0
LINE
8
BLACK
6
CONTINUOUS
10
1.60445
20
1.82002
11
1.60437
21
1.82001
0
LINE
8
BLACK
6
CONTINUOUS
10
1.60437
20
1.82001
11
1.60429
21
1.82
0
LINE
8
BLACK
6
CONTINUOUS
10
1.60429
20
1.82
11
1.60429
21
1.82
0
LINE
8
BLACK
6
CONTINUOUS
10
1.60429
20
1.82
11
1.5805
21
1.81623
0
LINE
8
BLACK
6
CONTINUOUS
10
1.5805
20
1.81623
11
1.58042
21
1.81621
0
LINE
8
BLACK
6
CONTINUOUS
10
1.58042
20
1.81621
11
1.56858
21
1.81357
0
LINE
8
BLACK
6
CONTINUOUS
10
1.56858
20
1.81357
11
1.55683
21
1.81094
0
LINE
8
BLACK
6
CONTINUOUS
10
1.55683
20
1.81094
11
1.55683
21
1.81094
0
LINE
8
BLACK
6
CONTINUOUS
10
1.55683
20
1.81094
11
1.55675
21
1.81092
0
LINE
8
BLACK
6
CONTINUOUS
10
1.55675
20
1.81092
11
1.55668
21
1.8109
0
LINE
8
BLACK
6
CONTINUOUS
10
1.55668
20
1.8109
11
1.55668
21
1.8109
0
LINE
8
BLACK
6
CONTINUOUS
10
1.55668
20
1.8109
11
1.53354
21
1.80418
0
LINE
8
BLACK
6
CONTINUOUS
10
1.53354
20
1.80418
11
1.53354
21
1.80418
0
LINE
8
BLACK
6
CONTINUOUS
10
1.53354
20
1.80418
11
1.53346
21
1.80416
0
LINE
8
BLACK
6
CONTINUOUS
10
1.53346
20
1.80416
11
1.53339
21
1.80413
0
LINE
8
BLACK
6
CONTINUOUS
10
1.53339
20
1.80413
11
1.53339
21
1.80413
0
LINE
8
BLACK
6
CONTINUOUS
10
1.53339
20
1.80413
11
1.51072
21
1.79597
0
LINE
8
BLACK
6
CONTINUOUS
10
1.51072
20
1.79597
11
1.51064
21
1.79594
0
LINE
8
BLACK
6
CONTINUOUS
10
1.51064
20
1.79594
11
1.48839
21
1.78631
0
LINE
8
BLACK
6
CONTINUOUS
10
1.48839
20
1.78631
11
1.47758
21
1.78081
0
LINE
8
BLACK
6
CONTINUOUS
10
1.47758
20
1.78081
11
1.46685
21
1.77534
0
LINE
8
BLACK
6
CONTINUOUS
10
1.46685
20
1.77534
11
1.46685
21
1.77534
0
LINE
8
BLACK
6
CONTINUOUS
10
1.46685
20
1.77534
11
1.46678
21
1.7753
0
LINE
8
BLACK
6
CONTINUOUS
10
1.46678
20
1.7753
11
1.4459
21
1.76296
0
LINE
8
BLACK
6
CONTINUOUS
10
1.4459
20
1.76296
11
1.42584
21
1.74932
0
LINE
8
BLACK
6
CONTINUOUS
10
1.42584
20
1.74932
11
1.40668
21
1.73446
0
LINE
8
BLACK
6
CONTINUOUS
10
1.40668
20
1.73446
11
1.38849
21
1.71842
0
LINE
8
BLACK
6
CONTINUOUS
10
1.38849
20
1.71842
11
1.37134
21
1.70127
0
LINE
8
BLACK
6
CONTINUOUS
10
1.37134
20
1.70127
11
1.3553
21
1.68308
0
LINE
8
BLACK
6
CONTINUOUS
10
1.3553
20
1.68308
11
1.34044
21
1.66392
0
LINE
8
BLACK
6
CONTINUOUS
10
1.34044
20
1.66392
11
1.32681
21
1.64386
0
LINE
8
BLACK
6
CONTINUOUS
10
1.32681
20
1.64386
11
1.31446
21
1.62299
0
LINE
8
BLACK
6
CONTINUOUS
10
1.31446
20
1.62299
11
1.30345
21
1.60138
0
LINE
8
BLACK
6
CONTINUOUS
10
1.30345
20
1.60138
11
1.29382
21
1.57912
0
LINE
8
BLACK
6
CONTINUOUS
10
1.29382
20
1.57912
11
1.29379
21
1.57905
0
LINE
8
BLACK
6
CONTINUOUS
10
1.29379
20
1.57905
11
1.29379
21
1.57905
0
LINE
8
BLACK
6
CONTINUOUS
10
1.29379
20
1.57905
11
1.28563
21
1.55638
0
LINE
8
BLACK
6
CONTINUOUS
10
1.28563
20
1.55638
11
1.28563
21
1.55637
0
LINE
8
BLACK
6
CONTINUOUS
10
1.28563
20
1.55637
11
1.28561
21
1.5563
0
LINE
8
BLACK
6
CONTINUOUS
10
1.28561
20
1.5563
11
1.27884
21
1.53301
0
LINE
8
BLACK
6
CONTINUOUS
10
1.27884
20
1.53301
11
1.27355
21
1.50935
0
LINE
8
BLACK
6
CONTINUOUS
10
1.27355
20
1.50935
11
1.26976
21
1.48539
0
LINE
8
BLACK
6
CONTINUOUS
10
1.26976
20
1.48539
11
1.26747
21
1.46125
0
LINE
8
BLACK
6
CONTINUOUS
10
1.26747
20
1.46125
11
1.26671
21
1.43701
0
LINE
8
BLACK
6
CONTINUOUS
10
1.26671
20
1.43701
11
1.26747
21
1.41277
0
LINE
8
BLACK
6
CONTINUOUS
10
1.26747
20
1.41277
11
1.26976
21
1.38862
0
LINE
8
BLACK
6
CONTINUOUS
10
1.13024
20
1.48539
11
1.12645
21
1.50935
0
LINE
8
BLACK
6
CONTINUOUS
10
1.12645
20
1.50935
11
1.12116
21
1.53301
0
LINE
8
BLACK
6
CONTINUOUS
10
1.12116
20
1.53301
11
1.11439
21
1.5563
0
LINE
8
BLACK
6
CONTINUOUS
10
1.11439
20
1.5563
11
1.11437
21
1.55637
0
LINE
8
BLACK
6
CONTINUOUS
10
1.11437
20
1.55637
11
1.11437
21
1.55638
0
LINE
8
BLACK
6
CONTINUOUS
10
1.11437
20
1.55638
11
1.10621
21
1.57905
0
LINE
8
BLACK
6
CONTINUOUS
10
1.10621
20
1.57905
11
1.10621
21
1.57905
0
LINE
8
BLACK
6
CONTINUOUS
10
1.10621
20
1.57905
11
1.10618
21
1.57912
0
LINE
8
BLACK
6
CONTINUOUS
10
1.10618
20
1.57912
11
1.09655
21
1.60138
0
LINE
8
BLACK
6
CONTINUOUS
10
1.09655
20
1.60138
11
1.08554
21
1.62299
0
LINE
8
BLACK
6
CONTINUOUS
10
1.08554
20
1.62299
11
1.07319
21
1.64386
0
LINE
8
BLACK
6
CONTINUOUS
10
1.07319
20
1.64386
11
1.05956
21
1.66392
0
LINE
8
BLACK
6
CONTINUOUS
10
1.05956
20
1.66392
11
1.0447
21
1.68308
0
LINE
8
BLACK
6
CONTINUOUS
10
1.0447
20
1.68308
11
1.02866
21
1.70127
0
LINE
8
BLACK
6
CONTINUOUS
10
1.02866
20
1.70127
11
1.01151
21
1.71842
0
LINE
8
BLACK
6
CONTINUOUS
10
1.01151
20
1.71842
11
0.993318
21
1.73446
0
LINE
8
BLACK
6
CONTINUOUS
10
0.993318
20
1.73446
11
0.974156
21
1.74932
0
LINE
8
BLACK
6
CONTINUOUS
10
0.974156
20
1.74932
11
0.954097
21
1.76296
0
LINE
8
BLACK
6
CONTINUOUS
10
0.954097
20
1.76296
11
0.933223
21
1.7753
0
LINE
8
BLACK
6
CONTINUOUS
10
0.933223
20
1.7753
11
0.933154
21
1.77534
0
LINE
8
BLACK
6
CONTINUOUS
10
0.933154
20
1.77534
11
0.933154
21
1.77534
0
LINE
8
BLACK
6
CONTINUOUS
10
0.933154
20
1.77534
11
0.922418
21
1.78081
0
LINE
8
BLACK
6
CONTINUOUS
10
0.922418
20
1.78081
11
0.911614
21
1.78631
0
LINE
8
BLACK
6
CONTINUOUS
10
0.911614
20
1.78631
11
0.889357
21
1.79594
0
LINE
8
BLACK
6
CONTINUOUS
10
0.889357
20
1.79594
11
0.889284
21
1.79597
0
LINE
8
BLACK
6
CONTINUOUS
10
0.889284
20
1.79597
11
0.866612
21
1.80413
0
LINE
8
BLACK
6
CONTINUOUS
10
0.866612
20
1.80413
11
0.866611
21
1.80413
0
LINE
8
BLACK
6
CONTINUOUS
10
0.866611
20
1.80413
11
0.866539
21
1.80416
0
LINE
8
BLACK
6
CONTINUOUS
10
0.866539
20
1.80416
11
0.866464
21
1.80418
0
LINE
8
BLACK
6
CONTINUOUS
10
0.866464
20
1.80418
11
0.866464
21
1.80418
0
LINE
8
BLACK
6
CONTINUOUS
10
0.866464
20
1.80418
11
0.843325
21
1.8109
0
LINE
8
BLACK
6
CONTINUOUS
10
0.843325
20
1.8109
11
0.843325
21
1.8109
0
LINE
8
BLACK
6
CONTINUOUS
10
0.843325
20
1.8109
11
0.84325
21
1.81092
0
LINE
8
BLACK
6
CONTINUOUS
10
0.84325
20
1.81092
11
0.843174
21
1.81094
0
LINE
8
BLACK
6
CONTINUOUS
10
0.843174
20
1.81094
11
0.843174
21
1.81094
0
LINE
8
BLACK
6
CONTINUOUS
10
0.843174
20
1.81094
11
0.831416
21
1.81357
0
LINE
8
BLACK
6
CONTINUOUS
10
0.831416
20
1.81357
11
0.819582
21
1.81621
0
LINE
8
BLACK
6
CONTINUOUS
10
0.819582
20
1.81621
11
0.819505
21
1.81623
0
LINE
8
BLACK
6
CONTINUOUS
10
0.819505
20
1.81623
11
0.795705
21
1.82
0
LINE
8
BLACK
6
CONTINUOUS
10
0.795705
20
1.82
11
0.795705
21
1.82
0
LINE
8
BLACK
6
CONTINUOUS
10
0.795705
20
1.82
11
0.795628
21
1.82001
0
LINE
8
BLACK
6
CONTINUOUS
10
0.795628
20
1.82001
11
0.795551
21
1.82002
0
LINE
8
BLACK
6
CONTINUOUS
10
0.795551
20
1.82002
11
0.795551
21
1.82002
0
LINE
8
BLACK
6
CONTINUOUS
10
0.795551
20
1.82002
11
0.771561
21
1.82228
0
LINE
8
BLACK
6
CONTINUOUS
10
0.771561
20
1.82228
11
0.77156
21
1.82228
0
LINE
8
BLACK
6
CONTINUOUS
10
0.77156
20
1.82228
11
0.771484
21
1.82229
0
LINE
8
BLACK
6
CONTINUOUS
10
0.771484
20
1.82229
11
0.771407
21
1.82229
0
LINE
8
BLACK
6
CONTINUOUS
10
0.771407
20
1.82229
11
0.771407
21
1.82229
0
LINE
8
BLACK
6
CONTINUOUS
10
0.771407
20
1.82229
11
0.760724
21
1.82263
0
LINE
8
BLACK
6
CONTINUOUS
10
0.760724
20
1.82263
11
0.753556
21
1.82285
0
LINE
8
BLACK
6
CONTINUOUS
10
0.753556
20
1.82285
11
0.740933
21
1.82285
0
LINE
8
BLACK
6
CONTINUOUS
10
0.740933
20
1.82285
11
0.733764
21
1.82263
0
LINE
8
BLACK
6
CONTINUOUS
10
0.733764
20
1.82263
11
0.723081
21
1.82229
0
LINE
8
BLACK
6
CONTINUOUS
10
0.723081
20
1.82229
11
0.723081
21
1.82229
0
LINE
8
BLACK
6
CONTINUOUS
10
0.723081
20
1.82229
11
0.723004
21
1.82229
0
LINE
8
BLACK
6
CONTINUOUS
10
0.723004
20
1.82229
11
0.722928
21
1.82228
0
LINE
8
BLACK
6
CONTINUOUS
10
0.722928
20
1.82228
11
0.722927
21
1.82228
0
LINE
8
BLACK
6
CONTINUOUS
10
0.722927
20
1.82228
11
0.698938
21
1.82002
0
LINE
8
BLACK
6
CONTINUOUS
10
0.698938
20
1.82002
11
0.698937
21
1.82002
0
LINE
8
BLACK
6
CONTINUOUS
10
0.698937
20
1.82002
11
0.69886
21
1.82001
0
LINE
8
BLACK
6
CONTINUOUS
10
0.69886
20
1.82001
11
0.698783
21
1.82
0
LINE
8
BLACK
6
CONTINUOUS
10
0.698783
20
1.82
11
0.698783
21
1.82
0
LINE
8
BLACK
6
CONTINUOUS
10
0.698783
20
1.82
11
0.674984
21
1.81623
0
LINE
8
BLACK
6
CONTINUOUS
10
0.674984
20
1.81623
11
0.674906
21
1.81621
0
LINE
8
BLACK
6
CONTINUOUS
10
0.674906
20
1.81621
11
0.663073
21
1.81357
0
LINE
8
BLACK
6
CONTINUOUS
10
0.663073
20
1.81357
11
0.651315
21
1.81094
0
LINE
8
BLACK
6
CONTINUOUS
10
0.651315
20
1.81094
11
0.651314
21
1.81094
0
LINE
8
BLACK
6
CONTINUOUS
10
0.651314
20
1.81094
11
0.651239
21
1.81092
0
LINE
8
BLACK
6
CONTINUOUS
10
0.651239
20
1.81092
11
0.651164
21
1.8109
0
LINE
8
BLACK
6
CONTINUOUS
10
0.651164
20
1.8109
11
0.651164
21
1.8109
0
LINE
8
BLACK
6
CONTINUOUS
10
0.651164
20
1.8109
11
0.628024
21
1.80418
0
LINE
8
BLACK
6
CONTINUOUS
10
0.628024
20
1.80418
11
0.628024
21
1.80418
0
LINE
8
BLACK
6
CONTINUOUS
10
0.628024
20
1.80418
11
0.62795
21
1.80416
0
LINE
8
BLACK
6
CONTINUOUS
10
0.62795
20
1.80416
11
0.627877
21
1.80413
0
LINE
8
BLACK
6
CONTINUOUS
10
0.627877
20
1.80413
11
0.627877
21
1.80413
0
LINE
8
BLACK
6
CONTINUOUS
10
0.627877
20
1.80413
11
0.605205
21
1.79597
0
LINE
8
BLACK
6
CONTINUOUS
10
0.605205
20
1.79597
11
0.605132
21
1.79594
0
LINE
8
BLACK
6
CONTINUOUS
10
0.605132
20
1.79594
11
0.582874
21
1.78631
0
LINE
8
BLACK
6
CONTINUOUS
10
0.582874
20
1.78631
11
0.57207
21
1.78081
0
LINE
8
BLACK
6
CONTINUOUS
10
0.57207
20
1.78081
11
0.561335
21
1.77534
0
LINE
8
BLACK
6
CONTINUOUS
10
0.561335
20
1.77534
11
0.561334
21
1.77534
0
LINE
8
BLACK
6
CONTINUOUS
10
0.561334
20
1.77534
11
0.561266
21
1.7753
0
LINE
8
BLACK
6
CONTINUOUS
10
0.561266
20
1.7753
11
0.540391
21
1.76296
0
LINE
8
BLACK
6
CONTINUOUS
10
0.540391
20
1.76296
11
0.520333
21
1.74932
0
LINE
8
BLACK
6
CONTINUOUS
10
0.520333
20
1.74932
11
0.50117
21
1.73446
0
LINE
8
BLACK
6
CONTINUOUS
10
0.50117
20
1.73446
11
0.482978
21
1.71842
0
LINE
8
BLACK
6
CONTINUOUS
10
0.482978
20
1.71842
11
0.46583
21
1.70127
0
LINE
8
BLACK
6
CONTINUOUS
10
0.46583
20
1.70127
11
0.449791
21
1.68308
0
LINE
8
BLACK
6
CONTINUOUS
10
0.449791
20
1.68308
11
0.434927
21
1.66392
0
LINE
8
BLACK
6
CONTINUOUS
10
0.434927
20
1.66392
11
0.421296
21
1.64386
0
LINE
8
BLACK
6
CONTINUOUS
10
0.421296
20
1.64386
11
0.40895
21
1.62299
0
LINE
8
BLACK
6
CONTINUOUS
10
0.40895
20
1.62299
11
0.39794
21
1.60138
0
LINE
8
BLACK
6
CONTINUOUS
10
0.39794
20
1.60138
11
0.388309
21
1.57912
0
LINE
8
BLACK
6
CONTINUOUS
10
0.388309
20
1.57912
11
0.388282
21
1.57905
0
LINE
8
BLACK
6
CONTINUOUS
10
0.388282
20
1.57905
11
0.388282
21
1.57905
0
LINE
8
BLACK
6
CONTINUOUS
10
0.388282
20
1.57905
11
0.38012
21
1.55638
0
LINE
8
BLACK
6
CONTINUOUS
10
0.38012
20
1.55638
11
0.38012
21
1.55637
0
LINE
8
BLACK
6
CONTINUOUS
10
0.38012
20
1.55637
11
0.380094
21
1.5563
0
LINE
8
BLACK
6
CONTINUOUS
10
0.380094
20
1.5563
11
0.373328
21
1.53301
0
LINE
8
BLACK
6
CONTINUOUS
10
0.373328
20
1.53301
11
0.368037
21
1.50935
0
LINE
8
BLACK
6
CONTINUOUS
10
0.368037
20
1.50935
11
0.364243
21
1.48539
0
LINE
8
BLACK
6
CONTINUOUS
10
0.364243
20
1.48539
11
0.361961
21
1.46125
0
LINE
8
BLACK
6
CONTINUOUS
10
0.361961
20
1.46125
11
0.361199
21
1.43701
0
LINE
8
BLACK
6
CONTINUOUS
10
0.361199
20
1.43701
11
0.361961
21
1.41277
0
LINE
8
BLACK
6
CONTINUOUS
10
0.361961
20
1.41277
11
0.364243
21
1.38862
0
LINE
8
BLACK
6
CONTINUOUS
10
0.364243
20
1.38862
11
0.368037
21
1.36467
0
LINE
8
BLACK
6
CONTINUOUS
10
0.368037
20
1.36467
11
0.373328
21
1.341
0
LINE
8
BLACK
6
CONTINUOUS
10
0.373328
20
1.341
11
0.380094
21
1.31771
0
LINE
8
BLACK
6
CONTINUOUS
10
0.380094
20
1.31771
11
0.38012
21
1.31764
0
LINE
8
BLACK
6
CONTINUOUS
10
0.38012
20
1.31764
11
0.38012
21
1.31764
0
LINE
8
BLACK
6
CONTINUOUS
10
0.38012
20
1.31764
11
0.388282
21
1.29497
0
LINE
8
BLACK
6
CONTINUOUS
10
0.388282
20
1.29497
11
0.388309
21
1.2949
0
LINE
8
BLACK
6
CONTINUOUS
10
0.388309
20
1.2949
11
0.39794
21
1.27264
0
LINE
8
BLACK
6
CONTINUOUS
10
0.39794
20
1.27264
11
0.40895
21
1.25103
0
LINE
8
BLACK
6
CONTINUOUS
10
0.40895
20
1.25103
11
0.421296
21
1.23015
0
LINE
8
BLACK
6
CONTINUOUS
10
0.421296
20
1.23015
11
0.434927
21
1.2101
0
LINE
8
BLACK
6
CONTINUOUS
10
0.434927
20
1.2101
11
0.449791
21
1.19093
0
LINE
8
BLACK
6
CONTINUOUS
10
0.449791
20
1.19093
11
0.46583
21
1.17274
0
LINE
8
BLACK
6
CONTINUOUS
10
0.46583
20
1.17274
11
0.482978
21
1.15559
0
LINE
8
BLACK
6
CONTINUOUS
10
0.482978
20
1.15559
11
0.50117
21
1.13956
0
LINE
8
BLACK
6
CONTINUOUS
10
0.50117
20
1.13956
11
0.520333
21
1.12469
0
LINE
8
BLACK
6
CONTINUOUS
10
0.520333
20
1.12469
11
0.540391
21
1.11106
0
LINE
8
BLACK
6
CONTINUOUS
10
0.540391
20
1.11106
11
0.561266
21
1.09871
0
LINE
8
BLACK
6
CONTINUOUS
10
0.561266
20
1.09871
11
0.561334
21
1.09868
0
LINE
8
BLACK
6
CONTINUOUS
10
0.561334
20
1.09868
11
0.561335
21
1.09868
0
LINE
8
BLACK
6
CONTINUOUS
10
0.561335
20
1.09868
11
0.57207
21
1.09321
0
LINE
8
BLACK
6
CONTINUOUS
10
0.57207
20
1.09321
11
0.582874
21
1.0877
0
LINE
8
BLACK
6
CONTINUOUS
10
0.582874
20
1.0877
11
0.605132
21
1.07807
0
LINE
8
BLACK
6
CONTINUOUS
10
0.605132
20
1.07807
11
0.605205
21
1.07805
0
LINE
8
BLACK
6
CONTINUOUS
10
0.605205
20
1.07805
11
0.605205
21
1.07805
0
LINE
8
BLACK
6
CONTINUOUS
10
0.605205
20
1.07805
11
0.627877
21
1.06988
0
LINE
8
BLACK
6
CONTINUOUS
10
0.627877
20
1.06988
11
0.627877
21
1.06988
0
LINE
8
BLACK
6
CONTINUOUS
10
0.627877
20
1.06988
11
0.62795
21
1.06986
0
LINE
8
BLACK
6
CONTINUOUS
10
0.62795
20
1.06986
11
0.628024
21
1.06984
0
LINE
8
BLACK
6
CONTINUOUS
10
0.628024
20
1.06984
11
0.628024
21
1.06984
0
LINE
8
BLACK
6
CONTINUOUS
10
0.628024
20
1.06984
11
0.651164
21
1.06311
0
LINE
8
BLACK
6
CONTINUOUS
10
0.651164
20
1.06311
11
0.651239
21
1.06309
0
LINE
8
BLACK
6
CONTINUOUS
10
0.651239
20
1.06309
11
0.651314
21
1.06307
0
LINE
8
BLACK
6
CONTINUOUS
10
0.651314
20
1.06307
11
0.651315
21
1.06307
0
LINE
8
BLACK
6
CONTINUOUS
10
0.651315
20
1.06307
11
0.663073
21
1.06045
0
LINE
8
BLACK
6
CONTINUOUS
10
0.663073
20
1.06045
11
0.674906
21
1.0578
0
LINE
8
BLACK
6
CONTINUOUS
10
0.674906
20
1.0578
11
0.674984
21
1.05779
0
LINE
8
BLACK
6
CONTINUOUS
10
0.674984
20
1.05779
11
0.674984
21
1.05779
0
LINE
8
BLACK
6
CONTINUOUS
10
0.674984
20
1.05779
11
0.698783
21
1.05402
0
LINE
8
BLACK
6
CONTINUOUS
10
0.698783
20
1.05402
11
0.698783
21
1.05402
0
LINE
8
BLACK
6
CONTINUOUS
10
0.698783
20
1.05402
11
0.69886
21
1.05401
0
LINE
8
BLACK
6
CONTINUOUS
10
0.69886
20
1.05401
11
0.698937
21
1.054
0
LINE
8
BLACK
6
CONTINUOUS
10
0.698937
20
1.054
11
0.698938
21
1.054
0
LINE
8
BLACK
6
CONTINUOUS
10
0.698938
20
1.054
11
0.722927
21
1.05173
0
LINE
8
BLACK
6
CONTINUOUS
10
0.722927
20
1.05173
11
0.722928
21
1.05173
0
LINE
8
BLACK
6
CONTINUOUS
10
0.722928
20
1.05173
11
0.723004
21
1.05172
0
LINE
8
BLACK
6
CONTINUOUS
10
0.723004
20
1.05172
11
0.723081
21
1.05172
0
LINE
8
BLACK
6
CONTINUOUS
10
0.723081
20
1.05172
11
0.723081
21
1.05172
0
LINE
8
BLACK
6
CONTINUOUS
10
0.723081
20
1.05172
11
0.733764
21
1.05139
0
LINE
8
BLACK
6
CONTINUOUS
10
0.733764
20
1.05139
11
0.740933
21
1.05116
0
LINE
8
BLACK
6
CONTINUOUS
10
0.740933
20
1.05116
11
0.753556
21
1.05116
0
LINE
8
BLACK
6
CONTINUOUS
10
0.753556
20
1.05116
11
0.760724
21
1.05139
0
LINE
8
BLACK
6
CONTINUOUS
10
0.760724
20
1.05139
11
0.771407
21
1.05172
0
LINE
8
BLACK
6
CONTINUOUS
10
0.771407
20
1.05172
11
0.771407
21
1.05172
0
LINE
8
BLACK
6
CONTINUOUS
10
0.771407
20
1.05172
11
0.771484
21
1.05172
0
LINE
8
BLACK
6
CONTINUOUS
10
0.771484
20
1.05172
11
0.77156
21
1.05173
0
LINE
8
BLACK
6
CONTINUOUS
10
0.77156
20
1.05173
11
0.771561
21
1.05173
0
LINE
8
BLACK
6
CONTINUOUS
10
0.771561
20
1.05173
11
0.795551
21
1.054
0
LINE
8
BLACK
6
CONTINUOUS
10
0.795551
20
1.054
11
0.795551
21
1.054
0
LINE
8
BLACK
6
CONTINUOUS
10
0.795551
20
1.054
11
0.795628
21
1.05401
0
LINE
8
BLACK
6
CONTINUOUS
10
0.795628
20
1.05401
11
0.795705
21
1.05402
0
LINE
8
BLACK
6
CONTINUOUS
10
0.795705
20
1.05402
11
0.795705
21
1.05402
0
LINE
8
BLACK
6
CONTINUOUS
10
0.795705
20
1.05402
11
0.819505
21
1.05779
0
LINE
8
BLACK
6
CONTINUOUS
10
0.819505
20
1.05779
11
0.819505
21
1.05779
0
LINE
8
BLACK
6
CONTINUOUS
10
0.819505
20
1.05779
11
0.819582
21
1.0578
0
LINE
8
BLACK
6
CONTINUOUS
10
0.819582
20
1.0578
11
0.831416
21
1.06045
0
LINE
8
BLACK
6
CONTINUOUS
10
0.831416
20
1.06045
11
0.843174
21
1.06307
0
LINE
8
BLACK
6
CONTINUOUS
10
0.843174
20
1.06307
11
0.843174
21
1.06307
0
LINE
8
BLACK
6
CONTINUOUS
10
0.843174
20
1.06307
11
0.84325
21
1.06309
0
LINE
8
BLACK
6
CONTINUOUS
10
0.84325
20
1.06309
11
0.843325
21
1.06311
0
LINE
8
BLACK
6
CONTINUOUS
10
0.843325
20
1.06311
11
0.866464
21
1.06984
0
LINE
8
BLACK
6
CONTINUOUS
10
0.866464
20
1.06984
11
0.866464
21
1.06984
0
LINE
8
BLACK
6
CONTINUOUS
10
0.866464
20
1.06984
11
0.866539
21
1.06986
0
LINE
8
BLACK
6
CONTINUOUS
10
0.866539
20
1.06986
11
0.866611
21
1.06988
0
LINE
8
BLACK
6
CONTINUOUS
10
0.866611
20
1.06988
11
0.866612
21
1.06988
0
LINE
8
BLACK
6
CONTINUOUS
10
0.866612
20
1.06988
11
0.889284
21
1.07805
0
LINE
8
BLACK
6
CONTINUOUS
10
0.889284
20
1.07805
11
0.889284
21
1.07805
0
LINE
8
BLACK
6
CONTINUOUS
10
0.889284
20
1.07805
11
0.889357
21
1.07807
0
LINE
8
BLACK
6
CONTINUOUS
10
0.889357
20
1.07807
11
0.911614
21
1.0877
0
LINE
8
BLACK
6
CONTINUOUS
10
0.911614
20
1.0877
11
0.922418
21
1.09321
0
LINE
8
BLACK
6
CONTINUOUS
10
0.922418
20
1.09321
11
0.933154
21
1.09868
0
LINE
8
BLACK
6
CONTINUOUS
10
0.933154
20
1.09868
11
0.933154
21
1.09868
0
LINE
8
BLACK
6
CONTINUOUS
10
0.933154
20
1.09868
11
0.933223
21
1.09871
0
LINE
8
BLACK
6
CONTINUOUS
10
0.933223
20
1.09871
11
0.954097
21
1.11106
0
LINE
8
BLACK
6
CONTINUOUS
10
0.954097
20
1.11106
11
0.974156
21
1.12469
0
LINE
8
BLACK
6
CONTINUOUS
10
0.974156
20
1.12469
11
0.993318
21
1.13956
0
LINE
8
BLACK
6
CONTINUOUS
10
0.993318
20
1.13956
11
1.01151
21
1.15559
0
LINE
8
BLACK
6
CONTINUOUS
10
1.01151
20
1.15559
11
1.02866
21
1.17274
0
LINE
8
BLACK
6
CONTINUOUS
10
1.02866
20
1.17274
11
1.0447
21
1.19093
0
LINE
8
BLACK
6
CONTINUOUS
10
1.0447
20
1.19093
11
1.05956
21
1.2101
0
LINE
8
BLACK
6
CONTINUOUS
10
1.05956
20
1.2101
11
1.07319
21
1.23015
0
LINE
8
BLACK
6
CONTINUOUS
10
1.07319
20
1.23015
11
1.08554
21
1.25103
0
LINE
8
BLACK
6
CONTINUOUS
10
1.08554
20
1.25103
11
1.09655
21
1.27264
0
LINE
8
BLACK
6
CONTINUOUS
10
1.09655
20
1.27264
11
1.10618
21
1.2949
0
LINE
8
BLACK
6
CONTINUOUS
10
1.10618
20
1.2949
11
1.10621
21
1.29497
0
LINE
8
BLACK
6
CONTINUOUS
10
1.10621
20
1.29497
11
1.11437
21
1.31764
0
LINE
8
BLACK
6
CONTINUOUS
10
1.11437
20
1.31764
11
1.11437
21
1.31764
0
LINE
8
BLACK
6
CONTINUOUS
10
1.11437
20
1.31764
11
1.11439
21
1.31771
0
LINE
8
BLACK
6
CONTINUOUS
10
1.11439
20
1.31771
11
1.12116
21
1.341
0
LINE
8
BLACK
6
CONTINUOUS
10
1.12116
20
1.341
11
1.12645
21
1.36467
0
LINE
8
BLACK
6
CONTINUOUS
10
1.12645
20
1.36467
11
1.13024
21
1.38862
0
LINE
8
BLACK
6
CONTINUOUS
10
1.13024
20
1.38862
11
1.13253
21
1.41277
0
LINE
8
BLACK
6
CONTINUOUS
10
1.13253
20
1.41277
11
1.13329
21
1.43701
0
LINE
8
BLACK
6
CONTINUOUS
10
1.13329
20
1.43701
11
1.13253
21
1.46125
0
LINE
8
BLACK
6
CONTINUOUS
10
1.13253
20
1.46125
11
1.13024
21
1.48539
  0
ENDSEC
  0
EOF
